<svg xmlns="http://www.w3.org/2000/svg" width="200" height="200" viewBox="0 0 500 500"><title>2Artboard 1</title><path fill="#7bbb4b" d="M396.11,187.91S474.32,157,447.9,113.14l-3.32-5a64.4,64.4,0,0,1-10.46-30.16,1.21,1.21,0,0,1,2.35-.42c1.91,7,10.47,21.36,17.72,29.58,19.95,22.62,46.31,78.52-55.53,93.87Z"/><path fill="#f6a458" d="M429.56,126.22l0,0-1.19-1-.05,0c-.36-.3-.71-.57-1-.83l-.06,0-.89-.68-.07-.06-.72-.53-.07,0-.54-.38-.06,0-.34-.24-.05,0-.14-.09h0A107.94,107.94,0,0,0,405,113.91c-18.9-6.21-21.45-20.81-20.86-30.46a1.23,1.23,0,0,0-2.41-.41c-2.56,9.2-2.09,24.17,19.27,37.73a71,71,0,0,1,14,11.3,27.82,27.82,0,0,1-.67,38.22c-5,5.14-10.85,12.15-13.67,21.79,0,0-1.24,3.78,0,11.58,0,0,16.41-18.61,32.78-27.34l.07.4c.45-.37.89-.74,1.31-1.12h0l1.09-1,.25-.23.93-.9.31-.31.82-.87c.11-.11.22-.23.32-.35.26-.28.5-.56.74-.84l.32-.37.66-.82q.17-.19.3-.39c.21-.27.41-.54.61-.82l.27-.38c.19-.28.37-.55.54-.82l.25-.38c.17-.27.33-.55.49-.82l.21-.37c.15-.28.31-.55.45-.83.06-.11.11-.23.17-.34.14-.29.28-.57.41-.85,0-.11.09-.21.13-.31.13-.29.26-.59.37-.88a2.09,2.09,0,0,0,.08-.23c.13-.32.25-.64.35-1h0a22.51,22.51,0,0,0,1-4.54h0C447.42,143.66,436.42,132.06,429.56,126.22Z"/><path fill="#f09bc2" d="M447,126.55c-1.13-1-2.19-1.93-3.2-2.91h0C419.19,99.49,430,66.19,431.54,63.45a1.68,1.68,0,0,0-2.62-2.05,47.23,47.23,0,0,0-8.48,11.92C408,98.58,423.29,121,430.61,129.58a30.77,30.77,0,0,1,7.53,19.09c.63,28.69-42,39.15-42,39.15v9.26c31.39-4.83,48.75-13,57.7-22h0C470.65,155.36,453.73,133.37,447,126.55Z"/><path fill="#f4da5b" d="M407.35,201s42.43-16.05,53.3-33.76,7.12-58.38,33.35-53.27c0,0-19.44-11-33.75,10.42s-4.57,47-62.17,70.93Z"/><path fill="#564093" d="M295.35,257.38s-7.37,29.82,2.19,59c1.7,4,.57,6.52-2.43,8s-50.38,18.09-55.48,20.77c-4.64,2.45-13.4,20.88-14.17,33.48a54.05,54.05,0,0,0,19.06,1.23s.3-22.46,2.44-23.95,66.71-12.29,71.12-20.78,18.9-45.6,9.53-62.07c-2.63-4.63-7.47-13.48-7.47-13.48Z"/><path fill="#2a3034" d="M225.46,378.59s-7.23,23.38.1,25.09c7.1,1.65,19.87-4.56,20.59-7.58.94-4,2.53-13.83,1.15-16S225.46,378.59,225.46,378.59Z"/><path fill="#564093" d="M153.86,286.71l-8.8-30.06s-32.45,24.69-46.2,42.16c-4,5.13-21.66,37.51-20.2,51.76.59,5.72,5.56,30.3,5.56,30.3l19.37-5.45s-15.4-22.24-12-30.06C108.35,307.09,153.86,286.71,153.86,286.71Z"/><path fill="#2a3034" d="M105.37,375.26c-2-1.63-21.15,5.61-21.15,5.61s.67,24.46,8.15,23.72c7.26-.71,17.36-10.7,17.06-13.79C109,386.69,107.39,376.89,105.37,375.26Z"/><path fill="#2a3034" d="M277.3,426.38s-7.23,23.37.1,25.08c7.09,1.65,19.87-4.55,20.58-7.57.95-4,2.54-13.83,1.15-16S277.3,426.38,277.3,426.38Z"/><path fill="#2a3034" d="M187.26,364.26c-1.95,1.71,1.93,21.8,1.93,21.8s24.21,3.51,24.76-4c.53-7.27-7.58-18.92-10.68-19.16C199.15,362.59,189.22,362.54,187.26,364.26Z"/><circle cx="65.15" cy="124.5" r="4.09" fill="#2a3034"/><path fill="#644b99" d="M334.21,161.34c-40.32,1.83-84.54,5.13-111.44,5.13-42.87,0-61.22-16.75-77-30.79-1.73-1.54-3.38-3.09-5-4.64-12.59-29.64-38.9-49.73-69.42-36.39,0,0-17.78-7.71-20.25-9.78s-6.3-4.26-3.86,1.43c1.43,3.33,2.94,7.1,8.53,14.32-19.19,15.92-15.94,37.88-23.43,51.45-6.37,11.52-12.17,18.24-7.85,27.78,4.49,9.92,17.9,15.75,28.05,6.85,5.51-4.84,2.61-7.67,14.22-15.88,11.23-1.21,18.45-5.66,19.39-16.13,0,0,12.67,24.24,24.4,41.84s29.33,36.66,29.33,36.66c-1.54,14.4,1.41,25.52,6.43,34.27-4.52,8.88-10.83,21.2-16.62,32.2-7.69,14.61-17.28,37.81-14.18,42.44,6.26,9.36,31.89,34.32,48.53,38.84a240.18,240.18,0,0,0,25.1,5.12l-2.27-18.46s-15.75,2.5-22-1c-16.74-9.32-31.28-26.37-31.77-29.82-.82-5.71,45.06-33.64,60.3-42.75,26.58,1.14,70.63-4.34,101.18-20,11.24,21.81,34.93,29.48,34.93,29.48s7.81,25.9,16.12,48.39c-11.93,6.24-52.4,38.16-58.35,45.21-5.34,6.33-10,29.21-10,29.21a30.52,30.52,0,0,0,18.42,2.19s.46-18.33,4.52-24.32,55.14-30,69.89-40.56c5.78-4.13,4.74-10.59,3.08-18.21-3.77-17.25-11.39-56.08-11.39-56.08C422.19,254.45,437.58,156.65,334.21,161.34Z"/><circle cx="65.44" cy="125.69" r="3.85" fill="#2a3034"/><path fill="#36287a" d="M34.11,173.16c.25,2.71-1.19,5.05-3.2,5.23s-3.86-1.86-4.1-4.57,1.2-5.06,3.21-5.24S33.87,170.44,34.11,173.16Z"/><path fill="#4cb2e5" d="M199.58,132.25c-19,6.06-32,10.81-32,10.81s-11,4.88-20-15.54L140,139.26l13.91,39.33,46.35-4.76,19.71-28.6S218.61,126.2,199.58,132.25Z"/><path fill="#238ccd" d="M101.3,100.71l0,0h0Z"/><path fill="#f09bc2" d="M85.84,83.11a54.72,54.72,0,0,0-14.5,3.42c-2.08.23-5.21,1.22-10,3.6-8.17,4.05-18.49,16.05-28.57,11.77,3.31,10.51,14,8.8,14,8.8,5.6-7.46,17.86-13.83,26.62-15.79a52.6,52.6,0,0,1,12-.31l-.06,0s16,14.36,6.48,27.22c0,0,12.57-14.47,7.82-23.6l-4.77-9.13C93.21,85.4,88.85,82.78,85.84,83.11Z"/><path fill="#f6a458" d="M108.63,83.59a91.18,91.18,0,0,0-14.54-.86,10.75,10.75,0,0,1,.74,6.39l4.77,9.13h0c0,.07.76,1,1.69,2.46l0,0h0c3.7,5.93,10.83,21.2-5.57,31.5,0,0,18.77-10.33,20.37-21.85A40.67,40.67,0,0,0,108.63,83.59Z"/><path fill="#238ccd" d="M136,97.36l0,.08Z"/><path fill="#238ccd" d="M136.05,97.5s0,0,0,0Z"/><path fill="#7bbb4b" d="M190.87,120.41a59.28,59.28,0,0,1-13.19,7.17,23.22,23.22,0,0,1-29.26-12.75c-2.36-5.5-5.89-12.26-12.42-17.52,0,0-2.52-2.16-8.92-3.74,0,0,9.1,18.61,10.59,34l-.34-.08q.21.7.45,1.38h0c.13.4.27.78.41,1.16a2,2,0,0,0,.1.26c.13.35.26.68.4,1,0,.11.09.23.14.34.13.31.26.61.4.91l.16.36q.21.44.42.84c.06.12.12.25.18.36.14.27.28.53.43.78s.13.24.2.36l.43.72.21.34.46.68.22.31c.15.22.31.43.47.64a3,3,0,0,0,.22.28c.16.21.32.41.49.61l.21.24c.18.2.35.4.53.59l.19.2c.19.19.37.39.56.57l.15.13c.21.2.42.4.63.58h0a18.88,18.88,0,0,0,3.18,2.23h0c9.8,5.44,22.26.68,29-2.74h0l1.14-.6.05,0,1-.54.06,0,.81-.46.06,0,.64-.39.06,0,.47-.29.05,0c.13-.07.22-.14.29-.18l.05,0,.11-.08h0a90.8,90.8,0,0,0,12.56-12.22c10.84-12.58,22.91-9.87,30.16-6.33a1,1,0,0,0,1.09-1.72C219.86,112.72,208.17,108.29,190.87,120.41Z"/><polygon fill="#f09bc2" points="437.24 118.9 437.24 118.9 437.24 118.9 437.24 118.9"/><path fill="#f09bc2" d="M213.85,145.28c-9.43,1.3-18.9,5.58-25.88,9.44-17.18,9.5-38.74-1.17-41.2-20.57h0a15.14,15.14,0,0,0-1.14-4.33A37.37,37.37,0,0,0,136,116.74c-8-7-1.45,11.39-1.45,11.39l10.77,18.45-.94,11.07,14.91,29.18,31.57-1.9,46.48-23.25S232.25,142.75,213.85,145.28Z"/><path fill="#f6a458" d="M200.21,165.82c-26.64,12.77-44.06,15.55-52-18.32l0-.19a53,53,0,0,0-8.74-18.85l-3.91-5.38L133,136.64l8.4,33.11a70.18,70.18,0,0,0,3.71,11.89c3.88,9.39,11.16,20.77,23.42,19.68a30.71,30.71,0,0,0,12-3.77l53-29.11s3-2.07,14.93-2.62C248.45,165.82,226.86,153.06,200.21,165.82Z"/><path fill="#f4da5b" d="M121.36,88.34a33.51,33.51,0,0,0-12.73-4.75,40.67,40.67,0,0,1,7.49,26.81c7.2,7.84,12.57,17.82,16.38,28.2,2.52,6.87,8,29.85,12.62,43.17,0,0-9.36-30.57-7.44-46.6a34.22,34.22,0,0,0,.1-6.27q-.24-.68-.45-1.38.21.7.45,1.38c-1.08-15.65-10.7-35.33-10.7-35.33A28.48,28.48,0,0,0,121.36,88.34Z"/><path fill="#644b99" d="M63.47,81c2,3.4,12.82,4.39,17.23,17.15s-8.83,10-13.17,3.84c-4.84-6.81-6.78-12.3-7.32-17C59.93,82.56,59.35,74.12,63.47,81Z"/><path fill="#36287a" d="M64.7,86.41c3.66,2.67,8.21,6.92,9.25,11.43s-3.19,3.35-5.45-.66-3.09-8.34-4.38-9.64S64.7,86.41,64.7,86.41Z"/><path fill="#f4da5b" d="M62.07,99.09h0l0,0L62,99s0-.08-.06-.11l-.12-.08C57.49,94.4,12.9,59.46,9.74,62.1s38,42.3,40.62,44.74l0,0,2,2s0,.08.06.11l.16.11.18.17,0-.06c2.16,1.66,5.74,1,8.23-1.68S64,101.11,62.07,99.09Z"/><path fill="#f6a458" d="M27.07,72a.3.3,0,0,1,0-.1C26,71,24.83,70.25,23.74,69.5c-.08.15-.12.27-.21.43a15.88,15.88,0,0,1-2,2.75,15.51,15.51,0,0,1-2.41,2.21l-.24.16,2.77,3A20.76,20.76,0,0,0,27.07,72Z"/><path fill="#f6a458" d="M35.21,84.71A19,19,0,0,0,38.33,80L35,77.54A13.43,13.43,0,0,1,32.18,82a13.9,13.9,0,0,1-3.81,3.11c1,1,1.94,2,2.92,3A19.31,19.31,0,0,0,35.21,84.71Z"/><path fill="#f6a458" d="M46.26,94.38a18.08,18.08,0,0,0,3.5-5.55L46.3,86.12a11.82,11.82,0,0,1-3.08,5.55,12.62,12.62,0,0,1-4.81,3.56l3.05,3A18.52,18.52,0,0,0,46.26,94.38Z"/></svg>