<svg xmlns="http://www.w3.org/2000/svg" xmlns:xlink="http://www.w3.org/1999/xlink" id="Layer_1" x="0" y="0" enable-background="new 0 0 190.1 128.9" version="1.1" viewBox="0 0 190.1 128.9" xml:space="preserve"><g><line x1="125.2" x2="156.2" y1="64.1" y2="64.1" fill="#EF8A21" stroke="#333" stroke-linecap="round" stroke-miterlimit="10" stroke-width="10.534"/><path fill="#EF8A21" d="M16.3,40.5L1.9,32.8c-2.5-1.4-2.6-4.9-0.2-6.4l13.9-8.5L16.3,40.5z"/><path fill="#EF8A21" d="M99.9,100.7c23.2-8.4,35.2-33.9,26.8-57.1S92.8,8.5,69.6,16.8s-7.2,23.8,1.2,47S76.7,109.1,99.9,100.7z"/><circle cx="40.2" cy="29.2" r="29.2" fill="#FDD800"/><path fill="#FDD800" d="M140.7,48.1c0,26.1-21.1,47.2-47.2,47.2S46.3,74.2,46.3,48.1s21.1-26.7,47.2-26.7S140.7,22,140.7,48.1z"/><path fill="#FDD800" d="M158.1,64.1H93.5V21.4h88.8c4.3,0,7.8,3.5,7.8,7.8v3C190.1,49.8,175.8,64.1,158.1,64.1z"/><path fill="#EF8A21" d="M73.3,42.3c23.2,8.4,35.2,33.9,26.8,57.1S66.2,134.6,43,126.2s-7.2-23.8,1.2-47S50.1,34,73.3,42.3z"/><line x1="125.2" x2="156.2" y1="75.3" y2="75.3" fill="#EF8A21" stroke="#333" stroke-linecap="round" stroke-miterlimit="10" stroke-width="10.534"/><circle cx="31.1" cy="21.9" r="4.9" fill="#333"/></g></svg>