<svg xmlns="http://www.w3.org/2000/svg" xmlns:xlink="http://www.w3.org/1999/xlink" id="Layer_1" x="0" y="0" enable-background="new 0 0 215.1 227.6" version="1.1" viewBox="0 0 215.1 227.6" xml:space="preserve"><g><path fill="#5E5E5E" d="M125.8,175l8.5,24.3l0.9,2.5l-1.8,3l0,0l-0.5,0.7l-0.4,0.6c-0.3,0.4-0.5,0.7-0.8,1.1 c-0.5,0.7-1.1,1.3-1.7,2c-0.6,0.6-1.1,1.3-1.7,1.9c-0.6,0.6-1.2,1.2-1.8,1.8c-0.6,0.6-1.2,1.2-1.9,1.7l-1.9,1.6l-2,1.5 c-0.7,0.5-1.4,1-2.1,1.5l-1,0.7l-1.1,0.7c-0.7,0.4-1.4,0.9-2.2,1.3l-2.3,1.2c-0.7,0.4-1.5,0.7-2.3,1.1c-0.8,0.3-1.5,0.7-2.3,1 l-2.4,0.9c-0.8,0.3-1.6,0.5-2.4,0.8l-2.5,0.7c-3.7,1-7.6-1.1-8.6-4.8c-1-3.7,1.1-7.6,4.8-8.6l0.5-0.1l1.8-0.5 c0.6-0.2,1.2-0.3,1.8-0.6l1.8-0.7c0.6-0.2,1.2-0.5,1.8-0.8c0.6-0.3,1.2-0.5,1.7-0.8l1.7-0.9c0.6-0.3,1.1-0.7,1.7-1l0.8-0.5l0.8-0.5 c0.5-0.4,1.1-0.7,1.6-1.1l1.5-1.2l1.5-1.3c0.5-0.4,1-0.9,1.4-1.3c0.5-0.4,0.9-0.9,1.4-1.4c0.4-0.5,0.9-0.9,1.3-1.4 c0.4-0.5,0.8-1,1.2-1.4c0.2-0.2,0.4-0.5,0.6-0.7l0.2-0.3l0.2-0.2l-0.9,5.5l-3.9-25.4c-0.4-2.5,1.3-4.9,3.9-5.3 C123,171.6,125.1,172.9,125.8,175"/><path fill="#5E5E5E" d="M151,151.2l18.4,10.7l-5.6-1.2l1.2-0.3l1.4-0.4c0.9-0.3,1.8-0.6,2.8-0.9c1.8-0.6,3.7-1.3,5.5-2.1 c3.6-1.5,7.1-3.3,10.4-5.3c3.3-2,6.5-4.2,9.5-6.7c0.7-0.6,1.4-1.2,2.2-1.9c0.7-0.7,1.4-1.3,2.1-2c0.7-0.7,1.3-1.4,2-2 c0.7-0.7,1.2-1.4,1.9-2.1l0.3-0.3c2.6-2.9,7-3.1,9.9-0.6c2.9,2.6,3.1,6.9,0.6,9.8c-0.8,0.9-1.5,1.8-2.3,2.6 c-0.8,0.9-1.6,1.7-2.4,2.5c-0.8,0.8-1.7,1.6-2.5,2.4c-0.9,0.8-1.7,1.5-2.6,2.3c-3.5,3-7.3,5.6-11.2,7.9c-3.9,2.3-8,4.4-12.1,6.2 c-2.1,0.9-4.2,1.7-6.4,2.4c-1.1,0.4-2.2,0.7-3.3,1.1l-1.7,0.5l-0.9,0.2l-1,0.2l0,0l-3.6,0.6l-2-1.8L145.4,159 c-2-1.8-2.2-4.8-0.4-6.8C146.6,150.5,149.1,150.1,151,151.2"/><path fill="#5E5E5E" d="M162.8,124.8l24.9-17.7l-3.2,4.2v0l0.6-2.3l0.6-2.4c0.4-1.6,0.7-3.2,1.1-4.8c0.3-1.6,0.7-3.2,1-4.8 c0.3-1.6,0.6-3.2,0.8-4.8l0.4-2.4l0.3-2.4c0.1-0.8,0.2-1.6,0.2-2.4c0.1-0.8,0.2-1.6,0.2-2.3c0-0.8,0.1-1.5,0.1-2.3l0-2.2l-0.2-2 c-0.1-0.6-0.2-1.1-0.3-1.6l-0.2-1.3c-0.5-3.8,2.2-7.3,6-7.8c3.6-0.5,7,2,7.7,5.5c0.2,1.1,0.5,2.3,0.6,3.4l0.3,3.1l0,2.9 c0,1-0.1,1.9-0.1,2.8c0,1-0.1,1.9-0.2,2.8c-0.1,0.9-0.2,1.8-0.3,2.7l-0.3,2.7l-0.4,2.7c-0.3,1.8-0.6,3.5-0.9,5.3 c-0.3,1.7-0.7,3.5-1,5.2c-0.4,1.7-0.8,3.4-1.2,5.1l-0.6,2.6l-0.7,2.6l0,0l-1.2,3.3l-2.1,0.9l-27.8,12.6c-2.1,0.9-4.5,0-5.4-2 C160.6,128,161.2,125.9,162.8,124.8"/><path fill="#898989" d="M52.7,129.6l-21.2,2.4l-2,0.2l-2.4-1.7l-0.8-0.7l-0.7-0.6l-1.3-1.2c-0.9-0.8-1.7-1.6-2.5-2.5 c-1.6-1.7-3.2-3.4-4.7-5.2c-3-3.6-5.7-7.4-8.1-11.5c-0.6-1-1.2-2.1-1.7-3.1c-0.5-1.1-1.1-2.1-1.6-3.2c-0.5-1.1-1-2.2-1.4-3.3 C3.8,98.2,3.4,97.1,3,96c-0.4-1.1-0.7-2.3-1.1-3.5c-0.3-1.2-0.6-2.3-0.8-3.5l-0.4-1.8l-0.3-1.8c-0.2-1.2-0.3-2.4-0.4-3.6 c-0.4-3.8,2.3-7.3,6.1-7.7c3.8-0.4,7.2,2.3,7.7,6l0.1,0.6c0.1,0.9,0.2,1.8,0.3,2.8l0.2,1.4l0.3,1.4c0.2,0.9,0.4,1.8,0.6,2.7 c0.3,0.9,0.5,1.8,0.8,2.7c0.3,0.9,0.6,1.8,1,2.7c0.4,0.9,0.7,1.8,1.1,2.6c0.4,0.9,0.8,1.7,1.3,2.6c0.5,0.8,0.9,1.7,1.4,2.5 c1.9,3.3,4.2,6.5,6.8,9.6c1.3,1.5,2.6,3,4,4.4c0.7,0.7,1.4,1.4,2.1,2l1.1,1l0.5,0.5l0.4,0.4l-4.4-1.5l21.2,1.9 c2.7,0.2,4.6,2.6,4.4,5.2C56.8,127.6,55,129.4,52.7,129.6"/><path fill="#898989" d="M50.9,95.1L35.5,68.7l-0.9-1.6l0.5-3.1l1.5-5.4l1.5-5.4c1-3.6,2.1-7.2,3.2-10.7c1.1-3.6,2.3-7.2,3.7-10.8 c0.7-1.8,1.4-3.6,2.2-5.4c0.4-0.9,0.8-1.8,1.3-2.8c0.4-0.9,1-1.9,1.5-2.9c1.9-3.4,6.2-4.5,9.5-2.6c3.3,1.9,4.5,6.1,2.7,9.5L62,27.6 c-0.3,0.6-0.7,1.3-1,2c-0.3,0.7-0.7,1.5-1,2.2c-0.7,1.5-1.3,3.2-1.9,4.8c-1.2,3.3-2.4,6.7-3.4,10.1c-1.1,3.4-2.1,6.9-3.1,10.4 L50,62.3l-1.4,5.2l-0.4-4.7l10.1,28.8c0.7,2.1-0.4,4.5-2.5,5.2C53.9,97.5,51.9,96.7,50.9,95.1"/><path fill="#898989" d="M65.6,161l-17.9,18.5l2.4-5l0,0.3l0,0.4c0,0.3,0,0.6,0,0.9c0,0.6,0.1,1.2,0.2,1.9c0.1,0.6,0.2,1.3,0.3,1.9 c0.1,0.6,0.2,1.3,0.3,1.9c0.1,0.6,0.3,1.3,0.4,1.9l0.5,1.9l0.6,1.9c0.2,0.6,0.4,1.2,0.7,1.8l0.3,0.9l0.4,0.9 c0.3,0.6,0.5,1.2,0.8,1.8l0.9,1.7c0.3,0.6,0.6,1.1,1,1.7c0.3,0.5,0.6,1.1,1,1.6l1.1,1.6c0.3,0.5,0.8,1,1.2,1.5l1.2,1.5l0.3,0.4 c2.4,3,1.9,7.4-1,9.8c-3,2.4-7.4,2-9.8-1l-1.6-2c-0.5-0.7-1.1-1.3-1.6-2l-1.5-2.1c-0.5-0.7-0.9-1.4-1.3-2.2 c-0.4-0.7-0.9-1.4-1.3-2.2l-1.2-2.3c-0.4-0.8-0.7-1.5-1-2.3l-0.5-1.2l-0.4-1.2c-0.3-0.8-0.6-1.6-0.9-2.4l-0.8-2.4l-0.6-2.4 c-0.2-0.8-0.4-1.6-0.5-2.5c-0.2-0.8-0.3-1.7-0.4-2.5c-0.1-0.8-0.2-1.7-0.3-2.5c-0.1-0.9-0.2-1.7-0.2-2.6c0-0.4,0-0.9-0.1-1.3l0-0.7 l0-0.8l0,0l0.3-3.5l2.1-1.5l21-15c2.1-1.5,5-1,6.5,1.1C67.3,156.9,67.1,159.4,65.6,161"/><path fill="#898989" d="M172.6,126.7c0.7-2.5-0.1-5.1-1.9-6.9L143,93.4c4.2-2.8,12-6.5,27.5-10.9c2.3-0.6,3.9-2.6,4.2-4.9 c3-31-19.2-64.6-26.9-75.2c-1.5-2.1-4.2-2.9-6.6-2.1c-12.4,4.2-49.9,18.9-65.3,45.9c-1.2,2-0.9,4.6,0.6,6.4 c10.1,12.6,14.3,20,16.1,24.7L54.7,83c-2.5,0.4-4.7,2.1-5.5,4.5c-4.9,13.3-15.9,57.7,34.4,97.8c1.3,1.1,3,1.6,4.7,1.5 C152.3,183,168.9,140.3,172.6,126.7"/><path fill="#5E5E5E" d="M172.6,126.7c0.7-2.5-0.1-5.1-1.9-6.9L143,93.4c4.2-2.8,12-6.5,27.5-10.9c2.3-0.6,3.9-2.6,4.2-4.9 c3-31-19.2-64.6-26.9-75.2c-0.8-1-1.8-1.8-3-2.1L85.7,186.5c0.8,0.3,1.6,0.4,2.5,0.3C152.3,183,168.9,140.3,172.6,126.7"/><path fill="#F4E95A" d="M96.9,125.4l3.2,1.2l-4.7,16.1c-0.8,2.8,2.8,4.8,4.7,2.6l16.6-19.1c1.3-1.4,0.7-3.7-1.1-4.4l-3.2-1.2 l4.7-16.1c0.8-2.8-2.8-4.8-4.7-2.6L95.8,121C94.5,122.5,95.1,124.7,96.9,125.4"/></g></svg>