<svg xmlns="http://www.w3.org/2000/svg" xmlns:xlink="http://www.w3.org/1999/xlink" id="Layer_1" x="0" y="0" enable-background="new 0 0 40.4 84.8" version="1.1" viewBox="0 0 40.4 84.8" xml:space="preserve"><g><g><path fill="#F48329" d="M39.2,62.8L25.5,79.4l-4.5,5.5L16,79.4L1.5,63.6c-2.1-2.3-1.9-5.8,0.3-7.9c2.1-2,5.4-2.5,7.5-0.6 l16.1,13.7l-9.5,0.1l16.3-13.5c2.1-1.8,5.2-1.3,7,0.8C40.8,58,40.8,61,39.2,62.8z"/></g><g><path fill="#F48329" d="M13.5,68.9l0.5-16l0.8-29.1l0.1-1c0.1-3,2.5-5.3,5.5-5.3c2.9,0,5.2,2.4,5.3,5.2l0,1l1.1,29.1l0.5,16 c0.1,3.7-3,6.8-6.7,6.9c-3.7,0.1-7.2-2.8-7.2-6.5C13.5,69.2,13.5,69,13.5,68.9z"/></g><circle cx="19.8" cy="5.3" r="5.3" fill="#F48329"/></g></svg>