<svg xmlns="http://www.w3.org/2000/svg" xmlns:xlink="http://www.w3.org/1999/xlink" id="Layer_1" x="0" y="0" enable-background="new 0 0 193 187.4" version="1.1" viewBox="0 0 193 187.4" xml:space="preserve"><g><path fill="#FFF" stroke="#FFF" stroke-linejoin="round" stroke-miterlimit="10" stroke-width="15" d="M185.5,96.6 c0-22.7-8.5-43.5-22.5-59.2c-11.7-13.2-27.2-22.8-44.9-27.2c-7-1.7-14.2-2.7-21.7-2.7c-23.3,0-44.6,9-60.4,23.6 c0,0-0.1,0.1-0.1,0.1c-3.1,2.8-5.9,5.9-8.6,9.1c0.1,0.2,0.2,0.4,0.4,0.6c0.5,0.5,1,1.1,1.7,1.7c-1.2,0.6-2.4,1.2-3.6,1.9 c-0.2,0.1-0.4,0.3-0.6,0.4c-2.8,2.8-27.8,29.2-13.1,64.8c0.7,1.6,2.7,2.2,4,1c0.3-0.3,0.6-0.5,1-0.8c1.1,9.5,3.9,18.5,8.1,26.7 c2.7,5.2,5.9,10,9.6,14.5c0.5,0.6,1,1.2,1.5,1.8c0.5,0.6,1,1.1,1.5,1.7c0.6,0.7,1.3,1.3,1.9,2c0.6,0.6,1.2,1.2,1.8,1.7 c0.8,0.7,1.5,1.4,2.3,2.1c0.7,0.6,1.3,1.1,2,1.7c0.7,0.6,1.4,1.1,2.1,1.7c0.7,0.6,1.5,1.1,2.2,1.6c0.7,0.5,1.5,1,2.3,1.5 c0.5,0.3,1,0.7,1.6,1c0.5,0.3,0.9,0.6,1.4,0.9c0.7,0.4,1.4,0.8,2.1,1.2c0.5,0.3,1.1,0.6,1.6,0.8c0.2,0.1,0.5,0.3,0.7,0.4 c0.7,0.4,1.5,0.7,2.2,1.1c0.6,0.3,1.3,0.6,2,0.9c0.4,0.2,0.9,0.4,1.3,0.6c0.3,0.1,0.6,0.3,0.9,0.4c0.7,0.3,1.4,0.6,2.2,0.8 c8.6,3.2,17.9,4.9,27.5,4.9c10.6,0,20.8-2.1,30-5.9l1.3-0.5c0.1-0.1,0.3-0.1,0.4-0.2c0.4-0.2,0.8-0.3,1.2-0.5 c0.5-0.2,1.1-0.5,1.6-0.7c0.3-0.2,0.7-0.3,1-0.5c1.4-0.7,2.8-1.5,4.2-2.3c0.8-0.4,1.6-0.9,2.3-1.4c0,0,0.1,0,0.1-0.1 c0.7-0.5,1.4-0.9,2.1-1.4c1.5-1,2.9-2,4.4-3.2c0.7-0.5,1.3-1,2-1.6c0,0,0.1-0.1,0.1-0.1c0.7-0.6,1.4-1.2,2-1.8 c1.3-1.2,2.6-2.4,3.9-3.7c1.2-1.3,2.5-2.6,3.6-3.9c0.6-0.7,1.2-1.4,1.7-2.1c1-1.2,1.9-2.5,2.8-3.7c0,0,0.1-0.1,0.1-0.1 c0.3-0.4,0.6-0.9,0.9-1.3c0.3-0.5,0.6-0.9,0.9-1.4c0.5-0.8,1-1.5,1.4-2.3c0.5-0.8,0.9-1.5,1.3-2.3c0.3-0.6,0.6-1.1,0.9-1.7 c0.2-0.5,0.5-0.9,0.7-1.4c0,0,0,0,0,0c0.1-0.2,0.2-0.4,0.3-0.6c0,0,0,0,0-0.1c0,0,0,0,0,0c0-0.1,0-0.1,0.1-0.2 c0.1-0.3,0.3-0.6,0.4-0.9c0-0.1,0.1-0.2,0.1-0.2c0.4-0.9,0.8-1.8,1.2-2.7c0-0.1,0.1-0.2,0.1-0.4c0.3-0.8,0.6-1.6,1-2.4 c0.1-0.2,0.2-0.5,0.3-0.7c0.3-0.9,0.6-1.8,0.9-2.7c0.1-0.2,0.1-0.3,0.1-0.5c0.2-0.7,0.4-1.3,0.6-2c1.6,2.2,3.1,4.6,4.4,7.1 c0.5,0.9,1.3,1.3,2.1,1.4c0.2-0.5,0.4-1.1,0.6-1.6c0,0,0,0,0,0c0.1-0.3,0.2-0.6,0.3-0.9c0.2-0.4,0.3-0.8,0.5-1.2 c0.2-0.6,0.4-1.2,0.6-1.8c0.1-0.4,0.3-0.8,0.4-1.2c0.2-0.7,0.5-1.5,0.7-2.3c0.1-0.2,0.2-0.5,0.2-0.7c0.3-1,0.6-2,0.8-3.1 c0,0,0,0,0-0.1C184.6,111.3,185.5,104,185.5,96.6L185.5,96.6C185.5,96.6,185.5,96.6,185.5,96.6z"/><path fill="#F3A86D" d="M175.8,100.6c0,0.3,0,0.6,0,0.8c0,1.9-0.1,3.7-0.2,5.5c0,0.4-0.1,0.8-0.1,1.2c-0.9,9.2-3.3,17.9-7.1,25.9 c-0.2,0.4-0.4,0.7-0.5,1.1c-0.1,0.2-0.2,0.4-0.3,0.6c0,0,0,0,0,0c-0.2,0.5-0.5,0.9-0.7,1.4c-0.3,0.6-0.6,1.1-0.9,1.7 c-0.4,0.8-0.9,1.5-1.3,2.3c-0.5,0.8-0.9,1.5-1.4,2.3c-0.3,0.5-0.6,0.9-0.9,1.4c-0.3,0.4-0.6,0.9-0.9,1.3c0,0-0.1,0.1-0.1,0.1 c-0.9,1.3-1.8,2.5-2.8,3.7c-0.6,0.7-1.1,1.4-1.7,2.1c-1.1,1.4-2.4,2.7-3.6,3.9c-1.3,1.3-2.5,2.5-3.9,3.7c-0.7,0.6-1.3,1.2-2,1.8 c0,0-0.1,0-0.1,0.1c-0.6,0.5-1.3,1.1-2,1.6c-1.4,1.1-2.9,2.2-4.4,3.2c-0.7,0.5-1.4,0.9-2.1,1.4c0,0-0.1,0-0.1,0.1 c-0.7,0.5-1.5,0.9-2.3,1.4c-1.4,0.8-2.8,1.6-4.2,2.3c-0.3,0.2-0.7,0.3-1,0.5c-0.5,0.3-1.1,0.5-1.6,0.7c-0.4,0.2-0.8,0.4-1.2,0.5 c-0.1,0.1-0.3,0.1-0.4,0.2l-1.3,0.5c-9.3,3.8-19.4,5.9-30,5.9c-9.7,0-19-1.7-27.5-4.9c-0.7-0.3-1.4-0.6-2.2-0.8 c-0.3-0.1-0.6-0.2-0.9-0.4c-0.4-0.2-0.9-0.4-1.3-0.6c-0.7-0.3-1.3-0.6-2-0.9c-0.7-0.3-1.5-0.7-2.2-1.1c-0.2-0.1-0.5-0.2-0.7-0.4 c-0.5-0.3-1.1-0.6-1.6-0.8c-0.7-0.4-1.4-0.8-2.1-1.2c-0.5-0.3-1-0.6-1.4-0.9c-0.5-0.3-1.1-0.7-1.6-1c-0.8-0.5-1.5-1-2.3-1.5 c-0.7-0.5-1.5-1.1-2.2-1.6c-0.7-0.6-1.4-1.1-2.1-1.7c-0.7-0.6-1.3-1.1-2-1.7c-0.8-0.7-1.6-1.4-2.3-2.1c-0.6-0.6-1.2-1.1-1.8-1.7 c-0.6-0.6-1.3-1.3-1.9-2c-0.5-0.6-1-1.1-1.5-1.7c-0.5-0.6-1-1.2-1.5-1.8c-3.7-4.4-6.9-9.3-9.6-14.5c-4.6-9-7.6-19-8.4-29.6 c0-0.5-0.1-1-0.1-1.5c0-0.1,0-0.1,0-0.2C16.2,86.6,21.6,66,35.9,45.9c0.4-0.6,0.9-1.3,1.4-1.9c0.2-0.2,0.3-0.5,0.5-0.7 c0.1-0.2,0.3-0.3,0.4-0.5c0.1-0.2,0.4-0.4,0.5-0.5c44.7-33.8,92.4-23.2,118,6.8C168.6,62.9,175.8,80.9,175.8,100.6z"/><path fill="#8E6246" d="M68.4,113.6c0,4.4-3.6,8-8,8c-4.4,0-8-3.6-8-8c0-4.4,3.6-8,8-8C64.9,105.5,68.4,109.1,68.4,113.6z"/><path fill="#8E6246" d="M140.5,113.6c0,4.4-3.6,8-8,8s-8-3.6-8-8c0-4.4,3.6-8,8-8S140.5,109.1,140.5,113.6z"/><path d="M175.8,100.6c0,0.3,0,0.6,0,0.8c-0.1,12-2.9,23.5-7.9,33.6c0,0,0,0.1,0,0.1 c-14-25.4-43.9-31-71.4-40.6c-22.8-7.9-48.3-34.6-60.5-48.7c-0.1-0.1-0.2-0.2-0.3-0.3c0.1-0.2,0.3-0.4,0.4-0.5 c0.1-0.2,0.4-0.4,0.6-0.5c0.2-0.2,0.4-0.3,0.7-0.5c44.9-33.5,92.6-24,119.5,5.1C168.6,62.9,175.8,80.9,175.8,100.6z" opacity=".08"/><path fill="#9A6E54" d="M121,134.5c-0.2,3.6-1.2,7.1-2.8,10.1c-1,2-2.4,3.8-3.9,5.5c-4.5,4.7-10.8,7.7-17.8,7.7 c-7.4,0-14.1-3.3-18.6-8.6c-3-3.5-5-7.8-5.7-12.6c-0.1-0.7-0.2-1.4-0.2-2.2c0-0.3,0.1-0.6,0.2-0.8c0.2-0.4,0.6-0.7,1-0.8 c15.5-4.2,31-4.2,46.5,0c0.4,0.1,0.8,0.4,1,0.8C120.9,133.9,121,134.2,121,134.5z"/><path fill="#18181C" d="M121,134.5c-0.2,3.6-1.2,7.1-2.8,10.1c-10.9-9.6-35.4-8.8-46-8c-0.1-0.7-0.2-1.4-0.2-2.2 c0-0.3,0.1-0.6,0.2-0.8c0.2-0.4,0.6-0.7,1-0.8c15.5-4.2,31-4.2,46.5,0c0.4,0.1,0.8,0.4,1,0.8C120.9,133.9,121,134.2,121,134.5z" opacity=".12"/><path fill="#424847" d="M25.9,45C23.1,47.8-2,74.2,12.8,109.8c0.7,1.6,2.7,2.2,4,1c6.6-5.6,23.5-21,25-31.9 c1.5-10.8,7.5-30.5,9.9-38.1c0.5-1.7-0.7-3.3-2.5-3.3c-4.4,0.1-12.6,1.2-22.8,7.1C26.2,44.7,26.1,44.8,25.9,45z"/><path fill="#545755" d="M163.6,37.4c-11.7-13.2-27.2-22.8-44.9-27.2c-7-1.7-14.2-2.7-21.7-2.7c-23.3,0-44.6,9-60.4,23.6 c-3.1,2.9-6,5.9-8.7,9.2c0.1,0.2,0.2,0.4,0.4,0.6c8.4,8.6,42.7,42.1,70.8,49.2c30.3,7.6,62.9,10.4,78,39.4c0.5,0.9,1.3,1.3,2.1,1.4 c1.7-4.1,3.2-8.4,4.2-12.8c1.7-6.9,2.6-14.1,2.6-21.6C186.1,73.9,177.6,53.1,163.6,37.4z"/><path fill="#FFF" d="M186.1,96.6c0,7.4-0.9,14.7-2.6,21.6c-0.9,3.8-2.1,7.6-3.6,11.2 c-24.3-96.6-106.6-99.9-146-95.6c0.9-0.9,1.8-1.8,2.7-2.6C52.5,16.5,73.7,7.5,97.1,7.5c7.5,0,14.7,0.9,21.7,2.7 c17.6,4.4,33.2,14.1,44.9,27.2C177.6,53.1,186.1,73.9,186.1,96.6z" opacity=".05"/><circle cx="49.4" cy="123" r="2.7" fill="#FFF" opacity=".2"/><circle cx="143.6" cy="123" r="2.7" fill="#FFF" opacity=".2"/></g></svg>