<svg xmlns="http://www.w3.org/2000/svg" xmlns:xlink="http://www.w3.org/1999/xlink" id="Layer_1" x="0" y="0" version="1.1" viewBox="0 0 45 45" xml:space="preserve" style="enable-background:new 0 0 45 45"><style type="text/css">.st0{fill:#292f35}.st1{fill:#454b52}.st2{fill:#1093f5}.st3{fill:#fff}.st4{fill:#3d6ed3}</style><g><path d="M22.5,2.185c-11.736,0-21.25,9.514-21.25,21.25s9.514,21.25,21.25,21.25s21.25-9.514,21.25-21.25 S34.236,2.185,22.5,2.185z M22.5,29.15c-3.156,0-5.714-2.558-5.714-5.714c0-3.156,2.558-5.714,5.714-5.714s5.714,2.558,5.714,5.714 C28.214,26.591,25.656,29.15,22.5,29.15z" class="st0"/><path d="M22.5,42.303c-2.322,0-4.589-0.417-6.739-1.239c-0.112-0.043-0.169-0.169-0.126-0.281 c0.043-0.112,0.169-0.169,0.281-0.126c2.1,0.803,4.315,1.21,6.584,1.21c2.672,0,5.25-0.559,7.661-1.662 c0.109-0.05,0.239-0.002,0.289,0.107c0.05,0.109,0.002,0.239-0.107,0.289C27.874,41.73,25.235,42.303,22.5,42.303z M30.537,6.82 c-0.031,0-0.063-0.007-0.094-0.021c-2.49-1.191-5.162-1.795-7.944-1.795c-1.76,0-3.501,0.248-5.175,0.736 c-0.115,0.034-0.236-0.033-0.27-0.148c-0.034-0.115,0.033-0.236,0.148-0.27c1.713-0.5,3.495-0.754,5.297-0.754 c2.847,0,5.583,0.618,8.132,1.837c0.108,0.052,0.154,0.182,0.102,0.29C30.697,6.774,30.619,6.82,30.537,6.82z" class="st1"/><path d="M22.5,40.486c-2.73,0-5.445-0.661-7.852-1.912c-0.107-0.055-0.148-0.187-0.093-0.294 c0.055-0.107,0.187-0.148,0.294-0.093c2.345,1.218,4.99,1.863,7.651,1.863c1.934,0,3.829-0.329,5.632-0.979 c0.113-0.041,0.238,0.018,0.279,0.131c0.041,0.113-0.018,0.238-0.131,0.279C26.429,40.149,24.484,40.486,22.5,40.486z M29.174,8.195c-0.029,0-0.058-0.006-0.086-0.018c-2.083-0.901-4.3-1.357-6.588-1.357c-0.965,0-1.933,0.083-2.875,0.248 c-0.119,0.021-0.231-0.059-0.252-0.177c-0.021-0.118,0.059-0.231,0.177-0.252c0.967-0.169,1.96-0.254,2.95-0.254 c2.348,0,4.623,0.469,6.761,1.393c0.11,0.048,0.161,0.176,0.113,0.286C29.339,8.146,29.259,8.195,29.174,8.195z" class="st1"/><path d="M22.5,38.67c-1.912,0-3.776-0.35-5.542-1.039c-0.112-0.044-0.167-0.17-0.124-0.282 c0.044-0.112,0.17-0.168,0.282-0.123c1.715,0.67,3.526,1.01,5.383,1.01c2.251,0,4.413-0.492,6.425-1.464 c0.109-0.053,0.239-0.007,0.291,0.101c0.052,0.108,0.007,0.238-0.101,0.291C27.043,38.163,24.817,38.67,22.5,38.67z M28.995,10.11 c-0.032,0-0.064-0.007-0.094-0.022c-2.005-0.963-4.159-1.452-6.401-1.452c-1.264,0-2.519,0.16-3.731,0.474 c-0.116,0.03-0.235-0.04-0.265-0.156c-0.03-0.116,0.04-0.235,0.156-0.265c1.247-0.324,2.54-0.488,3.84-0.488 c2.308,0,4.525,0.503,6.589,1.495c0.108,0.052,0.154,0.182,0.102,0.291C29.154,10.064,29.076,10.11,28.995,10.11z" class="st1"/><path d="M22.5,36.854c-2.114,0-4.137-0.478-6.014-1.42c-0.107-0.054-0.151-0.185-0.097-0.292 c0.054-0.107,0.185-0.151,0.292-0.097c1.815,0.911,3.772,1.373,5.818,1.373c1.522,0,3.013-0.261,4.431-0.776 c0.113-0.041,0.238,0.017,0.279,0.13s-0.017,0.238-0.13,0.279C25.614,36.584,24.073,36.854,22.5,36.854z M28.089,11.691 c-0.031,0-0.062-0.007-0.092-0.021c-1.726-0.808-3.576-1.218-5.497-1.218c-0.68,0-1.362,0.053-2.028,0.157 c-0.119,0.018-0.23-0.063-0.249-0.181c-0.019-0.119,0.063-0.23,0.181-0.249c0.688-0.108,1.393-0.163,2.096-0.163 c1.986,0,3.897,0.424,5.682,1.259c0.109,0.051,0.156,0.181,0.105,0.29C28.25,11.645,28.171,11.691,28.089,11.691z" class="st1"/><path d="M22.5,35.037c-1.42,0-2.807-0.254-4.122-0.754c-0.112-0.043-0.169-0.168-0.126-0.281 c0.043-0.112,0.169-0.169,0.281-0.126c1.266,0.481,2.601,0.725,3.968,0.725c1.618,0,3.179-0.338,4.639-1.006 c0.109-0.05,0.239-0.002,0.289,0.107c0.05,0.109,0.002,0.239-0.107,0.289C25.803,34.685,24.181,35.037,22.5,35.037z M26.483,12.985 c-0.025,0-0.051-0.004-0.076-0.014c-1.248-0.466-2.562-0.702-3.906-0.702c-0.715,0-1.43,0.068-2.125,0.202 c-0.119,0.023-0.232-0.055-0.255-0.173c-0.023-0.118,0.055-0.232,0.173-0.255c0.723-0.139,1.465-0.21,2.207-0.21 c1.397,0,2.762,0.246,4.059,0.73c0.113,0.042,0.17,0.167,0.128,0.28C26.654,12.931,26.571,12.985,26.483,12.985z" class="st1"/><path d="M22.5,33.221c-1.525,0-2.986-0.341-4.342-1.014c-0.108-0.053-0.152-0.184-0.098-0.292 c0.053-0.108,0.184-0.152,0.292-0.098c1.296,0.643,2.692,0.969,4.149,0.969c1.043,0,2.066-0.17,3.043-0.506 c0.114-0.039,0.238,0.021,0.277,0.135c0.039,0.114-0.021,0.238-0.135,0.277C24.662,33.042,23.591,33.221,22.5,33.221z M26.581,14.998c-0.031,0-0.063-0.007-0.093-0.021c-1.252-0.591-2.593-0.891-3.989-0.891c-0.546,0-1.093,0.047-1.625,0.141 c-0.119,0.021-0.231-0.058-0.252-0.177c-0.021-0.118,0.058-0.231,0.177-0.252c0.557-0.098,1.13-0.147,1.7-0.147 c1.46,0,2.864,0.314,4.175,0.933c0.109,0.051,0.155,0.181,0.104,0.29C26.741,14.951,26.663,14.998,26.581,14.998z" class="st1"/><g id="XMLID_1_"><path d="M22.5,16.314c-3.933,0-7.121,3.188-7.121,7.121s3.188,7.121,7.121,7.121s7.121-3.188,7.121-7.121 S26.433,16.314,22.5,16.314z M22.5,24.006c-0.315,0-0.571-0.256-0.571-0.571s0.256-0.571,0.571-0.571s0.571,0.256,0.571,0.571 S22.815,24.006,22.5,24.006z" class="st2"/></g><path d="M23.777,25.714v-0.306h-2.719v0.306c0,0.749,0.61,1.359,1.359,1.359 C23.167,27.073,23.777,26.463,23.777,25.714z M21.735,26.02h1.366c-0.118,0.26-0.38,0.441-0.683,0.441 C22.115,26.461,21.852,26.28,21.735,26.02z" class="st3"/><circle cx="20.512" cy="24.297" r=".424" class="st3"/><circle cx="24.324" cy="24.297" r=".424" class="st3"/><path d="M25.867,19.597c-0.03-0.029-3.05-2.813-7.141,0.547l-0.251,0.207l0.088,0.095 c-0.13,0.112-1.167,1.053-1.167,2.551c0,0.426,0.087,0.86,0.257,1.287l0.077,0.191c0.034,0.085,0.139,0.116,0.214,0.064 l0.009-0.006c0.263,1.694,1.453,3.115,3.129,3.655c0.063,0.02,1.542,0.457,2.917-0.039c1.119-0.391,2.012-1.191,2.541-2.196 c0.057-0.109,0.215-0.101,0.259,0.014c0.048,0.125,0.226,0.121,0.268-0.006l0.144-0.43c0.143-0.426,0.221-0.997,0.221-1.605 C27.431,22.194,26.847,20.579,25.867,19.597z M18.093,23.669c-0.058-0.225-0.087-0.45-0.087-0.673c0-0.086,0.012-0.165,0.021-0.247 c0.091-0.912,0.644-1.554,0.86-1.769c0.025-0.025,0.05-0.05,0.064-0.063c0.017-0.008,0.031-0.013,0.047-0.021 c0.057,0.056,0.121,0.118,0.192,0.185c0.069,0.066,0.144,0.136,0.224,0.21c0.026,0.024,0.05,0.046,0.078,0.071 c-0.129,0.376-0.254,0.773-0.313,1.065c-0.046,0.23-0.316,0.548-0.632,0.847c-0.109,0.103-0.222,0.203-0.335,0.296 C18.173,23.604,18.133,23.638,18.093,23.669z M23.794,27.572c-1.184,0.428-2.522,0.035-2.53,0.032 c-1.533-0.493-2.587-1.845-2.729-3.425c-0.004-0.047,0.015-0.093,0.052-0.123c0.458-0.378,1.087-0.981,1.192-1.509 c0.031-0.154,0.085-0.347,0.149-0.552c0.03-0.095,0.147-0.131,0.225-0.068c0.562,0.454,1.225,0.915,1.878,1.202 c0.102-0.156,0.269-0.264,0.469-0.264c0.315,0,0.571,0.256,0.571,0.571c0,0.003-0.002,0.006-0.002,0.009 c0.094,0.021,0.186,0.044,0.28,0.065c1.147,0.258,2.236,0.513,2.898,1.362c0.029,0.037,0.037,0.087,0.024,0.131 C25.902,26.18,25.001,27.15,23.794,27.572z M26.788,24.55c-0.023-0.031-0.05-0.056-0.074-0.086 c-0.089-0.113-0.182-0.219-0.281-0.314c-0.782-0.746-1.878-0.996-2.951-1.236c-0.232-0.052-0.468-0.105-0.698-0.163 c-0.856-0.214-1.843-0.946-2.575-1.576c-0.084-0.072-0.17-0.146-0.247-0.215c-0.043-0.038-0.077-0.071-0.116-0.107 c-0.043-0.04-0.087-0.079-0.127-0.117c-0.018-0.016-0.039-0.035-0.055-0.051c-0.015-0.015-0.03-0.028-0.045-0.042 c-0.082-0.078-0.155-0.149-0.218-0.211c0-0.001-0.002-0.002-0.003-0.003c-0.006-0.006-0.015-0.015-0.021-0.021 c0.141-0.108,0.28-0.205,0.417-0.297c0.03-0.02,0.059-0.039,0.088-0.058c0.23-0.15,0.454-0.28,0.673-0.391 c2.878-1.455,4.799,0.29,4.886,0.371c0.314,0.314,0.581,0.708,0.794,1.156c0.374,0.783,0.585,1.734,0.585,2.735 C26.819,24.142,26.808,24.352,26.788,24.55z" class="st3"/><path id="XMLID_3_" d="M22.5,16.75c3.687,0,6.686,2.999,6.686,6.686s-2.999,6.686-6.686,6.686 s-6.686-2.999-6.686-6.686S18.813,16.75,22.5,16.75 M22.5,24.442c0.555,0,1.006-0.451,1.006-1.006c0-0.555-0.451-1.006-1.006-1.006 s-1.006,0.451-1.006,1.006C21.494,23.99,21.945,24.442,22.5,24.442 M22.5,16.314c-3.933,0-7.121,3.188-7.121,7.121 s3.188,7.121,7.121,7.121s7.121-3.188,7.121-7.121S26.433,16.314,22.5,16.314L22.5,16.314z M22.5,24.006 c-0.315,0-0.571-0.256-0.571-0.571s0.256-0.571,0.571-0.571s0.571,0.256,0.571,0.571S22.815,24.006,22.5,24.006L22.5,24.006z" class="st4"/></g></svg>