<svg xmlns="http://www.w3.org/2000/svg" xmlns:xlink="http://www.w3.org/1999/xlink" id="Layer_1" x="0" y="0" enable-background="new 0 0 253 160.9" version="1.1" viewBox="0 0 253 160.9" xml:space="preserve"><g><path fill="#C1C48A" d="M105.2,127.1c0,1.4-1.1,2.5-2.4,2.5s-2.4-1.1-2.4-2.5c0-1.4,1.1-2.4,2.4-2.4S105.2,125.8,105.2,127.1 L105.2,127.1z"/><g opacity=".5"><g><defs><rect id="SVGID_1_" width="4.9" height="4.9" x="79" y="130.8"/></defs><clipPath id="SVGID_2_"><use overflow="visible" xlink:href="#SVGID_1_"/></clipPath><g clip-path="url(#SVGID_2_)"><defs><rect id="SVGID_3_" width="4.9" height="4.9" x="79" y="130.8"/></defs><clipPath id="SVGID_4_"><use overflow="visible" xlink:href="#SVGID_3_"/></clipPath><path fill="#C1C48A" d="M83.9,133.2c0,1.4-1.1,2.5-2.5,2.5c-1.4,0-2.4-1.1-2.4-2.5 c0-1.4,1.1-2.4,2.4-2.4C82.8,130.8,83.9,131.9,83.9,133.2" clip-path="url(#SVGID_4_)"/></g></g></g><g><path fill="#27A1AC" d="M206.1,68.6c-0.3,0.1-0.4,0.2-0.4,0.2s-63.7,27.7-147.2,47.6c-1.2,0.3-2.4,0.6-3.5,0.8 c-2.6-5.1-4.7-10.5-6.2-16.1c-1.6-5.9-2.5-12-2.6-18.3c0-0.8,0-1.6,0-2.3C46.1,36,82.1,0,126.5,0c30.1,0,56.4,16.6,70.2,41.1 l2,3.8c0,0,0,0,0,0C202.3,52.2,204.8,60.2,206.1,68.6z"/><path fill="#24A1AB" d="M198.7,44.9l-2-3.8C197.4,42.3,198,43.6,198.7,44.9C198.7,44.9,198.7,44.9,198.7,44.9z"/><path fill="#24A1AB" d="M206.9,80.4c0,3.3-0.2,6.5-0.6,9.7L193,87.5L112.2,115l-40,24.7c-7-6.4-12.9-14.1-17.2-22.6 c1.1-0.3,2.3-0.5,3.5-0.8c83.5-19.9,147.2-47.6,147.2-47.6s0.1,0,0.4-0.2C206.6,72.4,206.9,76.4,206.9,80.4z"/><path fill="#24A1AB" d="M99.3,156.1c8.5,3.1,17.7,4.7,27.2,4.7c36.3,0,66.9-24,77-57C203.1,104.1,140.1,147.5,99.3,156.1z"/></g><path fill="#69CADC" d="M251.6,53.5c-17.2,30.5-96.5,61.7-96.5,61.7c-35.4,15-67.8,21.9-82.9,24.6c-5.8,1-9,1.4-9,1.4 c-53,10-61.5-11.4-61.5-11.4c-11-23.5,36.2-43.6,44.5-47c0.2,6.3,1.1,12.4,2.6,18.3c-5.4,3.4-21.6,14.1-22.7,17.8 c0,0,3.2,4,28.9-1.7c1.1-0.3,2.3-0.5,3.5-0.8c83.5-19.9,147.2-47.6,147.2-47.6s0.1,0,0.4-0.2c3.2-1.3,24.4-10,32.2-22.5 c0,0-15.2-6.1-39.6-1.2c0,0,0,0,0,0l-2-3.8l-3.3-6.3c25-5.5,45.3-3.1,45.3-3.1C259.4,36.7,251.6,53.5,251.6,53.5z"/><path fill="#E7D178" d="M60.8,85.5L60.8,85.5z"/><path fill="#E7D178" d="M50.7,86.8L50.7,86.8z"/></g></svg>