<svg xmlns="http://www.w3.org/2000/svg" xmlns:xlink="http://www.w3.org/1999/xlink" id="Layer_1" x="0" y="0" enable-background="new 0 0 435.4 153.1" version="1.1" viewBox="0 0 435.4 153.1" xml:space="preserve"><g><g><g><path fill="#B5B5B6" d="M122.3,105l-81.5,2.8c-1.9,0.1-3.5-1.4-3.5-3.3s1.4-3.5,3.3-3.5c0,0,0.1,0,0.1,0l81.6,0.4 c1,0,1.8,0.8,1.8,1.8C124,104.2,123.2,105,122.3,105z"/></g><g><path fill="#E0E0E0" d="M218.2,83.1c0.3,6.4-4.6,11.8-11,12c-6.4,0.3-11.7-4.6-12-11c-0.4-6.2,4.6-11.7,11-12 C212.6,71.7,218,76.7,218.2,83.1z"/><path fill="#C1C1C0" d="M213.4,99.4l-6-1.5c-0.6-0.1-0.8-0.7-0.8-1.3l-1.2-27.3c0-0.6,0.1-1.2,0.7-1.3l3.9-1.3L213.4,99.4z"/><path fill="#A9A8A8" d="M214.8,67l1.4,31.2c0,0.9-1,1.6-1.9,1.4l-0.8-0.1l-3.7-32.7l3-0.9C213.6,65.5,214.7,66.1,214.8,67z"/></g><g><path fill="#B5B5B6" d="M199.8,92.7l-75.4,10.6c-0.8,0.1-1.6-0.4-1.7-1.3c-0.1-0.8,0.4-1.5,1.2-1.7L198.7,86 c1.9-0.4,3.6,0.9,4,2.7c0.4,1.9-0.9,3.6-2.7,4C199.9,92.7,199.8,92.7,199.8,92.7z"/></g><g><circle cx="122.2" cy="103.2" r="7.1" fill="#E0E0E0"/><circle cx="122.2" cy="103.2" r="3.6" fill="#A9A8A8"/></g><path fill="#B5B5B6" d="M31.2,83.2L27,77.1c-0.2-0.2-0.4-0.4-0.6-0.5l-22-8.3c-0.8-0.3-1.6,0.2-1.8,0.9L1,75.6 c-0.2,0.6,0.1,1.3,0.7,1.6l24.2,11.8c0.5,0.3,1.2,0.1,1.6-0.3L31,85C31.5,84.5,31.6,83.8,31.2,83.2z"/><path fill="#B5B5B6" d="M33.2,96.9l-2.6,10.3c-0.2,0.6-0.7,1-1.4,1l-11.5-0.4c-0.5,0-0.9,0.2-1.2,0.6l-1.7,2.5 c-0.3,0.4-0.8,0.7-1.3,0.6l-9.5-0.9c-0.6-0.1-1.1-0.5-1.2-1.2L0,90.1c-0.1-0.7,0.3-1.4,1-1.5l11.8-2.9c0.7-0.2,1.4,0.2,1.6,1 l0.9,3.3c0.1,0.5,0.5,0.8,1,0.9l15.9,4.4C32.9,95.5,33.3,96.2,33.2,96.9z"/></g><g><g><path fill="#B5B5B6" d="M346.3,144.6l47.7-42.3c1.4-1.3,3.6-1.1,4.8,0.3s1.1,3.6-0.3,4.8c0,0-0.1,0.1-0.1,0.1l-49.8,39.9 c-0.8,0.6-1.9,0.5-2.6-0.3C345.5,146.3,345.6,145.2,346.3,144.6z"/></g><g><path fill="#E0E0E0" d="M294.6,79.6c0.3,6.4,5.7,11.3,12,11c6.4-0.3,11.2-5.7,11-12c-0.2-6.2-5.6-11.2-12-11 C299.3,67.8,294.3,73.3,294.6,79.6z"/><path fill="#C1C1C0" d="M301,95.5l6.2-2.1c0.6-0.2,1.1-0.8,1-1.4L307,64.8c0-0.6-0.5-1.1-1.1-1.3l-4.2-1L301,95.5z"/><path fill="#A9A8A8" d="M297.4,63.3l1.4,31.2c0,0.9,0.8,1.5,1.7,1.2l0.6-0.2l0.6-32.9l-2.7-0.7C298.1,61.7,297.3,62.4,297.4,63.3 z"/></g><g><path fill="#B5B5B6" d="M317.2,82.6l29.5,61.5c0.4,0.7,0,1.6-0.7,2c-0.7,0.3-1.6,0.1-1.9-0.6l-33-59.7c-0.9-1.7-0.3-3.7,1.3-4.6 c1.7-0.9,3.7-0.3,4.6,1.3C317.1,82.5,317.2,82.5,317.2,82.6z"/></g><g><circle cx="347.4" cy="146" r="7.1" fill="#E0E0E0"/><circle cx="347.4" cy="146" r="3.6" fill="#A9A8A8"/></g><path fill="#B5B5B6" d="M403,96.8l3.6,10c0.2,0.6,0.8,1,1.5,0.9l11.4-1.5c0.5-0.1,0.9,0.1,1.2,0.5l1.9,2.4 c0.3,0.4,0.8,0.6,1.3,0.5l9.3-1.7c0.6-0.1,1.1-0.6,1.1-1.3l1.1-19.6c0-0.7-0.5-1.3-1.2-1.4l-11.3-1.2c-0.7-0.1-1.4,0.4-1.6,1.1 l-1.3,2.7c-0.1,0.5-0.4,0.9-0.9,1l-15.4,5.8C403.1,95.3,402.7,96.1,403,96.8z"/><path fill="#B5B5B6" d="M400.2,85.8l3.9-6.3c0.1-0.2,0.4-0.4,0.6-0.5l21.6-9.3c0.7-0.3,1.6,0.1,1.8,0.9l1.9,6.2 c0.2,0.6-0.1,1.3-0.7,1.6l-23.6,12.9c-0.5,0.3-1.2,0.2-1.6-0.2l-3.7-3.5C400,87,399.9,86.3,400.2,85.8z"/></g><path fill="#E5E5E5" d="M230.3,121.9l56.8-2.6c1,0,1.8-0.7,1.9-1.7l2.5-14.5c0.2-1.3-0.8-2.5-2.1-2.4l-63.2,2.8 c-1.3,0.1-2.2,1.3-1.9,2.6l3.8,14.2C228.5,121.3,229.4,122,230.3,121.9z"/><g><path fill="#A9A8A8" d="M211.4,22.8l3.7,81.3c0.2,3.8,3.2,6.6,6.9,6.4l36.4-1.6L253.5,0c-13.7,0.5-26.8,6.4-39.7,17.2 C212.2,18.7,211.3,20.7,211.4,22.8z"/><path fill="#C1C1C0" d="M253.5,0l4.9,108.9l35.3-1.6c3.8-0.2,6.9-3.3,6.7-7.1l-3.7-81.4c-0.1-2.1-1.2-4.1-2.9-5.3 C280,4,266.4-0.5,253.5,0z"/></g><g><path fill="#A9A8A8" d="M218.9,131.4l5.6,14.3c0.2,0.9,0.9,1.5,1.8,1.6l29.1,2.8l6-17.3l-40.3-3.9 C219.8,128.8,218.6,130,218.9,131.4z"/><path fill="#C1C1C0" d="M255.4,150.1l29.6,2.9c1,0.1,1.8-0.4,2.1-1.4l7.2-13.1c0.4-1.2-0.4-2.6-1.7-2.7l-31.2-3L255.4,150.1z"/></g><g><ellipse cx="281" cy="66.6" fill="#FDCDAC" opacity=".5" rx="22.1" ry="25.6" transform="matrix(-0.999 4.501624e-02 -4.501624e-02 -0.999 564.626 120.5697)"/><path fill="#F47725" d="M275.5,83l6.1-0.3c2.6-0.1,4.7-2.4,4.6-5L285,52.4c-0.1-2.6-2.4-4.7-5-4.6l-6.1,0.3 c-2.6,0.1-4.7,2.4-4.6,5l1.1,25.3C270.6,81,272.8,83.1,275.5,83z"/></g><g><ellipse cx="229.8" cy="68.9" fill="#FDCDAC" opacity=".5" rx="22.1" ry="25.6" transform="matrix(0.999 -4.501632e-02 4.501632e-02 0.999 -2.8709 10.4128)"/><path fill="#F47725" d="M236.7,84.7l-6.1,0.3c-2.6,0.1-4.9-1.9-5-4.6l-1.1-25.3c-0.1-2.6,1.9-4.9,4.6-5l6.1-0.3 c2.6-0.1,4.9,1.9,5,4.6l1.1,25.3C241.4,82.3,239.3,84.6,236.7,84.7z"/></g><g><g><path fill="#FEEB63" d="M323.1,78.6l9.8,2.3l-2.7,2.4l-1.5-4.8l-1.1-3.6l3.4,1l13.5,4.1c0.1,0,0.2,0.2,0.2,0.3 c0,0.1-0.1,0.2-0.3,0.2l-14.1-0.7l2.3-2.6l1.5,4.8l1.6,5l-4.2-2.6l-8.6-5.3c-0.2-0.1-0.2-0.4-0.1-0.5 C322.7,78.6,322.9,78.5,323.1,78.6z"/></g><circle cx="322.4" cy="66.8" r="2.3" fill="#FEEB63"/><circle cx="334.1" cy="65.4" r="1.6" fill="#FEEB63"/><circle cx="311.1" cy="107.4" r="1.6" fill="#FEEB63"/></g></g></svg>