<svg xmlns="http://www.w3.org/2000/svg" xmlns:xlink="http://www.w3.org/1999/xlink" id="Layer_1" x="0" y="0" enable-background="new 0 0 173.3 173.3" version="1.1" viewBox="0 0 173.3 173.3" xml:space="preserve"><path fill="#F3EE88" d="M173.3,86.7c0,10.3-22.3,16.2-26,25.1c-3.9,9.3,7.6,29.1,0.6,36.1c-7,7-26.8-4.5-36.1-0.6	c-9,3.7-14.8,26-25.1,26s-16.2-22.3-25.1-26c-9.3-3.9-29.1,7.6-36.1,0.6c-7-7,4.5-26.8,0.6-36.1c-3.7-9-26-14.8-26-25.1	s22.3-16.1,26-25.1c3.9-9.3-7.6-29.1-0.6-36.1c7-7,26.8,4.5,36.1,0.6c9-3.7,14.8-26,25.1-26s16.1,22.3,25.1,26	c9.3,3.9,29.1-7.6,36.1-0.6c7,7-4.5,26.8-0.6,36.1C151.1,70.5,173.3,76.3,173.3,86.7"/></svg>