<?xml version="1.0" encoding="utf-8"?>
<!-- Generator: Adobe Illustrator 21.0.2, SVG Export Plug-In . SVG Version: 6.00 Build 0)  -->
<svg version="1.1" id="Layer_1" xmlns="http://www.w3.org/2000/svg" xmlns:xlink="http://www.w3.org/1999/xlink" x="0px" y="0px"
	 viewBox="0 0 398.4 287.4" style="enable-background:new 0 0 398.4 287.4;" xml:space="preserve">
<style type="text/css">
	.st0{fill:none;stroke:#697883;stroke-width:3;stroke-miterlimit:10;}
	.st1{fill:#7A7A7A;}
	.st2{fill:none;stroke:#6B6B6B;stroke-width:1.72;stroke-miterlimit:10;}
	.st3{fill:none;stroke:#697883;stroke-width:1;stroke-miterlimit:10;}
</style>
<title>PixelKit_Line_Empty</title>
<g id="Layer_2_2_">
	<g id="Backgrounds_2_">
		<path class="st0" d="M7.5,23.6h383.3c3.3,0,6,2.7,6,6v250.2c0,3.3-2.7,6-6,6H7.5c-3.3,0-6-2.7-6-6V29.6
			C1.5,26.3,4.2,23.6,7.5,23.6z"/>
		<circle class="st1" cx="32.4" cy="251.4" r="14.7"/>
		<circle class="st2" cx="32.4" cy="251.4" r="10.1"/>
		<circle class="st2" cx="32.4" cy="251.4" r="4.1"/>
		<path class="st0" d="M112.7,22.8V4.2c0-1.5-1.2-2.7-2.7-2.7H35.3c-1.5,0-2.7,1.2-2.7,2.7c0,0,0,0,0,0v18.6"/>
		<line class="st3" x1="37.8" y1="2.2" x2="37.8" y2="22"/>
		<line class="st3" x1="42.5" y1="2.2" x2="42.5" y2="22"/>
		<line class="st3" x1="47.2" y1="2.2" x2="47.2" y2="22"/>
		<line class="st3" x1="51.8" y1="2.2" x2="51.8" y2="22"/>
		<line class="st3" x1="56.5" y1="2.2" x2="56.5" y2="22"/>
		<line class="st3" x1="61.1" y1="2.2" x2="61.1" y2="22"/>
		<line class="st3" x1="65.8" y1="2.2" x2="65.8" y2="22"/>
		<line class="st3" x1="70.4" y1="2.2" x2="70.4" y2="22"/>
		<line class="st3" x1="75.1" y1="2.2" x2="75.1" y2="22"/>
		<line class="st3" x1="79.8" y1="2.2" x2="79.8" y2="22"/>
		<line class="st3" x1="84.4" y1="2.2" x2="84.4" y2="22"/>
		<line class="st3" x1="89.1" y1="2.2" x2="89.1" y2="22"/>
		<line class="st3" x1="93.7" y1="2.2" x2="93.7" y2="22"/>
		<line class="st3" x1="98.4" y1="2.2" x2="98.4" y2="22"/>
		<line class="st3" x1="103" y1="2.2" x2="103" y2="22"/>
		<line class="st3" x1="107.7" y1="2.2" x2="107.7" y2="22"/>
	</g>
</g>
</svg>
