<?xml version="1.0" encoding="utf-8"?>
<!-- Generator: Adobe Illustrator 19.2.1, SVG Export Plug-In . SVG Version: 6.00 Build 0)  -->
<svg version="1.1" id="Layer_1" xmlns="http://www.w3.org/2000/svg" xmlns:xlink="http://www.w3.org/1999/xlink" x="0px" y="0px"
	 viewBox="0 0 388.6 269.2" style="enable-background:new 0 0 388.6 269.2;" xml:space="preserve">
<style type="text/css">
	.st0{fill:#FF9A8C;}
	.st1{fill:#FFC3B8;}
	.st2{fill:#E7F3F9;}
	.st3{fill:#6E777E;}
	.st4{fill:#92918F;}
	.st5{fill:#E0DFDF;}
	.st6{fill:#4C4C4C;}
	.st7{display:none;}
	.st8{display:inline;}
	.st9{fill:#F9E81E;}
	.st10{fill:#93AAB8;}
	.st11{fill:#F9F5C5;}
	.st12{fill:#F5A118;}
	.st13{fill:#CCDFEC;}
	.st14{fill:#E30E32;}
	.st15{display:none;opacity:0.2;}
	.st16{fill:url(#SVGID_3_);}
	.st17{fill:url(#SVGID_4_);}
	.st18{fill:url(#SVGID_5_);}
	.st19{fill:url(#SVGID_6_);}
	.st20{fill:url(#SVGID_7_);}
	.st21{fill:url(#SVGID_8_);}
	.st22{fill:url(#SVGID_9_);}
	.st23{fill:url(#SVGID_10_);}
	.st24{fill:url(#SVGID_11_);}
	.st25{fill:url(#SVGID_12_);}
	.st26{fill:url(#SVGID_13_);}
	.st27{fill:url(#SVGID_14_);}
	.st28{fill:url(#SVGID_15_);}
	.st29{fill:url(#SVGID_16_);}
	.st30{fill:url(#SVGID_17_);}
	.st31{fill:url(#SVGID_18_);}
	.st32{fill:url(#SVGID_19_);}
	.st33{fill:url(#SVGID_20_);}
	.st34{fill:url(#SVGID_21_);}
	.st35{fill:url(#SVGID_22_);}
	.st36{fill:url(#SVGID_23_);}
	.st37{fill:url(#SVGID_24_);}
	.st38{fill:url(#SVGID_25_);}
	.st39{fill:url(#SVGID_26_);}
	.st40{fill:url(#SVGID_27_);}
	.st41{fill:url(#SVGID_28_);}
	.st42{fill:url(#SVGID_29_);}
	.st43{fill:url(#SVGID_30_);}
	.st44{fill:url(#SVGID_31_);}
	.st45{fill:url(#SVGID_32_);}
	.st46{fill:url(#SVGID_33_);}
	.st47{fill:url(#SVGID_34_);}
	.st48{fill:url(#SVGID_35_);}
	.st49{fill:url(#SVGID_36_);}
	.st50{fill:url(#SVGID_37_);}
	.st51{fill:url(#SVGID_38_);}
	.st52{fill:url(#SVGID_39_);}
	.st53{fill:url(#SVGID_40_);}
	.st54{fill:url(#SVGID_41_);}
	.st55{fill:url(#SVGID_42_);}
	.st56{fill:url(#SVGID_43_);}
	.st57{fill:url(#SVGID_44_);}
	.st58{fill:url(#SVGID_45_);}
	.st59{fill:url(#SVGID_46_);}
	.st60{fill:url(#SVGID_47_);}
	.st61{fill:url(#SVGID_48_);}
	.st62{fill:url(#SVGID_49_);}
	.st63{fill:url(#SVGID_50_);}
	.st64{fill:url(#SVGID_51_);}
	.st65{fill:url(#SVGID_52_);}
	.st66{fill:url(#SVGID_53_);}
	.st67{fill:url(#SVGID_54_);}
	.st68{fill:url(#SVGID_55_);}
	.st69{fill:url(#SVGID_56_);}
	.st70{fill:url(#SVGID_57_);}
	.st71{fill:url(#SVGID_58_);}
	.st72{fill:url(#SVGID_59_);}
	.st73{fill:url(#SVGID_60_);}
	.st74{fill:url(#SVGID_61_);}
	.st75{fill:url(#SVGID_62_);}
	.st76{fill:url(#SVGID_63_);}
	.st77{fill:url(#SVGID_64_);}
	.st78{fill:url(#SVGID_65_);}
	.st79{fill:url(#SVGID_66_);}
	.st80{fill:url(#SVGID_67_);}
	.st81{fill:url(#SVGID_68_);}
	.st82{fill:url(#SVGID_69_);}
	.st83{fill:url(#SVGID_70_);}
	.st84{fill:url(#SVGID_71_);}
	.st85{fill:url(#SVGID_72_);}
	.st86{fill:url(#SVGID_73_);}
	.st87{fill:url(#SVGID_74_);}
	.st88{fill:url(#SVGID_75_);}
	.st89{fill:url(#SVGID_76_);}
	.st90{fill:url(#SVGID_77_);}
	.st91{fill:url(#SVGID_78_);}
	.st92{fill:url(#SVGID_79_);}
	.st93{fill:url(#SVGID_80_);}
	.st94{fill:url(#SVGID_81_);}
	.st95{fill:url(#SVGID_82_);}
	.st96{fill:url(#SVGID_83_);}
	.st97{fill:url(#SVGID_84_);}
	.st98{fill:url(#SVGID_85_);}
	.st99{fill:url(#SVGID_86_);}
	.st100{fill:#828E96;}
	.st101{fill:#EB0029;}
	.st102{fill:#F8564F;}
	.st103{fill:#4C4F55;}
	.st104{fill:#3C3D3F;}
	.st105{fill:#E8494C;}
	.st106{clip-path:url(#SVGID_88_);fill:#FD6F63;}
	.st107{opacity:0.4;fill:url(#SVGID_91_);}
</style>
<g>
	<g>
		
			<image style="overflow:visible;opacity:0.1;" width="470" height="354" xlink:href="9B79BCEF9A11A886.png"  transform="matrix(1 0 0 1 -44.4577 -26.6859)">
		</image>
		<g>
			<g>
				<g>
					<g>
						<defs>
							<path id="SVGID_1_" d="M28,9.8V3c0-1.7,1.4-3,3-3h77.8c1.7,0,3,1.4,3,3v6.8H28z"/>
						</defs>
						<clipPath id="SVGID_2_">
							<use xlink:href="#SVGID_1_"  style="overflow:visible;"/>
						</clipPath>
					</g>
				</g>
			</g>
			<g>
				<path class="st0" d="M379.6,263.9H9.6c-2.1,0-3.7-1.7-3.7-3.7v-228c0-2.1,1.7-3.7,3.7-3.7h370c2.1,0,3.7,1.7,3.7,3.7v228
					C383.4,262.2,381.7,263.9,379.6,263.9z"/>
				<rect x="5.9" y="196" class="st1" width="14.2" height="29.3"/>
				<g>
					<g>
						<path class="st1" d="M361.7,82.9V28.5h-50.7v54.4c0,1,0.8,1.7,1.7,1.7H360C361,84.7,361.7,83.9,361.7,82.9z"/>
					</g>
					<g>
						<path class="st1" d="M273.9,82.9V28.5h-50.7v54.4c0,1,0.8,1.7,1.7,1.7h47.2C273.1,84.7,273.9,83.9,273.9,82.9z"/>
					</g>
					<g>
						<path class="st1" d="M186.1,82.9V28.5h-50.7v54.4c0,1,0.8,1.7,1.7,1.7h47.2C185.3,84.7,186.1,83.9,186.1,82.9z"/>
					</g>
				</g>
				<path class="st2" d="M377.4,22.6H11.2C5,22.6,0,27.6,0,33.8V258c0,6.2,5,11.2,11.2,11.2h364.4c7.2,0,13-5.8,13-13V33.8
					C388.6,27.6,383.6,22.6,377.4,22.6z M382.1,257c0,3.1-2.5,5.6-5.6,5.6H12.2c-3.1,0-5.6-2.5-5.6-5.6V34.7c0-3.1,2.5-5.6,5.6-5.6
					h364.3c3.1,0,5.6,2.5,5.6,5.6V257z"/>
				<g>
					<path class="st3" d="M11.2,250.3V38.1c0-2.1,1.7-3.7,3.7-3.7h358.8c2.1,0,3.7,1.7,3.7,3.7v212.2c0,2.1-1.7,3.7-3.7,3.7H14.9
						C12.8,254,11.2,252.4,11.2,250.3z"/>
					<g>
						<g>
							<path class="st4" d="M331.7,232.3l-24.7,0c-0.4,0-0.7-0.3-0.7-0.7l0-2.6c0-0.4,0.3-0.7,0.7-0.7l24.7,0c0.4,0,0.7,0.3,0.7,0.7
								l0,2.6C332.4,232,332.1,232.3,331.7,232.3z"/>
							<path class="st4" d="M331.7,240.5l-24.7,0c-0.4,0-0.7-0.3-0.7-0.7l0-2.6c0-0.4,0.3-0.7,0.7-0.7l24.7,0c0.4,0,0.7,0.3,0.7,0.7
								l0,2.6C332.4,240.2,332.1,240.5,331.7,240.5z"/>
						</g>
						<g>
							<path class="st5" d="M327.5,244l-16.4,0c-0.8,0-1.5-0.7-1.5-1.5l0-16.4c0-0.8,0.7-1.5,1.5-1.5l16.4,0c0.8,0,1.5,0.7,1.5,1.5
								l0,16.4C329,243.4,328.3,244,327.5,244z"/>
							<path class="st6" d="M313.6,234.3L313.6,234.3c0-3.1,2.6-5.7,5.7-5.7l0,0c3.1,0,5.7,2.6,5.7,5.7v0c0,3.1-2.6,5.7-5.7,5.7l0,0
								C316.2,240,313.6,237.4,313.6,234.3z"/>
						</g>
					</g>
					<g>
						<g>
							<path class="st4" d="M369.9,232.3l-24.7,0c-0.4,0-0.7-0.3-0.7-0.7l0-2.6c0-0.4,0.3-0.7,0.7-0.7l24.7,0c0.4,0,0.7,0.3,0.7,0.7
								l0,2.6C370.7,232,370.3,232.3,369.9,232.3z"/>
							<path class="st4" d="M369.9,240.5l-24.7,0c-0.4,0-0.7-0.3-0.7-0.7l0-2.6c0-0.4,0.3-0.7,0.7-0.7l24.7,0c0.4,0,0.7,0.3,0.7,0.7
								l0,2.6C370.6,240.2,370.3,240.5,369.9,240.5z"/>
						</g>
						<g>
							<path class="st5" d="M365.7,244l-16.4,0c-0.8,0-1.5-0.7-1.5-1.5l0-16.4c0-0.8,0.7-1.5,1.5-1.5l16.4,0c0.8,0,1.5,0.7,1.5,1.5
								l0,16.4C367.2,243.4,366.6,244,365.7,244z"/>
							<path class="st6" d="M351.9,234.3L351.9,234.3c0-3.1,2.6-5.7,5.7-5.7h0c3.1,0,5.7,2.6,5.7,5.7v0c0,3.1-2.6,5.7-5.7,5.7l0,0
								C354.4,240,351.9,237.4,351.9,234.3z"/>
						</g>
					</g>
					<g>
						<g>
							<path class="st4" d="M43.9,232.3l-24.7,0c-0.4,0-0.7-0.3-0.7-0.7l0-2.6c0-0.4,0.3-0.7,0.7-0.7l24.7,0c0.4,0,0.7,0.3,0.7,0.7
								l0,2.6C44.7,232,44.3,232.3,43.9,232.3z"/>
							<path class="st4" d="M43.9,240.5l-24.7,0c-0.4,0-0.7-0.3-0.7-0.7l0-2.6c0-0.4,0.3-0.7,0.7-0.7l24.7,0c0.4,0,0.7,0.3,0.7,0.7
								l0,2.6C44.7,240.2,44.3,240.5,43.9,240.5z"/>
						</g>
						<g>
							<path class="st5" d="M39.8,244l-16.4,0c-0.8,0-1.5-0.7-1.5-1.5l0-16.4c0-0.8,0.7-1.5,1.5-1.5l16.4,0c0.8,0,1.5,0.7,1.5,1.5
								l0,16.4C41.2,243.4,40.6,244,39.8,244z"/>
							<path class="st6" d="M25.9,234.3L25.9,234.3c0-3.1,2.6-5.7,5.7-5.7h0c3.1,0,5.7,2.6,5.7,5.7v0c0,3.1-2.6,5.7-5.7,5.7h0
								C28.4,240,25.9,237.4,25.9,234.3z"/>
						</g>
					</g>
					<g class="st7">
						<g class="st8">
							<g>
								<path class="st9" d="M191.4,78.8h-14.9c-0.8,0-1.4-0.6-1.4-1.4V63.1c0-0.8,0.6-1.4,1.4-1.4h14.9c0.8,0,1.4,0.6,1.4,1.4v14.3
									C192.7,78.2,192.1,78.8,191.4,78.8z"/>
							</g>
							<g>
								<path class="st10" d="M325.1,78.8h-14.9c-0.8,0-1.4-0.6-1.4-1.4V63.1c0-0.8,0.6-1.4,1.4-1.4h14.9c0.8,0,1.4,0.6,1.4,1.4
									v14.3C326.5,78.2,325.9,78.8,325.1,78.8z"/>
							</g>
						</g>
						<g class="st8">
							<g>
								<path class="st11" d="M146.8,99.8h-14.9c-0.8,0-1.4-0.6-1.4-1.4V84.2c0-0.8,0.6-1.4,1.4-1.4h14.9c0.8,0,1.4,0.6,1.4,1.4
									v14.3C148.2,99.2,147.5,99.8,146.8,99.8z"/>
							</g>
							<g>
								<path class="st9" d="M169.1,99.8h-14.9c-0.8,0-1.4-0.6-1.4-1.4V84.2c0-0.8,0.6-1.4,1.4-1.4h14.9c0.8,0,1.4,0.6,1.4,1.4v14.3
									C170.4,99.2,169.8,99.8,169.1,99.8z"/>
							</g>
							<g>
								<path class="st12" d="M191.4,99.8h-14.9c-0.8,0-1.4-0.6-1.4-1.4V84.2c0-0.8,0.6-1.4,1.4-1.4h14.9c0.8,0,1.4,0.6,1.4,1.4
									v14.3C192.7,99.2,192.1,99.8,191.4,99.8z"/>
							</g>
							<g>
								<path class="st12" d="M213.6,99.8h-14.9c-0.8,0-1.4-0.6-1.4-1.4V84.2c0-0.8,0.6-1.4,1.4-1.4h14.9c0.8,0,1.4,0.6,1.4,1.4
									v14.3C215,99.2,214.4,99.8,213.6,99.8z"/>
							</g>
							<g>
								<path class="st10" d="M302.8,99.8h-14.9c-0.8,0-1.4-0.6-1.4-1.4V84.2c0-0.8,0.6-1.4,1.4-1.4h14.9c0.8,0,1.4,0.6,1.4,1.4
									v14.3C304.2,99.2,303.6,99.8,302.8,99.8z"/>
							</g>
						</g>
						<g class="st8">
							<g>
								<path class="st10" d="M79.9,120.9H65c-0.8,0-1.4-0.6-1.4-1.4v-14.3c0-0.8,0.6-1.4,1.4-1.4h14.9c0.8,0,1.4,0.6,1.4,1.4v14.3
									C81.3,120.3,80.6,120.9,79.9,120.9z"/>
							</g>
							<g>
								<path class="st13" d="M124.5,120.9h-14.9c-0.8,0-1.4-0.6-1.4-1.4v-14.3c0-0.8,0.6-1.4,1.4-1.4h14.9c0.8,0,1.4,0.6,1.4,1.4
									v14.3C125.9,120.3,125.2,120.9,124.5,120.9z"/>
							</g>
							<g>
								<path class="st14" d="M191.4,120.9h-14.9c-0.8,0-1.4-0.6-1.4-1.4v-14.3c0-0.8,0.6-1.4,1.4-1.4h14.9c0.8,0,1.4,0.6,1.4,1.4
									v14.3C192.7,120.3,192.1,120.9,191.4,120.9z"/>
							</g>
						</g>
						<g class="st8">
							<g>
								<path class="st10" d="M102.2,141.9H87.3c-0.8,0-1.4-0.6-1.4-1.4v-14.3c0-0.8,0.6-1.4,1.4-1.4h14.9c0.8,0,1.4,0.6,1.4,1.4
									v14.3C103.6,141.3,102.9,141.9,102.2,141.9z"/>
							</g>
						</g>
						<g class="st8">
							<g>
								<path class="st13" d="M102.2,163H87.3c-0.8,0-1.4-0.6-1.4-1.4v-14.3c0-0.8,0.6-1.4,1.4-1.4h14.9c0.8,0,1.4,0.6,1.4,1.4v14.3
									C103.6,162.4,102.9,163,102.2,163z"/>
							</g>
						</g>
						<g class="st8">
							<g>
								<path class="st10" d="M102.2,184H87.3c-0.8,0-1.4-0.6-1.4-1.4v-14.3c0-0.8,0.6-1.4,1.4-1.4h14.9c0.8,0,1.4,0.6,1.4,1.4v14.3
									C103.6,183.4,102.9,184,102.2,184z"/>
							</g>
							<g>
								<path class="st11" d="M124.5,184h-14.9c-0.8,0-1.4-0.6-1.4-1.4v-14.3c0-0.8,0.6-1.4,1.4-1.4h14.9c0.8,0,1.4,0.6,1.4,1.4
									v14.3C125.9,183.4,125.2,184,124.5,184z"/>
							</g>
							<g>
								<path class="st13" d="M146.8,184h-14.9c-0.8,0-1.4-0.6-1.4-1.4v-14.3c0-0.8,0.6-1.4,1.4-1.4h14.9c0.8,0,1.4,0.6,1.4,1.4
									v14.3C148.2,183.4,147.5,184,146.8,184z"/>
							</g>
							<g>
								<path class="st12" d="M169.1,184h-14.9c-0.8,0-1.4-0.6-1.4-1.4v-14.3c0-0.8,0.6-1.4,1.4-1.4h14.9c0.8,0,1.4,0.6,1.4,1.4
									v14.3C170.4,183.4,169.8,184,169.1,184z"/>
							</g>
							<g>
								<path class="st11" d="M235.9,184h-14.9c-0.8,0-1.4-0.6-1.4-1.4v-14.3c0-0.8,0.6-1.4,1.4-1.4h14.9c0.8,0,1.4,0.6,1.4,1.4
									v14.3C237.3,183.4,236.7,184,235.9,184z"/>
							</g>
							<g>
								<path class="st10" d="M258.2,184h-14.9c-0.8,0-1.4-0.6-1.4-1.4v-14.3c0-0.8,0.6-1.4,1.4-1.4h14.9c0.8,0,1.4,0.6,1.4,1.4
									v14.3C259.6,183.4,259,184,258.2,184z"/>
							</g>
						</g>
						<g class="st8">
							<g>
								<path class="st10" d="M102.2,205.1H87.3c-0.8,0-1.4-0.6-1.4-1.4v-14.3c0-0.8,0.6-1.4,1.4-1.4h14.9c0.8,0,1.4,0.6,1.4,1.4
									v14.3C103.6,204.5,102.9,205.1,102.2,205.1z"/>
							</g>
							<g>
								<path class="st10" d="M124.5,205.1h-14.9c-0.8,0-1.4-0.6-1.4-1.4v-14.3c0-0.8,0.6-1.4,1.4-1.4h14.9c0.8,0,1.4,0.6,1.4,1.4
									v14.3C125.9,204.5,125.2,205.1,124.5,205.1z"/>
							</g>
							<g>
								<path class="st13" d="M146.8,205.1h-14.9c-0.8,0-1.4-0.6-1.4-1.4v-14.3c0-0.8,0.6-1.4,1.4-1.4h14.9c0.8,0,1.4,0.6,1.4,1.4
									v14.3C148.2,204.5,147.5,205.1,146.8,205.1z"/>
							</g>
							<g>
								<path class="st13" d="M169.1,205.1h-14.9c-0.8,0-1.4-0.6-1.4-1.4v-14.3c0-0.8,0.6-1.4,1.4-1.4h14.9c0.8,0,1.4,0.6,1.4,1.4
									v14.3C170.4,204.5,169.8,205.1,169.1,205.1z"/>
							</g>
							<g>
								<path class="st13" d="M191.4,205.1h-14.9c-0.8,0-1.4-0.6-1.4-1.4v-14.3c0-0.8,0.6-1.4,1.4-1.4h14.9c0.8,0,1.4,0.6,1.4,1.4
									v14.3C192.7,204.5,192.1,205.1,191.4,205.1z"/>
							</g>
							<g>
								<path class="st10" d="M235.9,205.1h-14.9c-0.8,0-1.4-0.6-1.4-1.4v-14.3c0-0.8,0.6-1.4,1.4-1.4h14.9c0.8,0,1.4,0.6,1.4,1.4
									v14.3C237.3,204.5,236.7,205.1,235.9,205.1z"/>
							</g>
							<g>
								<path class="st13" d="M213.6,205.1h-14.9c-0.8,0-1.4-0.6-1.4-1.4v-14.3c0-0.8,0.6-1.4,1.4-1.4h14.9c0.8,0,1.4,0.6,1.4,1.4
									v14.3C215,204.5,214.4,205.1,213.6,205.1z"/>
							</g>
							<g>
								<path class="st11" d="M258.2,205.1h-14.9c-0.8,0-1.4-0.6-1.4-1.4v-14.3c0-0.8,0.6-1.4,1.4-1.4h14.9c0.8,0,1.4,0.6,1.4,1.4
									v14.3C259.6,204.5,259,205.1,258.2,205.1z"/>
							</g>
							<g>
								<path class="st10" d="M280.5,205.1h-14.9c-0.8,0-1.4-0.6-1.4-1.4v-14.3c0-0.8,0.6-1.4,1.4-1.4h14.9c0.8,0,1.4,0.6,1.4,1.4
									v14.3C281.9,204.5,281.3,205.1,280.5,205.1z"/>
							</g>
							<g>
								<path class="st10" d="M302.8,205.1h-14.9c-0.8,0-1.4-0.6-1.4-1.4v-14.3c0-0.8,0.6-1.4,1.4-1.4h14.9c0.8,0,1.4,0.6,1.4,1.4
									v14.3C304.2,204.5,303.6,205.1,302.8,205.1z"/>
							</g>
						</g>
						<g class="st8">
							<g>
								<g>
									<path class="st10" d="M79.9,57.7H65c-0.8,0-1.4-0.6-1.4-1.4V42.1c0-0.8,0.6-1.4,1.4-1.4h14.9c0.8,0,1.4,0.6,1.4,1.4v14.3
										C81.3,57.1,80.6,57.7,79.9,57.7z"/>
								</g>
								<g>
									<path class="st10" d="M102.2,57.7H87.3c-0.8,0-1.4-0.6-1.4-1.4V42.1c0-0.8,0.6-1.4,1.4-1.4h14.9c0.8,0,1.4,0.6,1.4,1.4
										v14.3C103.6,57.1,102.9,57.7,102.2,57.7z"/>
								</g>
								<g>
									<path class="st10" d="M124.5,57.7h-14.9c-0.8,0-1.4-0.6-1.4-1.4V42.1c0-0.8,0.6-1.4,1.4-1.4h14.9c0.8,0,1.4,0.6,1.4,1.4
										v14.3C125.9,57.1,125.2,57.7,124.5,57.7z"/>
								</g>
								<g>
									<path class="st11" d="M146.8,57.7h-14.9c-0.8,0-1.4-0.6-1.4-1.4V42.1c0-0.8,0.6-1.4,1.4-1.4h14.9c0.8,0,1.4,0.6,1.4,1.4
										v14.3C148.2,57.1,147.5,57.7,146.8,57.7z"/>
								</g>
								<g>
									<path class="st10" d="M169.1,57.7h-14.9c-0.8,0-1.4-0.6-1.4-1.4V42.1c0-0.8,0.6-1.4,1.4-1.4h14.9c0.8,0,1.4,0.6,1.4,1.4
										v14.3C170.4,57.1,169.8,57.7,169.1,57.7z"/>
								</g>
								<g>
									<path class="st13" d="M191.4,57.7h-14.9c-0.8,0-1.4-0.6-1.4-1.4V42.1c0-0.8,0.6-1.4,1.4-1.4h14.9c0.8,0,1.4,0.6,1.4,1.4
										v14.3C192.7,57.1,192.1,57.7,191.4,57.7z"/>
								</g>
								<g>
									<path class="st10" d="M235.9,57.7h-14.9c-0.8,0-1.4-0.6-1.4-1.4V42.1c0-0.8,0.6-1.4,1.4-1.4h14.9c0.8,0,1.4,0.6,1.4,1.4
										v14.3C237.3,57.1,236.7,57.7,235.9,57.7z"/>
								</g>
								<g>
									<path class="st13" d="M213.6,57.7h-14.9c-0.8,0-1.4-0.6-1.4-1.4V42.1c0-0.8,0.6-1.4,1.4-1.4h14.9c0.8,0,1.4,0.6,1.4,1.4
										v14.3C215,57.1,214.4,57.7,213.6,57.7z"/>
								</g>
								<g>
									<path class="st10" d="M258.2,57.7h-14.9c-0.8,0-1.4-0.6-1.4-1.4V42.1c0-0.8,0.6-1.4,1.4-1.4h14.9c0.8,0,1.4,0.6,1.4,1.4
										v14.3C259.6,57.1,259,57.7,258.2,57.7z"/>
								</g>
								<g>
									<path class="st10" d="M280.5,57.7h-14.9c-0.8,0-1.4-0.6-1.4-1.4V42.1c0-0.8,0.6-1.4,1.4-1.4h14.9c0.8,0,1.4,0.6,1.4,1.4
										v14.3C281.9,57.1,281.3,57.7,280.5,57.7z"/>
								</g>
								<g>
									<path class="st10" d="M302.8,57.7h-14.9c-0.8,0-1.4-0.6-1.4-1.4V42.1c0-0.8,0.6-1.4,1.4-1.4h14.9c0.8,0,1.4,0.6,1.4,1.4
										v14.3C304.2,57.1,303.6,57.7,302.8,57.7z"/>
								</g>
							</g>
							<g>
								<path class="st10" d="M102.2,78.8H87.3c-0.8,0-1.4-0.6-1.4-1.4V63.1c0-0.8,0.6-1.4,1.4-1.4h14.9c0.8,0,1.4,0.6,1.4,1.4v14.3
									C103.6,78.2,102.9,78.8,102.2,78.8z"/>
							</g>
							<g>
								<path class="st10" d="M124.5,78.8h-14.9c-0.8,0-1.4-0.6-1.4-1.4V63.1c0-0.8,0.6-1.4,1.4-1.4h14.9c0.8,0,1.4,0.6,1.4,1.4
									v14.3C125.9,78.2,125.2,78.8,124.5,78.8z"/>
							</g>
							<g>
								<path class="st13" d="M146.8,78.8h-14.9c-0.8,0-1.4-0.6-1.4-1.4V63.1c0-0.8,0.6-1.4,1.4-1.4h14.9c0.8,0,1.4,0.6,1.4,1.4
									v14.3C148.2,78.2,147.5,78.8,146.8,78.8z"/>
							</g>
							<g>
								<path class="st9" d="M169.1,78.8h-14.9c-0.8,0-1.4-0.6-1.4-1.4V63.1c0-0.8,0.6-1.4,1.4-1.4h14.9c0.8,0,1.4,0.6,1.4,1.4v14.3
									C170.4,78.2,169.8,78.8,169.1,78.8z"/>
							</g>
							<g>
								<path class="st11" d="M235.9,78.8h-14.9c-0.8,0-1.4-0.6-1.4-1.4V63.1c0-0.8,0.6-1.4,1.4-1.4h14.9c0.8,0,1.4,0.6,1.4,1.4
									v14.3C237.3,78.2,236.7,78.8,235.9,78.8z"/>
							</g>
							<g>
								<path class="st9" d="M213.6,78.8h-14.9c-0.8,0-1.4-0.6-1.4-1.4V63.1c0-0.8,0.6-1.4,1.4-1.4h14.9c0.8,0,1.4,0.6,1.4,1.4v14.3
									C215,78.2,214.4,78.8,213.6,78.8z"/>
							</g>
							<g>
								<path class="st13" d="M258.2,78.8h-14.9c-0.8,0-1.4-0.6-1.4-1.4V63.1c0-0.8,0.6-1.4,1.4-1.4h14.9c0.8,0,1.4,0.6,1.4,1.4
									v14.3C259.6,78.2,259,78.8,258.2,78.8z"/>
							</g>
							<g>
								<path class="st13" d="M280.5,78.8h-14.9c-0.8,0-1.4-0.6-1.4-1.4V63.1c0-0.8,0.6-1.4,1.4-1.4h14.9c0.8,0,1.4,0.6,1.4,1.4
									v14.3C281.9,78.2,281.3,78.8,280.5,78.8z"/>
							</g>
							<g>
								<path class="st10" d="M302.8,78.8h-14.9c-0.8,0-1.4-0.6-1.4-1.4V63.1c0-0.8,0.6-1.4,1.4-1.4h14.9c0.8,0,1.4,0.6,1.4,1.4
									v14.3C304.2,78.2,303.6,78.8,302.8,78.8z"/>
							</g>
							<g>
								<path class="st10" d="M102.2,99.8H87.3c-0.8,0-1.4-0.6-1.4-1.4V84.2c0-0.8,0.6-1.4,1.4-1.4h14.9c0.8,0,1.4,0.6,1.4,1.4v14.3
									C103.6,99.2,102.9,99.8,102.2,99.8z"/>
							</g>
							<g>
								<path class="st13" d="M124.5,99.8h-14.9c-0.8,0-1.4-0.6-1.4-1.4V84.2c0-0.8,0.6-1.4,1.4-1.4h14.9c0.8,0,1.4,0.6,1.4,1.4
									v14.3C125.9,99.2,125.2,99.8,124.5,99.8z"/>
							</g>
							<g>
								<path class="st9" d="M235.9,99.8h-14.9c-0.8,0-1.4-0.6-1.4-1.4V84.2c0-0.8,0.6-1.4,1.4-1.4h14.9c0.8,0,1.4,0.6,1.4,1.4v14.3
									C237.3,99.2,236.7,99.8,235.9,99.8z"/>
							</g>
							<g>
								<path class="st11" d="M258.2,99.8h-14.9c-0.8,0-1.4-0.6-1.4-1.4V84.2c0-0.8,0.6-1.4,1.4-1.4h14.9c0.8,0,1.4,0.6,1.4,1.4
									v14.3C259.6,99.2,259,99.8,258.2,99.8z"/>
							</g>
							<g>
								<path class="st10" d="M280.5,99.8h-14.9c-0.8,0-1.4-0.6-1.4-1.4V84.2c0-0.8,0.6-1.4,1.4-1.4h14.9c0.8,0,1.4,0.6,1.4,1.4
									v14.3C281.9,99.2,281.3,99.8,280.5,99.8z"/>
							</g>
							<g>
								<path class="st13" d="M102.2,120.9H87.3c-0.8,0-1.4-0.6-1.4-1.4v-14.3c0-0.8,0.6-1.4,1.4-1.4h14.9c0.8,0,1.4,0.6,1.4,1.4
									v14.3C103.6,120.3,102.9,120.9,102.2,120.9z"/>
							</g>
							<g>
								<path class="st9" d="M146.8,120.9h-14.9c-0.8,0-1.4-0.6-1.4-1.4v-14.3c0-0.8,0.6-1.4,1.4-1.4h14.9c0.8,0,1.4,0.6,1.4,1.4
									v14.3C148.2,120.3,147.5,120.9,146.8,120.9z"/>
							</g>
							<g>
								<path class="st12" d="M169.1,120.9h-14.9c-0.8,0-1.4-0.6-1.4-1.4v-14.3c0-0.8,0.6-1.4,1.4-1.4h14.9c0.8,0,1.4,0.6,1.4,1.4
									v14.3C170.4,120.3,169.8,120.9,169.1,120.9z"/>
							</g>
							<g>
								<path class="st12" d="M235.9,120.9h-14.9c-0.8,0-1.4-0.6-1.4-1.4v-14.3c0-0.8,0.6-1.4,1.4-1.4h14.9c0.8,0,1.4,0.6,1.4,1.4
									v14.3C237.3,120.3,236.7,120.9,235.9,120.9z"/>
							</g>
							<g>
								<path class="st14" d="M213.6,120.9h-14.9c-0.8,0-1.4-0.6-1.4-1.4v-14.3c0-0.8,0.6-1.4,1.4-1.4h14.9c0.8,0,1.4,0.6,1.4,1.4
									v14.3C215,120.3,214.4,120.9,213.6,120.9z"/>
							</g>
							<g>
								<path class="st9" d="M258.2,120.9h-14.9c-0.8,0-1.4-0.6-1.4-1.4v-14.3c0-0.8,0.6-1.4,1.4-1.4h14.9c0.8,0,1.4,0.6,1.4,1.4
									v14.3C259.6,120.3,259,120.9,258.2,120.9z"/>
							</g>
							<g>
								<path class="st13" d="M280.5,120.9h-14.9c-0.8,0-1.4-0.6-1.4-1.4v-14.3c0-0.8,0.6-1.4,1.4-1.4h14.9c0.8,0,1.4,0.6,1.4,1.4
									v14.3C281.9,120.3,281.3,120.9,280.5,120.9z"/>
							</g>
							<g>
								<path class="st10" d="M302.8,120.9h-14.9c-0.8,0-1.4-0.6-1.4-1.4v-14.3c0-0.8,0.6-1.4,1.4-1.4h14.9c0.8,0,1.4,0.6,1.4,1.4
									v14.3C304.2,120.3,303.6,120.9,302.8,120.9z"/>
							</g>
							<g>
								<path class="st10" d="M79.9,141.9H65c-0.8,0-1.4-0.6-1.4-1.4v-14.3c0-0.8,0.6-1.4,1.4-1.4h14.9c0.8,0,1.4,0.6,1.4,1.4v14.3
									C81.3,141.3,80.6,141.9,79.9,141.9z"/>
							</g>
							<g>
								<path class="st9" d="M124.5,141.9h-14.9c-0.8,0-1.4-0.6-1.4-1.4v-14.3c0-0.8,0.6-1.4,1.4-1.4h14.9c0.8,0,1.4,0.6,1.4,1.4
									v14.3C125.9,141.3,125.2,141.9,124.5,141.9z"/>
							</g>
							<g>
								<path class="st9" d="M146.8,141.9h-14.9c-0.8,0-1.4-0.6-1.4-1.4v-14.3c0-0.8,0.6-1.4,1.4-1.4h14.9c0.8,0,1.4,0.6,1.4,1.4
									v14.3C148.2,141.3,147.5,141.9,146.8,141.9z"/>
							</g>
							<g>
								<path class="st12" d="M169.1,141.9h-14.9c-0.8,0-1.4-0.6-1.4-1.4v-14.3c0-0.8,0.6-1.4,1.4-1.4h14.9c0.8,0,1.4,0.6,1.4,1.4
									v14.3C170.4,141.3,169.8,141.9,169.1,141.9z"/>
							</g>
							<g>
								<path class="st14" d="M191.4,141.9h-14.9c-0.8,0-1.4-0.6-1.4-1.4v-14.3c0-0.8,0.6-1.4,1.4-1.4h14.9c0.8,0,1.4,0.6,1.4,1.4
									v14.3C192.7,141.3,192.1,141.9,191.4,141.9z"/>
							</g>
							<g>
								<path class="st12" d="M235.9,141.9h-14.9c-0.8,0-1.4-0.6-1.4-1.4v-14.3c0-0.8,0.6-1.4,1.4-1.4h14.9c0.8,0,1.4,0.6,1.4,1.4
									v14.3C237.3,141.3,236.7,141.9,235.9,141.9z"/>
							</g>
							<g>
								<path class="st14" d="M213.6,141.9h-14.9c-0.8,0-1.4-0.6-1.4-1.4v-14.3c0-0.8,0.6-1.4,1.4-1.4h14.9c0.8,0,1.4,0.6,1.4,1.4
									v14.3C215,141.3,214.4,141.9,213.6,141.9z"/>
							</g>
							<g>
								<path class="st9" d="M258.2,141.9h-14.9c-0.8,0-1.4-0.6-1.4-1.4v-14.3c0-0.8,0.6-1.4,1.4-1.4h14.9c0.8,0,1.4,0.6,1.4,1.4
									v14.3C259.6,141.3,259,141.9,258.2,141.9z"/>
							</g>
							<g>
								<path class="st13" d="M280.5,141.9h-14.9c-0.8,0-1.4-0.6-1.4-1.4v-14.3c0-0.8,0.6-1.4,1.4-1.4h14.9c0.8,0,1.4,0.6,1.4,1.4
									v14.3C281.9,141.3,281.3,141.9,280.5,141.9z"/>
							</g>
							<g>
								<path class="st11" d="M302.8,141.9h-14.9c-0.8,0-1.4-0.6-1.4-1.4v-14.3c0-0.8,0.6-1.4,1.4-1.4h14.9c0.8,0,1.4,0.6,1.4,1.4
									v14.3C304.2,141.3,303.6,141.9,302.8,141.9z"/>
							</g>
							<g>
								<path class="st10" d="M325.1,141.9h-14.9c-0.8,0-1.4-0.6-1.4-1.4v-14.3c0-0.8,0.6-1.4,1.4-1.4h14.9c0.8,0,1.4,0.6,1.4,1.4
									v14.3C326.5,141.3,325.9,141.9,325.1,141.9z"/>
							</g>
							<g>
								<path class="st13" d="M124.5,163h-14.9c-0.8,0-1.4-0.6-1.4-1.4v-14.3c0-0.8,0.6-1.4,1.4-1.4h14.9c0.8,0,1.4,0.6,1.4,1.4
									v14.3C125.9,162.4,125.2,163,124.5,163z"/>
							</g>
							<g>
								<path class="st11" d="M146.8,163h-14.9c-0.8,0-1.4-0.6-1.4-1.4v-14.3c0-0.8,0.6-1.4,1.4-1.4h14.9c0.8,0,1.4,0.6,1.4,1.4
									v14.3C148.2,162.4,147.5,163,146.8,163z"/>
							</g>
							<g>
								<path class="st9" d="M169.1,163h-14.9c-0.8,0-1.4-0.6-1.4-1.4v-14.3c0-0.8,0.6-1.4,1.4-1.4h14.9c0.8,0,1.4,0.6,1.4,1.4v14.3
									C170.4,162.4,169.8,163,169.1,163z"/>
							</g>
							<g>
								<path class="st12" d="M191.4,163h-14.9c-0.8,0-1.4-0.6-1.4-1.4v-14.3c0-0.8,0.6-1.4,1.4-1.4h14.9c0.8,0,1.4,0.6,1.4,1.4
									v14.3C192.7,162.4,192.1,163,191.4,163z"/>
							</g>
							<g>
								<path class="st9" d="M235.9,163h-14.9c-0.8,0-1.4-0.6-1.4-1.4v-14.3c0-0.8,0.6-1.4,1.4-1.4h14.9c0.8,0,1.4,0.6,1.4,1.4v14.3
									C237.3,162.4,236.7,163,235.9,163z"/>
							</g>
							<g>
								<path class="st12" d="M213.6,163h-14.9c-0.8,0-1.4-0.6-1.4-1.4v-14.3c0-0.8,0.6-1.4,1.4-1.4h14.9c0.8,0,1.4,0.6,1.4,1.4
									v14.3C215,162.4,214.4,163,213.6,163z"/>
							</g>
							<g>
								<path class="st12" d="M258.2,163h-14.9c-0.8,0-1.4-0.6-1.4-1.4v-14.3c0-0.8,0.6-1.4,1.4-1.4h14.9c0.8,0,1.4,0.6,1.4,1.4
									v14.3C259.6,162.4,259,163,258.2,163z"/>
							</g>
							<g>
								<path class="st9" d="M280.5,163h-14.9c-0.8,0-1.4-0.6-1.4-1.4v-14.3c0-0.8,0.6-1.4,1.4-1.4h14.9c0.8,0,1.4,0.6,1.4,1.4v14.3
									C281.9,162.4,281.3,163,280.5,163z"/>
							</g>
							<g>
								<path class="st10" d="M302.8,163h-14.9c-0.8,0-1.4-0.6-1.4-1.4v-14.3c0-0.8,0.6-1.4,1.4-1.4h14.9c0.8,0,1.4,0.6,1.4,1.4
									v14.3C304.2,162.4,303.6,163,302.8,163z"/>
							</g>
							<g>
								<path class="st9" d="M191.4,184h-14.9c-0.8,0-1.4-0.6-1.4-1.4v-14.3c0-0.8,0.6-1.4,1.4-1.4h14.9c0.8,0,1.4,0.6,1.4,1.4v14.3
									C192.7,183.4,192.1,184,191.4,184z"/>
							</g>
							<g>
								<path class="st9" d="M213.6,184h-14.9c-0.8,0-1.4-0.6-1.4-1.4v-14.3c0-0.8,0.6-1.4,1.4-1.4h14.9c0.8,0,1.4,0.6,1.4,1.4v14.3
									C215,183.4,214.4,184,213.6,184z"/>
							</g>
							<g>
								<path class="st10" d="M280.5,184h-14.9c-0.8,0-1.4-0.6-1.4-1.4v-14.3c0-0.8,0.6-1.4,1.4-1.4h14.9c0.8,0,1.4,0.6,1.4,1.4
									v14.3C281.9,183.4,281.3,184,280.5,184z"/>
							</g>
						</g>
					</g>
					<g class="st15">
						<g class="st8">
							<g>
								<linearGradient id="SVGID_3_" gradientUnits="userSpaceOnUse" x1="183.9055" y1="61.7359" x2="183.9055" y2="78.789">
									<stop  offset="0.1348" style="stop-color:#FFFFFF"/>
									<stop  offset="0.8113" style="stop-color:#FFFFFF;stop-opacity:0"/>
								</linearGradient>
								<path class="st16" d="M191.4,78.8h-14.9c-0.8,0-1.4-0.6-1.4-1.4V63.1c0-0.8,0.6-1.4,1.4-1.4h14.9c0.8,0,1.4,0.6,1.4,1.4
									v14.3C192.7,78.2,192.1,78.8,191.4,78.8z"/>
							</g>
							<g>
								<linearGradient id="SVGID_4_" gradientUnits="userSpaceOnUse" x1="317.6918" y1="61.7359" x2="317.6918" y2="78.789">
									<stop  offset="0.1348" style="stop-color:#FFFFFF"/>
									<stop  offset="0.8113" style="stop-color:#FFFFFF;stop-opacity:0"/>
								</linearGradient>
								<path class="st17" d="M325.1,78.8h-14.9c-0.8,0-1.4-0.6-1.4-1.4V63.1c0-0.8,0.6-1.4,1.4-1.4h14.9c0.8,0,1.4,0.6,1.4,1.4
									v14.3C326.5,78.2,325.9,78.8,325.1,78.8z"/>
							</g>
						</g>
						<g class="st8">
							<g>
								<linearGradient id="SVGID_5_" gradientUnits="userSpaceOnUse" x1="139.31" y1="82.7846" x2="139.31" y2="99.8377">
									<stop  offset="0.1348" style="stop-color:#FFFFFF"/>
									<stop  offset="0.8113" style="stop-color:#FFFFFF;stop-opacity:0"/>
								</linearGradient>
								<path class="st18" d="M146.8,99.8h-14.9c-0.8,0-1.4-0.6-1.4-1.4V84.2c0-0.8,0.6-1.4,1.4-1.4h14.9c0.8,0,1.4,0.6,1.4,1.4
									v14.3C148.2,99.2,147.5,99.8,146.8,99.8z"/>
							</g>
							<g>
								<linearGradient id="SVGID_6_" gradientUnits="userSpaceOnUse" x1="161.6077" y1="82.7846" x2="161.6077" y2="99.8377">
									<stop  offset="0.1348" style="stop-color:#FFFFFF"/>
									<stop  offset="0.8113" style="stop-color:#FFFFFF;stop-opacity:0"/>
								</linearGradient>
								<path class="st19" d="M169.1,99.8h-14.9c-0.8,0-1.4-0.6-1.4-1.4V84.2c0-0.8,0.6-1.4,1.4-1.4h14.9c0.8,0,1.4,0.6,1.4,1.4
									v14.3C170.4,99.2,169.8,99.8,169.1,99.8z"/>
							</g>
							<g>
								<linearGradient id="SVGID_7_" gradientUnits="userSpaceOnUse" x1="183.9055" y1="82.7846" x2="183.9055" y2="99.8377">
									<stop  offset="0.1348" style="stop-color:#FFFFFF"/>
									<stop  offset="0.8113" style="stop-color:#FFFFFF;stop-opacity:0"/>
								</linearGradient>
								<path class="st20" d="M191.4,99.8h-14.9c-0.8,0-1.4-0.6-1.4-1.4V84.2c0-0.8,0.6-1.4,1.4-1.4h14.9c0.8,0,1.4,0.6,1.4,1.4
									v14.3C192.7,99.2,192.1,99.8,191.4,99.8z"/>
							</g>
							<g>
								<linearGradient id="SVGID_8_" gradientUnits="userSpaceOnUse" x1="206.2032" y1="82.7846" x2="206.2032" y2="99.8377">
									<stop  offset="0.1348" style="stop-color:#FFFFFF"/>
									<stop  offset="0.8113" style="stop-color:#FFFFFF;stop-opacity:0"/>
								</linearGradient>
								<path class="st21" d="M213.6,99.8h-14.9c-0.8,0-1.4-0.6-1.4-1.4V84.2c0-0.8,0.6-1.4,1.4-1.4h14.9c0.8,0,1.4,0.6,1.4,1.4
									v14.3C215,99.2,214.4,99.8,213.6,99.8z"/>
							</g>
							<g>
								<linearGradient id="SVGID_9_" gradientUnits="userSpaceOnUse" x1="295.3941" y1="82.7846" x2="295.3941" y2="99.8377">
									<stop  offset="0.1348" style="stop-color:#FFFFFF"/>
									<stop  offset="0.8113" style="stop-color:#FFFFFF;stop-opacity:0"/>
								</linearGradient>
								<path class="st22" d="M302.8,99.8h-14.9c-0.8,0-1.4-0.6-1.4-1.4V84.2c0-0.8,0.6-1.4,1.4-1.4h14.9c0.8,0,1.4,0.6,1.4,1.4
									v14.3C304.2,99.2,303.6,99.8,302.8,99.8z"/>
							</g>
						</g>
						<g class="st8">
							<g>
								<linearGradient id="SVGID_10_" gradientUnits="userSpaceOnUse" x1="72.4168" y1="103.8332" x2="72.4168" y2="120.8864">
									<stop  offset="0.1348" style="stop-color:#FFFFFF"/>
									<stop  offset="0.8113" style="stop-color:#FFFFFF;stop-opacity:0"/>
								</linearGradient>
								<path class="st23" d="M79.9,120.9H65c-0.8,0-1.4-0.6-1.4-1.4v-14.3c0-0.8,0.6-1.4,1.4-1.4h14.9c0.8,0,1.4,0.6,1.4,1.4v14.3
									C81.3,120.3,80.6,120.9,79.9,120.9z"/>
							</g>
							<g>
								<linearGradient id="SVGID_11_" gradientUnits="userSpaceOnUse" x1="117.0123" y1="103.8332" x2="117.0123" y2="120.8864">
									<stop  offset="0.1348" style="stop-color:#FFFFFF"/>
									<stop  offset="0.8113" style="stop-color:#FFFFFF;stop-opacity:0"/>
								</linearGradient>
								<path class="st24" d="M124.5,120.9h-14.9c-0.8,0-1.4-0.6-1.4-1.4v-14.3c0-0.8,0.6-1.4,1.4-1.4h14.9c0.8,0,1.4,0.6,1.4,1.4
									v14.3C125.9,120.3,125.2,120.9,124.5,120.9z"/>
							</g>
							<g>
								<linearGradient id="SVGID_12_" gradientUnits="userSpaceOnUse" x1="183.9055" y1="103.8332" x2="183.9055" y2="120.8864">
									<stop  offset="0.1348" style="stop-color:#FFFFFF"/>
									<stop  offset="0.8113" style="stop-color:#FFFFFF;stop-opacity:0"/>
								</linearGradient>
								<path class="st25" d="M191.4,120.9h-14.9c-0.8,0-1.4-0.6-1.4-1.4v-14.3c0-0.8,0.6-1.4,1.4-1.4h14.9c0.8,0,1.4,0.6,1.4,1.4
									v14.3C192.7,120.3,192.1,120.9,191.4,120.9z"/>
							</g>
						</g>
						<g class="st8">
							<g>
								<linearGradient id="SVGID_13_" gradientUnits="userSpaceOnUse" x1="94.7145" y1="124.8819" x2="94.7145" y2="141.9351">
									<stop  offset="0.1348" style="stop-color:#FFFFFF"/>
									<stop  offset="0.8113" style="stop-color:#FFFFFF;stop-opacity:0"/>
								</linearGradient>
								<path class="st26" d="M102.2,141.9H87.3c-0.8,0-1.4-0.6-1.4-1.4v-14.3c0-0.8,0.6-1.4,1.4-1.4h14.9c0.8,0,1.4,0.6,1.4,1.4
									v14.3C103.6,141.3,102.9,141.9,102.2,141.9z"/>
							</g>
						</g>
						<g class="st8">
							<g>
								<linearGradient id="SVGID_14_" gradientUnits="userSpaceOnUse" x1="94.7145" y1="145.9306" x2="94.7145" y2="162.9837">
									<stop  offset="0.1348" style="stop-color:#FFFFFF"/>
									<stop  offset="0.8113" style="stop-color:#FFFFFF;stop-opacity:0"/>
								</linearGradient>
								<path class="st27" d="M102.2,163H87.3c-0.8,0-1.4-0.6-1.4-1.4v-14.3c0-0.8,0.6-1.4,1.4-1.4h14.9c0.8,0,1.4,0.6,1.4,1.4v14.3
									C103.6,162.4,102.9,163,102.2,163z"/>
							</g>
						</g>
						<g class="st8">
							<g>
								<linearGradient id="SVGID_15_" gradientUnits="userSpaceOnUse" x1="94.7145" y1="166.9793" x2="94.7145" y2="184.0324">
									<stop  offset="0.1348" style="stop-color:#FFFFFF"/>
									<stop  offset="0.8113" style="stop-color:#FFFFFF;stop-opacity:0"/>
								</linearGradient>
								<path class="st28" d="M102.2,184H87.3c-0.8,0-1.4-0.6-1.4-1.4v-14.3c0-0.8,0.6-1.4,1.4-1.4h14.9c0.8,0,1.4,0.6,1.4,1.4v14.3
									C103.6,183.4,102.9,184,102.2,184z"/>
							</g>
							<g>
								<linearGradient id="SVGID_16_" gradientUnits="userSpaceOnUse" x1="117.0123" y1="166.9793" x2="117.0123" y2="184.0324">
									<stop  offset="0.1348" style="stop-color:#FFFFFF"/>
									<stop  offset="0.8113" style="stop-color:#FFFFFF;stop-opacity:0"/>
								</linearGradient>
								<path class="st29" d="M124.5,184h-14.9c-0.8,0-1.4-0.6-1.4-1.4v-14.3c0-0.8,0.6-1.4,1.4-1.4h14.9c0.8,0,1.4,0.6,1.4,1.4
									v14.3C125.9,183.4,125.2,184,124.5,184z"/>
							</g>
							<g>
								<linearGradient id="SVGID_17_" gradientUnits="userSpaceOnUse" x1="139.31" y1="166.9793" x2="139.31" y2="184.0324">
									<stop  offset="0.1348" style="stop-color:#FFFFFF"/>
									<stop  offset="0.8113" style="stop-color:#FFFFFF;stop-opacity:0"/>
								</linearGradient>
								<path class="st30" d="M146.8,184h-14.9c-0.8,0-1.4-0.6-1.4-1.4v-14.3c0-0.8,0.6-1.4,1.4-1.4h14.9c0.8,0,1.4,0.6,1.4,1.4
									v14.3C148.2,183.4,147.5,184,146.8,184z"/>
							</g>
							<g>
								<linearGradient id="SVGID_18_" gradientUnits="userSpaceOnUse" x1="161.6077" y1="166.9793" x2="161.6077" y2="184.0324">
									<stop  offset="0.1348" style="stop-color:#FFFFFF"/>
									<stop  offset="0.8113" style="stop-color:#FFFFFF;stop-opacity:0"/>
								</linearGradient>
								<path class="st31" d="M169.1,184h-14.9c-0.8,0-1.4-0.6-1.4-1.4v-14.3c0-0.8,0.6-1.4,1.4-1.4h14.9c0.8,0,1.4,0.6,1.4,1.4
									v14.3C170.4,183.4,169.8,184,169.1,184z"/>
							</g>
							<g>
								<linearGradient id="SVGID_19_" gradientUnits="userSpaceOnUse" x1="228.5009" y1="166.9793" x2="228.5009" y2="184.0324">
									<stop  offset="0.1348" style="stop-color:#FFFFFF"/>
									<stop  offset="0.8113" style="stop-color:#FFFFFF;stop-opacity:0"/>
								</linearGradient>
								<path class="st32" d="M235.9,184h-14.9c-0.8,0-1.4-0.6-1.4-1.4v-14.3c0-0.8,0.6-1.4,1.4-1.4h14.9c0.8,0,1.4,0.6,1.4,1.4
									v14.3C237.3,183.4,236.7,184,235.9,184z"/>
							</g>
							<g>
								<linearGradient id="SVGID_20_" gradientUnits="userSpaceOnUse" x1="250.7986" y1="166.9793" x2="250.7986" y2="184.0324">
									<stop  offset="0.1348" style="stop-color:#FFFFFF"/>
									<stop  offset="0.8113" style="stop-color:#FFFFFF;stop-opacity:0"/>
								</linearGradient>
								<path class="st33" d="M258.2,184h-14.9c-0.8,0-1.4-0.6-1.4-1.4v-14.3c0-0.8,0.6-1.4,1.4-1.4h14.9c0.8,0,1.4,0.6,1.4,1.4
									v14.3C259.6,183.4,259,184,258.2,184z"/>
							</g>
						</g>
						<g class="st8">
							<g>
								<linearGradient id="SVGID_21_" gradientUnits="userSpaceOnUse" x1="94.7145" y1="188.0279" x2="94.7145" y2="205.0811">
									<stop  offset="0.1348" style="stop-color:#FFFFFF"/>
									<stop  offset="0.8113" style="stop-color:#FFFFFF;stop-opacity:0"/>
								</linearGradient>
								<path class="st34" d="M102.2,205.1H87.3c-0.8,0-1.4-0.6-1.4-1.4v-14.3c0-0.8,0.6-1.4,1.4-1.4h14.9c0.8,0,1.4,0.6,1.4,1.4
									v14.3C103.6,204.5,102.9,205.1,102.2,205.1z"/>
							</g>
							<g>
								<linearGradient id="SVGID_22_" gradientUnits="userSpaceOnUse" x1="117.0123" y1="188.0279" x2="117.0123" y2="205.0811">
									<stop  offset="0.1348" style="stop-color:#FFFFFF"/>
									<stop  offset="0.8113" style="stop-color:#FFFFFF;stop-opacity:0"/>
								</linearGradient>
								<path class="st35" d="M124.5,205.1h-14.9c-0.8,0-1.4-0.6-1.4-1.4v-14.3c0-0.8,0.6-1.4,1.4-1.4h14.9c0.8,0,1.4,0.6,1.4,1.4
									v14.3C125.9,204.5,125.2,205.1,124.5,205.1z"/>
							</g>
							<g>
								<linearGradient id="SVGID_23_" gradientUnits="userSpaceOnUse" x1="139.31" y1="188.0279" x2="139.31" y2="205.0811">
									<stop  offset="0.1348" style="stop-color:#FFFFFF"/>
									<stop  offset="0.8113" style="stop-color:#FFFFFF;stop-opacity:0"/>
								</linearGradient>
								<path class="st36" d="M146.8,205.1h-14.9c-0.8,0-1.4-0.6-1.4-1.4v-14.3c0-0.8,0.6-1.4,1.4-1.4h14.9c0.8,0,1.4,0.6,1.4,1.4
									v14.3C148.2,204.5,147.5,205.1,146.8,205.1z"/>
							</g>
							<g>
								<linearGradient id="SVGID_24_" gradientUnits="userSpaceOnUse" x1="161.6077" y1="188.0279" x2="161.6077" y2="205.0811">
									<stop  offset="0.1348" style="stop-color:#FFFFFF"/>
									<stop  offset="0.8113" style="stop-color:#FFFFFF;stop-opacity:0"/>
								</linearGradient>
								<path class="st37" d="M169.1,205.1h-14.9c-0.8,0-1.4-0.6-1.4-1.4v-14.3c0-0.8,0.6-1.4,1.4-1.4h14.9c0.8,0,1.4,0.6,1.4,1.4
									v14.3C170.4,204.5,169.8,205.1,169.1,205.1z"/>
							</g>
							<g>
								<linearGradient id="SVGID_25_" gradientUnits="userSpaceOnUse" x1="183.9055" y1="188.0279" x2="183.9055" y2="205.0811">
									<stop  offset="0.1348" style="stop-color:#FFFFFF"/>
									<stop  offset="0.8113" style="stop-color:#FFFFFF;stop-opacity:0"/>
								</linearGradient>
								<path class="st38" d="M191.4,205.1h-14.9c-0.8,0-1.4-0.6-1.4-1.4v-14.3c0-0.8,0.6-1.4,1.4-1.4h14.9c0.8,0,1.4,0.6,1.4,1.4
									v14.3C192.7,204.5,192.1,205.1,191.4,205.1z"/>
							</g>
							<g>
								<linearGradient id="SVGID_26_" gradientUnits="userSpaceOnUse" x1="228.5009" y1="188.0279" x2="228.5009" y2="205.0811">
									<stop  offset="0.1348" style="stop-color:#FFFFFF"/>
									<stop  offset="0.8113" style="stop-color:#FFFFFF;stop-opacity:0"/>
								</linearGradient>
								<path class="st39" d="M235.9,205.1h-14.9c-0.8,0-1.4-0.6-1.4-1.4v-14.3c0-0.8,0.6-1.4,1.4-1.4h14.9c0.8,0,1.4,0.6,1.4,1.4
									v14.3C237.3,204.5,236.7,205.1,235.9,205.1z"/>
							</g>
							<g>
								<linearGradient id="SVGID_27_" gradientUnits="userSpaceOnUse" x1="206.2032" y1="188.0279" x2="206.2032" y2="205.0811">
									<stop  offset="0.1348" style="stop-color:#FFFFFF"/>
									<stop  offset="0.8113" style="stop-color:#FFFFFF;stop-opacity:0"/>
								</linearGradient>
								<path class="st40" d="M213.6,205.1h-14.9c-0.8,0-1.4-0.6-1.4-1.4v-14.3c0-0.8,0.6-1.4,1.4-1.4h14.9c0.8,0,1.4,0.6,1.4,1.4
									v14.3C215,204.5,214.4,205.1,213.6,205.1z"/>
							</g>
							<g>
								<linearGradient id="SVGID_28_" gradientUnits="userSpaceOnUse" x1="250.7986" y1="188.0279" x2="250.7986" y2="205.0811">
									<stop  offset="0.1348" style="stop-color:#FFFFFF"/>
									<stop  offset="0.8113" style="stop-color:#FFFFFF;stop-opacity:0"/>
								</linearGradient>
								<path class="st41" d="M258.2,205.1h-14.9c-0.8,0-1.4-0.6-1.4-1.4v-14.3c0-0.8,0.6-1.4,1.4-1.4h14.9c0.8,0,1.4,0.6,1.4,1.4
									v14.3C259.6,204.5,259,205.1,258.2,205.1z"/>
							</g>
							<g>
								<linearGradient id="SVGID_29_" gradientUnits="userSpaceOnUse" x1="273.0964" y1="188.0279" x2="273.0964" y2="205.0811">
									<stop  offset="0.1348" style="stop-color:#FFFFFF"/>
									<stop  offset="0.8113" style="stop-color:#FFFFFF;stop-opacity:0"/>
								</linearGradient>
								<path class="st42" d="M280.5,205.1h-14.9c-0.8,0-1.4-0.6-1.4-1.4v-14.3c0-0.8,0.6-1.4,1.4-1.4h14.9c0.8,0,1.4,0.6,1.4,1.4
									v14.3C281.9,204.5,281.3,205.1,280.5,205.1z"/>
							</g>
							<g>
								<linearGradient id="SVGID_30_" gradientUnits="userSpaceOnUse" x1="295.3941" y1="188.0279" x2="295.3941" y2="205.0811">
									<stop  offset="0.1348" style="stop-color:#FFFFFF"/>
									<stop  offset="0.8113" style="stop-color:#FFFFFF;stop-opacity:0"/>
								</linearGradient>
								<path class="st43" d="M302.8,205.1h-14.9c-0.8,0-1.4-0.6-1.4-1.4v-14.3c0-0.8,0.6-1.4,1.4-1.4h14.9c0.8,0,1.4,0.6,1.4,1.4
									v14.3C304.2,204.5,303.6,205.1,302.8,205.1z"/>
							</g>
						</g>
						<g class="st8">
							<g>
								<g>
									<linearGradient id="SVGID_31_" gradientUnits="userSpaceOnUse" x1="72.4168" y1="40.6872" x2="72.4168" y2="57.7404">
										<stop  offset="0.1348" style="stop-color:#FFFFFF"/>
										<stop  offset="0.8113" style="stop-color:#FFFFFF;stop-opacity:0"/>
									</linearGradient>
									<path class="st44" d="M79.9,57.7H65c-0.8,0-1.4-0.6-1.4-1.4V42.1c0-0.8,0.6-1.4,1.4-1.4h14.9c0.8,0,1.4,0.6,1.4,1.4v14.3
										C81.3,57.1,80.6,57.7,79.9,57.7z"/>
								</g>
								<g>
									<linearGradient id="SVGID_32_" gradientUnits="userSpaceOnUse" x1="94.7145" y1="40.6872" x2="94.7145" y2="57.7404">
										<stop  offset="0.1348" style="stop-color:#FFFFFF"/>
										<stop  offset="0.8113" style="stop-color:#FFFFFF;stop-opacity:0"/>
									</linearGradient>
									<path class="st45" d="M102.2,57.7H87.3c-0.8,0-1.4-0.6-1.4-1.4V42.1c0-0.8,0.6-1.4,1.4-1.4h14.9c0.8,0,1.4,0.6,1.4,1.4
										v14.3C103.6,57.1,102.9,57.7,102.2,57.7z"/>
								</g>
								<g>
									<linearGradient id="SVGID_33_" gradientUnits="userSpaceOnUse" x1="117.0123" y1="40.6872" x2="117.0123" y2="57.7404">
										<stop  offset="0.1348" style="stop-color:#FFFFFF"/>
										<stop  offset="0.8113" style="stop-color:#FFFFFF;stop-opacity:0"/>
									</linearGradient>
									<path class="st46" d="M124.5,57.7h-14.9c-0.8,0-1.4-0.6-1.4-1.4V42.1c0-0.8,0.6-1.4,1.4-1.4h14.9c0.8,0,1.4,0.6,1.4,1.4
										v14.3C125.9,57.1,125.2,57.7,124.5,57.7z"/>
								</g>
								<g>
									<linearGradient id="SVGID_34_" gradientUnits="userSpaceOnUse" x1="139.31" y1="40.6872" x2="139.31" y2="57.7404">
										<stop  offset="0.1348" style="stop-color:#FFFFFF"/>
										<stop  offset="0.8113" style="stop-color:#FFFFFF;stop-opacity:0"/>
									</linearGradient>
									<path class="st47" d="M146.8,57.7h-14.9c-0.8,0-1.4-0.6-1.4-1.4V42.1c0-0.8,0.6-1.4,1.4-1.4h14.9c0.8,0,1.4,0.6,1.4,1.4
										v14.3C148.2,57.1,147.5,57.7,146.8,57.7z"/>
								</g>
								<g>
									<linearGradient id="SVGID_35_" gradientUnits="userSpaceOnUse" x1="161.6077" y1="40.6872" x2="161.6077" y2="57.7404">
										<stop  offset="0.1348" style="stop-color:#FFFFFF"/>
										<stop  offset="0.8113" style="stop-color:#FFFFFF;stop-opacity:0"/>
									</linearGradient>
									<path class="st48" d="M169.1,57.7h-14.9c-0.8,0-1.4-0.6-1.4-1.4V42.1c0-0.8,0.6-1.4,1.4-1.4h14.9c0.8,0,1.4,0.6,1.4,1.4
										v14.3C170.4,57.1,169.8,57.7,169.1,57.7z"/>
								</g>
								<g>
									<linearGradient id="SVGID_36_" gradientUnits="userSpaceOnUse" x1="183.9055" y1="40.6872" x2="183.9055" y2="57.7404">
										<stop  offset="0.1348" style="stop-color:#FFFFFF"/>
										<stop  offset="0.8113" style="stop-color:#FFFFFF;stop-opacity:0"/>
									</linearGradient>
									<path class="st49" d="M191.4,57.7h-14.9c-0.8,0-1.4-0.6-1.4-1.4V42.1c0-0.8,0.6-1.4,1.4-1.4h14.9c0.8,0,1.4,0.6,1.4,1.4
										v14.3C192.7,57.1,192.1,57.7,191.4,57.7z"/>
								</g>
								<g>
									<linearGradient id="SVGID_37_" gradientUnits="userSpaceOnUse" x1="228.5009" y1="40.6872" x2="228.5009" y2="57.7404">
										<stop  offset="0.1348" style="stop-color:#FFFFFF"/>
										<stop  offset="0.8113" style="stop-color:#FFFFFF;stop-opacity:0"/>
									</linearGradient>
									<path class="st50" d="M235.9,57.7h-14.9c-0.8,0-1.4-0.6-1.4-1.4V42.1c0-0.8,0.6-1.4,1.4-1.4h14.9c0.8,0,1.4,0.6,1.4,1.4
										v14.3C237.3,57.1,236.7,57.7,235.9,57.7z"/>
								</g>
								<g>
									<linearGradient id="SVGID_38_" gradientUnits="userSpaceOnUse" x1="206.2032" y1="40.6872" x2="206.2032" y2="57.7404">
										<stop  offset="0.1348" style="stop-color:#FFFFFF"/>
										<stop  offset="0.8113" style="stop-color:#FFFFFF;stop-opacity:0"/>
									</linearGradient>
									<path class="st51" d="M213.6,57.7h-14.9c-0.8,0-1.4-0.6-1.4-1.4V42.1c0-0.8,0.6-1.4,1.4-1.4h14.9c0.8,0,1.4,0.6,1.4,1.4
										v14.3C215,57.1,214.4,57.7,213.6,57.7z"/>
								</g>
								<g>
									<linearGradient id="SVGID_39_" gradientUnits="userSpaceOnUse" x1="250.7986" y1="40.6872" x2="250.7986" y2="57.7404">
										<stop  offset="0.1348" style="stop-color:#FFFFFF"/>
										<stop  offset="0.8113" style="stop-color:#FFFFFF;stop-opacity:0"/>
									</linearGradient>
									<path class="st52" d="M258.2,57.7h-14.9c-0.8,0-1.4-0.6-1.4-1.4V42.1c0-0.8,0.6-1.4,1.4-1.4h14.9c0.8,0,1.4,0.6,1.4,1.4
										v14.3C259.6,57.1,259,57.7,258.2,57.7z"/>
								</g>
								<g>
									<linearGradient id="SVGID_40_" gradientUnits="userSpaceOnUse" x1="273.0964" y1="40.6872" x2="273.0964" y2="57.7404">
										<stop  offset="0.1348" style="stop-color:#FFFFFF"/>
										<stop  offset="0.8113" style="stop-color:#FFFFFF;stop-opacity:0"/>
									</linearGradient>
									<path class="st53" d="M280.5,57.7h-14.9c-0.8,0-1.4-0.6-1.4-1.4V42.1c0-0.8,0.6-1.4,1.4-1.4h14.9c0.8,0,1.4,0.6,1.4,1.4
										v14.3C281.9,57.1,281.3,57.7,280.5,57.7z"/>
								</g>
								<g>
									<linearGradient id="SVGID_41_" gradientUnits="userSpaceOnUse" x1="295.3941" y1="40.6872" x2="295.3941" y2="57.7404">
										<stop  offset="0.1348" style="stop-color:#FFFFFF"/>
										<stop  offset="0.8113" style="stop-color:#FFFFFF;stop-opacity:0"/>
									</linearGradient>
									<path class="st54" d="M302.8,57.7h-14.9c-0.8,0-1.4-0.6-1.4-1.4V42.1c0-0.8,0.6-1.4,1.4-1.4h14.9c0.8,0,1.4,0.6,1.4,1.4
										v14.3C304.2,57.1,303.6,57.7,302.8,57.7z"/>
								</g>
							</g>
							<g>
								<linearGradient id="SVGID_42_" gradientUnits="userSpaceOnUse" x1="94.7145" y1="61.7359" x2="94.7145" y2="78.789">
									<stop  offset="0.1348" style="stop-color:#FFFFFF"/>
									<stop  offset="0.8113" style="stop-color:#FFFFFF;stop-opacity:0"/>
								</linearGradient>
								<path class="st55" d="M102.2,78.8H87.3c-0.8,0-1.4-0.6-1.4-1.4V63.1c0-0.8,0.6-1.4,1.4-1.4h14.9c0.8,0,1.4,0.6,1.4,1.4v14.3
									C103.6,78.2,102.9,78.8,102.2,78.8z"/>
							</g>
							<g>
								<linearGradient id="SVGID_43_" gradientUnits="userSpaceOnUse" x1="117.0123" y1="61.7359" x2="117.0123" y2="78.789">
									<stop  offset="0.1348" style="stop-color:#FFFFFF"/>
									<stop  offset="0.8113" style="stop-color:#FFFFFF;stop-opacity:0"/>
								</linearGradient>
								<path class="st56" d="M124.5,78.8h-14.9c-0.8,0-1.4-0.6-1.4-1.4V63.1c0-0.8,0.6-1.4,1.4-1.4h14.9c0.8,0,1.4,0.6,1.4,1.4
									v14.3C125.9,78.2,125.2,78.8,124.5,78.8z"/>
							</g>
							<g>
								<linearGradient id="SVGID_44_" gradientUnits="userSpaceOnUse" x1="139.31" y1="61.7359" x2="139.31" y2="78.789">
									<stop  offset="0.1348" style="stop-color:#FFFFFF"/>
									<stop  offset="0.8113" style="stop-color:#FFFFFF;stop-opacity:0"/>
								</linearGradient>
								<path class="st57" d="M146.8,78.8h-14.9c-0.8,0-1.4-0.6-1.4-1.4V63.1c0-0.8,0.6-1.4,1.4-1.4h14.9c0.8,0,1.4,0.6,1.4,1.4
									v14.3C148.2,78.2,147.5,78.8,146.8,78.8z"/>
							</g>
							<g>
								<linearGradient id="SVGID_45_" gradientUnits="userSpaceOnUse" x1="161.6077" y1="61.7359" x2="161.6077" y2="78.789">
									<stop  offset="0.1348" style="stop-color:#FFFFFF"/>
									<stop  offset="0.8113" style="stop-color:#FFFFFF;stop-opacity:0"/>
								</linearGradient>
								<path class="st58" d="M169.1,78.8h-14.9c-0.8,0-1.4-0.6-1.4-1.4V63.1c0-0.8,0.6-1.4,1.4-1.4h14.9c0.8,0,1.4,0.6,1.4,1.4
									v14.3C170.4,78.2,169.8,78.8,169.1,78.8z"/>
							</g>
							<g>
								<linearGradient id="SVGID_46_" gradientUnits="userSpaceOnUse" x1="228.5009" y1="61.7359" x2="228.5009" y2="78.789">
									<stop  offset="0.1348" style="stop-color:#FFFFFF"/>
									<stop  offset="0.8113" style="stop-color:#FFFFFF;stop-opacity:0"/>
								</linearGradient>
								<path class="st59" d="M235.9,78.8h-14.9c-0.8,0-1.4-0.6-1.4-1.4V63.1c0-0.8,0.6-1.4,1.4-1.4h14.9c0.8,0,1.4,0.6,1.4,1.4
									v14.3C237.3,78.2,236.7,78.8,235.9,78.8z"/>
							</g>
							<g>
								<linearGradient id="SVGID_47_" gradientUnits="userSpaceOnUse" x1="206.2032" y1="61.7359" x2="206.2032" y2="78.789">
									<stop  offset="0.1348" style="stop-color:#FFFFFF"/>
									<stop  offset="0.8113" style="stop-color:#FFFFFF;stop-opacity:0"/>
								</linearGradient>
								<path class="st60" d="M213.6,78.8h-14.9c-0.8,0-1.4-0.6-1.4-1.4V63.1c0-0.8,0.6-1.4,1.4-1.4h14.9c0.8,0,1.4,0.6,1.4,1.4
									v14.3C215,78.2,214.4,78.8,213.6,78.8z"/>
							</g>
							<g>
								<linearGradient id="SVGID_48_" gradientUnits="userSpaceOnUse" x1="250.7986" y1="61.7359" x2="250.7986" y2="78.789">
									<stop  offset="0.1348" style="stop-color:#FFFFFF"/>
									<stop  offset="0.8113" style="stop-color:#FFFFFF;stop-opacity:0"/>
								</linearGradient>
								<path class="st61" d="M258.2,78.8h-14.9c-0.8,0-1.4-0.6-1.4-1.4V63.1c0-0.8,0.6-1.4,1.4-1.4h14.9c0.8,0,1.4,0.6,1.4,1.4
									v14.3C259.6,78.2,259,78.8,258.2,78.8z"/>
							</g>
							<g>
								<linearGradient id="SVGID_49_" gradientUnits="userSpaceOnUse" x1="273.0964" y1="61.7359" x2="273.0964" y2="78.789">
									<stop  offset="0.1348" style="stop-color:#FFFFFF"/>
									<stop  offset="0.8113" style="stop-color:#FFFFFF;stop-opacity:0"/>
								</linearGradient>
								<path class="st62" d="M280.5,78.8h-14.9c-0.8,0-1.4-0.6-1.4-1.4V63.1c0-0.8,0.6-1.4,1.4-1.4h14.9c0.8,0,1.4,0.6,1.4,1.4
									v14.3C281.9,78.2,281.3,78.8,280.5,78.8z"/>
							</g>
							<g>
								<linearGradient id="SVGID_50_" gradientUnits="userSpaceOnUse" x1="295.3941" y1="61.7359" x2="295.3941" y2="78.789">
									<stop  offset="0.1348" style="stop-color:#FFFFFF"/>
									<stop  offset="0.8113" style="stop-color:#FFFFFF;stop-opacity:0"/>
								</linearGradient>
								<path class="st63" d="M302.8,78.8h-14.9c-0.8,0-1.4-0.6-1.4-1.4V63.1c0-0.8,0.6-1.4,1.4-1.4h14.9c0.8,0,1.4,0.6,1.4,1.4
									v14.3C304.2,78.2,303.6,78.8,302.8,78.8z"/>
							</g>
							<g>
								<linearGradient id="SVGID_51_" gradientUnits="userSpaceOnUse" x1="94.7145" y1="82.7846" x2="94.7145" y2="99.8377">
									<stop  offset="0.1348" style="stop-color:#FFFFFF"/>
									<stop  offset="0.8113" style="stop-color:#FFFFFF;stop-opacity:0"/>
								</linearGradient>
								<path class="st64" d="M102.2,99.8H87.3c-0.8,0-1.4-0.6-1.4-1.4V84.2c0-0.8,0.6-1.4,1.4-1.4h14.9c0.8,0,1.4,0.6,1.4,1.4v14.3
									C103.6,99.2,102.9,99.8,102.2,99.8z"/>
							</g>
							<g>
								<linearGradient id="SVGID_52_" gradientUnits="userSpaceOnUse" x1="117.0123" y1="82.7846" x2="117.0123" y2="99.8377">
									<stop  offset="0.1348" style="stop-color:#FFFFFF"/>
									<stop  offset="0.8113" style="stop-color:#FFFFFF;stop-opacity:0"/>
								</linearGradient>
								<path class="st65" d="M124.5,99.8h-14.9c-0.8,0-1.4-0.6-1.4-1.4V84.2c0-0.8,0.6-1.4,1.4-1.4h14.9c0.8,0,1.4,0.6,1.4,1.4
									v14.3C125.9,99.2,125.2,99.8,124.5,99.8z"/>
							</g>
							<g>
								<linearGradient id="SVGID_53_" gradientUnits="userSpaceOnUse" x1="228.5009" y1="82.7846" x2="228.5009" y2="99.8377">
									<stop  offset="0.1348" style="stop-color:#FFFFFF"/>
									<stop  offset="0.8113" style="stop-color:#FFFFFF;stop-opacity:0"/>
								</linearGradient>
								<path class="st66" d="M235.9,99.8h-14.9c-0.8,0-1.4-0.6-1.4-1.4V84.2c0-0.8,0.6-1.4,1.4-1.4h14.9c0.8,0,1.4,0.6,1.4,1.4
									v14.3C237.3,99.2,236.7,99.8,235.9,99.8z"/>
							</g>
							<g>
								<linearGradient id="SVGID_54_" gradientUnits="userSpaceOnUse" x1="250.7986" y1="82.7846" x2="250.7986" y2="99.8377">
									<stop  offset="0.1348" style="stop-color:#FFFFFF"/>
									<stop  offset="0.8113" style="stop-color:#FFFFFF;stop-opacity:0"/>
								</linearGradient>
								<path class="st67" d="M258.2,99.8h-14.9c-0.8,0-1.4-0.6-1.4-1.4V84.2c0-0.8,0.6-1.4,1.4-1.4h14.9c0.8,0,1.4,0.6,1.4,1.4
									v14.3C259.6,99.2,259,99.8,258.2,99.8z"/>
							</g>
							<g>
								<linearGradient id="SVGID_55_" gradientUnits="userSpaceOnUse" x1="273.0964" y1="82.7846" x2="273.0964" y2="99.8377">
									<stop  offset="0.1348" style="stop-color:#FFFFFF"/>
									<stop  offset="0.8113" style="stop-color:#FFFFFF;stop-opacity:0"/>
								</linearGradient>
								<path class="st68" d="M280.5,99.8h-14.9c-0.8,0-1.4-0.6-1.4-1.4V84.2c0-0.8,0.6-1.4,1.4-1.4h14.9c0.8,0,1.4,0.6,1.4,1.4
									v14.3C281.9,99.2,281.3,99.8,280.5,99.8z"/>
							</g>
							<g>
								<linearGradient id="SVGID_56_" gradientUnits="userSpaceOnUse" x1="94.7145" y1="103.8332" x2="94.7145" y2="120.8864">
									<stop  offset="0.1348" style="stop-color:#FFFFFF"/>
									<stop  offset="0.8113" style="stop-color:#FFFFFF;stop-opacity:0"/>
								</linearGradient>
								<path class="st69" d="M102.2,120.9H87.3c-0.8,0-1.4-0.6-1.4-1.4v-14.3c0-0.8,0.6-1.4,1.4-1.4h14.9c0.8,0,1.4,0.6,1.4,1.4
									v14.3C103.6,120.3,102.9,120.9,102.2,120.9z"/>
							</g>
							<g>
								<linearGradient id="SVGID_57_" gradientUnits="userSpaceOnUse" x1="139.31" y1="103.8332" x2="139.31" y2="120.8864">
									<stop  offset="0.1348" style="stop-color:#FFFFFF"/>
									<stop  offset="0.8113" style="stop-color:#FFFFFF;stop-opacity:0"/>
								</linearGradient>
								<path class="st70" d="M146.8,120.9h-14.9c-0.8,0-1.4-0.6-1.4-1.4v-14.3c0-0.8,0.6-1.4,1.4-1.4h14.9c0.8,0,1.4,0.6,1.4,1.4
									v14.3C148.2,120.3,147.5,120.9,146.8,120.9z"/>
							</g>
							<g>
								<linearGradient id="SVGID_58_" gradientUnits="userSpaceOnUse" x1="161.6077" y1="103.8332" x2="161.6077" y2="120.8864">
									<stop  offset="0.1348" style="stop-color:#FFFFFF"/>
									<stop  offset="0.8113" style="stop-color:#FFFFFF;stop-opacity:0"/>
								</linearGradient>
								<path class="st71" d="M169.1,120.9h-14.9c-0.8,0-1.4-0.6-1.4-1.4v-14.3c0-0.8,0.6-1.4,1.4-1.4h14.9c0.8,0,1.4,0.6,1.4,1.4
									v14.3C170.4,120.3,169.8,120.9,169.1,120.9z"/>
							</g>
							<g>
								<linearGradient id="SVGID_59_" gradientUnits="userSpaceOnUse" x1="228.5009" y1="103.8332" x2="228.5009" y2="120.8864">
									<stop  offset="0.1348" style="stop-color:#FFFFFF"/>
									<stop  offset="0.8113" style="stop-color:#FFFFFF;stop-opacity:0"/>
								</linearGradient>
								<path class="st72" d="M235.9,120.9h-14.9c-0.8,0-1.4-0.6-1.4-1.4v-14.3c0-0.8,0.6-1.4,1.4-1.4h14.9c0.8,0,1.4,0.6,1.4,1.4
									v14.3C237.3,120.3,236.7,120.9,235.9,120.9z"/>
							</g>
							<g>
								<linearGradient id="SVGID_60_" gradientUnits="userSpaceOnUse" x1="206.2032" y1="103.8332" x2="206.2032" y2="120.8864">
									<stop  offset="0.1348" style="stop-color:#FFFFFF"/>
									<stop  offset="0.8113" style="stop-color:#FFFFFF;stop-opacity:0"/>
								</linearGradient>
								<path class="st73" d="M213.6,120.9h-14.9c-0.8,0-1.4-0.6-1.4-1.4v-14.3c0-0.8,0.6-1.4,1.4-1.4h14.9c0.8,0,1.4,0.6,1.4,1.4
									v14.3C215,120.3,214.4,120.9,213.6,120.9z"/>
							</g>
							<g>
								<linearGradient id="SVGID_61_" gradientUnits="userSpaceOnUse" x1="250.7986" y1="103.8332" x2="250.7986" y2="120.8864">
									<stop  offset="0.1348" style="stop-color:#FFFFFF"/>
									<stop  offset="0.8113" style="stop-color:#FFFFFF;stop-opacity:0"/>
								</linearGradient>
								<path class="st74" d="M258.2,120.9h-14.9c-0.8,0-1.4-0.6-1.4-1.4v-14.3c0-0.8,0.6-1.4,1.4-1.4h14.9c0.8,0,1.4,0.6,1.4,1.4
									v14.3C259.6,120.3,259,120.9,258.2,120.9z"/>
							</g>
							<g>
								<linearGradient id="SVGID_62_" gradientUnits="userSpaceOnUse" x1="273.0964" y1="103.8332" x2="273.0964" y2="120.8864">
									<stop  offset="0.1348" style="stop-color:#FFFFFF"/>
									<stop  offset="0.8113" style="stop-color:#FFFFFF;stop-opacity:0"/>
								</linearGradient>
								<path class="st75" d="M280.5,120.9h-14.9c-0.8,0-1.4-0.6-1.4-1.4v-14.3c0-0.8,0.6-1.4,1.4-1.4h14.9c0.8,0,1.4,0.6,1.4,1.4
									v14.3C281.9,120.3,281.3,120.9,280.5,120.9z"/>
							</g>
							<g>
								<linearGradient id="SVGID_63_" gradientUnits="userSpaceOnUse" x1="295.3941" y1="103.8332" x2="295.3941" y2="120.8864">
									<stop  offset="0.1348" style="stop-color:#FFFFFF"/>
									<stop  offset="0.8113" style="stop-color:#FFFFFF;stop-opacity:0"/>
								</linearGradient>
								<path class="st76" d="M302.8,120.9h-14.9c-0.8,0-1.4-0.6-1.4-1.4v-14.3c0-0.8,0.6-1.4,1.4-1.4h14.9c0.8,0,1.4,0.6,1.4,1.4
									v14.3C304.2,120.3,303.6,120.9,302.8,120.9z"/>
							</g>
							<g>
								<linearGradient id="SVGID_64_" gradientUnits="userSpaceOnUse" x1="72.4168" y1="124.8819" x2="72.4168" y2="141.9351">
									<stop  offset="0.1348" style="stop-color:#FFFFFF"/>
									<stop  offset="0.8113" style="stop-color:#FFFFFF;stop-opacity:0"/>
								</linearGradient>
								<path class="st77" d="M79.9,141.9H65c-0.8,0-1.4-0.6-1.4-1.4v-14.3c0-0.8,0.6-1.4,1.4-1.4h14.9c0.8,0,1.4,0.6,1.4,1.4v14.3
									C81.3,141.3,80.6,141.9,79.9,141.9z"/>
							</g>
							<g>
								<linearGradient id="SVGID_65_" gradientUnits="userSpaceOnUse" x1="117.0123" y1="124.8819" x2="117.0123" y2="141.9351">
									<stop  offset="0.1348" style="stop-color:#FFFFFF"/>
									<stop  offset="0.8113" style="stop-color:#FFFFFF;stop-opacity:0"/>
								</linearGradient>
								<path class="st78" d="M124.5,141.9h-14.9c-0.8,0-1.4-0.6-1.4-1.4v-14.3c0-0.8,0.6-1.4,1.4-1.4h14.9c0.8,0,1.4,0.6,1.4,1.4
									v14.3C125.9,141.3,125.2,141.9,124.5,141.9z"/>
							</g>
							<g>
								<linearGradient id="SVGID_66_" gradientUnits="userSpaceOnUse" x1="139.31" y1="124.8819" x2="139.31" y2="141.9351">
									<stop  offset="0.1348" style="stop-color:#FFFFFF"/>
									<stop  offset="0.8113" style="stop-color:#FFFFFF;stop-opacity:0"/>
								</linearGradient>
								<path class="st79" d="M146.8,141.9h-14.9c-0.8,0-1.4-0.6-1.4-1.4v-14.3c0-0.8,0.6-1.4,1.4-1.4h14.9c0.8,0,1.4,0.6,1.4,1.4
									v14.3C148.2,141.3,147.5,141.9,146.8,141.9z"/>
							</g>
							<g>
								<linearGradient id="SVGID_67_" gradientUnits="userSpaceOnUse" x1="161.6077" y1="124.8819" x2="161.6077" y2="141.9351">
									<stop  offset="0.1348" style="stop-color:#FFFFFF"/>
									<stop  offset="0.8113" style="stop-color:#FFFFFF;stop-opacity:0"/>
								</linearGradient>
								<path class="st80" d="M169.1,141.9h-14.9c-0.8,0-1.4-0.6-1.4-1.4v-14.3c0-0.8,0.6-1.4,1.4-1.4h14.9c0.8,0,1.4,0.6,1.4,1.4
									v14.3C170.4,141.3,169.8,141.9,169.1,141.9z"/>
							</g>
							<g>
								<linearGradient id="SVGID_68_" gradientUnits="userSpaceOnUse" x1="183.9055" y1="124.8819" x2="183.9055" y2="141.9351">
									<stop  offset="0.1348" style="stop-color:#FFFFFF"/>
									<stop  offset="0.8113" style="stop-color:#FFFFFF;stop-opacity:0"/>
								</linearGradient>
								<path class="st81" d="M191.4,141.9h-14.9c-0.8,0-1.4-0.6-1.4-1.4v-14.3c0-0.8,0.6-1.4,1.4-1.4h14.9c0.8,0,1.4,0.6,1.4,1.4
									v14.3C192.7,141.3,192.1,141.9,191.4,141.9z"/>
							</g>
							<g>
								<linearGradient id="SVGID_69_" gradientUnits="userSpaceOnUse" x1="228.5009" y1="124.8819" x2="228.5009" y2="141.9351">
									<stop  offset="0.1348" style="stop-color:#FFFFFF"/>
									<stop  offset="0.8113" style="stop-color:#FFFFFF;stop-opacity:0"/>
								</linearGradient>
								<path class="st82" d="M235.9,141.9h-14.9c-0.8,0-1.4-0.6-1.4-1.4v-14.3c0-0.8,0.6-1.4,1.4-1.4h14.9c0.8,0,1.4,0.6,1.4,1.4
									v14.3C237.3,141.3,236.7,141.9,235.9,141.9z"/>
							</g>
							<g>
								<linearGradient id="SVGID_70_" gradientUnits="userSpaceOnUse" x1="206.2032" y1="124.8819" x2="206.2032" y2="141.9351">
									<stop  offset="0.1348" style="stop-color:#FFFFFF"/>
									<stop  offset="0.8113" style="stop-color:#FFFFFF;stop-opacity:0"/>
								</linearGradient>
								<path class="st83" d="M213.6,141.9h-14.9c-0.8,0-1.4-0.6-1.4-1.4v-14.3c0-0.8,0.6-1.4,1.4-1.4h14.9c0.8,0,1.4,0.6,1.4,1.4
									v14.3C215,141.3,214.4,141.9,213.6,141.9z"/>
							</g>
							<g>
								<linearGradient id="SVGID_71_" gradientUnits="userSpaceOnUse" x1="250.7986" y1="124.8819" x2="250.7986" y2="141.9351">
									<stop  offset="0.1348" style="stop-color:#FFFFFF"/>
									<stop  offset="0.8113" style="stop-color:#FFFFFF;stop-opacity:0"/>
								</linearGradient>
								<path class="st84" d="M258.2,141.9h-14.9c-0.8,0-1.4-0.6-1.4-1.4v-14.3c0-0.8,0.6-1.4,1.4-1.4h14.9c0.8,0,1.4,0.6,1.4,1.4
									v14.3C259.6,141.3,259,141.9,258.2,141.9z"/>
							</g>
							<g>
								<linearGradient id="SVGID_72_" gradientUnits="userSpaceOnUse" x1="273.0964" y1="124.8819" x2="273.0964" y2="141.9351">
									<stop  offset="0.1348" style="stop-color:#FFFFFF"/>
									<stop  offset="0.8113" style="stop-color:#FFFFFF;stop-opacity:0"/>
								</linearGradient>
								<path class="st85" d="M280.5,141.9h-14.9c-0.8,0-1.4-0.6-1.4-1.4v-14.3c0-0.8,0.6-1.4,1.4-1.4h14.9c0.8,0,1.4,0.6,1.4,1.4
									v14.3C281.9,141.3,281.3,141.9,280.5,141.9z"/>
							</g>
							<g>
								<linearGradient id="SVGID_73_" gradientUnits="userSpaceOnUse" x1="295.3941" y1="124.8819" x2="295.3941" y2="141.9351">
									<stop  offset="0.1348" style="stop-color:#FFFFFF"/>
									<stop  offset="0.8113" style="stop-color:#FFFFFF;stop-opacity:0"/>
								</linearGradient>
								<path class="st86" d="M302.8,141.9h-14.9c-0.8,0-1.4-0.6-1.4-1.4v-14.3c0-0.8,0.6-1.4,1.4-1.4h14.9c0.8,0,1.4,0.6,1.4,1.4
									v14.3C304.2,141.3,303.6,141.9,302.8,141.9z"/>
							</g>
							<g>
								<linearGradient id="SVGID_74_" gradientUnits="userSpaceOnUse" x1="317.6918" y1="124.8819" x2="317.6918" y2="141.9351">
									<stop  offset="0.1348" style="stop-color:#FFFFFF"/>
									<stop  offset="0.8113" style="stop-color:#FFFFFF;stop-opacity:0"/>
								</linearGradient>
								<path class="st87" d="M325.1,141.9h-14.9c-0.8,0-1.4-0.6-1.4-1.4v-14.3c0-0.8,0.6-1.4,1.4-1.4h14.9c0.8,0,1.4,0.6,1.4,1.4
									v14.3C326.5,141.3,325.9,141.9,325.1,141.9z"/>
							</g>
							<g>
								<linearGradient id="SVGID_75_" gradientUnits="userSpaceOnUse" x1="117.0123" y1="145.9306" x2="117.0123" y2="162.9837">
									<stop  offset="0.1348" style="stop-color:#FFFFFF"/>
									<stop  offset="0.8113" style="stop-color:#FFFFFF;stop-opacity:0"/>
								</linearGradient>
								<path class="st88" d="M124.5,163h-14.9c-0.8,0-1.4-0.6-1.4-1.4v-14.3c0-0.8,0.6-1.4,1.4-1.4h14.9c0.8,0,1.4,0.6,1.4,1.4
									v14.3C125.9,162.4,125.2,163,124.5,163z"/>
							</g>
							<g>
								<linearGradient id="SVGID_76_" gradientUnits="userSpaceOnUse" x1="139.31" y1="145.9306" x2="139.31" y2="162.9837">
									<stop  offset="0.1348" style="stop-color:#FFFFFF"/>
									<stop  offset="0.8113" style="stop-color:#FFFFFF;stop-opacity:0"/>
								</linearGradient>
								<path class="st89" d="M146.8,163h-14.9c-0.8,0-1.4-0.6-1.4-1.4v-14.3c0-0.8,0.6-1.4,1.4-1.4h14.9c0.8,0,1.4,0.6,1.4,1.4
									v14.3C148.2,162.4,147.5,163,146.8,163z"/>
							</g>
							<g>
								<linearGradient id="SVGID_77_" gradientUnits="userSpaceOnUse" x1="161.6077" y1="145.9306" x2="161.6077" y2="162.9837">
									<stop  offset="0.1348" style="stop-color:#FFFFFF"/>
									<stop  offset="0.8113" style="stop-color:#FFFFFF;stop-opacity:0"/>
								</linearGradient>
								<path class="st90" d="M169.1,163h-14.9c-0.8,0-1.4-0.6-1.4-1.4v-14.3c0-0.8,0.6-1.4,1.4-1.4h14.9c0.8,0,1.4,0.6,1.4,1.4
									v14.3C170.4,162.4,169.8,163,169.1,163z"/>
							</g>
							<g>
								<linearGradient id="SVGID_78_" gradientUnits="userSpaceOnUse" x1="183.9055" y1="145.9306" x2="183.9055" y2="162.9837">
									<stop  offset="0.1348" style="stop-color:#FFFFFF"/>
									<stop  offset="0.8113" style="stop-color:#FFFFFF;stop-opacity:0"/>
								</linearGradient>
								<path class="st91" d="M191.4,163h-14.9c-0.8,0-1.4-0.6-1.4-1.4v-14.3c0-0.8,0.6-1.4,1.4-1.4h14.9c0.8,0,1.4,0.6,1.4,1.4
									v14.3C192.7,162.4,192.1,163,191.4,163z"/>
							</g>
							<g>
								<linearGradient id="SVGID_79_" gradientUnits="userSpaceOnUse" x1="228.5009" y1="145.9306" x2="228.5009" y2="162.9837">
									<stop  offset="0.1348" style="stop-color:#FFFFFF"/>
									<stop  offset="0.8113" style="stop-color:#FFFFFF;stop-opacity:0"/>
								</linearGradient>
								<path class="st92" d="M235.9,163h-14.9c-0.8,0-1.4-0.6-1.4-1.4v-14.3c0-0.8,0.6-1.4,1.4-1.4h14.9c0.8,0,1.4,0.6,1.4,1.4
									v14.3C237.3,162.4,236.7,163,235.9,163z"/>
							</g>
							<g>
								<linearGradient id="SVGID_80_" gradientUnits="userSpaceOnUse" x1="206.2032" y1="145.9306" x2="206.2032" y2="162.9837">
									<stop  offset="0.1348" style="stop-color:#FFFFFF"/>
									<stop  offset="0.8113" style="stop-color:#FFFFFF;stop-opacity:0"/>
								</linearGradient>
								<path class="st93" d="M213.6,163h-14.9c-0.8,0-1.4-0.6-1.4-1.4v-14.3c0-0.8,0.6-1.4,1.4-1.4h14.9c0.8,0,1.4,0.6,1.4,1.4
									v14.3C215,162.4,214.4,163,213.6,163z"/>
							</g>
							<g>
								<linearGradient id="SVGID_81_" gradientUnits="userSpaceOnUse" x1="250.7986" y1="145.9306" x2="250.7986" y2="162.9837">
									<stop  offset="0.1348" style="stop-color:#FFFFFF"/>
									<stop  offset="0.8113" style="stop-color:#FFFFFF;stop-opacity:0"/>
								</linearGradient>
								<path class="st94" d="M258.2,163h-14.9c-0.8,0-1.4-0.6-1.4-1.4v-14.3c0-0.8,0.6-1.4,1.4-1.4h14.9c0.8,0,1.4,0.6,1.4,1.4
									v14.3C259.6,162.4,259,163,258.2,163z"/>
							</g>
							<g>
								<linearGradient id="SVGID_82_" gradientUnits="userSpaceOnUse" x1="273.0964" y1="145.9306" x2="273.0964" y2="162.9837">
									<stop  offset="0.1348" style="stop-color:#FFFFFF"/>
									<stop  offset="0.8113" style="stop-color:#FFFFFF;stop-opacity:0"/>
								</linearGradient>
								<path class="st95" d="M280.5,163h-14.9c-0.8,0-1.4-0.6-1.4-1.4v-14.3c0-0.8,0.6-1.4,1.4-1.4h14.9c0.8,0,1.4,0.6,1.4,1.4
									v14.3C281.9,162.4,281.3,163,280.5,163z"/>
							</g>
							<g>
								<linearGradient id="SVGID_83_" gradientUnits="userSpaceOnUse" x1="295.3941" y1="145.9306" x2="295.3941" y2="162.9837">
									<stop  offset="0.1348" style="stop-color:#FFFFFF"/>
									<stop  offset="0.8113" style="stop-color:#FFFFFF;stop-opacity:0"/>
								</linearGradient>
								<path class="st96" d="M302.8,163h-14.9c-0.8,0-1.4-0.6-1.4-1.4v-14.3c0-0.8,0.6-1.4,1.4-1.4h14.9c0.8,0,1.4,0.6,1.4,1.4
									v14.3C304.2,162.4,303.6,163,302.8,163z"/>
							</g>
							<g>
								<linearGradient id="SVGID_84_" gradientUnits="userSpaceOnUse" x1="183.9055" y1="166.9793" x2="183.9055" y2="184.0324">
									<stop  offset="0.1348" style="stop-color:#FFFFFF"/>
									<stop  offset="0.8113" style="stop-color:#FFFFFF;stop-opacity:0"/>
								</linearGradient>
								<path class="st97" d="M191.4,184h-14.9c-0.8,0-1.4-0.6-1.4-1.4v-14.3c0-0.8,0.6-1.4,1.4-1.4h14.9c0.8,0,1.4,0.6,1.4,1.4
									v14.3C192.7,183.4,192.1,184,191.4,184z"/>
							</g>
							<g>
								<linearGradient id="SVGID_85_" gradientUnits="userSpaceOnUse" x1="206.2032" y1="166.9793" x2="206.2032" y2="184.0324">
									<stop  offset="0.1348" style="stop-color:#FFFFFF"/>
									<stop  offset="0.8113" style="stop-color:#FFFFFF;stop-opacity:0"/>
								</linearGradient>
								<path class="st98" d="M213.6,184h-14.9c-0.8,0-1.4-0.6-1.4-1.4v-14.3c0-0.8,0.6-1.4,1.4-1.4h14.9c0.8,0,1.4,0.6,1.4,1.4
									v14.3C215,183.4,214.4,184,213.6,184z"/>
							</g>
							<g>
								<linearGradient id="SVGID_86_" gradientUnits="userSpaceOnUse" x1="273.0964" y1="166.9793" x2="273.0964" y2="184.0324">
									<stop  offset="0.1348" style="stop-color:#FFFFFF"/>
									<stop  offset="0.8113" style="stop-color:#FFFFFF;stop-opacity:0"/>
								</linearGradient>
								<path class="st99" d="M280.5,184h-14.9c-0.8,0-1.4-0.6-1.4-1.4v-14.3c0-0.8,0.6-1.4,1.4-1.4h14.9c0.8,0,1.4,0.6,1.4,1.4
									v14.3C281.9,183.4,281.3,184,280.5,184z"/>
							</g>
						</g>
					</g>
				</g>
				<path class="st100" d="M203.8,229c-0.5-0.4-1-0.8-1.6-1c-0.6-0.2-1.2-0.4-1.9-0.4c-0.7,0-1.4,0.1-2,0.4
					c-0.6,0.3-1.1,0.6-1.6,1.1c-0.4,0.5-0.8,1-1,1.6c-0.3,0.6-0.4,1.3-0.4,2l0,7c0,0.4,0.1,0.7,0.4,0.9c0.3,0.2,0.6,0.4,0.9,0.4
					c0.4,0,0.7-0.1,0.9-0.4c0.3-0.3,0.4-0.6,0.4-1l0-7c0-0.3,0.1-0.6,0.2-0.9c0.1-0.3,0.3-0.5,0.5-0.7c0.2-0.2,0.4-0.3,0.7-0.5
					c0.3-0.1,0.6-0.2,0.9-0.2c0.3,0,0.6,0.1,0.9,0.2c0.3,0.1,0.5,0.3,0.7,0.5c0.2,0.2,0.4,0.5,0.5,0.8c0.1,0.3,0.2,0.6,0.2,0.9l0,7
					c0,0.4,0.1,0.7,0.4,0.9c0.3,0.2,0.6,0.4,0.9,0.4c0.4,0,0.7-0.2,0.9-0.4c0.3-0.3,0.4-0.6,0.4-0.9l0-7.1c0-0.7-0.1-1.4-0.4-2
					C204.6,230,204.2,229.5,203.8,229"/>
				<path class="st100" d="M182.9,229c0-0.4-0.1-0.7-0.4-1c-0.3-0.3-0.6-0.4-1-0.4c-0.4,0-0.7,0.1-1,0.4l-4.8,4.3l0-3.3
					c0-0.4-0.1-0.7-0.4-1c-0.3-0.3-0.6-0.4-1-0.4c-0.4,0-0.7,0.1-1,0.4c-0.3,0.3-0.4,0.6-0.4,1l0,10.6c0,0.4,0.1,0.7,0.4,1
					c0.3,0.3,0.6,0.4,1,0.4c0.4,0,0.7-0.1,1-0.4c0.3-0.3,0.4-0.6,0.4-1l0-3.3l4.8,4.4c0.3,0.3,0.6,0.4,1,0.4c0.4,0,0.7-0.1,1-0.4
					c0.3-0.3,0.4-0.6,0.4-1c0-0.4-0.1-0.7-0.4-1l-4.8-4.3l4.8-4.3C182.7,229.7,182.9,229.4,182.9,229"/>
				<path class="st100" d="M192.6,229c-0.4-0.4-1-0.8-1.6-1c-0.6-0.3-1.2-0.4-1.9-0.4c-0.7,0-1.4,0.1-2,0.4
					c-0.6,0.3-1.1,0.6-1.6,1.1c-0.4,0.5-0.8,1-1,1.6c-0.3,0.6-0.4,1.3-0.4,2l0,7c0,0.4,0.1,0.7,0.4,0.9c0.3,0.3,0.6,0.4,0.9,0.4
					c0.4,0,0.7-0.1,0.9-0.4c0.3-0.3,0.4-0.6,0.4-1l0-2.4l4.6,0l0,2.5c0,0.4,0.1,0.7,0.4,0.9c0.3,0.2,0.6,0.4,1,0.4
					c0.4,0,0.7-0.2,0.9-0.4c0.2-0.3,0.4-0.6,0.4-1l0-7.1c0-0.7-0.1-1.4-0.4-2C193.4,230,193,229.5,192.6,229 M191.4,234.5l-4.6,0
					l0-1.9c0-0.3,0.1-0.6,0.2-0.9c0.1-0.3,0.3-0.5,0.5-0.7c0.2-0.2,0.4-0.4,0.7-0.5c0.3-0.1,0.6-0.2,0.9-0.2c0.3,0,0.6,0.1,0.9,0.2
					c0.3,0.1,0.5,0.3,0.7,0.5c0.2,0.2,0.4,0.5,0.5,0.7c0.1,0.3,0.2,0.6,0.2,0.9L191.4,234.5z"/>
				<path class="st100" d="M215.9,230.6c-0.3-0.6-0.6-1.1-1.1-1.6c-0.4-0.4-1-0.8-1.6-1c-0.6-0.3-1.2-0.4-1.9-0.4
					c-0.7,0-1.4,0.1-2,0.4c-0.6,0.3-1.1,0.6-1.6,1.1c-0.4,0.5-0.8,1-1,1.6c-0.3,0.6-0.4,1.3-0.4,2l0,3.4c0,0.7,0.1,1.4,0.4,2
					c0.3,0.6,0.6,1.1,1.1,1.6c0.5,0.4,1,0.8,1.6,1c0.6,0.2,1.2,0.4,1.9,0.4c0.7,0,1.4-0.1,2-0.4c0.6-0.3,1.1-0.6,1.6-1.1
					c0.4-0.5,0.8-1,1-1.6c0.3-0.6,0.4-1.3,0.4-2l0-3.4C216.4,231.8,216.2,231.2,215.9,230.6 M213.7,236.1c0,0.3-0.1,0.6-0.2,0.9
					c-0.1,0.3-0.3,0.5-0.5,0.7c-0.2,0.2-0.4,0.4-0.7,0.5c-0.3,0.1-0.6,0.2-0.9,0.2c-0.3,0-0.7-0.1-0.9-0.2c-0.3-0.1-0.5-0.3-0.7-0.5
					c-0.2-0.2-0.4-0.5-0.5-0.7c-0.1-0.3-0.2-0.6-0.2-0.9l0-3.4c0-0.3,0.1-0.6,0.2-0.9c0.1-0.3,0.3-0.5,0.5-0.7
					c0.2-0.2,0.4-0.4,0.7-0.5c0.3-0.1,0.6-0.2,0.9-0.2c0.3,0,0.6,0.1,0.9,0.2c0.3,0.1,0.5,0.3,0.7,0.5c0.2,0.2,0.4,0.5,0.5,0.7
					c0.1,0.3,0.2,0.6,0.2,0.9L213.7,236.1z"/>
				<g>
					<g>
						<circle class="st101" cx="357.6" cy="234.3" r="14.6"/>
						<path class="st102" d="M357.6,243.4c-5,0-9-4.1-9-9c0-5,4.1-9,9-9c5,0,9,4.1,9,9C366.6,239.3,362.5,243.4,357.6,243.4z"/>
					</g>
					<g>
						<circle class="st101" cx="319.3" cy="234.3" r="14.6"/>
						<path class="st102" d="M319.3,243.4c-5,0-9-4.1-9-9c0-5,4.1-9,9-9c5,0,9,4.1,9,9C328.4,239.3,324.3,243.4,319.3,243.4z"/>
					</g>
					<g>
						<circle class="st103" cx="31.6" cy="234.3" r="14.6"/>
						<path class="st104" d="M31.6,243.4c-5,0-9-4.1-9-9c0-5,4.1-9,9-9s9,4.1,9,9C40.6,239.3,36.6,243.4,31.6,243.4z"/>
					</g>
				</g>
				<g>
					<path class="st105" d="M108.8,22.6H31c-1.7,0-3-1.4-3-3V3c0-1.7,1.4-3,3-3h77.8c1.7,0,3,1.4,3,3v16.5
						C111.8,21.2,110.5,22.6,108.8,22.6z"/>
					<g>
						<defs>
							<path id="SVGID_87_" d="M28,9.8V3c0-1.7,1.4-3,3-3h77.8c1.7,0,3,1.4,3,3v6.8H28z"/>
						</defs>
						<clipPath id="SVGID_88_">
							<use xlink:href="#SVGID_87_"  style="overflow:visible;"/>
						</clipPath>
						<rect x="19.6" y="-4.1" class="st106" width="100.5" height="9.4"/>
					</g>
				</g>
			</g>
			<g>
				<g>
					<g>
						<defs>
							<path id="SVGID_89_" d="M28,9.8V3c0-1.7,1.4-3,3-3h77.8c1.7,0,3,1.4,3,3v6.8H28z"/>
						</defs>
						<clipPath id="SVGID_90_">
							<use xlink:href="#SVGID_89_"  style="overflow:visible;"/>
						</clipPath>
					</g>
				</g>
			</g>
		</g>
	</g>
	<linearGradient id="SVGID_91_" gradientUnits="userSpaceOnUse" x1="255.3486" y1="-22.582" x2="132.7876" y2="314.1517">
		<stop  offset="0.1348" style="stop-color:#FFFFFF"/>
		<stop  offset="0.8113" style="stop-color:#FFFFFF;stop-opacity:0"/>
	</linearGradient>
	<path class="st107" d="M377.4,22.6H11.2C5,22.6,0,27.6,0,33.8V258c0,6.2,5,11.2,11.2,11.2h364.4c7.2,0,13-5.8,13-13V33.8
		C388.6,27.6,383.6,22.6,377.4,22.6z"/>
</g>
</svg>
