<svg xmlns="http://www.w3.org/2000/svg" viewBox="0 0 398.42 282.72"><defs><style>.cls-1,.cls-3,.cls-5{fill:none;stroke-miterlimit:10;}.cls-1,.cls-5{stroke:#414a51;}.cls-1{stroke-width:3px;}.cls-2{fill:#7a7a7a;}.cls-3{stroke:#6b6b6b;stroke-width:1.72px;}.cls-4{fill:#f64646;}</style></defs><title>Asset 23</title><g id="Layer_2" data-name="Layer 2"><g id="Layer_5" data-name="Layer 5"><rect class="cls-1" x="1.5" y="23.58" width="395.42" height="257.64" rx="6.04" ry="6.04"/><circle class="cls-2" cx="32.44" cy="246.73" r="14.68"/><circle class="cls-3" cx="32.44" cy="246.73" r="10.12"/><circle class="cls-3" cx="32.44" cy="246.73" r="4.12"/><circle class="cls-4" cx="323.54" cy="246.98" r="14.68"/><circle class="cls-4" cx="366.04" cy="246.98" r="14.68"/><path class="cls-1" d="M112.67,22.8V4.21A2.71,2.71,0,0,0,110,1.5H35.31A2.71,2.71,0,0,0,32.6,4.21V22.8"/><line class="cls-5" x1="37.84" y1="2.2" x2="37.84" y2="22.03"/><line class="cls-5" x1="42.5" y1="2.2" x2="42.5" y2="22.03"/><line class="cls-5" x1="47.16" y1="2.2" x2="47.16" y2="22.03"/><line class="cls-5" x1="51.81" y1="2.2" x2="51.81" y2="22.03"/><line class="cls-5" x1="56.47" y1="2.2" x2="56.47" y2="22.03"/><line class="cls-5" x1="61.13" y1="2.2" x2="61.13" y2="22.03"/><line class="cls-5" x1="65.78" y1="2.2" x2="65.78" y2="22.03"/><line class="cls-5" x1="70.44" y1="2.2" x2="70.44" y2="22.03"/><line class="cls-5" x1="75.09" y1="2.2" x2="75.09" y2="22.03"/><line class="cls-5" x1="79.75" y1="2.2" x2="79.75" y2="22.03"/><line class="cls-5" x1="84.41" y1="2.2" x2="84.41" y2="22.03"/><line class="cls-5" x1="89.06" y1="2.2" x2="89.06" y2="22.03"/><line class="cls-5" x1="93.72" y1="2.2" x2="93.72" y2="22.03"/><line class="cls-5" x1="98.38" y1="2.2" x2="98.38" y2="22.03"/><line class="cls-5" x1="103.03" y1="2.2" x2="103.03" y2="22.03"/><line class="cls-5" x1="107.69" y1="2.2" x2="107.69" y2="22.03"/></g></g></svg>