<svg xmlns="http://www.w3.org/2000/svg" viewBox="0 0 69.17 68.89"><defs><style>.cls-1{fill:#9fa4a8;}</style></defs><title>export</title><g id="Layer_2" data-name="Layer 2"><g id="export"><path class="cls-1" d="M48.72,68a2.57,2.57,0,0,1-.83-1.85,3.61,3.61,0,0,1,.37-1.71,2.77,2.77,0,0,1,2.57-1.48H61.14a2.22,2.22,0,0,0,2.15-2.17V18a2.22,2.22,0,0,0-2.14-2.17H8.07a2.17,2.17,0,0,0-1.59.65A1.93,1.93,0,0,0,5.88,18v42.8a1.92,1.92,0,0,0,.6,1.53,2.14,2.14,0,0,0,1.58.64H18.42a2.71,2.71,0,0,1,2,.88,3.32,3.32,0,0,1,.88,2.13,3,3,0,0,1-2.91,2.92H4.35A4,4,0,0,1,1.3,67.59,4.23,4.23,0,0,1,0,64.5V4.35a4.21,4.21,0,0,1,1.3-3.1A4,4,0,0,1,4.37,0H64.8a4,4,0,0,1,3.07,1.25,4.21,4.21,0,0,1,1.3,3.1V64.5a4.23,4.23,0,0,1-1.3,3.1,4,4,0,0,1-3.05,1.25h-14A3,3,0,0,1,48.72,68Zm-14-32.15a3.86,3.86,0,0,1,2.71,1,3.29,3.29,0,0,1,1.1,2.5V52.51a2,2,0,0,0,.6,1.44,1.94,1.94,0,0,0,1.42.6h5.15a1.85,1.85,0,0,1,1.85,1.2A1.94,1.94,0,0,1,47.13,58L37,68a3.31,3.31,0,0,1-4.59,0L22.27,58a1.93,1.93,0,0,1-.43-2.22,1.84,1.84,0,0,1,1.85-1.2h5.18a1.82,1.82,0,0,0,1.39-.6,2.21,2.21,0,0,0,.6-1.44V39.33A3.21,3.21,0,0,1,32,36.83,3.86,3.86,0,0,1,34.73,35.81Zm9.61-25.26a2.36,2.36,0,0,0,1.88-.77A2.66,2.66,0,0,0,47,7.87,2.51,2.51,0,0,0,46.22,6a2.68,2.68,0,0,0-3.77,0,2.51,2.51,0,0,0-.78,1.87,2.66,2.66,0,0,0,.78,1.91A2.36,2.36,0,0,0,44.34,10.55Zm8.19,0a3.56,3.56,0,0,0,1.7-.55,2,2,0,0,0,1-1.91A2.79,2.79,0,0,0,54.41,6a2.66,2.66,0,0,0-3.76,0,2.35,2.35,0,0,0-.78,1.68,3,3,0,0,0,.37,1.55,2.44,2.44,0,0,0,.92,1A2.73,2.73,0,0,0,52.53,10.55Zm8.19,0a2.36,2.36,0,0,0,1.88-.77,2.69,2.69,0,0,0,.78-1.91A2.53,2.53,0,0,0,62.61,6a2.67,2.67,0,0,0-3.76,0,2.53,2.53,0,0,0-.78,1.87,2.69,2.69,0,0,0,.78,1.91A2.36,2.36,0,0,0,60.72,10.55Z"/></g></g></svg>