<?xml version="1.0" encoding="UTF-8"?>
<svg width="15px" height="15px" viewBox="0 0 15 15" version="1.1" xmlns="http://www.w3.org/2000/svg" xmlns:xlink="http://www.w3.org/1999/xlink">
    <!-- Generator: Sketch 41 (35326) - http://www.bohemiancoding.com/sketch -->
    <title>Fill-24</title>
    <desc>Created with Sketch.</desc>
    <defs></defs>
    <g id="Page-1" stroke="none" stroke-width="1" fill="none" fill-rule="evenodd">
        <g id="fullscreen-icon-light" fill="#D0D3D9">
            <g id="Page-1">
                <g id="canvas-mode">
                    <path d="M14.80207,4.543397 C14.67726,4.669427 14.52439,4.732443 14.3438,4.732443 C14.1632,4.732443 14.0034,4.669112 13.86473,4.543082 C13.72573,4.416736 13.65639,4.258883 13.65639,4.069207 L13.65639,2.427346 C13.65639,2.125503 13.55112,1.869346 13.34058,1.658876 C13.13004,1.448405 12.87034,1.339703 12.56146,1.332457 L10.92946,1.332457 C10.66976,1.332457 10.47655,1.22155 10.35016,0.999421 C10.29406,0.895446 10.26601,0.76721 10.26601,0.614083 C10.26601,0.461586 10.32905,0.322638 10.45512,0.197868 C10.58088,0.072783 10.73847,0.010398 10.92726,0.010398 L12.52269,0.010398 C13.20852,0.010398 13.79286,0.251746 14.27572,0.734442 C14.75857,1.217139 15,1.797824 15,2.476183 L15,4.071098 C14.99307,4.260144 14.92688,4.417682 14.80207,4.543397 L14.80207,4.543397 Z M10.25561,14.312646 C10.26254,14.130847 10.32905,13.969843 10.45543,13.829949 C10.58182,13.690055 10.73626,13.623574 10.91875,13.630506 L12.56146,13.630506 C12.87034,13.623574 13.13004,13.515188 13.34058,13.305347 C13.55112,13.095507 13.65639,12.840295 13.65639,12.539397 L13.65639,10.912975 C13.65639,10.731176 13.72226,10.577104 13.85432,10.451073 C13.98607,10.325358 14.1424,10.258877 14.323,10.251945 C14.50328,10.258877 14.66307,10.325358 14.80207,10.451073 C14.92688,10.577104 14.9896,10.731176 14.9896,10.912975 L14.9896,12.50789 C14.9896,12.955613 14.8774,13.368363 14.65362,13.746139 C14.42953,14.123915 14.12885,14.424498 13.75095,14.648517 C13.37305,14.872221 12.96016,14.984388 12.51229,14.984388 L10.91686,14.984388 C10.73468,14.984388 10.58088,14.921372 10.45512,14.795342 C10.32905,14.655448 10.26254,14.494444 10.25561,14.312646 L10.25561,14.312646 Z M3.3907,12.539397 C3.11775,12.532466 2.89019,12.437943 2.70834,12.256144 C2.52648,12.07403 2.43539,11.850326 2.43539,11.584402 L2.43539,3.378876 C2.43539,3.112952 2.52648,2.889248 2.70834,2.707134 C2.89019,2.525335 3.11775,2.430812 3.3907,2.42388 L11.59922,2.42388 C11.87216,2.430812 12.09941,2.525335 12.28127,2.707134 C12.46312,2.889248 12.55421,3.112952 12.55421,3.378876 L12.55421,11.584402 C12.55421,11.850326 12.46312,12.07403 12.28127,12.256144 C12.09941,12.437943 11.87216,12.532466 11.59922,12.539397 L3.3907,12.539397 Z M4.74471,0.655988 C4.73777,0.836212 4.67095,0.995955 4.54394,1.134904 C4.41724,1.273853 4.26248,1.343169 4.07936,1.343169 L2.43161,1.343169 C2.12179,1.343169 1.86145,1.448405 1.65028,1.658876 C1.43911,1.869346 1.33321,2.128969 1.33321,2.437744 L1.33321,4.058495 C1.33321,4.241239 1.26797,4.395626 1.13717,4.521972 C1.00605,4.648317 0.8513,4.714798 0.67196,4.72173 C0.49294,4.714798 0.33441,4.648317 0.19667,4.522602 C0.07281,4.396571 0.01072,4.242814 0.01072,4.0607 L0.01072,2.465785 C0.01072,1.787427 0.25215,1.206741 0.735,0.72373 C1.21785,0.241348 1.8022,0 2.48803,0 L4.08346,0 C4.26532,0.006932 4.41944,0.072783 4.54551,0.197868 C4.67127,0.322638 4.73777,0.47545 4.74471,0.655988 L4.74471,0.655988 Z M0.70317,10.241233 C0.84783,10.241233 0.98903,10.307714 1.12677,10.440676 C1.2645,10.573638 1.33321,10.731176 1.33321,10.912975 L1.33321,12.539397 C1.33321,12.959079 1.51633,13.27384 1.88257,13.48368 C2.0515,13.581669 2.23462,13.630506 2.43161,13.630506 L4.06896,13.630506 C4.3293,13.630506 4.52314,13.746139 4.64984,13.976774 C4.70594,14.074763 4.73431,14.200794 4.73431,14.354551 C4.73431,14.508308 4.67127,14.648517 4.54551,14.774232 C4.41944,14.900262 4.26185,14.966743 4.07306,14.973675 L2.47762,14.973675 C1.79148,14.973675 1.20745,14.732327 0.7246,14.24963 C0.24174,13.766934 0.00032,13.183098 0.00032,12.497492 L0.00032,10.912975 C-0.00662,10.647051 0.09991,10.451073 0.32054,10.325358 C0.41698,10.269274 0.54463,10.241233 0.70317,10.241233 L0.70317,10.241233 Z" id="Fill-24"></path>
                </g>
            </g>
        </g>
    </g>
</svg>