<?xml version="1.0" encoding="UTF-8" standalone="no"?>
<svg width="15px" height="15px" viewBox="0 0 15 15" version="1.1" xmlns="http://www.w3.org/2000/svg" xmlns:xlink="http://www.w3.org/1999/xlink">
    <!-- Generator: Sketch 40.3 (33839) - http://www.bohemiancoding.com/sketch -->
    <title>Fill 24</title>
    <desc>Created with Sketch.</desc>
    <defs></defs>
    <g id="Page-1" stroke="none" stroke-width="1" fill="none" fill-rule="evenodd">
        <g id="canvas-mode" transform="translate(-1277.000000, -571.000000)" fill="#FFFFFF">
            <path d="M1291.80207,575.543397 C1291.67726,575.669427 1291.52439,575.732443 1291.3438,575.732443 C1291.1632,575.732443 1291.0034,575.669112 1290.86473,575.543082 C1290.72573,575.416736 1290.65639,575.258883 1290.65639,575.069207 L1290.65639,573.427346 C1290.65639,573.125503 1290.55112,572.869346 1290.34058,572.658876 C1290.13004,572.448405 1289.87034,572.339703 1289.56146,572.332457 L1287.92946,572.332457 C1287.66976,572.332457 1287.47655,572.22155 1287.35016,571.999421 C1287.29406,571.895446 1287.26601,571.76721 1287.26601,571.614083 C1287.26601,571.461586 1287.32905,571.322638 1287.45512,571.197868 C1287.58088,571.072783 1287.73847,571.010398 1287.92726,571.010398 L1289.52269,571.010398 C1290.20852,571.010398 1290.79286,571.251746 1291.27572,571.734442 C1291.75857,572.217139 1292,572.797824 1292,573.476183 L1292,575.071098 C1291.99307,575.260144 1291.92688,575.417682 1291.80207,575.543397 L1291.80207,575.543397 Z M1287.25561,585.312646 C1287.26254,585.130847 1287.32905,584.969843 1287.45543,584.829949 C1287.58182,584.690055 1287.73626,584.623574 1287.91875,584.630506 L1289.56146,584.630506 C1289.87034,584.623574 1290.13004,584.515188 1290.34058,584.305347 C1290.55112,584.095507 1290.65639,583.840295 1290.65639,583.539397 L1290.65639,581.912975 C1290.65639,581.731176 1290.72226,581.577104 1290.85432,581.451073 C1290.98607,581.325358 1291.1424,581.258877 1291.323,581.251945 C1291.50328,581.258877 1291.66307,581.325358 1291.80207,581.451073 C1291.92688,581.577104 1291.9896,581.731176 1291.9896,581.912975 L1291.9896,583.50789 C1291.9896,583.955613 1291.8774,584.368363 1291.65362,584.746139 C1291.42953,585.123915 1291.12885,585.424498 1290.75095,585.648517 C1290.37305,585.872221 1289.96016,585.984388 1289.51229,585.984388 L1287.91686,585.984388 C1287.73468,585.984388 1287.58088,585.921372 1287.45512,585.795342 C1287.32905,585.655448 1287.26254,585.494444 1287.25561,585.312646 L1287.25561,585.312646 Z M1280.3907,583.539397 C1280.11775,583.532466 1279.89019,583.437943 1279.70834,583.256144 C1279.52648,583.07403 1279.43539,582.850326 1279.43539,582.584402 L1279.43539,574.378876 C1279.43539,574.112952 1279.52648,573.889248 1279.70834,573.707134 C1279.89019,573.525335 1280.11775,573.430812 1280.3907,573.42388 L1288.59922,573.42388 C1288.87216,573.430812 1289.09941,573.525335 1289.28127,573.707134 C1289.46312,573.889248 1289.55421,574.112952 1289.55421,574.378876 L1289.55421,582.584402 C1289.55421,582.850326 1289.46312,583.07403 1289.28127,583.256144 C1289.09941,583.437943 1288.87216,583.532466 1288.59922,583.539397 L1280.3907,583.539397 Z M1281.74471,571.655988 C1281.73777,571.836212 1281.67095,571.995955 1281.54394,572.134904 C1281.41724,572.273853 1281.26248,572.343169 1281.07936,572.343169 L1279.43161,572.343169 C1279.12179,572.343169 1278.86145,572.448405 1278.65028,572.658876 C1278.43911,572.869346 1278.33321,573.128969 1278.33321,573.437744 L1278.33321,575.058495 C1278.33321,575.241239 1278.26797,575.395626 1278.13717,575.521972 C1278.00605,575.648317 1277.8513,575.714798 1277.67196,575.72173 C1277.49294,575.714798 1277.33441,575.648317 1277.19667,575.522602 C1277.07281,575.396571 1277.01072,575.242814 1277.01072,575.0607 L1277.01072,573.465785 C1277.01072,572.787427 1277.25215,572.206741 1277.735,571.72373 C1278.21785,571.241348 1278.8022,571 1279.48803,571 L1281.08346,571 C1281.26532,571.006932 1281.41944,571.072783 1281.54551,571.197868 C1281.67127,571.322638 1281.73777,571.47545 1281.74471,571.655988 L1281.74471,571.655988 Z M1277.70317,581.241233 C1277.84783,581.241233 1277.98903,581.307714 1278.12677,581.440676 C1278.2645,581.573638 1278.33321,581.731176 1278.33321,581.912975 L1278.33321,583.539397 C1278.33321,583.959079 1278.51633,584.27384 1278.88257,584.48368 C1279.0515,584.581669 1279.23462,584.630506 1279.43161,584.630506 L1281.06896,584.630506 C1281.3293,584.630506 1281.52314,584.746139 1281.64984,584.976774 C1281.70594,585.074763 1281.73431,585.200794 1281.73431,585.354551 C1281.73431,585.508308 1281.67127,585.648517 1281.54551,585.774232 C1281.41944,585.900262 1281.26185,585.966743 1281.07306,585.973675 L1279.47762,585.973675 C1278.79148,585.973675 1278.20745,585.732327 1277.7246,585.24963 C1277.24174,584.766934 1277.00032,584.183098 1277.00032,583.497492 L1277.00032,581.912975 C1276.99338,581.647051 1277.09991,581.451073 1277.32054,581.325358 C1277.41698,581.269274 1277.54463,581.241233 1277.70317,581.241233 L1277.70317,581.241233 Z" id="Fill-24"></path>
        </g>
    </g>
</svg>