<svg xmlns="http://www.w3.org/2000/svg" viewBox="0 0 69.17 68.85"><defs><style>.cls-1{fill:#9fa4a8;}</style></defs><title>import</title><g id="Layer_2" data-name="Layer 2"><g id="import"><path class="cls-1" d="M48.72,68a2.57,2.57,0,0,1-.83-1.85,3.53,3.53,0,0,1,.37-1.71,2.76,2.76,0,0,1,2.57-1.48H61.14a2.06,2.06,0,0,0,1.5-.64,2.09,2.09,0,0,0,.65-1.53V18a2.09,2.09,0,0,0-.65-1.53,2.07,2.07,0,0,0-1.5-.65H8.07a2.16,2.16,0,0,0-1.59.65A1.93,1.93,0,0,0,5.88,18v42.8a1.92,1.92,0,0,0,.6,1.53,2.14,2.14,0,0,0,1.58.64H18.42a2.71,2.71,0,0,1,2,.88,3.32,3.32,0,0,1,.88,2.13,3,3,0,0,1-2.91,2.92H4.35A4,4,0,0,1,1.3,67.59,4.23,4.23,0,0,1,0,64.5V4.35a4.21,4.21,0,0,1,1.3-3.1A4,4,0,0,1,4.37,0H64.8a4.05,4.05,0,0,1,3.07,1.25,4.21,4.21,0,0,1,1.3,3.1V64.5a4.23,4.23,0,0,1-1.3,3.1,4,4,0,0,1-3.06,1.25h-14A3,3,0,0,1,48.72,68Zm-14,.88a3.86,3.86,0,0,1-2.71-1,3.29,3.29,0,0,1-1.1-2.5V52.14a2,2,0,0,0-2-2H23.68a2,2,0,0,1-1.42-3.42l10.15-10a3.44,3.44,0,0,1,4.6,0l10.11,10a2,2,0,0,1-1.42,3.42H40.56a1.81,1.81,0,0,0-1.38.6,2.23,2.23,0,0,0-.59,1.44V65.33a3.16,3.16,0,0,1-1.16,2.45A4.06,4.06,0,0,1,34.72,68.84Zm9.61-58.29a2.36,2.36,0,0,0,1.89-.77A2.69,2.69,0,0,0,47,7.87,2.54,2.54,0,0,0,46.22,6a2.69,2.69,0,0,0-3.78,0,2.53,2.53,0,0,0-.78,1.87,2.69,2.69,0,0,0,.78,1.91A2.38,2.38,0,0,0,44.33,10.55Zm8.2,0A3.51,3.51,0,0,0,54.23,10a2,2,0,0,0,1-1.91A2.82,2.82,0,0,0,54.41,6a2.67,2.67,0,0,0-3.76,0,2.34,2.34,0,0,0-.78,1.68,3.11,3.11,0,0,0,.37,1.55,2.54,2.54,0,0,0,.92,1A2.76,2.76,0,0,0,52.54,10.55Zm8.18,0a2.35,2.35,0,0,0,1.88-.77,2.69,2.69,0,0,0,.78-1.91A2.53,2.53,0,0,0,62.61,6a2.67,2.67,0,0,0-3.76,0,2.53,2.53,0,0,0-.78,1.87,2.69,2.69,0,0,0,.78,1.91A2.35,2.35,0,0,0,60.72,10.55Z"/></g></g></svg>