<?xml version="1.0" encoding="UTF-8" standalone="no"?>
<svg width="139px" height="121px" viewBox="0 0 139 121" version="1.1" xmlns="http://www.w3.org/2000/svg" xmlns:xlink="http://www.w3.org/1999/xlink">
    <!-- Generator: Sketch 39.1 (31720) - http://www.bohemiancoding.com/sketch -->
    <title>Group 25</title>
    <desc>Created with Sketch.</desc>
    <defs>
        <filter x="-50%" y="-50%" width="200%" height="200%" filterUnits="objectBoundingBox" id="filter-1">
            <feOffset dx="0" dy="0" in="SourceAlpha" result="shadowOffsetOuter1"></feOffset>
            <feGaussianBlur stdDeviation="6.5" in="shadowOffsetOuter1" result="shadowBlurOuter1"></feGaussianBlur>
            <feColorMatrix values="0 0 0 0 0   0 0 0 0 0   0 0 0 0 0  0 0 0 0.5 0" type="matrix" in="shadowBlurOuter1" result="shadowMatrixOuter1"></feColorMatrix>
            <feMerge>
                <feMergeNode in="shadowMatrixOuter1"></feMergeNode>
                <feMergeNode in="SourceGraphic"></feMergeNode>
            </feMerge>
        </filter>
    </defs>
    <g id="Page-1" stroke="none" stroke-width="1" fill="none" fill-rule="evenodd">
        <g id="02---live-mode-paused" transform="translate(-175.000000, -321.000000)">
            <g id="Group-25" transform="translate(175.000000, 321.000000)">
                <rect id="Rectangle-3" fill-opacity="0.400000006" fill="#000000" x="0.796610169" y="0" width="137.40678" height="121" rx="10"></rect>
                <g id="Page-1" filter="url(#filter-1)" transform="translate(55.000000, 30.000000)" fill="#FEFEFE">
                    <path d="M7.5606752,54.7296548 L7.59418735,54.7296548 L7.5606752,54.7296548 Z M6.72622277,61.6227084 C5.75772176,61.6227084 4.82273289,61.4134253 3.95476832,60.9981811 C1.44135739,59.7823461 0.000335121458,57.0417345 0.000335121458,53.4739564 L0.000335121458,8.70398862 C0.000335121458,5.13953248 1.44135739,2.39892082 3.95476832,1.18640778 C6.45812561,-0.0294272167 9.53118937,0.535304884 12.3663169,2.73776008 L38.3583371,22.9385595 C40.9756357,25.0745756 42.4367653,28.0277923 42.4367653,31.0939554 C42.4367653,34.1567966 40.9756357,37.1066913 38.4287127,39.1862342 L12.3663169,59.4401849 C10.5130952,60.8785908 8.55933715,61.6227084 6.72622277,61.6227084 L6.72622277,61.6227084 Z" id="Fill-1"></path>
                </g>
            </g>
        </g>
    </g>
</svg>