<?xml version="1.0" encoding="UTF-8" standalone="no"?>
<svg width="14px" height="16px" viewBox="0 0 14 16" version="1.1" xmlns="http://www.w3.org/2000/svg" xmlns:xlink="http://www.w3.org/1999/xlink">
    <!-- Generator: Sketch 40.3 (33839) - http://www.bohemiancoding.com/sketch -->
    <title>Fill 31 Copy</title>
    <desc>Created with Sketch.</desc>
    <defs></defs>
    <g id="Page-1" stroke="none" stroke-width="1" fill="none" fill-rule="evenodd">
        <g id="canvas-mode" transform="translate(-1375.000000, -571.000000)" fill="#FFFFFF">
            <path d="M1381.59382,572.398063 C1381.59382,572.547197 1381.64631,572.673843 1381.75129,572.779184 C1381.85667,572.884525 1381.98375,572.945678 1382.13254,572.963037 C1383.25418,573.041944 1384.27951,573.387952 1385.20816,574.00106 C1386.1372,574.614167 1386.86456,575.411523 1387.39026,576.392732 C1387.92463,577.373547 1388.19182,578.429324 1388.19182,579.559273 C1388.19182,581.58245 1387.39894,583.273428 1385.81278,584.631024 C1384.87506,585.42838 1383.71001,585.923127 1382.31685,586.11566 C1381.65066,586.203247 1380.9671,586.176813 1380.26617,586.036753 C1378.97838,585.791747 1377.86109,585.195998 1376.91469,584.249903 C1375.96828,583.303807 1375.38536,582.274859 1375.16632,581.16227 C1374.77205,579.138698 1375.07871,577.373547 1376.08668,575.866817 C1376.26191,575.621811 1376.49832,575.472676 1376.79629,575.420203 C1377.09426,575.36773 1377.36145,575.433617 1377.59785,575.617076 C1377.84333,575.740171 1377.99685,575.959138 1378.05803,576.274372 C1378.1192,576.589606 1378.06671,576.87012 1377.90056,577.115127 C1377.40091,577.842255 1377.15109,578.599763 1377.15109,579.388439 C1377.15109,580.17672 1377.30027,580.873075 1377.59785,581.477503 C1377.88714,582.081931 1378.27707,582.585753 1378.76803,582.988573 C1379.2586,583.391394 1379.83678,583.671908 1380.50297,583.829328 C1381.16877,584.004896 1381.88272,584.013576 1382.64521,583.855762 C1383.4077,583.697948 1384.0952,583.312881 1384.70891,582.699774 C1385.32222,582.086271 1385.72517,581.354803 1385.91816,580.504974 C1386.09339,579.673293 1386.0409,578.862523 1385.76029,578.074242 C1385.47969,577.28596 1385.02424,576.637739 1384.39357,576.129577 C1383.77119,575.621811 1383.06158,575.306577 1382.26396,575.183876 C1382.08873,575.157443 1381.93087,575.201236 1381.79116,575.315257 C1381.65066,575.428883 1381.58514,575.573677 1381.59382,575.748456 L1381.59382,576.74742 C1381.59382,576.8788 1381.5366,576.970727 1381.42293,577.0232 C1381.30888,577.075673 1381.2039,577.067388 1381.1076,576.996766 L1377.78216,574.474107 C1377.63297,574.369161 1377.55878,574.220027 1377.55878,574.027493 C1377.55878,573.83496 1377.63297,573.681486 1377.78216,573.567465 L1381.1076,571.070846 C1381.2039,570.992334 1381.30888,570.978919 1381.42293,571.031393 C1381.5366,571.08426 1381.59382,571.176187 1381.59382,571.307567 L1381.59382,572.398063 Z" id="Fill-31-Copy"></path>
        </g>
    </g>
</svg>