<?xml version="1.0" encoding="UTF-8"?>
<svg width="14px" height="16px" viewBox="0 0 14 16" version="1.1" xmlns="http://www.w3.org/2000/svg" xmlns:xlink="http://www.w3.org/1999/xlink">
    <!-- Generator: Sketch 41 (35326) - http://www.bohemiancoding.com/sketch -->
    <title>reset-icon</title>
    <desc>Created with Sketch.</desc>
    <defs></defs>
    <g id="Page-1" stroke="none" stroke-width="1" fill="none" fill-rule="evenodd">
        <g id="reset-icon" fill="#D0D3D9">
            <g id="Fill-31-Copy">
                <g id="Page-1">
                    <g id="canvas-mode">
                        <path d="M6.59382,1.398063 C6.59382,1.547197 6.64631,1.673843 6.75129,1.779184 C6.85667,1.884525 6.98375,1.945678 7.13254,1.963037 C8.25418,2.041944 9.27951,2.387952 10.20816,3.00106 C11.1372,3.614167 11.86456,4.411523 12.39026,5.392732 C12.92463,6.373547 13.19182,7.429324 13.19182,8.559273 C13.19182,10.58245 12.39894,12.273428 10.81278,13.631024 C9.87506,14.42838 8.71001,14.923127 7.31685,15.11566 C6.65066,15.203247 5.9671,15.176813 5.26617,15.036753 C3.97838,14.791747 2.86109,14.195998 1.91469,13.249903 C0.96828,12.303807 0.38536,11.274859 0.16632,10.16227 C-0.22795,8.138698 0.07871,6.373547 1.08668,4.866817 C1.26191,4.621811 1.49832,4.472676 1.79629,4.420203 C2.09426,4.36773 2.36145,4.433617 2.59785,4.617076 C2.84333,4.740171 2.99685,4.959138 3.05803,5.274372 C3.1192,5.589606 3.06671,5.87012 2.90056,6.115127 C2.40091,6.842255 2.15109,7.599763 2.15109,8.388439 C2.15109,9.17672 2.30027,9.873075 2.59785,10.477503 C2.88714,11.081931 3.27707,11.585753 3.76803,11.988573 C4.2586,12.391394 4.83678,12.671908 5.50297,12.829328 C6.16877,13.004896 6.88272,13.013576 7.64521,12.855762 C8.4077,12.697948 9.0952,12.312881 9.70891,11.699774 C10.32222,11.086271 10.72517,10.354803 10.91816,9.504974 C11.09339,8.673293 11.0409,7.862523 10.76029,7.074242 C10.47969,6.28596 10.02424,5.637739 9.39357,5.129577 C8.77119,4.621811 8.06158,4.306577 7.26396,4.183876 C7.08873,4.157443 6.93087,4.201236 6.79116,4.315257 C6.65066,4.428883 6.58514,4.573677 6.59382,4.748456 L6.59382,5.74742 C6.59382,5.8788 6.5366,5.970727 6.42293,6.0232 C6.30888,6.075673 6.2039,6.067388 6.1076,5.996766 L2.78216,3.474107 C2.63297,3.369161 2.55878,3.220027 2.55878,3.027493 C2.55878,2.83496 2.63297,2.681486 2.78216,2.567465 L6.1076,0.070846 C6.2039,-0.007666 6.30888,-0.021081 6.42293,0.031393 C6.5366,0.08426 6.59382,0.176187 6.59382,0.307567 L6.59382,1.398063 Z" id="Fill-31-Copy"></path>
                    </g>
                </g>
            </g>
        </g>
    </g>
</svg>