<svg xmlns="http://www.w3.org/2000/svg" viewBox="0 0 73.12 84.1"><defs><style>.cls-1{fill:#9fa4a8;}</style></defs><title>reset</title><g id="Layer_2" data-name="Layer 2"><g id="reset"><path class="cls-1" d="M36.55,1.7v6a2.88,2.88,0,0,0,.88,2.11,3.46,3.46,0,0,0,2.11,1,34.85,34.85,0,0,1,17,5.75A37,37,0,0,1,73.12,47.46q0,16.83-13.18,28.12a37,37,0,0,1-19.38,8.23,34.66,34.66,0,0,1-11.36-.44,35,35,0,0,1-18.58-9.91Q2.74,65.6.92,56.35-2.36,39.52,6,27A5.92,5.92,0,0,1,10,24.51,5.41,5.41,0,0,1,14.4,25.6a4.82,4.82,0,0,1,2.55,3.64,5.92,5.92,0,0,1-.87,4.66,21.93,21.93,0,0,0-4.16,12.61A25.84,25.84,0,0,0,14.4,58.1a24.16,24.16,0,0,0,6.48,8.38,23.44,23.44,0,0,0,9.62,4.66,25.71,25.71,0,0,0,11.87.15,22.45,22.45,0,0,0,11.44-6.41,24.41,24.41,0,0,0,5.83-25.65,23.78,23.78,0,0,0-7.58-10.78,24.07,24.07,0,0,0-11.8-5.25,3.22,3.22,0,0,0-2.62.73,2.78,2.78,0,0,0-1.1,2.4v5.54a1.55,1.55,0,0,1-.94,1.53,1.62,1.62,0,0,1-1.75-.15l-18.44-14a2.85,2.85,0,0,1-1.24-2.48,3,3,0,0,1,1.24-2.55L33.86.39A1.54,1.54,0,0,1,35.6.18,1.55,1.55,0,0,1,36.55,1.7Z"/></g></g></svg>