<svg xmlns="http://www.w3.org/2000/svg" viewBox="0 0 69.63 69.64"><defs><style>.cls-1{fill:#9fa4a8;}</style></defs><title>save</title><g id="Layer_2" data-name="Layer 2"><g id="save"><path class="cls-1" d="M56.09,25.72V3A2.79,2.79,0,0,1,57,.85,3,3,0,0,1,59.11,0h6.08a4.34,4.34,0,0,1,4.44,4.45V65.19a4.34,4.34,0,0,1-4.44,4.44H4.45A4.34,4.34,0,0,1,0,65.19V14.71a4.26,4.26,0,0,1,1.27-3.12L11.85,1a3.55,3.55,0,0,1,2.54-1h1.69a2.89,2.89,0,0,1,3,3V25.72a3.07,3.07,0,0,0,3,3H53.12a2.79,2.79,0,0,0,2.12-.9A3,3,0,0,0,56.09,25.72Zm-27.83-4a2.89,2.89,0,0,1-3-3V3a2.89,2.89,0,0,1,3-3h5.92A2.86,2.86,0,0,1,36.3.85,2.87,2.87,0,0,1,37.15,3V18.73a2.9,2.9,0,0,1-3,3Z"/></g></g></svg>