<?xml version="1.0" encoding="UTF-8" standalone="no"?>
<svg width="26px" height="27px" viewBox="0 0 26 27" version="1.1" xmlns="http://www.w3.org/2000/svg" xmlns:xlink="http://www.w3.org/1999/xlink">
    <!-- Generator: Sketch 40.3 (33839) - http://www.bohemiancoding.com/sketch -->
    <title>Fill 4</title>
    <desc>Created with Sketch.</desc>
    <defs></defs>
    <g id="Page-1" stroke="none" stroke-width="1" fill="none" fill-rule="evenodd">
        <g id="canvas-mode" transform="translate(-1376.000000, -35.000000)">
            <g id="Group-7-Copy-2" transform="translate(1361.000000, 20.000000)">
                <path d="M25.7796262,31.6985826 C23.7674229,30.4417178 23.15614,27.7915546 24.4130048,25.7793514 C25.6698697,23.7679104 28.3200328,23.1558652 30.332236,24.41273 C32.3444393,25.6703571 32.9557222,28.3205202 31.6988574,30.3319613 C30.4419926,32.3441645 27.7918294,32.9554475 25.7796262,31.6985826 M38.0007121,36.4592726 L39.9679457,33.3098696 C40.2629164,32.8388311 40.1196231,32.2168774 39.6478224,31.9226689 L37.7209854,30.7183957 C37.9054374,30.0476613 38.0190049,29.3662561 38.0609258,28.6848509 L40.2751116,28.1734159 C40.8170345,28.0484154 41.1554505,27.5080169 41.0296878,26.966094 L40.1943186,23.3479391 C40.0693181,22.8060162 39.5289195,22.4676002 38.9869966,22.5933629 L36.7728108,23.1040357 C36.4359192,22.5102833 36.0357652,21.947781 35.5753975,21.4256753 L36.7796706,19.4988382 C37.0746413,19.0270375 36.9305859,18.405846 36.4595474,18.1108753 L33.3101444,16.1436418 C32.8383437,15.8486711 32.2171522,15.9919643 31.9221815,16.463765 L30.7186705,18.3906021 C30.0479361,18.2061501 29.3665309,18.0933448 28.6851257,18.0506617 L28.1736907,15.8364759 C28.0486902,15.294553 27.5082917,14.9568992 26.9663688,15.0818997 L23.3482139,15.9172689 C22.806291,16.0422694 22.467875,16.5826679 22.5936377,17.1245908 L23.1043105,19.3387766 C22.5105581,19.6756682 21.9472936,20.0758223 21.4259501,20.53619 L19.499113,19.3319168 C19.0273123,19.0369461 18.4061208,19.1810016 18.1111501,19.6520401 L16.1439165,22.801443 C15.8489458,23.2732437 15.9922391,23.8944353 16.4640398,24.189406 L18.3908768,25.3936791 C18.2064249,26.0636513 18.0928573,26.7450565 18.0509364,27.4264617 L15.8367507,27.9378967 C15.2948278,28.0628972 14.9564118,28.6032957 15.0821745,29.1459809 L15.9175437,32.7633735 C16.0425442,33.3052964 16.5829427,33.6437124 17.1248656,33.5179497 L19.3390514,33.0072769 C19.675943,33.6010293 20.0760971,34.1642938 20.5364648,34.6856374 L19.3321916,36.6124744 C19.0372209,37.0842751 19.1805142,37.7054666 19.6523149,38.0004373 L22.8017178,39.9684331 C23.2735185,40.2626416 23.89471,40.1193483 24.1889186,39.6475477 L25.3931917,37.7207106 C26.0639261,37.9051626 26.7453313,38.0187301 27.4267365,38.060651 L27.9381715,40.2748368 C28.063172,40.8167597 28.6035705,41.1551757 29.1454934,41.029413 L32.7636483,40.194806 C33.3055712,40.0690433 33.6439872,39.5286447 33.5182245,38.9867218 L33.0075517,36.772536 C33.6013041,36.4356444 34.1645686,36.0354904 34.6859122,35.5751227 L36.6127492,36.7793958 C37.0845499,37.0743665 37.7057414,36.9310733 38.0007121,36.4592726" id="Fill-4"></path>
            </g>
        </g>
    </g>
</svg>