<svg xmlns="http://www.w3.org/2000/svg" xmlns:xlink="http://www.w3.org/1999/xlink" style="enable-background:new 0 0 752 752" id="Layer_1" x="0" y="0" version="1.1" viewBox="0 0 752 752" xml:space="preserve"><style type="text/css">.st0{fill:#24edaa}.st1{fill:#e1ea26}.st2{fill:#e86828}.st3{fill:#4aa827}.st4{fill:#50c130}.st5{fill:#5d5d5d}.st6{fill:#a52907}.st7{clip-path:url(#SVGID_2_)}.st8{clip-path:url(#SVGID_4_)}.st9{fill:#231f20}.st10{clip-path:url(#SVGID_6_)}.st11{clip-path:url(#SVGID_8_)}.st12{clip-path:url(#SVGID_10_)}.st13{clip-path:url(#SVGID_12_)}.st14{clip-path:url(#SVGID_14_)}.st15{clip-path:url(#SVGID_16_)}.st16{clip-path:url(#SVGID_18_)}.st17{clip-path:url(#SVGID_20_)}.st18{clip-path:url(#SVGID_22_)}.st19{clip-path:url(#SVGID_24_)}.st20{clip-path:url(#SVGID_26_)}.st21{fill:#c93f1f}.st22{fill:#7f7e7e}.st23{fill:#ddd}.st24{fill:#494949}.st25{fill:#d1d1d1}.st26{fill:#d18122}.st27{fill:#9b5d19}.st28{fill:#b5b5b5}.st29{fill:#3a3b36}.st30{opacity:.2}.st31{fill:#111}.st31,.st32,.st33{fill-rule:evenodd;clip-rule:evenodd}.st32{fill:#f2a02a}.st33{fill:#f4a640}.st34{stroke-width:6.3098}.st34,.st35,.st36,.st37,.st38,.st39{fill:#f2a02a;stroke:#231f20;stroke-linecap:round}.st35{stroke-width:5.9943}.st36{stroke-width:5.6788}.st37{stroke-width:5.3633}.st38{stroke-width:5.0479}.st39{stroke-width:4.7324}.st40,.st41{fill-rule:evenodd;clip-rule:evenodd;fill:#fff2e6}.st41{fill:#5d5d5d}.st42{clip-path:url(#SVGID_28_)}.st43{fill:#ededed}.st43,.st44,.st45,.st46,.st47{fill-rule:evenodd;clip-rule:evenodd}.st44{fill:#303030}.st45{fill:#c12405}.st46{fill:#d3371e}.st47{fill:#fff}.st48{fill:#d6da2c}.st49{fill:#eaea49}.st50{clip-path:url(#SVGID_30_)}.st51{fill:#fff}.st52{fill:#f9f9f9}</style><rect width="752" height="752" class="st0"/><rect width="525.2" height="525.2" x="113.4" y="113.4" class="st1"/><rect width="297.7" height="297.7" x="227.2" y="227.2" class="st2"/><rect width="752" height="714.6" class="st3"/><rect width="752" height="286" y="466" class="st4"/><g><g><g><g><g><path d="M348,511.9c-1.6,0-3.3-0.5-4.7-1.5c-3.7-2.6-4.6-7.7-2-11.4c0.9-1.3,22.7-31.7,86.8-66.3 c64-34.5,123.6-50,126.1-50.7c4.4-1.1,8.9,1.5,10,5.9s-1.5,8.9-5.9,10c-0.6,0.2-60.3,15.7-122.4,49.2 c-31.5,17-51.9,32.8-63.5,43c-12.5,11.1-17.7,18.2-17.7,18.3C353.2,510.7,350.6,511.9,348,511.9z" class="st5"/></g><g><path d="M347.6,511.6c-1.8,0-3.6-0.6-5.1-1.8c-3.6-2.8-4.2-7.9-1.4-11.5c0.4-0.5,21.5-28.7,35.2-95.5 c14.1-69.2,11.7-130.8,11.6-131.4c-0.2-4.5,3.3-8.4,7.9-8.6c4.5-0.2,8.4,3.3,8.6,7.9c0.1,2.6,2.6,64.2-12,135.4 C377.8,477.5,355,507.2,354,508.4C352.4,510.5,350,511.6,347.6,511.6z" class="st5"/></g><g><rect width="147.7" height="28.2" x="233.2" y="543.6" class="st6" transform="matrix(0.596 -0.803 0.803 0.596 -323.7787 471.8796)"/></g><g><path d="M243.2,657.8c-2.9,0-5.9-0.9-8.4-2.8c-6.3-4.6-7.6-13.5-2.9-19.7l94-126.6c4.6-6.3,13.5-7.6,19.7-2.9 c6.3,4.6,7.6,13.5,2.9,19.7l-94,126.6C251.8,655.8,247.5,657.8,243.2,657.8z" class="st6"/></g></g><g><g><defs><path id="SVGID_1_" d="M439.6,380.3c-70.1-52-47.8-155.7,4.2-225.8s129.4-100.8,199.5-48.7c70.1,52,63.2,135,11.1,205.1 S509.7,432.3,439.6,380.3z"/></defs><clipPath id="SVGID_2_"><use style="overflow:visible" xlink:href="#SVGID_1_"/></clipPath><g class="st7"><g><defs><rect id="SVGID_3_" width="119.5" height="119.5" x="692.3" y="97.5" transform="matrix(0.596 -0.803 0.803 0.596 177.5158 667.4188)"/></defs><clipPath id="SVGID_4_"><use style="overflow:visible" xlink:href="#SVGID_3_"/></clipPath><g class="st8"><g><rect width="120.3" height=".5" x="580.6" y="223.3" class="st9" transform="matrix(0.5956 -0.8033 0.8033 0.5956 79.5446 605.1698)"/></g><g><rect width="120.3" height=".5" x="612.6" y="247.1" class="st9" transform="matrix(0.5956 -0.8033 0.8033 0.5956 73.4098 640.4643)"/></g><g><rect width="120.3" height=".5" x="644.6" y="270.8" class="st9" transform="matrix(0.5956 -0.8033 0.8033 0.5956 67.2747 675.7584)"/></g><g><rect width="120.3" height=".5" x="596.6" y="235.2" class="st9" transform="matrix(0.5956 -0.8033 0.8033 0.5956 76.4772 622.8171)"/></g><g><rect width="120.3" height=".5" x="628.6" y="258.9" class="st9" transform="matrix(0.5956 -0.8033 0.8033 0.5956 70.3422 658.1111)"/></g><g><rect width="120.3" height=".5" x="660.6" y="282.7" class="st9" transform="matrix(0.5956 -0.8033 0.8033 0.5956 64.2073 693.4056)"/></g></g><g class="st8"><g><rect width=".5" height="120.3" x="818.1" y="208.3" class="st9" transform="matrix(0.596 -0.803 0.803 0.596 115.001 765.5739)"/></g><g><rect width=".5" height="120.3" x="841.8" y="176.4" class="st9" transform="matrix(0.596 -0.803 0.803 0.596 150.2754 771.7121)"/></g><g><rect width=".5" height="120.3" x="865.5" y="144.4" class="st9" transform="matrix(0.596 -0.803 0.803 0.596 185.5517 777.8524)"/></g><g><rect width=".5" height="120.3" x="829.9" y="192.3" class="st9" transform="matrix(0.596 -0.803 0.803 0.596 132.6392 768.6441)"/></g><g><rect width=".5" height="120.3" x="853.7" y="160.4" class="st9" transform="matrix(0.596 -0.803 0.803 0.596 167.9136 774.7823)"/></g><g><rect width=".5" height="120.3" x="877.4" y="128.4" class="st9" transform="matrix(0.596 -0.803 0.803 0.596 203.1898 780.9226)"/></g></g><g class="st8"><g><rect width="120.3" height=".5" x="651.9" y="127.4" class="st9" transform="matrix(0.5956 -0.8033 0.8033 0.5956 185.4274 623.5746)"/></g><g><rect width="120.3" height=".5" x="683.9" y="151.1" class="st9" transform="matrix(0.5956 -0.8033 0.8033 0.5956 179.2926 658.8686)"/></g><g><rect width="120.3" height=".5" x="715.8" y="174.9" class="st9" transform="matrix(0.5956 -0.8033 0.8033 0.5956 173.1577 694.1631)"/></g><g><rect width=".5" height="120.3" x="722.1" y="137.1" class="st9" transform="matrix(0.596 -0.803 0.803 0.596 133.4219 659.7448)"/></g><g><rect width=".5" height="120.3" x="745.8" y="105.1" class="st9" transform="matrix(0.596 -0.803 0.803 0.596 168.6965 665.8832)"/></g><g><rect width=".5" height="120.3" x="769.6" y="73.1" class="st9" transform="matrix(0.596 -0.803 0.803 0.596 203.9743 672.0256)"/></g><g><rect width=".5" height="120.3" x="734" y="121.1" class="st9" transform="matrix(0.596 -0.803 0.803 0.596 151.0583 662.8131)"/></g><g><rect width=".5" height="120.3" x="757.7" y="89.1" class="st9" transform="matrix(0.596 -0.803 0.803 0.596 186.3346 668.9534)"/></g><g><rect width=".5" height="120.3" x="781.4" y="57.2" class="st9" transform="matrix(0.596 -0.803 0.803 0.596 221.6125 675.0957)"/></g><g><rect width="120.3" height=".5" x="667.9" y="139.2" class="st9" transform="matrix(0.5956 -0.8033 0.8033 0.5956 182.36 641.2214)"/></g><g><rect width="120.3" height=".5" x="699.8" y="163" class="st9" transform="matrix(0.5956 -0.8033 0.8033 0.5956 176.2251 676.5159)"/></g><g><rect width="120.3" height=".5" x="731.8" y="186.7" class="st9" transform="matrix(0.5956 -0.8033 0.8033 0.5956 170.0903 711.8103)"/></g></g><g class="st8"><g><rect width=".5" height="120.3" x="626.1" y="65.9" class="st9" transform="matrix(0.596 -0.803 0.803 0.596 151.8416 553.9149)"/></g><g><rect width=".5" height="120.3" x="649.9" y="33.9" class="st9" transform="matrix(0.596 -0.803 0.803 0.596 187.1179 560.0552)"/></g><g><rect width=".5" height="120.3" x="673.6" y="1.9" class="st9" transform="matrix(0.596 -0.803 0.803 0.596 222.3956 566.1971)"/></g><g><rect width=".5" height="120.3" x="638" y="49.9" class="st9" transform="matrix(0.596 -0.803 0.803 0.596 169.4798 556.985)"/></g><g><rect width=".5" height="120.3" x="661.7" y="17.9" class="st9" transform="matrix(0.596 -0.803 0.803 0.596 204.7574 563.127)"/></g><g><rect width=".5" height="120.3" x="685.5" y="-14.1" class="st9" transform="matrix(0.596 -0.803 0.803 0.596 240.032 569.2659)"/></g></g><g class="st8"><g><rect width="120.3" height=".5" x="723.1" y="31.4" class="st9" transform="matrix(0.5956 -0.8033 0.8033 0.5956 291.3102 641.979)"/></g><g><rect width="120.3" height=".5" x="755.1" y="55.2" class="st9" transform="matrix(0.5956 -0.8033 0.8033 0.5956 285.1755 677.2734)"/></g><g><rect width="120.3" height=".5" x="787.1" y="78.9" class="st9" transform="matrix(0.5956 -0.8033 0.8033 0.5956 279.0407 712.5678)"/></g><g><rect width="120.3" height=".5" x="739.1" y="43.3" class="st9" transform="matrix(0.5956 -0.8033 0.8033 0.5956 288.2428 659.6262)"/></g><g><rect width="120.3" height=".5" x="771.1" y="67" class="st9" transform="matrix(0.5956 -0.8033 0.8033 0.5956 282.1081 694.9206)"/></g><g><rect width="120.3" height=".5" x="803.1" y="90.8" class="st9" transform="matrix(0.5956 -0.8033 0.8033 0.5956 275.9733 730.215)"/></g></g></g></g><g class="st7"><g><defs><rect id="SVGID_5_" width="119.5" height="119.5" x="621" y="193.5" transform="matrix(0.596 -0.803 0.803 0.596 71.6874 648.9976)"/></defs><clipPath id="SVGID_6_"><use style="overflow:visible" xlink:href="#SVGID_5_"/></clipPath><g class="st10"><g><rect width="120.3" height=".5" x="509.4" y="319.3" class="st9" transform="matrix(0.5956 -0.8033 0.8033 0.5956 -26.3381 586.7655)"/></g><g><rect width="120.3" height=".5" x="541.4" y="343" class="st9" transform="matrix(0.5956 -0.8033 0.8033 0.5956 -32.4732 622.0596)"/></g><g><rect width="120.3" height=".5" x="573.4" y="366.8" class="st9" transform="matrix(0.5956 -0.8033 0.8033 0.5956 -38.608 657.354)"/></g><g><rect width="120.3" height=".5" x="525.4" y="331.2" class="st9" transform="matrix(0.5956 -0.8033 0.8033 0.5956 -29.4058 604.4123)"/></g><g><rect width="120.3" height=".5" x="557.4" y="354.9" class="st9" transform="matrix(0.5956 -0.8033 0.8033 0.5956 -35.5406 639.7068)"/></g><g><rect width="120.3" height=".5" x="589.4" y="378.6" class="st9" transform="matrix(0.5956 -0.8033 0.8033 0.5956 -41.6755 675.0007)"/></g></g><g class="st10"><g><rect width=".5" height="120.3" x="746.8" y="304.3" class="st9" transform="matrix(0.596 -0.803 0.803 0.596 9.1684 747.1456)"/></g><g><rect width=".5" height="120.3" x="770.6" y="272.3" class="st9" transform="matrix(0.596 -0.803 0.803 0.596 44.4486 753.2931)"/></g><g><rect width=".5" height="120.3" x="794.3" y="240.3" class="st9" transform="matrix(0.596 -0.803 0.803 0.596 79.7233 759.4312)"/></g><g><rect width=".5" height="120.3" x="758.7" y="288.3" class="st9" transform="matrix(0.596 -0.803 0.803 0.596 26.8075 750.2183)"/></g><g><rect width=".5" height="120.3" x="782.4" y="256.3" class="st9" transform="matrix(0.596 -0.803 0.803 0.596 62.0851 756.361)"/></g><g><rect width=".5" height="120.3" x="806.2" y="224.3" class="st9" transform="matrix(0.596 -0.803 0.803 0.596 97.3614 762.5013)"/></g></g><g class="st10"><g><rect width="120.3" height=".5" x="580.6" y="223.3" class="st9" transform="matrix(0.5956 -0.8033 0.8033 0.5956 79.5446 605.1698)"/></g><g><rect width="120.3" height=".5" x="612.6" y="247.1" class="st9" transform="matrix(0.5956 -0.8033 0.8033 0.5956 73.4098 640.4643)"/></g><g><rect width="120.3" height=".5" x="644.6" y="270.8" class="st9" transform="matrix(0.5956 -0.8033 0.8033 0.5956 67.2747 675.7584)"/></g><g><rect width=".5" height="120.3" x="650.9" y="233.1" class="st9" transform="matrix(0.596 -0.803 0.803 0.596 27.5931 641.3236)"/></g><g><rect width=".5" height="120.3" x="674.6" y="201.1" class="st9" transform="matrix(0.596 -0.803 0.803 0.596 62.868 647.462)"/></g><g><rect width=".5" height="120.3" x="698.4" y="169.1" class="st9" transform="matrix(0.596 -0.803 0.803 0.596 98.1443 653.6024)"/></g><g><rect width=".5" height="120.3" x="662.7" y="217.1" class="st9" transform="matrix(0.596 -0.803 0.803 0.596 45.2299 644.3918)"/></g><g><rect width=".5" height="120.3" x="686.5" y="185.1" class="st9" transform="matrix(0.596 -0.803 0.803 0.596 80.5062 650.5322)"/></g><g><rect width=".5" height="120.3" x="710.2" y="153.1" class="st9" transform="matrix(0.596 -0.803 0.803 0.596 115.7837 656.6746)"/></g><g><rect width="120.3" height=".5" x="596.6" y="235.2" class="st9" transform="matrix(0.5956 -0.8033 0.8033 0.5956 76.4772 622.8171)"/></g><g><rect width="120.3" height=".5" x="628.6" y="258.9" class="st9" transform="matrix(0.5956 -0.8033 0.8033 0.5956 70.3422 658.1111)"/></g><g><rect width="120.3" height=".5" x="660.6" y="282.7" class="st9" transform="matrix(0.5956 -0.8033 0.8033 0.5956 64.2073 693.4056)"/></g></g><g class="st10"><g><rect width=".5" height="120.3" x="554.9" y="161.9" class="st9" transform="matrix(0.596 -0.803 0.803 0.596 46.0132 535.4936)"/></g><g><rect width=".5" height="120.3" x="578.7" y="129.9" class="st9" transform="matrix(0.596 -0.803 0.803 0.596 81.2895 541.634)"/></g><g><rect width=".5" height="120.3" x="602.4" y="97.9" class="st9" transform="matrix(0.596 -0.803 0.803 0.596 116.5668 547.776)"/></g><g><rect width=".5" height="120.3" x="566.8" y="145.9" class="st9" transform="matrix(0.596 -0.803 0.803 0.596 63.6513 538.5638)"/></g><g><rect width=".5" height="120.3" x="590.5" y="113.9" class="st9" transform="matrix(0.596 -0.803 0.803 0.596 98.9286 544.7059)"/></g><g><rect width=".5" height="120.3" x="614.3" y="81.9" class="st9" transform="matrix(0.596 -0.803 0.803 0.596 134.2035 550.8447)"/></g></g><g class="st10"><g><rect width="120.3" height=".5" x="651.9" y="127.4" class="st9" transform="matrix(0.5956 -0.8033 0.8033 0.5956 185.4274 623.5746)"/></g><g><rect width="120.3" height=".5" x="683.9" y="151.1" class="st9" transform="matrix(0.5956 -0.8033 0.8033 0.5956 179.2926 658.8686)"/></g><g><rect width="120.3" height=".5" x="715.8" y="174.9" class="st9" transform="matrix(0.5956 -0.8033 0.8033 0.5956 173.1577 694.1631)"/></g><g><rect width="120.3" height=".5" x="667.9" y="139.2" class="st9" transform="matrix(0.5956 -0.8033 0.8033 0.5956 182.36 641.2214)"/></g><g><rect width="120.3" height=".5" x="699.8" y="163" class="st9" transform="matrix(0.5956 -0.8033 0.8033 0.5956 176.2251 676.5159)"/></g><g><rect width="120.3" height=".5" x="731.8" y="186.7" class="st9" transform="matrix(0.5956 -0.8033 0.8033 0.5956 170.0903 711.8103)"/></g></g></g></g><g class="st7"><g><defs><rect id="SVGID_7_" width="119.5" height="119.5" x="549.8" y="289.5" transform="matrix(0.596 -0.803 0.803 0.596 -34.141 630.5765)"/></defs><clipPath id="SVGID_8_"><use style="overflow:visible" xlink:href="#SVGID_7_"/></clipPath><g class="st11"><g><rect width="120.3" height=".5" x="438.2" y="415.3" class="st9" transform="matrix(0.5956 -0.8033 0.8033 0.5956 -132.2213 568.3608)"/></g><g><rect width="120.3" height=".5" x="470.2" y="439" class="st9" transform="matrix(0.5956 -0.8033 0.8033 0.5956 -138.3564 603.6549)"/></g><g><rect width="120.3" height=".5" x="502.2" y="462.7" class="st9" transform="matrix(0.5956 -0.8033 0.8033 0.5956 -144.4912 638.9493)"/></g><g><rect width="120.3" height=".5" x="454.2" y="427.1" class="st9" transform="matrix(0.5956 -0.8033 0.8033 0.5956 -135.2887 586.0081)"/></g><g><rect width="120.3" height=".5" x="486.2" y="450.9" class="st9" transform="matrix(0.5956 -0.8033 0.8033 0.5956 -141.4238 621.3021)"/></g><g><rect width="120.3" height=".5" x="518.2" y="474.6" class="st9" transform="matrix(0.5956 -0.8033 0.8033 0.5956 -147.5586 656.5966)"/></g></g><g class="st11"><g><rect width=".5" height="120.3" x="675.6" y="400.3" class="st9" transform="matrix(0.596 -0.803 0.803 0.596 -96.6567 728.7317)"/></g><g><rect width=".5" height="120.3" x="699.4" y="368.3" class="st9" transform="matrix(0.596 -0.803 0.803 0.596 -61.3803 734.8719)"/></g><g><rect width=".5" height="120.3" x="723.1" y="336.3" class="st9" transform="matrix(0.596 -0.803 0.803 0.596 -26.105 741.0098)"/></g><g><rect width=".5" height="120.3" x="687.5" y="384.3" class="st9" transform="matrix(0.596 -0.803 0.803 0.596 -79.0185 731.8018)"/></g><g><rect width=".5" height="120.3" x="711.2" y="352.3" class="st9" transform="matrix(0.596 -0.803 0.803 0.596 -43.7421 737.9421)"/></g><g><rect width=".5" height="120.3" x="735" y="320.3" class="st9" transform="matrix(0.596 -0.803 0.803 0.596 -8.4668 744.08)"/></g></g><g class="st11"><g><rect width="120.3" height=".5" x="509.4" y="319.3" class="st9" transform="matrix(0.5956 -0.8033 0.8033 0.5956 -26.3381 586.7655)"/></g><g><rect width="120.3" height=".5" x="541.4" y="343" class="st9" transform="matrix(0.5956 -0.8033 0.8033 0.5956 -32.4732 622.0596)"/></g><g><rect width="120.3" height=".5" x="573.4" y="366.8" class="st9" transform="matrix(0.5956 -0.8033 0.8033 0.5956 -38.608 657.354)"/></g><g><rect width=".5" height="120.3" x="579.7" y="329" class="st9" transform="matrix(0.596 -0.803 0.803 0.596 -78.2374 622.8975)"/></g><g><rect width=".5" height="120.3" x="603.4" y="297" class="st9" transform="matrix(0.596 -0.803 0.803 0.596 -42.9613 629.0379)"/></g><g><rect width=".5" height="120.3" x="627.1" y="265.1" class="st9" transform="matrix(0.596 -0.803 0.803 0.596 -7.6854 635.1784)"/></g><g><rect width=".5" height="120.3" x="591.5" y="313" class="st9" transform="matrix(0.596 -0.803 0.803 0.596 -60.5994 625.9677)"/></g><g><rect width=".5" height="120.3" x="615.3" y="281.1" class="st9" transform="matrix(0.596 -0.803 0.803 0.596 -25.3233 632.1082)"/></g><g><rect width=".5" height="120.3" x="639" y="249.1" class="st9" transform="matrix(0.596 -0.803 0.803 0.596 9.9549 638.2534)"/></g><g><rect width="120.3" height=".5" x="525.4" y="331.2" class="st9" transform="matrix(0.5956 -0.8033 0.8033 0.5956 -29.4058 604.4123)"/></g><g><rect width="120.3" height=".5" x="557.4" y="354.9" class="st9" transform="matrix(0.5956 -0.8033 0.8033 0.5956 -35.5406 639.7068)"/></g><g><rect width="120.3" height=".5" x="589.4" y="378.6" class="st9" transform="matrix(0.5956 -0.8033 0.8033 0.5956 -41.6755 675.0007)"/></g></g><g class="st11"><g><rect width=".5" height="120.3" x="483.7" y="257.8" class="st9" transform="matrix(0.596 -0.803 0.803 0.596 -59.8152 517.0724)"/></g><g><rect width=".5" height="120.3" x="507.4" y="225.8" class="st9" transform="matrix(0.596 -0.803 0.803 0.596 -24.539 523.2127)"/></g><g><rect width=".5" height="120.3" x="531.2" y="193.8" class="st9" transform="matrix(0.596 -0.803 0.803 0.596 10.738 529.3549)"/></g><g><rect width=".5" height="120.3" x="495.6" y="241.8" class="st9" transform="matrix(0.596 -0.803 0.803 0.596 -42.1771 520.1425)"/></g><g><rect width=".5" height="120.3" x="519.3" y="209.8" class="st9" transform="matrix(0.596 -0.803 0.803 0.596 -6.9008 526.2829)"/></g><g><rect width=".5" height="120.3" x="543" y="177.8" class="st9" transform="matrix(0.596 -0.803 0.803 0.596 28.3762 532.425)"/></g></g><g class="st11"><g><rect width="120.3" height=".5" x="580.6" y="223.3" class="st9" transform="matrix(0.5956 -0.8033 0.8033 0.5956 79.5446 605.1698)"/></g><g><rect width="120.3" height=".5" x="612.6" y="247.1" class="st9" transform="matrix(0.5956 -0.8033 0.8033 0.5956 73.4098 640.4643)"/></g><g><rect width="120.3" height=".5" x="644.6" y="270.8" class="st9" transform="matrix(0.5956 -0.8033 0.8033 0.5956 67.2747 675.7584)"/></g><g><rect width="120.3" height=".5" x="596.6" y="235.2" class="st9" transform="matrix(0.5956 -0.8033 0.8033 0.5956 76.4772 622.8171)"/></g><g><rect width="120.3" height=".5" x="628.6" y="258.9" class="st9" transform="matrix(0.5956 -0.8033 0.8033 0.5956 70.3422 658.1111)"/></g><g><rect width="120.3" height=".5" x="660.6" y="282.7" class="st9" transform="matrix(0.5956 -0.8033 0.8033 0.5956 64.2073 693.4056)"/></g></g></g></g><g class="st7"><g><defs><rect id="SVGID_9_" width="119.5" height="119.5" x="478.6" y="385.4" transform="matrix(0.596 -0.803 0.803 0.596 -139.9694 612.1553)"/></defs><clipPath id="SVGID_10_"><use style="overflow:visible" xlink:href="#SVGID_9_"/></clipPath><g class="st12"><g><rect width="120.3" height=".5" x="367" y="511.2" class="st9" transform="matrix(0.5956 -0.8033 0.8033 0.5956 -238.1039 549.9559)"/></g><g><rect width="120.3" height=".5" x="399" y="534.9" class="st9" transform="matrix(0.5956 -0.8033 0.8033 0.5956 -244.2387 585.2504)"/></g><g><rect width="120.3" height=".5" x="431" y="558.7" class="st9" transform="matrix(0.5956 -0.8033 0.8033 0.5956 -250.3738 620.5444)"/></g><g><rect width="120.3" height=".5" x="383" y="523.1" class="st9" transform="matrix(0.5956 -0.8033 0.8033 0.5956 -241.1713 567.6031)"/></g><g><rect width="120.3" height=".5" x="415" y="546.8" class="st9" transform="matrix(0.5956 -0.8033 0.8033 0.5956 -247.3062 602.8976)"/></g><g><rect width="120.3" height=".5" x="447" y="570.6" class="st9" transform="matrix(0.5956 -0.8033 0.8033 0.5956 -253.4412 638.1917)"/></g></g><g class="st12"><g><rect width=".5" height="120.3" x="604.4" y="496.2" class="st9" transform="matrix(0.596 -0.803 0.803 0.596 -202.4865 710.3052)"/></g><g><rect width=".5" height="120.3" x="628.1" y="464.2" class="st9" transform="matrix(0.596 -0.803 0.803 0.596 -167.2103 716.4457)"/></g><g><rect width=".5" height="120.3" x="651.9" y="432.2" class="st9" transform="matrix(0.596 -0.803 0.803 0.596 -131.9331 722.5914)"/></g><g><rect width=".5" height="120.3" x="616.3" y="480.2" class="st9" transform="matrix(0.596 -0.803 0.803 0.596 -184.8484 713.3755)"/></g><g><rect width=".5" height="120.3" x="640" y="448.2" class="st9" transform="matrix(0.596 -0.803 0.803 0.596 -149.5723 719.5159)"/></g><g><rect width=".5" height="120.3" x="663.7" y="416.2" class="st9" transform="matrix(0.596 -0.803 0.803 0.596 -114.2949 725.6615)"/></g></g><g class="st12"><g><rect width="120.3" height=".5" x="438.2" y="415.3" class="st9" transform="matrix(0.5956 -0.8033 0.8033 0.5956 -132.2213 568.3608)"/></g><g><rect width="120.3" height=".5" x="470.2" y="439" class="st9" transform="matrix(0.5956 -0.8033 0.8033 0.5956 -138.3564 603.6549)"/></g><g><rect width="120.3" height=".5" x="502.2" y="462.7" class="st9" transform="matrix(0.5956 -0.8033 0.8033 0.5956 -144.4912 638.9493)"/></g><g><rect width=".5" height="120.3" x="508.4" y="425" class="st9" transform="matrix(0.596 -0.803 0.803 0.596 -184.0649 604.4776)"/></g><g><rect width=".5" height="120.3" x="532.2" y="393" class="st9" transform="matrix(0.596 -0.803 0.803 0.596 -148.7888 610.618)"/></g><g><rect width=".5" height="120.3" x="555.9" y="361" class="st9" transform="matrix(0.596 -0.803 0.803 0.596 -113.5117 616.7629)"/></g><g><rect width=".5" height="120.3" x="520.3" y="409" class="st9" transform="matrix(0.596 -0.803 0.803 0.596 -166.4268 607.5478)"/></g><g><rect width=".5" height="120.3" x="544" y="377" class="st9" transform="matrix(0.596 -0.803 0.803 0.596 -131.1499 613.6927)"/></g><g><rect width=".5" height="120.3" x="567.8" y="345" class="st9" transform="matrix(0.596 -0.803 0.803 0.596 -95.8755 619.8273)"/></g><g><rect width="120.3" height=".5" x="454.2" y="427.1" class="st9" transform="matrix(0.5956 -0.8033 0.8033 0.5956 -135.2887 586.0081)"/></g><g><rect width="120.3" height=".5" x="486.2" y="450.9" class="st9" transform="matrix(0.5956 -0.8033 0.8033 0.5956 -141.4238 621.3021)"/></g><g><rect width="120.3" height=".5" x="518.2" y="474.6" class="st9" transform="matrix(0.5956 -0.8033 0.8033 0.5956 -147.5586 656.5966)"/></g></g><g class="st12"><g><rect width=".5" height="120.3" x="412.5" y="353.8" class="st9" transform="matrix(0.596 -0.803 0.803 0.596 -165.6439 498.6479)"/></g><g><rect width=".5" height="120.3" x="436.2" y="321.8" class="st9" transform="matrix(0.596 -0.803 0.803 0.596 -130.3678 504.7896)"/></g><g><rect width=".5" height="120.3" x="460" y="289.8" class="st9" transform="matrix(0.596 -0.803 0.803 0.596 -95.0913 510.9319)"/></g><g><rect width=".5" height="120.3" x="424.3" y="337.8" class="st9" transform="matrix(0.596 -0.803 0.803 0.596 -148.006 501.7182)"/></g><g><rect width=".5" height="120.3" x="448.1" y="305.8" class="st9" transform="matrix(0.596 -0.803 0.803 0.596 -112.7297 507.8598)"/></g><g><rect width=".5" height="120.3" x="471.8" y="273.8" class="st9" transform="matrix(0.596 -0.803 0.803 0.596 -77.4526 514.0039)"/></g></g><g class="st12"><g><rect width="120.3" height=".5" x="509.4" y="319.3" class="st9" transform="matrix(0.5956 -0.8033 0.8033 0.5956 -26.3381 586.7655)"/></g><g><rect width="120.3" height=".5" x="541.4" y="343" class="st9" transform="matrix(0.5956 -0.8033 0.8033 0.5956 -32.4732 622.0596)"/></g><g><rect width="120.3" height=".5" x="573.4" y="366.8" class="st9" transform="matrix(0.5956 -0.8033 0.8033 0.5956 -38.608 657.354)"/></g><g><rect width="120.3" height=".5" x="525.4" y="331.2" class="st9" transform="matrix(0.5956 -0.8033 0.8033 0.5956 -29.4058 604.4123)"/></g><g><rect width="120.3" height=".5" x="557.4" y="354.9" class="st9" transform="matrix(0.5956 -0.8033 0.8033 0.5956 -35.5406 639.7068)"/></g><g><rect width="120.3" height=".5" x="589.4" y="378.6" class="st9" transform="matrix(0.5956 -0.8033 0.8033 0.5956 -41.6755 675.0007)"/></g></g></g></g><g class="st7"><g><defs><rect id="SVGID_11_" width="119.5" height="119.5" x="596.3" y="26.3" transform="matrix(0.596 -0.803 0.803 0.596 195.937 561.5903)"/></defs><clipPath id="SVGID_12_"><use style="overflow:visible" xlink:href="#SVGID_11_"/></clipPath><g class="st13"><g><rect width="120.3" height=".5" x="484.7" y="152.1" class="st9" transform="matrix(0.5956 -0.8033 0.8033 0.5956 97.9492 499.287)"/></g><g><rect width="120.3" height=".5" x="516.7" y="175.9" class="st9" transform="matrix(0.5956 -0.8033 0.8033 0.5956 91.8143 534.5814)"/></g><g><rect width="120.3" height=".5" x="548.7" y="199.6" class="st9" transform="matrix(0.5956 -0.8033 0.8033 0.5956 85.6795 569.8759)"/></g><g><rect width="120.3" height=".5" x="500.7" y="164" class="st9" transform="matrix(0.5956 -0.8033 0.8033 0.5956 94.8818 516.9342)"/></g><g><rect width="120.3" height=".5" x="532.7" y="187.7" class="st9" transform="matrix(0.5956 -0.8033 0.8033 0.5956 88.7469 552.2286)"/></g><g><rect width="120.3" height=".5" x="564.7" y="211.5" class="st9" transform="matrix(0.5956 -0.8033 0.8033 0.5956 82.6119 587.5227)"/></g></g><g class="st13"><g><rect width=".5" height="120.3" x="722.1" y="137.1" class="st9" transform="matrix(0.596 -0.803 0.803 0.596 133.4219 659.7448)"/></g><g><rect width=".5" height="120.3" x="745.8" y="105.1" class="st9" transform="matrix(0.596 -0.803 0.803 0.596 168.6965 665.8832)"/></g><g><rect width=".5" height="120.3" x="769.6" y="73.1" class="st9" transform="matrix(0.596 -0.803 0.803 0.596 203.9743 672.0256)"/></g><g><rect width=".5" height="120.3" x="734" y="121.1" class="st9" transform="matrix(0.596 -0.803 0.803 0.596 151.0583 662.8131)"/></g><g><rect width=".5" height="120.3" x="757.7" y="89.1" class="st9" transform="matrix(0.596 -0.803 0.803 0.596 186.3346 668.9534)"/></g><g><rect width=".5" height="120.3" x="781.4" y="57.2" class="st9" transform="matrix(0.596 -0.803 0.803 0.596 221.6125 675.0957)"/></g></g><g class="st13"><g><rect width="120.3" height=".5" x="555.9" y="56.2" class="st9" transform="matrix(0.5956 -0.8033 0.8033 0.5956 203.8322 517.6917)"/></g><g><rect width="120.3" height=".5" x="587.9" y="79.9" class="st9" transform="matrix(0.5956 -0.8033 0.8033 0.5956 197.6973 552.9861)"/></g><g><rect width="120.3" height=".5" x="619.9" y="103.6" class="st9" transform="matrix(0.5956 -0.8033 0.8033 0.5956 191.5623 588.2802)"/></g><g><rect width=".5" height="120.3" x="626.1" y="65.9" class="st9" transform="matrix(0.596 -0.803 0.803 0.596 151.8416 553.9149)"/></g><g><rect width=".5" height="120.3" x="649.9" y="33.9" class="st9" transform="matrix(0.596 -0.803 0.803 0.596 187.1179 560.0552)"/></g><g><rect width=".5" height="120.3" x="673.6" y="1.9" class="st9" transform="matrix(0.596 -0.803 0.803 0.596 222.3956 566.1971)"/></g><g><rect width=".5" height="120.3" x="638" y="49.9" class="st9" transform="matrix(0.596 -0.803 0.803 0.596 169.4798 556.985)"/></g><g><rect width=".5" height="120.3" x="661.7" y="17.9" class="st9" transform="matrix(0.596 -0.803 0.803 0.596 204.7574 563.127)"/></g><g><rect width=".5" height="120.3" x="685.5" y="-14.1" class="st9" transform="matrix(0.596 -0.803 0.803 0.596 240.032 569.2659)"/></g><g><rect width="120.3" height=".5" x="571.9" y="68" class="st9" transform="matrix(0.5956 -0.8033 0.8033 0.5956 200.7647 535.3389)"/></g><g><rect width="120.3" height=".5" x="603.9" y="91.8" class="st9" transform="matrix(0.5956 -0.8033 0.8033 0.5956 194.6299 570.6334)"/></g><g><rect width="120.3" height=".5" x="635.9" y="115.5" class="st9" transform="matrix(0.5956 -0.8033 0.8033 0.5956 188.4948 605.9274)"/></g></g><g class="st13"><g><rect width=".5" height="120.3" x="530.2" y="-5.3" class="st9" transform="matrix(0.596 -0.803 0.803 0.596 170.2627 448.086)"/></g><g><rect width=".5" height="120.3" x="553.9" y="-37.3" class="st9" transform="matrix(0.596 -0.803 0.803 0.596 205.5402 454.2276)"/></g><g><rect width=".5" height="120.3" x="577.7" y="-69.3" class="st9" transform="matrix(0.596 -0.803 0.803 0.596 240.8149 460.3669)"/></g><g><rect width=".5" height="120.3" x="542" y="-21.3" class="st9" transform="matrix(0.596 -0.803 0.803 0.596 187.902 451.1575)"/></g><g><rect width=".5" height="120.3" x="565.8" y="-53.3" class="st9" transform="matrix(0.596 -0.803 0.803 0.596 223.1767 457.2968)"/></g><g><rect width=".5" height="120.3" x="589.5" y="-85.3" class="st9" transform="matrix(0.596 -0.803 0.803 0.596 258.453 463.4371)"/></g></g><g class="st13"><g><rect width="120.3" height=".5" x="627.1" y="-39.8" class="st9" transform="matrix(0.5956 -0.8033 0.8033 0.5956 309.7151 536.0964)"/></g><g><rect width="120.3" height=".5" x="659.1" y="-16.1" class="st9" transform="matrix(0.5956 -0.8033 0.8033 0.5956 303.5801 571.3905)"/></g><g><rect width="120.3" height=".5" x="691.1" y="7.7" class="st9" transform="matrix(0.5956 -0.8033 0.8033 0.5956 297.4452 606.6849)"/></g><g><rect width="120.3" height=".5" x="643.1" y="-27.9" class="st9" transform="matrix(0.5956 -0.8033 0.8033 0.5956 306.6477 553.7437)"/></g><g><rect width="120.3" height=".5" x="675.1" y="-4.2" class="st9" transform="matrix(0.5956 -0.8033 0.8033 0.5956 300.5127 589.0377)"/></g><g><rect width="120.3" height=".5" x="707.1" y="19.5" class="st9" transform="matrix(0.5956 -0.8033 0.8033 0.5956 294.3778 624.3322)"/></g></g></g></g><g class="st7"><g><defs><rect id="SVGID_13_" width="119.5" height="119.5" x="525.1" y="122.3" transform="matrix(0.596 -0.803 0.803 0.596 90.1085 543.1692)"/></defs><clipPath id="SVGID_14_"><use style="overflow:visible" xlink:href="#SVGID_13_"/></clipPath><g class="st14"><g><rect width="120.3" height=".5" x="413.5" y="248.1" class="st9" transform="matrix(0.5956 -0.8033 0.8033 0.5956 -7.9338 480.8822)"/></g><g><rect width="120.3" height=".5" x="445.5" y="271.8" class="st9" transform="matrix(0.5956 -0.8033 0.8033 0.5956 -14.0686 516.1767)"/></g><g><rect width="120.3" height=".5" x="477.4" y="295.6" class="st9" transform="matrix(0.5956 -0.8033 0.8033 0.5956 -20.2035 551.4711)"/></g><g><rect width="120.3" height=".5" x="429.5" y="259.9" class="st9" transform="matrix(0.5956 -0.8033 0.8033 0.5956 -11.0012 498.5294)"/></g><g><rect width="120.3" height=".5" x="461.5" y="283.7" class="st9" transform="matrix(0.5956 -0.8033 0.8033 0.5956 -17.1361 533.8239)"/></g><g><rect width="120.3" height=".5" x="493.4" y="307.4" class="st9" transform="matrix(0.5956 -0.8033 0.8033 0.5956 -23.2707 569.1182)"/></g></g><g class="st14"><g><rect width=".5" height="120.3" x="650.9" y="233.1" class="st9" transform="matrix(0.596 -0.803 0.803 0.596 27.5931 641.3236)"/></g><g><rect width=".5" height="120.3" x="674.6" y="201.1" class="st9" transform="matrix(0.596 -0.803 0.803 0.596 62.868 647.462)"/></g><g><rect width=".5" height="120.3" x="698.4" y="169.1" class="st9" transform="matrix(0.596 -0.803 0.803 0.596 98.1443 653.6024)"/></g><g><rect width=".5" height="120.3" x="662.7" y="217.1" class="st9" transform="matrix(0.596 -0.803 0.803 0.596 45.2299 644.3918)"/></g><g><rect width=".5" height="120.3" x="686.5" y="185.1" class="st9" transform="matrix(0.596 -0.803 0.803 0.596 80.5062 650.5322)"/></g><g><rect width=".5" height="120.3" x="710.2" y="153.1" class="st9" transform="matrix(0.596 -0.803 0.803 0.596 115.7837 656.6746)"/></g></g><g class="st14"><g><rect width="120.3" height=".5" x="484.7" y="152.1" class="st9" transform="matrix(0.5956 -0.8033 0.8033 0.5956 97.9492 499.287)"/></g><g><rect width="120.3" height=".5" x="516.7" y="175.9" class="st9" transform="matrix(0.5956 -0.8033 0.8033 0.5956 91.8143 534.5814)"/></g><g><rect width="120.3" height=".5" x="548.7" y="199.6" class="st9" transform="matrix(0.5956 -0.8033 0.8033 0.5956 85.6795 569.8759)"/></g><g><rect width=".5" height="120.3" x="554.9" y="161.9" class="st9" transform="matrix(0.596 -0.803 0.803 0.596 46.0132 535.4936)"/></g><g><rect width=".5" height="120.3" x="578.7" y="129.9" class="st9" transform="matrix(0.596 -0.803 0.803 0.596 81.2895 541.634)"/></g><g><rect width=".5" height="120.3" x="602.4" y="97.9" class="st9" transform="matrix(0.596 -0.803 0.803 0.596 116.5668 547.776)"/></g><g><rect width=".5" height="120.3" x="566.8" y="145.9" class="st9" transform="matrix(0.596 -0.803 0.803 0.596 63.6513 538.5638)"/></g><g><rect width=".5" height="120.3" x="590.5" y="113.9" class="st9" transform="matrix(0.596 -0.803 0.803 0.596 98.9286 544.7059)"/></g><g><rect width=".5" height="120.3" x="614.3" y="81.9" class="st9" transform="matrix(0.596 -0.803 0.803 0.596 134.2035 550.8447)"/></g><g><rect width="120.3" height=".5" x="500.7" y="164" class="st9" transform="matrix(0.5956 -0.8033 0.8033 0.5956 94.8818 516.9342)"/></g><g><rect width="120.3" height=".5" x="532.7" y="187.7" class="st9" transform="matrix(0.5956 -0.8033 0.8033 0.5956 88.7469 552.2286)"/></g><g><rect width="120.3" height=".5" x="564.7" y="211.5" class="st9" transform="matrix(0.5956 -0.8033 0.8033 0.5956 82.6119 587.5227)"/></g></g><g class="st14"><g><rect width=".5" height="120.3" x="459" y="90.6" class="st9" transform="matrix(0.596 -0.803 0.803 0.596 64.4331 429.6633)"/></g><g><rect width=".5" height="120.3" x="482.7" y="58.6" class="st9" transform="matrix(0.596 -0.803 0.803 0.596 99.7114 435.8065)"/></g><g><rect width=".5" height="120.3" x="506.4" y="26.7" class="st9" transform="matrix(0.596 -0.803 0.803 0.596 134.9864 441.9457)"/></g><g><rect width=".5" height="120.3" x="470.8" y="74.6" class="st9" transform="matrix(0.596 -0.803 0.803 0.596 82.0712 432.7335)"/></g><g><rect width=".5" height="120.3" x="494.6" y="42.7" class="st9" transform="matrix(0.596 -0.803 0.803 0.596 117.3496 438.8766)"/></g><g><rect width=".5" height="120.3" x="518.3" y="10.7" class="st9" transform="matrix(0.596 -0.803 0.803 0.596 152.6246 445.0159)"/></g></g><g class="st14"><g><rect width="120.3" height=".5" x="555.9" y="56.2" class="st9" transform="matrix(0.5956 -0.8033 0.8033 0.5956 203.8322 517.6917)"/></g><g><rect width="120.3" height=".5" x="587.9" y="79.9" class="st9" transform="matrix(0.5956 -0.8033 0.8033 0.5956 197.6973 552.9861)"/></g><g><rect width="120.3" height=".5" x="619.9" y="103.6" class="st9" transform="matrix(0.5956 -0.8033 0.8033 0.5956 191.5623 588.2802)"/></g><g><rect width="120.3" height=".5" x="571.9" y="68" class="st9" transform="matrix(0.5956 -0.8033 0.8033 0.5956 200.7647 535.3389)"/></g><g><rect width="120.3" height=".5" x="603.9" y="91.8" class="st9" transform="matrix(0.5956 -0.8033 0.8033 0.5956 194.6299 570.6334)"/></g><g><rect width="120.3" height=".5" x="635.9" y="115.5" class="st9" transform="matrix(0.5956 -0.8033 0.8033 0.5956 188.4948 605.9274)"/></g></g></g></g><g class="st7"><g><defs><rect id="SVGID_15_" width="119.5" height="119.5" x="453.9" y="218.2" transform="matrix(0.596 -0.803 0.803 0.596 -15.7199 524.748)"/></defs><clipPath id="SVGID_16_"><use style="overflow:visible" xlink:href="#SVGID_15_"/></clipPath><g class="st15"><g><rect width="120.3" height=".5" x="342.3" y="344" class="st9" transform="matrix(0.5965 -0.8026 0.8026 0.5965 -113.9544 461.8745)"/></g><g><rect width="120.3" height=".5" x="374.2" y="367.8" class="st9" transform="matrix(0.5956 -0.8033 0.8033 0.5956 -119.9516 497.7719)"/></g><g><rect width="120.3" height=".5" x="406.2" y="391.5" class="st9" transform="matrix(0.5956 -0.8033 0.8033 0.5956 -126.0865 533.0664)"/></g><g><rect width="120.3" height=".5" x="358.2" y="355.9" class="st9" transform="matrix(0.5956 -0.8033 0.8033 0.5956 -116.8842 480.1247)"/></g><g><rect width="120.3" height=".5" x="390.2" y="379.6" class="st9" transform="matrix(0.5956 -0.8033 0.8033 0.5956 -123.019 515.4192)"/></g><g><rect width="120.3" height=".5" x="422.2" y="403.4" class="st9" transform="matrix(0.5956 -0.8033 0.8033 0.5956 -129.1539 550.7136)"/></g></g><g class="st15"><g><rect width=".5" height="120.3" x="579.7" y="329" class="st9" transform="matrix(0.596 -0.803 0.803 0.596 -78.2374 622.8975)"/></g><g><rect width=".5" height="120.3" x="603.4" y="297" class="st9" transform="matrix(0.596 -0.803 0.803 0.596 -42.9613 629.0379)"/></g><g><rect width=".5" height="120.3" x="627.1" y="265.1" class="st9" transform="matrix(0.596 -0.803 0.803 0.596 -7.6854 635.1784)"/></g><g><rect width=".5" height="120.3" x="591.5" y="313" class="st9" transform="matrix(0.596 -0.803 0.803 0.596 -60.5994 625.9677)"/></g><g><rect width=".5" height="120.3" x="615.3" y="281.1" class="st9" transform="matrix(0.596 -0.803 0.803 0.596 -25.3233 632.1082)"/></g><g><rect width=".5" height="120.3" x="639" y="249.1" class="st9" transform="matrix(0.596 -0.803 0.803 0.596 9.9549 638.2534)"/></g></g><g class="st15"><g><rect width="120.3" height=".5" x="413.5" y="248.1" class="st9" transform="matrix(0.5956 -0.8033 0.8033 0.5956 -7.9338 480.8822)"/></g><g><rect width="120.3" height=".5" x="445.5" y="271.8" class="st9" transform="matrix(0.5956 -0.8033 0.8033 0.5956 -14.0686 516.1767)"/></g><g><rect width="120.3" height=".5" x="477.4" y="295.6" class="st9" transform="matrix(0.5956 -0.8033 0.8033 0.5956 -20.2035 551.4711)"/></g><g><rect width=".5" height="120.3" x="483.7" y="257.8" class="st9" transform="matrix(0.596 -0.803 0.803 0.596 -59.8152 517.0724)"/></g><g><rect width=".5" height="120.3" x="507.4" y="225.8" class="st9" transform="matrix(0.596 -0.803 0.803 0.596 -24.539 523.2127)"/></g><g><rect width=".5" height="120.3" x="531.2" y="193.8" class="st9" transform="matrix(0.596 -0.803 0.803 0.596 10.738 529.3549)"/></g><g><rect width=".5" height="120.3" x="495.6" y="241.8" class="st9" transform="matrix(0.596 -0.803 0.803 0.596 -42.1771 520.1425)"/></g><g><rect width=".5" height="120.3" x="519.3" y="209.8" class="st9" transform="matrix(0.596 -0.803 0.803 0.596 -6.9008 526.2829)"/></g><g><rect width=".5" height="120.3" x="543" y="177.8" class="st9" transform="matrix(0.596 -0.803 0.803 0.596 28.3762 532.425)"/></g><g><rect width="120.3" height=".5" x="429.5" y="259.9" class="st9" transform="matrix(0.5956 -0.8033 0.8033 0.5956 -11.0012 498.5294)"/></g><g><rect width="120.3" height=".5" x="461.5" y="283.7" class="st9" transform="matrix(0.5956 -0.8033 0.8033 0.5956 -17.1361 533.8239)"/></g><g><rect width="120.3" height=".5" x="493.4" y="307.4" class="st9" transform="matrix(0.5956 -0.8033 0.8033 0.5956 -23.2707 569.1182)"/></g></g><g class="st15"><g><rect width=".5" height="120.3" x="387.7" y="186.6" class="st9" transform="matrix(0.596 -0.803 0.803 0.596 -41.3935 411.2451)"/></g><g><rect width=".5" height="120.3" x="411.5" y="154.6" class="st9" transform="matrix(0.596 -0.803 0.803 0.596 -6.1178 417.3845)"/></g><g><rect width=".5" height="120.3" x="435.2" y="122.6" class="st9" transform="matrix(0.596 -0.803 0.803 0.596 29.157 423.5229)"/></g><g><rect width=".5" height="120.3" x="399.6" y="170.6" class="st9" transform="matrix(0.596 -0.803 0.803 0.596 -23.7564 414.3129)"/></g><g><rect width=".5" height="120.3" x="423.3" y="138.6" class="st9" transform="matrix(0.596 -0.803 0.803 0.596 11.5203 420.4547)"/></g><g><rect width=".5" height="120.3" x="447.1" y="106.6" class="st9" transform="matrix(0.596 -0.803 0.803 0.596 46.7951 426.5931)"/></g></g><g class="st15"><g><rect width="120.3" height=".5" x="484.7" y="152.1" class="st9" transform="matrix(0.5956 -0.8033 0.8033 0.5956 97.9492 499.287)"/></g><g><rect width="120.3" height=".5" x="516.7" y="175.9" class="st9" transform="matrix(0.5956 -0.8033 0.8033 0.5956 91.8143 534.5814)"/></g><g><rect width="120.3" height=".5" x="548.7" y="199.6" class="st9" transform="matrix(0.5956 -0.8033 0.8033 0.5956 85.6795 569.8759)"/></g><g><rect width="120.3" height=".5" x="500.7" y="164" class="st9" transform="matrix(0.5956 -0.8033 0.8033 0.5956 94.8818 516.9342)"/></g><g><rect width="120.3" height=".5" x="532.7" y="187.7" class="st9" transform="matrix(0.5956 -0.8033 0.8033 0.5956 88.7469 552.2286)"/></g><g><rect width="120.3" height=".5" x="564.7" y="211.5" class="st9" transform="matrix(0.5956 -0.8033 0.8033 0.5956 82.6119 587.5227)"/></g></g></g></g><g class="st7"><g><defs><rect id="SVGID_17_" width="119.5" height="119.5" x="382.6" y="314.2" transform="matrix(0.596 -0.803 0.803 0.596 -121.5483 506.3269)"/></defs><clipPath id="SVGID_18_"><use style="overflow:visible" xlink:href="#SVGID_17_"/></clipPath><g class="st16"><g><rect width="120.3" height=".5" x="271" y="440" class="st9" transform="matrix(0.5965 -0.8026 0.8026 0.5965 -219.7033 443.4291)"/></g><g><rect width="120.3" height=".5" x="303" y="463.7" class="st9" transform="matrix(0.5965 -0.8026 0.8026 0.5965 -225.8518 478.6786)"/></g><g><rect width="120.3" height=".5" x="335" y="487.5" class="st9" transform="matrix(0.5965 -0.8026 0.8026 0.5965 -232.0001 513.9285)"/></g><g><rect width="120.3" height=".5" x="287" y="451.9" class="st9" transform="matrix(0.5965 -0.8026 0.8026 0.5965 -222.7774 461.054)"/></g><g><rect width="120.3" height=".5" x="319" y="475.6" class="st9" transform="matrix(0.5965 -0.8026 0.8026 0.5965 -228.9259 496.3035)"/></g><g><rect width="120.3" height=".5" x="351" y="499.3" class="st9" transform="matrix(0.5965 -0.8026 0.8026 0.5965 -235.0743 531.5534)"/></g></g><g class="st16"><g><rect width=".5" height="120.3" x="508.4" y="425" class="st9" transform="matrix(0.596 -0.803 0.803 0.596 -184.0649 604.4776)"/></g><g><rect width=".5" height="120.3" x="532.2" y="393" class="st9" transform="matrix(0.596 -0.803 0.803 0.596 -148.7888 610.618)"/></g><g><rect width=".5" height="120.3" x="555.9" y="361" class="st9" transform="matrix(0.596 -0.803 0.803 0.596 -113.5117 616.7629)"/></g><g><rect width=".5" height="120.3" x="520.3" y="409" class="st9" transform="matrix(0.596 -0.803 0.803 0.596 -166.4268 607.5478)"/></g><g><rect width=".5" height="120.3" x="544" y="377" class="st9" transform="matrix(0.596 -0.803 0.803 0.596 -131.1499 613.6927)"/></g><g><rect width=".5" height="120.3" x="567.8" y="345" class="st9" transform="matrix(0.596 -0.803 0.803 0.596 -95.8755 619.8273)"/></g></g><g class="st16"><g><rect width="120.3" height=".5" x="342.3" y="344" class="st9" transform="matrix(0.5965 -0.8026 0.8026 0.5965 -113.9544 461.8745)"/></g><g><rect width="120.3" height=".5" x="374.2" y="367.8" class="st9" transform="matrix(0.5956 -0.8033 0.8033 0.5956 -119.9516 497.7719)"/></g><g><rect width="120.3" height=".5" x="406.2" y="391.5" class="st9" transform="matrix(0.5956 -0.8033 0.8033 0.5956 -126.0865 533.0664)"/></g><g><rect width=".5" height="120.3" x="412.5" y="353.8" class="st9" transform="matrix(0.596 -0.803 0.803 0.596 -165.6439 498.6479)"/></g><g><rect width=".5" height="120.3" x="436.2" y="321.8" class="st9" transform="matrix(0.596 -0.803 0.803 0.596 -130.3678 504.7896)"/></g><g><rect width=".5" height="120.3" x="460" y="289.8" class="st9" transform="matrix(0.596 -0.803 0.803 0.596 -95.0913 510.9319)"/></g><g><rect width=".5" height="120.3" x="424.3" y="337.8" class="st9" transform="matrix(0.596 -0.803 0.803 0.596 -148.006 501.7182)"/></g><g><rect width=".5" height="120.3" x="448.1" y="305.8" class="st9" transform="matrix(0.596 -0.803 0.803 0.596 -112.7297 507.8598)"/></g><g><rect width=".5" height="120.3" x="471.8" y="273.8" class="st9" transform="matrix(0.596 -0.803 0.803 0.596 -77.4526 514.0039)"/></g><g><rect width="120.3" height=".5" x="358.2" y="355.9" class="st9" transform="matrix(0.5956 -0.8033 0.8033 0.5956 -116.8842 480.1247)"/></g><g><rect width="120.3" height=".5" x="390.2" y="379.6" class="st9" transform="matrix(0.5956 -0.8033 0.8033 0.5956 -123.019 515.4192)"/></g><g><rect width="120.3" height=".5" x="422.2" y="403.4" class="st9" transform="matrix(0.5956 -0.8033 0.8033 0.5956 -129.1539 550.7136)"/></g></g><g class="st16"><g><rect width=".5" height="120.3" x="316.5" y="282.6" class="st9" transform="matrix(0.596 -0.803 0.803 0.596 -147.2226 392.8203)"/></g><g><rect width=".5" height="120.3" x="340.3" y="250.6" class="st9" transform="matrix(0.596 -0.803 0.803 0.596 -111.9459 398.965)"/></g><g><rect width=".5" height="120.3" x="364" y="218.6" class="st9" transform="matrix(0.596 -0.803 0.803 0.596 -76.6699 405.1048)"/></g><g><rect width=".5" height="120.3" x="328.4" y="266.6" class="st9" transform="matrix(0.596 -0.803 0.803 0.596 -129.5844 395.8918)"/></g><g><rect width=".5" height="120.3" x="352.1" y="234.6" class="st9" transform="matrix(0.596 -0.803 0.803 0.596 -94.3075 402.036)"/></g><g><rect width=".5" height="120.3" x="375.9" y="202.6" class="st9" transform="matrix(0.596 -0.803 0.803 0.596 -59.0317 408.175)"/></g></g><g class="st16"><g><rect width="120.3" height=".5" x="413.5" y="248.1" class="st9" transform="matrix(0.5956 -0.8033 0.8033 0.5956 -7.9338 480.8822)"/></g><g><rect width="120.3" height=".5" x="445.5" y="271.8" class="st9" transform="matrix(0.5956 -0.8033 0.8033 0.5956 -14.0686 516.1767)"/></g><g><rect width="120.3" height=".5" x="477.4" y="295.6" class="st9" transform="matrix(0.5956 -0.8033 0.8033 0.5956 -20.2035 551.4711)"/></g><g><rect width="120.3" height=".5" x="429.5" y="259.9" class="st9" transform="matrix(0.5956 -0.8033 0.8033 0.5956 -11.0012 498.5294)"/></g><g><rect width="120.3" height=".5" x="461.5" y="283.7" class="st9" transform="matrix(0.5956 -0.8033 0.8033 0.5956 -17.1361 533.8239)"/></g><g><rect width="120.3" height=".5" x="493.4" y="307.4" class="st9" transform="matrix(0.5956 -0.8033 0.8033 0.5956 -23.2707 569.1182)"/></g></g></g></g><g class="st7"><g><defs><rect id="SVGID_19_" width="119.5" height="119.5" x="500.4" y="-44.9" transform="matrix(0.596 -0.803 0.803 0.596 214.3581 455.7619)"/></defs><clipPath id="SVGID_20_"><use style="overflow:visible" xlink:href="#SVGID_19_"/></clipPath><g class="st17"><g><rect width="120.3" height=".5" x="388.7" y="80.9" class="st9" transform="matrix(0.5956 -0.8033 0.8033 0.5956 116.3539 393.404)"/></g><g><rect width="120.3" height=".5" x="420.7" y="104.6" class="st9" transform="matrix(0.5956 -0.8033 0.8033 0.5956 110.2191 428.6984)"/></g><g><rect width="120.3" height=".5" x="452.7" y="128.4" class="st9" transform="matrix(0.5956 -0.8033 0.8033 0.5956 104.084 463.9925)"/></g><g><rect width="120.3" height=".5" x="404.7" y="92.8" class="st9" transform="matrix(0.5956 -0.8033 0.8033 0.5956 113.2865 411.0512)"/></g><g><rect width="120.3" height=".5" x="436.7" y="116.5" class="st9" transform="matrix(0.5956 -0.8033 0.8033 0.5956 107.1516 446.3456)"/></g><g><rect width="120.3" height=".5" x="468.7" y="140.2" class="st9" transform="matrix(0.5956 -0.8033 0.8033 0.5956 101.0166 481.6397)"/></g></g><g class="st17"><g><rect width=".5" height="120.3" x="626.1" y="65.9" class="st9" transform="matrix(0.596 -0.803 0.803 0.596 151.8416 553.9149)"/></g><g><rect width=".5" height="120.3" x="649.9" y="33.9" class="st9" transform="matrix(0.596 -0.803 0.803 0.596 187.1179 560.0552)"/></g><g><rect width=".5" height="120.3" x="673.6" y="1.9" class="st9" transform="matrix(0.596 -0.803 0.803 0.596 222.3956 566.1971)"/></g><g><rect width=".5" height="120.3" x="638" y="49.9" class="st9" transform="matrix(0.596 -0.803 0.803 0.596 169.4798 556.985)"/></g><g><rect width=".5" height="120.3" x="661.7" y="17.9" class="st9" transform="matrix(0.596 -0.803 0.803 0.596 204.7574 563.127)"/></g><g><rect width=".5" height="120.3" x="685.5" y="-14.1" class="st9" transform="matrix(0.596 -0.803 0.803 0.596 240.032 569.2659)"/></g></g><g class="st17"><g><rect width="120.3" height=".5" x="460" y="-15.1" class="st9" transform="matrix(0.5956 -0.8033 0.8033 0.5956 222.2369 411.8087)"/></g><g><rect width="120.3" height=".5" x="491.9" y="8.7" class="st9" transform="matrix(0.5956 -0.8033 0.8033 0.5956 216.1018 447.1028)"/></g><g><rect width="120.3" height=".5" x="523.9" y="32.4" class="st9" transform="matrix(0.5956 -0.8033 0.8033 0.5956 209.967 482.3972)"/></g><g><rect width=".5" height="120.3" x="530.2" y="-5.3" class="st9" transform="matrix(0.596 -0.803 0.803 0.596 170.2627 448.086)"/></g><g><rect width=".5" height="120.3" x="553.9" y="-37.3" class="st9" transform="matrix(0.596 -0.803 0.803 0.596 205.5402 454.2276)"/></g><g><rect width=".5" height="120.3" x="577.7" y="-69.3" class="st9" transform="matrix(0.596 -0.803 0.803 0.596 240.8149 460.3669)"/></g><g><rect width=".5" height="120.3" x="542" y="-21.3" class="st9" transform="matrix(0.596 -0.803 0.803 0.596 187.902 451.1575)"/></g><g><rect width=".5" height="120.3" x="565.8" y="-53.3" class="st9" transform="matrix(0.596 -0.803 0.803 0.596 223.1767 457.2968)"/></g><g><rect width=".5" height="120.3" x="589.5" y="-85.3" class="st9" transform="matrix(0.596 -0.803 0.803 0.596 258.453 463.4371)"/></g><g><rect width="120.3" height=".5" x="475.9" y="-3.2" class="st9" transform="matrix(0.5956 -0.8033 0.8033 0.5956 219.1695 429.4559)"/></g><g><rect width="120.3" height=".5" x="507.9" y="20.5" class="st9" transform="matrix(0.5956 -0.8033 0.8033 0.5956 213.0344 464.75)"/></g><g><rect width="120.3" height=".5" x="539.9" y="44.3" class="st9" transform="matrix(0.5956 -0.8033 0.8033 0.5956 206.8996 500.0445)"/></g></g><g class="st17"><g><rect width=".5" height="120.3" x="434.2" y="-76.5" class="st9" transform="matrix(0.596 -0.803 0.803 0.596 188.6851 342.2589)"/></g><g><rect width=".5" height="120.3" x="458" y="-108.5" class="st9" transform="matrix(0.596 -0.803 0.803 0.596 223.96 348.3985)"/></g><g><rect width=".5" height="120.3" x="481.7" y="-140.5" class="st9" transform="matrix(0.596 -0.803 0.803 0.596 259.2363 354.5389)"/></g><g><rect width=".5" height="120.3" x="446.1" y="-92.5" class="st9" transform="matrix(0.596 -0.803 0.803 0.596 206.3233 345.329)"/></g><g><rect width=".5" height="120.3" x="469.8" y="-124.5" class="st9" transform="matrix(0.596 -0.803 0.803 0.596 241.5982 351.4687)"/></g><g><rect width=".5" height="120.3" x="493.6" y="-156.5" class="st9" transform="matrix(0.596 -0.803 0.803 0.596 276.8757 357.6099)"/></g></g><g class="st17"><g><rect width="120.3" height=".5" x="531.2" y="-111" class="st9" transform="matrix(0.5956 -0.8033 0.8033 0.5956 328.1197 430.213)"/></g><g><rect width="120.3" height=".5" x="563.2" y="-87.3" class="st9" transform="matrix(0.5956 -0.8033 0.8033 0.5956 321.9848 465.5075)"/></g><g><rect width="120.3" height=".5" x="595.1" y="-63.5" class="st9" transform="matrix(0.5956 -0.8033 0.8033 0.5956 315.85 500.802)"/></g><g><rect width="120.3" height=".5" x="547.2" y="-99.2" class="st9" transform="matrix(0.5956 -0.8033 0.8033 0.5956 325.0522 447.8603)"/></g><g><rect width="120.3" height=".5" x="579.2" y="-75.4" class="st9" transform="matrix(0.5956 -0.8033 0.8033 0.5956 318.9174 483.1547)"/></g><g><rect width="120.3" height=".5" x="611.1" y="-51.7" class="st9" transform="matrix(0.5956 -0.8033 0.8033 0.5956 312.7825 518.4492)"/></g></g></g></g><g class="st7"><g><defs><rect id="SVGID_21_" width="119.5" height="119.5" x="429.1" y="51.1" transform="matrix(0.596 -0.803 0.803 0.596 108.5297 437.3408)"/></defs><clipPath id="SVGID_22_"><use style="overflow:visible" xlink:href="#SVGID_21_"/></clipPath><g class="st18"><g><rect width="120.3" height=".5" x="317.5" y="176.9" class="st9" transform="matrix(0.5965 -0.8026 0.8026 0.5965 10.24 374.5701)"/></g><g><rect width="120.3" height=".5" x="349.5" y="200.6" class="st9" transform="matrix(0.5965 -0.8026 0.8026 0.5965 4.0917 409.82)"/></g><g><rect width="120.3" height=".5" x="381.5" y="224.3" class="st9" transform="matrix(0.5956 -0.8033 0.8033 0.5956 -1.7988 445.5881)"/></g><g><rect width="120.3" height=".5" x="333.5" y="188.7" class="st9" transform="matrix(0.5965 -0.8026 0.8026 0.5965 7.1658 392.1951)"/></g><g><rect width="120.3" height=".5" x="365.5" y="212.5" class="st9" transform="matrix(0.5956 -0.8033 0.8033 0.5956 1.2687 427.9409)"/></g><g><rect width="120.3" height=".5" x="397.5" y="236.2" class="st9" transform="matrix(0.5956 -0.8033 0.8033 0.5956 -4.8664 463.235)"/></g></g><g class="st18"><g><rect width=".5" height="120.3" x="554.9" y="161.9" class="st9" transform="matrix(0.596 -0.803 0.803 0.596 46.0132 535.4936)"/></g><g><rect width=".5" height="120.3" x="578.7" y="129.9" class="st9" transform="matrix(0.596 -0.803 0.803 0.596 81.2895 541.634)"/></g><g><rect width=".5" height="120.3" x="602.4" y="97.9" class="st9" transform="matrix(0.596 -0.803 0.803 0.596 116.5668 547.776)"/></g><g><rect width=".5" height="120.3" x="566.8" y="145.9" class="st9" transform="matrix(0.596 -0.803 0.803 0.596 63.6513 538.5638)"/></g><g><rect width=".5" height="120.3" x="590.5" y="113.9" class="st9" transform="matrix(0.596 -0.803 0.803 0.596 98.9286 544.7059)"/></g><g><rect width=".5" height="120.3" x="614.3" y="81.9" class="st9" transform="matrix(0.596 -0.803 0.803 0.596 134.2035 550.8447)"/></g></g><g class="st18"><g><rect width="120.3" height=".5" x="388.7" y="80.9" class="st9" transform="matrix(0.5956 -0.8033 0.8033 0.5956 116.3539 393.404)"/></g><g><rect width="120.3" height=".5" x="420.7" y="104.6" class="st9" transform="matrix(0.5956 -0.8033 0.8033 0.5956 110.2191 428.6984)"/></g><g><rect width="120.3" height=".5" x="452.7" y="128.4" class="st9" transform="matrix(0.5956 -0.8033 0.8033 0.5956 104.084 463.9925)"/></g><g><rect width=".5" height="120.3" x="459" y="90.6" class="st9" transform="matrix(0.596 -0.803 0.803 0.596 64.4331 429.6633)"/></g><g><rect width=".5" height="120.3" x="482.7" y="58.6" class="st9" transform="matrix(0.596 -0.803 0.803 0.596 99.7114 435.8065)"/></g><g><rect width=".5" height="120.3" x="506.4" y="26.7" class="st9" transform="matrix(0.596 -0.803 0.803 0.596 134.9864 441.9457)"/></g><g><rect width=".5" height="120.3" x="470.8" y="74.6" class="st9" transform="matrix(0.596 -0.803 0.803 0.596 82.0712 432.7335)"/></g><g><rect width=".5" height="120.3" x="494.6" y="42.7" class="st9" transform="matrix(0.596 -0.803 0.803 0.596 117.3496 438.8766)"/></g><g><rect width=".5" height="120.3" x="518.3" y="10.7" class="st9" transform="matrix(0.596 -0.803 0.803 0.596 152.6246 445.0159)"/></g><g><rect width="120.3" height=".5" x="404.7" y="92.8" class="st9" transform="matrix(0.5956 -0.8033 0.8033 0.5956 113.2865 411.0512)"/></g><g><rect width="120.3" height=".5" x="436.7" y="116.5" class="st9" transform="matrix(0.5956 -0.8033 0.8033 0.5956 107.1516 446.3456)"/></g><g><rect width="120.3" height=".5" x="468.7" y="140.2" class="st9" transform="matrix(0.5956 -0.8033 0.8033 0.5956 101.0166 481.6397)"/></g></g><g class="st18"><g><rect width=".5" height="120.3" x="363" y="19.4" class="st9" transform="matrix(0.596 -0.803 0.803 0.596 82.8563 323.8377)"/></g><g><rect width=".5" height="120.3" x="386.7" y="-12.6" class="st9" transform="matrix(0.596 -0.803 0.803 0.596 118.1316 329.9773)"/></g><g><rect width=".5" height="120.3" x="410.5" y="-44.6" class="st9" transform="matrix(0.596 -0.803 0.803 0.596 153.4079 336.1176)"/></g><g><rect width=".5" height="120.3" x="374.9" y="3.4" class="st9" transform="matrix(0.596 -0.803 0.803 0.596 100.4945 326.9079)"/></g><g><rect width=".5" height="120.3" x="398.6" y="-28.6" class="st9" transform="matrix(0.596 -0.803 0.803 0.596 135.7697 333.0475)"/></g><g><rect width=".5" height="120.3" x="422.3" y="-60.6" class="st9" transform="matrix(0.596 -0.803 0.803 0.596 171.046 339.1878)"/></g></g><g class="st18"><g><rect width="120.3" height=".5" x="460" y="-15.1" class="st9" transform="matrix(0.5956 -0.8033 0.8033 0.5956 222.2369 411.8087)"/></g><g><rect width="120.3" height=".5" x="491.9" y="8.7" class="st9" transform="matrix(0.5956 -0.8033 0.8033 0.5956 216.1018 447.1028)"/></g><g><rect width="120.3" height=".5" x="523.9" y="32.4" class="st9" transform="matrix(0.5956 -0.8033 0.8033 0.5956 209.967 482.3972)"/></g><g><rect width="120.3" height=".5" x="475.9" y="-3.2" class="st9" transform="matrix(0.5956 -0.8033 0.8033 0.5956 219.1695 429.4559)"/></g><g><rect width="120.3" height=".5" x="507.9" y="20.5" class="st9" transform="matrix(0.5956 -0.8033 0.8033 0.5956 213.0344 464.75)"/></g><g><rect width="120.3" height=".5" x="539.9" y="44.3" class="st9" transform="matrix(0.5956 -0.8033 0.8033 0.5956 206.8996 500.0445)"/></g></g></g></g><g class="st7"><g><defs><rect id="SVGID_23_" width="119.5" height="119.5" x="357.9" y="147" transform="matrix(0.596 -0.803 0.803 0.596 2.7013 418.9197)"/></defs><clipPath id="SVGID_24_"><use style="overflow:visible" xlink:href="#SVGID_23_"/></clipPath><g class="st19"><g><rect width="120.3" height=".5" x="246.3" y="272.8" class="st9" transform="matrix(0.5965 -0.8026 0.8026 0.5965 -95.5093 356.125)"/></g><g><rect width="120.3" height=".5" x="278.3" y="296.5" class="st9" transform="matrix(0.5965 -0.8026 0.8026 0.5965 -101.6576 391.3748)"/></g><g><rect width="120.3" height=".5" x="310.3" y="320.3" class="st9" transform="matrix(0.5965 -0.8026 0.8026 0.5965 -107.8059 426.6248)"/></g><g><rect width="120.3" height=".5" x="262.3" y="284.7" class="st9" transform="matrix(0.5965 -0.8026 0.8026 0.5965 -98.5835 373.7499)"/></g><g><rect width="120.3" height=".5" x="294.3" y="308.4" class="st9" transform="matrix(0.5965 -0.8026 0.8026 0.5965 -104.7318 408.9998)"/></g><g><rect width="120.3" height=".5" x="326.3" y="332.2" class="st9" transform="matrix(0.5965 -0.8026 0.8026 0.5965 -110.8801 444.2497)"/></g></g><g class="st19"><g><rect width=".5" height="120.3" x="483.7" y="257.8" class="st9" transform="matrix(0.596 -0.803 0.803 0.596 -59.8152 517.0724)"/></g><g><rect width=".5" height="120.3" x="507.4" y="225.8" class="st9" transform="matrix(0.596 -0.803 0.803 0.596 -24.539 523.2127)"/></g><g><rect width=".5" height="120.3" x="531.2" y="193.8" class="st9" transform="matrix(0.596 -0.803 0.803 0.596 10.738 529.3549)"/></g><g><rect width=".5" height="120.3" x="495.6" y="241.8" class="st9" transform="matrix(0.596 -0.803 0.803 0.596 -42.1771 520.1425)"/></g><g><rect width=".5" height="120.3" x="519.3" y="209.8" class="st9" transform="matrix(0.596 -0.803 0.803 0.596 -6.9008 526.2829)"/></g><g><rect width=".5" height="120.3" x="543" y="177.8" class="st9" transform="matrix(0.596 -0.803 0.803 0.596 28.3762 532.425)"/></g></g><g class="st19"><g><rect width="120.3" height=".5" x="317.5" y="176.9" class="st9" transform="matrix(0.5965 -0.8026 0.8026 0.5965 10.24 374.5701)"/></g><g><rect width="120.3" height=".5" x="349.5" y="200.6" class="st9" transform="matrix(0.5965 -0.8026 0.8026 0.5965 4.0917 409.82)"/></g><g><rect width="120.3" height=".5" x="381.5" y="224.3" class="st9" transform="matrix(0.5956 -0.8033 0.8033 0.5956 -1.7988 445.5881)"/></g><g><rect width=".5" height="120.3" x="387.7" y="186.6" class="st9" transform="matrix(0.596 -0.803 0.803 0.596 -41.3935 411.2451)"/></g><g><rect width=".5" height="120.3" x="411.5" y="154.6" class="st9" transform="matrix(0.596 -0.803 0.803 0.596 -6.1178 417.3845)"/></g><g><rect width=".5" height="120.3" x="435.2" y="122.6" class="st9" transform="matrix(0.596 -0.803 0.803 0.596 29.157 423.5229)"/></g><g><rect width=".5" height="120.3" x="399.6" y="170.6" class="st9" transform="matrix(0.596 -0.803 0.803 0.596 -23.7564 414.3129)"/></g><g><rect width=".5" height="120.3" x="423.3" y="138.6" class="st9" transform="matrix(0.596 -0.803 0.803 0.596 11.5203 420.4547)"/></g><g><rect width=".5" height="120.3" x="447.1" y="106.6" class="st9" transform="matrix(0.596 -0.803 0.803 0.596 46.7951 426.5931)"/></g><g><rect width="120.3" height=".5" x="333.5" y="188.7" class="st9" transform="matrix(0.5965 -0.8026 0.8026 0.5965 7.1658 392.1951)"/></g><g><rect width="120.3" height=".5" x="365.5" y="212.5" class="st9" transform="matrix(0.5956 -0.8033 0.8033 0.5956 1.2687 427.9409)"/></g><g><rect width="120.3" height=".5" x="397.5" y="236.2" class="st9" transform="matrix(0.5956 -0.8033 0.8033 0.5956 -4.8664 463.235)"/></g></g><g class="st19"><g><rect width=".5" height="120.3" x="291.8" y="115.4" class="st9" transform="matrix(0.596 -0.803 0.803 0.596 -22.9725 305.4166)"/></g><g><rect width=".5" height="120.3" x="315.5" y="83.4" class="st9" transform="matrix(0.596 -0.803 0.803 0.596 12.3032 311.556)"/></g><g><rect width=".5" height="120.3" x="339.3" y="51.4" class="st9" transform="matrix(0.596 -0.803 0.803 0.596 47.5794 317.6964)"/></g><g><rect width=".5" height="120.3" x="303.6" y="99.4" class="st9" transform="matrix(0.596 -0.803 0.803 0.596 -5.3343 308.4868)"/></g><g><rect width=".5" height="120.3" x="327.4" y="67.4" class="st9" transform="matrix(0.596 -0.803 0.803 0.596 29.9413 314.6262)"/></g><g><rect width=".5" height="120.3" x="351.1" y="35.4" class="st9" transform="matrix(0.596 -0.803 0.803 0.596 65.2176 320.7666)"/></g></g><g class="st19"><g><rect width="120.3" height=".5" x="388.7" y="80.9" class="st9" transform="matrix(0.5956 -0.8033 0.8033 0.5956 116.3539 393.404)"/></g><g><rect width="120.3" height=".5" x="420.7" y="104.6" class="st9" transform="matrix(0.5956 -0.8033 0.8033 0.5956 110.2191 428.6984)"/></g><g><rect width="120.3" height=".5" x="452.7" y="128.4" class="st9" transform="matrix(0.5956 -0.8033 0.8033 0.5956 104.084 463.9925)"/></g><g><rect width="120.3" height=".5" x="404.7" y="92.8" class="st9" transform="matrix(0.5956 -0.8033 0.8033 0.5956 113.2865 411.0512)"/></g><g><rect width="120.3" height=".5" x="436.7" y="116.5" class="st9" transform="matrix(0.5956 -0.8033 0.8033 0.5956 107.1516 446.3456)"/></g><g><rect width="120.3" height=".5" x="468.7" y="140.2" class="st9" transform="matrix(0.5956 -0.8033 0.8033 0.5956 101.0166 481.6397)"/></g></g></g></g><g class="st7"><g><defs><rect id="SVGID_25_" width="119.5" height="119.5" x="286.7" y="243" transform="matrix(0.596 -0.803 0.803 0.596 -103.1271 400.4985)"/></defs><clipPath id="SVGID_26_"><use style="overflow:visible" xlink:href="#SVGID_25_"/></clipPath><g class="st20"><g><rect width="120.3" height=".5" x="175.1" y="368.8" class="st9" transform="matrix(0.5965 -0.8026 0.8026 0.5965 -201.2583 337.6799)"/></g><g><rect width="120.3" height=".5" x="207.1" y="392.5" class="st9" transform="matrix(0.5965 -0.8026 0.8026 0.5965 -207.4067 372.9296)"/></g><g><rect width="120.3" height=".5" x="239" y="416.2" class="st9" transform="matrix(0.5965 -0.8026 0.8026 0.5965 -213.555 408.1795)"/></g><g><rect width="120.3" height=".5" x="191.1" y="380.6" class="st9" transform="matrix(0.5965 -0.8026 0.8026 0.5965 -204.3325 355.3048)"/></g><g><rect width="120.3" height=".5" x="223.1" y="404.4" class="st9" transform="matrix(0.5965 -0.8026 0.8026 0.5965 -210.4809 390.5545)"/></g><g><rect width="120.3" height=".5" x="255" y="428.1" class="st9" transform="matrix(0.5965 -0.8026 0.8026 0.5965 -216.6291 425.8041)"/></g></g><g class="st20"><g><rect width=".5" height="120.3" x="412.5" y="353.8" class="st9" transform="matrix(0.596 -0.803 0.803 0.596 -165.6439 498.6479)"/></g><g><rect width=".5" height="120.3" x="436.2" y="321.8" class="st9" transform="matrix(0.596 -0.803 0.803 0.596 -130.3678 504.7896)"/></g><g><rect width=".5" height="120.3" x="460" y="289.8" class="st9" transform="matrix(0.596 -0.803 0.803 0.596 -95.0913 510.9319)"/></g><g><rect width=".5" height="120.3" x="424.3" y="337.8" class="st9" transform="matrix(0.596 -0.803 0.803 0.596 -148.006 501.7182)"/></g><g><rect width=".5" height="120.3" x="448.1" y="305.8" class="st9" transform="matrix(0.596 -0.803 0.803 0.596 -112.7297 507.8598)"/></g><g><rect width=".5" height="120.3" x="471.8" y="273.8" class="st9" transform="matrix(0.596 -0.803 0.803 0.596 -77.4526 514.0039)"/></g></g><g class="st20"><g><rect width="120.3" height=".5" x="246.3" y="272.8" class="st9" transform="matrix(0.5965 -0.8026 0.8026 0.5965 -95.5093 356.125)"/></g><g><rect width="120.3" height=".5" x="278.3" y="296.5" class="st9" transform="matrix(0.5965 -0.8026 0.8026 0.5965 -101.6576 391.3748)"/></g><g><rect width="120.3" height=".5" x="310.3" y="320.3" class="st9" transform="matrix(0.5965 -0.8026 0.8026 0.5965 -107.8059 426.6248)"/></g><g><rect width=".5" height="120.3" x="316.5" y="282.6" class="st9" transform="matrix(0.596 -0.803 0.803 0.596 -147.2226 392.8203)"/></g><g><rect width=".5" height="120.3" x="340.3" y="250.6" class="st9" transform="matrix(0.596 -0.803 0.803 0.596 -111.9459 398.965)"/></g><g><rect width=".5" height="120.3" x="364" y="218.6" class="st9" transform="matrix(0.596 -0.803 0.803 0.596 -76.6699 405.1048)"/></g><g><rect width=".5" height="120.3" x="328.4" y="266.6" class="st9" transform="matrix(0.596 -0.803 0.803 0.596 -129.5844 395.8918)"/></g><g><rect width=".5" height="120.3" x="352.1" y="234.6" class="st9" transform="matrix(0.596 -0.803 0.803 0.596 -94.3075 402.036)"/></g><g><rect width=".5" height="120.3" x="375.9" y="202.6" class="st9" transform="matrix(0.596 -0.803 0.803 0.596 -59.0317 408.175)"/></g><g><rect width="120.3" height=".5" x="262.3" y="284.7" class="st9" transform="matrix(0.5965 -0.8026 0.8026 0.5965 -98.5835 373.7499)"/></g><g><rect width="120.3" height=".5" x="294.3" y="308.4" class="st9" transform="matrix(0.5965 -0.8026 0.8026 0.5965 -104.7318 408.9998)"/></g><g><rect width="120.3" height=".5" x="326.3" y="332.2" class="st9" transform="matrix(0.5965 -0.8026 0.8026 0.5965 -110.8801 444.2497)"/></g></g><g class="st20"><g><rect width=".5" height="120.3" x="220.6" y="211.3" class="st9" transform="matrix(0.596 -0.803 0.803 0.596 -128.8011 286.9936)"/></g><g><rect width=".5" height="120.3" x="244.3" y="179.3" class="st9" transform="matrix(0.596 -0.803 0.803 0.596 -93.5249 293.1352)"/></g><g><rect width=".5" height="120.3" x="268" y="147.4" class="st9" transform="matrix(0.596 -0.803 0.803 0.596 -58.249 299.2751)"/></g><g><rect width=".5" height="120.3" x="232.4" y="195.3" class="st9" transform="matrix(0.596 -0.803 0.803 0.596 -111.1631 290.065)"/></g><g><rect width=".5" height="120.3" x="256.2" y="163.4" class="st9" transform="matrix(0.596 -0.803 0.803 0.596 -75.8872 296.2043)"/></g><g><rect width=".5" height="120.3" x="279.9" y="131.4" class="st9" transform="matrix(0.596 -0.803 0.803 0.596 -40.6109 302.3453)"/></g></g><g class="st20"><g><rect width="120.3" height=".5" x="317.5" y="176.9" class="st9" transform="matrix(0.5965 -0.8026 0.8026 0.5965 10.24 374.5701)"/></g><g><rect width="120.3" height=".5" x="349.5" y="200.6" class="st9" transform="matrix(0.5965 -0.8026 0.8026 0.5965 4.0917 409.82)"/></g><g><rect width="120.3" height=".5" x="381.5" y="224.3" class="st9" transform="matrix(0.5956 -0.8033 0.8033 0.5956 -1.7988 445.5881)"/></g><g><rect width="120.3" height=".5" x="333.5" y="188.7" class="st9" transform="matrix(0.5965 -0.8026 0.8026 0.5965 7.1658 392.1951)"/></g><g><rect width="120.3" height=".5" x="365.5" y="212.5" class="st9" transform="matrix(0.5956 -0.8033 0.8033 0.5956 1.2687 427.9409)"/></g><g><rect width="120.3" height=".5" x="397.5" y="236.2" class="st9" transform="matrix(0.5956 -0.8033 0.8033 0.5956 -4.8664 463.235)"/></g></g></g></g></g><g><path d="M503.5,409.9c-25,0-48.2-7.7-68.8-22.9c-34.6-25.7-50.9-64.9-47-113.4c3.3-40.8,21.3-86,49.5-123.9 c27.9-37.6,61.6-62.9,97.3-73.2c39.2-11.2,78.5-3.4,113.7,22.7c35.2,26.1,54.1,61.5,54.7,102.3c0.5,37.2-13.9,76.7-41.8,114.3 c-28.2,38-66.2,68.3-104.3,83.3C538.5,406.3,520.6,409.9,503.5,409.9z M569.2,88c-10,0-20,1.4-30.1,4.3 c-32.3,9.2-62.9,32.5-88.7,67.2c-26.4,35.6-43.3,77.6-46.3,115.4c-2.4,29.7,2.7,70.9,40.4,98.9l0,0c37.7,28,78.6,20.9,106.3,10 c35.3-13.9,70.7-42.2,97.1-77.8c25.7-34.7,39.1-70.8,38.6-104.3c-0.5-35.5-17.1-66.4-48-89.3C616.7,96.2,593.1,88,569.2,88z" class="st5"/></g></g></g><g><rect width="147.7" height="11" x="226.9" y="547.4" class="st21" transform="matrix(0.5959 -0.803 0.803 0.5959 -322.5357 464.9568)"/></g><g><path d="M256.7,617.8c-1.1,0-2.3-0.4-3.3-1.1c-2.4-1.8-3-5.3-1.1-7.7l60.2-81.2c1.8-2.4,5.3-3,7.7-1.1 c2.4,1.8,3,5.3,1.1,7.7l-60.2,81.2C260.1,617,258.4,617.8,256.7,617.8z" class="st21"/></g><g><path d="M387.8,393.8c-0.5,0-0.9,0-1.4-0.1c-4.5-0.7-7.5-5-6.8-9.5c3.8-22.8,6.4-46.6,7.6-70.9l0.5-12.4 c-4.2-47.3,14.2-103.8,49.5-151.3c19.5-26.3,42.7-47.2,67-60.6c4-2.2,9-0.7,11.2,3.3c2.2,4,0.7,9-3.3,11.2 c-22.3,12.2-43.6,31.5-61.7,56c-33,44.5-50.3,97-46.2,140.5l0.1,0.5l-0.5,13.6c-1.3,25-3.9,49.4-7.8,72.8 C395.3,390.9,391.8,393.8,387.8,393.8z" class="st22"/></g><g><path d="M443.9,158.5c-0.8,0-1.6-0.3-2.3-0.8c-1.7-1.3-2.1-3.8-0.8-5.5c6.1-8.3,12.7-16.1,19.5-23.2 c1.5-1.6,4-1.6,5.6-0.1c1.6,1.5,1.6,4,0.1,5.6c-6.6,6.9-12.9,14.4-18.8,22.5C446.2,157.9,445.1,158.5,443.9,158.5z" class="st23"/></g></g><g><g><rect width="14.2" height="526.5" x="223.1" y="119.7" class="st24" transform="matrix(0.8014 -0.5981 0.5981 0.8014 -183.3308 213.7519)"/></g><g><rect width="3" height="526.5" x="231.8" y="118.4" class="st25" transform="matrix(0.8014 -0.5981 0.5981 0.8014 -181.9361 215.3551)"/></g><g><path d="M106.2,45.3c0,0,12-2.2,18.8,0.8c6.8,2.9,8.4,23.3-7.1,60.8c-9.5,23.1-27.7,38.7-27.7,38.7s-13,11-4,26.1 c0,0,11.5,16.1,9.8,21.6s-8.1,13.7-16.5,4.2c-8.4-9.5-21.9-27.5-32.4-35.6c0,0-18.9-21,1.2-67.4S106.2,45.3,106.2,45.3z" class="st26"/></g><g><path d="M118,109c-9.5,23.1-27.7,38.7-27.7,38.7s-4.8,4.1-6.6,10.8c0-9.5,6.6-16.1,6.6-16.1s18.7-19,27.2-45.5 c6.6-20.4,9.2-36.2,9.3-47.5C132.1,55,132.1,75,118,109z" class="st27"/></g><g><path d="M59.9,157.6c0,0,11.6-0.6,31.3-48.6s18.6-51.5,18.6-51.5s0.1-10.3-11.9-5.3S65.3,69.7,55.9,92.2 S41.4,147.8,59.9,157.6z" class="st28"/></g><g><rect width="21.6" height="34.9" x="82.7" y="182.1" class="st29" transform="matrix(0.7994 -0.6008 0.6008 0.7994 -101.1267 96.1701)"/></g></g><g><g class="st30"><path d="M321.7,666.3c0-3.9,60.7-14.7,135.8-15.2s135.9,9.3,136,13.1c0,3.9-60.7,14.7-135.8,15.2 S321.7,670.2,321.7,666.3z" class="st31"/></g><g><g><path d="M663.2,491.5c10.1,26.1-43.2,127.2-142.4,165.6c-99.2,38.4-206.7-0.5-216.8-26.6 c-10.1-26.1,43.2-127.3,142.4-165.7S653.1,465.3,663.2,491.5z" class="st32"/></g><g><path d="M511,455.8c-8.8,28-23,56.9-44.3,82.5c-46,55.4-113.1,80.9-157,85.6c0.5-33.9,51.6-119.4,140.2-153.7 C470.3,462.4,491,457.9,511,455.8z" class="st33"/></g></g><g><path d="M490.6,627.7c0,0,5.8,11.6,11.6,15.5" class="st34"/><path d="M506.5,618.6c0,0,5.9,11.6,11.7,15.4" class="st35"/><path d="M522.5,609.6c0,0,6,11.6,11.8,15.4" class="st36"/><path d="M538.5,600.6c0,0,6,11.5,11.9,15.3" class="st37"/><path d="M554.5,591.6c0,0,6.1,11.5,12,15.2" class="st38"/><path d="M570.4,582.6c0,0,6.2,11.4,12.1,15.1" class="st39"/></g><g><path d="M586.2,583.8c0,0-0.4,0.3-1,0.9c-0.7,0.6-1.7,1.5-3,2.6c-1.3,1.1-2.9,2.4-4.8,3.9c-1.9,1.5-4,3.1-6.4,4.8 c-4.7,3.4-10.3,7.3-16.4,11.3c-6.1,4-12.6,8.2-19.3,12.2c-13.3,8-26.9,15.5-37.5,20.6c-2.6,1.3-5.1,2.4-7.3,3.3 c-2.2,0.9-4.2,1.7-5.9,2.3c-1.7,0.6-3.1,1-4.1,1.2c-1,0.2-1.6,0.3-1.6,0.3c-1.9,0.4-3.9-0.8-4.3-2.8s0.8-3.9,2.8-4.3 c0,0,0.1,0,0.1,0l0.3-0.1c0,0,0.4-0.1,1.1-0.2c0.8-0.2,1.9-0.5,3.5-0.9c1.5-0.5,3.4-1.1,5.5-2c2.1-0.8,4.6-1.8,7.2-3 c10.5-4.6,24.2-11.6,37.7-19.1c6.7-3.8,13.4-7.7,19.5-11.4c6.1-3.8,11.8-7.4,16.6-10.7c2.4-1.6,4.5-3.2,6.4-4.5 c1.9-1.4,3.5-2.6,4.8-3.6c1.3-1,2.3-1.8,3.1-2.4c0.7-0.6,1.1-0.9,1.1-0.9c0.7-0.5,1.7-0.4,2.2,0.2 C587,582.2,586.9,583.2,586.2,583.8z" class="st9"/></g><g><path d="M399.4,671.3c-11.7-1.4-22.8-3.5-33-6.2c-5.3-11.7-10.3-23.7-14.7-35.9c-8.8-24.1-15.6-48.5-20.4-72.9 c6.7-9.5,14.5-19.2,23.4-28.7c4.7,32.2,12.8,64.3,24.4,96.1C385.1,640.1,391.9,655.9,399.4,671.3z" class="st40"/></g><g><path d="M639.4,560.6c-6.2,9.4-13.6,19-22,28.5c-4.7-22.4-11.1-44.6-19.1-66.7c-9.2-25.2-20.3-49.3-33.1-71.9 c12,1.3,23.3,3.4,33.7,6c10.2,19.2,19.1,39.4,26.8,60.4C631,531.3,635.5,545.9,639.4,560.6z" class="st40"/></g></g><g class="st30"><path d="M302.5,666c0,3.7-25.5,8.3-71.2,8.3S160,669.7,160,666s25.5-6.7,71.2-6.7S302.5,662.3,302.5,666z" class="st31"/></g><g><g><ellipse cx="229.8" cy="544.2" class="st41" rx="126.2" ry="126.2" transform="matrix(0.953 -0.303 0.303 0.953 -154.0959 95.2373)"/></g><g><defs><ellipse id="SVGID_27_" cx="229.7" cy="543.8" rx="126.2" ry="126.2" transform="matrix(0.953 -0.303 0.303 0.953 -154.001 95.19)"/></defs><clipPath id="SVGID_28_"><use style="overflow:visible" xlink:href="#SVGID_27_"/></clipPath><g class="st42"><g><path d="M176.1,450.2c0.4-1.7,2.1-3.5,3.8-4l32.4-9.9c1.7-0.5,4.1,0,5.4,1.1l28.5,24.1c1.3,1.1,2,3.4,1.4,5 L236.6,499c-0.6,1.6-2.4,3.4-4,3.9l-32.4,9.9c-1.7,0.5-4.1,0.1-5.5-1l-26.2-20c-1.4-1.1-2.2-3.3-1.7-5L176.1,450.2z" class="st43"/></g><g><path d="M128.7,558.7c-1.5-0.9-2.6-3.1-2.6-4.8l0.6-33.9c0-1.7,1.3-3.9,2.7-4.8l31.7-19.7 c1.5-0.9,3.8-0.8,5.2,0.2l27.5,20.5c1.4,1,2.5,3.3,2.5,5l-0.6,33.9c0,1.7-1.2,4-2.7,4.9l-27.1,18.8c-1.4,1-3.8,1-5.3,0.1 L128.7,558.7z" class="st43"/></g><g><path d="M217.2,637.3c-1.3,1.1-3.8,1.5-5.4,1l-32-11.1c-1.6-0.6-3.3-2.4-3.7-4.1l-8.9-36.2 c-0.4-1.7,0.4-3.9,1.8-4.9l28-19.8c1.4-1,3.9-1.4,5.6-0.8l32,11.1c1.6,0.6,3.4,2.4,3.9,4.1l9.5,31.6c0.5,1.7-0.2,3.9-1.5,5 L217.2,637.3z" class="st43"/></g><g><path d="M319.3,577.4c0.6,1.6,0.3,4.1-0.7,5.5l-20.4,27c-1,1.4-3.3,2.4-5,2.3l-37.2-2.7c-1.7-0.1-3.6-1.6-4.1-3.2 l-10.1-32.8c-0.5-1.7-0.1-4.1,1-5.5l20.4-27c1-1.4,3.3-2.5,5.1-2.4l33,0.8c1.7,0,3.7,1.4,4.3,3L319.3,577.4z" class="st43"/></g><g><path d="M293.9,461.8c1.7-0.1,4,1,5,2.4l19.4,27.8c1,1.4,1.3,3.9,0.6,5.5L304.8,532c-0.7,1.6-2.6,2.9-4.3,2.9 l-34.3-0.5c-1.7,0-4-1.2-5-2.6L241.8,504c-1-1.4-1.3-3.9-0.8-5.6l10.9-31.1c0.6-1.6,2.5-3.1,4.2-3.2L293.9,461.8z" class="st43"/></g><g><path d="M238.7,566.7c-1,1.4-3.2,2.1-4.9,1.5l-32-10.8c-1.6-0.6-3-2.4-3-4.2l0.4-33.8c0-1.7,1.4-3.6,3-4.1 l32.3-10.1c1.7-0.5,3.8,0.2,4.8,1.6l19.5,27.6c1,1.4,1,3.7-0.1,5.1L238.7,566.7z" class="st44"/></g><g><path d="M359.4,440.9c1.7-0.5,4.3-0.4,5.9,0.3l31,13.6c1.6,0.7,3.1,2.7,3.4,4.4l6.1,36.8c0.3,1.7-0.7,3.8-2.2,4.7 l-28,17c-1.5,0.9-3.9,0.9-5.5,0.1L327,493.6c-1.5-0.8-3.5-2.8-4.3-4.3l-16.4-28.3c-0.9-1.5-0.2-3.2,1.4-3.7L359.4,440.9z" class="st43"/></g><g><path d="M386,631.5c-0.6,1.6-2.4,3.3-4.1,3.7l-33.1,7.3c-1.7,0.4-4.3,0-5.8-0.9l-40.6-22.8 c-1.5-0.9-1.9-2.7-0.9-4.1l22.8-30.6c1-1.4,3.2-3,4.9-3.6l37.8-13c1.6-0.6,4-0.1,5.3,1.1l24.6,22c1.3,1.2,1.9,3.4,1.3,5.1 L386,631.5z" class="st43"/></g><g><path d="M441.9,527.1c1.4,1,2.4,3.3,2.2,5l-3.3,33.7c-0.2,1.7-1.6,3.8-3.1,4.6l-33.2,17.1 c-1.5,0.8-3.9,0.5-5.2-0.6l-25.7-22.6c-1.3-1.1-2.2-3.5-2.1-5.2l3.3-33.7c0.2-1.7,1.5-3.9,3-4.7l28.5-16.6 c1.5-0.9,3.9-0.7,5.2,0.3L441.9,527.1z" class="st43"/></g><g><path d="M328.3,575.9c-1.6,0.5-3.6-0.3-4.3-1.9l-14.7-33.9c-0.7-1.6-0.7-4.2,0-5.8l15.3-34.4 c0.7-1.6,2.5-2.2,4-1.3l40,22.7c1.5,0.9,2.6,3,2.5,4.7l-3.1,33.6c-0.2,1.7-1.6,3.6-3.3,4.1L328.3,575.9z" class="st44"/></g><g><path d="M176.6,381.4c0-1.7,1-4.2,2.1-5.5l22.5-25.3c1.2-1.3,3.5-2.1,5.2-1.9l36.9,5.7c1.7,0.3,3.4,1.9,3.8,3.6 l7.4,31.9c0.4,1.7-0.3,4-1.6,5.2l-37.1,34.8c-1.3,1.2-3.7,2.4-5.4,2.7l-31.3,5.6c-1.7,0.3-3.1-0.9-3.1-2.6L176.6,381.4z" class="st43"/></g><g><path d="M366,415.4c1.4,1,2.4,3.3,2.2,5l-3.4,33.7c-0.2,1.7-1.4,4.1-2.7,5.2l-35.1,30.2c-1.3,1.1-3.2,0.9-4.2-0.5 l-21-29.7c-1-1.4-1.8-4-1.9-5.7l-0.6-40c0-1.7,1.2-3.9,2.7-4.7l28.6-16.5c1.5-0.9,3.9-0.7,5.2,0.3L366,415.4z" class="st43"/></g><g><path d="M284.2,329.9c1.4-1,3.9-1.2,5.5-0.5l31,13.6c1.6,0.7,3.1,2.7,3.4,4.4l6,36.8c0.3,1.7-0.7,3.8-2.2,4.7 l-29.5,17.4c-1.5,0.9-4,1-5.6,0.3l-31-13.6c-1.6-0.7-3.2-2.7-3.5-4.4l-6.9-32.3c-0.4-1.7,0.5-3.9,1.9-4.9L284.2,329.9z" class="st43"/></g><g><path d="M295.2,453c0,1.7-1.4,3.3-3.1,3.5l-36.8,3.5c-1.7,0.2-4.2-0.7-5.5-1.8l-27.9-25.2c-1.3-1.2-1.3-3.1,0-4.2 l34-30.9c1.3-1.2,3.6-1.6,5.2-0.9l31,13.4c1.6,0.7,2.9,2.7,2.9,4.4L295.2,453z" class="st44"/></g><g><path d="M64.3,538c-1.6-0.5-3.7-2.2-4.6-3.7l-17.2-29.2c-0.9-1.5-1-4-0.2-5.5L59,466.2c0.8-1.6,2.8-2.7,4.6-2.6 l32.6,2.7c1.7,0.1,3.7,1.6,4.4,3.1l19.8,43.9c0.7,1.6,1.2,4.3,1.1,6l-2.5,33.5c-0.1,1.7-1.6,2.7-3.2,2.2L64.3,538z" class="st43"/></g><g><path d="M154.4,368c1.4-1,3.9-1.3,5.5-0.6l31.1,13.5c1.6,0.7,3.4,2.6,4.1,4.2l18.2,43.6c0.7,1.6-0.1,3.3-1.8,3.8 l-34.8,10.1c-1.7,0.5-4.4,0.5-6,0l-38.3-11.7c-1.7-0.5-3.3-2.3-3.7-4l-7-32.2c-0.4-1.7,0.5-3.9,1.9-4.9L154.4,368z" class="st43"/></g><g><path d="M48,419.8c-0.5-1.7,0-4.1,1.2-5.4l22.4-25.4c1.1-1.3,3.5-2.2,5.2-1.9l36.9,5.6c1.7,0.3,3.4,1.9,3.8,3.5 l7.6,33.4c0.4,1.7-0.2,4.1-1.4,5.4l-22.4,25.4c-1.1,1.3-3.5,2.2-5.2,2l-32.8-3.3c-1.7-0.2-3.6-1.7-4.1-3.3L48,419.8z" class="st43"/></g><g><path d="M168.6,446.9c1.7,0.5,2.7,2.3,2.3,4L163,487c-0.4,1.7-1.9,3.8-3.4,4.7l-32.5,18.9c-1.5,0.9-3.3,0.3-4-1.3 L104,467.5c-0.7-1.6-0.4-3.9,0.8-5.2l22.2-25.5c1.1-1.3,3.4-2,5.1-1.4L168.6,446.9z" class="st44"/></g><g><path d="M180.4,690.6c-1,1.4-3.2,2.9-4.9,3.3l-32.9,8.1c-1.7,0.4-4.1-0.2-5.4-1.4l-27.2-25.5 c-1.3-1.2-1.8-3.5-1.2-5.1l11.9-30.5c0.6-1.6,2.6-3.1,4.3-3.3l47.3-6c1.7-0.2,4.5,0.1,6.1,0.7l31.7,11.5 c1.6,0.6,2.2,2.2,1.2,3.7L180.4,690.6z" class="st43"/></g><g><path d="M43.2,555.7c-0.6-1.6-0.1-4.1,1-5.4l21.8-25.9c1.1-1.3,3.4-2.6,5.2-2.8l47.4-6.5c1.7-0.2,3.1,1,3.1,2.7 l-0.6,37.9c0,1.7-0.8,4.3-1.8,5.8l-22.1,33.4c-1,1.4-3.2,2.5-4.9,2.4l-32.9-2.5c-1.7-0.1-3.6-1.6-4.2-3.2L43.2,555.7z" class="st43"/></g><g><path d="M62.5,672.4c-1.7,0-3.9-1.2-4.8-2.6L39.8,641c-0.9-1.5-1.1-4-0.3-5.5l15.9-33.8c0.7-1.6,2.8-2.8,4.5-2.6 l34.2,2.3c1.7,0.1,3.9,1.4,4.8,2.9l17.9,28.7c0.9,1.5,1.1,4,0.5,5.6l-12.5,30.5c-0.7,1.6-2.6,2.9-4.4,2.9L62.5,672.4z" class="st43"/></g><g><path d="M122.9,564.6c1-1.4,3-1.9,4.5-1.1l32.3,17.9c1.5,0.8,3.1,2.9,3.5,4.6l8.8,36.6c0.4,1.7-0.7,3.3-2.4,3.5 l-45.5,6.3c-1.7,0.2-3.9-0.8-4.8-2.2l-18.1-28.6c-0.9-1.5-0.9-3.8,0.1-5.3L122.9,564.6z" class="st44"/></g><g><path d="M358.8,630.7c1,1.4,1.7,4,1.6,5.7l-2.9,33.7c-0.1,1.7-1.5,3.8-3.1,4.6l-33,17.5c-1.5,0.8-3.9,0.6-5.2-0.6 l-25-21.1c-1.3-1.1-2.1-3.4-1.7-5.1l10.1-46.3c0.4-1.7,1.5-4.2,2.6-5.6l20.7-26.7c1.1-1.4,2.8-1.4,3.8,0L358.8,630.7z" class="st43"/></g><g><path d="M186.7,716.9c-1.7,0-3.9-1.2-4.8-2.7l-17.5-29c-0.9-1.5-1.3-4.1-0.9-5.8l10.9-46.5c0.4-1.7,2.1-2.6,3.7-2 l33.8,12.3c1.6,0.6,3.8,2.2,4.9,3.6l24.4,31.7c1.1,1.4,1.4,3.8,0.7,5.4l-13,30.3c-0.7,1.6-2.7,2.9-4.4,2.9L186.7,716.9z" class="st43"/></g><g><path d="M303.5,736.4c-0.5,1.6-2.4,3.3-4.1,3.7l-33,7.7c-1.7,0.4-4.1-0.3-5.3-1.5l-26.8-25.9 c-1.2-1.2-1.7-3.5-1.1-5.1l13.2-31.6c0.7-1.6,2.6-3.2,4.3-3.6l33-7.7c1.7-0.4,4.1,0.2,5.4,1.4l24.8,21.7 c1.3,1.1,1.9,3.4,1.4,5.1L303.5,736.4z" class="st43"/></g><g><path d="M220.9,644.4c-1-1.4-0.8-3.5,0.4-4.6l27.4-24.8c1.3-1.2,3.8-2,5.5-1.8l37.5,3.5c1.7,0.2,2.9,1.7,2.5,3.4 l-8.7,45.1c-0.3,1.7-2,3.4-3.7,3.8l-32.9,7.9c-1.7,0.4-3.9-0.4-5-1.8L220.9,644.4z" class="st44"/></g></g></g><g class="st30"><path d="M165.8,585.7c-16.9,5.4-34.1,7-50.6,5.3c-0.7-1.8-1.3-3.7-1.9-5.5c-21.1-66.4,15.6-137.4,82-158.5 c16.9-5.4,34.1-7,50.7-5.3c0.7,1.8,1.3,3.7,1.9,5.5C269,493.7,232.3,564.6,165.8,585.7z" class="st43"/></g></g><g><g><circle cx="136" cy="665.5" r="42.6" class="st45"/></g><g><path d="M141.1,637.2c0,21.8-17.7,39.5-39.5,39.5c-1.3,0-2.6-0.1-3.8-0.2c-1-3.5-1.6-7.2-1.6-11 c0-21.8,17.7-39.5,39.5-39.5c1.3,0,2.6,0.1,3.8,0.2C140.6,629.6,141.1,633.3,141.1,637.2z" class="st46"/></g><g><circle cx="120" cy="639.6" r="3.4" class="st47"/></g><g class="st30"><path d="M166.6,703.5c0,4.3-10.9,11-30.6,11s-30.6-6.7-30.6-11c0-4.3,10.9-7.8,30.6-7.8S166.6,699.1,166.6,703.5z" class="st31"/></g></g><g><g class="st30"><path d="M638.3,684.5c0,4.3-10.9,9.4-30.6,9.4s-30.6-5.1-30.6-9.4c0-4.3,10.9-7.8,30.6-7.8S638.3,680.2,638.3,684.5 z" class="st31"/></g><g><g><circle cx="607.3" cy="646.2" r="42.6" class="st48"/></g><g><circle cx="607.3" cy="646.2" r="42.6" class="st48"/></g><g><path d="M610.3,616.4c0,23.1-18.4,41.8-41.2,42.5c-0.9-3.4-1.3-6.9-1.3-10.5c0-23.1,18.3-41.8,41.2-42.5 C609.8,609.3,610.3,612.8,610.3,616.4z" class="st49"/></g><g><defs><circle id="SVGID_29_" cx="607.3" cy="646.2" r="42.6"/></defs><clipPath id="SVGID_30_"><use style="overflow:visible" xlink:href="#SVGID_29_"/></clipPath><g class="st50"><path d="M628.3,695.2l-3.8-3.9c19.9-19.2,16.8-47.1,16-52.5c-2-12.8-12.7-25.5-28.6-23.7c-4.7,0.5-8.2,2.2-10.3,5 c-3.8,5-3.1,12.6-2.3,17.8c0.1,0.9,0.4,2.3,0.8,3.9c2.4,11.1,7.3,34.2-4.9,42.1c-14.1,9.1-33.6-13.3-34.5-14.2l4.1-3.6 c4.8,5.5,19,18.6,27.4,13.2c9-5.8,4.4-27.2,2.5-36.3c-0.4-1.8-0.7-3.2-0.8-4.2c-1-6.2-1.7-15.3,3.4-22c3.1-4,7.8-6.5,14-7.1 c11.5-1.3,19.4,3.6,24,8c5.6,5.3,9.4,12.7,10.6,20.3C646.8,643.9,650.2,674.2,628.3,695.2z" class="st51"/></g></g></g></g><g><g class="st30"><path d="M584.8,709.2c0,2.1-5.4,5.4-15,5.4s-15-3.3-15-5.4s5.4-3.8,15-3.8S584.8,707.1,584.8,709.2z" class="st31"/></g><g><circle cx="569.5" cy="689" r="22" class="st52"/><path d="M569.5,711.8c-12.5,0-22.8-10.2-22.8-22.8s10.2-22.8,22.8-22.8s22.8,10.2,22.8,22.8S582,711.8,569.5,711.8z M569.5,667.8c-11.7,0-21.2,9.5-21.2,21.2s9.5,21.2,21.2,21.2s21.2-9.5,21.2-21.2S581.2,667.8,569.5,667.8z" class="st28"/></g></g></g></svg>