<svg xmlns="http://www.w3.org/2000/svg" xmlns:svg="http://www.w3.org/2000/svg" xmlns:xlink="http://www.w3.org/1999/xlink" id="svg2" x="0" y="0" version="1.1" viewBox="0 0 45 45" xml:space="preserve" style="enable-background:new 0 0 45 45"><style type="text/css">.st0{clip-path:url(#SVGID_2_)}.st1{fill:#ff7900}.st2{fill:#bc5508}.st3{fill:#2d2a28}</style><g id="g10" transform="matrix(1.25,0,0,-1.25,0,45)"><g id="g12"><g><g><defs><rect id="SVGID_1_" width="56.2" height="56.2" x="-10.1" y="-10.1"/></defs><clipPath id="SVGID_2_"><use xlink:href="#SVGID_1_" style="overflow:visible"/></clipPath><g id="g14" class="st0"><g id="g20" transform="translate(36,8)"><path id="path22" d="M0,0c0-1.1-0.9-2-2-2h-32c-1.1,0-2,0.9-2,2v16c0,1.1,0.9,2,2,2h32c1.1,0,2-0.9,2-2V0z" class="st1"/></g><g id="g24" transform="translate(5.5,17)"><path id="path26" d="M0,0c0-0.6-0.4-1-1-1h-1c-0.6,0-1,0.4-1,1v1c0,0.6,0.4,1,1,1h1c0.6,0,1-0.4,1-1V0z" class="st2"/></g><g id="g28" transform="translate(9.5,17)"><path id="path30" d="M0,0c0-0.6-0.4-1-1-1h-1c-0.6,0-1,0.4-1,1v1c0,0.6,0.4,1,1,1h1c0.6,0,1-0.4,1-1V0z" class="st2"/></g><g id="g32" transform="translate(13.5,17)"><path id="path34" d="M0,0c0-0.6-0.4-1-1-1h-1c-0.6,0-1,0.4-1,1v1c0,0.6,0.4,1,1,1h1c0.6,0,1-0.4,1-1V0z" class="st2"/></g><g id="g36" transform="translate(17.5,17)"><path id="path38" d="M0,0c0-0.6-0.4-1-1-1h-1c-0.6,0-1,0.4-1,1v1c0,0.6,0.4,1,1,1h1c0.6,0,1-0.4,1-1V0z" class="st2"/></g><g id="g40" transform="translate(21.5,17)"><path id="path42" d="M0,0c0-0.6-0.4-1-1-1h-1c-0.6,0-1,0.4-1,1v1c0,0.6,0.4,1,1,1h1c0.6,0,1-0.4,1-1V0z" class="st2"/></g><g id="g44" transform="translate(25.5,17)"><path id="path46" d="M0,0c0-0.6-0.4-1-1-1h-1c-0.6,0-1,0.4-1,1v1c0,0.6,0.4,1,1,1h1c0.6,0,1-0.4,1-1V0z" class="st2"/></g><g id="g48" transform="translate(29.5,17)"><path id="path50" d="M0,0c0-0.6-0.4-1-1-1h-1c-0.6,0-1,0.4-1,1v1c0,0.6,0.4,1,1,1h1c0.6,0,1-0.4,1-1V0z" class="st2"/></g><g id="g52" transform="translate(33.5,17)"><path id="path54" d="M0,0c0-0.6-0.4-1-1-1h-1c-0.6,0-1,0.4-1,1v1c0,0.6,0.4,1,1,1h1c0.6,0,1-0.4,1-1V0z" class="st2"/></g><g id="g56" transform="translate(7.5,13)"><path id="path58" d="M0,0c0-0.6-0.4-1-1-1h-1c-0.6,0-1,0.4-1,1v1c0,0.6,0.4,1,1,1h1c0.6,0,1-0.4,1-1V0z" class="st2"/></g><g id="g60" transform="translate(11.5,13)"><path id="path62" d="M0,0c0-0.6-0.4-1-1-1h-1c-0.6,0-1,0.4-1,1v1c0,0.6,0.4,1,1,1h1c0.6,0,1-0.4,1-1V0z" class="st2"/></g><g id="g64" transform="translate(15.5,13)"><path id="path66" d="M0,0c0-0.6-0.4-1-1-1h-1c-0.6,0-1,0.4-1,1v1c0,0.6,0.4,1,1,1h1c0.6,0,1-0.4,1-1V0z" class="st2"/></g><g id="g68" transform="translate(19.5,13)"><path id="path70" d="M0,0c0-0.6-0.4-1-1-1h-1c-0.6,0-1,0.4-1,1v1c0,0.6,0.4,1,1,1h1c0.6,0,1-0.4,1-1V0z" class="st2"/></g><g id="g72" transform="translate(23.5,13)"><path id="path74" d="M0,0c0-0.6-0.4-1-1-1h-1c-0.6,0-1,0.4-1,1v1c0,0.6,0.4,1,1,1h1c0.6,0,1-0.4,1-1V0z" class="st2"/></g><g id="g76" transform="translate(27.5,13)"><path id="path78" d="M0,0c0-0.6-0.4-1-1-1h-1c-0.6,0-1,0.4-1,1v1c0,0.6,0.4,1,1,1h1c0.6,0,1-0.4,1-1V0z" class="st2"/></g><g id="g80" transform="translate(31.5,13)"><path id="path82" d="M0,0c0-0.6-0.4-1-1-1h-1c-0.6,0-1,0.4-1,1v1c0,0.6,0.4,1,1,1h1c0.6,0,1-0.4,1-1V0z" class="st2"/></g><g id="g84" transform="translate(10,9)"><path id="path86" d="M-1.4,0c0-0.6-0.4-1-0.8-1h-1.7c-0.5,0-0.8,0.4-0.8,1v1c0,0.6,0.4,1,0.8,1h1.7 c0.5,0,0.8-0.4,0.8-1C-1.4,1-1.4,0-1.4,0z" class="st3"/></g><g id="g84_1_" transform="translate(10,9)"><path id="path86_1_" d="M-5.2,0c0-0.6-0.4-1-0.8-1h-1.7c-0.5,0-0.8,0.4-0.8,1v1c0,0.6,0.4,1,0.8,1H-6 c0.5,0,0.8-0.4,0.8-1V0z" class="st3"/></g><g id="g88" transform="translate(30,9)"><path id="path90" d="M0,0c0-0.6-0.4-1-1-1h-2c-0.6,0-1,0.4-1,1v1c0,0.6,0.4,1,1,1h2c0.6,0,1-0.4,1-1V0z" class="st2"/></g><g id="g92" transform="translate(25,9)"><path id="path94" d="M0,0c0-0.6-0.4-1-1-1h-12c-0.6,0-1,0.4-1,1v1c0,0.6,0.4,1,1,1h12c0.6,0,1-0.4,1-1V0z" class="st2"/></g><g id="g96" transform="translate(5.5,22.9165)"><path id="path98" d="M0,0c0-0.6-0.4-1-1-1h-1c-0.6,0-1,0.4-1,1s0.4,1,1,1h1C-0.4,1,0,0.6,0,0" class="st2"/></g><g id="g100" transform="translate(9.5,22.9165)"><path id="path102" d="M0,0c0-0.6-0.4-1-1-1h-1c-0.6,0-1,0.4-1,1s0.4,1,1,1h1C-0.4,1,0,0.6,0,0" class="st2"/></g><g id="g104" transform="translate(13.5,22.9165)"><path id="path106" d="M0,0c0-0.6-0.4-1-1-1h-1c-0.6,0-1,0.4-1,1s0.4,1,1,1h1C-0.4,1,0,0.6,0,0" class="st2"/></g><g id="g108" transform="translate(17.5,22.9165)"><path id="path110" d="M0,0c0-0.6-0.4-1-1-1h-1c-0.6,0-1,0.4-1,1s0.4,1,1,1h1C-0.4,1,0,0.6,0,0" class="st2"/></g><g id="g112" transform="translate(21.5,22.9165)"><path id="path114" d="M0,0c0-0.6-0.4-1-1-1h-1c-0.6,0-1,0.4-1,1s0.4,1,1,1h1C-0.4,1,0,0.6,0,0" class="st2"/></g><g id="g116" transform="translate(25.5,22.9165)"><path id="path118" d="M0,0c0-0.6-0.4-1-1-1h-1c-0.6,0-1,0.4-1,1s0.4,1,1,1h1C-0.4,1,0,0.6,0,0" class="st2"/></g><g id="g120" transform="translate(29.5,22.9165)"><path id="path122" d="M0,0c0-0.6-0.4-1-1-1h-1c-0.6,0-1,0.4-1,1s0.4,1,1,1h1C-0.4,1,0,0.6,0,0" class="st2"/></g><g id="g124" transform="translate(33.5,22.9165)"><path id="path126" d="M0,0c0-0.6-0.4-1-1-1h-1c-0.6,0-1,0.4-1,1s0.4,1,1,1h1C-0.4,1,0,0.6,0,0" class="st2"/></g></g></g></g></g></g></svg>