<svg xmlns="http://www.w3.org/2000/svg" width="200" height="200" viewBox="0 0 200 200"><title>balloon</title><path d="M99.55,108.32l.47,26a8.05,8.05,0,0,0,2.73,5.89h0a8.05,8.05,0,0,1-1.37,13.05l-1.78,1a8.05,8.05,0,0,0-1.79,12.65h0a10.63,10.63,0,0,1,3,7.44v18.35" style="fill:none;stroke:#bf7333;stroke-linecap:round;stroke-miterlimit:10;stroke-width:7.154555054078116px"/><path d="M99.55,106v0L88,122.38a2,2,0,0,0,1.82,2.79h19.4a2,2,0,0,0,1.81-2.79Z" style="fill:#d11a1b"/><path d="M147.28,46c-1.61-17.74-11.46-32.2-24.31-37.1a65.75,65.75,0,0,0-46.84,0C63.28,13.81,53.43,28.27,51.82,46,50.73,58.08,53.4,69.73,58.73,78.7h0c6.92,14.23,24,24.38,33.7,29.25l2,1.53a8.46,8.46,0,0,0,10.24,0l2-1.53c9.74-4.87,26.78-15,33.69-29.25h0C145.7,69.73,148.37,58.08,147.28,46Z" style="fill:#e52421"/><line x1="92.03" y1="112.29" x2="107.06" y2="112.29" style="fill:none;stroke:#bf7333;stroke-linecap:round;stroke-miterlimit:10;stroke-width:7.154555054078116px"/><ellipse cx="79.43" cy="31.48" rx="17" ry="11.55" transform="translate(12.45 84.53) rotate(-60)" style="fill:#e58383"/></svg>