<svg xmlns="http://www.w3.org/2000/svg" xmlns:svg="http://www.w3.org/2000/svg" xmlns:xlink="http://www.w3.org/1999/xlink" id="svg2" x="0" y="0" version="1.1" viewBox="0 0 45 45" xml:space="preserve" style="enable-background:new 0 0 45 45"><style type="text/css">.st0{clip-path:url(#SVGID_2_)}.st1{fill:#3b88c3}.st2{fill:#c1694f}.st3{fill:#ccd6dd}.st4{fill:#a0041e}</style><g id="g10" transform="matrix(1.25,0,0,-1.25,0,45)"><g id="g12"><g><defs><rect id="SVGID_1_" width="45" height="45" x="-4.5" y="-4.5"/></defs><clipPath id="SVGID_2_"><use xlink:href="#SVGID_1_" style="overflow:visible"/></clipPath><g id="g14" class="st0"><g id="g20" transform="translate(14.5698,8.3271)"><path id="path22" d="M-6.2,13.1c1.7-2.8,3.8-6.6,7.1-9.9c7-7,17-12.7,18.4-11.3c1.4,1.4-4.3,11.4-11.3,18.4 c-3.3,3.3-7.1,5.4-9.9,7.1L-6.2,13.1z" class="st1"/></g><g id="g24" transform="translate(0.4277,1.2559)"><path id="path26" d="M0.8,34.3c0,0-1.4-7.1,3.5-12c2.1-2.1,4.9-2.1,4.9-2.1l2.8,2.8c0,0-0.7,3.5-2.1,4.9 s-4.2,2.5-5.6,2.9C1.9,31.5,0.8,34.3,0.8,34.3" class="st2"/></g><g id="g28" transform="translate(17.8818,10.6719)"><path id="path30" d="M-7.2,7.4l5.2,5.2c0.4,0.4,0.3,1-0.1,1.3L-3.9,15c-0.5,0.3-1.1,0.3-1.5-0.1l-4.1-4.1 c-0.4-0.4-0.4-1-0.1-1.5l1.1-1.7C-8.2,7.1-7.6,7.1-7.2,7.4" class="st3"/></g><g id="g32" transform="translate(11.229,3.7402)"><path id="path34" d="M-7.5,21c-0.8,1.2-0.1,1.8,0.6,1.6c0.8-0.2,1.6,0.1,1.4,1.2c-0.2,1.1,0.4,1.9,1.8,1.5 c1.4-0.3,1.9,1.1,0.4,1.8c-1.2,0.6-2.4,1-3.1,1.2C-8.9,29-10,31.8-10,31.8S-11.2,25.8-7.5,21" class="st4"/></g></g></g></g></g></svg>