<svg xmlns="http://www.w3.org/2000/svg" width="150" height="150" viewBox="0 0 36 36"><title>2Artboard 1</title><path fill="#d99e82" d="M32.77,18a7,7,0,0,1-7,7H10.29a7,7,0,0,1-7-7h0a7,7,0,0,1,7-7h15.5a7,7,0,0,1,7,7Z"/><path fill="#f7bba6" d="M25.83,13.35c3.85,0,7,1.92,7,4.26h0c0,2.34-3.12,4.27-7,4.27H10.33c-3.86,0-7-1.93-7-4.27h0c0-2.34,3.12-4.26,7-4.26Z"/><path fill="#dd2e44" d="M32.35,15.67A2.6,2.6,0,0,1,35.16,18h0a2.6,2.6,0,0,1-2.81,2.33H3.64A2.6,2.6,0,0,1,.84,18h0a2.6,2.6,0,0,1,2.8-2.33Z"/><path fill="#ffcc4d" d="M33.31,17.77a.76.76,0,0,1-.54.23,3.25,3.25,0,0,0-2.05.66,4.75,4.75,0,0,1-2.87.89A4.84,4.84,0,0,1,25,18.66a3.48,3.48,0,0,0-4.08,0,4.77,4.77,0,0,1-2.87.89,4.77,4.77,0,0,1-2.87-.89,3.22,3.22,0,0,0-2-.66,3.19,3.19,0,0,0-2,.66,4.84,4.84,0,0,1-2.87.89,4.84,4.84,0,0,1-2.87-.89,3.24,3.24,0,0,0-2-.66.78.78,0,0,1,0-1.55,4.81,4.81,0,0,1,2.87.89,3.24,3.24,0,0,0,2,.66,3.24,3.24,0,0,0,2-.66,4.78,4.78,0,0,1,2.86-.89,4.81,4.81,0,0,1,2.87.89,3.48,3.48,0,0,0,4.08,0,5.07,5.07,0,0,1,5.74,0,3.5,3.5,0,0,0,4.09,0,4.79,4.79,0,0,1,2.87-.89.78.78,0,0,1,.77.78A.76.76,0,0,1,33.31,17.77Z"/></svg>