<?xml version="1.0" encoding="utf-8"?>
<!-- Generator: Adobe Illustrator 18.1.0, SVG Export Plug-In . SVG Version: 6.00 Build 0)  -->
<svg version="1.1" xmlns="http://www.w3.org/2000/svg" xmlns:xlink="http://www.w3.org/1999/xlink" x="0px" y="0px"
	 viewBox="0 0 100 100" enable-background="new 0 0 100 100" xml:space="preserve">
<g id="Background">
</g>
<g id="Layer_1">
	<g>
		<path fill="#FFFFFF" d="M69.9,27c1.7,0,3.1,1.4,3.1,3.1v39.7c0,1.7-1.4,3.1-3.1,3.1H30.2c-1.7,0-3.1-1.4-3.1-3.1V30.1
			c0-1.7,1.4-3.1,3.1-3.1H69.9 M69.9,23H30.2c-3.9,0-7.1,3.2-7.1,7.1v39.7c0,3.9,3.2,7.1,7.1,7.1h39.7c3.9,0,7.1-3.2,7.1-7.1V30.1
			C77,26.2,73.8,23,69.9,23L69.9,23z"/>
		<path fill="#FFFFFF" d="M32.9,32.8c0.6-0.6,1.5-0.6,2.1,0l4.2,4.2c0.6,0.6,0.6,1.5,0,2.1c-0.3,0.3-0.7,0.4-1.1,0.4
			s-0.8-0.1-1.1-0.4l-4.2-4.2C32.3,34.3,32.3,33.3,32.9,32.8z M39.3,62.9l-4.2,4.2c-0.3,0.3-0.7,0.4-1.1,0.4s-0.8-0.1-1.1-0.4
			c-0.6-0.6-0.6-1.5,0-2.1l4.2-4.2c0.6-0.6,1.5-0.6,2.1,0C39.9,61.4,39.9,62.3,39.3,62.9z M55.1,55c-0.3,0.3-0.7,0.4-1.1,0.4
			S53.3,55.3,53,55l-2.9-2.9L47.2,55c-0.3,0.3-0.7,0.4-1.1,0.4s-0.8-0.1-1.1-0.4c-0.6-0.6-0.6-1.5,0-2.1L48,50l-2.9-2.9
			c-0.6-0.6-0.6-1.5,0-2.1c0.6-0.6,1.5-0.6,2.1,0l2.9,2.9L53,45c0.6-0.6,1.5-0.6,2.1,0c0.6,0.6,0.6,1.5,0,2.1L52.2,50l2.9,2.9
			C55.7,53.5,55.7,54.4,55.1,55z M60.9,37.1l4.2-4.2c0.6-0.6,1.5-0.6,2.1,0s0.6,1.5,0,2.1L63,39.2c-0.3,0.3-0.7,0.4-1.1,0.4
			s-0.8-0.1-1.1-0.4C60.3,38.6,60.3,37.7,60.9,37.1z M67.3,67.2c-0.3,0.3-0.7,0.4-1.1,0.4s-0.8-0.1-1.1-0.4L61,63
			c-0.6-0.6-0.6-1.5,0-2.1c0.6-0.6,1.5-0.6,2.1,0l4.2,4.2C67.9,65.7,67.9,66.6,67.3,67.2z"/>
	</g>
</g>
</svg>
