<?xml version="1.0" encoding="utf-8"?>
<!-- Generator: Adobe Illustrator 18.1.0, SVG Export Plug-In . SVG Version: 6.00 Build 0)  -->
<svg version="1.1" xmlns="http://www.w3.org/2000/svg" xmlns:xlink="http://www.w3.org/1999/xlink" x="0px" y="0px"
	 viewBox="0 0 100 100" enable-background="new 0 0 100 100" xml:space="preserve">
<g id="Background">
</g>
<g id="Layer_1">
	<g>
		<path fill="#FFFFFF" d="M70.1,27c1.7,0,3.1,1.4,3.1,3.1v39.7c0,1.7-1.4,3.1-3.1,3.1H30.4c-1.7,0-3.1-1.4-3.1-3.1V30.1
			c0-1.7,1.4-3.1,3.1-3.1H70.1 M70.1,23H30.4c-3.9,0-7.1,3.2-7.1,7.1v39.7c0,3.9,3.2,7.1,7.1,7.1h39.7c3.9,0,7.1-3.2,7.1-7.1V30.1
			C77.2,26.2,74,23,70.1,23L70.1,23z"/>
		<g>
			<g>
				<path fill="#FFFFFF" d="M42.5,50H40v3h2.5c1.1,0,1.6-0.5,1.6-1.5C44.1,50.5,43.6,50,42.5,50z"/>
			</g>
			<g>
				<path fill="#FFFFFF" d="M43.6,47c0-0.8-0.4-1-1.4-1H40v2h2.2C43.2,48,43.6,47.8,43.6,47z"/>
			</g>
			<g>
				<path fill="#FFFFFF" d="M66.2,32.3H34.3c-1.1,0-2,0.9-2,2v31.9c0,1.1,0.9,2,2,2h31.9c1.1,0,2-0.9,2-2V34.2
					C68.2,33.2,67.3,32.3,66.2,32.3z M42.5,54.9h-3.2c-0.5,0-0.9-0.4-0.9-0.9V45c0-0.5,0.4-0.9,0.9-0.9h2.9c2.4,0,3.3,1.3,3.3,2.8
					c0,1.1-0.5,1.9-1.2,2.2c1.2,0.5,1.7,1.3,1.7,2.6C46,53.6,44.8,54.9,42.5,54.9z M53.3,45.7h-2.4v8.3c0,0.5-0.4,0.9-0.9,0.9
					c-0.5,0-0.9-0.4-0.9-0.9v-8.3h-2.4c-0.4,0-0.8-0.4-0.8-0.8s0.4-0.8,0.8-0.8h6.8c0.4,0,0.8,0.4,0.8,0.8S53.8,45.7,53.3,45.7z
					 M63,54.1c0,0.5-0.4,0.9-0.9,0.9c-0.3,0-0.6-0.2-0.8-0.4l-4.7-6.8v6.3c0,0.5-0.4,0.9-0.9,0.9s-0.9-0.4-0.9-0.9v-9.2
					c0-0.5,0.4-0.9,0.9-0.9c0.3,0,0.6,0.1,0.7,0.4l4.7,6.9v-6.3c0-0.5,0.4-0.9,0.9-0.9s0.9,0.4,0.9,0.9V54.1z"/>
			</g>
		</g>
	</g>
</g>
</svg>
