<?xml version="1.0" encoding="utf-8"?>
<!-- Generator: Adobe Illustrator 18.1.0, SVG Export Plug-In . SVG Version: 6.00 Build 0)  -->
<svg version="1.1" xmlns="http://www.w3.org/2000/svg" xmlns:xlink="http://www.w3.org/1999/xlink" x="0px" y="0px"
	 viewBox="0 0 100 100" enable-background="new 0 0 100 100" xml:space="preserve">
<g id="Background">
</g>
<g id="Layer_1">
	<g>
		<path fill="#FFFFFF" d="M70.1,27c1.7,0,3.1,1.4,3.1,3.1v39.7c0,1.7-1.4,3.1-3.1,3.1H30.4c-1.7,0-3.1-1.4-3.1-3.1V30.1
			c0-1.7,1.4-3.1,3.1-3.1H70.1 M70.1,23H30.4c-3.9,0-7.1,3.2-7.1,7.1v39.7c0,3.9,3.2,7.1,7.1,7.1h39.7c3.9,0,7.1-3.2,7.1-7.1V30.1
			C77.2,26.2,74,23,70.1,23L70.1,23z"/>
		<g>
			<circle fill="#FFFFFF" cx="61.2" cy="39.3" r="3.6"/>
			<path fill="#FFFFFF" d="M66.6,65.4c-0.2,0.4-0.5,0.6-0.9,0.6l-30.3,0c-0.5,0-0.9-0.2-1.2-0.8c-0.2-0.5-0.2-0.9,0.2-1.3l10.8-13.2
				c0.4-0.5,0.9-0.7,1.5-0.7s1.1,0.2,1.5,0.7l4.1,4.8c0.4,0.4,0.8,0.6,1.3,0.6c0.5,0,0.9-0.2,1.2-0.5l1.1-1.3
				c0.3-0.3,0.6-0.4,1.1-0.4c0.4,0,0.8,0.2,1.1,0.5l8.4,10.1C66.8,64.6,66.8,65,66.6,65.4z"/>
		</g>
	</g>
</g>
</svg>
