<?xml version="1.0" encoding="utf-8"?>
<!-- Generator: Adobe Illustrator 18.1.1, SVG Export Plug-In . SVG Version: 6.00 Build 0)  -->
<svg version="1.1" id="Layer_1" xmlns="http://www.w3.org/2000/svg" xmlns:xlink="http://www.w3.org/1999/xlink" x="0px" y="0px"
	 viewBox="0 0 349.8 302.8" enable-background="new 0 0 349.8 302.8" xml:space="preserve">
<g>
	
		<rect x="180.7" y="111.5" transform="matrix(0.9729 0.2311 -0.2311 0.9729 32.0604 -38.8775)" fill="#979797" width="2.6" height="11.8"/>
	
		<rect x="181.2" y="98.2" transform="matrix(0.9729 0.2311 -0.2311 0.9729 29.2169 -39.8833)" fill="#979797" width="7.3" height="13.1"/>
	
		<rect x="188.3" y="69" transform="matrix(0.9729 0.2311 -0.2311 0.9729 22.6522 -42.3236)" fill="#979797" width="7.3" height="13.1"/>
	
		<rect x="191.9" y="51.6" transform="matrix(0.9729 0.2311 -0.2311 0.9729 17.8203 -44.0864)" fill="#979797" width="10.3" height="4.9"/>
	<g>
		<path fill="#979797" d="M215.6,183.1l-19.2-4.5c3.2-0.6,6.7-0.6,10.1,0.2C209.9,179.6,213,181.1,215.6,183.1z"/>
		<path fill="#979797" d="M193.2,192.2l19.2,4.5c-3.2,0.6-6.7,0.6-10.1-0.2C198.9,195.7,195.8,194.2,193.2,192.2z"/>
		
			<rect x="193" y="180.7" transform="matrix(0.9729 0.2311 -0.2311 0.9729 48.9018 -42.1593)" fill="#CCCBCB" width="22.9" height="14"/>
	</g>
	
		<rect x="168" y="138.1" transform="matrix(0.9729 0.2311 -0.2311 0.9729 37.7595 -36.7668)" fill="#CCCBCB" width="15.6" height="9.5"/>
	
		<rect x="168" y="138.1" transform="matrix(0.9729 0.2311 -0.2311 0.9729 37.7595 -36.7668)" fill="#808080" width="15.6" height="9.5"/>
	
		<rect x="153.3" y="209.3" transform="matrix(0.9729 0.2311 -0.2311 0.9729 53.3011 -31.3077)" fill="#979797" stroke="#CCCBCB" stroke-width="8.539723e-02" stroke-miterlimit="10" width="14" height="5.2"/>
	
		<rect x="163.6" y="156.7" transform="matrix(0.9729 0.2311 -0.2311 0.9729 41.9494 -35.2423)" fill="#CCCBCB" width="15.6" height="9.5"/>
	
		<rect x="163.6" y="156.7" transform="matrix(0.9729 0.2311 -0.2311 0.9729 41.9494 -35.2423)" fill="#808080" width="15.6" height="9.5"/>
	<g>
		<g>
			<polygon fill="#CCCBCB" points="125.3,146.3 124.3,146.8 123.3,147.2 122.6,145.7 116.3,132 104.3,141.6 102.4,143.1 
				101.9,142.9 100.9,140.7 94.4,126.8 82.4,136.4 80.6,137.9 80,137.7 79,135.6 72.6,121.6 60.6,131.2 58.7,132.7 58.2,132.6 
				57.2,130.4 50.8,116.4 38.8,126 36.9,127.5 36.4,127.4 35.3,125.2 30.2,114 28.9,111.2 29.3,109.5 30.4,109 31.1,110.5 
				37.4,124.3 49.4,114.7 51.3,113.2 51.8,113.3 52.8,115.5 59.2,129.5 71.2,119.9 73.1,118.4 73.6,118.5 74.6,120.7 81,134.6 
				93,125.1 94.9,123.6 95.5,123.7 96.5,125.9 102.9,139.8 114.9,130.3 116.8,128.8 117.3,128.9 118.3,131.1 123.4,142.2 124.7,145 
							"/>
		</g>
		<g>
			<polygon fill="#CCCBCB" points="324.1,179.6 323.7,181.4 321.3,183.3 311.8,190.8 309.9,192.4 309.2,192.2 308.2,190 
				301.9,176.2 290,185.7 288.1,187.2 287.4,187 286.4,184.8 280,171 268.1,180.5 266.3,182 265.8,182.3 265.6,181.8 264.5,179.6 
				258.2,165.8 246.3,175.3 244.4,176.8 243.7,176.6 242.7,174.4 236.4,160.6 224.5,170 223.2,171.1 221.9,169.4 223,168.5 
				225.4,166.5 235.1,158.8 237,157.3 237.3,157.4 238.3,159.6 244.8,173.7 256.9,164 258.8,162.5 259.1,162.6 260.2,164.8 
				266.6,178.8 278.7,169.2 280.6,167.7 281,167.8 282,170 288.5,184 300.6,174.4 302.5,172.9 302.7,172.7 302.8,173 303.8,175.2 
				310.3,189.2 322.1,179.8 323.4,178.8 			"/>
		</g>
		<g opacity="0.16">
			<polygon fill="#333333" points="125.3,146.3 124.3,146.8 123.3,147.2 122.6,145.7 116.3,132 104.3,141.6 102.4,143.1 
				101.9,142.9 100.9,140.7 94.4,126.8 82.4,136.4 80.6,137.9 80,137.7 79,135.6 72.6,121.6 60.6,131.2 58.7,132.7 58.2,132.6 
				57.2,130.4 50.8,116.4 38.8,126 36.9,127.5 36.4,127.4 35.3,125.2 30.2,114 28.9,111.2 29.3,109.5 30.4,109 31.1,110.5 
				37.4,124.3 49.4,114.7 51.3,113.2 51.8,113.3 52.8,115.5 59.2,129.5 71.2,119.9 73.1,118.4 73.6,118.5 74.6,120.7 81,134.6 
				93,125.1 94.9,123.6 95.5,123.7 96.5,125.9 102.9,139.8 114.9,130.3 116.8,128.8 117.3,128.9 118.3,131.1 123.4,142.2 124.7,145 
							"/>
		</g>
		<g opacity="0.16">
			<polygon fill="#333333" points="324.1,179.6 323.7,181.4 321.3,183.3 311.8,190.8 309.9,192.4 309.2,192.2 308.2,190 
				301.9,176.2 290,185.7 288.1,187.2 287.4,187 286.4,184.8 280,171 268.1,180.5 266.3,182 265.8,182.3 265.6,181.8 264.5,179.6 
				258.2,165.8 246.3,175.3 244.4,176.8 243.7,176.6 242.7,174.4 236.4,160.6 224.5,170 223.2,171.1 221.9,169.4 223,168.5 
				225.4,166.5 235.1,158.8 237,157.3 237.3,157.4 238.3,159.6 244.8,173.7 256.9,164 258.8,162.5 259.1,162.6 260.2,164.8 
				266.6,178.8 278.7,169.2 280.6,167.7 281,167.8 282,170 288.5,184 300.6,174.4 302.5,172.9 302.7,172.7 302.8,173 303.8,175.2 
				310.3,189.2 322.1,179.8 323.4,178.8 			"/>
		</g>
	</g>
	
		<rect x="157.8" y="123.5" transform="matrix(0.9729 0.2311 -0.2311 0.9729 33.7217 -38.2858)" fill="#CCCBCB" width="44.9" height="2.5"/>
	<g>
		<circle fill="#E5E5E4" cx="170.4" cy="104.8" r="3.3"/>
		<line fill="none" stroke="#E5E5E4" stroke-width="0.9408" stroke-miterlimit="10" x1="170.4" y1="104.8" x2="176.2" y2="119.8"/>
	</g>
	
		<rect x="128.6" y="182.4" transform="matrix(0.2311 -0.9729 0.9729 0.2311 -80.5967 284.6376)" fill="#CCCBCB" width="22.3" height="21.8"/>
	<path fill="#979797" d="M131.5,181.2l-4.5,19.2c-0.6-3.2-0.6-6.7,0.2-10.1C127.9,186.9,129.4,183.8,131.5,181.2z"/>
	<path fill="#979797" d="M170.2,118.3l-4.2,17.6c-0.6-3-0.6-6.1,0.2-9.3C166.9,123.5,168.3,120.7,170.2,118.3z"/>
	<path fill="#979797" d="M179.2,192l-4.5,19.2c-0.6-3.2-0.6-6.7,0.2-10.1C175.6,197.6,177.1,194.5,179.2,192z"/>
	<path fill="#979797" d="M148.2,204.8l4.5-19.2c0.6,3.2,0.6,6.7-0.2,10.1C151.8,199.2,150.3,202.2,148.2,204.8z"/>
	<path fill="none" stroke="#CCCBCB" stroke-width="8.539723e-02" stroke-miterlimit="10" d="M152.9,185l-5.2,21.7l-20.5-4.9
		c-0.1-0.5-0.2-0.9-0.3-1.4l4.5-19.2c0.3-0.4,0.6-0.8,0.9-1.1L152.9,185z"/>
	<g>
		
			<rect x="-32.3" y="176.3" transform="matrix(0.2311 -0.9729 0.9729 0.2311 -164.0837 160.8841)" fill="#EF8A21" width="104" height="15.9"/>
		
			<rect x="-13.6" y="180.8" transform="matrix(0.2311 -0.9729 0.9729 0.2311 -154.0158 182.5173)" fill="#EF8A21" width="104" height="15.9"/>
	</g>
	<g>
		
			<rect x="4.7" y="185.1" transform="matrix(0.2311 -0.9729 0.9729 0.2311 -144.1779 203.6563)" fill="#EF8A21" width="104" height="15.9"/>
		
			<rect x="23.5" y="189.6" transform="matrix(0.2311 -0.9729 0.9729 0.2311 -134.1098 225.2895)" fill="#EF8A21" width="104" height="15.9"/>
	</g>
	<g>
		
			<rect x="191" y="229.3" transform="matrix(0.2311 -0.9729 0.9729 0.2311 -43.9907 418.7658)" fill="#EF8A21" width="103.9" height="15.9"/>
		
			<rect x="209.7" y="233.7" transform="matrix(0.2311 -0.9729 0.9729 0.2311 -33.9228 440.399)" fill="#EF8A21" width="103.9" height="15.9"/>
	</g>
	<g>
		
			<rect x="228" y="238.1" transform="matrix(0.2311 -0.9729 0.9729 0.2311 -24.0848 461.5379)" fill="#EF8A21" width="103.9" height="15.9"/>
		
			<rect x="246.7" y="242.5" transform="matrix(0.2311 -0.9729 0.9729 0.2311 -14.0169 483.1711)" fill="#EF8A21" width="103.9" height="15.9"/>
	</g>
	
		<rect x="154.9" y="163.4" transform="matrix(0.9729 0.2311 -0.2311 0.9729 47.6358 -33.3406)" fill="#CCCBCB" width="22.5" height="46.5"/>
	
		<rect x="167.8" y="119.8" transform="matrix(0.9729 0.2311 -0.2311 0.9729 34.8189 -37.8711)" fill="#CCCBCB" width="22.5" height="19.8"/>
	
		<rect x="176.2" y="194.3" transform="matrix(0.9729 0.2311 -0.2311 0.9729 52.7405 -39.2006)" fill="#CCCBCB" width="34.9" height="22.5"/>
	
		<rect x="147.8" y="211.7" transform="matrix(0.9729 0.2311 -0.2311 0.9729 54.2928 -30.912)" fill="#CCCBCB" width="22.5" height="9.2"/>
	<circle fill="#E5E5E4" cx="203.6" cy="207.9" r="13"/>
	<circle fill="#CCCBCB" cx="184.4" cy="107.2" r="6.9"/>
	<circle fill="#CCCBCB" cx="182.1" cy="116.9" r="2.9"/>
	<path fill="#CCCBCB" d="M195.5,102.8l-19.1-4.5c-0.8-0.2-1.3-1-1.1-1.8l6.2-25.9c0.2-0.8,1-1.3,1.8-1.1l19.1,4.5
		c0.8,0.2,1.3,1,1.1,1.8l-6.2,25.9C197.1,102.5,196.3,103,195.5,102.8z"/>
	<path fill="#CCCBCB" d="M198.7,72.2c-4,0-7.8-0.9-11.3-2.7c-1.1-0.6-1.9-1.7-1.9-3c0-4,0.9-7.8,2.7-11.3c0.6-1.1,1.7-1.9,3-1.9
		c4,0,7.8,0.9,11.3,2.7c1.1,0.6,1.9,1.7,1.9,3c0,4-0.9,7.8-2.7,11.3C201.2,71.5,200,72.2,198.7,72.2z"/>
	
		<rect x="189" y="43.8" transform="matrix(0.9729 0.2311 -0.2311 0.9729 16.6468 -44.5007)" fill="#CCCBCB" width="18.5" height="9.9"/>
	<polygon fill="#CCCBCB" points="208.4,46.1 190.4,41.8 188.8,34.4 213.3,40.2 	"/>
	<polygon opacity="0.29" points="208.4,46.1 190.4,41.8 188.8,34.4 213.3,40.2 	"/>
	<path fill="#E5E5E4" d="M216.2,19.9L195.4,15c-1-0.2-2,0.4-2.3,1.4l-4.3,18l24.5,5.8l4.3-18C217.8,21.2,217.2,20.2,216.2,19.9z"/>
	<path fill="#CCCBCB" d="M155.6,239.5l-4.7-1.1c-2-0.5-3.3-2.5-2.8-4.6l3.4-14.5c0-0.1,0.1-0.1,0.1-0.1l11.9,2.8
		c0.1,0,0.1,0.1,0.1,0.1l-3.4,14.5C159.7,238.7,157.6,240,155.6,239.5z"/>
	<path fill="#979797" d="M187.9,141.1l4.2-17.6c0.6,3,0.6,6.1-0.2,9.3C191.2,135.9,189.8,138.7,187.9,141.1z"/>
	<circle fill="#676767" cx="184.3" cy="107.2" r="3.6"/>
	
		<rect x="23.8" y="134.3" transform="matrix(0.9729 0.2311 -0.2311 0.9729 32.3384 -5.8904)" fill="#CCCBCB" width="35.1" height="1.6"/>
	
		<rect x="60.8" y="143.1" transform="matrix(0.9729 0.2311 -0.2311 0.9729 35.3722 -14.2065)" fill="#CCCBCB" width="35.1" height="1.6"/>
	
		<rect x="246.9" y="187.4" transform="matrix(0.9729 0.2311 -0.2311 0.9729 50.6467 -56.0298)" fill="#CCCBCB" width="35.1" height="1.6"/>
	
		<rect x="283.9" y="196.2" transform="matrix(0.9729 0.2311 -0.2311 0.9729 53.6806 -64.3459)" fill="#CCCBCB" width="35.1" height="1.6"/>
	
		<rect x="38.1" y="128.9" transform="matrix(0.9729 0.2311 -0.2311 0.9729 31.5862 -6.2591)" fill="#CCCBCB" width="8.9" height="5.6"/>
	
		<rect x="74.7" y="137.6" transform="matrix(0.9729 0.2311 -0.2311 0.9729 34.5897 -14.4919)" fill="#CCCBCB" width="8.9" height="5.6"/>
	
		<rect x="260.8" y="181.8" transform="matrix(0.9729 0.2311 -0.2311 0.9729 49.8432 -56.303)" fill="#CCCBCB" width="8.9" height="5.6"/>
	
		<rect x="297.4" y="190.5" transform="matrix(0.9729 0.2311 -0.2311 0.9729 52.8467 -64.5358)" fill="#CCCBCB" width="8.9" height="5.6"/>
	<g>
		
			<rect x="278" y="110.7" transform="matrix(0.2311 -0.9729 0.9729 0.2311 138.3591 412.2563)" fill="#EF8A21" width="104" height="15.9"/>
		
			<rect x="259.3" y="106.2" transform="matrix(0.2311 -0.9729 0.9729 0.2311 128.2911 390.6231)" fill="#EF8A21" width="104" height="15.9"/>
	</g>
	<g>
		
			<rect x="241" y="101.9" transform="matrix(0.2311 -0.9729 0.9729 0.2311 118.4532 369.4842)" fill="#EF8A21" width="104" height="15.9"/>
		
			<rect x="222.3" y="97.4" transform="matrix(0.2311 -0.9729 0.9729 0.2311 108.3852 347.8509)" fill="#EF8A21" width="104" height="15.9"/>
	</g>
	<g>
		
			<rect x="54.8" y="57.7" transform="matrix(0.2311 -0.9729 0.9729 0.2311 18.266 154.3747)" fill="#EF8A21" width="103.9" height="15.9"/>
		
			<rect x="36.1" y="53.2" transform="matrix(0.2311 -0.9729 0.9729 0.2311 8.1981 132.7415)" fill="#EF8A21" width="103.9" height="15.9"/>
	</g>
	<g>
		
			<rect x="17.8" y="48.9" transform="matrix(0.2311 -0.9729 0.9729 0.2311 -1.6399 111.6025)" fill="#EF8A21" width="103.9" height="15.9"/>
		
			<rect x="-0.9" y="44.5" transform="matrix(0.2311 -0.9729 0.9729 0.2311 -11.7078 89.9693)" fill="#EF8A21" width="103.9" height="15.9"/>
	</g>
	
		<rect x="290.9" y="167" transform="matrix(-0.9729 -0.2311 0.2311 -0.9729 569.76 402.2487)" fill="#CCCBCB" width="35.1" height="1.6"/>
	
		<rect x="253.9" y="158.2" transform="matrix(-0.9729 -0.2311 0.2311 -0.9729 498.7658 376.3486)" fill="#CCCBCB" width="35.1" height="1.6"/>
	
		<rect x="67.7" y="113.9" transform="matrix(-0.9729 -0.2311 0.2311 -0.9729 141.7191 245.95)" fill="#CCCBCB" width="35.1" height="1.6"/>
	
		<rect x="30.7" y="105.1" transform="matrix(-0.9729 -0.2311 0.2311 -0.9729 70.725 220.0498)" fill="#CCCBCB" width="35.1" height="1.6"/>
	
		<rect x="302.8" y="168.4" transform="matrix(-0.9729 -0.2311 0.2311 -0.9729 566.6125 408.67)" fill="#CCCBCB" width="8.9" height="5.6"/>
	
		<rect x="266.2" y="159.7" transform="matrix(-0.9729 -0.2311 0.2311 -0.9729 496.3286 383.029)" fill="#CCCBCB" width="8.9" height="5.6"/>
	
		<rect x="80.1" y="115.5" transform="matrix(-0.9729 -0.2311 0.2311 -0.9729 139.3873 252.8094)" fill="#CCCBCB" width="8.9" height="5.6"/>
	
		<rect x="43.4" y="106.8" transform="matrix(-0.9729 -0.2311 0.2311 -0.9729 69.1034 227.1683)" fill="#CCCBCB" width="8.9" height="5.6"/>
	<circle fill="#E5E5E4" cx="195" cy="62.7" r="5.3"/>
	<g>
		<g>
			
				<rect x="131.6" y="99.7" transform="matrix(-0.9729 -0.2311 0.2311 -0.9729 244.474 234.2473)" fill="#EF8A21" width="8.7" height="6.2"/>
			
				<rect x="141.2" y="102" transform="matrix(-0.9729 -0.2311 0.2311 -0.9729 262.9753 240.997)" fill="#EF8A21" width="8.7" height="6.2"/>
			
				<rect x="150.9" y="104.3" transform="matrix(-0.9729 -0.2311 0.2311 -0.9729 281.4768 247.7468)" fill="#EF8A21" width="8.7" height="6.2"/>
			
				<rect x="129.9" y="106.9" transform="matrix(-0.9729 -0.2311 0.2311 -0.9729 239.4117 248.1234)" fill="#EF8A21" width="8.7" height="6.2"/>
			
				<rect x="139.5" y="109.2" transform="matrix(-0.9729 -0.2311 0.2311 -0.9729 257.913 254.8731)" fill="#EF8A21" width="8.7" height="6.2"/>
			
				<rect x="149.2" y="111.5" transform="matrix(-0.9729 -0.2311 0.2311 -0.9729 276.4145 261.6228)" fill="#EF8A21" width="8.7" height="6.2"/>
			
				<rect x="128.2" y="114.2" transform="matrix(-0.9729 -0.2311 0.2311 -0.9729 234.3494 261.9995)" fill="#EF8A21" width="8.7" height="6.2"/>
			
				<rect x="137.8" y="116.5" transform="matrix(-0.9729 -0.2311 0.2311 -0.9729 252.8508 268.7492)" fill="#EF8A21" width="8.7" height="6.2"/>
			
				<rect x="147.5" y="118.7" transform="matrix(-0.9729 -0.2311 0.2311 -0.9729 271.3522 275.4989)" fill="#EF8A21" width="8.7" height="6.2"/>
			
				<rect x="126.4" y="121.4" transform="matrix(-0.9729 -0.2311 0.2311 -0.9729 229.2871 275.8755)" fill="#EF8A21" width="8.7" height="6.2"/>
			
				<rect x="136.1" y="123.7" transform="matrix(-0.9729 -0.2311 0.2311 -0.9729 247.7886 282.6253)" fill="#EF8A21" width="8.7" height="6.2"/>
			
				<rect x="145.7" y="126" transform="matrix(-0.9729 -0.2311 0.2311 -0.9729 266.2899 289.375)" fill="#EF8A21" width="8.7" height="6.2"/>
		</g>
		
			<rect x="156.9" y="105.2" transform="matrix(0.9729 0.2311 -0.2311 0.9729 31.8682 -33.2052)" fill="#CCCBCB" width="1.6" height="28.5"/>
		<g>
			<g>
				
					<rect x="220.3" y="143.7" transform="matrix(0.9729 0.2311 -0.2311 0.9729 40.0043 -47.9342)" fill="#EF8A21" width="8.7" height="6.2"/>
				
					<rect x="210.6" y="141.4" transform="matrix(0.9729 0.2311 -0.2311 0.9729 39.2136 -45.767)" fill="#EF8A21" width="8.7" height="6.2"/>
				
					<rect x="201" y="139.1" transform="matrix(0.9729 0.2311 -0.2311 0.9729 38.423 -43.5998)" fill="#EF8A21" width="8.7" height="6.2"/>
				
					<rect x="222" y="136.4" transform="matrix(0.9729 0.2311 -0.2311 0.9729 38.3789 -48.5272)" fill="#EF8A21" width="8.7" height="6.2"/>
				
					<rect x="212.3" y="134.2" transform="matrix(0.9729 0.2311 -0.2311 0.9729 37.5882 -46.36)" fill="#EF8A21" width="8.7" height="6.2"/>
				
					<rect x="202.7" y="131.9" transform="matrix(0.9729 0.2311 -0.2311 0.9729 36.7976 -44.1928)" fill="#EF8A21" width="8.7" height="6.2"/>
				
					<rect x="223.7" y="129.2" transform="matrix(0.9729 0.2311 -0.2311 0.9729 36.7535 -49.1202)" fill="#EF8A21" width="8.7" height="6.2"/>
				
					<rect x="214" y="126.9" transform="matrix(0.9729 0.2311 -0.2311 0.9729 35.9628 -46.953)" fill="#EF8A21" width="8.7" height="6.2"/>
				
					<rect x="204.4" y="124.6" transform="matrix(0.9729 0.2311 -0.2311 0.9729 35.1722 -44.7858)" fill="#EF8A21" width="8.7" height="6.2"/>
				
					<rect x="225.4" y="122" transform="matrix(0.9729 0.2311 -0.2311 0.9729 35.1281 -49.7131)" fill="#EF8A21" width="8.7" height="6.2"/>
				
					<rect x="215.8" y="119.7" transform="matrix(0.9729 0.2311 -0.2311 0.9729 34.3374 -47.546)" fill="#EF8A21" width="8.7" height="6.2"/>
				
					<rect x="206.1" y="117.4" transform="matrix(0.9729 0.2311 -0.2311 0.9729 33.5468 -45.3787)" fill="#EF8A21" width="8.7" height="6.2"/>
			</g>
			
				<rect x="202.1" y="115.9" transform="matrix(-0.9729 -0.2311 0.2311 -0.9729 370.216 303.705)" fill="#CCCBCB" width="1.6" height="28.5"/>
		</g>
	</g>
	<g>
		<g>
			<g>
				
					<rect x="212.1" y="59.9" transform="matrix(-0.9729 -0.2311 0.2311 -0.9729 408.8322 171.5809)" fill="#EF8A21" width="4.7" height="3.9"/>
				
					<rect x="217.8" y="61.2" transform="matrix(-0.9729 -0.2311 0.2311 -0.9729 419.7343 175.5582)" fill="#EF8A21" width="4.7" height="3.9"/>
				
					<rect x="223.5" y="62.6" transform="matrix(-0.9729 -0.2311 0.2311 -0.9729 430.6363 179.5355)" fill="#EF8A21" width="4.7" height="3.9"/>
				
					<rect x="229.2" y="63.9" transform="matrix(-0.9729 -0.2311 0.2311 -0.9729 441.5385 183.5128)" fill="#EF8A21" width="4.7" height="3.9"/>
				
					<rect x="234.8" y="65.3" transform="matrix(-0.9729 -0.2311 0.2311 -0.9729 452.4405 187.4901)" fill="#EF8A21" width="4.7" height="3.9"/>
				
					<rect x="240.5" y="66.6" transform="matrix(-0.9729 -0.2311 0.2311 -0.9729 463.3426 191.4675)" fill="#EF8A21" width="4.7" height="3.9"/>
				
					<rect x="246.2" y="68" transform="matrix(-0.9729 -0.2311 0.2311 -0.9729 474.2447 195.4447)" fill="#EF8A21" width="4.7" height="3.9"/>
				
					<rect x="251.9" y="69.3" transform="matrix(-0.9729 -0.2311 0.2311 -0.9729 485.1467 199.422)" fill="#EF8A21" width="4.7" height="3.9"/>
				
					<rect x="257.6" y="70.7" transform="matrix(-0.9729 -0.2311 0.2311 -0.9729 496.0489 203.3993)" fill="#EF8A21" width="4.7" height="3.9"/>
				
					<rect x="210.9" y="64.8" transform="matrix(-0.9729 -0.2311 0.2311 -0.9729 405.3925 181.0095)" fill="#EF8A21" width="4.7" height="3.9"/>
				
					<rect x="216.6" y="66.1" transform="matrix(-0.9729 -0.2311 0.2311 -0.9729 416.2945 184.9868)" fill="#EF8A21" width="4.7" height="3.9"/>
				
					<rect x="222.3" y="67.5" transform="matrix(-0.9729 -0.2311 0.2311 -0.9729 427.1967 188.9641)" fill="#EF8A21" width="4.7" height="3.9"/>
				
					<rect x="228" y="68.8" transform="matrix(-0.9729 -0.2311 0.2311 -0.9729 438.0987 192.9414)" fill="#EF8A21" width="4.7" height="3.9"/>
				
					<rect x="233.7" y="70.2" transform="matrix(-0.9729 -0.2311 0.2311 -0.9729 449.0007 196.9187)" fill="#EF8A21" width="4.7" height="3.9"/>
				
					<rect x="239.4" y="71.5" transform="matrix(-0.9729 -0.2311 0.2311 -0.9729 459.9029 200.896)" fill="#EF8A21" width="4.7" height="3.9"/>
				
					<rect x="245" y="72.9" transform="matrix(-0.9729 -0.2311 0.2311 -0.9729 470.8049 204.8733)" fill="#EF8A21" width="4.7" height="3.9"/>
				
					<rect x="250.7" y="74.2" transform="matrix(-0.9729 -0.2311 0.2311 -0.9729 481.707 208.8507)" fill="#EF8A21" width="4.7" height="3.9"/>
				
					<rect x="256.4" y="75.6" transform="matrix(-0.9729 -0.2311 0.2311 -0.9729 492.6091 212.828)" fill="#EF8A21" width="4.7" height="3.9"/>
			</g>
			<g>
				
					<rect x="209.6" y="70.2" transform="matrix(-0.9729 -0.2311 0.2311 -0.9729 401.5785 191.4637)" fill="#EF8A21" width="4.7" height="3.9"/>
				
					<rect x="215.3" y="71.6" transform="matrix(-0.9729 -0.2311 0.2311 -0.9729 412.4806 195.441)" fill="#EF8A21" width="4.7" height="3.9"/>
				
					<rect x="221" y="72.9" transform="matrix(-0.9729 -0.2311 0.2311 -0.9729 423.3827 199.4183)" fill="#EF8A21" width="4.7" height="3.9"/>
				
					<rect x="226.7" y="74.3" transform="matrix(-0.9729 -0.2311 0.2311 -0.9729 434.2848 203.3956)" fill="#EF8A21" width="4.7" height="3.9"/>
				
					<rect x="232.4" y="75.6" transform="matrix(-0.9729 -0.2311 0.2311 -0.9729 445.1868 207.3729)" fill="#EF8A21" width="4.7" height="3.9"/>
				
					<rect x="238.1" y="77" transform="matrix(-0.9729 -0.2311 0.2311 -0.9729 456.0889 211.3503)" fill="#EF8A21" width="4.7" height="3.9"/>
				
					<rect x="243.7" y="78.3" transform="matrix(-0.9729 -0.2311 0.2311 -0.9729 466.991 215.3276)" fill="#EF8A21" width="4.7" height="3.9"/>
				
					<rect x="249.4" y="79.7" transform="matrix(-0.9729 -0.2311 0.2311 -0.9729 477.8931 219.3049)" fill="#EF8A21" width="4.7" height="3.9"/>
				
					<rect x="255.1" y="81" transform="matrix(-0.9729 -0.2311 0.2311 -0.9729 488.7951 223.2822)" fill="#EF8A21" width="4.7" height="3.9"/>
				
					<rect x="208.5" y="75.2" transform="matrix(-0.9729 -0.2311 0.2311 -0.9729 398.1388 200.8923)" fill="#EF8A21" width="4.7" height="3.9"/>
				
					<rect x="214.2" y="76.5" transform="matrix(-0.9729 -0.2311 0.2311 -0.9729 409.0408 204.8696)" fill="#EF8A21" width="4.7" height="3.9"/>
				
					<rect x="219.8" y="77.9" transform="matrix(-0.9729 -0.2311 0.2311 -0.9729 419.943 208.847)" fill="#EF8A21" width="4.7" height="3.9"/>
				
					<rect x="225.5" y="79.2" transform="matrix(-0.9729 -0.2311 0.2311 -0.9729 430.845 212.8242)" fill="#EF8A21" width="4.7" height="3.9"/>
				
					<rect x="231.2" y="80.6" transform="matrix(-0.9729 -0.2311 0.2311 -0.9729 441.7471 216.8015)" fill="#EF8A21" width="4.7" height="3.9"/>
				
					<rect x="236.9" y="81.9" transform="matrix(-0.9729 -0.2311 0.2311 -0.9729 452.6492 220.7788)" fill="#EF8A21" width="4.7" height="3.9"/>
				
					<rect x="242.6" y="83.3" transform="matrix(-0.9729 -0.2311 0.2311 -0.9729 463.5512 224.7561)" fill="#EF8A21" width="4.7" height="3.9"/>
				
					<rect x="248.3" y="84.6" transform="matrix(-0.9729 -0.2311 0.2311 -0.9729 474.4533 228.7335)" fill="#EF8A21" width="4.7" height="3.9"/>
				
					<rect x="253.9" y="86" transform="matrix(-0.9729 -0.2311 0.2311 -0.9729 485.3554 232.7108)" fill="#EF8A21" width="4.7" height="3.9"/>
			</g>
		</g>
		<g>
			<g>
				
					<rect x="130.8" y="40.6" transform="matrix(-0.9729 -0.2311 0.2311 -0.9729 252.9346 114.7062)" fill="#EF8A21" width="4.7" height="3.9"/>
				
					<rect x="136.5" y="41.9" transform="matrix(-0.9729 -0.2311 0.2311 -0.9729 263.8366 118.6835)" fill="#EF8A21" width="4.7" height="3.9"/>
				
					<rect x="142.2" y="43.3" transform="matrix(-0.9729 -0.2311 0.2311 -0.9729 274.7386 122.6608)" fill="#EF8A21" width="4.7" height="3.9"/>
				
					<rect x="147.9" y="44.6" transform="matrix(-0.9729 -0.2311 0.2311 -0.9729 285.6408 126.6381)" fill="#EF8A21" width="4.7" height="3.9"/>
				
					<rect x="153.6" y="46" transform="matrix(-0.9729 -0.2311 0.2311 -0.9729 296.5428 130.6154)" fill="#EF8A21" width="4.7" height="3.9"/>
				
					<rect x="159.2" y="47.3" transform="matrix(-0.9729 -0.2311 0.2311 -0.9729 307.4449 134.5927)" fill="#EF8A21" width="4.7" height="3.9"/>
				
					<rect x="164.9" y="48.7" transform="matrix(-0.9729 -0.2311 0.2311 -0.9729 318.347 138.57)" fill="#EF8A21" width="4.7" height="3.9"/>
				
					<rect x="170.6" y="50" transform="matrix(-0.9729 -0.2311 0.2311 -0.9729 329.249 142.5473)" fill="#EF8A21" width="4.7" height="3.9"/>
				
					<rect x="176.3" y="51.4" transform="matrix(-0.9729 -0.2311 0.2311 -0.9729 340.1512 146.5246)" fill="#EF8A21" width="4.7" height="3.9"/>
				
					<rect x="129.7" y="45.5" transform="matrix(-0.9729 -0.2311 0.2311 -0.9729 249.4948 124.1348)" fill="#EF8A21" width="4.7" height="3.9"/>
				
					<rect x="135.3" y="46.8" transform="matrix(-0.9729 -0.2311 0.2311 -0.9729 260.3968 128.1121)" fill="#EF8A21" width="4.7" height="3.9"/>
				
					<rect x="141" y="48.2" transform="matrix(-0.9729 -0.2311 0.2311 -0.9729 271.299 132.0894)" fill="#EF8A21" width="4.7" height="3.9"/>
				
					<rect x="146.7" y="49.5" transform="matrix(-0.9729 -0.2311 0.2311 -0.9729 282.201 136.0667)" fill="#EF8A21" width="4.7" height="3.9"/>
				
					<rect x="152.4" y="50.9" transform="matrix(-0.9729 -0.2311 0.2311 -0.9729 293.103 140.044)" fill="#EF8A21" width="4.7" height="3.9"/>
				
					<rect x="158.1" y="52.2" transform="matrix(-0.9729 -0.2311 0.2311 -0.9729 304.0052 144.0213)" fill="#EF8A21" width="4.7" height="3.9"/>
				
					<rect x="163.8" y="53.6" transform="matrix(-0.9729 -0.2311 0.2311 -0.9729 314.9072 147.9986)" fill="#EF8A21" width="4.7" height="3.9"/>
				
					<rect x="169.4" y="54.9" transform="matrix(-0.9729 -0.2311 0.2311 -0.9729 325.8094 151.9759)" fill="#EF8A21" width="4.7" height="3.9"/>
				
					<rect x="175.1" y="56.3" transform="matrix(-0.9729 -0.2311 0.2311 -0.9729 336.7114 155.9532)" fill="#EF8A21" width="4.7" height="3.9"/>
			</g>
			<g>
				
					<rect x="128.4" y="50.9" transform="matrix(-0.9729 -0.2311 0.2311 -0.9729 245.6808 134.589)" fill="#EF8A21" width="4.7" height="3.9"/>
				
					<rect x="134" y="52.3" transform="matrix(-0.9729 -0.2311 0.2311 -0.9729 256.5829 138.5663)" fill="#EF8A21" width="4.7" height="3.9"/>
				
					<rect x="139.7" y="53.6" transform="matrix(-0.9729 -0.2311 0.2311 -0.9729 267.485 142.5436)" fill="#EF8A21" width="4.7" height="3.9"/>
				
					<rect x="145.4" y="55" transform="matrix(-0.9729 -0.2311 0.2311 -0.9729 278.3871 146.5209)" fill="#EF8A21" width="4.7" height="3.9"/>
				
					<rect x="151.1" y="56.3" transform="matrix(-0.9729 -0.2311 0.2311 -0.9729 289.2892 150.4982)" fill="#EF8A21" width="4.7" height="3.9"/>
				
					<rect x="156.8" y="57.7" transform="matrix(-0.9729 -0.2311 0.2311 -0.9729 300.1913 154.4755)" fill="#EF8A21" width="4.7" height="3.9"/>
				
					<rect x="162.5" y="59" transform="matrix(-0.9729 -0.2311 0.2311 -0.9729 311.0933 158.4528)" fill="#EF8A21" width="4.7" height="3.9"/>
				
					<rect x="168.1" y="60.4" transform="matrix(-0.9729 -0.2311 0.2311 -0.9729 321.9954 162.4301)" fill="#EF8A21" width="4.7" height="3.9"/>
				
					<rect x="173.8" y="61.7" transform="matrix(-0.9729 -0.2311 0.2311 -0.9729 332.8975 166.4074)" fill="#EF8A21" width="4.7" height="3.9"/>
				
					<rect x="127.2" y="55.9" transform="matrix(-0.9729 -0.2311 0.2311 -0.9729 242.2411 144.0176)" fill="#EF8A21" width="4.7" height="3.9"/>
				
					<rect x="132.9" y="57.2" transform="matrix(-0.9729 -0.2311 0.2311 -0.9729 253.1431 147.9949)" fill="#EF8A21" width="4.7" height="3.9"/>
				
					<rect x="138.6" y="58.6" transform="matrix(-0.9729 -0.2311 0.2311 -0.9729 264.0453 151.9722)" fill="#EF8A21" width="4.7" height="3.9"/>
				
					<rect x="144.2" y="59.9" transform="matrix(-0.9729 -0.2311 0.2311 -0.9729 274.9473 155.9495)" fill="#EF8A21" width="4.7" height="3.9"/>
				
					<rect x="149.9" y="61.3" transform="matrix(-0.9729 -0.2311 0.2311 -0.9729 285.8495 159.9268)" fill="#EF8A21" width="4.7" height="3.9"/>
				
					<rect x="155.6" y="62.6" transform="matrix(-0.9729 -0.2311 0.2311 -0.9729 296.7515 163.9041)" fill="#EF8A21" width="4.7" height="3.9"/>
				
					<rect x="161.3" y="64" transform="matrix(-0.9729 -0.2311 0.2311 -0.9729 307.6535 167.8814)" fill="#EF8A21" width="4.7" height="3.9"/>
				
					<rect x="167" y="65.3" transform="matrix(-0.9729 -0.2311 0.2311 -0.9729 318.5557 171.8587)" fill="#EF8A21" width="4.7" height="3.9"/>
				
					<rect x="172.7" y="66.7" transform="matrix(-0.9729 -0.2311 0.2311 -0.9729 329.4577 175.836)" fill="#EF8A21" width="4.7" height="3.9"/>
			</g>
		</g>
		
			<rect x="127.9" y="58.5" transform="matrix(0.9729 0.2311 -0.2311 0.9729 18.2958 -37.6161)" fill="#CCCBCB" width="83.5" height="1.7"/>
		
			<rect x="209.7" y="74.1" transform="matrix(0.9729 0.2311 -0.2311 0.9729 23.6787 -52.3712)" fill="#CCCBCB" width="51.5" height="1.7"/>
	</g>
	
		<rect x="200.2" y="83.9" transform="matrix(-0.9729 -0.2311 0.2311 -0.9729 382.2006 224.155)" fill="#CCCBCB" width="8" height="11.7"/>
	<circle fill="#E5E5E4" cx="208.1" cy="90.6" r="6.4"/>
	<circle fill="#E5E5E4" cx="195" cy="62.7" r="5.3"/>
	<circle fill="#E5E5E4" cx="195" cy="62.7" r="5.3"/>
	<circle fill="#E5E5E4" cx="195" cy="62.7" r="5.3"/>
	<circle fill="#E5E5E4" cx="195" cy="62.7" r="5.3"/>
	<circle fill="#E5E5E4" cx="195" cy="62.7" r="5.3"/>
	<circle fill="#E5E5E4" cx="195" cy="62.7" r="5.3"/>
	<circle fill="#E5E5E4" cx="195" cy="62.7" r="5.3"/>
	<circle fill="#E5E5E4" cx="195" cy="62.7" r="5.3"/>
	<circle fill="#E5E5E4" cx="195" cy="62.7" r="5.3"/>
	<circle fill="#E5E5E4" cx="195" cy="62.7" r="5.3"/>
	<circle fill="#E5E5E4" cx="195" cy="62.7" r="5.3"/>
	<g>
		<circle fill="#E5E5E4" cx="196.4" cy="56.6" r="0.3"/>
		<circle fill="#E5E5E4" cx="193.2" cy="56.7" r="0.3"/>
		<circle fill="#E5E5E4" cx="190.4" cy="58.4" r="0.3"/>
		<circle fill="#E5E5E4" cx="188.8" cy="61.3" r="0.3"/>
		<circle fill="#E5E5E4" cx="188.9" cy="64.5" r="0.3"/>
		<circle fill="#E5E5E4" cx="190.6" cy="67.3" r="0.3"/>
		<circle fill="#E5E5E4" cx="193.5" cy="68.8" r="0.3"/>
		<circle fill="#E5E5E4" cx="196.8" cy="68.8" r="0.3"/>
		<circle fill="#E5E5E4" cx="199.5" cy="67" r="0.3"/>
		<circle fill="#E5E5E4" cx="201.1" cy="64.2" r="0.3"/>
		<circle fill="#E5E5E4" cx="201" cy="60.9" r="0.3"/>
		<circle fill="#E5E5E4" cx="199.3" cy="58.1" r="0.3"/>
	</g>
	
		<rect x="184.3" y="73.4" transform="matrix(0.9729 0.2311 -0.2311 0.9729 25.0414 -41.4382)" fill="#808080" width="10.2" height="25.5"/>
	
		<rect x="184.4" y="72.4" transform="matrix(0.9729 0.2311 -0.2311 0.9729 24.6865 -40.4654)" opacity="0.13" width="1.3" height="25.5"/>
	
		<rect x="193" y="74.4" transform="matrix(0.9729 0.2311 -0.2311 0.9729 25.3906 -42.3953)" opacity="0.13" width="1.3" height="25.5"/>
	
		<rect x="178.9" y="121.1" transform="matrix(-0.9729 -0.2311 0.2311 -0.9729 333.8065 301.0951)" opacity="0.6" fill="#E5E5E4" width="11.3" height="19.8"/>
	
		<rect x="159.1" y="213" transform="matrix(-0.9729 -0.2311 0.2311 -0.9729 274.5927 467.5988)" opacity="0.6" fill="#E5E5E4" width="11.3" height="9.4"/>
	<circle fill="#E5E5E4" cx="179.1" cy="129.7" r="7.3"/>
	<circle fill="#979797" cx="179.1" cy="129.7" r="5.2"/>
	<path fill="#E5E5E4" d="M29.7,108.1l-4,16.8l98.3,23.3l4-16.8L29.7,108.1z M122.6,145.9L28,123.4l3.1-13.1l94.6,22.5L122.6,145.9z"
		/>
	
		<rect x="124.6" y="142.9" transform="matrix(-0.9729 -0.2311 0.2311 -0.9729 310.4331 339.3104)" fill="#E5E5E4" width="101" height="17.2"/>
	<path fill="#E5E5E4" d="M226.2,154.8l-4,16.8l98.3,23.3l4-16.8L226.2,154.8z M319.1,192.6l-94.6-22.5l3.1-13.1l94.6,22.5
		L319.1,192.6z"/>
	<polygon opacity="0.11" fill="#FFFFFF" points="55.4,0 70.8,3.7 52,82.8 31.3,101.1 	"/>
	<polygon opacity="0.11" fill="#FFFFFF" points="74.1,4.4 89.5,8.1 77,60.7 56.4,78.9 	"/>
	<polygon opacity="0.11" fill="#FFFFFF" points="92.4,8.8 107.8,12.5 101.5,39 80.8,57.3 	"/>
	<polygon opacity="0.11" fill="#FFFFFF" points="126.5,16.9 105.9,35.2 111.1,13.2 	"/>
	<polygon opacity="0.11" fill="#FFFFFF" points="278.5,53 294,56.7 275.2,135.8 254.5,154.1 	"/>
	<polygon opacity="0.11" fill="#FFFFFF" points="312.7,61.2 300.2,113.7 279.6,132 297.3,57.5 	"/>
	<polygon opacity="0.11" fill="#FFFFFF" points="331,65.5 324.7,92.1 304,110.3 315.5,61.8 	"/>
	<polygon opacity="0.11" fill="#FFFFFF" points="349.7,70 329.1,88.2 334.3,66.3 	"/>
	<polygon opacity="0.11" fill="#FFFFFF" points="247.2,184.9 262.7,188.5 243.9,267.6 223.2,285.9 	"/>
	<polygon opacity="0.11" fill="#FFFFFF" points="281.4,193 268.9,245.5 248.3,263.8 265.9,189.3 	"/>
	<polygon opacity="0.11" fill="#FFFFFF" points="299.7,197.3 293.4,223.9 272.7,242.2 284.2,193.6 	"/>
	<polygon opacity="0.11" fill="#FFFFFF" points="318.4,201.8 297.8,220 303,198.1 	"/>
	<polygon opacity="0.11" fill="#FFFFFF" points="24,131.9 39.5,135.6 20.7,214.7 0,232.9 	"/>
	<polygon opacity="0.11" fill="#FFFFFF" points="42.7,136.3 58.2,140 45.7,192.6 25.1,210.8 	"/>
	<polygon opacity="0.11" fill="#FFFFFF" points="61,140.7 76.5,144.4 70.2,170.9 49.5,189.2 	"/>
	<polygon opacity="0.11" fill="#FFFFFF" points="95.2,148.8 74.5,167.1 79.8,145.1 	"/>
</g>
</svg>
