<?xml version="1.0" encoding="utf-8"?>
<!-- Generator: Adobe Illustrator 19.2.1, SVG Export Plug-In . SVG Version: 6.00 Build 0)  -->
<svg version="1.1" id="Layer_1" xmlns="http://www.w3.org/2000/svg" xmlns:xlink="http://www.w3.org/1999/xlink" x="0px" y="0px"
	 viewBox="0 0 305.8 286.9" style="enable-background:new 0 0 305.8 286.9;" xml:space="preserve">
<style type="text/css">
	@keyframes pulse {
		0% { opacity: .4; }
		100% { opacity: 1; }
	}
	@keyframes signal1 {
		0% { r : 1 }
		100% { r : 200 }
	}
	@keyframes signal2 {
		0% { r : 200 }
		100% { r : 400 }
	}
	@keyframes signal3 {
		0% { r : 400 }
		100% { r : 600 }
	}
	@keyframes signal4 {
		0% { r : 600 }
		100% { r : 800 }
	}
	@keyframes signal5 {
		0% { r : 800 }
		100% { r : 1000 }
	}
	@keyframes signal6 {
		0% { r : 1000 }
		100% { r : 1200 }
	}
	@keyframes signal7 {
		0% { r : 1200 }
		100% { r : 1400 }
	}
	.st0{fill:none;stroke:#F9DE5C;stroke-width:2;stroke-miterlimit:10;}
	.signal1{animation: pulse 2s ease infinite, signal1 2s linear infinite}
	.signal2{animation: signal2 2s linear infinite}
	.signal3{animation: signal3 2s linear infinite}
	.signal4{animation: signal4 2s linear infinite}
	.signal5{animation: signal5 2s linear infinite}
	.signal6{animation: signal6 2s linear infinite}
	.signal7{animation: signal7 2s linear infinite}
	.st1{fill:#989898;}
	.st2{fill:#CDCCCC;}
	.st3{fill:#818181;}
	.st4{fill:#989898;stroke:#CDCCCC;stroke-width:6.844182e-02;stroke-miterlimit:10;}
	.st5{opacity:0.16;}
	.st6{fill:#333333;}
	.st7{fill:#E6E6E5;}
	.st8{fill:none;stroke:#E6E6E5;stroke-width:0.754;stroke-miterlimit:10;}
	.st9{fill:none;stroke:#CDCCCC;stroke-width:6.844182e-02;stroke-miterlimit:10;}
	.st10{fill:#F08B21;}
	.st11{opacity:0.29;fill:#010101;enable-background:new    ;}
	.st12{fill:#676767;}
	.st13{opacity:0.13;fill:#010101;enable-background:new    ;}
	.st14{opacity:0.6;fill:#E6E6E5;enable-background:new    ;}
	.st15{opacity:0.11;fill:#FFFFFF;enable-background:new    ;}
</style>
<circle class="st0 signal1" cx="206.6" cy="47.2" r="1"/>
<circle class="st0 signal2" cx="206.6" cy="47.2" r="20"/>
<circle class="st0 signal3" cx="206.6" cy="47.2" r="40"/>
<circle class="st0 signal4" cx="206.6" cy="47.2" r="60"/>
<circle class="st0 signal5" cx="206.6" cy="47.2" r="80"/>
<circle class="st0 signal6" cx="206.6" cy="47.2" r="100"/>
<circle class="st0 signal7" cx="206.6" cy="47.2" r="120"/>
<g>

		<rect x="161.3" y="117.9" transform="matrix(0.4959 -0.8684 0.8684 0.4959 -19.5804 204.1539)" class="st1" width="9.4" height="2.1"/>

		<rect x="165.9" y="106.8" transform="matrix(0.4959 -0.8684 0.8684 0.4959 -9.0557 203.935)" class="st1" width="10.5" height="5.9"/>
	<rect x="178" y="86" transform="matrix(0.4959 -0.8684 0.8684 0.4959 15.1307 203.926)" class="st1" width="10.5" height="5.9"/>
	<rect x="190" y="69.5" transform="matrix(0.4959 -0.8684 0.8684 0.4959 32.8728 203.8305)" class="st1" width="3.9" height="8.2"/>
	<g>
		<path class="st1" d="M177.1,177l-13.7-7.8c2.6,0.2,5.3,1,7.7,2.4C173.5,173,175.5,174.9,177.1,177z"/>
		<path class="st1" d="M157.8,178.9l13.7,7.8c-2.6-0.2-5.3-1-7.7-2.4C161.4,182.9,159.4,181.1,157.8,178.9z"/>

			<rect x="161.8" y="168.9" transform="matrix(0.4959 -0.8684 0.8684 0.4959 -70.1982 235.1507)" class="st2" width="11.2" height="18.3"/>
	</g>

		<rect x="151.7" y="130.8" transform="matrix(0.4959 -0.8684 0.8684 0.4959 -40.5911 204.0808)" class="st2" width="7.6" height="12.5"/>

		<rect x="151.7" y="130.8" transform="matrix(0.4959 -0.8684 0.8684 0.4959 -40.5911 204.0808)" class="st3" width="7.6" height="12.5"/>

		<rect x="125.9" y="181" transform="matrix(0.4959 -0.8684 0.8684 0.4959 -97.5011 205.2147)" class="st4" width="4.2" height="11.2"/>

		<rect x="144.2" y="144" transform="matrix(0.4959 -0.8684 0.8684 0.4959 -55.8881 204.2995)" class="st2" width="7.6" height="12.5"/>

		<rect x="144.2" y="144" transform="matrix(0.4959 -0.8684 0.8684 0.4959 -55.8881 204.2995)" class="st3" width="7.6" height="12.5"/>
	<g>
		<g>
			<polygon class="st2" points="116,128.3 115.1,128.4 114.2,128.6 114,127.2 112.2,115.3 100.9,119.9 99.1,120.6 98.7,120.4
				98.4,118.5 96.6,106.3 85.2,111 83.5,111.7 83.1,111.5 82.8,109.6 81,97.4 69.6,102.1 67.8,102.8 67.5,102.6 67.2,100.7
				65.4,88.5 54,93.1 52.2,93.9 51.8,93.6 51.6,91.7 50.1,82 49.8,79.6 50.5,78.3 51.4,78.2 51.6,79.5 53.3,91.5 64.7,86.8
				66.5,86.1 66.9,86.3 67.1,88.2 68.9,100.4 80.3,95.8 82.1,95 82.5,95.3 82.8,97.2 84.6,109.3 95.9,104.7 97.7,104 98.1,104.2
				98.4,106.1 100.2,118.3 111.6,113.6 113.4,112.9 113.7,113.1 114,115 115.4,124.7 115.8,127.2 			"/>
		</g>
		<g>
			<polygon class="st2" points="261.3,198.8 260.6,200.1 258.3,201 249.3,204.7 247.5,205.4 247,205.1 246.7,203.2 245,191.2
				233.7,195.8 231.9,196.5 231.4,196.2 231.1,194.3 229.4,182.2 218.1,186.8 216.3,187.6 215.9,187.7 215.8,187.3 215.5,185.4
				213.7,173.3 202.5,177.9 200.7,178.6 200.2,178.4 199.9,176.4 198.1,164.4 186.9,169 185.7,169.5 185,167.8 186,167.4
				188.3,166.5 197.5,162.7 199.3,162 199.6,162.1 199.9,164 201.7,176.3 213.2,171.6 214.9,170.9 215.2,171 215.5,173 217.3,185.2
				228.8,180.5 230.6,179.8 230.8,180 231.1,181.9 232.9,194.2 244.4,189.5 246.2,188.7 246.4,188.6 246.4,188.9 246.7,190.8
				248.5,203.1 259.7,198.5 261,198 			"/>
		</g>
		<g class="st5">
			<polygon class="st6" points="116,128.3 115.1,128.4 114.2,128.6 114,127.2 112.2,115.3 100.9,119.9 99.1,120.6 98.7,120.4
				98.4,118.5 96.6,106.3 85.2,111 83.5,111.7 83.1,111.5 82.8,109.6 81,97.4 69.6,102.1 67.8,102.8 67.5,102.6 67.2,100.7
				65.4,88.5 54,93.1 52.2,93.9 51.8,93.6 51.6,91.7 50.1,82 49.8,79.6 50.5,78.3 51.4,78.2 51.6,79.5 53.3,91.5 64.7,86.8
				66.5,86.1 66.9,86.3 67.1,88.2 68.9,100.4 80.3,95.8 82.1,95 82.5,95.3 82.8,97.2 84.6,109.3 95.9,104.7 97.7,104 98.1,104.2
				98.4,106.1 100.2,118.3 111.6,113.6 113.4,112.9 113.7,113.1 114,115 115.4,124.7 115.8,127.2 			"/>
		</g>
		<g class="st5">
			<polygon class="st6" points="261.3,198.8 260.6,200.1 258.3,201 249.3,204.7 247.5,205.4 247,205.1 246.7,203.2 245,191.2
				233.7,195.8 231.9,196.5 231.4,196.2 231.1,194.3 229.4,182.2 218.1,186.8 216.3,187.6 215.9,187.7 215.8,187.3 215.5,185.4
				213.7,173.3 202.5,177.9 200.7,178.6 200.2,178.4 199.9,176.4 198.1,164.4 186.9,169 185.7,169.5 185,167.8 186,167.4
				188.3,166.5 197.5,162.7 199.3,162 199.6,162.1 199.9,164 201.7,176.3 213.2,171.6 214.9,170.9 215.2,171 215.5,173 217.3,185.2
				228.8,180.5 230.6,179.8 230.8,180 231.1,181.9 232.9,194.2 244.4,189.5 246.2,188.7 246.4,188.6 246.4,188.9 246.7,190.8
				248.5,203.1 259.7,198.5 261,198 			"/>
		</g>
	</g>

		<rect x="162.1" y="106.2" transform="matrix(0.4959 -0.8684 0.8684 0.4959 -25.6274 204.2047)" class="st2" width="2" height="36"/>
	<g>
		<circle class="st7" cx="160.1" cy="106.5" r="2.7"/>
		<line class="st8" x1="160.1" y1="106.5" x2="161.1" y2="119.4"/>
	</g>

		<rect x="107.5" y="159" transform="matrix(0.4959 -0.8684 0.8684 0.4959 -86.9429 185.6278)" class="st2" width="17.9" height="17.4"/>
	<path class="st1" d="M112.8,156.5l-7.8,13.7c0.2-2.6,1-5.3,2.4-7.7S110.7,158.1,112.8,156.5z"/>
	<path class="st1" d="M156.8,116.9l-7.2,12.6c0.2-2.4,0.9-4.8,2.2-7.1C153.1,120.2,154.8,118.3,156.8,116.9z"/>
	<path class="st1" d="M147.1,175.6l-7.8,13.7c0.2-2.6,1-5.3,2.4-7.7C143,179.1,144.9,177.1,147.1,175.6z"/>
	<path class="st1" d="M120.4,178.5l7.8-13.7c-0.2,2.6-1,5.3-2.4,7.7C124.4,174.9,122.5,176.9,120.4,178.5z"/>
	<path class="st9" d="M128.5,164.3l-8.9,15.5l-14.7-8.4c0-0.4,0-0.8,0.1-1.2l7.8-13.7c0.3-0.2,0.6-0.4,1-0.6L128.5,164.3z"/>
	<g>

			<rect x="-15.5" y="127.3" transform="matrix(0.4959 -0.8684 0.8684 0.4959 -102.862 90.1145)" class="st10" width="83.4" height="12.7"/>

			<rect x="-2.2" y="135" transform="matrix(0.4959 -0.8684 0.8684 0.4959 -102.7983 105.535)" class="st10" width="83.4" height="12.7"/>
	</g>
	<g>

			<rect x="11" y="142.4" transform="matrix(0.4959 -0.8684 0.8684 0.4959 -102.5915 120.7187)" class="st10" width="83.4" height="12.7"/>

			<rect x="24.3" y="150" transform="matrix(0.4959 -0.8684 0.8684 0.4959 -102.5278 136.1391)" class="st10" width="83.4" height="12.7"/>
	</g>
	<g>

			<rect x="144.2" y="218.5" transform="matrix(0.4959 -0.8684 0.8684 0.4959 -101.5096 274.7459)" class="st10" width="83.3" height="12.7"/>

			<rect x="157.6" y="226.1" transform="matrix(0.4959 -0.8684 0.8684 0.4959 -101.4321 290.2169)" class="st10" width="83.3" height="12.7"/>
	</g>
	<g>

			<rect x="170.6" y="233.6" transform="matrix(0.4959 -0.8684 0.8684 0.4959 -101.3401 305.2504)" class="st10" width="83.3" height="12.7"/>

			<rect x="184.1" y="241.2" transform="matrix(0.4959 -0.8684 0.8684 0.4959 -101.1617 320.8211)" class="st10" width="83.3" height="12.7"/>
	</g>

		<rect x="119.5" y="159.6" transform="matrix(0.4959 -0.8684 0.8684 0.4959 -76.7374 204.9156)" class="st2" width="37.3" height="18"/>

		<rect x="153" y="118.7" transform="matrix(0.4959 -0.8684 0.8684 0.4959 -29.7247 204.1036)" class="st2" width="15.9" height="18"/>

		<rect x="146.1" y="175.3" transform="matrix(0.4959 -0.8684 0.8684 0.4959 -86.1758 230.202)" class="st2" width="18.1" height="28"/>

		<rect x="122.4" y="180.8" transform="matrix(0.4959 -0.8684 0.8684 0.4959 -101.222 205.1485)" class="st2" width="7.4" height="18"/>
	<circle class="st7" cx="162.3" cy="193.3" r="10.4"/>
	<circle class="st2" cx="170.2" cy="111.6" r="5.5"/>
	<circle class="st2" cx="166.3" cy="118.5" r="2.3"/>
	<path class="st2" d="M179.8,110.7l-13.6-7.8c-0.6-0.3-0.8-1-0.4-1.6l10.6-18.6c0.3-0.6,1-0.8,1.6-0.4l13.6,7.8
		c0.6,0.3,0.8,1,0.4,1.6l-10.6,18.6C181,110.8,180.3,111,179.8,110.7z"/>
	<path class="st2" d="M189.1,87.9c-3.1-0.9-5.8-2.5-8.1-4.6c-0.8-0.7-1-1.8-0.7-2.7c0.9-3.1,2.5-5.8,4.6-8.1c0.7-0.8,1.8-1,2.7-0.7
		c3.1,0.9,5.8,2.5,8.1,4.6c0.8,0.7,1,1.8,0.7,2.7c-0.9,3.1-2.5,5.8-4.6,8.1C191.2,87.9,190.1,88.2,189.1,87.9z"/>

		<rect x="190.2" y="62.4" transform="matrix(0.4959 -0.8684 0.8684 0.4959 37.2636 203.8293)" class="st2" width="7.9" height="14.9"/>
	<polygon class="st2" points="202.5,70 189.6,62.7 190.1,56.6 207.6,66.6 	"/>
	<polygon class="st11" points="202.5,70 189.6,62.7 190.1,56.6 207.6,66.6 	"/>
	<path class="st7" d="M214.4,51.6l-14.9-8.5c-0.7-0.4-1.7-0.2-2.1,0.6l-7.3,12.8l17.5,10l7.3-12.8C215.4,53,215.1,52,214.4,51.6z"/>
	<path class="st2" d="M118.2,206.8l-3.3-1.9c-1.5-0.8-2-2.7-1.1-4.2l5.9-10.4c0,0,0.1-0.1,0.1,0l8.5,4.9c0,0,0.1,0.1,0,0.1
		l-5.9,10.4C121.5,207.1,119.7,207.6,118.2,206.8z"/>
	<path class="st1" d="M165.3,138.4l7.2-12.6c-0.2,2.4-0.9,4.8-2.2,7.1S167.3,137,165.3,138.4z"/>
	<circle class="st12" cx="170.1" cy="111.5" r="2.9"/>

		<rect x="53.2" y="86.7" transform="matrix(0.4959 -0.8684 0.8684 0.4959 -60.3085 97.5229)" class="st2" width="1.3" height="28.1"/>

		<rect x="79.7" y="101.8" transform="matrix(0.4959 -0.8684 0.8684 0.4959 -60.0781 128.1472)" class="st2" width="1.3" height="28.1"/>

		<rect x="212.9" y="177.9" transform="matrix(0.4959 -0.8684 0.8684 0.4959 -59.0338 282.1652)" class="st2" width="1.3" height="28.1"/>

		<rect x="239.3" y="193" transform="matrix(0.4959 -0.8684 0.8684 0.4959 -58.817 312.739)" class="st2" width="1.3" height="28.1"/>

		<rect x="53.3" y="94.8" transform="matrix(0.4959 -0.8684 0.8684 0.4959 -57.3935 97.8069)" class="st2" width="4.5" height="7.1"/>

		<rect x="79.5" y="109.8" transform="matrix(0.4959 -0.8684 0.8684 0.4959 -57.1961 128.114)" class="st2" width="4.5" height="7.1"/>

		<rect x="212.7" y="185.8" transform="matrix(0.4959 -0.8684 0.8684 0.4959 -56.0837 282.0789)" class="st2" width="4.5" height="7.1"/>

		<rect x="238.9" y="200.8" transform="matrix(0.4959 -0.8684 0.8684 0.4959 -55.8862 312.3861)" class="st2" width="4.5" height="7.1"/>
	<g>

			<rect x="237.9" y="146.9" transform="matrix(0.4959 -0.8684 0.8684 0.4959 7.8594 320.067)" class="st10" width="83.4" height="12.7"/>

			<rect x="224.5" y="139.2" transform="matrix(0.4959 -0.8684 0.8684 0.4959 7.7814 304.4957)" class="st10" width="83.4" height="12.7"/>
	</g>
	<g>

			<rect x="211.4" y="131.7" transform="matrix(0.4959 -0.8684 0.8684 0.4959 7.7262 289.398)" class="st10" width="83.4" height="12.7"/>

			<rect x="198.1" y="124" transform="matrix(0.4959 -0.8684 0.8684 0.4959 7.6626 273.9776)" class="st10" width="83.4" height="12.7"/>
	</g>
	<g>

			<rect x="78.2" y="55.7" transform="matrix(0.4959 -0.8684 0.8684 0.4959 6.4934 135.3853)" class="st10" width="83.3" height="12.7"/>

			<rect x="64.9" y="48.1" transform="matrix(0.4959 -0.8684 0.8684 0.4959 6.4297 119.9647)" class="st10" width="83.3" height="12.7"/>
	</g>
	<g>

			<rect x="51.8" y="40.6" transform="matrix(0.4959 -0.8684 0.8684 0.4959 6.3233 104.7802)" class="st10" width="83.3" height="12.7"/>
		<rect x="38.3" y="33" transform="matrix(0.4959 -0.8684 0.8684 0.4959 6.1454 89.31)" class="st10" width="83.3" height="12.7"/>
	</g>

		<rect x="251.2" y="172.1" transform="matrix(0.4959 -0.8684 0.8684 0.4959 -34.7069 312.5763)" class="st2" width="1.3" height="28.1"/>

		<rect x="224.8" y="157" transform="matrix(0.4959 -0.8684 0.8684 0.4959 -34.8568 282.0115)" class="st2" width="1.3" height="28.1"/>

		<rect x="91.7" y="80.9" transform="matrix(0.4959 -0.8684 0.8684 0.4959 -35.8929 128.0512)" class="st2" width="1.3" height="28.1"/>

		<rect x="65.2" y="65.7" transform="matrix(0.4959 -0.8684 0.8684 0.4959 -36.057 97.3355)" class="st2" width="1.3" height="28.1"/>

		<rect x="248" y="184.9" transform="matrix(0.4959 -0.8684 0.8684 0.4959 -37.4821 312.3079)" class="st2" width="4.5" height="7.1"/>

		<rect x="221.7" y="169.9" transform="matrix(0.4959 -0.8684 0.8684 0.4959 -37.6911 281.9359)" class="st2" width="4.5" height="7.1"/>

		<rect x="88.6" y="93.9" transform="matrix(0.4959 -0.8684 0.8684 0.4959 -38.8381 128.0463)" class="st2" width="4.5" height="7.1"/>
	<rect x="62.5" y="79" transform="matrix(0.4959 -0.8684 0.8684 0.4959 -39.0328 97.8252)" class="st2" width="4.5" height="7.1"/>
	<circle class="st7" cx="188.4" cy="79.8" r="4.2"/>
	<g>
		<g>

				<rect x="131.4" y="93.7" transform="matrix(0.4959 -0.8684 0.8684 0.4959 -16.9267 165.307)" class="st10" width="5" height="7"/>

				<rect x="138.3" y="97.7" transform="matrix(0.4959 -0.8684 0.8684 0.4959 -16.8903 173.3098)" class="st10" width="5" height="7"/>

				<rect x="145.2" y="101.7" transform="matrix(0.4959 -0.8684 0.8684 0.4959 -16.854 181.3127)" class="st10" width="5" height="7"/>
			<rect x="128.5" y="99" transform="matrix(0.4959 -0.8684 0.8684 0.4959 -22.9312 165.4323)" class="st10" width="5" height="7"/>

				<rect x="135.4" y="102.9" transform="matrix(0.4959 -0.8684 0.8684 0.4959 -22.8443 173.4216)" class="st10" width="5" height="7"/>

				<rect x="142.3" y="106.8" transform="matrix(0.4959 -0.8684 0.8684 0.4959 -22.8086 181.3242)" class="st10" width="5" height="7"/>

				<rect x="125.5" y="104.1" transform="matrix(0.4959 -0.8684 0.8684 0.4959 -28.8993 165.3933)" class="st10" width="5" height="7"/>

				<rect x="132.4" y="108.1" transform="matrix(0.4959 -0.8684 0.8684 0.4959 -28.863 173.3962)" class="st10" width="5" height="7"/>

				<rect x="139.3" y="112" transform="matrix(0.4959 -0.8684 0.8684 0.4959 -28.7761 181.3854)" class="st10" width="5" height="7"/>

				<rect x="122.6" y="109.3" transform="matrix(0.4959 -0.8684 0.8684 0.4959 -34.8532 165.5052)" class="st10" width="5" height="7"/>

				<rect x="129.4" y="113.2" transform="matrix(0.4959 -0.8684 0.8684 0.4959 -34.8176 173.4076)" class="st10" width="5" height="7"/>

				<rect x="136.4" y="117.1" transform="matrix(0.4959 -0.8684 0.8684 0.4959 -34.7305 181.3969)" class="st10" width="5" height="7"/>
		</g>

			<rect x="135.5" y="114.3" transform="matrix(0.4959 -0.8684 0.8684 0.4959 -25.7502 185.5118)" class="st2" width="22.9" height="1.3"/>
		<g>
			<g>

					<rect x="189.7" y="147.6" transform="matrix(0.4959 -0.8684 0.8684 0.4959 -34.3194 243.0513)" class="st10" width="5" height="7"/>

					<rect x="182.8" y="143.7" transform="matrix(0.4959 -0.8684 0.8684 0.4959 -34.3965 235.0783)" class="st10" width="5" height="7"/>

					<rect x="175.9" y="139.7" transform="matrix(0.4959 -0.8684 0.8684 0.4959 -34.4229 227.0917)" class="st10" width="5" height="7"/>

					<rect x="192.7" y="142.4" transform="matrix(0.4959 -0.8684 0.8684 0.4959 -28.3168 243.0281)" class="st10" width="5" height="7"/>

					<rect x="185.8" y="138.5" transform="matrix(0.4959 -0.8684 0.8684 0.4959 -28.3938 235.0551)" class="st10" width="5" height="7"/>

					<rect x="178.9" y="134.5" transform="matrix(0.4959 -0.8684 0.8684 0.4959 -28.4202 227.0684)" class="st10" width="5" height="7"/>

					<rect x="195.6" y="137.3" transform="matrix(0.4959 -0.8684 0.8684 0.4959 -22.3783 242.968)" class="st10" width="5" height="7"/>

					<rect x="188.7" y="133.3" transform="matrix(0.4959 -0.8684 0.8684 0.4959 -22.4048 234.9813)" class="st10" width="5" height="7"/>

					<rect x="181.8" y="129.4" transform="matrix(0.4959 -0.8684 0.8684 0.4959 -22.4818 227.0083)" class="st10" width="5" height="7"/>

					<rect x="198.6" y="132.1" transform="matrix(0.4959 -0.8684 0.8684 0.4959 -16.3758 242.9447)" class="st10" width="5" height="7"/>

					<rect x="191.7" y="128.1" transform="matrix(0.4959 -0.8684 0.8684 0.4959 -16.4023 234.9581)" class="st10" width="5" height="7"/>

					<rect x="184.8" y="124.2" transform="matrix(0.4959 -0.8684 0.8684 0.4959 -16.4792 226.985)" class="st10" width="5" height="7"/>
			</g>

				<rect x="167.8" y="132.7" transform="matrix(0.4959 -0.8684 0.8684 0.4959 -25.4804 222.8705)" class="st2" width="22.9" height="1.3"/>
		</g>
	</g>
	<g>
		<g>
			<g>

					<rect x="202" y="81.6" transform="matrix(0.4959 -0.8684 0.8684 0.4959 30.1674 218.8704)" class="st10" width="3.2" height="3.8"/>

					<rect x="206" y="83.9" transform="matrix(0.4959 -0.8684 0.8684 0.4959 30.153 223.5133)" class="st10" width="3.2" height="3.8"/>

					<rect x="210.1" y="86.2" transform="matrix(0.4959 -0.8684 0.8684 0.4959 30.2033 228.2939)" class="st10" width="3.2" height="3.8"/>

					<rect x="214.2" y="88.5" transform="matrix(0.4959 -0.8684 0.8684 0.4959 30.2892 232.9363)" class="st10" width="3.2" height="3.8"/>

					<rect x="218.2" y="90.8" transform="matrix(0.4959 -0.8684 0.8684 0.4959 30.2748 237.5794)" class="st10" width="3.2" height="3.8"/>

					<rect x="222.3" y="93.2" transform="matrix(0.4959 -0.8684 0.8684 0.4959 30.2745 242.3735)" class="st10" width="3.2" height="3.8"/>

					<rect x="226.3" y="95.5" transform="matrix(0.4959 -0.8684 0.8684 0.4959 30.2599 247.0166)" class="st10" width="3.2" height="3.8"/>

					<rect x="230.4" y="97.8" transform="matrix(0.4959 -0.8684 0.8684 0.4959 30.3972 251.7458)" class="st10" width="3.2" height="3.8"/>

					<rect x="234.5" y="100.1" transform="matrix(0.4959 -0.8684 0.8684 0.4959 30.3964 256.4395)" class="st10" width="3.2" height="3.8"/>

					<rect x="199.9" y="85.1" transform="matrix(0.4959 -0.8684 0.8684 0.4959 26.0079 218.8652)" class="st10" width="3.2" height="3.8"/>

					<rect x="204" y="87.4" transform="matrix(0.4959 -0.8684 0.8684 0.4959 26.0938 223.5074)" class="st10" width="3.2" height="3.8"/>

					<rect x="208.1" y="89.7" transform="matrix(0.4959 -0.8684 0.8684 0.4959 26.1441 228.288)" class="st10" width="3.2" height="3.8"/>

					<rect x="212.1" y="92.1" transform="matrix(0.4959 -0.8684 0.8684 0.4959 26.1296 232.9311)" class="st10" width="3.2" height="3.8"/>

					<rect x="216.2" y="94.4" transform="matrix(0.4959 -0.8684 0.8684 0.4959 26.2163 237.6739)" class="st10" width="3.2" height="3.8"/>

					<rect x="220.3" y="96.7" transform="matrix(0.4959 -0.8684 0.8684 0.4959 26.2155 242.3677)" class="st10" width="3.2" height="3.8"/>

					<rect x="224.4" y="99" transform="matrix(0.4959 -0.8684 0.8684 0.4959 26.3526 247.0969)" class="st10" width="3.2" height="3.8"/>

					<rect x="228.4" y="101.3" transform="matrix(0.4959 -0.8684 0.8684 0.4959 26.3381 251.7399)" class="st10" width="3.2" height="3.8"/>

					<rect x="232.5" y="103.7" transform="matrix(0.4959 -0.8684 0.8684 0.4959 26.3379 256.534)" class="st10" width="3.2" height="3.8"/>
			</g>
			<g>

					<rect x="197.7" y="89" transform="matrix(0.4959 -0.8684 0.8684 0.4959 21.5501 218.8855)" class="st10" width="3.2" height="3.8"/>

					<rect x="201.8" y="91.4" transform="matrix(0.4959 -0.8684 0.8684 0.4959 21.5499 223.6796)" class="st10" width="3.2" height="3.8"/>

					<rect x="205.9" y="93.6" transform="matrix(0.4959 -0.8684 0.8684 0.4959 21.6864 228.3085)" class="st10" width="3.2" height="3.8"/>

					<rect x="209.9" y="95.9" transform="matrix(0.4959 -0.8684 0.8684 0.4959 21.6719 232.9516)" class="st10" width="3.2" height="3.8"/>

					<rect x="214" y="98.3" transform="matrix(0.4959 -0.8684 0.8684 0.4959 21.6719 237.7456)" class="st10" width="3.2" height="3.8"/>

					<rect x="218" y="100.6" transform="matrix(0.4959 -0.8684 0.8684 0.4959 21.6573 242.3888)" class="st10" width="3.2" height="3.8"/>

					<rect x="222.1" y="102.9" transform="matrix(0.4959 -0.8684 0.8684 0.4959 21.7943 247.118)" class="st10" width="3.2" height="3.8"/>

					<rect x="226.2" y="105.2" transform="matrix(0.4959 -0.8684 0.8684 0.4959 21.7935 251.8117)" class="st10" width="3.2" height="3.8"/>

					<rect x="230.3" y="107.6" transform="matrix(0.4959 -0.8684 0.8684 0.4959 21.7798 256.5552)" class="st10" width="3.2" height="3.8"/>

					<rect x="195.7" y="92.5" transform="matrix(0.4959 -0.8684 0.8684 0.4959 17.4909 218.8796)" class="st10" width="3.2" height="3.8"/>

					<rect x="199.8" y="94.8" transform="matrix(0.4959 -0.8684 0.8684 0.4959 17.5413 223.6601)" class="st10" width="3.2" height="3.8"/>

					<rect x="203.8" y="97.2" transform="matrix(0.4959 -0.8684 0.8684 0.4959 17.5269 228.3031)" class="st10" width="3.2" height="3.8"/>

					<rect x="207.9" y="99.5" transform="matrix(0.4959 -0.8684 0.8684 0.4959 17.6135 233.046)" class="st10" width="3.2" height="3.8"/>

					<rect x="212" y="101.8" transform="matrix(0.4959 -0.8684 0.8684 0.4959 17.6127 237.7397)" class="st10" width="3.2" height="3.8"/>

					<rect x="216.1" y="104.2" transform="matrix(0.4959 -0.8684 0.8684 0.4959 17.5989 242.4832)" class="st10" width="3.2" height="3.8"/>

					<rect x="220.1" y="106.4" transform="matrix(0.4959 -0.8684 0.8684 0.4959 17.7353 247.1121)" class="st10" width="3.2" height="3.8"/>

					<rect x="224.2" y="108.8" transform="matrix(0.4959 -0.8684 0.8684 0.4959 17.735 251.906)" class="st10" width="3.2" height="3.8"/>

					<rect x="228.2" y="111.1" transform="matrix(0.4959 -0.8684 0.8684 0.4959 17.7206 256.5493)" class="st10" width="3.2" height="3.8"/>
			</g>
		</g>
		<g>
			<g>

					<rect x="143.8" y="48.4" transform="matrix(0.4959 -0.8684 0.8684 0.4959 29.6679 151.6292)" class="st10" width="3.2" height="3.8"/>

					<rect x="147.9" y="50.7" transform="matrix(0.4959 -0.8684 0.8684 0.4959 29.6671 156.3228)" class="st10" width="3.2" height="3.8"/>

					<rect x="152" y="53.1" transform="matrix(0.4959 -0.8684 0.8684 0.4959 29.6533 161.0663)" class="st10" width="3.2" height="3.8"/>

					<rect x="156" y="55.3" transform="matrix(0.4959 -0.8684 0.8684 0.4959 29.7898 165.6952)" class="st10" width="3.2" height="3.8"/>

					<rect x="160.1" y="57.7" transform="matrix(0.4959 -0.8684 0.8684 0.4959 29.7896 170.4893)" class="st10" width="3.2" height="3.8"/>

					<rect x="164.1" y="60" transform="matrix(0.4959 -0.8684 0.8684 0.4959 29.7752 175.1324)" class="st10" width="3.2" height="3.8"/>

					<rect x="168.2" y="62.3" transform="matrix(0.4959 -0.8684 0.8684 0.4959 29.861 179.7747)" class="st10" width="3.2" height="3.8"/>

					<rect x="172.3" y="64.6" transform="matrix(0.4959 -0.8684 0.8684 0.4959 29.9113 184.5553)" class="st10" width="3.2" height="3.8"/>

					<rect x="176.3" y="66.9" transform="matrix(0.4959 -0.8684 0.8684 0.4959 29.8969 189.1984)" class="st10" width="3.2" height="3.8"/>

					<rect x="141.8" y="51.9" transform="matrix(0.4959 -0.8684 0.8684 0.4959 25.6088 151.6233)" class="st10" width="3.2" height="3.8"/>

					<rect x="145.9" y="54.3" transform="matrix(0.4959 -0.8684 0.8684 0.4959 25.6088 156.4174)" class="st10" width="3.2" height="3.8"/>

					<rect x="149.9" y="56.5" transform="matrix(0.4959 -0.8684 0.8684 0.4959 25.6448 161.0469)" class="st10" width="3.2" height="3.8"/>

					<rect x="154" y="58.8" transform="matrix(0.4959 -0.8684 0.8684 0.4959 25.7306 165.6893)" class="st10" width="3.2" height="3.8"/>

					<rect x="158.1" y="61.2" transform="matrix(0.4959 -0.8684 0.8684 0.4959 25.7305 170.4833)" class="st10" width="3.2" height="3.8"/>

					<rect x="162.1" y="63.5" transform="matrix(0.4959 -0.8684 0.8684 0.4959 25.716 175.1264)" class="st10" width="3.2" height="3.8"/>

					<rect x="166.3" y="65.8" transform="matrix(0.4959 -0.8684 0.8684 0.4959 25.8668 179.9063)" class="st10" width="3.2" height="3.8"/>

					<rect x="170.3" y="68.1" transform="matrix(0.4959 -0.8684 0.8684 0.4959 25.8522 184.5495)" class="st10" width="3.2" height="3.8"/>

					<rect x="174.3" y="70.4" transform="matrix(0.4959 -0.8684 0.8684 0.4959 25.8378 189.1926)" class="st10" width="3.2" height="3.8"/>
			</g>
			<g>

					<rect x="139.6" y="55.8" transform="matrix(0.4959 -0.8684 0.8684 0.4959 21.0643 151.6949)" class="st10" width="3.2" height="3.8"/>

					<rect x="143.6" y="58.1" transform="matrix(0.4959 -0.8684 0.8684 0.4959 21.0498 156.338)" class="st10" width="3.2" height="3.8"/>

					<rect x="147.7" y="60.4" transform="matrix(0.4959 -0.8684 0.8684 0.4959 21.187 161.0673)" class="st10" width="3.2" height="3.8"/>

					<rect x="151.9" y="62.8" transform="matrix(0.4959 -0.8684 0.8684 0.4959 21.1868 165.8614)" class="st10" width="3.2" height="3.8"/>

					<rect x="155.8" y="65.1" transform="matrix(0.4959 -0.8684 0.8684 0.4959 21.1722 170.5044)" class="st10" width="3.2" height="3.8"/>

					<rect x="159.9" y="67.4" transform="matrix(0.4959 -0.8684 0.8684 0.4959 21.2583 175.1469)" class="st10" width="3.2" height="3.8"/>

					<rect x="164" y="69.7" transform="matrix(0.4959 -0.8684 0.8684 0.4959 21.3085 179.9274)" class="st10" width="3.2" height="3.8"/>

					<rect x="168" y="72" transform="matrix(0.4959 -0.8684 0.8684 0.4959 21.294 184.5705)" class="st10" width="3.2" height="3.8"/>

					<rect x="172.1" y="74.3" transform="matrix(0.4959 -0.8684 0.8684 0.4959 21.3799 189.2129)" class="st10" width="3.2" height="3.8"/>

					<rect x="137.6" y="59.3" transform="matrix(0.4959 -0.8684 0.8684 0.4959 17.0052 151.689)" class="st10" width="3.2" height="3.8"/>

					<rect x="141.6" y="61.6" transform="matrix(0.4959 -0.8684 0.8684 0.4959 17.0419 156.4188)" class="st10" width="3.2" height="3.8"/>

					<rect x="145.7" y="63.9" transform="matrix(0.4959 -0.8684 0.8684 0.4959 17.1279 161.0614)" class="st10" width="3.2" height="3.8"/>

					<rect x="149.8" y="66.3" transform="matrix(0.4959 -0.8684 0.8684 0.4959 17.1277 165.8555)" class="st10" width="3.2" height="3.8"/>

					<rect x="153.8" y="68.6" transform="matrix(0.4959 -0.8684 0.8684 0.4959 17.1132 170.4986)" class="st10" width="3.2" height="3.8"/>

					<rect x="157.9" y="71" transform="matrix(0.4959 -0.8684 0.8684 0.4959 17.1129 175.2926)" class="st10" width="3.2" height="3.8"/>

					<rect x="162" y="73.2" transform="matrix(0.4959 -0.8684 0.8684 0.4959 17.2495 179.9215)" class="st10" width="3.2" height="3.8"/>

					<rect x="166" y="75.5" transform="matrix(0.4959 -0.8684 0.8684 0.4959 17.235 184.5645)" class="st10" width="3.2" height="3.8"/>

					<rect x="170.1" y="77.9" transform="matrix(0.4959 -0.8684 0.8684 0.4959 17.2348 189.3586)" class="st10" width="3.2" height="3.8"/>
			</g>
		</g>

			<rect x="169.2" y="37.9" transform="matrix(0.4959 -0.8684 0.8684 0.4959 23.6525 183.4498)" class="st2" width="1.3" height="67"/>

			<rect x="216" y="77.6" transform="matrix(0.4959 -0.8684 0.8684 0.4959 23.8893 237.6413)" class="st2" width="1.3" height="41.2"/>
	</g>

		<rect x="184.7" y="99.4" transform="matrix(0.4959 -0.8684 0.8684 0.4959 6.3675 216.2208)" class="st2" width="9.4" height="6.4"/>
	<circle class="st7" cx="192.2" cy="104.2" r="5.1"/>
	<circle class="st7" cx="188.4" cy="79.8" r="4.2"/>
	<circle class="st7" cx="188.4" cy="79.8" r="4.2"/>
	<circle class="st7" cx="188.4" cy="79.8" r="4.2"/>
	<circle class="st7" cx="188.4" cy="79.8" r="4.2"/>
	<circle class="st7" cx="188.4" cy="79.8" r="4.2"/>
	<circle class="st7" cx="188.4" cy="79.8" r="4.2"/>
	<circle class="st7" cx="188.4" cy="79.8" r="4.2"/>
	<circle class="st7" cx="188.4" cy="79.8" r="4.2"/>
	<circle class="st7" cx="188.4" cy="79.8" r="4.2"/>
	<circle class="st7" cx="188.4" cy="79.8" r="4.2"/>
	<circle class="st7" cx="188.4" cy="79.8" r="4.2"/>
	<g>
		<circle class="st7" cx="190.9" cy="75.4" r="0.3"/>
		<circle class="st7" cx="188.4" cy="74.7" r="0.3"/>
		<circle class="st7" cx="185.9" cy="75.4" r="0.3"/>
		<circle class="st7" cx="184" cy="77.3" r="0.3"/>
		<circle class="st7" cx="183.4" cy="79.8" r="0.3"/>
		<circle class="st7" cx="184" cy="82.3" r="0.3"/>
		<circle class="st7" cx="185.9" cy="84.1" r="0.3"/>
		<circle class="st7" cx="188.4" cy="84.8" r="0.3"/>
		<circle class="st7" cx="191" cy="84.1" r="0.3"/>
		<circle class="st7" cx="192.8" cy="82.3" r="0.3"/>
		<circle class="st7" cx="193.5" cy="79.7" r="0.3"/>
		<circle class="st7" cx="192.8" cy="77.2" r="0.3"/>
	</g>

		<rect x="168.6" y="92.4" transform="matrix(0.4959 -0.8684 0.8684 0.4959 6.3349 203.907)" class="st3" width="20.4" height="8.2"/>

		<rect x="165.6" y="94.2" transform="matrix(0.4959 -0.8684 0.8684 0.4959 6.3823 200.3952)" class="st13" width="20.4" height="1.1"/>

		<rect x="171.7" y="97.8" transform="matrix(0.4959 -0.8684 0.8684 0.4959 6.2802 207.4907)" class="st13" width="20.4" height="1.1"/>

		<rect x="157" y="125.3" transform="matrix(0.4959 -0.8684 0.8684 0.4959 -29.5883 208.7217)" class="st14" width="15.9" height="9"/>

		<rect x="126.4" y="187.5" transform="matrix(0.4959 -0.8684 0.8684 0.4959 -101.1587 209.8353)" class="st14" width="7.5" height="9"/>
	<circle class="st7" cx="161.1" cy="127.7" r="5.8"/>
	<circle class="st1" cx="161.1" cy="127.7" r="4.2"/>
	<path class="st7" d="M51.1,77.3l-6.8,12l70.3,40.1l6.8-12L51.1,77.3z M113.9,127.4L46.3,88.8l5.3-9.3l67.6,38.6L113.9,127.4z"/>

		<rect x="146.1" y="103.1" transform="matrix(0.4959 -0.8684 0.8684 0.4959 -47.5461 205.2742)" class="st7" width="13.8" height="80.9"/>
	<path class="st7" d="M191.6,157.6l-6.8,12l70.3,40.1l6.8-12L191.6,157.6z M254.5,207.6L186.9,169l5.3-9.3l67.6,38.6L254.5,207.6z"
		/>
	<polygon class="st15" points="95.2,0 106.3,6.3 73.9,62.9 53.9,72.3 	"/>
	<polygon class="st15" points="108.6,7.6 119.7,13.9 98.2,51.5 78.2,60.9 	"/>
	<polygon class="st15" points="121.7,15.1 132.7,21.4 121.9,40.4 101.9,49.8 	"/>
	<polygon class="st15" points="146.1,29.1 126.1,38.4 135.1,22.8 	"/>
	<polygon class="st15" points="254.9,91.2 265.9,97.5 233.6,154.1 213.6,163.5 	"/>
	<polygon class="st15" points="279.3,105.1 257.8,142.7 237.8,152.1 268.2,98.8 	"/>
	<polygon class="st15" points="292.4,112.6 281.5,131.6 261.5,141 281.3,106.3 	"/>
	<polygon class="st15" points="305.8,120.3 285.8,129.6 294.7,114 	"/>
	<polygon class="st15" points="201,185.5 212.1,191.8 179.7,248.4 159.7,257.8 	"/>
	<polygon class="st15" points="225.4,199.4 204,237 184,246.4 214.4,193.1 	"/>
	<polygon class="st15" points="238.5,206.9 227.7,225.9 207.7,235.3 227.5,200.6 	"/>
	<polygon class="st15" points="251.9,214.6 231.9,223.9 240.9,208.2 	"/>
	<polygon class="st15" points="41.3,94.3 52.4,100.7 20.1,157.2 0.1,166.6 	"/>
	<polygon class="st15" points="54.7,102 65.8,108.3 44.3,145.9 24.3,155.3 	"/>
	<polygon class="st15" points="67.8,109.5 78.9,115.8 68,134.8 48,144.2 	"/>
	<polygon class="st15" points="92.2,123.4 72.2,132.8 81.2,117.1 	"/>
</g>
</svg>
