<?xml version="1.0" encoding="utf-8"?>
<!-- Generator: Adobe Illustrator 18.1.0, SVG Export Plug-In . SVG Version: 6.00 Build 0)  -->
<svg version="1.1" xmlns="http://www.w3.org/2000/svg" xmlns:xlink="http://www.w3.org/1999/xlink" x="0px" y="0px"
	 viewBox="0 0 100 100" enable-background="new 0 0 100 100" xml:space="preserve">
<g id="Background">
</g>
<g id="Layer_1">
	<g>
		<g>
			<path fill="#FFFFFF" d="M72.2,50.7l0.9,1c5.8,5.8,5.8,15.2,0,21c-2.8,2.8-6.5,4.4-10.4,4.4c-4,0-7.7-1.7-10.4-4.4l-0.9-1.1
				l9.5-9.5L58,59.2c-0.6,0.3-1.3,0.5-2.1,0.5c-2.5,0-4.5-2-4.5-4.5c0-2.5,2-4.5,4.5-4.5s4.5,2,4.5,4.5c0,0.8-0.2,1.5-0.5,2.1
				l2.8,2.8L72.2,50.7 M55.9,57c1,0,1.8-0.8,1.8-1.8s-0.8-1.8-1.8-1.8c-1,0-1.8,0.8-1.8,1.8S54.9,57,55.9,57 M72.2,46.7
				c-1.1,0-2.1,0.4-2.8,1.2l-5.3,5.3c-1-3.6-4.3-6.3-8.2-6.3c-4.7,0-8.5,3.8-8.5,8.5c0,3.9,2.7,7.3,6.3,8.2l-5.3,5.2
				c-1.5,1.5-1.6,3.9-0.2,5.5l0.9,1.1c0.1,0.1,0.1,0.1,0.2,0.2c3.6,3.6,8.3,5.6,13.3,5.6c4.9,0,9.6-2,13.3-5.6
				c3.5-3.5,5.5-8.3,5.5-13.3c0-5.1-1.9-9.8-5.5-13.3L75,47.8C74.3,47.1,73.3,46.7,72.2,46.7C72.2,46.7,72.2,46.7,72.2,46.7
				L72.2,46.7z"/>
		</g>
		<g>
			<path fill="#FFFFFF" d="M41,55.2c-1.2,0-2.1-1-2.1-2.1c0-8.2,6.7-14.9,14.9-14.9c1.2,0,2.1,1,2.1,2.1s-1,2.1-2.1,2.1
				c-5.8,0-10.6,4.7-10.6,10.6C43.2,54.3,42.2,55.2,41,55.2z"/>
		</g>
		<g>
			<path fill="#FFFFFF" d="M31.1,54c-1.2,0-2.1-1-2.1-2.1c0-13,10.6-23.6,23.6-23.6c1.2,0,2.1,1,2.1,2.1c0,1.2-1,2.1-2.1,2.1
				c-10.6,0-19.3,8.6-19.3,19.3C33.2,53,32.3,54,31.1,54z"/>
		</g>
		<g>
			<path fill="#FFFFFF" d="M21.8,52.8c-1.2,0-2.1-1-2.1-2.1c0-8.5,3.3-16.4,9.3-22.4c6-6,13.9-9.3,22.4-9.3c1.2,0,2.1,1,2.1,2.1
				s-1,2.1-2.1,2.1c-15.1,0-27.4,12.3-27.4,27.4C23.9,51.8,23,52.8,21.8,52.8z"/>
		</g>
	</g>
</g>
</svg>