<?xml version="1.0" encoding="utf-8"?>
<!-- Generator: Adobe Illustrator 18.1.0, SVG Export Plug-In . SVG Version: 6.00 Build 0)  -->
<svg version="1.1" xmlns="http://www.w3.org/2000/svg" xmlns:xlink="http://www.w3.org/1999/xlink" x="0px" y="0px"
	 viewBox="0 0 100 100" enable-background="new 0 0 100 100" xml:space="preserve">
<g id="Background">
</g>
<g id="Layer_1">
	<g>
		<g>
			<path fill="#FFFFFF" d="M32.5,44.9c-0.8,0-1.3-0.3-1.6-0.7c-0.3-0.5-0.4-0.9-0.4-1.3v-1.4c0-0.6,0.2-1.1,0.6-1.5
				c0.4-0.4,0.8-0.6,1.4-0.6h1.9c0.5,0,1,0.2,1.4,0.6c0.4,0.4,0.6,0.9,0.6,1.5v1.4c0,0.9-0.4,1.5-1.2,1.9c-0.2,0.1-0.5,0.2-0.8,0.2
				H32.5z M32.5,52.5c-0.6,0-1-0.2-1.4-0.6c-0.4-0.4-0.6-0.9-0.6-1.4v-1.4c0-0.6,0.2-1.1,0.6-1.4c0.4-0.4,0.9-0.6,1.4-0.6h10
				c0.6,0,1.1,0.2,1.5,0.6c0.4,0.4,0.6,0.9,0.6,1.4v1.4c0,0.6-0.2,1.1-0.6,1.4c-0.4,0.4-0.9,0.6-1.5,0.6H32.5z M32.5,60.2
				c-0.6,0-1-0.2-1.4-0.6c-0.4-0.4-0.6-0.9-0.6-1.5v-1.4c0-0.6,0.2-1,0.6-1.4c0.4-0.4,0.8-0.6,1.4-0.6h1.9c0.5,0,1,0.2,1.4,0.6
				c0.4,0.4,0.6,0.9,0.6,1.4v1.4c0,0.6-0.2,1.1-0.6,1.5c-0.4,0.4-0.9,0.6-1.4,0.6H32.5z M40.6,44.9c-0.6,0-1.1-0.2-1.5-0.6
				c-0.4-0.4-0.6-0.9-0.6-1.4v-1.4c0-0.6,0.2-1.1,0.6-1.5c0.4-0.4,0.9-0.6,1.5-0.6h1.9c0.6,0,1.1,0.2,1.5,0.6
				c0.4,0.4,0.6,0.9,0.6,1.5v1.4c0,0.6-0.2,1-0.6,1.4c-0.4,0.4-0.9,0.6-1.5,0.6H40.6z M40.6,60.2c-0.6,0-1.1-0.2-1.5-0.6
				c-0.4-0.4-0.6-0.9-0.6-1.5v-1.4c0-0.6,0.2-1,0.6-1.4c0.4-0.4,0.9-0.6,1.5-0.6h18c0.6,0,1.1,0.2,1.5,0.6c0.4,0.4,0.6,0.9,0.6,1.4
				v1.4c0,0.9-0.4,1.6-1.2,1.9c-0.2,0.1-0.5,0.1-0.8,0.1H40.6z M48.7,44.9c-0.9,0-1.5-0.4-1.9-1.2c-0.1-0.2-0.1-0.5-0.1-0.8v-1.4
				c0-0.6,0.2-1.1,0.6-1.5c0.4-0.4,0.9-0.6,1.5-0.6h1.9c0.6,0,1.1,0.2,1.5,0.6c0.4,0.4,0.6,0.9,0.6,1.5v1.4c0,0.6-0.2,1-0.6,1.4
				c-0.4,0.4-0.9,0.6-1.5,0.6H48.7z M48.7,52.5c-0.8,0-1.3-0.2-1.6-0.7c-0.3-0.5-0.4-0.9-0.4-1.3v-1.4c0-0.9,0.4-1.5,1.2-1.9
				c0.2-0.1,0.5-0.1,0.8-0.1h1.9c0.6,0,1.1,0.2,1.5,0.6c0.4,0.4,0.6,0.9,0.6,1.4v1.4c0,0.6-0.2,1.1-0.6,1.4
				c-0.4,0.4-0.9,0.6-1.5,0.6H48.7z M68.7,50.6c0,0.5-0.2,0.9-0.6,1.3c-0.4,0.4-0.8,0.6-1.3,0.6h-2.2c-0.5,0-1-0.2-1.3-0.6
				c-0.4-0.4-0.6-0.8-0.6-1.3v-4.9c0-0.2-0.1-0.4-0.2-0.6c-0.1-0.2-0.4-0.3-0.6-0.3h-5.2c-0.6,0-1.1-0.2-1.5-0.6
				c-0.4-0.4-0.6-0.9-0.6-1.4v-1.4c0-0.6,0.2-1.1,0.6-1.5c0.4-0.4,0.9-0.6,1.5-0.6h10c0.6,0,1,0.2,1.4,0.6c0.4,0.4,0.6,0.9,0.6,1.5
				V50.6z M56.7,52.5c-0.6,0-1.1-0.2-1.5-0.6c-0.4-0.4-0.6-0.9-0.6-1.4v-1.4c0-0.6,0.2-1.1,0.6-1.4c0.4-0.4,0.9-0.6,1.5-0.6h1.9
				c0.6,0,1.1,0.2,1.5,0.6c0.4,0.4,0.6,0.9,0.6,1.4v1.4c0,0.6-0.2,1.1-0.6,1.4c-0.4,0.4-0.9,0.6-1.5,0.6H56.7z M64.8,60.2
				c-0.6,0-1.1-0.2-1.5-0.6c-0.4-0.4-0.6-0.9-0.6-1.5v-1.4c0-0.6,0.2-1,0.6-1.4c0.4-0.4,0.9-0.6,1.5-0.6h1.9c0.6,0,1,0.2,1.4,0.6
				c0.4,0.4,0.6,0.9,0.6,1.4v1.4c0,0.6-0.2,1.1-0.6,1.5c-0.4,0.4-0.8,0.6-1.4,0.6H64.8z"/>
		</g>
		<path fill="#FFFFFF" d="M73.5,33.5c0.5,0,0.9,0.2,1.2,0.5c0.3,0.3,0.5,0.8,0.5,1.2v29.3c0,0.5-0.2,0.9-0.5,1.2
			c-0.3,0.3-0.7,0.5-1.2,0.5H25.8c-0.5,0-0.9-0.2-1.2-0.5c-0.3-0.3-0.5-0.8-0.5-1.2V35.3c0-0.5,0.2-0.9,0.5-1.2
			c0.3-0.3,0.7-0.5,1.2-0.5H73.5 M73.5,29.5H25.8c-1.5,0-2.9,0.6-4,1.7c-1.1,1.1-1.7,2.5-1.7,4.1v29.3c0,1.5,0.6,3,1.7,4.1
			c1.1,1.1,2.5,1.7,4,1.7h47.6c1.5,0,3-0.6,4-1.7c1.1-1.1,1.7-2.5,1.7-4.1V35.3c0-1.5-0.6-3-1.7-4.1C76.4,30.1,75,29.5,73.5,29.5
			L73.5,29.5z"/>
	</g>
</g>
</svg>
