<?xml version="1.0" encoding="utf-8"?>
<!-- Generator: Adobe Illustrator 18.1.1, SVG Export Plug-In . SVG Version: 6.00 Build 0)  -->
<svg version="1.1" id="Layer_1" xmlns="http://www.w3.org/2000/svg" xmlns:xlink="http://www.w3.org/1999/xlink" x="0px" y="0px"
	 viewBox="0 0 200.7 206.1" enable-background="new 0 0 200.7 206.1" xml:space="preserve">
<g>
	<polyline fill="#C7B299" points="0,31.7 66.9,51.7 66.9,206.1 0,186.1 0,31.7 	"/>
	<polyline fill="#C7B299" points="66.9,51.7 133.8,31.7 133.8,186.1 66.9,206.1 66.9,51.7 	"/>
	<polyline fill="#C7B299" points="200.7,74.2 200.7,206.1 133.8,186.1 133.8,31.7 182.2,46.1 200.7,74.2 	"/>
	<path fill="#FFFFFF" d="M98.5,196.6l-31.6,9.4v0l-21-6.3l21,6.3L98.5,196.6 M160.1,39.5C160.1,39.5,160.1,39.5,160.1,39.5l22,6.6
		L160.1,39.5 M123.6,34.7L66.9,51.7v0L123.6,34.7C123.6,34.7,123.6,34.7,123.6,34.7"/>
	<path fill="#D7C7B5" d="M133.8,177.7l-2.3,0.7l-64.6,19.3v8.3l31.6-9.4l35.3-10.6L133.8,177.7L133.8,177.7 M123.6,34.7L66.9,51.7
		V60l0,0l0,0l53.5-16l5.1-3.6c-0.3-0.5-0.5-0.9-0.7-1.4c-0.5-1.2-0.9-2.5-1.2-3.7C123.6,35.1,123.6,34.9,123.6,34.7"/>
	<polyline fill="#D7C7B5" points="133.8,177.7 133.8,186.1 133.8,186.1 133.8,177.7 	"/>
	<polyline fill="#B99E7F" points="182.2,68.8 191.2,74.4 191.2,74.4 191.2,74.4 190.6,73.4 188.8,70.8 182.2,68.8 	"/>
	<polyline fill="#CDB9A2" points="188.8,70.8 190.6,73.4 188.8,70.8 188.8,70.8 	"/>
	<polyline fill="#C7B299" points="200.7,74.2 182.2,68.8 182.2,46.1 200.7,74.2 	"/>
	<polyline fill="#D2C1AD" points="182.2,46.1 182.2,60.7 182.2,68.8 188.8,70.8 188.8,70.8 200.7,74.2 182.2,46.1 	"/>
	<path fill="#8CB06E" d="M8,92.8v87.3l58.9,17.6v-69.9c-3.7-2.7-7.2-5.1-10.5-7.4c-0.8-0.6-1.7-1.2-2.5-1.7c0,0-0.1,0-0.1-0.1
		c-0.4-0.3-0.8-0.6-1.3-0.9c0,0,0,0,0,0c-0.9-0.6-1.9-1.3-2.8-1.9c-0.2-0.2-0.5-0.3-0.7-0.5c-3.4-2.3-6.5-4.3-9.4-6.2
		c-3.4-2.2-6.4-4.1-9.1-5.7c-1.6-1-3.2-1.9-4.6-2.7c-0.2-0.1-0.4-0.2-0.6-0.3c-0.5-0.3-0.9-0.5-1.4-0.8c-0.7-0.4-1.3-0.7-1.9-1.1
		c-1.4-0.8-2.7-1.4-3.9-2c-0.2-0.1-0.3-0.2-0.5-0.2c-0.9-0.4-1.7-0.8-2.5-1.2c-0.4-0.2-0.8-0.4-1.2-0.5c0,0-0.1,0-0.1,0
		c-0.2-0.1-0.3-0.1-0.5-0.2c-0.3-0.1-0.6-0.3-0.9-0.4c-0.1-0.1-0.3-0.1-0.4-0.1c-0.1,0-0.2-0.1-0.2-0.1c-0.1,0-0.2-0.1-0.3-0.1
		c-0.1,0-0.3-0.1-0.4-0.1l-0.1,0c-0.2-0.1-0.3-0.1-0.4-0.1l0,0L8,92.8"/>
	<polyline fill="#8CB06E" points="66.9,127.8 66.9,197.7 66.9,197.7 66.9,127.8 66.9,127.8 66.9,127.8 	"/>
	<path fill="#8CB06E" d="M133.8,108.5v69.2l8,2.4l20.5,6.1l30.4,9.1v-63.2l0,0c-0.6-0.4-1.1-0.7-1.7-1.1c-1.7-1.1-3.4-2.1-5-3.1
		c-0.4-0.2-0.8-0.5-1.1-0.7c-0.2-0.1-0.4-0.2-0.5-0.3c-0.8-0.5-1.6-0.9-2.4-1.4c-0.4-0.2-0.7-0.4-1.1-0.6c-0.4-0.2-0.8-0.4-1.2-0.6
		c0,0-0.1,0-0.1-0.1c0,0,0,0,0,0c-1-0.6-2-1.1-3-1.6c-0.1,0-0.2-0.1-0.2-0.1c-0.1,0-0.2-0.1-0.3-0.1c0,0,0,0,0,0c0,0,0,0,0,0
		c-0.3-0.1-0.6-0.3-0.8-0.4c-0.8-0.4-1.6-0.8-2.4-1.2c-0.3-0.2-0.7-0.3-1-0.5c-0.7-0.3-1.4-0.7-2-1c-1.4-0.7-2.7-1.3-4-1.8
		c-0.4-0.2-0.9-0.4-1.3-0.6c-0.8-0.4-1.7-0.7-2.5-1c-0.4-0.2-0.8-0.3-1.2-0.5c-1.2-0.5-2.4-0.9-3.5-1.3c-0.3-0.1-0.6-0.2-0.8-0.3
		c-0.6-0.2-1.2-0.4-1.8-0.6c-1.6-0.6-3.2-1-4.6-1.5l-0.2-0.1C139.9,108.6,134.2,108.5,133.8,108.5
		C133.8,108.5,133.8,108.5,133.8,108.5C133.8,108.5,133.8,108.5,133.8,108.5C133.8,108.5,133.8,108.5,133.8,108.5
		C133.8,108.5,133.8,108.5,133.8,108.5C133.8,108.5,133.8,108.5,133.8,108.5C133.8,108.5,133.8,108.5,133.8,108.5"/>
	<path fill="#A1BA7A" d="M133.8,108.5c-3.3,1.8-6.6,3.5-9.8,5l0,0c-1.6,0.8-3.2,1.5-4.8,2.2c-0.3,0.1-0.6,0.3-0.9,0.4
		c-0.2,0.1-0.3,0.1-0.5,0.2l0,0c-0.5,0.2-0.9,0.4-1.4,0.6c-0.5,0.2-0.9,0.4-1.3,0.5c-0.1,0-0.2,0.1-0.3,0.1c-0.5,0.2-1,0.4-1.4,0.6
		c-0.1,0-0.2,0.1-0.3,0.1l-0.2,0.1c-0.1,0-0.2,0.1-0.2,0.1c-1.5,0.6-3,1.1-4.5,1.6c-0.1,0-0.1,0-0.2,0.1l-2.7,5.1v0l-6.8,5.2l-2.6,2
		c-0.2,0.2-0.5,0.2-0.7,0.2c-0.8,0-1.5-0.8-1-1.7l4.2-8c-0.2,0.1-0.4,0.1-0.6,0.2c0,0,0,0,0,0l0,0c-0.6,0.2-1.2,0.3-1.8,0.5
		c-0.6,0.1-1.1,0.3-1.6,0.4c-0.1,0-0.2,0-0.2,0.1c-0.1,0-0.1,0-0.2,0c-0.4,0.1-0.9,0.2-1.3,0.3c-0.1,0-0.1,0-0.2,0
		c-0.1,0-0.2,0.1-0.4,0.1c-12.1,2.8-20.9,3.2-23.8,3.2c-0.2,0-0.4,0-0.6,0c-0.1,0-0.1,0-0.2,0l0,0l0,0c0,0,0,0,0,0
		c-0.2,0-0.4,0-0.4,0l0,0v69.9l64.6-19.3l2.3-0.7h0V108.5"/>
	<path fill="#B7B0A7" d="M53.9,118.7c0.8,0.6,1.6,1.1,2.5,1.7c-0.7-0.5-1.4-1-2.1-1.5C54.2,118.9,54.1,118.8,53.9,118.7 M49.8,115.9
		c0.9,0.6,1.8,1.2,2.8,1.9C51.6,117.1,50.7,116.5,49.8,115.9 M30.5,103.5c2.7,1.6,5.8,3.5,9.1,5.7c-0.6-0.4-1.3-0.8-1.9-1.2
		c-0.4-0.2-0.7-0.5-1.1-0.7C34.5,105.9,32.4,104.6,30.5,103.5 M24,99.7c0.4,0.2,0.9,0.5,1.4,0.8c0,0-0.1,0-0.1-0.1
		C24.8,100.2,24.4,99.9,24,99.7 M18.2,96.6c1.2,0.6,2.4,1.2,3.9,2c-1.2-0.6-2.3-1.2-3.3-1.7C18.6,96.8,18.4,96.7,18.2,96.6
		 M14.1,94.7c0.4,0.2,0.8,0.3,1.2,0.5c0,0,0,0,0,0C14.8,95,14.4,94.9,14.1,94.7 M12.5,94.1c0.3,0.1,0.6,0.2,0.9,0.4
		c-0.2-0.1-0.4-0.2-0.7-0.3C12.7,94.1,12.6,94.1,12.5,94.1 M11.6,93.7c0.1,0,0.2,0.1,0.3,0.1c0,0-0.1,0-0.1,0
		C11.8,93.8,11.7,93.8,11.6,93.7"/>
	<path fill="#B7B0A7" d="M72.9,127.6c-2.2,0.2-3.9,0.2-4.9,0.3c0,0,0,0,0,0C69,127.8,70.6,127.8,72.9,127.6 M82.8,126.4L82.8,126.4
		c-0.6,0.1-1.1,0.2-1.6,0.2c-0.5,0.1-1,0.1-1.5,0.2c-2.2,0.3-4.2,0.5-5.9,0.7c-0.2,0-0.4,0-0.6,0l0,0l0,0c0.2,0,0.4,0,0.6,0
		c1.7-0.1,3.7-0.4,5.9-0.7c0.5-0.1,1-0.1,1.5-0.2C81.7,126.5,82.2,126.5,82.8,126.4L82.8,126.4 M95.7,123.7c-0.1,0-0.2,0-0.2,0.1
		l-0.1,0c-0.5,0.1-0.9,0.2-1.4,0.4c0,0,0.1,0,0.1,0c0.4-0.1,0.9-0.2,1.3-0.3l0.1,0C95.5,123.7,95.6,123.7,95.7,123.7L95.7,123.7"/>
	<path fill="#B7B0A7" d="M172.8,120.8L172.8,120.8c0.3,0.1,0.5,0.3,0.8,0.4c0.1,0,0.2,0.1,0.3,0.2c0.4,0.2,0.9,0.4,1.3,0.7
		c0.1,0.1,0.2,0.1,0.3,0.2c-0.5-0.3-1.1-0.6-1.6-0.8c-0.1-0.1-0.2-0.1-0.3-0.2C173.3,121.1,173.1,120.9,172.8,120.8"/>
	<path fill="#6CAE7C" d="M154.6,113.1c0.6,0.2,1.2,0.4,1.8,0.6c-0.3-0.1-0.5-0.2-0.8-0.3C155.3,113.3,155,113.2,154.6,113.1"/>
	<path fill="#6CAE7C" d="M172.8,120.8c0.8,0.4,1.6,0.8,2.4,1.2c-0.4-0.2-0.9-0.4-1.3-0.7c-0.1-0.1-0.2-0.1-0.3-0.2
		C173.3,121.1,173.1,120.9,172.8,120.8"/>
	<polyline fill="#6CAE7C" points="176.1,122.5 176.1,122.5 176.1,122.5 	"/>
	<path fill="#6CAE7C" d="M176.6,122.7c1,0.5,2,1.1,3,1.6c-0.9-0.5-1.8-1-2.7-1.5C176.8,122.8,176.7,122.8,176.6,122.7"/>
	<path fill="#6CAE7C" d="M179.7,124.4c0.4,0.2,0.8,0.4,1.2,0.6C180.5,124.8,180.1,124.6,179.7,124.4"/>
	<path fill="#6CAE7C" d="M184.3,127c0.2,0.1,0.4,0.2,0.5,0.3C184.7,127.3,184.5,127.2,184.3,127C184.3,127.1,184.3,127,184.3,127"/>
	<path fill="#6CAE7C" d="M191,131.1c0.6,0.4,1.1,0.7,1.7,1.1C192.1,131.8,191.5,131.4,191,131.1"/>
	<path fill="#87B88A" d="M91.8,124.6c-1.6,0.4-3.1,0.7-4.6,1l-0.1,0c-0.3,0.1-0.7,0.1-1,0.2l0,0c-1.1,0.2-2.2,0.4-3.3,0.6l0,0
		c-0.6,0.1-1.1,0.2-1.6,0.2c-0.5,0.1-1,0.1-1.5,0.2c-2.2,0.3-4.2,0.5-5.9,0.7c-0.2,0-0.4,0-0.6,0l0,0c-0.1,0-0.1,0-0.2,0
		c-2.2,0.2-3.9,0.2-4.9,0.3C70.9,127.8,79.7,127.4,91.8,124.6 M93.6,124.2c-0.4,0.1-0.9,0.2-1.3,0.3
		C92.7,124.4,93.2,124.3,93.6,124.2 M95.7,123.7c-0.1,0-0.2,0-0.2,0.1l-0.1,0c-0.4,0.1-0.9,0.2-1.3,0.3
		C94.6,124,95.1,123.8,95.7,123.7 M98.1,123c-0.2,0.1-0.4,0.1-0.6,0.2C97.8,123.1,97.9,123.1,98.1,123L98.1,123 M112.5,118.4
		c-0.7,0.2-1.3,0.5-2,0.7c-0.8,0.3-1.7,0.6-2.5,0.9C109.4,119.5,110.9,118.9,112.5,118.4 M114.7,117.5c-0.2,0.1-0.4,0.2-0.6,0.2
		c-0.3,0.1-0.5,0.2-0.8,0.3C113.8,117.9,114.2,117.7,114.7,117.5 M116.4,116.8c-0.3,0.1-0.5,0.2-0.8,0.3c-0.2,0.1-0.4,0.2-0.6,0.2
		C115.5,117.2,116,117,116.4,116.8 M118.3,116c-0.2,0.1-0.3,0.1-0.5,0.2C118,116.2,118.1,116.1,118.3,116 M124,113.5L124,113.5
		c-1.4,0.7-2.8,1.3-4.2,1.9c-0.2,0.1-0.4,0.2-0.6,0.3C120.7,115,122.3,114.3,124,113.5"/>
	<polyline fill="#80AAC7" points="120.4,44 66.9,60 66.9,81.5 95.4,61.5 95.4,61.5 112.4,49.6 115.1,47.7 120.4,44 	"/>
	<path fill="#9CACBF" d="M68,127.8c-0.3,0-0.6,0-0.7,0c-0.2,0-0.4,0-0.4,0l0,0c0,0,0.1,0,0.4,0c0,0,0,0,0,0c0.1,0,0.1,0,0.2,0
		C67.6,127.8,67.8,127.8,68,127.8 M92.3,124.5c-0.2,0-0.3,0.1-0.5,0.1c0.1,0,0.2-0.1,0.4-0.1C92.2,124.5,92.3,124.5,92.3,124.5
		 M94,124.1c-0.1,0-0.2,0.1-0.3,0.1c0.1,0,0.1,0,0.2,0C93.9,124.1,93.9,124.1,94,124.1 M97.6,123.2c-0.6,0.2-1.2,0.3-1.9,0.5
		C96.3,123.5,96.9,123.4,97.6,123.2L97.6,123.2C97.5,123.2,97.6,123.2,97.6,123.2"/>
	<path fill="#59B5A6" d="M67.4,127.9c-0.1,0-0.1,0-0.2,0l0,0C67.3,127.9,67.4,127.9,67.4,127.9 M66.9,127.8c0,0,0.1,0,0.4,0
		C67,127.9,66.9,127.8,66.9,127.8 M97.6,123.2C97.6,123.2,97.6,123.2,97.6,123.2C97.6,123.2,97.5,123.2,97.6,123.2
		C97.5,123.2,97.6,123.2,97.6,123.2"/>
	<path fill="#80AAC7" d="M130.2,45.9l-21,14.7L89.5,74.4L66.9,90.2v37.6l0,0l0,0l0,0c0,0,0.1,0,0.4,0c0.2,0,0.4,0,0.7,0
		c1,0,2.7-0.1,4.9-0.3c0.1,0,0.1,0,0.2,0l0,0c0.2,0,0.4,0,0.6,0c1.7-0.1,3.7-0.4,5.9-0.7c0.5-0.1,1-0.1,1.5-0.2
		c0.5-0.1,1.1-0.2,1.6-0.2l0,0c1.1-0.2,2.2-0.4,3.3-0.6l0,0c0.3-0.1,0.7-0.1,1-0.2l0.1,0c1.5-0.3,3-0.6,4.6-1c0.2,0,0.3-0.1,0.5-0.1
		c0.4-0.1,0.9-0.2,1.3-0.3c0.1,0,0.2-0.1,0.3-0.1c0.5-0.1,0.9-0.2,1.4-0.4l0.1,0c0.1,0,0.2,0,0.2-0.1c0.6-0.2,1.2-0.3,1.9-0.5
		c0.2-0.1,0.4-0.1,0.6-0.2l35.6-68v-5.7c-0.3-0.3-0.7-0.5-1-0.8c-0.9-0.8-1.7-1.6-2.3-2.5C130.4,46,130.3,45.9,130.2,45.9"/>
	<path fill="#2BB2B5" d="M73.1,127.6c-0.1,0-0.1,0-0.2,0C72.9,127.6,73,127.6,73.1,127.6 M86.1,125.8c-1.1,0.2-2.2,0.4-3.3,0.6
		C83.8,126.2,84.9,126,86.1,125.8 M98.1,123c-0.2,0.1-0.4,0.1-0.6,0.2c0,0,0,0,0,0C97.8,123.1,97.9,123.1,98.1,123L98.1,123"/>
	<path fill="#9CACBF" d="M107.9,120c-0.1,0-0.1,0-0.2,0.1l0,0C107.8,120,107.9,120,107.9,120 M113.3,118.1c-0.3,0.1-0.5,0.2-0.8,0.3
		c0.1,0,0.2-0.1,0.2-0.1l0.2-0.1C113.1,118.1,113.2,118.1,113.3,118.1 M115.1,117.4c-0.1,0-0.2,0.1-0.3,0.1
		C114.8,117.4,115,117.4,115.1,117.4 M117.8,116.2c-0.5,0.2-0.9,0.4-1.4,0.6C116.9,116.6,117.3,116.4,117.8,116.2 M119.2,115.7
		c-0.3,0.1-0.6,0.3-0.9,0.4C118.6,115.9,118.9,115.8,119.2,115.7 M133.8,108.5c-3.3,1.8-6.6,3.5-9.8,5l0,0
		C127.2,112,130.5,110.3,133.8,108.5"/>
	<path fill="#80AAC7" d="M133.8,70.5l-26,49.6c0.1,0,0.1,0,0.2-0.1c0.8-0.3,1.7-0.6,2.5-0.9c0.7-0.2,1.3-0.5,2-0.7
		c0.3-0.1,0.5-0.2,0.8-0.3c0.3-0.1,0.5-0.2,0.8-0.3c0.2-0.1,0.4-0.2,0.6-0.2c0.1,0,0.2-0.1,0.3-0.1c0.2-0.1,0.4-0.2,0.6-0.2
		c0.3-0.1,0.5-0.2,0.8-0.3c0.5-0.2,0.9-0.4,1.4-0.6l0,0c0.2-0.1,0.3-0.1,0.5-0.2c0.3-0.1,0.6-0.3,0.9-0.4c0.2-0.1,0.4-0.2,0.6-0.3
		c1.4-0.6,2.8-1.2,4.2-1.9l0,0c3.2-1.5,6.5-3.2,9.8-5l0,0V70.5"/>
	<path fill="#2D9E91" d="M56.4,120.4c3.3,2.3,6.8,4.7,10.5,7.4l0,0C63.2,125.2,59.7,122.7,56.4,120.4 M52.6,117.8
		C52.6,117.8,52.6,117.8,52.6,117.8c0.4,0.3,0.8,0.6,1.3,0.9c0,0,0.1,0.1,0.1,0.1C53.5,118.4,53,118.1,52.6,117.8 M39.7,109.2
		c2.9,1.9,6,3.9,9.4,6.2c0.2,0.2,0.5,0.3,0.7,0.5C46.1,113.4,42.8,111.2,39.7,109.2 M25.4,100.5c0.2,0.1,0.4,0.2,0.6,0.3
		c1.4,0.8,2.9,1.7,4.6,2.7C28.7,102.4,27,101.4,25.4,100.5 M22.1,98.6c0.6,0.3,1.3,0.7,1.9,1.1C23.3,99.3,22.7,99,22.1,98.6
		 M15.2,95.2c0.7,0.3,1.6,0.7,2.5,1.2c0.2,0.1,0.3,0.2,0.5,0.2C17.1,96.1,16.1,95.6,15.2,95.2 M13.5,94.4c0.2,0.1,0.3,0.1,0.5,0.2
		c0,0,0.1,0,0.1,0C13.8,94.6,13.6,94.5,13.5,94.4 M11.9,93.8c0.1,0,0.1,0.1,0.2,0.1c0.1,0,0.3,0.1,0.4,0.1
		C12.3,94,12.1,93.9,11.9,93.8 M10.7,93.4c0.1,0,0.3,0.1,0.4,0.1l0.1,0c0.1,0,0.2,0.1,0.4,0.1C11.3,93.6,11,93.5,10.7,93.4"/>
	<polyline fill="#2D9E91" points="66.9,127.8 66.9,127.8 66.9,127.8 66.9,127.8 	"/>
	<path fill="#6F9EC0" d="M8,42.4v50.4l2.7,0.6l0,0c0.3,0.1,0.6,0.2,0.9,0.3c0.1,0,0.1,0,0.2,0.1c0,0,0.1,0,0.1,0
		c0.2,0.1,0.4,0.2,0.6,0.2c0.1,0,0.2,0.1,0.3,0.1c0.2,0.1,0.4,0.2,0.7,0.3c0.2,0.1,0.4,0.2,0.6,0.3c0.4,0.2,0.8,0.3,1.2,0.5
		c0,0,0,0,0,0c0.9,0.4,1.9,0.9,3,1.4c0.2,0.1,0.4,0.2,0.6,0.3c1,0.5,2.1,1.1,3.3,1.7c0.6,0.3,1.3,0.7,1.9,1.1
		c0.4,0.2,0.8,0.5,1.3,0.7c0,0,0.1,0,0.1,0.1c1.6,0.9,3.3,1.9,5.2,3c1.9,1.1,3.9,2.4,6.2,3.8c0.4,0.2,0.7,0.5,1.1,0.7
		c0.6,0.4,1.3,0.8,1.9,1.2c3.1,2,6.4,4.2,10.1,6.7c0.9,0.6,1.8,1.2,2.8,1.9c0.5,0.3,0.9,0.6,1.4,0.9c0.1,0.1,0.2,0.2,0.4,0.2
		c0.7,0.5,1.4,1,2.1,1.5c3.3,2.3,6.8,4.7,10.5,7.4V90.2l-10.7,7.5c-0.2,0.1-0.4,0.2-0.7,0.2c-0.8,0-1.5-0.9-1-1.7l1.7-2.9l4.3-7.4
		l0,0l6.4-4.5V60L8,42.4"/>
	<path fill="#6F9EC0" d="M66.9,90.2L66.9,90.2l0,37.6c0,0,0,0,0,0l0,0V90.2 M66.9,60v21.5l0,0L66.9,60L66.9,60"/>
	<path fill="#6F9EC0" d="M151.7,45.4c-1.8,1.5-3.9,2.6-6,3.2c2.4-0.4,4.7-1.4,6.6-3.1L151.7,45.4"/>
	<polyline fill="#90B2D0" points="151.7,45.4 151.7,45.4 152.3,45.6 152.3,45.6 152.3,45.6 151.7,45.4 	"/>
	<path fill="#88A0B9" d="M184.8,127.3c0.4,0.2,0.7,0.4,1.1,0.7c1.6,1,3.3,2,5,3.1C188.9,129.8,186.8,128.5,184.8,127.3 M180.9,125.1
		c0.4,0.2,0.7,0.4,1.1,0.6c0.8,0.4,1.6,0.9,2.4,1.4C183.1,126.4,182,125.7,180.9,125.1 M179.6,124.3
		C179.6,124.4,179.6,124.4,179.6,124.3c0.1,0,0.1,0.1,0.2,0.1C179.7,124.4,179.6,124.4,179.6,124.3 M176.1,122.5
		c0.1,0,0.2,0.1,0.3,0.1c0.1,0,0.2,0.1,0.2,0.1C176.4,122.6,176.2,122.6,176.1,122.5 M175.6,122.2c0.2,0.1,0.3,0.2,0.5,0.3
		c0,0,0,0,0,0C175.9,122.4,175.7,122.3,175.6,122.2 M156.5,113.8c0.3,0.1,0.6,0.2,0.8,0.3c1.1,0.4,2.3,0.9,3.5,1.3
		c0.4,0.2,0.8,0.3,1.2,0.5c0.8,0.3,1.7,0.7,2.5,1c0.4,0.2,0.9,0.4,1.3,0.6c1.3,0.6,2.7,1.2,4,1.8c0.7,0.3,1.3,0.6,2,1
		c0.3,0.2,0.7,0.3,1,0.5C166.7,117.8,161.2,115.5,156.5,113.8 M133.8,108.5c0.4,0,6.1,0.1,16.1,3.1l0.2,0.1c1.4,0.4,3,0.9,4.6,1.5
		C141.7,108.7,134.3,108.5,133.8,108.5 M133.8,108.5C133.8,108.5,133.8,108.5,133.8,108.5C133.8,108.5,133.8,108.5,133.8,108.5
		 M133.8,108.5C133.8,108.5,133.8,108.5,133.8,108.5C133.8,108.5,133.8,108.5,133.8,108.5 M133.8,108.5
		C133.8,108.5,133.8,108.5,133.8,108.5C133.8,108.5,133.8,108.5,133.8,108.5"/>
	<path fill="#6F9EC0" d="M156.5,46.8l-0.2,0.2c-3.3,3.8-7.9,5.7-12.6,5.7c-0.2,0-0.5,0-0.7,0l-9.3,17.8v38l0,0c0,0,0,0,0,0
		c0,0,0,0,0,0c0,0,0,0,0,0c0,0,0,0,0,0c0,0,0,0,0,0c0,0,0,0,0,0c0.5,0,7.9,0.2,20.8,4.6c0.3,0.1,0.7,0.2,1,0.3
		c0.3,0.1,0.5,0.2,0.8,0.3c4.8,1.7,10.2,4,16.3,7c0.3,0.1,0.5,0.3,0.8,0.4c0.1,0,0.2,0.1,0.3,0.2c0.5,0.3,1.1,0.6,1.6,0.8
		c0.2,0.1,0.3,0.2,0.5,0.3c0,0,0,0,0,0c0.2,0.1,0.3,0.2,0.5,0.3c0.1,0,0.2,0.1,0.3,0.1c0.9,0.5,1.8,1,2.7,1.5c0.1,0,0.1,0.1,0.2,0.1
		c0.4,0.2,0.8,0.4,1.2,0.6c1.1,0.6,2.3,1.3,3.4,2c0,0,0,0,0,0c0.2,0.1,0.3,0.2,0.5,0.3c2,1.2,4,2.4,6.1,3.7c0.6,0.4,1.1,0.7,1.7,1.1
		V76.6l-1.4-2.2l-9.1-5.6v-8.2l-5.1-7.7L156.5,46.8"/>
	<path fill="#90B2D0" d="M192.7,76.6L192.7,76.6v55.6l0,0V76.6 M156.5,46.8C156.5,46.8,156.5,46.8,156.5,46.8L156.5,46.8l20.5,6.1
		L156.5,46.8"/>
	<polyline fill="#5588B3" points="182.2,68.8 191.2,74.4 191.2,74.4 182.2,68.8 	"/>
	<path fill="#6F9EC0" d="M133.8,49.4v5.7l2.2-4.3C135.2,50.4,134.5,49.9,133.8,49.4 M135.2,44.1c0.9,0.4,1.9,0.7,2.9,0.9
		c0,0,0.1,0,0.1,0c0,0-0.1,0-0.1,0C137,44.9,136.1,44.5,135.2,44.1 M135.3,42.4l-1.5,1c0.2,0.1,0.5,0.3,0.7,0.4c0,0,0,0,0,0
		L135.3,42.4"/>
	<path fill="#FF0000" d="M50,127.4c-5.8-5.8-15.2-5.8-21,0c-5.8,5.8-5.8,15.2,0,21L39.5,159L50,148.5
		C55.8,142.7,55.8,133.2,50,127.4z M39.5,146.1c-4.5,0-8.1-3.6-8.1-8.1c0-4.5,3.6-8.1,8.1-8.1c4.5,0,8.1,3.6,8.1,8.1
		C47.6,142.4,44,146.1,39.5,146.1z"/>
	<path fill="#FFFFFF" d="M160.3,101.9c-3.9-3.9-10.2-3.9-14.1,0c-3.9,3.9-3.9,10.2,0,14.1l7.1,7.1l7.1-7.1
		C164.2,112.1,164.2,105.8,160.3,101.9z M153.2,114.4c-3,0-5.5-2.4-5.5-5.5c0-3,2.5-5.5,5.5-5.5c3,0,5.5,2.4,5.5,5.5
		C158.7,112,156.2,114.4,153.2,114.4z"/>
	<polyline fill="#B79D7D" points="156.7,38.5 156.7,38.5 157.4,38.7 156.7,38.5 	"/>
	<polyline fill="#B79D7D" points="177.1,53 182.2,60.7 182.2,60.7 177.1,53 	"/>
	<path fill="#CCB7A0" d="M160.1,39.6c-0.6,2.6-1.7,5.1-3.6,7.3l20.5,6.1l5.1,7.7V46.1L160.1,39.6"/>
	<path fill="#CCB7A0" d="M155.7,40.7c-0.6,1-1.2,1.9-2,2.8c-0.6,0.7-1.3,1.3-1.9,1.9l0.6,0.2c0.4-0.3,0.8-0.7,1.1-1.1
		C154.4,43.3,155.1,42.1,155.7,40.7"/>
	<polyline fill="#B79D7D" points="149.8,36.5 151.4,36.9 152.8,37.4 152.8,37.4 149.8,36.5 	"/>
	<path fill="#CCB7A0" d="M151.4,36.9l-3.2,6.1c0.9-0.6,1.7-1.3,2.4-2.2c0.9-1.1,1.7-2.2,2.2-3.5L151.4,36.9"/>
	<path fill="#B79D7D" d="M133.8,177.7L133.8,177.7l8,2.4l20.5,6.1l30.4,9.1l-30.4-9.1l-20.5-6.1L133.8,177.7 M191.2,74.4l1.4,2.2
		L191.2,74.4L191.2,74.4"/>
	<polyline fill="#CCCCCC" points="200.7,80.2 200.7,206.1 133.8,186.1 133.8,186.1 133.8,186.1 200.7,206.1 200.7,80.2 	"/>
	<polyline fill="#CCB7A0" points="133.8,186.1 133.8,186.1 133.8,186.1 133.8,186.1 	"/>
	<polyline fill="#CCB7A0" points="191.2,74.4 192.7,76.6 192.7,195.3 162.3,186.2 141.8,180.1 133.8,177.7 133.8,186.1 200.7,206.1 
		200.7,80.2 191.2,74.4 	"/>
	<polyline fill="#A6835C" points="190.6,73.4 191.2,74.4 191.2,74.4 191.2,74.4 190.6,73.4 	"/>
	<polyline fill="#BFA688" points="188.8,70.8 190.6,73.4 191.2,74.4 200.7,80.2 200.7,74.2 188.8,70.8 	"/>
	<polyline fill="#C5B096" points="188.8,70.8 188.8,70.8 200.7,74.2 188.8,70.8 	"/>
	<path fill="#CCCCCC" d="M66.9,197.7v8.3l-21-6.3l21,6.3v0l0,0V197.7 M0,31.7L0,31.7l66.9,20V60v-8.3l0,0v0L0,31.7"/>
	<polyline fill="#CCB7A0" points="0,31.7 0,186.1 45.9,199.8 66.9,206.1 66.9,197.7 8,180.1 8,42.4 66.9,60 66.9,51.7 0,31.7 	"/>
	<path fill="#CCB7A0" d="M66.9,197.7v8.3l0,0L66.9,197.7L66.9,197.7 M66.9,51.7L66.9,51.7l0,8.3l0,0V51.7"/>
	<g>
		<defs>
			<polyline id="SVGID_1_" points="192.7,76.6 192.7,195.3 162.3,186.2 141.8,180.1 133.8,177.7 131.5,178.4 66.9,197.7 8,180.1 
				8,42.4 66.9,60 133.8,40 177.1,53 192.7,76.6 			"/>
		</defs>
		<clipPath id="SVGID_2_">
			<use xlink:href="#SVGID_1_"  overflow="visible"/>
		</clipPath>
		<path clip-path="url(#SVGID_2_)" fill="#FFFFFF" d="M142.8,142.2c2.9-3.1,5.8-6.3,8.7-9.7c0.7-0.8,0.6-2-0.2-2.7
			c-0.8-0.7-2-0.6-2.7,0.2c-2.8,3.3-5.6,6.5-8.5,9.5c-0.7,0.8-0.7,2,0.1,2.7C140.9,142.9,142.1,142.9,142.8,142.2L142.8,142.2z
			 M113,167.2c3.5-2.3,7.1-4.9,10.6-7.6c0.8-0.7,1-1.9,0.3-2.7c-0.7-0.8-1.9-1-2.7-0.3c-3.4,2.7-6.9,5.1-10.3,7.4
			c-0.9,0.6-1.1,1.8-0.5,2.7C110.9,167.5,112.1,167.8,113,167.2L113,167.2z M78.3,184.9c3.9-1.5,7.9-3.2,12-5.1
			c1-0.5,1.4-1.6,0.9-2.6c-0.5-1-1.6-1.4-2.6-0.9c-3.9,1.8-7.9,3.5-11.7,4.9c-1,0.4-1.5,1.5-1.1,2.5
			C76.2,184.8,77.3,185.3,78.3,184.9L78.3,184.9z M40.6,194.8c4.1-0.6,8.3-1.4,12.8-2.4c1-0.2,1.7-1.3,1.5-2.3
			c-0.2-1-1.3-1.7-2.3-1.5c-4.4,1-8.5,1.7-12.5,2.3c-1.1,0.2-1.8,1.1-1.6,2.2C38.6,194.2,39.6,194.9,40.6,194.8L40.6,194.8z
			 M1.6,196.1c0.1,0,4.8,0.6,12.9,0.6l0.2,0c1.1,0,1.9-0.9,1.9-1.9c0-1.1-0.9-1.9-1.9-1.9l-0.2,0c-3.9,0-7-0.2-9.1-0.3
			c-1.1-0.1-1.9-0.1-2.4-0.2c-0.3,0-0.5-0.1-0.6-0.1l-0.1,0l0,0c-1.1-0.1-2,0.6-2.2,1.7C-0.2,195,0.5,196,1.6,196.1L1.6,196.1z"/>
	</g>
	<polyline fill="#B3A08A" points="124.9,42.7 120.4,44 120.4,44 124.9,42.7 	"/>
	<path fill="#C1B3A3" d="M125.5,40.4l-5.1,3.6l4.5-1.4l1.7-0.5C126.2,41.6,125.8,41,125.5,40.4"/>
	<path fill="#92A76F" d="M107.8,120.1c-1.4,0.5-2.8,0.9-4.1,1.4c-0.2,0.1-0.4,0.1-0.5,0.2l0,0c-0.1,0-0.3,0.1-0.4,0.1
		c-1.2,0.4-2.4,0.7-3.5,1c0,0-0.1,0-0.1,0c0,0,0,0,0,0c-0.3,0.1-0.6,0.2-0.9,0.2l-4.2,8c-0.4,0.8,0.2,1.7,1,1.7
		c0.2,0,0.5-0.1,0.7-0.2l2.6-2l6.8-5.2v0L107.8,120.1"/>
	<path fill="#7BA57D" d="M99,122.8c-0.2,0.1-0.5,0.1-0.7,0.2l0,0c-0.1,0-0.1,0-0.2,0l0,0C98.4,123,98.7,122.9,99,122.8 M102.7,121.7
		c-0.5,0.1-0.9,0.3-1.4,0.4c-0.7,0.2-1.4,0.4-2.1,0.6C100.3,122.4,101.5,122.1,102.7,121.7 M103.6,121.4c-0.2,0.1-0.3,0.1-0.5,0.2
		l0,0C103.3,121.5,103.5,121.5,103.6,121.4"/>
	<polyline fill="#E4E4E4" points="127.5,33.5 127.5,33.5 127.5,33.5 127.5,33.5 127.5,33.5 	"/>
	<path fill="#C1B3A3" d="M127.5,33.5L127.5,33.5c0,0.2,0,0.4,0.1,0.6C127.6,34,127.5,33.7,127.5,33.5"/>
	<path fill="#C1B3A3" d="M128,35.8c0.1,0.3,0.2,0.6,0.3,0.8c0.4,1.2,1,2.3,1.8,3.3c0.2,0.3,0.5,0.7,0.8,1l3-0.9v-2.7l-3.8,2.6
		c-0.8-1-1.3-2.1-1.8-3.3C128.1,36.4,128.1,36.1,128,35.8"/>
	<path fill="#7599B3" d="M126.6,42.2l-1.7,0.5l-4.5,1.4l-5.3,3.7l-2.7,1.9l-17,11.9h0l-28.5,20v8.8l22.6-15.8l19.7-13.8l21-14.7
		c-0.3-0.3-0.7-0.5-1-0.8C128.3,44.2,127.4,43.3,126.6,42.2C126.7,42.2,126.6,42.2,126.6,42.2"/>
	<polyline fill="#95ACC1" points="126.6,42.2 124.9,42.7 126.6,42.2 126.6,42.2 	"/>
	<path fill="#7599B3" d="M130.4,46c0.7,0.9,1.4,1.7,2.3,2.5c0.3,0.3,0.7,0.6,1,0.8V48c-0.4-0.2-0.8-0.4-1.2-0.6
		C131.9,47,131.1,46.5,130.4,46"/>
	<path fill="#8D9BAC" d="M99.2,122.7c-0.1,0-0.1,0-0.2,0c0,0,0,0,0,0C99.1,122.8,99.1,122.8,99.2,122.7 M103.1,121.6
		c-0.1,0-0.3,0.1-0.4,0.1C102.8,121.7,102.9,121.6,103.1,121.6L103.1,121.6 M107.8,120.1c-1.4,0.5-2.8,0.9-4.1,1.4
		C105,121,106.4,120.5,107.8,120.1L107.8,120.1"/>
	<path fill="#7599B3" d="M133.8,55.1l-35.6,68c0.1,0,0.1,0,0.2,0l0,0c0.2-0.1,0.5-0.1,0.7-0.2c0.1,0,0.1,0,0.2,0
		c0.7-0.2,1.4-0.4,2.1-0.6c0.5-0.1,0.9-0.3,1.4-0.4c0.1,0,0.3-0.1,0.4-0.1l0,0c0.2-0.1,0.3-0.1,0.5-0.2c1.4-0.4,2.7-0.9,4.1-1.4
		l26-49.6V55.1"/>
	<path fill="#2AA0A3" d="M98.3,123c-0.1,0-0.1,0-0.2,0l0,0C98.2,123,98.2,123,98.3,123"/>
	<path fill="#7599B3" d="M133.8,40l-1.9,0.6l-1.1,0.3c0.3,0.4,0.7,0.8,1.1,1.1c0.6,0.5,1.2,1,1.8,1.4V40"/>
	<polyline fill="#95ACC1" points="133.8,40 130.8,40.9 130.8,40.9 131.9,40.6 133.8,40 	"/>
	<path fill="#668FAD" d="M66.9,81.5L60.5,86l0,0l-4.3,7.4l-1.7,2.9c-0.5,0.8,0.2,1.7,1,1.7c0.2,0,0.4-0.1,0.7-0.2l10.7-7.5V81.5"/>
	<polyline fill="#668FAD" points="66.9,81.5 66.9,81.5 66.9,90.2 66.9,90.2 66.9,81.5 	"/>
	<path fill="#668FAD" d="M152.3,45.6c-1.9,1.7-4.2,2.7-6.6,3.1c-1.6,0.5-3.3,0.7-5,0.7c-0.2,0-0.5,0-0.7,0c-1.3-0.1-2.6-0.3-3.9-0.6
		c-0.8-0.2-1.5-0.5-2.3-0.8v1.4c0.7,0.5,1.5,1,2.2,1.4l-2.2,4.3v15.4l9.3-17.8c0.2,0,0.5,0,0.7,0c4.6,0,9.3-1.9,12.6-5.7l0.2-0.2
		L152.3,45.6"/>
	<polyline fill="#83A0BB" points="152.3,45.6 152.3,45.6 152.3,45.6 156.5,46.8 156.5,46.8 152.3,45.6 	"/>
	<path fill="#668FAD" d="M143.3,42.9l-1.2,2.4c-0.4,0-0.8,0.1-1.2,0.1c0.4,0,0.8,0,1.2-0.1c1.6-0.2,3.1-0.6,4.6-1.4L143.3,42.9"/>
	<polyline fill="#83A0BB" points="143.3,42.9 143.3,42.9 146.7,43.9 146.7,43.9 143.3,42.9 	"/>
	<polyline fill="#668FAD" points="133.8,40 133.8,43.4 133.8,43.4 135.3,42.4 136.1,40.7 133.8,40 	"/>
	<polyline fill="#83A0BB" points="133.8,40 133.8,40 136.1,40.7 136.1,40.7 133.8,40 	"/>
	<polyline fill="#E4E4E4" points="157.4,38.7 160.1,39.6 160.1,39.5 157.4,38.7 	"/>
	<polyline fill="#E4E4E4" points="147.1,35.7 147.1,35.7 149.8,36.5 147.1,35.7 	"/>
	<polyline fill="#E4E4E4" points="139.4,33.4 139.4,33.4 139.9,33.5 139.9,33.5 139.4,33.4 	"/>
	<path fill="#B7A590" d="M156.7,38.5c-0.3,0.7-0.7,1.5-1.1,2.2c-0.5,1.3-1.3,2.6-2.3,3.7c-0.3,0.4-0.7,0.8-1.1,1.1l4.2,1.3
		c1.8-2.2,3-4.7,3.6-7.3l-2.7-0.8L156.7,38.5"/>
	<path fill="#B7A590" d="M147.1,35.7l-3.8,7.2l3.3,1c0.5-0.3,1-0.6,1.5-0.9l3.2-6.1l-1.6-0.5L147.1,35.7"/>
	<polyline fill="#B7A590" points="139.4,33.4 133.8,37.3 133.8,40 136.1,40.7 139.9,33.5 139.4,33.4 	"/>
	<path fill="#3C3C3B" d="M169.6,5.1L154.7,22c-0.6-0.8-1.3-1.6-2.1-2.4L167.2,3L169.6,5.1"/>
	<path fill="#4F4F4E" d="M167.2,3l-14.5,16.6c0.8,0.7,1.5,1.5,2.1,2.4l0,0l14.8-16.9L167.2,3"/>
	<path fill="#3C3C3B" d="M152.7,19.6c0.8,0.7,1.5,1.5,2.1,2.4l-1,1.2l0,0l-0.4,0.4l0,0l-1.3,1.5c-0.1-0.1-0.2-0.3-0.3-0.4
		c-0.5-0.8-1.1-1.5-1.9-2.2c-0.1-0.1-0.3-0.3-0.4-0.4l-0.2-0.2c-0.8-0.6-1.6-1.2-2.4-1.6c-0.2-0.1-0.4-0.2-0.7-0.3l1-1.1l1.8-2.1
		L163.7,0l3.4,3L152.7,19.6"/>
	<path fill="#B3B3B3" d="M152.3,25.8c-0.1-0.2-0.2-0.4-0.4-0.6c-0.1-0.1-0.2-0.3-0.3-0.4c-0.5-0.8-1.1-1.5-1.9-2.2
		c-0.1-0.1-0.3-0.3-0.4-0.4l-0.2-0.2c-0.8-0.6-1.6-1.2-2.4-1.6l0.9-1.7l3.3,1.7l0.1,0.1l0,0l3.2,1.7l-0.6,1.1L152.3,25.8"/>
	<path fill="#B3B3B3" d="M100.6,124.4L100.6,124.4l-7,5.4l-2.7,2.1c-1,0.8-2.4-0.4-1.8-1.5l43.5-83c1.1,0.6,2.3,1,3.5,1.4
		c1.3,0.4,2.6,0.6,3.9,0.6L100.6,124.4z"/>
	<path fill="#B3B3B3" d="M139.9,49.4c-1.3-0.1-2.6-0.3-3.9-0.6c-1.2-0.3-2.4-0.8-3.5-1.4l1.9-3.6c1.1,0.6,2.3,1,3.5,1.3
		c1.3,0.3,2.7,0.3,4.1,0.2L139.9,49.4z"/>
	<path fill="#CCCCCC" d="M90.5,58.5l-6.1,13.3L49.9,96c-1,0.7-2.3-0.5-1.7-1.6l1.7-3l4.5-7.7l0,0L90.5,58.5z"/>
	<path fill="#CCCCCC" d="M126.7,42.3l-21.8,15.3l6.1-13.3l12.7-8.9c0.2,1.3,0.6,2.5,1.2,3.7C125.3,40.2,125.9,41.2,126.7,42.3z"/>
	<polygon fill="#CCCCCC" points="111,44.2 104.8,57.6 84.4,71.9 90.5,58.5 108.2,46.2 108.2,46.2 	"/>
	<path fill="#878787" d="M130,39.9l-3.3,2.3c-0.7-1-1.4-2.1-1.9-3.2c-0.5-1.2-0.9-2.5-1.2-3.7l3.8-2.7c0.1,1.4,0.3,2.7,0.8,4
		C128.7,37.8,129.3,38.9,130,39.9z"/>
	<path fill="#878787" d="M153.3,23.6L153.3,23.6l-1.6,1.1c-0.5-0.8-1.1-1.5-1.9-2.2c-0.1-0.1-0.3-0.3-0.4-0.4l-0.2-0.2
		c-0.8-0.6-1.6-1.2-2.4-1.6c-0.2-0.1-0.4-0.2-0.7-0.3c-0.1-0.1-0.2-0.1-0.4-0.2l1.3-0.9l2-1.4l2,2.9l0,0l0.1,0.1L153.3,23.6
		L153.3,23.6"/>
	<path fill="#808080" d="M154.7,22c-0.6-0.8-1.3-1.6-2.1-2.4c-0.2-0.2-0.4-0.3-0.6-0.5c-1-0.9-2.1-1.6-3.2-2.2
		c-6.9-3.8-15.8-2.4-21.2,3.8c-3.7,4.2-5,9.6-4,14.7c0.2,1.3,0.6,2.5,1.2,3.7c0.5,1.1,1.1,2.2,1.9,3.2c0.7,1,1.6,2,2.6,2.8
		c1,0.9,2.2,1.7,3.4,2.3c1.1,0.6,2.3,1.1,3.5,1.4c1.3,0.4,2.6,0.6,3.9,0.6c5,0.2,10.1-1.8,13.7-5.9C159.1,37.3,159.3,28.4,154.7,22
		 M150.6,40.8c-2.3,2.6-5.3,4.1-8.5,4.4c-1.4,0.2-2.7,0.1-4.1-0.2c-1.2-0.2-2.4-0.7-3.5-1.3c-0.9-0.5-1.8-1.1-2.6-1.8
		c-0.7-0.6-1.4-1.3-1.9-2.1c-0.8-1-1.3-2.1-1.8-3.3c-0.5-1.3-0.7-2.6-0.8-4c-0.2-3.3,0.9-6.7,3.3-9.3c3.8-4.4,9.9-5.6,15-3.5
		c0.1,0,0.2,0.1,0.4,0.2c0.2,0.1,0.5,0.2,0.7,0.3c0.8,0.4,1.7,1,2.4,1.6l0.2,0.2c0.1,0.1,0.3,0.3,0.4,0.4c0.7,0.7,1.3,1.4,1.9,2.2
		c0.1,0.1,0.2,0.3,0.3,0.4c0.1,0.2,0.3,0.4,0.4,0.6C154.9,30.5,154.4,36.5,150.6,40.8"/>
	<path fill="#CCCCCC" d="M151.7,24.7l-3.3,2.3l-1.4,1l-6.6,4.6L130,39.9c-0.8-1-1.3-2.1-1.8-3.3c-0.5-1.3-0.7-2.6-0.8-4l18.3-12.8
		c0.1,0,0.2,0.1,0.4,0.2c0.2,0.1,0.5,0.2,0.7,0.3c0.8,0.4,1.7,1,2.4,1.6l0.2,0.2c0.1,0.1,0.3,0.3,0.4,0.4
		C150.5,23.2,151.2,23.9,151.7,24.7"/>
	<path fill="#B3B3B3" d="M142.1,45.2c-1.4,0.2-2.7,0.1-4.1-0.2c-1.2-0.2-2.4-0.7-3.5-1.3l5.8-11.1l6.6-4.6l1.4-1l3.3-2.3
		c0.1,0.1,0.2,0.3,0.3,0.4c0.1,0.2,0.2,0.4,0.4,0.6L142.1,45.2"/>
	<polyline fill="#E8E8E8" points="152.3,25.8 151.5,27.3 151.5,27.3 152.3,25.8 152.3,25.8 	"/>
	<polyline fill="#BABABA" points="151.7,24.7 147.4,27.8 148.4,27.1 151.7,24.7 151.7,24.7 	"/>
	<polyline fill="#A3A3A3" points="151.7,24.7 151.7,24.7 148.4,27.1 147.4,27.8 140.3,32.7 151.5,27.3 152.3,25.8 152.3,25.8 
		151.7,24.7 151.7,24.7 	"/>
</g>
</svg>
