<?xml version="1.0" encoding="utf-8"?>
<!-- Generator: Adobe Illustrator 18.1.0, SVG Export Plug-In . SVG Version: 6.00 Build 0)  -->
<svg version="1.1" xmlns="http://www.w3.org/2000/svg" xmlns:xlink="http://www.w3.org/1999/xlink" x="0px" y="0px"
	 viewBox="0 0 100 100" enable-background="new 0 0 100 100" xml:space="preserve">
<g id="Background">
</g>
<g id="Layer_1">
	<g>
		<g>
			<path fill="#FFFFFF" d="M28.4,71.7L28.4,71.7c-2.1,0-3.9-1.9-3.9-4.2V29.6c0-1.8,1-3.3,2.6-3.9l11.6-5c0.5-0.2,0.9-0.3,1.4-0.3
				c2.1,0,3.9,1.9,3.9,4.2v37.9c0,1.8-1,3.3-2.6,3.9l-11.6,5C29.2,71.6,28.8,71.7,28.4,71.7z M39.9,24.5l-11.3,4.9
				c0,0-0.1,0.1-0.1,0.2v37.9c0,0,0,0.1,0,0.1l11.3-4.9c0,0,0.1-0.1,0.1-0.2L39.9,24.5C39.9,24.5,39.9,24.5,39.9,24.5z"/>
			<path fill="#FFFFFF" d="M55.5,77.1L55.5,77.1c-0.8,0-1.6-0.3-2.2-0.8l-0.1-0.1L41.5,66.2c-1-0.8-1.6-2-1.6-3.4V25.6
				c0-2.3,1.7-4.2,3.9-4.2c0.8,0,1.6,0.3,2.2,0.8l0.1,0.1l11.6,10.1c1,0.8,1.6,2,1.6,3.4V73c0,1.1-0.4,2.1-1.1,2.9
				C57.5,76.7,56.5,77.1,55.5,77.1z M43.9,25.6v37.2c0,0.1,0,0.2,0.1,0.2l0.1,0.1l11.3,9.7V35.7c0-0.1,0-0.2-0.1-0.2l-0.1-0.1
				L43.9,25.6z"/>
			<path fill="#FFFFFF" d="M59.2,78.2L59.2,78.2c-2.1,0-3.9-1.9-3.9-4.2V36.1c0-1.8,1-3.3,2.6-3.9l11.6-5c0.5-0.2,0.9-0.3,1.4-0.3
				c2.1,0,3.9,1.9,3.9,4.2v37.9c0,1.8-1,3.3-2.6,3.9l-11.6,5C60.1,78.1,59.6,78.2,59.2,78.2z M70.8,30.9l-11.3,4.9
				c0,0-0.1,0.1-0.1,0.2V74c0,0,0,0.1,0,0.1l11.3-4.9c0,0,0.1-0.1,0.1-0.2L70.8,30.9C70.8,31,70.8,31,70.8,30.9z"/>
		</g>
		<g>
			<path fill="#FFFFFF" d="M26.5,50c-0.4,0-0.8-0.2-0.9-0.6c-0.2-0.5,0-1.1,0.5-1.3l0.9-0.4c0.5-0.2,1.1,0,1.3,0.5
				c0.2,0.5,0,1.1-0.5,1.3l-0.9,0.4C26.7,50,26.6,50,26.5,50z"/>
			<path fill="#FFFFFF" d="M30.8,48.2c-0.4,0-0.8-0.2-0.9-0.6c-0.2-0.5,0-1.1,0.5-1.3l1.7-0.7c0.5-0.2,1.1,0,1.3,0.5
				c0.2,0.5,0,1.1-0.5,1.3l-1.7,0.7C31.1,48.2,30.9,48.2,30.8,48.2z M35.9,46.1c-0.4,0-0.8-0.2-0.9-0.6c-0.2-0.5,0-1.1,0.5-1.3
				l1.7-0.7c0.5-0.2,1.1,0,1.3,0.5c0.2,0.5,0,1.1-0.5,1.3l-1.7,0.7C36.1,46.1,36,46.1,35.9,46.1z"/>
			<path fill="#FFFFFF" d="M42.7,44.3c-0.2,0-0.5-0.1-0.6-0.2l-0.3-0.3L41.4,44c-0.5,0.2-1.1,0-1.3-0.5c-0.2-0.5,0-1.1,0.5-1.3
				l1.5-0.6l1.2,1c0.4,0.4,0.5,1,0.1,1.4C43.2,44.2,43,44.3,42.7,44.3z"/>
			<path fill="#FFFFFF" d="M53.1,53c-0.2,0-0.5-0.1-0.6-0.2l-1.7-1.5c-0.4-0.4-0.5-1-0.1-1.4c0.4-0.4,1-0.5,1.4-0.1l1.7,1.5
				c0.4,0.4,0.5,1,0.1,1.4C53.7,52.9,53.4,53,53.1,53z M47.9,48.7c-0.2,0-0.5-0.1-0.6-0.2L45.5,47c-0.4-0.4-0.5-1-0.1-1.4
				c0.4-0.4,1-0.5,1.4-0.1l1.7,1.5c0.4,0.4,0.5,1,0.1,1.4C48.5,48.5,48.2,48.7,47.9,48.7z"/>
			<path fill="#FFFFFF" d="M57.1,56.7l-1.2-1c-0.4-0.4-0.5-1-0.1-1.4c0.4-0.4,1-0.5,1.4-0.1l0.3,0.3l0.4-0.1
				c0.5-0.2,1.1,0.1,1.3,0.6s-0.1,1.1-0.6,1.3L57.1,56.7z"/>
			<path fill="#FFFFFF" d="M61.7,55.1c-0.4,0-0.8-0.3-1-0.7c-0.2-0.5,0.1-1.1,0.6-1.3l1.7-0.6c0.5-0.2,1.1,0.1,1.3,0.6
				c0.2,0.5-0.1,1.1-0.6,1.3L62,55.1C61.9,55.1,61.8,55.1,61.7,55.1z M66.7,53.5c-0.4,0-0.8-0.3-1-0.7c-0.2-0.5,0.1-1.1,0.6-1.3
				l1.7-0.6c0.5-0.2,1.1,0.1,1.3,0.6c0.2,0.5-0.1,1.1-0.6,1.3L67,53.4C66.9,53.5,66.8,53.5,66.7,53.5z"/>
			<path fill="#FFFFFF" d="M71.8,51.8c-0.4,0-0.8-0.3-1-0.7c-0.2-0.5,0.1-1.1,0.6-1.3l1-0.3c0.5-0.2,1.1,0.1,1.3,0.6
				c0.2,0.5-0.1,1.1-0.6,1.3l-1,0.3C72,51.8,71.9,51.8,71.8,51.8z"/>
		</g>
	</g>
</g>
</svg>
