<?xml version="1.0" encoding="utf-8"?>
<!-- Generator: Adobe Illustrator 19.2.1, SVG Export Plug-In . SVG Version: 6.00 Build 0)  -->
<svg version="1.1" id="Layer_1" xmlns="http://www.w3.org/2000/svg" xmlns:xlink="http://www.w3.org/1999/xlink" x="0px" y="0px"
	 viewBox="0 0 84.3 178.6" style="enable-background:new 0 0 84.3 178.6;" xml:space="preserve">
<style type="text/css">
	.st0{fill:#069DD8;}
	.st1{fill:#007AA8;}
	.st2{fill:#0696CE;}
	.st3{fill:#F58824;}
	.st4{fill:#2FA9E0;}
	.st5{fill:#1D9CD7;}
	.st6{fill:#2DA3D8;}
	.st7{fill:#1C97D0;}
	.st8{fill:#0686C3;}
	.st9{fill:#0681BC;}
	.st10{fill:#4A4D4F;}
	.st11{fill:#424547;}
	.st12{fill:#7A7F80;}
	.st13{fill:#8D9394;}
</style>
<g>
	<path class="st0" d="M70.5,101.4v73.5c0,2-1.7,3.7-3.7,3.7H17.9c-2,0-3.7-1.7-3.7-3.7v-73.5H70.5"/>
	<circle class="st1" cx="33.1" cy="149.3" r="5.2"/>
	<circle class="st1" cx="51.6" cy="149.3" r="5.2"/>
	<path class="st2" d="M70.5,112.2c-7.5,6.8-17.4,11-28.4,11c-10.7,0-20.5-4-27.9-10.6v8.5c8.5,5.1,17.9,8,28.2,8
		c10.2,0,19.6-2.9,28.2-8V112.2"/>
	<path class="st3" d="M42.1,123.1C18.9,123.1,0,104.3,0,81V42.1C0,18.9,18.9,0,42.1,0c23.3,0,42.1,18.9,42.1,42.1V81
		C84.3,104.3,65.4,123.1,42.1,123.1"/>
	<path class="st4" d="M42.1,123.1C18.9,123.1,0,104.3,0,81V42.1C0,18.9,18.9,0,42.1,0c23.3,0,42.1,18.9,42.1,42.1V81
		C84.3,104.3,65.4,123.1,42.1,123.1"/>
	<path class="st5" d="M42,112.9c-17.6,0-31.8-14.3-31.8-31.9V42.1c0-17.6,14.2-31.9,31.8-31.9s31.8,14.3,31.8,31.9V81
		C73.8,98.6,59.6,112.9,42,112.9"/>
	<path class="st6" d="M71.1,29.4c1.1,2.5,1.9,5.2,2.3,7.9c0,0.1,0,0.1,0.1,0.2C73.1,34.7,72.3,31.9,71.1,29.4 M41.8,10.2
		c-16,0-29.4,11.9-31.7,27.3c0.3-0.9,0.6-1.8,1-2.6C14.3,20.8,26.9,10.2,42,10.2c0,0,0.1,0,0.1,0C42,10.2,41.9,10.2,41.8,10.2"/>
	<path class="st7" d="M42,10.2c-15.1,0-27.7,10.6-30.9,24.7C16.3,23,28,14.8,41.8,14.8c14.6,0,27.1,9.4,31.6,22.5
		c-0.4-2.8-1.2-5.4-2.3-7.9C66.2,18.2,55,10.3,42,10.2C42.1,10.2,42,10.2,42,10.2"/>
	<path class="st8" d="M42,102.7c-12,0-21.9-9.7-21.9-21.7V42.1c0-12,9.9-21.7,21.9-21.7c12,0,21.9,9.7,21.9,21.7V81
		C63.9,93,54.1,102.7,42,102.7"/>
	<path class="st7" d="M41.6,20.4C30.7,20.5,21.6,28.6,20,39c0.2-0.6,0.4-1.1,0.6-1.7C22.8,27.8,31.4,20.6,41.6,20.4"/>
	<path class="st9" d="M41.8,20.4c-0.1,0-0.1,0-0.2,0c-10.2,0.2-18.8,7.4-21,16.9C24,29,32.3,23.1,41.8,23.1
		c10.1,0,18.9,6.7,21.7,15.9C62,28.5,52.7,20.4,41.8,20.4"/>
	<path class="st10" d="M42,92.5c-6.5,0-12.1-5.2-12.1-11.5V42.1c0-6.3,5.6-11.5,12.1-11.5c6.5,0,12.1,5.2,12.1,11.5V81
		C54.1,87.4,48.5,92.5,42,92.5"/>
	<path class="st11" d="M42,30.6c-6.5,0-12.1,5.2-12.1,11.5v0.2c2-4.7,6.7-8.1,12.1-8.1s9.5,3.4,12.1,8.1v-0.2
		C54.1,35.8,48.5,30.6,42,30.6"/>
	<circle class="st12" cx="41.8" cy="56.5" r="4.2"/>
	<circle class="st12" cx="41.8" cy="67.6" r="2.6"/>
	<circle class="st13" cx="40.9" cy="55.2" r="1.3"/>
	<circle class="st13" cx="41" cy="66.7" r="0.7"/>
</g>
</svg>
