<?xml version="1.0" encoding="utf-8"?>
<!-- Generator: Adobe Illustrator 19.2.1, SVG Export Plug-In . SVG Version: 6.00 Build 0)  -->
<svg version="1.1" id="Layer_1" xmlns="http://www.w3.org/2000/svg" xmlns:xlink="http://www.w3.org/1999/xlink" x="0px" y="0px"
	 viewBox="0 0 18.8 18.8" style="enable-background:new 0 0 18.8 18.8;" xml:space="preserve">
<style type="text/css">
	.st0{fill:#FFFFFF;}
</style>
<g>
	<g>
		<path class="st0" d="M17.7,6.7c-0.2,0-0.3-0.1-0.4-0.2c-0.1-0.2-0.2-0.3-0.3-0.5c-0.2-0.2-0.1-0.5,0.1-0.7
			c0.2-0.2,0.5-0.1,0.7,0.1c0.2,0.2,0.3,0.4,0.4,0.6c0.1,0.2,0.1,0.5-0.2,0.7C17.9,6.7,17.8,6.7,17.7,6.7z"/>
	</g>
	<g>
		<path class="st0" d="M11.9,12.2c-0.1,0-0.2,0-0.2-0.1c-0.2-0.1-0.3-0.4-0.2-0.7c0.4-0.7,0.8-1.7,1.1-2.7c0.8-2.2,1.6-4.4,3.4-4.4
			c0.3,0,0.5,0.2,0.5,0.5S16.2,5.4,16,5.4c-1.1,0-1.8,1.9-2.5,3.8c-0.4,1-0.7,2-1.2,2.8C12.2,12.2,12.1,12.2,11.9,12.2z"/>
	</g>
	<g>
		<path class="st0" d="M10.1,13.6c-1.6,0-2.4-1.8-3.1-3.7C6.9,9.6,7,9.4,7.3,9.3c0.3-0.1,0.5,0,0.6,0.3c0.7,1.8,1.3,3.1,2.2,3.1
			c0.1,0,0.3,0,0.4-0.1c0.2-0.1,0.5,0,0.7,0.3c0.1,0.3,0,0.5-0.3,0.7C10.7,13.6,10.4,13.6,10.1,13.6z"/>
	</g>
	<g>
		<path class="st0" d="M6.9,8.6c-0.2,0-0.4-0.1-0.5-0.3C5.8,6.8,5.2,5.4,4.3,5.4C4,5.4,3.6,5.5,3,6.3C2.9,6.6,2.6,6.6,2.3,6.5
			C2.1,6.3,2,6,2.2,5.8c0.6-0.9,1.3-1.4,2.1-1.4c1.6,0,2.4,1.8,3.1,3.5c0.1,0.3,0,0.5-0.3,0.6C7,8.6,6.9,8.6,6.9,8.6z"/>
	</g>
	<g>
		<path class="st0" d="M0.8,11c-0.1,0-0.1,0-0.2,0c-0.3-0.1-0.4-0.4-0.3-0.7c0.2-0.5,0.4-1,0.6-1.5c0.2-0.5,0.4-1.1,0.6-1.6
			C1.6,7,1.8,6.9,2.1,7c0.3,0.1,0.4,0.4,0.3,0.7C2.2,8.1,2,8.7,1.8,9.2c-0.2,0.5-0.4,1-0.6,1.5C1.2,10.9,1,11,0.8,11z"/>
	</g>
</g>
</svg>
