<?xml version="1.0" encoding="utf-8"?>
<!-- Generator: Adobe Illustrator 19.2.1, SVG Export Plug-In . SVG Version: 6.00 Build 0)  -->
<svg version="1.1" id="Layer_1" xmlns="http://www.w3.org/2000/svg" xmlns:xlink="http://www.w3.org/1999/xlink" x="0px" y="0px"
	 viewBox="0 0 18.8 18.8" style="enable-background:new 0 0 18.8 18.8;" xml:space="preserve">
<style type="text/css">
	.st0{fill:#FFFFFF;}
</style>
<g>
	<g>
		<path class="st0" d="M7.6,15.4c-0.2,0-0.4,0-0.5-0.1c-0.5-0.2-0.8-0.8-0.8-1.5V5c0-0.7,0.3-1.2,0.8-1.5c0.5-0.2,1.1-0.1,1.6,0.3
			l5.1,4c0.5,0.4,0.8,1,0.8,1.6c0,0.6-0.3,1.2-0.8,1.6l-5.1,4C8.3,15.2,7.9,15.4,7.6,15.4z M7.7,14L7.7,14L7.7,14z M7.7,4.9
			c0,0,0,0.1,0,0.1v8.8c0,0,0,0.1,0,0.1c0,0,0.1,0,0.1-0.1l5.1-4c0.2-0.1,0.2-0.3,0.2-0.5c0-0.2-0.1-0.3-0.3-0.5L7.7,4.9
			C7.7,4.9,7.7,4.9,7.7,4.9z"/>
	</g>
</g>
</svg>
