<?xml version="1.0" encoding="utf-8"?>
<!-- Generator: Adobe Illustrator 19.2.1, SVG Export Plug-In . SVG Version: 6.00 Build 0)  -->
<svg version="1.1" id="Layer_1" xmlns="http://www.w3.org/2000/svg" xmlns:xlink="http://www.w3.org/1999/xlink" x="0px" y="0px"
	 viewBox="0 0 18.8 18.8" style="enable-background:new 0 0 18.8 18.8;" xml:space="preserve">
<style type="text/css">
	.st0{fill:#FFFFFF;}
</style>
<g>
	<g>
		<g>
			<path class="st0" d="M12.4,2.6c0.1,0,0.3,0,0.4,0.1l1.9,1.5C15,4.4,15,4.8,14.8,5.1l-6.4,8.4c-0.2,0.3-0.6,0.7-1,0.8l-3.2,1.8
				c-0.1,0.1-0.2,0.1-0.2,0.1c-0.2,0-0.2-0.1-0.1-0.4l1-3.5c0.1-0.3,0.4-0.9,0.6-1.1L11,3.9c0.2-0.3,0.6-0.7,0.8-1l0.1-0.1
				C12,2.6,12.2,2.6,12.4,2.6 M12.4,1.7c-0.5,0-0.9,0.2-1.2,0.6L11,2.4l-0.6,0.8l-0.2,0.2l-5.5,7.3c-0.3,0.4-0.6,1-0.7,1.4l-1,3.5
				c-0.2,0.6,0,0.9,0.2,1.1C3.4,17,3.7,17.1,4,17.1c0.2,0,0.5-0.1,0.7-0.2l3.2-1.8c0.4-0.2,0.9-0.7,1.2-1.1l6.4-8.4
				c0.3-0.3,0.4-0.7,0.3-1.1c-0.1-0.4-0.3-0.8-0.6-1L13.3,2C13,1.8,12.7,1.7,12.4,1.7L12.4,1.7z"/>
		</g>
		<g>
			<path class="st0" d="M4.2,14.8l-0.3,1.1c-0.1,0.3,0.1,0.5,0.4,0.3l0.9-0.5"/>
		</g>
		<g>
			
				<rect x="6.2" y="10.6" transform="matrix(0.6045 -0.7966 0.7966 0.6045 -7.6951 10.3097)" class="st0" width="0.6" height="4.6"/>
		</g>
		<g>
			<rect x="12.6" y="2" transform="matrix(0.6045 -0.7966 0.7966 0.6045 1.4556 12.0488)" class="st0" width="0.6" height="5"/>
		</g>
	</g>
</g>
</svg>
