<?xml version="1.0" encoding="utf-8"?>
<!-- Generator: Adobe Illustrator 19.2.1, SVG Export Plug-In . SVG Version: 6.00 Build 0)  -->
<svg version="1.1" id="Layer_1" xmlns="http://www.w3.org/2000/svg" xmlns:xlink="http://www.w3.org/1999/xlink" x="0px" y="0px"
	 viewBox="0 0 18.8 18.8" style="enable-background:new 0 0 18.8 18.8;" xml:space="preserve">
<style type="text/css">
	.st0{fill:#FFFFFF;}
</style>
<g>
	<g>
		<g>
			<path class="st0" d="M8.6,17.8c-0.8,0-1.8-0.2-2.4-0.7l-2.9-2c-0.8-0.5-1.5-1.6-1.7-2.5L1,9.3c-0.2-0.9,0.1-2.2,0.6-3l2-2.9
				c0.5-0.8,1.6-1.5,2.5-1.7L9.5,1c0.9-0.2,2.2,0.1,3,0.6l2.9,2c0.8,0.5,1.5,1.6,1.7,2.5l0.7,3.4c0.2,0.9-0.1,2.2-0.6,3l-2,2.9
				c-0.5,0.8-1.6,1.5-2.5,1.7l-3.4,0.7C9.1,17.8,8.9,17.8,8.6,17.8z M10.1,1.9c-0.2,0-0.3,0-0.4,0L6.3,2.6C5.6,2.8,4.7,3.4,4.4,3.9
				l-2,2.9C2,7.4,1.8,8.4,2,9.1l0.7,3.4c0.1,0.7,0.7,1.5,1.3,1.9l2.9,2c0.6,0.4,1.6,0.6,2.3,0.5l3.4-0.7c0.7-0.1,1.5-0.7,1.9-1.3
				l2-2.9c0.4-0.6,0.6-1.6,0.5-2.3l-0.7-3.4c-0.1-0.7-0.7-1.5-1.3-1.9l-2.9-2C11.5,2.1,10.8,1.9,10.1,1.9z M9.6,1.5L9.6,1.5L9.6,1.5
				z"/>
		</g>
		<g>
			<path class="st0" d="M13.5,16.3c-0.1,0-0.2,0-0.3-0.1l-4.6-7l8.3,1.8c0.2,0,0.3,0.2,0.2,0.4c0,0.2-0.2,0.3-0.4,0.2l-6.8-1.4
				l3.8,5.8c0.1,0.1,0.1,0.3-0.1,0.4C13.6,16.3,13.5,16.3,13.5,16.3z"/>
		</g>
		<g>
			<path class="st0" d="M8.8,10.3l1.7-8.4c0-0.2,0.2-0.3,0.4-0.2c0.2,0,0.3,0.2,0.2,0.4L9.7,8.9l5.8-3.9C15.7,5,15.9,5,16,5.2
				c0.1,0.1,0.1,0.3-0.1,0.4L8.8,10.3z"/>
		</g>
		<g>
			<path class="st0" d="M9.9,10.1L1.5,8.3c-0.2,0-0.3-0.2-0.2-0.4c0-0.2,0.2-0.3,0.4-0.2l7,1.5L4.7,3.2C4.6,3.1,4.6,2.9,4.7,2.8
				c0.1-0.1,0.3-0.1,0.4,0.1L9.9,10.1z"/>
		</g>
		<g>
			<path class="st0" d="M7.6,17.6C7.5,17.6,7.5,17.6,7.6,17.6c-0.2,0-0.3-0.2-0.3-0.4l1.5-6.9l-6,3.8c-0.1,0.1-0.3,0.1-0.4-0.1
				c-0.1-0.1-0.1-0.3,0.1-0.4l7.2-4.7l-1.8,8.4C7.8,17.5,7.7,17.6,7.6,17.6z"/>
		</g>
	</g>
</g>
</svg>
