<?xml version="1.0" encoding="utf-8"?>
<!-- Generator: Adobe Illustrator 19.2.1, SVG Export Plug-In . SVG Version: 6.00 Build 0)  -->
<svg version="1.1" id="Layer_1" xmlns="http://www.w3.org/2000/svg" xmlns:xlink="http://www.w3.org/1999/xlink" x="0px" y="0px"
	 viewBox="0 0 100 100" style="enable-background:new 0 0 100 100;" xml:space="preserve">
<style type="text/css">
	.st0{fill:#FFFFFF;}
</style>
<g id="Background">
</g>
<g>
	<circle class="st0" cx="36.4" cy="63.5" r="6.4"/>
</g>
<g>
	<path class="st0" d="M54.1,68c-0.2,0-0.6,0-0.9-0.2c-1.3-0.4-1.9-1.9-1.3-3.2c0.6-1.5,0.9-3.2,0.9-4.9c0-7.1-5.6-12.7-12.7-12.7
		c-1.1,0-1.9,0.2-3,0.4c-1.5,0.4-2.8-0.4-3-1.7c-0.4-1.3,0.4-2.6,1.7-3c1.3-0.2,2.8-0.4,4.1-0.4c9.7,0,17.6,8,17.6,17.6
		c0,2.4-0.4,4.5-1.3,6.7C55.8,67.6,54.9,68,54.1,68z"/>
</g>
<g>
	<path class="st0" d="M67.4,68c-0.2,0-0.4,0-0.4,0c-1.3-0.2-2.1-1.5-1.9-3c0.4-1.7,0.4-3.4,0.4-5.2c0-14.2-11.4-25.6-25.6-25.6
		c-1.3,0-2.4-1.1-2.4-2.4s1.1-2.6,2.4-2.6c16.8,0,30.5,13.8,30.5,30.5c0,2.1-0.2,4.1-0.6,6.2C69.5,67.2,68.7,68,67.4,68z"/>
</g>
</svg>
