<?xml version="1.0" encoding="utf-8"?>
<!-- Generator: Adobe Illustrator 18.1.0, SVG Export Plug-In . SVG Version: 6.00 Build 0)  -->
<svg version="1.1" xmlns="http://www.w3.org/2000/svg" xmlns:xlink="http://www.w3.org/1999/xlink" x="0px" y="0px"
	 viewBox="0 0 100 100" enable-background="new 0 0 100 100" xml:space="preserve">
<g id="Background">
</g>
<g id="Layer_1">
	<g>
		<g>
			<g>
				<path fill="#FFFFFF" d="M76.5,64.8H23.4c-3,0-5.5-2.5-5.5-5.5V41.1c0-3,2.5-5.5,5.5-5.5h53.1c3,0,5.5,2.5,5.5,5.5v18.3
					C81.9,62.4,79.5,64.8,76.5,64.8z M23.4,39.5c-0.9,0-1.6,0.7-1.6,1.6v18.3c0,0.9,0.7,1.6,1.6,1.6h53.1c0.9,0,1.6-0.7,1.6-1.6
					V41.1c0-0.9-0.7-1.6-1.6-1.6H23.4z"/>
			</g>
		</g>
		<path fill="#FFFFFF" d="M47,57h-1c-1.1,0-2-0.9-2-2s0.9-2,2-2h1c1.1,0,2,0.9,2,2S48.1,57,47,57z M39,57h-1c-1.1,0-2-0.9-2-2
			s0.9-2,2-2h1c1.1,0,2,0.9,2,2S40.1,57,39,57z M31,57h-1c-1.1,0-2-0.9-2-2s0.9-2,2-2h1c1.1,0,2,0.9,2,2S32.1,57,31,57z M23,57h-1
			c-1.1,0-2-0.9-2-2s0.9-2,2-2h1c1.1,0,2,0.9,2,2S24.1,57,23,57z"/>
		<g>
			<g>
				<path fill="#FFFFFF" d="M57.6,46.5v9.4c0,0.6-0.5,1-1,1s-1-0.5-1-1v-9.4h-2.8c-0.5,0-0.9-0.4-0.9-0.9c0-0.5,0.4-0.9,0.9-0.9h7.6
					c0.5,0,0.9,0.4,0.9,0.9c0,0.5-0.4,0.9-0.9,0.9H57.6z"/>
				<path fill="#FFFFFF" d="M64.6,48.3c3,0,3.6,2.3,3.6,3.6c0,0.7,0,1.4-1.1,1.4h-4.4c0,1.3,0.9,1.9,2.1,1.9c0.8,0,1.3-0.3,1.8-0.6
					c0.2-0.1,0.3-0.2,0.6-0.2c0.5,0,0.8,0.4,0.8,0.8c0,0.3-0.1,0.5-0.3,0.7c-0.3,0.3-1.3,1-2.9,1c-2.5,0-4.1-1.4-4.1-4.4
					C60.7,49.9,62.1,48.3,64.6,48.3z M62.7,51.7h3.6c0-0.9-0.5-1.7-1.7-1.7C63.5,50,62.8,50.6,62.7,51.7z"/>
				<path fill="#FFFFFF" d="M70.7,56.5c-0.2,0.3-0.5,0.4-0.8,0.4c-0.5,0-1-0.4-1-1c0-0.3,0.1-0.4,0.2-0.6l2.2-2.7L69.2,50
					C69,49.8,69,49.6,69,49.4c0-0.5,0.4-1,1-1c0.3,0,0.6,0.1,0.8,0.4l1.7,2.3l1.7-2.3c0.2-0.2,0.5-0.4,0.8-0.4c0.5,0,1,0.4,1,1
					c0,0.2-0.1,0.4-0.2,0.6l-2.1,2.6l2.2,2.7c0.1,0.2,0.2,0.3,0.2,0.6c0,0.5-0.4,1-1,1c-0.3,0-0.6-0.1-0.8-0.4
					c-0.6-0.8-1.8-2.5-1.8-2.5S71.2,55.7,70.7,56.5z"/>
				<path fill="#FFFFFF" d="M77.8,47.1c0-0.5,0.4-1,1-1c0.5,0,1,0.4,1,1v1.5h0.8c0.5,0,0.8,0.4,0.8,0.8s-0.4,0.8-0.8,0.8h-0.8v4.4
					c0,0.4,0.4,0.6,0.7,0.6c0.5,0,0.8,0.4,0.8,0.8s-0.4,0.8-0.8,0.8c-1.6,0-2.6-1-2.6-2.4v-4.2h-0.4c-0.5,0-0.8-0.4-0.8-0.8
					s0.4-0.8,0.8-0.8h0.4V47.1z"/>
			</g>
		</g>
	</g>
</g>
</svg>
