<?xml version="1.0" encoding="utf-8"?>
<!-- Generator: Adobe Illustrator 19.2.1, SVG Export Plug-In . SVG Version: 6.00 Build 0)  -->
<svg version="1.1" id="Layer_1" xmlns="http://www.w3.org/2000/svg" xmlns:xlink="http://www.w3.org/1999/xlink" x="0px" y="0px"
	 viewBox="0 0 18.8 18.8" style="enable-background:new 0 0 18.8 18.8;" xml:space="preserve">
<style type="text/css">
	.st0{fill:#FFFFFF;}
</style>
<g>
	<g>
		<g>
			<path class="st0" d="M9.4,10.6H2.7c-0.7,0-1.2-0.5-1.2-1.2s0.5-1.2,1.2-1.2h6.6V10.6z"/>
		</g>
	</g>
	<g>
		<g>
			<path class="st0" d="M16.1,10.6h-2.8V8.2h2.8c0.7,0,1.2,0.5,1.2,1.2S16.7,10.6,16.1,10.6z"/>
		</g>
	</g>
	<g>
		<path class="st0" d="M12.4,13.2H9.7c-0.7,0-1.3-0.6-1.3-1.3V6.8c0-0.7,0.6-1.3,1.3-1.3h2.7c0.7,0,1.3,0.6,1.3,1.3V12
			C13.7,12.7,13.1,13.2,12.4,13.2z M10.4,11.3h1.3V7.5h-1.3V11.3z"/>
	</g>
</g>
</svg>
