<?xml version="1.0" encoding="utf-8"?>
<!-- Generator: Adobe Illustrator 18.1.0, SVG Export Plug-In . SVG Version: 6.00 Build 0)  -->
<svg version="1.1" xmlns="http://www.w3.org/2000/svg" xmlns:xlink="http://www.w3.org/1999/xlink" x="0px" y="0px"
	 viewBox="0 0 100 100" enable-background="new 0 0 100 100" xml:space="preserve">
<g id="Background">
</g>
<g id="Layer_1">
	<g>
		<g>
			<g>
				<path fill="#FFFFFF" d="M50.1,26.6c4.5,0,8.2,3.7,8.2,8.2c0,4.5-3.7,8.2-8.2,8.2s-8.2-3.7-8.2-8.2
					C41.9,30.3,45.5,26.6,50.1,26.6z M50.1,39c2.3,0,4.1-1.8,4.1-4.1c0-2.3-1.8-4.1-4.1-4.1c-2.3,0-4.1,1.8-4.1,4.1
					C45.9,37.1,47.8,39,50.1,39z M50.1,32.8c1.1,0,2,0.9,2,2c0,1.1-0.9,2-2,2c-1.1,0-2-0.9-2-2C48.1,33.7,49,32.8,50.1,32.8z
					 M35.1,44.1c0-0.9,0.7-1.6,1.6-1.6c0.9,0,1.6,0.7,1.6,1.6c0,0.9-0.7,1.6-1.6,1.6C35.8,45.7,35.1,45,35.1,44.1z M50.1,73.9
					c-7.6,0-13.7-6.2-13.7-13.7c0-7.6,6.2-13.7,13.7-13.7s13.7,6.1,13.7,13.7C63.8,67.7,57.7,73.9,50.1,73.9z M50.1,53.3
					c-3.8,0-6.8,3.1-6.8,6.8s3.1,6.8,6.8,6.8c3.8,0,6.8-3.1,6.8-6.8S53.8,53.3,50.1,53.3z M50.1,63.5c-1.9,0-3.4-1.5-3.4-3.4
					c0-1.9,1.5-3.4,3.4-3.4s3.4,1.5,3.4,3.4C53.4,62,51.9,63.5,50.1,63.5z M63.2,45.7c-0.9,0-1.6-0.7-1.6-1.6c0-0.9,0.7-1.6,1.6-1.6
					c0.9,0,1.6,0.7,1.6,1.6C64.7,45,64,45.7,63.2,45.7z"/>
			</g>
		</g>
		<path fill="#FFFFFF" d="M64.3,21c3.3,0,5.9,2.7,5.9,5.9v47.4c0,2.6-2.1,4.6-4.6,4.6H35.1c-3.2,0-5.9-2.6-5.9-5.9V26.8
			c0-3.2,2.6-5.8,5.8-5.8H64.3 M64.3,17H35c-5.4,0-9.8,4.4-9.8,9.8v46.3c0,5.4,4.4,9.9,9.9,9.9h30.5c4.8,0,8.6-3.9,8.6-8.6V26.9
			C74.2,21.5,69.8,17,64.3,17L64.3,17z"/>
	</g>
</g>
</svg>
