<?xml version="1.0" encoding="utf-8"?>
<!-- Generator: Adobe Illustrator 19.2.1, SVG Export Plug-In . SVG Version: 6.00 Build 0)  -->
<svg version="1.1" id="Layer_1" xmlns="http://www.w3.org/2000/svg" xmlns:xlink="http://www.w3.org/1999/xlink" x="0px" y="0px"
	 viewBox="0 0 100 100" style="enable-background:new 0 0 100 100;" xml:space="preserve">
<style type="text/css">
	.st0{fill:#FFFFFF;}
</style>
<g id="Background">
</g>
<g>
	<path class="st0" d="M72.2,23.8c-3.1-2.7-10.7-1.2-16.2,0.5c-4.8,1.7-13.9,5.7-20.9,14.5c-11.7,14.8-11.5,35.4-6.4,39.6
		c1.2,0.9,3.3,1.5,5.5,1.5c3.3,0,7.3-0.9,10.7-2.1C49.6,76,58.6,72,65.7,63.2C77.4,48.6,77.3,27.8,72.2,23.8z M43.7,74
		c-6.9,2.4-11.5,1.9-12.4,1.2c-1.5-1.2-2.4-7.2-1.2-14.5c2.8,3.3,6.1,6.7,9.7,9.6c1.5,1.2,3.1,2.4,4.5,3.6
		C44.1,73.7,43.9,73.7,43.7,74z M62.8,60.7c-5.1,6.4-11.5,10-16,11.9c-1.9-1.2-3.9-2.7-5.5-4.3c-3.9-3.1-7.3-6.7-10.7-10.5
		c1.2-5.5,3.6-11.5,7.6-16.6c5.1-6.1,10.9-9.7,15.5-11.9c3.3,1.9,6.4,4.3,9.6,6.7c2.7,2.1,5.1,4.3,7.2,6.7
		C69.6,48.8,67.3,55.2,62.8,60.7z M71,40.4c-1.9-1.9-4-4-6.1-5.7c-2.7-2.1-5.5-4.3-8.4-6.1c0.5-0.3,0.7-0.3,0.9-0.5
		c4-1.5,7.2-1.9,9.3-1.9c1.7,0,2.7,0.3,3.1,0.5C71,28.1,72,33.5,71,40.4z"/>
</g>
<g>
	<path class="st0" d="M64.4,46.4c0,0-0.7,1.5-2.1,3.3s-3.3,4.5-5.2,6.9c-2.1,2.4-4.3,4.8-5.7,6.4c-1.7,1.7-2.7,2.8-2.7,2.8
		c-0.5,0.5-1.2,0.5-1.7,0c-0.5-0.5-0.5-1.2,0-1.7l0,0c0,0,1.2-1.2,2.7-2.8c1.7-1.7,3.9-3.9,5.7-6.1c2.1-2.4,4-4.8,5.2-6.7
		c1.2-1.9,2.1-3.3,2.1-3.3c0.3-0.5,0.9-0.7,1.5-0.5C64.6,45.2,64.6,45.9,64.4,46.4L64.4,46.4z"/>
</g>
</svg>
