<?xml version="1.0" encoding="utf-8"?>
<!-- Generator: Adobe Illustrator 18.1.0, SVG Export Plug-In . SVG Version: 6.00 Build 0)  -->
<svg version="1.1" xmlns="http://www.w3.org/2000/svg" xmlns:xlink="http://www.w3.org/1999/xlink" x="0px" y="0px"
	 viewBox="0 0 100 100" enable-background="new 0 0 100 100" xml:space="preserve">
<g id="Background">
</g>
<g id="Layer_1">
	<g>
		<path fill="#FFFFFF" d="M61.7,26.6v3.2c0-0.2,1.8-0.3,2.6-0.3c5.1,0,9.3,4.2,9.3,9.3c0,5.1-4.2,9.3-9.3,9.3c-0.9,0-2-0.1-2.9-0.4
			c-0.9,5-4.2,9-9.6,10.3v8.2h6.5c1.9,0,3.4,1.7,3.4,3.6c0,1.9-1.5,3.6-3.4,3.6H39.6c-1.9,0-3.4-1.7-3.4-3.6c0-1.9,1.5-3.6,3.4-3.6
			h5.9V58c-5.4-1.3-8-5.2-8.9-10.1c-0.6,0.1-1,0.2-1.7,0.2c-5.1,0-9.3-4.2-9.3-9.3c0-5.1,4.2-9.3,9.3-9.3c0.5,0,0.7,0.1,1.6,0.1
			v-3.1H61.7 M64.3,43.1c2.4,0,4.3-1.9,4.3-4.3c0-2.4-1.9-4.3-4.3-4.3c-0.9,0-2.6,0.3-2.6,0.8v7.1C61.7,42.8,63.4,43.1,64.3,43.1
			 M34.9,43.1c0.6,0,0.7-0.1,1.6-0.3v-8c-0.9-0.2-1-0.3-1.6-0.3c-2.4,0-4.3,1.9-4.3,4.3C30.5,41.2,32.5,43.1,34.9,43.1 M61.7,22.6
			H36.5c-1.9,0-3.5,1.3-3.9,3.1c-6.2,1.1-11,6.6-11,13.1c0,6.9,5.3,12.6,12,13.2c1.5,4.1,4.2,7.1,7.9,8.8v1.3h-1.9
			c-4,0-7.4,3.5-7.4,7.6s3.4,7.6,7.4,7.6h18.7c4,0,7.4-3.5,7.4-7.6s-3.4-7.6-7.4-7.6h-2.5v-1.3c3.9-1.7,6.9-4.8,8.5-8.8
			c7.3,0,13.3-6,13.3-13.3c0-6.9-5.3-12.6-12-13.2C65.1,23.9,63.5,22.6,61.7,22.6L61.7,22.6z"/>
		<path fill="#FFFFFF" d="M55.1,39.5l-2.2,2.2l0.5,3c0.1,0.3-0.1,0.7-0.3,0.9c-0.1,0.1-0.2,0.1-0.3,0.1c-0.1,0-0.2,0-0.3,0
			c-0.1,0-0.3,0-0.4-0.1l-2.7-1.4l-2.7,1.4c0,0-0.1,0-0.1,0.1c-0.3,0.1-0.6,0-0.8-0.1c-0.3-0.2-0.4-0.5-0.4-0.9l0.5-3l-2.2-2.1
			c-0.2-0.2-0.3-0.6-0.2-0.9c0.1-0.3,0.3-0.5,0.6-0.6c0,0,0.1,0,0.2,0l3-0.5l1.3-2.8c0.1-0.2,0.3-0.4,0.5-0.5c0.1,0,0.2,0,0.3,0
			c0.3,0,0.7,0.2,0.8,0.5l1.4,2.7l3,0.4c0.3,0,0.6,0.3,0.7,0.6C55.4,38.9,55.3,39.2,55.1,39.5z"/>
	</g>
</g>
</svg>
