<?xml version="1.0" encoding="utf-8"?>
<!-- Generator: Adobe Illustrator 18.1.0, SVG Export Plug-In . SVG Version: 6.00 Build 0)  -->
<svg version="1.1" xmlns="http://www.w3.org/2000/svg" xmlns:xlink="http://www.w3.org/1999/xlink" x="0px" y="0px"
	 viewBox="0 0 100 100" enable-background="new 0 0 100 100" xml:space="preserve">
<g id="Background">
</g>
<g id="Layer_1">
	<g>
		<path fill="#FFFFFF" d="M69.9,27c1.7,0,3.1,1.4,3.1,3.1v39.7c0,1.7-1.4,3.1-3.1,3.1H30.2c-1.7,0-3.1-1.4-3.1-3.1V30.1
			c0-1.7,1.4-3.1,3.1-3.1H69.9 M69.9,23H30.2c-3.9,0-7.1,3.2-7.1,7.1v39.7c0,3.9,3.2,7.1,7.1,7.1h39.7c3.9,0,7.1-3.2,7.1-7.1V30.1
			C77,26.2,73.8,23,69.9,23L69.9,23z"/>
		<path fill="#FFFFFF" d="M36,36v5.3c0,1,1,1.8,2,1.8s2-0.8,2-1.8V39h8v20h-3c-1,0-1.8,1-1.8,2s0.8,2,1.8,2h10.2c1,0,1.8-1,1.8-2
			s-0.8-2-1.8-2H52V39h8v2.3c0,1,0.5,1.8,1.5,1.8s1.5-0.8,1.5-1.8V36H36z"/>
	</g>
</g>
</svg>
