<?xml version="1.0" encoding="utf-8"?>
<!-- Generator: Adobe Illustrator 18.1.0, SVG Export Plug-In . SVG Version: 6.00 Build 0)  -->
<svg version="1.1" xmlns="http://www.w3.org/2000/svg" xmlns:xlink="http://www.w3.org/1999/xlink" x="0px" y="0px"
	 viewBox="0 0 100 100" enable-background="new 0 0 100 100" xml:space="preserve">
<g id="Background">
</g>
<g id="Layer_1">
	<g>
		<path fill="#FFFFFF" d="M31.2,49.5c1.6-1.5,3.8-2.5,6.2-2.5c1.1,0,2.1,0.2,3.1,0.6c0.8-2.6,2.4-4.8,4.7-6.3
			c-0.4-4.6-4.2-8.3-9-8.3c-5,0-9,4-9,9C27.2,45.1,28.8,47.9,31.2,49.5z"/>
		<path fill="#FFFFFF" d="M53.7,41.8c6.9,0,12.4,5.6,12.4,12.4c0,0.4,0,0.7,0,1.1c1-0.5,2.1-0.7,3.3-0.7c4.3,0,7.9,3.5,7.9,7.8
			c0,4-2.3,7.3-6.9,7.8l-32.1-0.2c-5.5,0-10-4.4-10-9.9c0-5.5,4.5-9.9,10-9.9c1.2,0,2.4,0.2,3.5,0.6C43.2,45.5,48,41.8,53.7,41.8
			 M53.7,37.8c-6,0-11.5,3.3-14.3,8.4c-0.4,0-0.7,0-1.1,0c-7.7,0-14,6.2-14,13.9s6.3,13.9,14,13.9l32,0.2l0.2,0l0.2,0
			c6.3-0.6,10.5-5.3,10.5-11.8c0-6.4-5.1-11.7-11.5-11.8C68,43.2,61.5,37.8,53.7,37.8L53.7,37.8z"/>
		<g>
			<circle fill="#FFFFFF" cx="39.9" cy="27.3" r="2.2"/>
			<circle fill="#FFFFFF" cx="21.4" cy="36.8" r="2.2"/>
			<circle fill="#FFFFFF" cx="22.4" cy="48" r="2.2"/>
			<circle fill="#FFFFFF" cx="48.4" cy="34.6" r="2.2"/>
			<circle fill="#FFFFFF" cx="28.7" cy="28.3" r="2.2"/>
		</g>
	</g>
</g>
</svg>
