<?xml version="1.0" encoding="utf-8"?>
<!-- Generator: Adobe Illustrator 18.1.0, SVG Export Plug-In . SVG Version: 6.00 Build 0)  -->
<svg version="1.1" xmlns="http://www.w3.org/2000/svg" xmlns:xlink="http://www.w3.org/1999/xlink" x="0px" y="0px"
	 viewBox="0 0 100 100" enable-background="new 0 0 100 100" xml:space="preserve">
<g id="Background">
</g>
<g id="Layer_1">
	<g>
		<path fill="#FFFFFF" d="M49.4,36.9c5.1,0,9.2,4.1,9.2,9.2s-4.1,9.2-9.2,9.2s-9.2-4.1-9.2-9.2S44.3,36.9,49.4,36.9 M49.4,33.9
			c-6.7,0-12.2,5.5-12.2,12.2s5.5,12.2,12.2,12.2s12.2-5.5,12.2-12.2S56.1,33.9,49.4,33.9L49.4,33.9z"/>
		<path fill="#FFFFFF" d="M49.4,26.2c5.3,0,10.3,2.1,14.1,5.8c3.8,3.8,5.8,8.8,5.8,14.1s-1.9,10.3-5.7,14.1
			c-1.4,1.4-2.8,2.5-4.5,3.5c2.8,2.6,4.9,6.3,4.9,10.3V75h-9v-0.4c0-2.7-2.8-4.8-5.5-4.8S44,72,44,74.6V75h-9v-1.1
			c0-4.1,1.9-7.8,4.7-10.3c-1.7-0.9-3.1-2.1-4.5-3.5c-3.8-3.8-5.8-8.8-5.8-14.1s2.1-10.3,5.8-14.1C39.1,28.2,44.1,26.2,49.4,26.2
			 M49.4,22.2c-6.4,0-12.4,2.5-16.9,7s-7,10.5-7,16.9s2.5,12.4,7,16.9c0.5,0.5,1,0.9,1.4,1.4C32,67.2,31,70.6,31,73.9V75
			c0,2.2,1.8,4,4,4h9c2.2,0,4-1.8,4-4v-0.3c0.1-0.3,0.9-0.9,1.5-0.9s1.4,0.6,1.5,0.9V75c0,2.2,1.8,4,4,4h9c2.2,0,4-1.8,4-4v-1.1
			c0-3.4-1.1-6.7-3-9.6c0.5-0.4,1-0.9,1.4-1.4c4.4-4.4,6.9-10.4,6.9-16.9c0-6.4-2.5-12.4-7-16.9C61.8,24.6,55.8,22.2,49.4,22.2
			L49.4,22.2z"/>
		<circle fill="#FFFFFF" cx="51.6" cy="42.9" r="3.7"/>
	</g>
</g>
</svg>
