<?xml version="1.0" encoding="utf-8"?>
<!-- Generator: Adobe Illustrator 18.1.0, SVG Export Plug-In . SVG Version: 6.00 Build 0)  -->
<svg version="1.1" xmlns="http://www.w3.org/2000/svg" xmlns:xlink="http://www.w3.org/1999/xlink" x="0px" y="0px"
	 viewBox="0 0 100 100" enable-background="new 0 0 100 100" xml:space="preserve">
<g id="Background">
</g>
<g id="Layer_1">
	<g>
		<path fill="#FFFFFF" d="M50.1,82.4c-2.1,0-4.1-0.8-5.6-2.3L30.8,66.4c-1.5-1.5-2.3-3.5-2.3-5.6s0.8-4.1,2.3-5.6l13.7-13.7
			c1.5-1.5,3.5-2.3,5.6-2.3s4.1,0.8,5.6,2.3l13.7,13.7c1.5,1.5,2.3,3.5,2.3,5.6s-0.8,4.1-2.3,5.6L55.6,80
			C54.1,81.5,52.2,82.4,50.1,82.4z M50.1,43.2c-1,0-2,0.4-2.8,1.1L33.6,58c-0.7,0.7-1.1,1.7-1.1,2.8s0.4,2,1.1,2.8l13.7,13.7
			c1.5,1.5,4,1.5,5.5,0l13.7-13.7c0.7-0.7,1.1-1.7,1.1-2.8s-0.4-2-1.1-2.8L52.8,44.3C52.1,43.6,51.1,43.2,50.1,43.2z"/>
		<path fill="#FFFFFF" d="M52.8,65.6c-0.7,0-1.4-0.4-1.8-1.1c-0.5-1-0.1-2.2,0.8-2.7c0.2-0.1,0.4-0.2,0.5-0.3
			c0.9-0.7,2.1-0.5,2.8,0.4c0.7,0.9,0.5,2.1-0.4,2.8c-0.3,0.3-0.7,0.5-1.1,0.7C53.4,65.5,53.1,65.6,52.8,65.6z M47.2,65.5
			c-0.3,0-0.7-0.1-1-0.3c-0.4-0.2-0.7-0.5-1.1-0.7c-0.9-0.7-1-2-0.3-2.8c0.7-0.9,2-1,2.8-0.3c0.2,0.1,0.3,0.3,0.5,0.4
			c1,0.5,1.3,1.8,0.8,2.7C48.5,65.1,47.9,65.5,47.2,65.5z M57.8,60.9c-0.5,0-1-0.2-1.4-0.6c-0.8-0.8-0.8-2,0-2.8l0.7-0.7
			c0.8-0.8,2-0.8,2.8,0c0.8,0.8,0.8,2,0,2.8l-0.7,0.7C58.9,60.7,58.3,60.9,57.8,60.9z M42.2,60.8c-0.5,0-1-0.2-1.4-0.6l-0.7-0.7
			c-0.8-0.8-0.8-2,0-2.8c0.8-0.8,2-0.8,2.8,0l0.7,0.7c0.8,0.8,0.8,2,0,2.8C43.2,60.6,42.7,60.8,42.2,60.8z M62.7,56
			c-0.5,0-1-0.2-1.4-0.6c-0.8-0.8-0.8-2,0-2.8l0.7-0.7c0.8-0.8,2-0.8,2.8,0c0.8,0.8,0.8,2,0,2.8l-0.7,0.7C63.7,55.8,63.2,56,62.7,56
			z M37.3,55.9c-0.5,0-1-0.2-1.4-0.6l-0.7-0.7c-0.8-0.8-0.8-2,0-2.8c0.8-0.8,2-0.8,2.8,0l0.7,0.7c0.8,0.8,0.8,2,0,2.8
			C38.3,55.7,37.8,55.9,37.3,55.9z M67.5,51.2c-0.5,0-1-0.2-1.4-0.6c-0.8-0.8-0.8-2,0-2.8l0.7-0.7c0.8-0.8,2-0.8,2.8,0
			c0.8,0.8,0.8,2,0,2.8L69,50.6C68.6,51,68.1,51.2,67.5,51.2z M32.5,51.1c-0.5,0-1-0.2-1.4-0.6l-0.7-0.7c-0.8-0.8-0.8-2,0-2.8
			c0.8-0.8,2-0.8,2.8,0l0.7,0.7c0.8,0.8,0.8,2,0,2.8C33.5,50.9,33,51.1,32.5,51.1z M72,46.1c-0.3,0-0.5,0-0.8-0.2
			c-1-0.4-1.5-1.6-1.1-2.6c0.1-0.2,0.1-0.4,0.2-0.6c0.2-1.1,1.3-1.8,2.4-1.5c1.1,0.2,1.8,1.3,1.5,2.4c-0.1,0.4-0.2,0.8-0.4,1.3
			C73.6,45.6,72.8,46.1,72,46.1z M28,45.9c-0.8,0-1.6-0.5-1.9-1.3c-0.2-0.4-0.3-0.8-0.4-1.3c-0.2-1.1,0.5-2.1,1.6-2.4
			c1.1-0.2,2.1,0.5,2.4,1.6c0,0.2,0.1,0.4,0.2,0.6c0.4,1-0.1,2.2-1.2,2.6C28.5,45.9,28.3,45.9,28,45.9z M70.8,39.7
			c-0.5,0-1-0.2-1.4-0.6l-0.7-0.7c-0.8-0.8-0.8-2,0-2.8c0.8-0.8,2-0.8,2.8,0l0.7,0.7c0.8,0.8,0.8,2.1,0,2.9
			C71.8,39.5,71.3,39.7,70.8,39.7z M29.4,39.6c-0.5,0-1-0.2-1.4-0.6c-0.8-0.8-0.8-2,0-2.8l0.7-0.7c0.8-0.8,2-0.8,2.8,0
			c0.8,0.8,0.8,2,0,2.8L30.8,39C30.5,39.4,29.9,39.6,29.4,39.6z M65.9,34.8c-0.5,0-1-0.2-1.4-0.6l-0.7-0.7c-0.8-0.8-0.8-2,0-2.8
			c0.8-0.8,2-0.8,2.8,0l0.7,0.7c0.8,0.8,0.8,2,0,2.8C66.9,34.6,66.4,34.8,65.9,34.8z M34.3,34.7c-0.5,0-1-0.2-1.4-0.6
			c-0.8-0.8-0.8-2,0-2.8l0.7-0.7c0.8-0.8,2-0.8,2.8,0c0.8,0.8,0.8,2,0,2.8l-0.7,0.7C35.3,34.5,34.8,34.7,34.3,34.7z M61,29.9
			c-0.5,0-1-0.2-1.4-0.6l-0.7-0.7c-0.8-0.8-0.8-2,0-2.8c0.8-0.8,2-0.8,2.8,0l0.7,0.7c0.8,0.8,0.8,2,0,2.8
			C62.1,29.7,61.6,29.9,61,29.9z M39.1,29.9c-0.5,0-1-0.2-1.4-0.6c-0.8-0.8-0.8-2,0-2.8l0.7-0.7c0.8-0.8,2-0.8,2.8,0
			c0.8,0.8,0.8,2,0,2.8l-0.7,0.7C40.2,29.7,39.7,29.9,39.1,29.9z M56.2,25.1c-0.5,0-1-0.2-1.4-0.6l-0.7-0.7c-0.8-0.8-0.8-2,0-2.8
			c0.8-0.8,2-0.8,2.8,0l0.7,0.7c0.8,0.8,0.8,2,0,2.8C57.2,24.9,56.7,25.1,56.2,25.1z M44,25c-0.5,0-1-0.2-1.4-0.6
			c-0.8-0.8-0.8-2,0-2.8l0.7-0.7c0.8-0.8,2-0.8,2.8,0c0.8,0.8,0.8,2,0,2.8l-0.7,0.7C45,24.8,44.5,25,44,25z M50.6,21.4
			c-0.1,0-0.1,0-0.2,0c-0.2,0-0.4,0-0.6,0c-1.1,0.1-2.1-0.7-2.1-1.8s0.7-2.1,1.8-2.1c0.4,0,0.9,0,1.3,0c1.1,0.1,1.9,1.1,1.8,2.2
			C52.5,20.6,51.6,21.4,50.6,21.4z"/>
	</g>
</g>
</svg>
