<svg id="Layer_1" data-name="Layer 1" xmlns="http://www.w3.org/2000/svg" viewBox="0 0 420.4 164.32"><defs><style>.cls-1{fill:#414042;}</style></defs><title>Logo_b5507d05-59f5-436e-8ef5-aa0bcc78ccbc</title><path class="cls-1" d="M358.62,54.56a20.11,20.11,0,0,0-5.92-3.95,18.08,18.08,0,0,0-7.33-1.48,18.3,18.3,0,0,0-7.24,1.4,19.45,19.45,0,0,0-5.76,3.7,17.19,17.19,0,0,0-4,5.59,16.68,16.68,0,0,0-1.49,6.91V93.06a16.67,16.67,0,0,0,1.24,7.16,17.23,17.23,0,0,0,3.94,5.84,20,20,0,0,0,5.93,3.95,18.8,18.8,0,0,0,7.65,1.48,17.47,17.47,0,0,0,6.91-1.4,19.48,19.48,0,0,0,5.76-3.7,17.16,17.16,0,0,0,3.94-5.59,16.66,16.66,0,0,0,1.48-6.91L364,67.56a18.52,18.52,0,0,0-1.4-7.16A17.3,17.3,0,0,0,358.62,54.56Z"/><path class="cls-1" d="M407.3,0H13.1A13.14,13.14,0,0,0,0,13.1V151.22a13.13,13.13,0,0,0,13.1,13.1H407.3a13.13,13.13,0,0,0,13.1-13.1V13.1A13.14,13.14,0,0,0,407.3,0ZM17.61,153.77a7.14,7.14,0,1,1,7.14-7.14A7.14,7.14,0,0,1,17.61,153.77Zm0-128.94a7.14,7.14,0,1,1,7.14-7.13A7.13,7.13,0,0,1,17.61,24.83Zm94.6,89.3a10.69,10.69,0,0,1,3.29,7.82,11.23,11.23,0,0,1-3.29,8A11,11,0,0,1,104.4,133a11.54,11.54,0,0,1-8-3.12L58.08,96v25.83a10.65,10.65,0,0,1-3.21,7.82,11.42,11.42,0,0,1-15.88,0,10.5,10.5,0,0,1-3.29-7.82V38.93A10.58,10.58,0,0,1,39,31.19a11.22,11.22,0,0,1,15.88,0,10.73,10.73,0,0,1,3.21,7.73V64.76L96.42,31.19a11.24,11.24,0,0,1,8-3.29A11.23,11.23,0,0,1,115.51,39a10.69,10.69,0,0,1-3.29,7.82L73.72,80.39Zm93.62,7.57a10.27,10.27,0,0,1-3,7.41,10.61,10.61,0,0,1-7.48,3.29,11,11,0,0,1-7.65-2.88,9.4,9.4,0,0,1-3.21-7.32V102.93H147.76v18.76a10.13,10.13,0,0,1-3.29,7.48,10.52,10.52,0,0,1-7.57,3.21,11,11,0,0,1-7.57-3,9.36,9.36,0,0,1-3.29-7.24V67.56a41.69,41.69,0,0,1,3.21-15.47,39.86,39.86,0,0,1,8.39-12.67A39.24,39.24,0,0,1,166,27.74a40.61,40.61,0,0,1,15.14,2.88,39,39,0,0,1,12.67,8.07,40.14,40.14,0,0,1,8.72,12.26,35.78,35.78,0,0,1,3.29,15.3v55.45Zm90,0.49a10.25,10.25,0,0,1-3,7.41,10.63,10.63,0,0,1-7.48,3.29,11.07,11.07,0,0,1-7.65-2.88,9.41,9.41,0,0,1-3.21-7.32V68.05a18.56,18.56,0,0,0-1.4-7.16,17.21,17.21,0,0,0-4-5.84,19.91,19.91,0,0,0-5.92-3.95,18,18,0,0,0-7.32-1.48A17.48,17.48,0,0,0,249,51a19.65,19.65,0,0,0-5.76,3.7,17.32,17.32,0,0,0-4,5.6,16.64,16.64,0,0,0-1.48,6.91v55a10.13,10.13,0,0,1-3.29,7.49,10.53,10.53,0,0,1-7.56,3.21,11,11,0,0,1-7.57-3,9.36,9.36,0,0,1-3.29-7.24V68.05a41.65,41.65,0,0,1,3.21-15.47,39.8,39.8,0,0,1,8.39-12.67A39.22,39.22,0,0,1,256,28.23a40.63,40.63,0,0,1,15.13,2.88,39.07,39.07,0,0,1,12.67,8.06,40.29,40.29,0,0,1,8.72,12.26,35.83,35.83,0,0,1,3.29,15.3v55.45Zm89.51-29.12a39.42,39.42,0,0,1-3,15.47,39.38,39.38,0,0,1-21,21.23,39.47,39.47,0,0,1-15.8,3.13A41.44,41.44,0,0,1,330.07,130a39,39,0,0,1-12.67-8.06,40.17,40.17,0,0,1-8.72-12.26,35.82,35.82,0,0,1-3.29-15.3V67.56a39.56,39.56,0,0,1,24-36.7,42.21,42.21,0,0,1,31.26-.25,39,39,0,0,1,12.67,8.07,40.23,40.23,0,0,1,8.73,12.26,35.88,35.88,0,0,1,3.29,15.3V93.06Zm17.42,60.7a7.14,7.14,0,1,1,7.14-7.14A7.14,7.14,0,0,1,402.78,153.77Zm0-128.94a7.14,7.14,0,1,1,7.14-7.13A7.14,7.14,0,0,1,402.78,24.83Z"/><path class="cls-1" d="M179.1,54.56a20,20,0,0,0-5.92-3.95,18.07,18.07,0,0,0-7.33-1.48,17.46,17.46,0,0,0-6.91,1.4,19.41,19.41,0,0,0-5.75,3.7,17.1,17.1,0,0,0-4,5.59,16.67,16.67,0,0,0-1.48,6.91V81.54h36.69v-14a18.56,18.56,0,0,0-1.4-7.16A17.17,17.17,0,0,0,179.1,54.56Z"/></svg>