<?xml version="1.0" encoding="utf-8"?>
<!-- Generator: Adobe Illustrator 18.1.0, SVG Export Plug-In . SVG Version: 6.00 Build 0)  -->
<svg version="1.1" xmlns="http://www.w3.org/2000/svg" xmlns:xlink="http://www.w3.org/1999/xlink" x="0px" y="0px"
	 viewBox="0 0 44 44" enable-background="new 0 0 44 44" xml:space="preserve">
<symbol  id="New_Symbol_2" viewBox="-243.4 -162.7 486.7 325.3">
	<g>
		<g opacity="0.15">
			<polygon points="-179.9,129.3 -179.9,36.3 -80.9,36.3 -80.9,98.3 87.1,98.3 87.1,36.3 180.1,36.3 180.1,129.3 			"/>
			<polygon points="87.1,-0.7 87.1,-32.7 50.1,-32.7 50.1,-69.7 -48.9,-69.7 -48.9,-32.7 -80.9,-32.7 -80.9,-0.7 -179.9,-0.7 
				-179.9,-131.7 180.1,-131.7 180.1,-0.7 			"/>
			<polygon points="180.1,129.3 180.1,36.3 87.1,36.3 87.1,98.3 -80.9,98.3 -80.9,36.3 -148.9,36.3 -148.9,-0.7 -80.9,-0.7 
				-80.9,-32.7 -48.9,-32.7 -48.9,67.3 50.1,67.3 50.1,-32.7 87.1,-32.7 87.1,-0.7 180.1,-0.7 180.1,-131.7 -179.9,-131.7 
				-179.9,-32.7 -210.9,-32.7 -210.9,-162.7 211.1,-162.7 211.1,129.3 			"/>
			<polygon points="-179.9,36.3 -179.9,129.3 -210.9,129.3 -210.9,-32.7 -179.9,-32.7 -179.9,-0.7 -148.9,-0.7 -148.9,36.3 			"/>
			<polygon points="-48.9,67.3 -48.9,-69.7 50.1,-69.7 50.1,67.3 			"/>
		</g>
		<g>
			<g>
				<g>
					<polygon fill="#A36A42" points="-179.9,131.3 -179.9,38.3 -80.9,38.3 -80.9,100.3 87.1,100.3 87.1,38.3 180.1,38.3 
						180.1,131.3 					"/>
					<polygon fill="#A36A42" points="87.1,1.3 87.1,-30.7 50.1,-30.7 50.1,-67.7 -48.9,-67.7 -48.9,-30.7 -80.9,-30.7 -80.9,1.3 
						-179.9,1.3 -179.9,-129.7 180.1,-129.7 180.1,1.3 					"/>
				</g>
				<g>
					<polygon fill="#FFD700" points="180.1,131.3 180.1,38.3 87.1,38.3 87.1,100.3 -80.9,100.3 -80.9,38.3 -148.9,38.3 -148.9,1.3 
						-80.9,1.3 -80.9,-30.7 -48.9,-30.7 -48.9,69.3 50.1,69.3 50.1,-30.7 87.1,-30.7 87.1,1.3 180.1,1.3 180.1,-129.7 
						-179.9,-129.7 -179.9,-30.7 -210.9,-30.7 -210.9,-160.7 211.1,-160.7 211.1,131.3 					"/>
					<polygon fill="#FEFBE1" points="-179.9,38.3 -179.9,131.3 -210.9,131.3 -210.9,-30.7 -179.9,-30.7 -179.9,1.3 -148.9,1.3 
						-148.9,38.3 					"/>
				</g>
				<polygon fill="#5E4323" points="-48.9,69.3 -48.9,-67.7 50.1,-67.7 50.1,69.3 				"/>
			</g>
		</g>
	</g>
	<polygon fill="#FFD700" points="50.1,162.7 -48.9,162.7 -48.9,131.7 50.1,131.7 	"/>
	<polygon fill="#FFD700" points="17.4,36.6 -15.1,36.6 -15.1,-30.7 17.4,-30.7 	"/>
	<polygon fill="#FFD700" points="-48.9,-96.7 -81.4,-96.7 -81.4,-129.3 -48.9,-129.3 	"/>
	<polygon fill="#FFD700" points="87.8,-96.7 55.3,-96.7 55.3,-129.3 87.8,-129.3 	"/>
	<polygon fill="#FFD700" points="243.4,36.6 210.9,36.6 210.9,4.1 243.4,4.1 	"/>
	<polygon fill="#FEFBE1" points="-210.9,36.6 -243.4,36.6 -243.4,4.1 -210.9,4.1 	"/>
</symbol>
<g id="Layer_1">
	<path fill="#1972A4" d="M41,0H3C1.3,0,0,1.3,0,3v38c0,1.7,1.3,3,3,3h38c1.7,0,3-1.3,3-3V3C44,1.3,42.7,0,41,0z"/>
	<g>
		<g opacity="0.15">
			<polygon points="11.2,16.3 11.2,21.9 17.2,21.9 17.2,18.2 27.3,18.2 27.3,21.9 32.9,21.9 32.9,16.3 			"/>
			<polygon points="27.3,24.1 27.3,26.1 25.1,26.1 25.1,28.3 19.1,28.3 19.1,26.1 17.2,26.1 17.2,24.1 11.2,24.1 11.2,32 32.9,32 
				32.9,24.1 			"/>
			<polygon points="32.9,16.3 32.9,21.9 27.3,21.9 27.3,18.2 17.2,18.2 17.2,21.9 13.1,21.9 13.1,24.1 17.2,24.1 17.2,26.1 
				19.1,26.1 19.1,20 25.1,20 25.1,26.1 27.3,26.1 27.3,24.1 32.9,24.1 32.9,32 11.2,32 11.2,26.1 9.3,26.1 9.3,33.9 34.7,33.9 
				34.7,16.3 			"/>
			<polygon points="11.2,21.9 11.2,16.3 9.3,16.3 9.3,26.1 11.2,26.1 11.2,24.1 13.1,24.1 13.1,21.9 			"/>
			<rect x="19.1" y="20" width="6" height="8.2"/>
			<polygon points="11.2,16.2 11.2,21.8 17.2,21.8 17.2,18 27.3,18 27.3,21.8 32.9,21.8 32.9,16.2 			"/>
			<polygon points="27.3,24 27.3,25.9 25.1,25.9 25.1,28.2 19.1,28.2 19.1,25.9 17.2,25.9 17.2,24 11.2,24 11.2,31.9 32.9,31.9 
				32.9,24 			"/>
			<polygon points="32.9,16.2 32.9,21.8 27.3,21.8 27.3,18 17.2,18 17.2,21.8 13.1,21.8 13.1,24 17.2,24 17.2,25.9 19.1,25.9 
				19.1,19.9 25.1,19.9 25.1,25.9 27.3,25.9 27.3,24 32.9,24 32.9,31.9 11.2,31.9 11.2,25.9 9.3,25.9 9.3,33.8 34.7,33.8 34.7,16.2 
							"/>
			<polygon points="11.2,21.8 11.2,16.2 9.3,16.2 9.3,25.9 11.2,25.9 11.2,24 13.1,24 13.1,21.8 			"/>
			<rect x="19.1" y="19.9" width="6" height="8.2"/>
			<rect x="19.1" y="14.3" width="6" height="1.9"/>
			<rect x="21.1" y="21.9" width="2" height="4"/>
			<rect x="17.1" y="29.9" width="2" height="2"/>
			<rect x="25.4" y="29.9" width="2" height="2"/>
			<rect x="34.7" y="21.9" width="2" height="2"/>
			<rect x="7.4" y="21.9" width="2" height="2"/>
		</g>
		<g>
			
				<use xlink:href="#New_Symbol_2"  width="486.7" height="325.3" x="-243.4" y="-162.7" transform="matrix(6.020639e-02 0 0 -6.020639e-02 22.0353 22.0834)" overflow="visible"/>
		</g>
	</g>
</g>
<g id="Layer_2">
</g>
</svg>
