<?xml version="1.0" encoding="utf-8"?>
<!-- Generator: Adobe Illustrator 18.1.0, SVG Export Plug-In . SVG Version: 6.00 Build 0)  -->
<svg version="1.1" xmlns="http://www.w3.org/2000/svg" xmlns:xlink="http://www.w3.org/1999/xlink" x="0px" y="0px"
	 viewBox="0 0 44 44" enable-background="new 0 0 44 44" xml:space="preserve">
<symbol  id="New_Symbol_1" viewBox="-166.1 -135.7 332.2 271.5">
	<path fill="#B985B9" d="M-0.3-73.7v-44.4c0-9.6-7.7-17.3-17.3-17.3h-131.1c-9.6,0-17.3,7.8-17.3,17.3v44.4
		c0,9.6,7.8,17.3,17.3,17.3h131.1C-8-56.4-0.3-64.1-0.3-73.7L-0.3-73.7z"/>
	<path fill="#F18B19" d="M-0.3,38v-77c0-9.6-7.7-17.3-17.3-17.3h-131.1c-9.6,0-17.3,7.8-17.3,17.3v157.4c0,13.6,14.9,21.9,26.4,14.8
		L-8.6,52.8C-3.4,49.6-0.3,44-0.3,38L-0.3,38z"/>
	<path fill="#5DB13D" d="M165.5,118.4v-236.5c0-9.6-7.8-17.3-17.3-17.3H17.1c-9.6,0-17.4,7.8-17.4,17.3V38c0,6,3.2,11.6,8.3,14.8
		l131.1,80.4C150.6,140.2,165.5,131.9,165.5,118.4L165.5,118.4z"/>
	<g>
		<path fill="#E85221" d="M-165.9-36.7V-39c0-9.6,7.6-17.7,17.2-17.7h131.1C-8-56.7,0.1-48.6,0.1-39v2.3H-165.9z"/>
		<path fill="#954B94" d="M-165.9-115.7v-2.3c0-9.6,7.6-17.7,17.2-17.7h131.1c9.6,0,17.7,8.2,17.7,17.7v2.3H-165.9z"/>
		<path fill="#328926" d="M0.1-115.7v-2.3c0-9.6,7.6-17.7,17.2-17.7h131.1c9.6,0,17.7,8.2,17.7,17.7v2.3H0.1z"/>
	</g>
</symbol>
<g id="Layer_1">
	<path fill="#F2F2F2" d="M41,0H3C1.3,0,0,1.3,0,3v38c0,1.7,1.3,3,3,3h38c1.7,0,3-1.3,3-3V3C44,1.3,42.7,0,41,0z"/>
	
		<use xlink:href="#New_Symbol_1"  width="332.2" height="271.5" x="-166.1" y="-135.7" transform="matrix(7.823659e-02 0 0 -7.823659e-02 21.892 22.0597)" overflow="visible"/>
</g>
<g id="Layer_2">
</g>
</svg>
