<?xml version="1.0" encoding="utf-8"?>
<!-- Generator: Adobe Illustrator 18.1.0, SVG Export Plug-In . SVG Version: 6.00 Build 0)  -->
<svg version="1.1" xmlns="http://www.w3.org/2000/svg" xmlns:xlink="http://www.w3.org/1999/xlink" x="0px" y="0px"
	 viewBox="0 0 44 44" enable-background="new 0 0 44 44" xml:space="preserve">
<g id="Layer_1">
	<path fill="#8DC6FF" d="M41,0H3C1.3,0,0,1.3,0,3v38c0,1.7,1.3,3,3,3h38c1.7,0,3-1.3,3-3V3C44,1.3,42.7,0,41,0z"/>
	<g>
		<polygon fill="#262626" points="32.4,18.1 32.4,14.9 30.7,14.9 30.7,13.3 29.1,13.3 29.1,11.6 14.1,11.6 14.1,13.3 12.5,13.3 
			12.5,14.9 10.9,14.9 10.9,18.1 9.2,18.1 9.2,26.7 10.9,26.7 10.9,28.3 12.5,28.3 12.5,31.5 14.1,31.5 14.1,33.1 15.7,33.1 
			15.7,34.8 27.5,34.8 27.5,33.1 29.1,33.1 29.1,31.5 30.7,31.5 30.7,29.9 32.4,29.9 32.4,26.7 34,26.7 34,18.1 		"/>
		<polygon fill="#383838" points="32.4,17.1 32.4,13.9 30.7,13.9 30.7,12.2 29.1,12.2 29.1,10.6 14.1,10.6 14.1,12.2 12.5,12.2 
			12.5,13.9 10.9,13.9 10.9,17.1 9.2,17.1 9.2,25.6 10.9,25.6 10.9,27.2 12.5,27.2 12.5,30.5 14.1,30.5 14.1,32.1 15.7,32.1 
			15.7,33.7 27.5,33.7 27.5,32.1 29.1,32.1 29.1,30.5 30.7,30.5 30.7,28.9 32.4,28.9 32.4,25.6 34,25.6 34,17.1 		"/>
		<g>
			<polygon fill="#555957" points="31.3,18.1 31.3,16.5 31.3,14.9 29.7,14.9 29.7,13.3 28.1,13.3 28.1,11.6 26.5,11.6 24.9,11.6 
				23.2,11.6 21.6,11.6 20,11.6 18.4,11.6 16.8,11.6 15.1,11.6 15.1,13.3 13.5,13.3 13.5,14.9 11.9,14.9 11.9,16.5 11.9,18.1 
				10.3,18.1 10.3,19.7 10.3,21.4 10.3,23 10.3,24.6 11.9,24.6 11.9,26.2 13.5,26.2 13.5,24.6 13.5,23 15.1,23 16.8,23 16.8,24.6 
				18.4,24.6 20,24.6 21.6,24.6 23.2,24.6 24.9,24.6 26.5,24.6 26.5,26.2 28.1,26.2 29.7,26.2 29.7,27.8 31.3,27.8 31.3,26.2 
				31.3,24.6 33,24.6 33,23 33,21.4 33,19.7 33,18.1 			"/>
			<polygon fill="#E39C65" points="28.1,26.2 26.5,26.2 26.5,24.6 24.9,24.6 23.2,24.6 21.6,24.6 20,24.6 18.4,24.6 16.8,24.6 
				16.8,23 15.1,23 13.5,23 13.5,24.6 13.5,26.2 13.5,27.8 13.5,29.5 15.1,29.5 15.1,29.5 15.1,29.6 15.1,31.1 16.8,31.1 16.8,31.2 
				16.8,32.7 18.4,32.7 20,32.7 21.6,32.7 23.2,32.7 24.9,32.7 26.5,32.7 26.5,31.2 26.5,31.1 28.1,31.1 28.1,29.6 28.1,29.5 
				28.1,29.5 29.7,29.5 29.7,27.8 29.7,26.2 			"/>
			<g>
				<polygon fill="#88644C" points="21.6,29.5 20,29.5 18.4,29.5 18.4,31.1 20,31.1 21.6,31.1 23.2,31.1 24.9,31.1 24.9,29.5 
					23.2,29.5 				"/>
				<rect x="16.8" y="26.2" fill="#88644C" width="1.6" height="1.6"/>
				<rect x="24.9" y="26.2" fill="#88644C" width="1.6" height="1.6"/>
			</g>
			<g>
				<rect x="15.1" y="27.8" fill="#F6B889" width="1.6" height="1.6"/>
				<rect x="26.5" y="27.8" fill="#F6B889" width="1.6" height="1.6"/>
			</g>
			<g>
				<polygon fill="#F4A96D" points="24.9,29.5 24.9,31.1 23.2,31.1 21.6,31.1 20,31.1 18.4,31.1 18.4,29.5 16.8,29.5 15.1,29.5 
					15.1,31.1 16.8,31.1 16.8,32.7 18.4,32.7 20,32.7 21.6,32.7 23.2,32.7 24.9,32.7 26.5,32.7 26.5,31.1 28.1,31.1 28.1,29.5 
					26.5,29.5 				"/>
				<polygon fill="#F4A96D" points="18.4,29.5 20,29.5 21.6,29.5 23.2,29.5 24.9,29.5 26.5,29.5 26.5,27.8 24.9,27.8 24.9,26.2 
					23.2,26.2 21.6,26.2 20,26.2 18.4,26.2 18.4,27.8 16.8,27.8 16.8,29.5 				"/>
				<polygon fill="#F4A96D" points="15.1,27.8 16.8,27.8 16.8,26.2 16.8,24.6 15.1,24.6 13.5,24.6 13.5,26.2 13.5,27.8 13.5,29.5 
					15.1,29.5 				"/>
				<rect x="28.1" y="27.8" fill="#F4A96D" width="1.6" height="1.6"/>
			</g>
			<g>
				<polygon fill="#E39C65" points="28.1,26.2 26.5,26.2 26.5,27.8 28.1,27.8 29.7,27.8 29.7,26.2 				"/>
				<polygon fill="#E39C65" points="24.9,24.6 23.2,24.6 21.6,24.6 20,24.6 18.4,24.6 16.8,24.6 16.8,26.2 18.4,26.2 20,26.2 
					21.6,26.2 23.2,26.2 24.9,26.2 26.5,26.2 26.5,24.6 				"/>
				<polygon fill="#E39C65" points="15.1,23 13.5,23 13.5,24.6 15.1,24.6 16.8,24.6 16.8,23 				"/>
			</g>
			<polygon fill="#625F58" points="18.4,23 18.4,21.4 16.8,21.4 15.1,21.4 15.1,23 16.8,23 16.8,24.6 18.4,24.6 20,24.6 20,23 			
				"/>
			<g>
				<rect x="13.5" y="21.4" fill="#434844" width="1.6" height="1.6"/>
				<rect x="11.9" y="19.7" fill="#434844" width="1.6" height="1.6"/>
				<rect x="10.3" y="18.1" fill="#434844" width="1.6" height="1.6"/>
			</g>
			<g>
				<polygon fill="#555957" points="11.9,19.7 10.3,19.7 10.3,21.4 10.3,23 10.3,24.6 11.9,24.6 11.9,26.2 13.5,26.2 13.5,24.6 
					13.5,23 13.5,21.4 11.9,21.4 				"/>
				<polygon fill="#555957" points="31.3,18.1 31.3,16.5 31.3,14.9 29.7,14.9 29.7,13.3 28.1,13.3 28.1,11.6 26.5,11.6 24.9,11.6 
					23.2,11.6 21.6,11.6 20,11.6 18.4,11.6 16.8,11.6 15.1,11.6 15.1,13.3 13.5,13.3 13.5,14.9 11.9,14.9 11.9,16.5 11.9,18.1 
					11.9,19.7 13.5,19.7 13.5,21.4 15.1,21.4 16.8,21.4 18.4,21.4 18.4,23 20,23 20,24.6 21.6,24.6 23.2,24.6 24.9,24.6 26.5,24.6 
					26.5,26.2 28.1,26.2 29.7,26.2 29.7,27.8 31.3,27.8 31.3,26.2 31.3,24.6 33,24.6 33,23 33,21.4 33,19.7 33,18.1 				"/>
			</g>
		</g>
	</g>
</g>
<g id="Layer_2">
</g>
</svg>
