<?xml version="1.0" encoding="utf-8"?>
<!-- Generator: Adobe Illustrator 18.1.0, SVG Export Plug-In . SVG Version: 6.00 Build 0)  -->
<svg version="1.1" xmlns="http://www.w3.org/2000/svg" xmlns:xlink="http://www.w3.org/1999/xlink" x="0px" y="0px"
	 viewBox="0 0 44 44" enable-background="new 0 0 44 44" xml:space="preserve">
<symbol  id="New_Symbol_2" viewBox="-40.9 -42.3 81.8 84.7">
	<g>
		<g opacity="0.25">
			<path d="M-19.3-41.7c-11.8,0-21.4,9.6-21.4,21.4C-40.7-8.6-31.1,1-19.3,1c0.2,0,0.3,0,0.5,0l3-0.1l0.3-2.9v-13.3
				c0-0.3-0.1-0.6-0.1-0.6c0,0,0-0.3,0.3-0.3H1.8L2-18.6c0.1-0.7,0.1-1.2,0.1-1.8C2.1-32.3-7.5-41.7-19.3-41.7z M-21.5-5.1
				c-8-1.2-13.1-7.6-13.1-15.3c0-8.5,6.9-15.8,15.4-15.8c8.1,0,14.7,6.9,15.4,13.9h-11.4c-3.8,0-6.2,3.2-6.2,6.9V-5.1z"/>
			<path d="M-40.2,18.3c-0.4,0.6-0.6,1.2-0.6,1.9l-0.2,11.4c0,0.9,0.4,1.8,1,2.5c0.7,0.7,1.5,1.1,2.5,1.1l11.4,0.2
				c1.2,0,2.3-0.6,3-1.6c0.4-0.5,0.6-1.2,0.6-1.9c0-2-1.5-3.6-3.5-3.6l-7.8-0.1l0.1-7.8c0-2-1.5-3.6-3.5-3.6c-0.7,0-1.4,0.2-2,0.6
				C-39.6,17.5-39.9,17.9-40.2,18.3"/>
			<path d="M37.5-25.3c0.4-0.6,0.6-1.2,0.6-1.9l0.2-11.4c0-0.9-0.4-1.8-1-2.5c-0.7-0.7-1.5-1.1-2.5-1.1l-11.4-0.2
				c-1.2,0-2.3,0.6-3,1.6c-0.4,0.5-0.6,1.2-0.6,1.9c0,2,1.5,3.6,3.5,3.6l7.8,0.1L31-27.3c0,2,1.5,3.6,3.5,3.6c0.7,0,1.4-0.2,2-0.6
				C36.9-24.6,37.3-24.9,37.5-25.3"/>
			<path d="M11-22.2h-26.3c-3.8,0-6.2,3.2-6.2,6.9V11c0,3.9,2.5,6.8,6.2,6.8h24l-8.9-15h17.7v-18.1C17.5-18.9,14.9-22.2,11-22.2z
				 M-15.8-16.2c0,0,0.2,0,0.5,0H11c0.8,0,0.5,0.8,0.5,0.9v12.1H-0.6c-2.1,0-3.9,1.2-4.9,3c-1,1.8-1,4,0.1,5.8l3.7,6.2h-13.6
				c-0.5,0-0.2-0.5-0.2-0.8v-26.3C-15.5-15.5-15.8-16.2-15.8-16.2L-15.8-16.2z"/>
			<path d="M35.2-3.2H-0.6c-2.1,0-3.9,1.2-4.9,3c-1,1.8-1,4.1,0.1,5.8l17.9,29.9c1,1.7,2.9,2.8,4.9,2.8c2,0,3.8-1,4.8-2.7L40.1,5.7
				c1.1-1.7,1.1-4.1,0.1-5.9C39.1-2,37.3-3.2,35.2-3.2z M-0.2,2.8h35L17.3,32L-0.2,2.8z"/>
		</g>
		<g>
			<g>
				<path fill="#FE725D" d="M-19.3-37.7c-11.8,0-21.4,9.6-21.4,21.4C-40.7-4.6-31.1,5-19.3,5c0.2,0,0.3,0,0.5,0l3-0.1l0.3-2.9v-13.3
					c0-0.3-0.1-0.6-0.1-0.6c0,0,0-0.3,0.3-0.3H1.8L2-14.6c0.1-0.7,0.1-1.2,0.1-1.8C2.1-28.3-7.5-37.7-19.3-37.7z M-21.5-1.1
					c-8-1.2-13.1-7.6-13.1-15.3c0-8.5,6.9-15.8,15.4-15.8c8.1,0,14.7,6.9,15.4,13.9h-11.4c-3.8,0-6.2,3.2-6.2,6.9V-1.1z"/>
				<path fill="#FE8233" d="M-40.2,22.3c-0.4,0.6-0.6,1.2-0.6,1.9l-0.2,11.4c0,0.9,0.4,1.8,1,2.5c0.7,0.7,1.5,1.1,2.5,1.1l11.4,0.2
					c1.2,0,2.3-0.6,3-1.6c0.4-0.5,0.6-1.2,0.6-1.9c0-2-1.5-3.6-3.5-3.6l-7.8-0.1l0.1-7.8c0-2-1.5-3.6-3.5-3.6c-0.7,0-1.4,0.2-2,0.6
					C-39.6,21.5-39.9,21.9-40.2,22.3"/>
				<path fill="#FE8233" d="M37.5-21.3c0.4-0.6,0.6-1.2,0.6-1.9l0.2-11.4c0-0.9-0.4-1.8-1-2.5c-0.7-0.7-1.5-1.1-2.5-1.1l-11.4-0.2
					c-1.2,0-2.3,0.6-3,1.6c-0.4,0.5-0.6,1.2-0.6,1.9c0,2,1.5,3.6,3.5,3.6l7.8,0.1L31-23.3c0,2,1.5,3.6,3.5,3.6c0.7,0,1.4-0.2,2-0.6
					C36.9-20.6,37.3-20.9,37.5-21.3"/>
				<path fill="#CF3251" d="M11-18.2h-26.3c-3.8,0-6.2,3.2-6.2,6.9V15c0,3.9,2.5,6.8,6.2,6.8h24l-8.9-15h17.7v-18.1
					C17.5-14.9,14.9-18.2,11-18.2z M-15.8-12.2c0,0,0.2,0,0.5,0H11c0.8,0,0.5,0.8,0.5,0.9V0.8H-0.6c-2.1,0-3.9,1.2-4.9,3
					c-1,1.8-1,4,0.1,5.8l3.7,6.2h-13.6c-0.5,0-0.2-0.5-0.2-0.8v-26.3C-15.5-11.5-15.8-12.2-15.8-12.2L-15.8-12.2z"/>
				<path fill="#FECB5D" d="M35.2,0.8H-0.6c-2.1,0-3.9,1.2-4.9,3c-1,1.8-1,4.1,0.1,5.8l17.9,29.9c1,1.7,2.9,2.8,4.9,2.8
					c2,0,3.8-1,4.8-2.7L40.1,9.7c1.1-1.7,1.1-4.1,0.1-5.9C39.1,2,37.3,0.8,35.2,0.8z M-0.2,6.8h35L17.3,36L-0.2,6.8z"/>
			</g>
		</g>
	</g>
</symbol>
<g id="Layer_1">
	<path fill="#51555C" d="M41,0H3C1.3,0,0,1.3,0,3v38c0,1.7,1.3,3,3,3h38c1.7,0,3-1.3,3-3V3C44,1.3,42.7,0,41,0z"/>
	
		<use xlink:href="#New_Symbol_2"  width="81.8" height="84.7" x="-40.9" y="-42.3" transform="matrix(0.3116 0 0 -0.3116 21.8302 22.3162)" overflow="visible"/>
</g>
<g id="Layer_2">
</g>
</svg>
