<?xml version="1.0" encoding="utf-8"?>
<!-- Generator: Adobe Illustrator 18.1.0, SVG Export Plug-In . SVG Version: 6.00 Build 0)  -->
<svg version="1.1" xmlns="http://www.w3.org/2000/svg" xmlns:xlink="http://www.w3.org/1999/xlink" x="0px" y="0px"
	 viewBox="0 0 44 44" enable-background="new 0 0 44 44" xml:space="preserve">
<g id="Layer_1">
	<path fill="#FE8233" d="M41,0H3C1.3,0,0,1.3,0,3v38c0,1.7,1.3,3,3,3h38c1.7,0,3-1.3,3-3V3C44,1.3,42.7,0,41,0z"/>
	<g>
		<g opacity="0.15">
			<path d="M29.1,30.4c0.4,0.4,0.7,1,0.7,1.6c0,0.6-0.2,1.1-0.7,1.6c-0.4,0.4-1,0.6-1.6,0.6c-0.6,0-1.1-0.2-1.6-0.6l-7.6-6.7v5.1
				c0,0.6-0.2,1.1-0.6,1.6c-0.4,0.4-1,0.6-1.6,0.6c-0.6,0-1.1-0.2-1.6-0.6c-0.4-0.4-0.7-0.9-0.7-1.6V15.4c0-0.6,0.2-1.1,0.7-1.5
				c0.4-0.4,1-0.7,1.6-0.7c0.6,0,1.2,0.2,1.6,0.7c0.4,0.4,0.6,0.9,0.6,1.5v5.1l7.6-6.7c0.5-0.4,1-0.7,1.6-0.7c0.6,0,1.1,0.2,1.6,0.7
				c0.4,0.4,0.7,1,0.7,1.6c0,0.6-0.2,1.1-0.7,1.6l-7.7,6.7L29.1,30.4z"/>
		</g>
		<g>
			<g>
				<path fill="#FFFFFF" d="M29.1,28.4c0.4,0.4,0.7,1,0.7,1.6c0,0.6-0.2,1.1-0.7,1.6c-0.4,0.4-1,0.6-1.6,0.6c-0.6,0-1.1-0.2-1.6-0.6
					l-7.6-6.7v5.1c0,0.6-0.2,1.1-0.6,1.6c-0.4,0.4-1,0.6-1.6,0.6c-0.6,0-1.1-0.2-1.6-0.6c-0.4-0.4-0.7-0.9-0.7-1.6V13.4
					c0-0.6,0.2-1.1,0.7-1.5c0.4-0.4,1-0.7,1.6-0.7c0.6,0,1.2,0.2,1.6,0.7c0.4,0.4,0.6,0.9,0.6,1.5v5.1l7.6-6.7
					c0.5-0.4,1-0.7,1.6-0.7c0.6,0,1.1,0.2,1.6,0.7c0.4,0.4,0.7,1,0.7,1.6c0,0.6-0.2,1.1-0.7,1.6l-7.7,6.7L29.1,28.4z"/>
			</g>
		</g>
	</g>
</g>
<g id="Layer_2">
</g>
</svg>
