<svg xmlns="http://www.w3.org/2000/svg" viewBox="0 0 597.51 548.38"><defs><style>.cls-1{fill:#8abf44}.cls-2{fill:#408ac9}.cls-3{fill:#e83c3c}.cls-11,.cls-4{fill:#ff6161}.cls-5{fill:#fcc00d}.cls-6{fill:#ffc2c2}.cls-7{fill:#705a5a}.cls-8{fill:none;stroke:#000}.cls-11,.cls-8{stroke-miterlimit:10}.cls-9{fill:#f7e2e2}.cls-10{fill:#ad1414}.cls-11{stroke:#cf2a28;stroke-linecap:round;stroke-width:12px}.cls-12{fill:#fff1ae}</style></defs><g id="Layer_1" data-name="Layer 1"><path d="M658.57,351c-10,8-24.89,17.71-40.25,20-8.06,1.22-13-9.1-7.12-15.09,16-16.4,40.94-47.34,47.08-85.61,1.62-10.07-10.48-15.89-16.68-8.07-8.47,10.66-20,21.7-34.45,27.25-5.88,2.26-11.29-4.37-8.29-10.18,12.5-24.16,34-75.69,16.11-117.56-4.21-9.85-17.8-8.73-20.68,1.64-5.59,20.18-15.56,48-30.93,63.69-4.61,4.71-12.23.61-11.44-6.13a84.76,84.76,0,0,0-8.7-48c-3.4-6.78-13-5.22-14.27,2.32-2.94,16.71-9.84,38.61-26,46.54-4.28,2.1-9.05-1.61-8.33-6.54.94-6.46,1.07-15.22-2.77-23a5.78,5.78,0,0,0-11,1.7c-1.73,9.55-6.06,22.13-16.88,29.09a4.34,4.34,0,0,1-6.56-4.36,40.35,40.35,0,0,0,.2-4.78,4.12,4.12,0,0,0-7.26-2.83c-8.12,9.65-24.32,25.58-42.1,24.65a49.72,49.72,0,0,0-5.46,0c-17.78.93-34-15-42.1-24.65a4.12,4.12,0,0,0-7.26,2.83,38.33,38.33,0,0,0,.2,4.78,4.35,4.35,0,0,1-6.57,4.36c-10.81-7-15.15-19.54-16.87-29.09a5.78,5.78,0,0,0-11-1.7c-3.83,7.8-3.71,16.56-2.76,23,.72,4.93-4,8.64-8.33,6.54-16.2-7.93-23.11-29.83-26-46.54-1.33-7.54-10.88-9.1-14.27-2.32a84.58,84.58,0,0,0-8.7,48c.78,6.74-6.83,10.84-11.45,6.13-15.37-15.72-25.33-43.51-30.93-63.69-2.87-10.37-16.47-11.49-20.67-1.64-17.87,41.87,3.6,93.4,16.1,117.56,3,5.81-2.4,12.44-8.28,10.18-14.41-5.55-26-16.59-34.45-27.25-6.21-7.82-18.31-2-16.69,8.07,6.15,38.27,31.1,69.21,47.08,85.61,5.85,6,.95,16.31-7.11,15.09-15.37-2.32-30.26-12.06-40.25-20-5.31-4.23-12.67,1-11,7.82,10.78,45,73.44,71.79,73.44,71.79-14.58.55-25.61-1.27-33.8-3.87-7.67-2.44-13.65,7.05-8.71,13.72,27.49,37.11,86.19,40.84,86.19,40.84C237.17,485.32,232,509.65,232,509.65c.63,13,37.36,25.22,37.36,25.22-31.66,24.11-20.26,61-20.26,61,38,11.39,47.48,0,47.48,0-13.93,29.47,7,65.65,7,65.65,19.63-2.68,46.85-38.75,46.85-38.75-1.9,18.85,16.09,30.71,16.09,30.71,16.72-6.7,34.08-46.89,34.08-46.89l5-5.36,5,5.36s17.35,40.19,34.07,46.89c0,0,18-11.86,16.09-30.71,0,0,27.23,36.07,46.86,38.75,0,0,20.89-36.18,7-65.65,0,0,9.5,11.39,47.49,0,0,0,11.39-36.85-20.26-61,0,0,36.72-12.25,37.35-25.22,0,0-5.21-24.33-26.59-28.38,0,0,58.71-3.73,86.2-40.84,4.93-6.67-1-16.16-8.72-13.72-8.18,2.6-19.22,4.42-33.79,3.87,0,0,62.65-26.8,73.43-71.79C671.24,352,663.87,346.74,658.57,351Z" class="cls-1" transform="translate(-106.72 -154.94)"/><path d="M405.5,585.86l-89.77-10.6s29.53,42.62,29.07,32c-.24-5.43,3.13-9.55,6.46-12.27a2.5,2.5,0,0,1,4,2.29c-1.63,12.47,14.11,22,14.11,22a36.41,36.41,0,0,0,13.5-11.51,1.85,1.85,0,0,1,3.28.4c3.79,11,18.72,19.06,19.28,19.36v0h.06v0c.56-.3,15.49-8.35,19.28-19.36a1.85,1.85,0,0,1,3.28-.4,36.41,36.41,0,0,0,13.5,11.51s15.74-9.56,14.11-22a2.5,2.5,0,0,1,4-2.29c3.33,2.72,6.7,6.84,6.46,12.27-.46,10.59,29.07-32,29.07-32Z" class="cls-2" transform="translate(-106.72 -154.94)"/><path d="M217.27,402c9.44,4.46,22.09,8.59,35.23,7.46a3.06,3.06,0,0,0,1-5.8,33.79,33.79,0,0,1-14.2-12.24,4.29,4.29,0,0,1,5.19-6.23A43.85,43.85,0,0,0,256.94,388a6.69,6.69,0,0,0,7.05-6.69c0-13.89,2.1-47.63,20-64.45a56.89,56.89,0,0,1,4.42-9.88C321,248.1,384.1,245.36,401.17,245.75h0l9.56,0h0c18.24-.27,79.88,3.31,111.94,61.21a56,56,0,0,1,4.41,9.88c17.88,16.82,19.93,50.56,20,64.45A6.69,6.69,0,0,0,554.1,388a43.77,43.77,0,0,0,12.41-2.78,4.28,4.28,0,0,1,5.19,6.23,33.77,33.77,0,0,1-14.19,12.24,3.06,3.06,0,0,0,1,5.8c13.13,1.13,25.79-3,35.23-7.46A6.91,6.91,0,0,1,603,411.1c-21.45,45.81-67.22,55.63-67.22,55.63,18.72,14.28-3.95,64.69-3.95,64.69.38,49.85-42.32,56.14-42.32,56.14h-168s-42.69-6.29-42.31-56.14c0,0-22.67-50.41-4-64.69,0,0-45.77-9.82-67.22-55.63A6.91,6.91,0,0,1,217.27,402Z" class="cls-3" transform="translate(-106.72 -154.94)"/><path d="M349.08,283.83c-12.5-14.17-29.64-36.25-35.43-56.48a5.1,5.1,0,0,0-9.71-.25c-2,5.81-3.27,14.17-2.15,25.92,2.31,24.42-34.85-38.65-36-92.24-.12-5.44-7.74-6.61-9.4-1.43-10.89,33.8-15.57,89.7,39,144.33A36.33,36.33,0,0,0,336,311l8-3.61A14.94,14.94,0,0,0,349.08,283.83Z" class="cls-4" transform="translate(-106.72 -154.94)"/><path d="M238.25,479c-10.86,0-23.27-5.28-45.77-16.57-40.83-20.48-71.78,8.28-73.07,9.51A7.5,7.5,0,0,1,109,461.07a83.31,83.31,0,0,1,26-15.71c14.74-5.65,37.85-9.61,64.22,3.62,21.64,10.85,33.34,15.85,41.29,14.83,7.47-1,14.6-7.69,28.75-21.6,34.21-33.62,52.05-19.13,74.64-.79l.4.32a7.5,7.5,0,0,1-9.46,11.64l-.4-.32c-21.84-17.74-30-24.38-54.66-.15-15.32,15.06-24.56,24.14-37.38,25.78A33.31,33.31,0,0,1,238.25,479Z" class="cls-5" transform="translate(-106.72 -154.94)"/><path d="M572.71,479a33.47,33.47,0,0,1-4.14-.26c-12.81-1.64-22.06-10.72-37.37-25.78-24.65-24.23-32.83-17.59-54.67.15l-.4.32a7.5,7.5,0,1,1-9.45-11.64l.39-.32c22.59-18.34,40.43-32.83,74.64.79,14.15,13.91,21.29,20.64,28.76,21.6,7.95,1,19.65-4,41.28-14.83,26.37-13.23,49.48-9.27,64.23-3.62a83.18,83.18,0,0,1,26,15.71,7.5,7.5,0,0,1-10.39,10.82c-1.36-1.29-32.29-30-73.07-9.51C596,473.67,583.56,479,572.71,479Z" class="cls-5" transform="translate(-106.72 -154.94)"/><path d="M303.65,369.67s-35.15-4.75-44.34-25.41c0,0,9.16-7,25.15-8.57,0,0-32.23-22.38-22.83-41.9,0,0,28.24-1.69,44.37,12,0,0-.95-12.71,8.42-18.29,0,0,11.91-2,18,8.46l4.93-4.4a7.22,7.22,0,0,1,10.12.48,78.07,78.07,0,0,1,6,7.2,11.63,11.63,0,0,0,13.52,4.08h0a4.14,4.14,0,0,1,5.6,3.85l.14,18.23Z" class="cls-2" transform="translate(-106.72 -154.94)"/><circle cx="238.07" cy="207.72" r="43.8" class="cls-6"/><circle cx="247.24" cy="198.92" r="20.14" class="cls-7"/><path d="M445.12,703l.05.07Z" class="cls-8" transform="translate(-106.72 -154.94)"/><path d="M392.55,363.19h-.44a7.5,7.5,0,0,1-7.06-7.87c0-.27.45-13.83-9.32-23.62-8-8-20.79-11.67-38-10.92-48.46,2.14-74.53-7.35-89.92-14.67-32.49-15.45-57.7-43-77.08-84.15L159,197.4A7.49,7.49,0,1,1,172.53,191l11.73,24.58c17.85,37.94,40.73,63.12,70,77,22.46,10.69,48,14.77,82.82,13.24,21.74-1,38.4,4.26,49.49,15.5,14.47,14.66,13.54,34,13.5,34.83A7.5,7.5,0,0,1,392.55,363.19Z" class="cls-5" transform="translate(-106.72 -154.94)"/><circle cx="253.58" cy="189.63" r="6.34" class="cls-9"/><ellipse cx="357.55" cy="466.47" class="cls-4" rx="18.03" ry="32.5" transform="translate(-319.72 170.39) rotate(-38.64)"/><ellipse cx="357.55" cy="466.47" class="cls-10" rx="12.2" ry="22" transform="translate(-319.72 170.39) rotate(-38.64)"/><path d="M461.93,284.08c12.5-14.16,29.65-36.25,35.44-56.47a5.1,5.1,0,0,1,9.71-.25c2,5.81,3.27,14.16,2.15,25.92-2.32,24.42,34.84-38.65,36-92.25.12-5.43,7.73-6.6,9.4-1.43,10.89,33.8,15.57,89.7-39,144.33A36.28,36.28,0,0,1,475,311.21l-8-3.61A15,15,0,0,1,461.93,284.08Z" class="cls-4" transform="translate(-106.72 -154.94)"/></g><g id="Layer_3" data-name="Layer 3"><polyline points="311.82 307.71 298.78 307.71 285.73 307.71" class="cls-11"/><polyline points="320.7 288.26 298.78 288.26 276.85 288.26" class="cls-11"/><polyline points="333.39 268.81 298.78 268.81 264.16 268.81" class="cls-11"/><path d="M531.46,481.32a6.69,6.69,0,0,0-12.38-2.76c-9.7,15.93-27,37-47.58,29.94-14.81-5.09-30-6.75-42.14-7.07h-.06c-3.15-.08-6.07-.07-8.73,0l-31.93,0c-1.4,0-2.87,0-4.41,0h-.07c-12.46.15-28.8,1.67-44.66,7.12-20.6,7.08-37.88-14-47.58-29.94a6.69,6.69,0,0,0-12.38,2.76c-1.18,12.26-.06,28.47,10,42.18l9.88,18.24a36.49,36.49,0,0,0,18.67,16.78,33.35,33.35,0,0,0,24.45,0c24-9,63-10,63-10s39,1,63,10a33.35,33.35,0,0,0,24.45,0,36.49,36.49,0,0,0,18.67-16.78l9.88-18.24C531.52,509.79,532.64,493.58,531.46,481.32Z" class="cls-10" transform="translate(-106.72 -154.94)"/><path d="M349.65,537.65c-5.06-.11-8.17,13.2-7.43,21l.28-.1A115.37,115.37,0,0,1,358,554.06C356.82,550.16,352.69,537.71,349.65,537.65Z" class="cls-12" transform="translate(-106.72 -154.94)"/><path d="M322.54,526.11c-3.55,3.66-8.6,11.59-11.91,28.39a34.52,34.52,0,0,0,7.42,4,32.87,32.87,0,0,0,16.41,2c-1.82-5.31-7.34-22.19-7.91-32.88A2.34,2.34,0,0,0,322.54,526.11Z" class="cls-12" transform="translate(-106.72 -154.94)"/><path d="M337.76,530.44a44.28,44.28,0,0,0,7-23.6q-2.66.77-5.29,1.66a24.82,24.82,0,0,1-11.64,1.16c1.35,2.72,5.79,12.15,6.66,20A1.76,1.76,0,0,0,337.76,530.44Z" class="cls-12" transform="translate(-106.72 -154.94)"/><path d="M394.29,535.92c-1.43,2.09-3.34,6.16-4.16,13.52,5-.43,9.15-.67,11.88-.8-.65-3-2.1-8.93-4.38-12.63A2,2,0,0,0,394.29,535.92Z" class="cls-12" transform="translate(-106.72 -154.94)"/><path d="M391.4,516.07c3.17-5.18,4.76-14.62,4.76-14.62l-.71-.06h-6.81c-1.4,0-2.87,0-4.41,0h-.46c.73,8.15,2.77,12.55,4.28,14.76A2,2,0,0,0,391.4,516.07Z" class="cls-12" transform="translate(-106.72 -154.94)"/><path d="M373.49,518.24c2.48-5.32,3.29-13.92,3.49-16.62-4.43.23-9.18.66-14.1,1.37,1.92,8.88,4.78,13.51,6.77,15.8A2.32,2.32,0,0,0,373.49,518.24Z" class="cls-12" transform="translate(-106.72 -154.94)"/><path d="M461.35,537.65c5.06-.11,8.17,13.2,7.43,21l-.28-.1A115.37,115.37,0,0,0,453,554.06C454.18,550.16,458.31,537.71,461.35,537.65Z" class="cls-12" transform="translate(-106.72 -154.94)"/><path d="M488.46,526.11c3.55,3.66,8.6,11.59,11.91,28.39a34.52,34.52,0,0,1-7.42,4,32.87,32.87,0,0,1-16.41,2c1.82-5.31,7.34-22.19,7.91-32.88A2.34,2.34,0,0,1,488.46,526.11Z" class="cls-12" transform="translate(-106.72 -154.94)"/><path d="M473.24,530.44a44.28,44.28,0,0,1-7-23.6q2.66.77,5.29,1.66a24.82,24.82,0,0,0,11.64,1.16c-1.35,2.72-5.79,12.15-6.66,20A1.76,1.76,0,0,1,473.24,530.44Z" class="cls-12" transform="translate(-106.72 -154.94)"/><path d="M416.71,535.92c1.43,2.09,3.34,6.16,4.16,13.52-5-.43-9.15-.67-11.88-.8.65-3,2.1-8.93,4.38-12.63A2,2,0,0,1,416.71,535.92Z" class="cls-12" transform="translate(-106.72 -154.94)"/><path d="M419.6,516.07c-3.17-5.18-4.76-14.62-4.76-14.62l.71-.06h6.81c1.4,0,2.87,0,4.41,0h.46c-.73,8.15-2.77,12.55-4.28,14.76A2,2,0,0,1,419.6,516.07Z" class="cls-12" transform="translate(-106.72 -154.94)"/><path d="M437.51,518.24c-2.48-5.32-3.29-13.92-3.49-16.62,4.43.23,9.18.66,14.1,1.37-1.92,8.88-4.78,13.51-6.77,15.8A2.32,2.32,0,0,1,437.51,518.24Z" class="cls-12" transform="translate(-106.72 -154.94)"/><path d="M507.35,369.67s35.15-4.75,44.34-25.41c0,0-9.16-7-25.15-8.57,0,0,32.23-22.38,22.83-41.9,0,0-28.24-1.69-44.37,12,0,0,.95-12.71-8.42-18.29,0,0-11.91-2-18,8.46l-4.93-4.4a7.22,7.22,0,0,0-10.12.48,78.07,78.07,0,0,0-6,7.2,11.63,11.63,0,0,1-13.52,4.08h0a4.14,4.14,0,0,0-5.6,3.85l-.14,18.23Z" class="cls-2" transform="translate(-106.72 -154.94)"/><circle cx="358.98" cy="207.72" r="43.8" class="cls-6"/><circle cx="349.81" cy="198.92" r="20.14" class="cls-7"/><path d="M418,363.17a7.48,7.48,0,0,1-7.48-7.05c0-.81-1-20.17,13.5-34.83,11.09-11.24,27.74-16.46,49.49-15.5,34.82,1.53,60.36-2.55,82.82-13.24,29.23-13.9,52.11-39.08,69.94-77L638,191a7.49,7.49,0,1,1,13.53,6.45L639.78,222c-19.36,41.13-44.57,68.66-77.06,84.11-32.13,15.28-66.71,15.69-89.92,14.67-17.24-.75-30,2.92-38,10.92-9.82,9.84-9.32,23.48-9.32,23.62a7.52,7.52,0,0,1-7.11,7.85Z" class="cls-5" transform="translate(-106.72 -154.94)"/><circle cx="343.47" cy="189.63" r="6.34" class="cls-9"/><ellipse cx="453.45" cy="466.47" class="cls-4" rx="32.5" ry="18.03" transform="translate(-300.77 374.48) rotate(-51.36)"/><ellipse cx="453.45" cy="466.47" class="cls-10" rx="22" ry="12.2" transform="translate(-300.77 374.48) rotate(-51.36)"/></g></svg>