<svg xmlns="http://www.w3.org/2000/svg" xmlns:svg="http://www.w3.org/2000/svg" xmlns:xlink="http://www.w3.org/1999/xlink" id="svg2" x="0" y="0" version="1.1" viewBox="0 0 47.5 47.5" xml:space="preserve" style="enable-background:new 0 0 47.5 47.5"><style type="text/css">.st0{fill:#79b454}.st1{fill:#252b2f}.st2{fill:#3c7317}.st3{fill:#ccd6dd}.st4{fill:#da2f47}.st5{fill:#67757f}.st6{fill:#452e04}</style><g><circle cx="23.8" cy="23.8" r="21.2" class="st0"/><ellipse cx="17.3" cy="22" class="st1" rx="3" ry="4.1"/><ellipse cx="30.2" cy="22" class="st1" rx="3" ry="4.1"/><path d="M36.7,16.7c-6.6,0-9.2-5.2-9.3-5.4c-0.3-0.6-0.1-1.3,0.5-1.6s1.3-0.1,1.6,0.5c0.1,0.2,2.1,4.1,7.2,4.1 c0.7,0,1.2,0.5,1.2,1.2C37.9,16.1,37.4,16.7,36.7,16.7z M10.8,16.7c-0.7,0-1.2-0.5-1.2-1.2s0.5-1.2,1.2-1.2c6,0,7.1-3.7,7.1-3.8 c0.2-0.6,0.8-1,1.4-0.8s1,0.8,0.8,1.4C20.1,11.3,18.7,16.7,10.8,16.7z" class="st1"/><path d="M45,22.6l-4.7,1L21.1,36l8.4,1.1l13.8-8.5c0.8-0.5,1.2-1,1.4-2.1C45,25.5,45,22.6,45,22.6z" class="st2"/><path d="M30.2,37.2c0-0.1-1.4-3.4-6.5-3.4s-6.5,3.3-6.5,3.4c-0.1,0.3,0.1,0.5,0.3,0.6c0.2,0.1,0.5,0.1,0.7-0.1 c0,0,1.2-1,5.5-1c4.2,0,5.5,1,5.5,1c0.2,0.2,0.6,0.2,0.8,0C30.2,37.6,30.3,37.4,30.2,37.2z" class="st1"/><path d="M44.4,21.1c-1-1.3-2.8-1.6-4.1-0.6L19.9,35.7c0.8-0.3,1.8-0.5,3.1-0.6c0.3,0,3.1-0.7,3.1-0.7l1.5,1.2 c0,0,1.1,0.4,1.4,0.6l14.7-11C45.1,24.2,45.4,22.4,44.4,21.1z" class="st3"/><path d="M36.4,27.1c-0.5-0.7-0.9-1.4-1.6-0.8L23,35.1c0.3,0,0.6,0,0.9-0.1c1.6,0,2.8,0.2,3.7,0.5l9-6.7 C37.3,28.3,36.9,27.8,36.4,27.1z" class="st4"/><path d="M24.5,32.3l1.5,1.9l0.9-0.7l-1.4-1.9L24.5,32.3z M27.1,30.3l1.5,1.9l0.9-0.7L28,29.6L27.1,30.3z M29.7,28.4 l1.5,1.9l0.9-0.7l-1.4-1.9L29.7,28.4z M32.2,26.5l1.5,1.9l0.9-0.7l-1.4-1.9L32.2,26.5z M34.9,24.5l1.5,1.9l0.9-0.7l-1.4-1.9 L34.9,24.5z M37.4,22.6l1.5,1.9l0.9-0.7l-1.4-1.9L37.4,22.6z" class="st5"/><path d="M29.1,36.2l1,0.6c0,0-0.2-0.4-0.6-0.9C29.4,36,29.1,36.2,29.1,36.2z" class="st6"/></g></svg>