<svg xmlns="http://www.w3.org/2000/svg" xmlns:svg="http://www.w3.org/2000/svg" xmlns:xlink="http://www.w3.org/1999/xlink" id="svg2" x="0" y="0" version="1.1" viewBox="0 0 47.5 47.5" xml:space="preserve" style="enable-background:new 0 0 47.5 47.5"><style type="text/css">.st0{fill:#ffcc4d}.st1{fill:#664500}.st2{fill:#f5f8fa}</style><g><path d="M45,23.8C45,35.5,35.5,45,23.8,45C12,45,2.5,35.5,2.5,23.8C2.5,12,12,2.5,23.8,2.5C35.5,2.5,45,12,45,23.8" class="st0"/><path d="M10.8,20.2c-0.7,0-1.2-0.5-1.2-1.2c0-0.4,0.2-0.8,0.5-1c0.2-0.1,3.9-2.6,8.9-2.6c0.7,0,1.2,0.5,1.2,1.2 c0,0.7-0.5,1.2-1.2,1.2c-4.3,0-7.6,2.1-7.6,2.2C11.3,20.1,11,20.2,10.8,20.2z M36.7,20.2c-0.2,0-0.5-0.1-0.7-0.2 c0,0-3.3-2.2-7.6-2.2c-0.7,0-1.2-0.5-1.2-1.2c0-0.7,0.5-1.2,1.2-1.2c5,0,8.7,2.4,8.9,2.6c0.5,0.4,0.7,1.1,0.3,1.6 C37.5,20,37.1,20.2,36.7,20.2z" class="st1"/><path d="M34.3,28.6L45,23.8c0-0.8,0-1.5-0.1-2.3l-10.5,4.8v-1.3c0-1.3-1.1-2.4-2.4-2.4H15.5c-1.3,0-2.4,1.1-2.4,2.4 v1.3L2.7,21.5c-0.1,0.8-0.1,1.5-0.1,2.3l10.6,4.8v5.4l-8.8-1.6c0.4,0.9,0.9,1.8,1.4,2.6l7.4,1.3v1.6c0,1.3,1.1,2.4,2.4,2.4H32 c1.3,0,2.4-1.1,2.4-2.4v-1.6l7.4-1.3c0.5-0.8,1-1.7,1.4-2.6l-8.8,1.6V28.6z" class="st2"/></g></svg>