<svg xmlns="http://www.w3.org/2000/svg" xmlns:xlink="http://www.w3.org/1999/xlink" id="Layer_1_copy_2" x="0" y="0" version="1.1" viewBox="0 0 38 38" xml:space="preserve" style="enable-background:new 0 0 38 38"><style type="text/css">.st0{fill:#c1694f}.st1{fill:#662113}.st2{clip-path:url(#SVGID_2_);fill:#ccd6dd}.st3{fill:#d99e82}.st4{fill:#66757f}.st5{fill:#292f33}</style><path d="M13,6c0,3-0.6,8-2,8c-1.4,0-3,0-3-3S6.5,1,7,1S13,3,13,6z" class="st0"/><path d="M25,6c0,3,0.6,8,2,8s3,0,3-3s1.5-10,1-10S25,3,25,6z" class="st0"/><path d="M11,7c0,1.7-0.4,3-1,3c-0.6,0-1-1.3-1-3S8.4,4,9,4S11,5.3,11,7z" class="st1"/><path d="M27,7c0,1.7,0.4,3,1,3s1-1.3,1-3s0.6-3,0-3S27,5.3,27,7z" class="st1"/><g><defs><path id="SVGID_1_" d="M30,13c0,3.5-0.7,6.4-2,10c-2.4,6.5,0,14-9,14s-6.6-7.5-9-14c-1.3-3.6-2-6.5-2-10C8,7,12.4,3,19,3 C25.6,3,30,7,30,13z"/></defs><use xlink:href="#SVGID_1_" style="overflow:visible;fill:#c1694f"/><clipPath id="SVGID_2_"><use xlink:href="#SVGID_1_" style="overflow:visible"/></clipPath><path d="M27,28.5c4.2,6.2-2.5,8.5-8,8.5c-5.5,0-13-2.9-8-8.5c4-4.5,6,0.5,8,0.5S24,24,27,28.5z" class="st2"/></g><path d="M23,7c0,9.9-1.5,22-4,22c-2.5,0-4-12.1-4-22c0-2,1.5-4,4-4C21.5,3,23,5,23,7z" class="st3"/><ellipse cx="14.5" cy="30" class="st4" rx="1.5" ry="2"/><ellipse cx="23.5" cy="30" class="st4" rx="1.5" ry="2"/><path d="M12,15.5c0,0.8-0.7,1.5-1.5,1.5l0,0C9.7,17,9,16.3,9,15.5v-2c0-0.8,0.7-1.5,1.5-1.5l0,0c0.8,0,1.5,0.7,1.5,1.5	V15.5z" class="st5"/><path d="M29,15.5c0,0.8-0.7,1.5-1.5,1.5l0,0c-0.8,0-1.5-0.7-1.5-1.5v-2c0-0.8,0.7-1.5,1.5-1.5l0,0	c0.8,0,1.5,0.7,1.5,1.5V15.5z" class="st5"/><path d="M24,4c1,2,0,6-4,8c-0.5,0.3,3-3,1-4c-0.8-0.4-2.2,3-2,2c1-6-5-4-4-7c0.5-1.6,2.3-2,4-2C21.8,1,23.3,2.5,24,4z" class="st1"/></svg>