<?xml version="1.0" encoding="utf-8"?>
<!-- Generator: Adobe Illustrator 24.0.0, SVG Export Plug-In . SVG Version: 6.00 Build 0)  -->
<svg version="1.1"
	 id="svg2" xmlns:cc="http://creativecommons.org/ns#" xmlns:dc="http://purl.org/dc/elements/1.1/" xmlns:rdf="http://www.w3.org/1999/02/22-rdf-syntax-ns#" xmlns:svg="http://www.w3.org/2000/svg"
	 xmlns="http://www.w3.org/2000/svg" xmlns:xlink="http://www.w3.org/1999/xlink" x="0px" y="0px" viewBox="0 0 47.5 47.5"
	 style="enable-background:new 0 0 47.5 47.5;" xml:space="preserve">
<style type="text/css">
	.st0{fill:#79B454;}
	.st1{fill:#252B2F;}
	.st2{fill:#3C7317;}
	.st3{fill:#CCD6DD;}
	.st4{fill:#DA2F47;}
	.st5{fill:#67757F;}
	.st6{fill:#452E04;}
</style>
<g>
	<circle class="st0" cx="23.8" cy="23.8" r="21.2"/>
	<ellipse class="st1" cx="17.3" cy="22" rx="3" ry="4.1"/>
	<ellipse class="st1" cx="30.2" cy="22" rx="3" ry="4.1"/>
	<path class="st1" d="M36.7,16.7c-6.6,0-9.2-5.2-9.3-5.4c-0.3-0.6-0.1-1.3,0.5-1.6s1.3-0.1,1.6,0.5c0.1,0.2,2.1,4.1,7.2,4.1
		c0.7,0,1.2,0.5,1.2,1.2C37.9,16.1,37.4,16.7,36.7,16.7z M10.8,16.7c-0.7,0-1.2-0.5-1.2-1.2s0.5-1.2,1.2-1.2c6,0,7.1-3.7,7.1-3.8
		c0.2-0.6,0.8-1,1.4-0.8s1,0.8,0.8,1.4C20.1,11.3,18.7,16.7,10.8,16.7z"/>
	<path class="st2" d="M45,22.6l-4.7,1L21.1,36l8.4,1.1l13.8-8.5c0.8-0.5,1.2-1,1.4-2.1C45,25.5,45,22.6,45,22.6z"/>
	<path class="st1" d="M30.2,37.2c0-0.1-1.4-3.4-6.5-3.4s-6.5,3.3-6.5,3.4c-0.1,0.3,0.1,0.5,0.3,0.6c0.2,0.1,0.5,0.1,0.7-0.1
		c0,0,1.2-1,5.5-1c4.2,0,5.5,1,5.5,1c0.2,0.2,0.6,0.2,0.8,0C30.2,37.6,30.3,37.4,30.2,37.2z"/>
	<path class="st3" d="M44.4,21.1c-1-1.3-2.8-1.6-4.1-0.6L19.9,35.7c0.8-0.3,1.8-0.5,3.1-0.6c0.3,0,3.1-0.7,3.1-0.7l1.5,1.2
		c0,0,1.1,0.4,1.4,0.6l14.7-11C45.1,24.2,45.4,22.4,44.4,21.1z"/>
	<path class="st4" d="M36.4,27.1c-0.5-0.7-0.9-1.4-1.6-0.8L23,35.1c0.3,0,0.6,0,0.9-0.1c1.6,0,2.8,0.2,3.7,0.5l9-6.7
		C37.3,28.3,36.9,27.8,36.4,27.1z"/>
	<path class="st5" d="M24.5,32.3l1.5,1.9l0.9-0.7l-1.4-1.9L24.5,32.3z M27.1,30.3l1.5,1.9l0.9-0.7L28,29.6L27.1,30.3z M29.7,28.4
		l1.5,1.9l0.9-0.7l-1.4-1.9L29.7,28.4z M32.2,26.5l1.5,1.9l0.9-0.7l-1.4-1.9L32.2,26.5z M34.9,24.5l1.5,1.9l0.9-0.7l-1.4-1.9
		L34.9,24.5z M37.4,22.6l1.5,1.9l0.9-0.7l-1.4-1.9L37.4,22.6z"/>
	<path class="st6" d="M29.1,36.2l1,0.6c0,0-0.2-0.4-0.6-0.9C29.4,36,29.1,36.2,29.1,36.2z"/>
</g>
</svg>
