<?xml version="1.0" encoding="utf-8"?>
<!-- Generator: Adobe Illustrator 21.1.0, SVG Export Plug-In . SVG Version: 6.00 Build 0)  -->
<svg version="1.1" id="Layer_1" xmlns="http://www.w3.org/2000/svg" xmlns:xlink="http://www.w3.org/1999/xlink" x="0px" y="0px"
	 viewBox="0 0 100 100" style="enable-background:new 0 0 100 100;" xml:space="preserve">
<style type="text/css">
	.st0{fill:#2DAB66;}
	.st1{opacity:0.5;fill:#B5A7D2;}
	.st2{fill:#008D36;}
	.st3{fill:#E3DE00;}
	.st4{opacity:0.5;fill:#BADED4;}
	.st5{fill:#DD7796;}
	.st6{fill:#FFFFFF;}
	.st7{fill:#BADED4;}
	.st8{fill:#C4B9DC;}
	.st9{opacity:0.5;fill:#C4B9DC;}
	.st10{fill:#6F6F6E;}
	.st11{fill:#E61B72;}
	.st12{fill:#B5A7D2;}
	.st13{fill:#E20613;}
	.st14{fill:#F8B133;}
	.st15{fill:#D60B51;}
	.st16{fill:#E7A100;}
	.st17{fill:#A6841B;}
</style>
<g>
	<g>
		<polygon class="st15" points="77.6,76.7 39.9,87.7 11.6,60.6 20.9,22.6 58.5,11.6 86.8,38.7 		"/>
		<polygon class="st13" points="62.2,61.6 46.3,66.3 34.3,54.8 38.2,38.7 54.1,34.1 66.1,45.5 		"/>
		<path class="st1" d="M61.6,41.2c0.1,0.8,0.1,1.5,0,2.2c0,0,0,0,0,0c0,0,0,0,0,0c0,0-0.1,0.8-0.2,1.5c-0.1,0.7-0.2,1.5-0.3,2.2
			c-0.3,1-0.7,2-1.1,3c-0.6,1.3-1.6,2.6-2.6,3.6c-2.3,2.2-5.2,3.8-8.4,4.5c-3.4,0.7-7,1-10.5,0.5l8,7.6l15.9-4.6l3.9-16.1L61.6,41.2
			z"/>
		<polygon class="st13" points="70.1,29.4 54.2,34.1 42.2,22.6 46.2,6.5 62.1,1.9 74,13.3 		"/>
		<path class="st1" d="M69.5,9c0.1,0.8,0.1,1.5,0,2.2c0,0,0,0,0,0c0,0,0,0,0,0c0,0-0.1,0.8-0.2,1.5c-0.1,0.7-0.2,1.5-0.3,2.2
			c-0.3,1-0.7,2-1.1,3c-0.6,1.3-1.6,2.6-2.6,3.6c-2.3,2.2-5.2,3.8-8.4,4.5c-3.4,0.7-7,1-10.5,0.5l8,7.6l15.9-4.6L74,13.3L69.5,9z"/>
		<polygon class="st13" points="94,52.6 78.1,57.3 66.1,45.8 70,29.7 85.9,25.1 97.9,36.5 		"/>
		<path class="st1" d="M93.4,32.2c0.1,0.8,0.1,1.5,0,2.2c0,0,0,0,0,0c0,0,0,0,0,0c0,0-0.1,0.8-0.2,1.5c-0.1,0.7-0.2,1.5-0.3,2.2
			c-0.3,1-0.7,2-1.1,3c-0.6,1.3-1.6,2.6-2.6,3.6c-2.3,2.2-5.2,3.8-8.4,4.5c-3.4,0.7-7,1-10.5,0.5l8,7.6L94,52.6l3.9-16.1L93.4,32.2z
			"/>
		<polygon class="st13" points="38.3,38.1 22.4,42.7 10.4,31.3 14.4,15.2 30.3,10.5 42.2,22 		"/>
		<path class="st1" d="M37.7,17.6c0.1,0.8,0.1,1.5,0,2.2c0,0,0,0,0,0c0,0,0,0,0,0c0,0-0.1,0.8-0.2,1.5c-0.1,0.7-0.2,1.5-0.3,2.2
			c-0.3,1-0.7,2-1.1,3c-0.6,1.3-1.6,2.6-2.6,3.6c-2.3,2.2-5.2,3.8-8.4,4.5c-3.4,0.7-7,1-10.5,0.5l8,7.6l15.9-4.6L42.2,22L37.7,17.6z
			"/>
		<polygon class="st13" points="86,84.8 70.1,89.5 58.1,78 62.1,61.9 78,57.3 90,68.7 		"/>
		<path class="st1" d="M85.4,64.4c0.1,0.8,0.1,1.5,0,2.2c0,0,0,0,0,0c0,0,0,0,0,0c0,0-0.1,0.8-0.2,1.5c-0.1,0.7-0.2,1.5-0.3,2.2
			c-0.3,1-0.7,2-1.1,3c-0.6,1.3-1.6,2.6-2.6,3.6c-2.3,2.2-5.2,3.8-8.4,4.5c-3.4,0.7-7,1-10.5,0.5l8,7.6L86,84.8L90,68.7L85.4,64.4z"
			/>
		<polygon class="st13" points="54.2,93.5 38.3,98.1 26.3,86.7 30.3,70.6 46.2,65.9 58.1,77.4 		"/>
		<path class="st1" d="M53.6,73c0.1,0.8,0.1,1.5,0,2.2c0,0,0,0,0,0c0,0,0,0,0,0c0,0-0.1,0.8-0.2,1.5c-0.1,0.7-0.2,1.5-0.3,2.2
			c-0.3,1-0.7,2-1.1,3c-0.6,1.3-1.6,2.6-2.6,3.6C47,87.7,44,89.3,40.9,90c-3.4,0.7-7,1-10.5,0.5l8,7.6l15.9-4.6l3.9-16.1L53.6,73z"
			/>
		<polygon class="st13" points="30.3,70.3 14.4,74.9 2.5,63.5 6.4,47.4 22.3,42.7 34.3,54.2 		"/>
		<path class="st1" d="M29.7,49.8c0.1,0.8,0.1,1.5,0,2.2c0,0,0,0,0,0c0,0,0,0,0,0c0,0-0.1,0.8-0.2,1.5c-0.1,0.7-0.2,1.5-0.3,2.2
			c-0.3,1-0.7,2-1.1,3c-0.6,1.3-1.6,2.6-2.6,3.6c-2.3,2.2-5.2,3.8-8.4,4.5c-3.4,0.7-7,1-10.5,0.5l8,7.6l15.9-4.6l3.9-16.1L29.7,49.8
			z"/>
	</g>
	<polygon class="st11" points="34.9,79.3 27.6,87.8 16.7,85.7 13,75.2 20.2,66.8 31.2,68.8 	"/>
	<path class="st1" d="M27,68.1c0.3,0.4,0.6,0.8,0.8,1.3c0,0,0,0,0,0c0,0,0,0,0,0c0,0,0.2,0.5,0.4,0.9c0.2,0.4,0.5,0.9,0.6,1.4
		c0.2,0.7,0.3,1.4,0.4,2.1c0.1,1,0.1,2.1-0.2,3c-0.5,2.1-1.6,4-3.1,5.6c-1.6,1.6-3.6,3.1-5.8,4.1l7.3,1.4l7.2-8.4l-3.7-10.5L27,68.1
		z"/>
	<polygon class="st11" points="87,26.2 79.7,34.6 68.8,32.6 65.1,22.1 72.4,13.7 83.3,15.7 	"/>
	<path class="st1" d="M79.2,14.9c0.3,0.4,0.6,0.8,0.8,1.3c0,0,0,0,0,0c0,0,0,0,0,0c0,0,0.2,0.5,0.4,0.9c0.2,0.4,0.5,0.9,0.6,1.4
		c0.2,0.7,0.3,1.4,0.4,2.1c0.1,1,0.1,2.1-0.2,3c-0.5,2.1-1.6,4-3.1,5.6c-1.6,1.6-3.6,3.1-5.8,4.1l7.3,1.4l7.2-8.4l-3.7-10.5
		L79.2,14.9z"/>
	<polygon class="st11" points="23.9,42.8 16.7,51.3 5.8,49.2 2.1,38.7 9.3,30.3 20.2,32.3 	"/>
	<path class="st1" d="M16.1,31.6c0.3,0.4,0.6,0.8,0.8,1.3c0,0,0,0,0,0c0,0,0,0,0,0c0,0,0.2,0.5,0.4,0.9c0.2,0.4,0.5,0.9,0.6,1.4
		c0.2,0.7,0.3,1.4,0.4,2.1c0.1,1,0.1,2.1-0.2,3c-0.5,2.1-1.6,4-3.1,5.6c-1.6,1.6-3.6,3.1-5.8,4.1l7.3,1.4l7.2-8.4l-3.7-10.5
		L16.1,31.6z"/>
	<polygon class="st11" points="49.3,16.5 42,24.9 31.1,22.8 27.4,12.4 34.7,3.9 45.6,6 	"/>
	<path class="st1" d="M41.4,5.2C41.7,5.6,42,6,42.2,6.4c0,0,0,0,0,0c0,0,0,0,0,0c0,0,0.2,0.5,0.4,0.9c0.2,0.4,0.5,0.9,0.6,1.4
		c0.2,0.7,0.3,1.4,0.4,2.1c0.1,1,0.1,2.1-0.2,3c-0.5,2.1-1.6,4-3.1,5.6c-1.6,1.6-3.6,3.1-5.8,4.1l7.3,1.4l7.2-8.4L45.6,6L41.4,5.2z"
		/>
	<polygon class="st11" points="97.9,62.2 90.7,70.6 79.7,68.6 76.1,58.1 83.3,49.6 94.2,51.7 	"/>
	<path class="st1" d="M90.1,50.9c0.3,0.4,0.6,0.8,0.8,1.3c0,0,0,0,0,0c0,0,0,0,0,0c0,0,0.2,0.5,0.4,0.9c0.2,0.4,0.5,0.9,0.6,1.4
		c0.2,0.7,0.3,1.4,0.4,2.1c0.1,1,0.1,2.1-0.2,3c-0.5,2.1-1.6,4-3.1,5.6c-1.6,1.6-3.6,3.1-5.8,4.1l7.3,1.4l7.2-8.4l-3.7-10.5
		L90.1,50.9z"/>
	<polygon class="st11" points="71.1,88.6 63.8,97 52.9,94.9 49.2,84.4 56.5,76 67.4,78.1 	"/>
	<path class="st1" d="M63.3,77.3c0.3,0.4,0.6,0.8,0.8,1.3c0,0,0,0,0,0c0,0,0,0,0,0c0,0,0.2,0.5,0.4,0.9c0.2,0.4,0.5,0.9,0.6,1.4
		c0.2,0.7,0.3,1.4,0.4,2.1c0.1,1,0.1,2.1-0.2,3c-0.5,2.1-1.6,4-3.1,5.6c-1.6,1.6-3.6,3.1-5.8,4.1l7.3,1.4l7.2-8.4l-3.7-10.5
		L63.3,77.3z"/>
	<g>
		<g>
			<polygon class="st8" points="62.9,35.6 52.4,39.2 44,31.9 46.1,21 56.6,17.4 65,24.6 			"/>
			<path class="st1" d="M61.8,21.9c0.1,0.5,0.1,1,0.1,1.5c0,0,0,0,0,0c0,0,0,0,0,0c0,0,0,0.5-0.1,1c0,0.5-0.1,1-0.2,1.5
				c-0.1,0.7-0.4,1.4-0.7,2c-0.4,0.9-1,1.8-1.6,2.5c-1.5,1.5-3.4,2.7-5.5,3.3c-2.2,0.6-4.7,0.9-7.1,0.7l5.6,4.8l10.5-3.6L65,24.6
				L61.8,21.9z"/>
		</g>
		<g>
			<polygon class="st8" points="79.6,50.3 69.1,53.9 60.7,46.7 62.8,35.7 73.3,32.1 81.7,39.4 			"/>
			<path class="st1" d="M78.5,36.6c0.1,0.5,0.1,1,0.1,1.5c0,0,0,0,0,0c0,0,0,0,0,0c0,0,0,0.5-0.1,1c0,0.5-0.1,1-0.2,1.5
				c-0.1,0.7-0.4,1.4-0.7,2c-0.4,0.9-1,1.8-1.6,2.5c-1.5,1.5-3.4,2.7-5.5,3.3c-2.2,0.6-4.7,0.9-7.1,0.7l5.6,4.8l10.5-3.6l2.1-10.9
				L78.5,36.6z"/>
		</g>
		<g>
			<polygon class="st8" points="58.6,57.4 48.1,61 39.7,53.8 41.8,42.8 52.3,39.2 60.7,46.5 			"/>
			<path class="st1" d="M57.5,43.7c0.1,0.5,0.1,1,0.1,1.5c0,0,0,0,0,0c0,0,0,0,0,0c0,0,0,0.5-0.1,1c0,0.5-0.1,1-0.2,1.5
				c-0.1,0.7-0.4,1.4-0.7,2c-0.4,0.9-1,1.8-1.6,2.5c-1.5,1.5-3.4,2.7-5.5,3.3c-2.2,0.6-4.7,0.9-7.1,0.7l5.6,4.8l10.5-3.6l2.1-10.9
				L57.5,43.7z"/>
		</g>
		<g>
			<polygon class="st8" points="41.8,42.4 31.3,46.1 22.9,38.8 25,27.9 35.5,24.2 43.9,31.5 			"/>
			<path class="st1" d="M40.7,28.7c0.1,0.5,0.1,1,0.1,1.5c0,0,0,0,0,0c0,0,0,0,0,0c0,0,0,0.5-0.1,1c0,0.5-0.1,1-0.2,1.5
				c-0.1,0.7-0.4,1.4-0.7,2c-0.4,0.9-1,1.8-1.6,2.5c-1.5,1.5-3.4,2.7-5.5,3.3c-2.2,0.6-4.7,0.9-7.1,0.7l5.6,4.8l10.5-3.6l2.1-10.9
				L40.7,28.7z"/>
		</g>
		<g>
			<polygon class="st8" points="75.4,72.1 64.9,75.8 56.5,68.5 58.6,57.6 69.1,53.9 77.5,61.2 			"/>
			<path class="st1" d="M74.3,58.5c0.1,0.5,0.1,1,0.1,1.5c0,0,0,0,0,0c0,0,0,0,0,0c0,0,0,0.5-0.1,1c0,0.5-0.1,1-0.2,1.5
				c-0.1,0.7-0.4,1.4-0.7,2c-0.4,0.9-1,1.8-1.6,2.5c-1.5,1.5-3.4,2.7-5.5,3.3c-2.2,0.6-4.7,0.9-7.1,0.7l5.6,4.8l10.5-3.6l2.1-10.9
				L74.3,58.5z"/>
		</g>
		<g>
			<polygon class="st8" points="54.3,79 43.8,82.6 35.4,75.4 37.5,64.4 48,60.8 56.4,68.1 			"/>
			<path class="st1" d="M53.2,65.3c0.1,0.5,0.1,1,0.1,1.5c0,0,0,0,0,0c0,0,0,0,0,0c0,0,0,0.5-0.1,1c0,0.5-0.1,1-0.2,1.5
				c-0.1,0.7-0.4,1.4-0.7,2c-0.4,0.9-1,1.8-1.6,2.5c-1.5,1.5-3.4,2.7-5.5,3.3c-2.2,0.6-4.7,0.9-7.1,0.7l5.6,4.8L54.3,79l2.1-10.9
				L53.2,65.3z"/>
		</g>
		<g>
			<polygon class="st8" points="37.6,64.3 27.1,67.9 18.7,60.6 20.8,49.7 31.3,46.1 39.7,53.3 			"/>
			<path class="st1" d="M36.5,50.6c0.1,0.5,0.1,1,0.1,1.5c0,0,0,0,0,0c0,0,0,0,0,0c0,0,0,0.5-0.1,1c0,0.5-0.1,1-0.2,1.5
				c-0.1,0.7-0.4,1.4-0.7,2c-0.4,0.9-1,1.8-1.6,2.5c-1.5,1.5-3.4,2.7-5.5,3.3c-2.2,0.6-4.7,0.9-7.1,0.7l5.6,4.8l10.5-3.6l2.1-10.9
				L36.5,50.6z"/>
		</g>
	</g>
	<g>
		<polygon class="st16" points="50.6,35.5 46.7,28.7 50.6,22 58.3,22 62.2,28.7 58.3,35.5 		"/>
		<path class="st4" d="M49.4,32.6c0.8-1.7,2-3.3,3.4-4.6c1.9-1.8,4.2-3.2,6.7-4.2L58.3,22h-7.8l-3.9,6.7l2.5,4.3
			C49.3,32.9,49.3,32.8,49.4,32.6z"/>
		<polygon class="st12" points="51.3,34.3 48.1,28.7 51.3,23.2 57.7,23.2 60.9,28.7 57.7,34.3 		"/>
		<path class="st1" d="M56.4,31.6c-0.6,0.6-1.3,1.1-2,1.4c-1.1,0.5-2.1,0.9-3.2,0.9l0.2,0.3h6.4l3.2-5.5L60,27.2
			C59,28.9,57.9,30.4,56.4,31.6z"/>
		<polygon class="st6" points="53.8,28.1 51.8,28.7 50.2,27.2 50.8,25.1 52.8,24.5 54.3,26 		"/>
	</g>
	<g>
		<polygon class="st16" points="67.2,50.4 63.3,43.7 67.2,37 75,37 78.9,43.7 75,50.4 		"/>
		<path class="st4" d="M66,47.6c0.8-1.7,2-3.3,3.4-4.6c1.9-1.8,4.2-3.2,6.7-4.2L75,37h-7.8l-3.9,6.7l2.5,4.3
			C65.9,47.9,65.9,47.7,66,47.6z"/>
		<polygon class="st12" points="67.9,49.3 64.7,43.7 67.9,38.2 74.3,38.2 77.5,43.7 74.3,49.3 		"/>
		<path class="st1" d="M73,46.6c-0.6,0.6-1.3,1.1-2,1.4c-1.1,0.5-2.1,0.9-3.2,0.9l0.2,0.3h6.4l3.2-5.5l-0.9-1.5
			C75.6,43.9,74.5,45.4,73,46.6z"/>
		<polygon class="st6" points="70.5,43 68.4,43.6 66.9,42.2 67.4,40.1 69.4,39.5 71,41 		"/>
	</g>
	<g>
		<polygon class="st16" points="46.3,56.6 42.5,49.8 46.3,43.1 54.1,43.1 58,49.8 54.1,56.6 		"/>
		<path class="st4" d="M45.2,53.7c0.8-1.7,2-3.3,3.4-4.6c1.9-1.8,4.2-3.2,6.7-4.2l-1.1-1.8h-7.8l-3.9,6.7l2.5,4.3
			C45,54,45.1,53.9,45.2,53.7z"/>
		<polygon class="st12" points="47,55.4 43.8,49.8 47,44.3 53.4,44.3 56.6,49.8 53.4,55.4 		"/>
		<path class="st1" d="M52.1,52.7c-0.6,0.6-1.3,1.1-2,1.4C49,54.7,48,55,46.9,55.1l0.2,0.3h6.4l3.2-5.5l-0.9-1.5
			C54.7,50,53.6,51.5,52.1,52.7z"/>
		<polygon class="st6" points="49.6,49.2 47.6,49.8 46,48.3 46.5,46.2 48.6,45.6 50.1,47.1 		"/>
	</g>
	<g>
		<polygon class="st16" points="63.1,71.7 59.2,65 63.1,58.3 70.8,58.3 74.7,65 70.8,71.7 		"/>
		<path class="st4" d="M61.9,68.9c0.8-1.7,2-3.3,3.4-4.6c1.9-1.8,4.2-3.2,6.7-4.2l-1.1-1.8h-7.8L59.2,65l2.5,4.3
			C61.8,69.2,61.8,69,61.9,68.9z"/>
		<polygon class="st12" points="63.8,70.5 60.6,65 63.8,59.4 70.2,59.4 73.4,65 70.2,70.5 		"/>
		<path class="st1" d="M68.9,67.9c-0.6,0.6-1.3,1.1-2,1.4c-1.1,0.5-2.1,0.9-3.2,0.9l0.2,0.3h6.4l3.2-5.5l-0.9-1.5
			C71.5,65.2,70.4,66.7,68.9,67.9z"/>
		<polygon class="st6" points="66.3,64.3 64.3,64.9 62.7,63.4 63.3,61.4 65.3,60.8 66.8,62.2 		"/>
	</g>
	<g>
		<polygon class="st16" points="29.5,42.2 25.7,35.5 29.5,28.7 37.3,28.7 41.2,35.5 37.3,42.2 		"/>
		<path class="st4" d="M28.4,39.3c0.8-1.7,2-3.3,3.4-4.6c1.9-1.8,4.2-3.2,6.7-4.2l-1.1-1.8h-7.8l-3.9,6.7l2.5,4.3
			C28.2,39.6,28.3,39.5,28.4,39.3z"/>
		<polygon class="st12" points="30.2,41 27,35.5 30.2,29.9 36.6,29.9 39.8,35.5 36.6,41 		"/>
		<path class="st1" d="M35.3,38.3c-0.6,0.6-1.3,1.1-2,1.4c-1.1,0.5-2.1,0.9-3.2,0.9l0.2,0.3h6.4l3.2-5.5L39,34
			C38,35.6,36.9,37.2,35.3,38.3z"/>
		<polygon class="st6" points="32.8,34.8 30.8,35.4 29.2,33.9 29.7,31.8 31.8,31.2 33.3,32.7 		"/>
	</g>
	<g>
		<polygon class="st16" points="25.3,63.3 21.4,56.6 25.3,49.8 33,49.8 36.9,56.6 33,63.3 		"/>
		<path class="st4" d="M24.1,60.5c0.8-1.7,2-3.3,3.4-4.6c1.9-1.8,4.2-3.2,6.7-4.2L33,49.8h-7.8l-3.9,6.7l2.5,4.3
			C24,60.7,24,60.6,24.1,60.5z"/>
		<polygon class="st12" points="26,62.1 22.8,56.6 26,51 32.4,51 35.6,56.6 32.4,62.1 		"/>
		<path class="st1" d="M31.1,59.4c-0.6,0.6-1.3,1.1-2,1.4c-1.1,0.5-2.1,0.9-3.2,0.9l0.2,0.3h6.4l3.2-5.5l-0.9-1.5
			C33.7,56.7,32.6,58.3,31.1,59.4z"/>
		<polygon class="st6" points="28.5,55.9 26.5,56.5 24.9,55 25.5,52.9 27.5,52.3 29,53.8 		"/>
	</g>
	<g>
		<polygon class="st16" points="42.1,78.4 38.2,71.7 42.1,65 49.9,65 53.8,71.7 49.9,78.4 		"/>
		<path class="st4" d="M40.9,75.6c0.8-1.7,2-3.3,3.4-4.6c1.9-1.8,4.2-3.2,6.7-4.2L49.9,65h-7.8l-3.9,6.7l2.5,4.3
			C40.8,75.9,40.9,75.8,40.9,75.6z"/>
		<polygon class="st12" points="42.8,77.3 39.6,71.7 42.8,66.2 49.2,66.2 52.4,71.7 49.2,77.3 		"/>
		<path class="st1" d="M47.9,74.6c-0.6,0.6-1.3,1.1-2,1.4c-1.1,0.5-2.1,0.9-3.2,0.9l0.2,0.3h6.4l3.2-5.5l-0.9-1.5
			C50.5,71.9,49.4,73.4,47.9,74.6z"/>
		<polygon class="st6" points="45.4,71 43.3,71.6 41.8,70.2 42.3,68.1 44.3,67.5 45.9,69 		"/>
	</g>
</g>
</svg>
