<svg xmlns="http://www.w3.org/2000/svg" width="250" height="200" viewBox="0 0 250 200"><title>2Artboard 1</title><ellipse cx="125.55" cy="157.44" rx="12.85" ry="13.45" fill="#fcc00d"/><ellipse cx="73.59" cy="156.27" rx="12.85" ry="13.45" fill="#fcc00d"/><ellipse cx="177.51" cy="158.02" rx="12.85" ry="13.45" fill="#fcc00d"/><path d="M152.43,100.26a109.26,109.26,0,0,1-26.88,3.18,109.14,109.14,0,0,1-26.88-3.18L19.5,126.31l9.22,13.13A42.7,42.7,0,0,0,61,157l40.66,2.64a371,371,0,0,0,47.86,0L190.13,157a42.67,42.67,0,0,0,32.24-17.59l9.22-13.13Z" fill="#9e9e9e"/><path d="M238.3,95.33C217.71,84.5,175,77.05,125.55,77.05S33.38,84.5,12.79,95.33a13.48,13.48,0,0,0-3.33,2.49c12.06,29.39,116.09,29.94,116.09,29.94s104-.55,116.09-29.94A13.54,13.54,0,0,0,238.3,95.33Z" fill="#9e9e9e"/><path d="M241.64,97.82c-12.07,29.39-116.09,29.94-116.09,29.94s-104-.55-116.09-29.94a13.64,13.64,0,0,0-3.92,9.57v5.1a13.62,13.62,0,0,0,7.25,12.06c20.59,10.83,63.35,18.28,112.76,18.28s92.16-7.45,112.75-18.28a13.6,13.6,0,0,0,7.25-12.06v-5.1A13.67,13.67,0,0,0,241.64,97.82Z" fill="#6e6e6d"/><path d="M177.51,68.07c0-25.65-23.27-46.44-52-46.44s-52,20.79-52,46.44V80a444.84,444.84,0,0,1,52-2.93,445,445,0,0,1,52,2.93Z" fill="#96d6f7"/><path d="M88.78,83c8.3-3.63,21.67-6,36.77-6a444.84,444.84,0,0,0-52,2.93v1.35c0,3.85,2.31,7.46,6.36,10.61,0-.07,0-.14,0-.22C79.94,88.47,83.22,85.47,88.78,83Z" fill="#67c2e6"/><path d="M125.55,77.05c15.09,0,28.46,2.36,36.76,6,5.56,2.43,8.85,5.43,8.85,8.68,0,.08,0,.15,0,.22,4.06-3.15,6.37-6.76,6.37-10.61V80A445,445,0,0,0,125.55,77.05Z" fill="#67c2e6"/><path d="M162.31,83c-8.3-3.63-21.67-6-36.76-6s-28.47,2.36-36.77,6c-5.56,2.43-8.84,5.43-8.84,8.68,0,.08,0,.15,0,.22,8.83,6.86,25.94,11.5,45.6,11.5s36.76-4.64,45.59-11.5c0-.07,0-.14,0-.22C171.16,88.47,167.87,85.47,162.31,83Z" fill="#2973ae"/><ellipse cx="125.55" cy="118.04" rx="4.79" ry="5.75" fill="#8abf44"/><ellipse cx="93.04" cy="115.43" rx="5.75" ry="4.79" transform="translate(-43.48 173.26) rotate(-74.09)" fill="#8abf44"/><ellipse cx="64.06" cy="108.82" rx="5.75" ry="4.79" transform="translate(-61.09 92.07) rotate(-51.89)" fill="#8abf44"/><ellipse cx="36.9" cy="100.07" rx="6.29" ry="4.79" transform="translate(-62.45 61.27) rotate(-48.42)" fill="#8abf44"/><ellipse cx="158.06" cy="115.43" rx="4.79" ry="5.75" transform="translate(-25.59 47.75) rotate(-15.91)" fill="#8abf44"/><ellipse cx="187.03" cy="108.82" rx="4.79" ry="5.75" transform="translate(-27.29 138.62) rotate(-38.11)" fill="#8abf44"/><ellipse cx="214.19" cy="100.07" rx="4.79" ry="6.29" transform="translate(-12.45 167.36) rotate(-41.58)" fill="#8abf44"/><path d="M120.76,87.47,120.71,93a3.63,3.63,0,0,1-3,3.55l-10.08,1.67a72.71,72.71,0,0,0-8.85,2,109.18,109.18,0,0,0,26.8,3.16v-16Z" fill="#639e33"/><path d="M133.3,96.63a3.62,3.62,0,0,1-3-3.55l-.05-5.54h-4.79v15.9h.12a109.33,109.33,0,0,0,26.62-3.12,73.15,73.15,0,0,0-8.79-2Z" fill="#639e33"/><path d="M125.55,46.5a20.66,20.66,0,0,0-20.66,20.66c0,3.74,1.73,7.5,4.21,10.88,5.09,6.93,13.36,12.21,16.45,12.21S136.9,85,142,78c2.49-3.38,4.22-7.14,4.22-10.88A20.66,20.66,0,0,0,125.55,46.5Z" fill="#8abf44"/><path d="M120.08,64.54c3.8,3.79,5.34,8.41,3.44,10.31s-6.52.36-10.31-3.44S107.87,63,109.77,61.1,116.28,60.74,120.08,64.54Z" fill="#4b7b2f"/><path d="M131,64.54c-3.79,3.79-5.33,8.41-3.44,10.31s6.52.36,10.32-3.44,5.33-8.41,3.43-10.31S134.81,60.74,131,64.54Z" fill="#4b7b2f"/><path d="M128.35,80.87a4.27,4.27,0,0,1-2.8.87,4.21,4.21,0,0,1-2.8-.87A1.22,1.22,0,0,0,121,82.6a7.25,7.25,0,0,0,9,0,1.21,1.21,0,0,0,0-1.7A1.22,1.22,0,0,0,128.35,80.87Z" fill="#4b7b2f"/></svg>