<?xml version="1.0" encoding="utf-8"?>
<!-- Generator: Adobe Illustrator 20.1.0, SVG Export Plug-In . SVG Version: 6.00 Build 0)  -->
<svg version="1.1" id="Layer_1" xmlns="http://www.w3.org/2000/svg" xmlns:xlink="http://www.w3.org/1999/xlink" x="0px" y="0px"
	 viewBox="0 0 226.8 226.8" style="enable-background:new 0 0 226.8 226.8;" xml:space="preserve">
<style type="text/css">
	.st0{fill:#50ABF1;}
	.st1{fill:#E9586E;}
	.st2{fill:#DA9E80;}
	.st3{fill:#C3694B;}
	.st4{fill:#FFCD3E;}
	.st5{fill:#FFAD1A;}
	.st6{fill:#98AAB6;}
	.st7{fill:#667580;}
	.st8{fill:#5ABB35;}
	.st9{fill:#5A9235;}
	.st10{fill:#FF4A65;}
	.st11{clip-path:url(#SVGID_2_);}
	.st12{fill:#ED3652;}
	.st13{clip-path:url(#SVGID_2_);fill:#ED3652;}
	.st14{fill:#E03851;}
	.st15{clip-path:url(#SVGID_4_);fill:none;stroke:#ED3652;stroke-width:4.977;stroke-miterlimit:10;}
	.st16{clip-path:url(#SVGID_4_);}
	.st17{fill:#6B6964;}
	.st18{fill:#E0DAC5;}
	.st19{fill:#F2EEE2;}
	.st20{fill:#F2E5BD;}
	.st21{fill:#FFFFFF;}
	.st22{fill:none;stroke:#6B6964;stroke-width:3;stroke-linecap:round;stroke-miterlimit:10;}
	.st23{fill:#733E2C;}
	.st24{fill:#A8583C;}
	.st25{fill:#49A825;}
	.st26{fill:#FFD362;}
	.st27{fill:#FF3A5A;}
	.st28{fill:#FF5C75;}
	.st29{fill:#6ADB3E;}
	.st30{fill:#72EB42;}
</style>
<g>
	<path class="st3" d="M134.7,165.2v39.6c0,1.9-0.8,3.6-2.1,4.9c0,0,0,0,0,0c-1.2,1.2-2.9,1.9-4.7,1.9H98.8c-1.8,0-3.5-0.7-4.7-1.9
		c0,0,0,0,0,0c-1.3-1.2-2.1-3-2.1-4.9v-39.6H134.7z"/>
	<rect x="92" y="165.2" class="st24" width="42.7" height="25"/>
	<g>
		<path class="st8" d="M170.9,181.6h-115c-6.2,0-9.8-7-6.3-12l19.2-27.3l8.2-11.7l2.7-3.9L105.7,90l1.4-2c3-4.3,9.4-4.3,12.5,0
			l1.4,2l25.9,36.7l2.7,3.9l8.2,11.7l19.2,27.3C180.7,174.6,177.1,181.6,170.9,181.6z"/>
		<path class="st25" d="M166.8,126.7v1.5c-1.4,1.4-3.3,2.3-5.5,2.3h-11.6l8.2,11.7h-89l8.2-11.7H65.5c-2.8,0-5-1.4-6.4-3.4v-0.5
			H166.8z"/>
		<path class="st8" d="M166.8,129.6c-1.4,1.4-3.3,2.3-5.5,2.3H65.5c-2.8,0-5-1.4-6.4-3.4c-1.6-2.5-1.9-5.8,0.1-8.6l20.1-28.6
			l11-15.6L107.1,52c3-4.3,9.4-4.3,12.5,0l16.8,23.8l11,15.6l20.1,28.6C169.8,123.2,169.2,127.2,166.8,129.6z"/>
		<polygon class="st25" points="147.4,91.4 79.4,91.4 90.3,75.8 136.4,75.8 		"/>
		<path class="st8" d="M72,71.2l38.3-54.4c1.5-2.1,4.6-2.1,6.1,0l38.3,54.4c3.6,5.1-0.1,12-6.2,12H78.3C72.1,83.2,68.5,76.2,72,71.2
			z"/>
	</g>
</g>
</svg>
