<?xml version="1.0" encoding="utf-8"?>
<!-- Generator: Adobe Illustrator 20.1.0, SVG Export Plug-In . SVG Version: 6.00 Build 0)  -->
<svg version="1.1" id="Layer_1" xmlns="http://www.w3.org/2000/svg" xmlns:xlink="http://www.w3.org/1999/xlink" x="0px" y="0px"
	 viewBox="0 0 226.8 226.8" style="enable-background:new 0 0 226.8 226.8;" xml:space="preserve">
<style type="text/css">
	.st0{fill:#50ABF1;}
	.st1{fill:#E9586E;}
	.st2{fill:#DA9E80;}
	.st3{fill:#C3694B;}
	.st4{fill:#FFCD3E;}
	.st5{fill:#FFAD1A;}
	.st6{fill:#98AAB6;}
	.st7{fill:#667580;}
	.st8{fill:#5ABB35;}
	.st9{fill:#5A9235;}
	.st10{fill:#FF4A65;}
	.st11{clip-path:url(#SVGID_2_);}
	.st12{fill:#ED3652;}
	.st13{clip-path:url(#SVGID_2_);fill:#ED3652;}
	.st14{fill:#E03851;}
	.st15{clip-path:url(#SVGID_4_);fill:none;stroke:#ED3652;stroke-width:4.977;stroke-miterlimit:10;}
	.st16{clip-path:url(#SVGID_4_);}
	.st17{fill:#6B6964;}
	.st18{fill:#E0DAC5;}
	.st19{fill:#F2EEE2;}
	.st20{fill:#F2E5BD;}
	.st21{fill:#FFFFFF;}
	.st22{fill:none;stroke:#6B6964;stroke-width:3;stroke-linecap:round;stroke-miterlimit:10;}
	.st23{fill:#733E2C;}
	.st24{fill:#A8583C;}
	.st25{fill:#49A825;}
	.st26{fill:#FFD362;}
	.st27{fill:#FF3A5A;}
	.st28{fill:#FF5C75;}
	.st29{fill:#6ADB3E;}
	.st30{fill:#72EB42;}
</style>
<g>
	<g>
		<path class="st27" d="M182.9,205.5h-139c-4.5,0-8.2-3.7-8.2-8.2V96.9h155.5v100.4C191.1,201.9,187.4,205.5,182.9,205.5z"/>
		<path class="st28" d="M192.4,107.3H34.4c-4.5,0-8.2-3.7-8.2-8.2V69.3c0-4.5,3.7-8.2,8.2-8.2h157.9c4.5,0,8.2,3.7,8.2,8.2v29.8
			C200.6,103.6,196.9,107.3,192.4,107.3z"/>
	</g>
	<rect x="95.2" y="61" class="st29" width="36.4" height="144.5"/>
	<rect x="95.2" y="61" class="st30" width="36.4" height="47.2"/>
	<g>
		<g>
			<path class="st29" d="M113.4,61.1h-7.9c-3.6-5.9-8-12.4-11.3-15.7c-2.4-2.4-5.6-3.7-9-3.7c-3.4,0-6.6,1.3-9,3.7
				c-4.3,4.3-4.9,10.8-1.6,15.7H58.1c-9.2-9.2-9.2-23.8,0-33c9.2-9.2,24-9.2,33.2,0C100.5,37.3,113.4,61.1,113.4,61.1z"/>
		</g>
		<g>
			<path class="st29" d="M168.7,61.1h-16.6c3.2-4.9,2.7-11.4-1.6-15.7c-2.4-2.4-5.6-3.7-9-3.7c-3.4,0-6.6,1.3-9,3.7
				c-3.3,3.3-7.7,9.8-11.3,15.7h-7.9c0,0,12.9-23.8,22.1-33c9.2-9.2,24-9.2,33.2,0C177.8,37.3,177.8,51.9,168.7,61.1z"/>
		</g>
	</g>
</g>
</svg>
