<svg xmlns="http://www.w3.org/2000/svg" width="150" height="150" viewBox="0 0 36 36"><title>2Artboard 1</title><path fill="#dd2e44" d="M16.65,13.2a4.66,4.66,0,0,0-8.88.25A4.67,4.67,0,0,0,.69,18.83a5.34,5.34,0,0,0,.47,1c2,3.58,7.59,6.1,11,6.13,2.63-2.17,5.44-7.67,4.71-11.68A4.73,4.73,0,0,0,16.65,13.2Z"/><path fill="#dd2e44" d="M19.35,13.2a4.66,4.66,0,0,1,8.88.25,4.67,4.67,0,0,1,7.08,5.38,5.34,5.34,0,0,1-.47,1c-2,3.58-7.59,6.1-11,6.13-2.63-2.17-5.44-7.67-4.71-11.68A4.73,4.73,0,0,1,19.35,13.2Z"/></svg>