<?xml version="1.0" standalone="no"?>
<!DOCTYPE svg PUBLIC "-//W3C//DTD SVG 1.1//EN" "http://www.w3.org/Graphics/SVG/1.1/DTD/svg11.dtd" >
<svg xmlns="http://www.w3.org/2000/svg">
<metadata>Generated by IcoMoon</metadata>
<defs>
<font id="icomoon" horiz-adv-x="1024">
<font-face units-per-em="1024" ascent="960" descent="-64" />
<missing-glyph horiz-adv-x="1024" />
<glyph unicode="&#x20;" horiz-adv-x="512" d="" />
<glyph unicode="&#xe600;" glyph-name="code" d="M257.964 339.884l-108.118 108.118 108.118 108.14c24.236 24.234 24.236 63.53 0 87.764s-63.532 24.236-87.764 0l-152.020-152.020c-11.628-11.648-18.176-27.436-18.176-43.904s6.55-32.278 18.176-43.904l152.020-151.956c12.116-12.116 28.010-18.176 43.884-18.176s31.766 6.058 43.884 18.176c24.256 24.236 24.256 63.51 0 87.764zM1005.824 491.86l-152.020 152.020c-24.236 24.236-63.53 24.236-87.764 0s-24.236-63.532 0-87.764l108.14-108.14-108.14-108.116c-24.236-24.236-24.236-63.53 0-87.764 12.116-12.116 27.968-18.176 43.884-18.176s31.764 6.058 43.884 18.176l152.020 151.956c11.626 11.668 18.176 27.476 18.176 43.924 0 16.468-6.548 32.256-18.176 43.882zM728.512 810.028c-29.376 17.556-67.5 8.042-85.14-21.42l-369.3-617.514c-17.558-29.44-8-67.542 21.44-85.14 9.984-5.972 20.95-8.768 31.808-8.768 21.098 0 41.706 10.774 53.332 30.208l369.28 617.514c17.558 29.44 8 67.52-21.418 85.12z" />
<glyph unicode="&#xe601;" glyph-name="user" d="M542.656 411.552c80.448 29.248 138.848 116.832 138.848 220.32 0 127.424-88.544 230.72-197.76 230.72s-197.76-103.296-197.76-230.72c0-110.208 66.272-202.24 154.848-225.12-153.056-25.888-267.84-133.408-267.84-262.208 0-148.16 678.048-148.16 678.048 0-0.032 139.936-135.552 254.72-308.384 267.008z" />
<glyph unicode="&#xe602;" glyph-name="tick" d="M724.14 671.958c-41.26 22.954-93.226 8.020-116.052-33.152l-158.42-285.1-90.666 90.668c-33.322 33.324-87.338 33.324-120.662 0s-33.324-87.34 0-120.66l170.666-170.668c16.128-16.172 37.888-25.044 60.332-25.044 3.926 0 7.892 0.256 11.82 0.852 26.496 3.712 49.748 19.626 62.762 43.052l213.332 384c22.912 41.216 8.064 93.14-33.11 116.052z" />
<glyph unicode="&#xe603;" glyph-name="play" d="M770.432 488.64l-450.112 359.232c-34.272 28-96.32 3.648-96.32-40.608v-718.496c0-44.256 62.048-68.608 96.32-40.608l444.8 359.232c25.664 20.992 30.976 60.256 5.312 81.248z" />
<glyph unicode="&#xe604;" glyph-name="app-kano-draw" d="M1006.506 753.558c-4.692 39.552-41.578 74.56-81.088 77.588-275.628 20.076-551.212 20.076-826.816 0-39.53-3.028-76.416-38.038-81.108-77.588-23.318-203.692-23.318-407.424 0-611.116 4.692-39.552 41.58-74.602 81.088-77.588 275.628-20.076 551.212-20.076 826.816 0 39.53 3.008 76.416 38.016 81.088 77.588 23.34 203.692 23.34 407.424 0.020 611.116zM338.432 681.558c43.008 0 77.888-34.88 77.888-77.888s-34.88-77.888-77.888-77.888-77.888 34.88-77.888 77.888 34.88 77.888 77.888 77.888zM885.034 182.848c0 0-180.5-20.928-383.36-20.928s-383.36 20.928-383.36 20.928l221.676 220.096 106.796-106.134 247.744 246.89 209.92-207.744c0-90.836-19.414-153.11-19.414-153.11z" />
<glyph unicode="&#xe606;" glyph-name="gear" d="M942.464 489.504l-48.864 148.384c-4.288 13.056-17.152 21.504-31.008 20.48l-95.648-7.264c-34.080 38.176-76.384 68.16-123.68 87.712l-22.816 93.088c-3.296 13.344-15.392 22.752-29.312 22.752h-158.144c-13.952 0-26.048-9.408-29.312-22.752l-22.816-93.088c-47.424-19.584-89.696-49.568-123.776-87.712l-95.68 7.264c-13.888 1.056-26.688-7.424-31.008-20.48l-48.896-148.384c-4.288-13.056 1.024-27.328 12.896-34.528l78.624-47.712c3.584-53.664 20.032-105.312 48.16-151.104l-34.272-82.016c-5.312-12.704-1.12-27.328 10.144-35.392l127.968-91.712c11.264-8.096 26.688-7.488 37.28 1.408l66.816 56.064c54.112-13.408 111.68-13.408 165.76 0l66.784-56.064c5.632-4.736 12.576-7.104 19.552-7.104 6.208 0 12.448 1.888 17.728 5.696l127.936 91.712c11.264 8.064 15.456 22.72 10.176 35.392l-34.272 82.016c28.096 45.792 44.576 97.44 48.16 151.104l78.624 47.712c11.872 7.2 17.216 21.472 12.896 34.528zM512 253.76c-98.464 0-178.272 78.72-178.272 175.84s79.84 175.84 178.272 175.84c98.432 0 178.272-78.72 178.272-175.84s-79.808-175.84-178.272-175.84z" />
<glyph unicode="&#xe608;" glyph-name="dashboard" d="M273.12 793.088h-53.12c-29.312 0-53.12-23.776-53.12-53.088v-53.12c0-29.312 23.776-53.12 53.12-53.12h53.12c29.312 0 53.12 23.776 53.12 53.12v53.088c0 29.312-23.808 53.12-53.12 53.12zM273.12 527.648h-53.12c-29.312 0-53.12-23.776-53.12-53.12v-53.12c0-29.312 23.776-53.12 53.12-53.12h53.12c29.312 0 53.12 23.776 53.12 53.12v53.12c0 29.344-23.808 53.12-53.12 53.12zM273.12 262.208h-53.12c-29.312 0-53.12-23.776-53.12-53.12v-53.12c0-29.312 23.776-53.12 53.12-53.12h53.12c29.312 0 53.12 23.776 53.12 53.12v53.12c0 29.312-23.808 53.12-53.12 53.12zM538.528 793.088h-53.12c-29.312 0-53.12-23.776-53.12-53.088v-53.12c0-29.312 23.776-53.12 53.12-53.12h53.12c29.312 0 53.12 23.776 53.12 53.12v53.088c0 29.312-23.776 53.12-53.12 53.12zM538.528 527.648h-53.12c-29.312 0-53.12-23.776-53.12-53.12v-53.12c0-29.312 23.776-53.12 53.12-53.12h53.12c29.312 0 53.12 23.776 53.12 53.12v53.12c0 29.344-23.776 53.12-53.12 53.12zM538.528 262.208h-53.12c-29.312 0-53.12-23.776-53.12-53.12v-53.12c0-29.312 23.776-53.12 53.12-53.12h53.12c29.312 0 53.12 23.776 53.12 53.12v53.12c0 29.312-23.776 53.12-53.12 53.12zM804 793.088h-53.12c-29.312 0-53.088-23.776-53.088-53.088v-53.12c0-29.312 23.744-53.12 53.088-53.12h53.12c29.312 0 53.12 23.776 53.12 53.12v53.088c-0.064 29.312-23.84 53.12-53.12 53.12zM804 527.648h-53.12c-29.312 0-53.088-23.776-53.088-53.12v-53.12c0-29.312 23.744-53.12 53.088-53.12h53.12c29.312 0 53.12 23.776 53.12 53.12v53.12c-0.064 29.344-23.84 53.12-53.12 53.12zM804 262.208h-53.12c-29.312 0-53.088-23.776-53.088-53.12v-53.12c0-29.312 23.744-53.12 53.088-53.12h53.12c29.312 0 53.12 23.776 53.12 53.12v53.12c-0.064 29.312-23.84 53.12-53.12 53.12z" />
<glyph unicode="&#xe60a;" glyph-name="app-make-minecraft" d="M84.308 499.414v-329.002l427.692-234.412 427.692 234.412v329.002l-427.692-234.412zM512 960l-427.69-234.412v-127.488l427.69-234.41 427.692 234.412v127.488z" />
<glyph unicode="&#xe60b;" glyph-name="app-make-music" d="M271.36 883.948v-660.032c-33.002 11.092-71.040 14.080-110.166 6.080-99.114-20.308-166.188-101.568-149.802-181.462s109.996-128.214 209.11-107.884c92.758 19.008 157.44 91.414 151.914 166.1l0.342-0.298v483.094l540.864 55.764v-332.372c-33.004 11.092-71.040 14.080-110.164 6.058-99.116-20.308-166.188-101.568-149.802-181.462s109.996-128.212 209.11-107.884c84.010 17.216 144.788 78.25 151.444 145.11l0.812-0.726v785.962l-743.658-76.052z" />
<glyph unicode="&#xe60c;" glyph-name="app-make-pong" d="M278.572 657.62c-14.464 29.504-50.092 41.706-79.594 27.264l-127.808-62.592c-29.504-14.464-41.708-50.092-27.264-79.596l278.1-567.788c14.442-29.504 50.092-41.706 79.596-27.264l127.808 62.592c29.504 14.464 41.706 50.092 27.264 79.596l-278.1 567.788zM935.040 933.802l-140.884 20.052c-32.534 4.63-62.656-17.984-67.284-50.518l-89.068-625.942c-4.63-32.534 17.984-62.656 50.518-67.284l140.884-20.052c32.534-4.63 62.656 17.984 67.284 50.518l89.068 625.942c4.63 32.534-17.984 62.656-50.518 67.284z" />
<glyph unicode="&#xe60d;" glyph-name="bookmark" d="M512 847.936h-275.040c-16 0-28.96-16.16-28.96-36.064v-727.712c0-28.448 25.216-45.696 44.512-30.432l243.968 193.248c9.472 7.52 21.6 7.52 31.072 0l243.968-193.248c19.264-15.264 44.512 1.984 44.512 30.432v727.712c0 19.904-12.96 36.064-28.96 36.064h-275.072z" />
<glyph unicode="&#xe60e;" glyph-name="bolt" d="M449.568 43.136l273.632 381.76c12.64 17.632 15.52 40.256 7.712 60.448-7.808 20.224-25.12 35.040-46.368 39.616l-86.752 18.656 55.52 258.4c6.432 30.080-9.408 60.576-37.696 72.544-7.968 3.36-16.384 5.088-24.992 5.088-21.472 0-41.408-10.656-53.312-28.48l-237.696-355.488c-11.84-17.664-14.112-39.968-6.144-59.712 8-19.68 25.184-34.112 45.952-38.592l57.76-12.416-62.464-291.008c-6.336-29.536 9.12-59.84 36.736-72.064 8.224-3.648 16.96-5.504 25.952-5.504 20.64-0.032 40.128 9.984 52.16 26.752z" />
<glyph unicode="&#xe60f;" glyph-name="badge" d="M813.664 572.928c-17.984 43.424 2.592 113.888-30.112 146.592-32.736 32.704-103.2 12.128-146.592 30.112-41.92 17.376-76.8 82.368-124.96 82.368s-83.040-64.992-124.928-82.368c-43.424-17.984-113.888 2.592-146.592-30.112-32.736-32.736-12.128-103.2-30.144-146.592-17.344-41.888-82.336-76.768-82.336-124.928s64.992-83.072 82.336-124.928c18.016-43.424-2.592-113.888 30.112-146.592 32.736-32.736 103.2-12.128 146.592-30.112 41.92-17.408 76.8-82.368 124.96-82.368s83.040 64.992 124.928 82.368c43.424 17.984 113.888-2.592 146.592 30.112 32.736 32.704 12.128 103.168 30.112 146.592 17.376 41.856 82.368 76.768 82.368 124.928s-64.992 83.040-82.336 124.928z" />
<glyph unicode="&#xe610;" glyph-name="badge-kano" d="M849.28 587.68c-20.128 48.544 2.912 127.328-33.664 163.904s-115.36 13.536-163.904 33.664c-46.848 19.424-85.856 92.096-139.712 92.096s-92.864-72.672-139.68-92.096c-48.544-20.096-127.328 2.912-163.904-33.664s-13.568-115.36-33.696-163.904c-19.392-46.816-92.064-85.824-92.064-139.68s72.672-92.864 92.064-139.68c20.128-48.544-2.912-127.328 33.696-163.904 36.576-36.576 115.36-13.536 163.904-33.664 46.816-19.424 85.856-92.096 139.68-92.096s92.864 72.672 139.68 92.096c48.544 20.128 127.328-2.912 163.904 33.664s13.568 115.36 33.696 163.904c19.424 46.816 92.064 85.824 92.064 139.68s-72.64 92.864-92.064 139.68zM631.296 338.336c7.136-7.168 10.72-15.648 10.72-25.472s-3.584-18.496-10.72-26.016c-7.136-6.784-15.648-10.176-25.472-10.176-9.856 0-18.496 3.392-26.016 10.176l-124.928 110.464v-84.192c0-10.016-3.488-18.496-10.432-25.472-6.976-6.944-15.648-10.464-26.016-10.464-10.016 0-18.592 3.488-25.728 10.464-7.168 6.976-10.72 15.456-10.72 25.472v270.24c0 9.664 3.552 18.048 10.72 25.184 7.136 7.136 15.712 10.72 25.728 10.72 10.368 0 19.040-3.584 26.016-10.72s10.432-15.552 10.432-25.184v-84.16l124.928 109.376c7.52 7.136 16.16 10.72 26.016 10.72 9.824 0 18.304-3.584 25.472-10.72 7.136-7.136 10.72-15.648 10.72-25.472s-3.584-18.336-10.72-25.472l-125.472-109.376 125.472-109.92z" />
<glyph unicode="&#xe611;" glyph-name="reload" d="M589.568 807.254c-191.404 0-349.654-133.036-373.676-320.556l-162.048 31.36 159.488-235.904 235.904 159.36-148.352 28.716c20.096 120.362 144.596 251.648 291.84 251.648 160.854 0 292.096-137.856 292.096-298.752s-160.428-291.754-288.428-291.754v-85.332c213.332 0 373.76 172.672 373.76 380.586s-172.672 380.63-380.586 380.63z" />
<glyph unicode="&#xe613;" glyph-name="attachment" d="M903.212 737.834l-120.662 120.662c-83.2 83.156-218.538 83.156-301.696 0l-422.4-422.358 60.332-60.332 422.4 422.358c49.92 49.92 131.116 49.92 180.992 0l120.704-120.704c49.92-49.876 49.92-131.072 0-180.992l-422.358-422.358c-54.4-54.4-114.902-66.092-131.116-49.92l-19.754 19.712-96.17 96.172c-7.51 7.51-1.366 47.744 20.736 69.846l422.272 422.272c4.948 4.908 45.312-15.104 75.434-45.27v0c-13.184-13.184-10.112-10.154-15.062-15.104l-306.432-306.39 60.332-60.332 306.432 306.39c36.48 36.438 81.836 69.036 15.104 135.766v0c-66.688 66.73-133.846 107.52-196.096 45.27l-422.4-422.272c-49.836-49.92-69.248-141.908-20.65-190.508l65.92-66.004 50.004-49.92c56.576-56.576 167.168-34.644 251.734 49.92l422.358 422.358c83.2 83.2 83.2 218.538 0.044 301.738z" />
<glyph unicode="&#xe614;" glyph-name="tag" d="M938.068 562.304l-120.96 376.020-390.656-120.746-341.164-630.486 503.38-272.084 340.308 628.948c0.256 0.428 0.512 0.896 0.726 1.28l9.044 16.726-0.682 0.34zM756.48 583.040c-30.804-57.088-102.1-78.336-159.232-47.488-57.13 30.932-78.336 102.186-47.446 159.188 30.848 57.132 102.23 78.336 159.274 47.488 57.088-30.848 78.336-102.144 47.404-159.188z" />
<glyph unicode="&#xe615;" glyph-name="chat" d="M819.2 819.2h-614.4c-56.32 0-102.4-46.080-102.4-102.4v-358.4c0-56.32 46.080-102.4 102.4-102.4h204.8l204.8-153.6v153.6h204.8c56.32 0 102.4 46.080 102.4 102.4v358.4c0 56.32-46.080 102.4-102.4 102.4z" />
<glyph unicode="&#xe616;" glyph-name="lock" d="M810.668 554.666v128c0 85.332-85.332 213.332-298.668 213.332s-298.666-128-298.666-213.332v-128h-85.332v-469.334c0-70.572 57.43-128 128-128h512c70.572 0 128 57.428 128 128v469.334h-85.332zM298.666 725.334c0 0 42.666 85.334 213.334 85.334s213.332-85.334 213.332-85.334v-170.666h-426.666v170.666zM810.668 85.334c0-23.51-19.116-42.668-42.668-42.668h-512c-23.552 0-42.668 19.158-42.668 42.668v384h597.332v-384zM469.334 225.152v-97.152h85.334v97.152c25.428 14.804 42.668 41.984 42.668 73.514 0 47.104-38.23 85.332-85.332 85.332s-85.332-38.23-85.332-85.332c0-31.488 17.238-58.71 42.668-73.514z" />
<glyph unicode="&#xe617;" glyph-name="megaphone" d="M330.24 213.334l523.092-170.668v768l-523.092-170.668h-159.574c-70.57 0-128-57.428-128-128v-170.668c0-70.572 57.43-128 128-128h18.218c-0.044-1.068-0.128-2.004-0.128-3.072-0.044-27.264 2.772-64.596 15.616-102.826 6.912-18.9 15.532-38.188 27.348-55.168 5.888-8.49 11.562-16.896 18.56-23.85 6.7-7.168 12.844-14.422 19.84-19.584 13.312-11.562 25.686-19.754 34.816-24.404 9.13-5.076 14.294-8.064 14.294-8.064l1.58-0.896c8.022-4.438 17.024-7.424 26.752-8.49 39.252-4.438 74.624 23.85 79.020 63.104s-23.894 74.582-63.104 79.104c0 0-2.476 0.172-6.7 0.682-4.652 0-10.836 0.98-18.218 3.244-4.14 0.596-7.68 2.816-12.074 4.48-4.564 1.494-8.704 4.48-13.396 7.424-9.428 5.76-18.604 14.592-27.69 24.576-16.084 18.9-28.714 43.178-37.034 63.744h81.876zM725.332 694.57l42.668 14.25v-564.352l-42.668 12.928v537.174zM384 580.352l298.666 99.924v-510.036l-298.666 102.74v307.37zM170.668 298.666c-23.552 0-42.668 19.158-42.668 42.668v170.668c0 23.51 19.116 42.666 42.668 42.666h170.668v-256h-170.668zM896 554.666h42.668v-256h-42.668z" />
<glyph unicode="&#xe618;" glyph-name="camera" d="M533.292 554.666c-106.026 0-191.956-85.974-191.956-192s85.93-192 191.956-192c105.984 0 191.956 85.972 191.956 192s-85.972 192-191.956 192zM458.964 491.392c21.93 12.758 47.146 20.608 74.368 20.608 76.416 0 138.924-57.94 147.584-132.14-73.812 56.832-161.068 91.904-221.952 111.532zM960 725.334h-206.25l-28.416 85.334h-426.666l-28.416-85.334h-163.584c-47.104 0-106.668-38.23-106.668-85.332v-512c0-47.104 59.564-85.332 106.668-85.332h853.334c47.104 0 64 38.23 64 85.332v512c0 47.104-16.896 85.332-64 85.332zM533.332 85.334c-153.174 0-277.334 124.16-277.334 277.332s124.16 277.334 277.334 277.334 277.332-124.16 277.332-277.334-124.16-277.334-277.334-277.334zM938.668 554.666h-85.332v85.332h85.332v-85.332z" />
<glyph unicode="&#xe619;" glyph-name="picture" d="M0 810.666v-768h1024v768h-1024zM938.668 128h-853.332v597.334h853.332v-597.334zM618.668 407.722c47.062 0 85.332 38.23 85.332 85.334s-38.272 85.334-85.332 85.334-85.332-38.23-85.332-85.334 38.272-85.334 85.332-85.334zM576 535.722h85.332v-85.334h-85.332v85.332zM896 682.666h-768v-512h768v512zM170.668 385.494l258.092-73.728-258.092-45.568v119.296zM853.332 213.334h-682.668v9.6l682.668 120.448v-130.048zM853.332 386.048l-341.334-63.658-341.334 105.772v211.84h682.668v-253.952z" />
<glyph unicode="&#xe61a;" glyph-name="grid" d="M42.668 853.334v-896h895.148v896h-895.148zM852.566 554.666h-213.164v213.332h213.164v-213.332zM852.566 298.666h-213.164v213.334h213.164v-213.334zM852.566 42.666h-213.164v213.332h213.164v-213.332zM127.916 256h213.164v-213.332h-213.164v213.332zM127.916 512h213.164v-213.334h-213.164v213.334zM127.916 768h213.164v-213.332h-213.164v213.332zM596.822 554.666h-213.12v213.332h213.164v-213.332zM596.822 298.666h-213.12v213.334h213.164v-213.334zM383.702 256h213.164v-213.332h-213.164v213.332z" />
<glyph unicode="&#xe61b;" glyph-name="carousel" d="M895.658 670.762v97.236h-767.318v-97.236l-127.872-42.668v-402.816l127.872-42.668v-97.28h767.318v97.236l127.872 42.668v402.86l-127.872 42.668zM128.342 272.554l-42.624 14.208v279.808l42.624 14.208v-308.224zM810.41 170.666h-596.822v512h596.822v-512zM938.284 286.762l-42.624-14.208v308.224l42.624-14.208v-279.808zM767.788 640h-511.572v-426.668h511.572v426.668zM725.164 256h-426.324v341.334h426.324v-341.334z" />
<glyph unicode="&#xe61c;" glyph-name="book" d="M424.362 539.178c-72.236 55.85-160.214 115.028-298.666 126.25l298.666-126.25zM424.362 411.178c-72.236 55.852-160.214 115.030-298.666 126.252l298.666-126.252zM296.32 364.758c-47.574 22.316-103.082 39.212-170.624 44.672l170.624-44.672zM556.972 539.178l298.666 126.25c-138.452-11.222-226.432-70.442-298.666-126.25zM556.972 411.178l298.666 126.252c-138.452-11.222-226.432-70.444-298.666-126.252zM855.636 409.43c-67.54-5.462-123.052-22.316-170.624-44.672l170.624 44.672zM940.972 923.178c-186.88 0-357.932-87.254-444.372-156.332h-11.82c-86.486 69.076-257.536 156.332-444.416 156.332h-40.362v-810.668h40.362c138.068 0 291.116-53.164 359.168-104.49 20.224-15.318 38.7-31.318 54.954-47.616l34.176-31.36h4.012l34.176 31.36c16.256 16.298 34.73 32.298 54.956 47.616 68.052 51.328 221.098 104.49 359.168 104.49h40.362v810.668h-40.364zM469.334 63.104c0 4.352-10.412 8.746-16.044 13.014-71.382 53.802-239.956 110.764-367.956 120.32v639.658c170.666-13.056 309.888-95.956 370.39-156.244l11.562-12.672h2.048v-604.076zM896 196.438c-128-9.558-296.576-66.518-367.956-120.32-5.632-4.268-16.044-8.704-16.044-13.014v604.076h2.092l11.562 12.672c60.46 60.288 199.68 143.19 370.346 156.246v-639.658z" />
<glyph unicode="&#xe61d;" glyph-name="clock" d="M512 938.666c-282.752 0-512-229.248-512-512s229.248-512 512-512 512 229.248 512 512-229.248 512-512 512zM512 0c-235.264 0-426.666 191.404-426.666 426.668s191.402 426.668 426.666 426.668 426.666-191.404 426.666-426.668-191.404-426.666-426.666-426.666zM701.74 720.854c-21.076 10.496-46.72 1.962-57.26-19.072l-144.17-288.384-86.188 86.144c-16.682 16.684-43.648 16.684-60.332 0s-16.682-43.648 0-60.332l128-128c8.108-8.106 18.944-12.544 30.208-12.544 2.26 0 4.566 0.172 6.826 0.554 13.524 2.22 25.174 10.794 31.318 23.040l170.668 341.334c10.582 21.076 2.004 46.676-19.072 57.26zM469.418 128.086h85.332v-42.752h-85.332zM469.418 810.666h85.332v-42.752h-85.332zM128 469.418h85.332v-42.752h-85.332zM810.582 469.418h85.332v-42.752h-85.332z" />
<glyph unicode="&#xe61e;" glyph-name="news" d="M256 256h512v256h-512v-256zM298.666 469.334h426.666v-170.668h-426.666v170.668zM256 597.334h512v-42.666h-512zM256 213.334h213.332v-42.668h-213.332zM256 128h128v-42.668h-128zM428.16 125.482h42.666v-42.668h-42.668zM554.668 213.334h213.332v-42.668h-213.332zM554.668 128h213.332v-42.668h-213.332zM853.332 768v40.15c0 49.45-42.582 87.85-147.84 87.85h-512c-70.57 0-108.16-59.904-108.16-130.518v-725.332c0-70.572 37.588-125.482 108.16-125.482h597.332c70.572 0 62.506 0 147.84 0v853.332h-85.332zM853.332 0h-659.84c-23.51 0-22.826 16.682-22.826 40.15v725.332c0 23.51-0.682 45.184 22.826 45.184h574.506v-42.666h-512v-85.334h597.332v-682.668z" />
<glyph unicode="&#xe61f;" glyph-name="users" d="M517.536 348.384c-30.688 35.008-50.656 81.248-55.52 132.32-28.864 11.84-60.832 19.584-94.784 21.984 60.928 22.144 105.152 88.48 105.152 166.88 0 96.512-67.072 174.752-149.792 174.752s-149.792-78.24-149.792-174.784c0-83.488 50.208-153.184 117.28-170.496-115.936-19.616-202.88-101.056-202.88-198.592 0-63.232 162.976-90.816 305.312-82.816 22.752 53.92 66.72 100.32 125.024 130.752zM703.2 338.112c60.928 22.144 105.152 88.48 105.152 166.88 0 96.512-67.072 174.752-149.792 174.752s-149.792-78.24-149.792-174.752c0-83.488 50.208-153.184 117.28-170.496-115.936-19.616-202.88-101.056-202.88-198.592 0-112.224 513.568-112.224 513.568 0 0.032 105.952-102.624 192.896-233.536 202.208z" />
<glyph unicode="&#xe620;" glyph-name="share" d="M853.332 256c-51.2 0-96.682-23.126-128-58.966l-312.49 156.246c8.49 22.956 13.824 47.488 13.824 73.388s-5.334 50.432-13.824 73.388l312.49 156.246c31.318-35.84 76.8-58.966 128-58.966 94.124 0 170.668 76.586 170.668 170.668s-76.544 170.668-170.668 170.668-170.668-76.586-170.668-170.668c0-12.246 1.408-24.15 3.884-35.668l-318.72-159.36c0.128-0.128 0.17-0.298 0.298-0.384-38.912 41.26-93.696 67.414-154.794 67.414-117.632 0-213.332-95.7-213.332-213.334s95.7-213.332 213.332-213.332c61.1 0 115.884 26.154 154.794 67.414-0.128-0.086-0.17-0.256-0.298-0.384l318.72-159.36c-2.476-11.52-3.884-23.424-3.884-35.668 0-94.080 76.544-170.666 170.668-170.666s170.668 76.586 170.668 170.666-76.544 170.668-170.668 170.668zM853.332 853.334c47.062 0 85.332-38.23 85.332-85.332s-38.272-85.332-85.332-85.332-85.332 38.23-85.332 85.332 38.272 85.332 85.332 85.332zM213.332 298.666c-70.57 0-128 57.428-128 128s57.43 128 128 128 128-57.43 128-128-57.428-128-128-128zM853.332 0c-47.062 0-85.332 38.23-85.332 85.332s38.272 85.332 85.332 85.332 85.332-38.23 85.332-85.332-38.272-85.332-85.332-85.332z" />
<glyph unicode="&#xe621;" glyph-name="menu" d="M810.668 213.334h-597.332c-47.062 0-85.332-38.272-85.332-85.332s38.272-85.332 85.332-85.332h597.332c47.062 0 85.332 38.272 85.332 85.332s-38.272 85.332-85.332 85.332zM810.668 512h-597.332c-47.062 0-85.332-38.272-85.332-85.334s38.272-85.332 85.332-85.332h597.332c47.062 0 85.332 38.272 85.332 85.332s-38.272 85.334-85.332 85.334zM810.668 810.666h-597.332c-47.062 0-85.332-38.272-85.332-85.334s38.272-85.332 85.332-85.332h597.332c47.062 0 85.332 38.272 85.332 85.332s-38.272 85.334-85.332 85.334z" />
<glyph unicode="&#xe622;" glyph-name="chart-bar" d="M597.332 768c0 47.148-38.23 85.334-85.332 85.334s-85.332-38.188-85.332-85.334v-512h170.668v512zM810.668 597.334c0 47.146-38.23 85.334-85.332 85.334s-85.332-38.188-85.332-85.334v-341.332h170.668v341.334zM384 469.334c0 47.146-38.228 85.334-85.332 85.334s-85.332-38.188-85.332-85.334v-213.334h170.668v213.334zM810.668 128h-597.332c-23.594 0-42.668-19.072-42.668-42.668s19.072-42.668 42.668-42.668h597.332c23.596 0 42.668 19.072 42.668 42.668s-19.072 42.668-42.668 42.668z" />
<glyph unicode="&#xe623;" glyph-name="flag" d="M784.342 754.432c-15.956 6.614-34.304 2.944-46.506-9.26-53.932-53.888-141.696-53.93-195.668 0-87.252 87.168-229.12 87.168-316.332 0-8.022-7.98-12.502-18.858-12.502-30.164v-554.668c0-23.552 19.072-42.668 42.668-42.668s42.666 19.116 42.666 42.668v194.26c54.228 42.538 133.164 38.87 183.168-11.092 87.254-87.168 229.164-87.168 316.332 0 8.020 8.020 12.5 18.86 12.5 30.164v341.334c0 17.28-10.41 32.81-26.326 39.424z" />
<glyph unicode="&#xe624;" glyph-name="arrow-left" d="M585.574 741.582c-21.402-20.89-230.502-240.436-230.502-240.436-11.418-11.162-17.1-25.754-17.1-40.346s5.682-29.184 17.1-40.346c0 0 209.102-219.546 230.502-240.384 21.402-20.89 59.904-22.322 82.74 0 22.784 22.272 24.576 53.35-0.052 80.64l-191.846 200.090 191.846 200.090c24.626 27.34 22.836 58.418 0.052 80.69-22.886 22.272-61.39 20.89-82.74 0z" />
<glyph unicode="&#xe625;" glyph-name="arrow-down" d="M792.73 534.374c-20.838-21.402-240.384-230.554-240.384-230.554-11.162-11.418-25.754-17.1-40.346-17.1-14.644 0-29.236 5.682-40.346 17.1 0 0-219.546 209.152-240.436 230.554-20.838 21.402-22.272 59.852 0 82.74 22.324 22.834 53.402 24.626 80.69 0l200.090-191.898 200.038 191.846c27.342 24.628 58.47 22.836 80.692 0 22.322-22.834 20.942-61.338 0-82.688z" />
<glyph unicode="&#xe626;" glyph-name="arrow-up" d="M792.73 387.226c-20.838 21.402-240.384 230.502-240.384 230.502-11.162 11.418-25.754 17.152-40.346 17.152-14.644 0-29.236-5.734-40.346-17.152 0 0-219.546-209.102-240.436-230.502-20.838-21.402-22.272-59.904 0-82.74 22.324-22.784 53.402-24.626 80.69 0l200.090 191.846 200.038-191.846c27.342-24.626 58.47-22.784 80.692 0 22.322 22.886 20.942 61.39 0 82.74z" />
<glyph unicode="&#xe627;" glyph-name="arrow-right" d="M438.426 741.582c21.402-20.89 230.502-240.436 230.502-240.436 11.47-11.162 17.152-25.754 17.152-40.346s-5.682-29.184-17.152-40.346c0 0-209.1-219.546-230.502-240.384-21.402-20.89-59.854-22.322-82.738 0-22.834 22.272-24.628 53.35 0 80.64l191.898 200.090-191.846 200.090c-24.628 27.34-22.834 58.418 0 80.69s61.338 20.89 82.688 0z" />
<glyph unicode="&#xe628;" glyph-name="facebook" d="M768 761.394h-146.226c-17.306 0-36.608-22.732-36.608-53.196v-105.574h182.836v-150.528h-182.836v-452.096h-172.646v452.046h-156.518v150.58h156.518v88.576c0 127.028 88.166 230.4 209.202 230.4h146.278v-160.206z" />
<glyph unicode="&#xe629;" glyph-name="twitter" d="M983.040 752.998c-34.714-15.412-71.936-25.754-111.052-30.464 39.936 23.91 70.606 61.798 84.992 106.906-37.326-22.118-78.694-38.246-122.674-46.9-35.278 37.582-85.504 61.030-141.106 61.030-106.752 0-193.28-86.528-193.28-193.228 0-15.154 1.69-29.902 5.018-44.032-160.614 8.038-303.052 84.992-398.336 201.932-16.692-28.518-26.266-61.746-26.266-97.178 0-67.072 34.15-126.208 86.016-160.87-31.694 1.024-61.49 9.678-87.552 24.166 0-0.82 0-1.586 0-2.406 0-93.644 66.662-171.726 155.034-189.542-16.18-4.404-33.28-6.758-50.944-6.758-12.442 0-24.526 1.178-36.352 3.43 24.576-76.8 96-132.658 180.53-134.196-66.15-51.866-149.454-82.74-240.026-82.74-15.616 0-30.976 0.922-46.080 2.714 85.504-54.836 187.084-86.836 296.294-86.836 355.482 0 549.888 294.502 549.888 549.938 0 8.346-0.154 16.692-0.562 24.986 37.786 27.238 70.502 61.286 96.462 100.044z" />
<glyph unicode="&#xe62b;" glyph-name="judoka" d="M799.648 768.128c-4 3.776-99.552 92.864-255.36 92.864-113.12 0-227.616-46.912-340.288-139.488l-15.776-12.992 7.744-8.288c-0.096 0-0.16-0.064-0.256-0.096l-3.712-2.432c-1.536-1.28-152.416-129.984-76.864-318.88l8.96-22.432 19.808 13.824c0.032 0.032 0.096 0.064 0.128 0.096 21.664-188.48 182.176-335.328 376.384-335.328 160.576 0 298.144 100.416 353.216 241.728 0.608-1.536 1.248-3.072 1.856-4.64l19.136-49.792 16.928 50.592c39.232 117.504 22.112 361.312-111.904 495.264zM142.432 416.768c-42.368 141.76 57.856 237.12 72.512 250.112 3.136 1.536 6.208 2.944 9.248 4.288 12.064-11.968 28.576-27.84 48.256-45.568-11.36-32.704-22.496-67.968-27.584-93.44-6.4-32.192-59.84-82.432-102.432-115.392zM520.416 73.312c-182.4 0-331.776 144.16-340.192 324.512 38.304 31.136 93.408 82.56 102.208 126.848 3.968 19.808 12.16 46.816 21.216 73.664 64.832-54.816 150.944-116.544 228.64-135.936 19.936-4.992 40.128-9.504 60.256-14.048 102.24-22.944 199.712-44.832 256.16-125.376-39.872-143.776-171.936-249.664-328.288-249.664zM886.496 335.552c-63.456 100.352-176.128 125.632-285.568 150.208-19.808 4.448-39.68 8.896-59.36 13.824-112.608 28.128-252.16 160.544-296.896 205.376 100.256 78.144 200.992 117.728 299.648 117.728 139.936 0 228.096-81.536 228.608-81.984 108.224-108.224 129.344-293.792 113.568-405.152zM403.488 255.232c0-59.744 49.024-108.32 108.736-108.32s108.768 48.608 108.768 108.32v19.392h-217.504v-19.392zM579.68 235.776c-8.352-29.504-35.36-50.848-67.328-50.848-31.936 0-58.944 21.344-67.296 50.848h134.624zM351.008 411.104c-19.808 0-35.872-16.064-35.872-35.904 0-19.904 16.064-35.872 35.872-35.872s35.872 15.936 35.872 35.872c0 19.84-16.064 35.904-35.872 35.904zM673.728 411.104c-19.84 0-35.904-16.064-35.904-35.904 0-19.904 16.064-35.872 35.904-35.872 19.776 0 35.872 15.936 35.872 35.872-0.032 19.84-16.128 35.904-35.872 35.904z" />
<glyph unicode="&#xe62c;" glyph-name="teacher" d="M213.332 376.32v-170.668l298.668-162.986 298.666 162.986v170.668l-298.666-162.986-298.666 162.986zM512 810.666l-469.334-256 469.334-256 384 209.494v-294.828h85.332v341.334l-469.334 256z" />
<glyph unicode="&#xe62d;" glyph-name="tools" d="M889.056 706.048c30.688-74.016 16.064-162.368-44.128-222.56-66.272-66.272-166.432-76.64-244.288-32.704l-56.288-61.472 40.16-40.32 24 24c12.256 12.288 32.16 12.288 44.416 0l194.624-196.608c12.288-12.256 12.288-32.16 0-44.416l-88.832-88.832c-12.256-12.288-32.16-12.288-44.416 0l-194.624 196.608c-12.288 12.256-12.288 32.16 0 44.416l21.92 21.92-38.272 38.368-269.152-294.048c-24.544-24.544-64.32-24.544-88.832 0l-22.208 22.208c-24.544 24.544-24.544 64.32 0 88.832l306.624 256.8-203.648 204.192-64.32 0.032-74.432 119.68 59.904 60 122.4-74.912 0.8-62.976 206.016-206.816 59.936 50.176c-58.592 79.872-52.48 192.384 19.712 264.576 59.904 59.904 147.776 74.784 221.6 44.672l-131.968-130.144 111.072-111.072 132.224 130.4zM196.8 130.112c-12.256 12.256-32.128 12.256-44.416 0-12.288-12.288-12.288-32.16 0-44.448 12.288-12.256 32.16-12.256 44.416 0 12.288 12.32 12.288 32.192 0 44.448z" />
<glyph unicode="&#xe62e;" glyph-name="design" d="M193.856 741.28l21.952-21.952-89.856-89.856 70.016-70.016 90.272 90.272 20.512-20.512-90.272-90.304 69.12-69.088 205.312 205.312-249.984 248.512-204.576-204.576 67.648-67.68 89.856 89.888zM739.168 426.912l-205.312-205.344 69.088-69.088 90.304 90.272 20.512-20.512-90.272-90.272 70.016-70.016 89.824 89.856 21.952-21.952-89.824-89.856 67.616-67.648 204.608 204.608-248.512 249.952zM954.304 689.568c24.992 25.024 25.184 65.44 0.384 90.272l-112.384 112.352c-24.8 24.8-65.248 24.672-90.24-0.384l-69.44-69.44 202.24-202.24 69.44 69.44zM108.736 129.856l83.936-83.936 169.088 60.064-192.96 192.96-60.064-169.088zM660.8 801.824l-476.32-476.352 203.808-203.808 476.352 476.352-203.84 203.808zM277.024 325.888l383.392 383.392 22.336-22.336-383.424-383.424-22.304 22.368zM321.696 281.184l383.36 383.392 22.336-22.336-383.392-383.36-22.304 22.304zM366.368 236.544l383.392 383.392 22.304-22.336-383.36-383.392-22.336 22.336zM62.528-0.32l98.112 35.744-62.368 62.368-35.744-98.112z" />
<glyph unicode="&#xe62f;" glyph-name="request" horiz-adv-x="768" d="M704 238s0 306 0 402-96 192-192 192c-64 0-64 0-64 0v128l-192-192 192-192v128s32 0 64 0 64-32 64-64 0-402 0-402c-38-22-64-63-64-110 0-71 57-128 128-128s128 57 128 128c0 47-26 88-64 110zM640 64c-35 0-64 29-64 64s29 64 64 64 64-29 64-64-29-64-64-64zM128 896c-71 0-128-57-128-128 0-47 26-88 64-110v-419c-38-22-64-63-64-110 0-71 57-128 128-128s128 57 128 128c0 47-26 88-64 110v419c38 22 64 63 64 110 0 71-57 128-128 128zM128 64c-35 0-64 29-64 64s29 64 64 64 64-29 64-64-29-64-64-64zM128 704c-35 0-64 29-64 64s29 64 64 64 64-29 64-64-29-64-64-64z" />
<glyph unicode="&#xe630;" glyph-name="bug" horiz-adv-x="734" d="M243.622 803.47c-52.874-56.782-38.282-147.47-38.282-147.47s53.968-64 160-64c106.032 0 160.032 64 160.032 64s14.376 89.47-37.376 146.312c32.376 18.032 51.438 44.094 43.562 61.812-8.938 19.97-48.376 21.75-88.25 3.968-14.812-6.594-27.438-14.968-37.25-23.876-12.438 2.25-25.626 3.782-40.72 3.782-14.060 0-26.56-1.344-38.344-3.25-9.656 8.75-22.062 16.876-36.532 23.344-39.876 17.718-79.376 15.938-88.25-3.97-7.748-17.342 10.284-42.686 41.408-60.654zM644.746 390.25c-8.25 1.75-16.126 2.75-23.75 3.5 0 2.126 0.376 4.126 0.376 6.312 0 33.594-4.75 65.654-12.438 96.126 16.438-1.406 37.376 2.376 58.562 11.778 39.876 17.782 65 48.376 56.126 68.218-8.876 19.97-48.376 21.75-88.25 3.97-18.626-8.312-33.812-19.47-44-30.906-7.75 18.25-16.5 35.78-26.812 51.718-30.188-25.156-87.312-62.718-167.062-71.062v-321.78c0 0-0.25-32-32.032-32-31.75 0-32 32-32 32v321.656c-79.812 8.344-136.968 45.97-167.092 71.062-9.876-15.312-18.376-32-25.938-49.344-10.282 10.626-24.626 20.844-41.968 28.594-39.876 17.718-79.376 15.938-88.25-3.97-8.906-19.906 16.25-50.438 56.126-68.218 19.844-8.846 39.532-12.812 55.468-12.096-7.656-30.404-12.468-62.344-12.468-95.812 0-2.188 0.376-4.25 0.438-6.5-6.718-0.75-13.688-1.75-20.78-3.25-51.97-10.75-91.782-37.626-88.844-59.812 2.938-22.312 47.5-31.5 99.594-20.688 6.782 1.376 13.438 3.126 19.782 5.062 9.156-40.808 23.812-78.684 44.094-111.308-12.032-6.062-24.532-15-36.032-26.626-31.876-31.876-44.812-70.626-28.876-86.562 15.938-15.938 54.656-3 86.532 28.812 9.344 9.376 16.844 19.25 22.656 29 43.532-42.624 98.064-68.124 157.564-68.124 60.344 0 115.782 26.25 159.532 69.938 5.876-10.312 13.75-20.812 23.626-30.688 31.812-31.876 70.626-44.812 86.562-28.876s3 54.626-28.876 86.5c-12.312 12.376-25.688 21.75-38.438 27.938 20.126 32.5 34.626 70.376 43.688 111.062 7.188-2.25 14.688-4.376 22.562-6.062 52.062-10.812 96.626-1.562 99.626 20.688 2.812 22.124-37 49-89 59.75z" />
<glyph unicode="&#xe631;" glyph-name="conversation" horiz-adv-x="896" d="M256 448c0 64 0 192 0 192s-160 0-192 0-64-32-64-64 0-288 0-320 32-64 64-64 64 0 64 0v-192l194 192s162 0 192 0 62 32 62 64 0 64 0 64-128 0-192 0-128 64-128 128zM832 832c-32 0-416 0-448 0s-64-32-64-64 0-288 0-320 32-64 64-64 190 0 190 0l194-192v192s32 0 64 0 64 32 64 64 0 288 0 320-32 64-64 64z" />
<glyph unicode="&#xe632;" glyph-name="direction" d="M0 405.334c0-47.146 38.186-85.334 85.334-85.334h213.334v-298.666c0-47.146 38.186-85.334 85.334-85.334s85.334 38.186 85.334 85.334l-0.002 298.666h298.88c29.866 0 56.96 12.374 76.374 32.214l148.032 148.054c41.834 41.814 41.834 109.654 0 151.466l-148.034 148.052c-19.412 19.84-46.506 32.214-76.372 32.214h-298.88v42.666c0 47.146-38.186 85.334-85.334 85.334s-85.334-38.186-85.334-85.334v-42.666h-213.332c-47.146 0-85.334-38.186-85.334-85.334v-341.332z" />
<glyph unicode="&#xe633;" glyph-name="earth" d="M0 448c0-282.88 229.12-512 512-512s512 229.12 512 512-229.12 512-512 512-512-229.12-512-512zM106.666 448c0 32.854 3.84 64.854 11.306 95.36l95.362-95.36-21.334-128 85.334-85.334v-117.12c-103.254 73.388-170.668 194.112-170.668 330.454zM418.774 842.454c29.866 7.252 61.012 10.88 93.226 10.88 35.626 0 70.186-4.694 103.040-13.226l-17.706-29.442 21.334-21.334h64l17.706 17.706c14.912-7.894 28.992-16.426 42.666-26.026l-39.040-13.012-42.666-42.666 42.666-21.334v-21.334h-42.666v-42.666c0 0 29.44-21.334 64-21.334 33.92 0 18.774 46.72 42.666 64 24.106 17.28 53.334 13.44 53.334 13.44l13.866-3.626c26.026-34.346 46.698-72.746 60.8-114.346v-2.134c0 0-30.080 21.334-85.334 21.334s-106.666-21.334-106.666-21.334-60.16-17.494-64-64c-6.634-80 21.334-106.666 21.334-106.666l106.666-64v-207.574c-69.76-56.96-158.934-91.094-256-91.094-45.866 0-89.814 7.466-130.986 21.546l109.652 255.788-21.334 106.666c0 0-84.694 106.666-128 106.666s-64-64-64-64l-42.666 85.334 128 85.334 64 170.666-7.892 31.788z" />
<glyph unicode="&#xe634;" glyph-name="trophy" d="M234.666 938.666c-17.28 10.666-41.386 21.334-64 21.334-94.292 0-170.666-77.014-170.666-172.16 0-137.6 146.56-186.666 234.666-254.506v-32c0-129.066 91.52-236.586 213.334-261.334v-154.666c0-23.466-19.2-42.666-42.666-42.666h-117.334c-29.44 0-53.334-23.894-53.334-53.334s23.894-53.334 53.334-53.334h426.666c29.44 0 53.334 23.894 53.334 53.334s-23.894 53.332-53.334 53.332h-117.332c-23.466 0-42.666 19.2-42.666 42.666v154.666c121.814 24.746 213.334 132.266 213.334 261.334l-0.002 32.002c88.106 67.84 234.666 116.906 234.666 254.506 0 95.146-76.372 172.16-170.666 172.16-22.634 0-46.698-10.666-64-21.334h-533.334zM426.666 789.334v-256c0-23.466-19.2-42.666-42.666-42.666s-42.666 19.2-42.666 42.666v256c0 23.466 19.2 42.666 42.666 42.666s42.666-19.2 42.666-42.666zM106.666 787.84c0 35.626 28.588 64.64 64 64.64s64-29.014 64-64.64v-131.2c-61.44 38.826-128 64.662-128 131.2zM896 787.84c0-66.538-66.56-92.374-128-131.2v131.2c0 35.626 28.586 64.64 64 64.64s64-29.014 64-64.64z" />
<glyph unicode="&#xe635;" glyph-name="pin" d="M277.334 488.534l-157.866-159.36c-7.894-7.68-12.802-18.54-12.802-30.508 0-23.466 18.986-42.666 42.24-42.666h299.094v-266.666c0-29.44 23.894-53.334 53.334-53.334s53.334 23.894 53.334 53.334l-0.002 266.666h320.426c23.254 0 42.24 19.2 42.24 42.666 0 11.734-4.714 22.4-12.374 30.080l-158.292 160v364.588h32c29.44 0 53.334 23.892 53.334 53.332s-23.894 53.334-53.334 53.334h-533.334c-29.438 0-53.332-23.894-53.332-53.334s23.894-53.332 53.334-53.332h32v-364.8zM469.334 810.666v-277.334c0-23.466-19.2-42.666-42.666-42.666s-42.666 19.2-42.666 42.666l-0.002 277.334c0 23.466 19.2 42.666 42.666 42.666s42.668-19.198 42.668-42.666z" />
<glyph unicode="&#xe636;" glyph-name="app-make-snake" d="M512 960c-282.304 0-512-229.696-512-512 0-61.716 50.028-111.702 111.7-111.702s111.7 50.004 111.7 111.702c0 159.126 129.45 288.576 288.576 288.576s288.598-129.452 288.598-288.576-129.452-288.576-288.576-288.576c-61.716 0-111.702-50.004-111.702-111.702 0-61.716 49.984-111.722 111.702-111.722 282.326 0 512 229.674 512 512 0 282.304-229.674 512-512 512z" />
<glyph unicode="&#xe637;" glyph-name="chevron-circled-down" d="M675.028 428.928c26.708 28.63 26.304 48.662 9.536 64.896-15.788 15.252-107.436 24.81-171.5 24.81s-157.888-9.536-173.654-24.81c-16.768-16.214-17.174-36.266 9.536-64.896 26.156-28.010 119.85-120.15 161.964-120.15s137.984 92.14 164.116 120.15zM1024 448c0 282.774-229.226 512-512 512s-512-229.226-512-512 229.228-512 512-512 512 229.226 512 512zM129.77 448c0 211.092 171.136 382.23 382.23 382.23s382.23-171.136 382.23-382.23-171.136-382.23-382.23-382.23-382.228 171.136-382.228 382.23z" />
<glyph unicode="&#xe638;" glyph-name="chevron-circled-left" d="M492.928 284.972c28.63-26.708 48.66-26.304 64.896-9.536 15.254 15.788 24.812 107.436 24.812 171.5s-9.536 157.888-24.812 173.654c-16.212 16.768-36.268 17.174-64.896-9.536-28.012-26.156-120.15-119.852-120.15-161.964s92.14-137.984 120.15-164.116zM512-64c282.774 0 512 229.226 512 512s-229.226 512-512 512-512-229.226-512-512 229.228-512 512-512zM512 830.23c211.092 0 382.23-171.136 382.23-382.23s-171.136-382.23-382.23-382.23-382.228 171.136-382.228 382.23 171.136 382.23 382.228 382.23z" />
<glyph unicode="&#xe639;" glyph-name="chevron-circled-right" d="M531.072 611.028c-28.63 26.71-48.662 26.304-64.896 9.536-15.252-15.788-24.81-107.436-24.81-171.5s9.536-157.888 24.81-173.654c16.214-16.768 36.266-17.174 64.896 9.536 28.010 26.154 120.15 119.85 120.15 161.962s-92.14 137.984-120.15 164.116zM512 960c-282.774 0-512-229.226-512-512s229.228-512 512-512 512 229.226 512 512-229.226 512-512 512zM512 65.77c-211.092 0-382.228 171.136-382.228 382.23s171.136 382.23 382.228 382.23 382.23-171.136 382.23-382.23-171.136-382.23-382.23-382.23z" />
<glyph unicode="&#xe63a;" glyph-name="chevron-circled-up" d="M348.972 467.072c-26.71-28.63-26.304-48.66-9.536-64.896 15.786-15.254 107.436-24.812 171.498-24.812s157.888 9.536 173.654 24.812c16.768 16.212 17.174 36.268-9.536 64.896-26.154 28.012-119.85 120.148-161.962 120.148s-137.984-92.138-164.116-120.148zM0 448c0-282.774 229.228-512 512-512s512 229.226 512 512-229.226 512-512 512-512-229.226-512-512zM894.23 448c0-211.092-171.136-382.23-382.23-382.23s-382.228 171.136-382.228 382.23 171.136 382.23 382.228 382.23 382.23-171.136 382.23-382.23z" />
<glyph unicode="&#xe63b;" glyph-name="chevron-down" d="M822.87 477.036c50.944 54.592 50.176 92.8 18.198 123.712-30.1 29.098-204.842 47.296-326.998 47.296s-301.036-18.176-331.136-47.274c-31.978-30.932-32.748-69.142 18.198-123.712 49.856-53.418 228.522-229.098 308.8-229.098s263.082 175.68 312.938 229.076z" />
<glyph unicode="&#xe63c;" glyph-name="chevron-left" d="M541.034 137.13c54.592-50.944 92.8-50.176 123.712-18.198 29.1 30.1 47.296 204.842 47.296 326.998s-18.176 301.036-47.274 331.136c-30.932 31.98-69.14 32.748-123.712-18.196-53.418-49.856-229.098-228.524-229.098-308.8s175.68-263.082 229.078-312.938z" />
<glyph unicode="&#xe63d;" glyph-name="chevron-right" d="M482.964 137.13c-54.592-50.944-92.8-50.176-123.712-18.198-29.098 30.1-47.296 204.842-47.296 326.998s18.198 301.036 47.296 331.136c30.932 31.98 69.142 32.748 123.712-18.196 53.42-49.856 229.098-228.524 229.098-308.8s-175.702-263.082-229.098-312.938z" />
<glyph unicode="&#xe63e;" glyph-name="chevron-up" d="M201.132 418.966c-50.944-54.592-50.176-92.8-18.198-123.712 30.1-29.1 204.842-47.296 326.998-47.296s301.036 18.198 331.136 47.296c31.98 30.932 32.746 69.14-18.198 123.712-49.856 53.418-228.524 229.1-308.8 229.1s-263.084-175.702-312.94-229.1z" />
<glyph unicode="&#xe63f;" glyph-name="comment-outlined" d="M895.572 850.582h-767.148c-66.752 0-117.76-52.48-117.76-119.232v-511.404c0-66.752 51.008-116.010 117.76-116.010h362.796l157.61-167.936 160.62 167.914h86.124c66.752 0 117.76 49.28 117.76 116.010v511.424c0 66.752-51.008 119.232-117.76 119.232zM928 219.948c0-13.802-18.602-30.678-32.428-30.678h-127.126l-118.956-124.332-116.736 124.332h-404.332c-13.824 0-32.426 16.876-32.426 30.678v511.404c0 13.802 18.604 33.9 32.426 33.9h767.148c13.802 0 32.428-20.076 32.428-33.9v-511.404z" />
<glyph unicode="&#xe640;" glyph-name="comment" d="M928 219.948c0-13.802-18.602-30.678-32.428-30.678h-127.126l-118.956-124.332-116.736 124.332h-404.332c-13.824 0-32.426 16.876-32.426 30.678v511.404c0 13.802 18.604 33.9 32.426 33.9h767.148c13.802 0 32.428-20.076 32.428-33.9v-511.404z" />
<glyph unicode="&#xe641;" glyph-name="cross-circled" d="M512 960c-282.774 0-512-229.226-512-512s229.228-512 512-512 512 229.226 512 512-229.226 512-512 512zM512 65.77c-211.092 0-382.228 171.136-382.228 382.23s171.136 382.23 382.228 382.23 382.23-171.136 382.23-382.23-171.136-382.23-382.23-382.23zM653.632 393.536l-54.464 54.464 54.464 54.464c24.086 24.084 24.086 63.084 0 87.168s-63.082 24.084-87.168 0l-54.464-54.464-54.464 54.464c-24.084 24.084-63.082 24.084-87.168 0s-24.084-63.084 0-87.168l54.464-54.464-54.464-54.464c-24.084-24.086-24.084-63.082 0-87.168s63.082-24.086 87.168 0l54.464 54.464 54.464-54.464c24.086-24.086 63.082-24.086 87.168 0s24.086 63.082 0 87.168z" />
<glyph unicode="&#xe642;" glyph-name="cross" d="M737.856 361.13l-86.87 86.87 86.87 86.87c38.38 38.38 38.38 100.586 0 138.986s-100.586 38.38-138.986 0l-86.87-86.87-86.87 86.87c-38.38 38.38-100.586 38.38-138.986 0s-38.378-100.586 0-138.986l86.87-86.87-86.87-86.87c-38.378-38.38-38.378-100.586 0-138.986s100.586-38.38 138.986 0l86.87 86.87 86.87-86.87c38.38-38.38 100.586-38.38 138.986 0s38.38 100.586 0 138.986z" />
<glyph unicode="&#xe643;" glyph-name="heart-outlined" d="M929.322 810.368c-58.86 56.64-136.276 87.852-218.048 87.852-73.13 0-142.442-24.79-198.38-70.4-55.916 45.61-125.226 70.4-198.38 70.4-84.010 0-163.008-32.704-222.4-92.118-59.392-59.392-92.118-138.39-92.118-222.4s32.726-163.008 92.118-222.4l323.028-323.028c26.112-26.112 60.822-40.49 97.728-40.49s71.638 14.38 97.75 40.49l319.318 319.318c60.608 60.608 94.87 144.788 94.038 230.976-0.812 85.056-34.432 163.84-94.656 221.802zM865.344 422.208l-319.338-319.318c-8.852-8.832-20.608-13.716-33.11-13.716s-24.256 4.864-33.108 13.716l-323.050 323.028c-42.134 42.132-65.344 98.176-65.344 157.782s23.21 115.648 65.366 157.78c42.134 42.154 98.176 65.344 157.782 65.344s115.648-23.212 157.76-65.344l40.596-40.64 40.596 40.62c42.154 42.154 98.176 65.344 157.782 65.344 58.004 0 112.938-22.122 154.668-62.294 42.41-40.832 66.092-96.532 66.668-156.864 0.596-61.78-23.936-122.090-67.264-165.44z" />
<glyph unicode="&#xe644;" glyph-name="heart" d="M865.344 422.208l-319.338-319.318c-8.852-8.832-20.608-13.716-33.11-13.716s-24.256 4.864-33.108 13.716l-323.050 323.028c-42.134 42.132-65.344 98.176-65.344 157.782s23.21 115.648 65.366 157.78c42.134 42.154 98.176 65.344 157.782 65.344s115.648-23.212 157.76-65.344l40.596-40.64 40.596 40.62c42.154 42.154 98.176 65.344 157.782 65.344 58.004 0 112.938-22.122 154.668-62.294 42.41-40.832 66.092-96.532 66.668-156.864 0.596-61.78-23.936-122.090-67.264-165.44z" />
<glyph unicode="&#xe645;" glyph-name="minus-circled" d="M512 960c-282.774 0-512-229.226-512-512s229.228-512 512-512 512 229.226 512 512-229.226 512-512 512zM512 65.77c-211.092 0-382.228 171.136-382.228 382.23s171.136 382.23 382.228 382.23 382.23-171.136 382.23-382.23-171.136-382.23-382.23-382.23zM650.668 509.632c34.048 0 61.632-27.584 61.632-61.632s-27.584-61.632-61.632-61.632h-277.334c-34.048 0-61.632 27.584-61.632 61.632s27.584 61.632 61.632 61.632h277.334z" />
<glyph unicode="&#xe646;" glyph-name="minus2" d="M733.12 546.284c54.294 0 98.284-43.988 98.284-98.284s-43.99-98.284-98.284-98.284h-442.24c-54.294 0-98.284 43.99-98.284 98.284s43.99 98.284 98.284 98.284h442.24z" />
<glyph unicode="&#xe647;" glyph-name="notifications" d="M111.616 100.352c-42.132 0-76.288 34.9-76.288 77.034s34.496 76.65 76.63 76.65 57.558 30.528 57.558 74.24v288.468c0.020 186.326 147.116 343.254 342.572 343.254s342.572-156.928 342.572-343.254v-288.468c0-43.712 15.424-73.856 57.558-73.856s76.458-34.9 76.458-77.034-33.984-77.034-76.096-77.034h-800.96zM301.056 36.116c32.448-64.236 112.98-100.116 207.444-100.116s175.020 35.884 207.444 100.116h-414.892z" />
<glyph unicode="&#xe648;" glyph-name="plus-circled" d="M512 960c-282.774 0-512-229.226-512-512s229.228-512 512-512 512 229.226 512 512-229.226 512-512 512zM512 65.77c-211.092 0-382.228 171.136-382.228 382.23s171.136 382.23 382.228 382.23 382.23-171.136 382.23-382.23-171.136-382.23-382.23-382.23zM650.668 509.632h-77.034v77.036c0 34.048-27.584 61.632-61.632 61.632s-61.632-27.584-61.632-61.632v-77.034h-77.036c-34.048 0-61.632-27.584-61.632-61.632s27.584-61.632 61.632-61.632h77.034v-77.034c0-34.048 27.584-61.632 61.632-61.632s61.632 27.584 61.632 61.632v77.034h77.034c34.048 0 61.632 27.584 61.632 61.632s-27.584 61.632-61.632 61.632z" />
<glyph unicode="&#xe649;" glyph-name="plus2" d="M733.12 546.284h-122.86v122.86c0 54.292-43.99 98.282-98.284 98.282s-98.284-43.988-98.284-98.282v-122.86h-122.858c-54.294 0-98.284-43.988-98.284-98.284s43.99-98.284 98.284-98.284h122.858v-122.86c0-54.294 43.988-98.284 98.284-98.284s98.284 43.99 98.284 98.284v122.86h122.86c54.294 0 98.284 43.99 98.284 98.284s-43.99 98.284-98.284 98.284z" />
<glyph unicode="&#xe900;" glyph-name="view" horiz-adv-x="1312" d="M790.931 442.389c0-61.841-56.218-112.437-123.685-112.437-61.841 0-151.794 50.605-151.794 112.437s106.824 118.064 106.824 118.064v-118.064h168.655zM656 779.7c-303.588 0-517.223-219.261-584.683-303.588-16.861-16.861-16.861-44.97 0-61.841 67.467-84.328 281.095-297.97 584.683-297.97s517.223 213.635 584.683 297.97c16.861 16.861 16.861 44.97 0 61.841-67.467 84.328-275.479 303.588-584.683 303.588v0zM689.722 183.772c-157.412-16.861-297.97 106.824-297.97 264.231 0 146.176 118.064 264.231 264.231 264.231 157.412 0 281.095-134.933 264.231-292.34-11.248-123.685-112.437-219.261-230.509-236.122v0z" />
<glyph unicode="&#xe901;" glyph-name="audio-pause" d="M512 832c212.076 0 384-171.924 384-384s-171.924-384-384-384c-212.076 0-384 171.924-384 384s171.924 384 384 384zM512 960c-282.77 0-512-229.23-512-512s229.23-512 512-512c282.77 0 512 229.23 512 512s-229.23 512-512 512v0zM447.36 448c0-123.712-28.654-224-64-224s-64 100.288-64 224c0 123.712 28.654 224 64 224s64-100.288 64-224zM704.64 448c0-123.712-28.654-224-64-224s-64 100.288-64 224c0 123.712 28.654 224 64 224s64-100.288 64-224z" />
<glyph unicode="&#xe902;" glyph-name="audio-play" d="M512 832c212.076 0 384-171.924 384-384s-171.924-384-384-384c-212.076 0-384 171.924-384 384s171.924 384 384 384zM512 960c-282.77 0-512-229.23-512-512s229.23-512 512-512c282.77 0 512 229.23 512 512s-229.23 512-512 512v0zM413.76 270.72c-8.168 52.89-12.834 113.9-12.834 176s4.666 123.11 13.666 182.7c28.928 167.7 252.608-120.94 252.608-120.94 12.884-16.42 20.66-37.382 20.66-60.16s-7.778-43.74-20.822-60.374c-45.918-61.226-212.64-263.466-253.278-117.226z" />
<glyph unicode="&#xf005;" glyph-name="star" horiz-adv-x="952" d="M0 581.144q0 21.144 32 26.286l286.858 41.714 128.57 260q10.856 23.428 28 23.428t28-23.428l128.572-260 286.856-41.714q32-5.144 32-26.286 0-12.572-14.856-27.428l-207.428-202.286 49.144-285.714q0.572-4 0.572-11.428 0-12-6-20.286t-17.428-8.286q-10.856 0-22.856 6.856l-256.572 134.856-256.572-134.856q-12.57-6.856-22.856-6.856-12 0-18 8.286t-6 20.286q0 3.428 1.144 11.428l49.144 285.714-208 202.286q-14.286 15.428-14.286 27.428z" />
</font>
</defs>
</svg>
