<?xml version="1.0" encoding="utf-8"?>
<!-- Generator: Adobe Illustrator 18.1.0, SVG Export Plug-In . SVG Version: 6.00 Build 0)  -->
<svg version="1.1" xmlns="http://www.w3.org/2000/svg" xmlns:xlink="http://www.w3.org/1999/xlink" x="0px" y="0px"
	 viewBox="0 0 100 100" enable-background="new 0 0 100 100" xml:space="preserve">
<g id="Background">
</g>
<g id="Layer_1">
	<g>
		<g>
			<path fill="#FFFFFF" d="M49.7,25.2c14,0,25.4,11.4,25.4,25.4S63.8,76.1,49.7,76.1c-14,0-25.4-11.4-25.4-25.4S35.7,25.2,49.7,25.2
				 M49.7,21.2c-16.2,0-29.4,13.2-29.4,29.4s13.2,29.4,29.4,29.4s29.4-13.2,29.4-29.4S65.9,21.2,49.7,21.2L49.7,21.2z"/>
		</g>
		<g>
			<circle fill="#FFFFFF" cx="49.7" cy="35" r="2.3"/>
			<circle fill="#FFFFFF" cx="34.2" cy="50.5" r="2.3"/>
			<circle fill="#FFFFFF" cx="38.8" cy="61.5" r="1.8"/>
			<circle fill="#FFFFFF" cx="38.8" cy="39.5" r="2.3"/>
			<path fill="#FFFFFF" d="M49.7,68.7c-1.5,0-2.7-1.2-2.7-2.7c0-0.3,0.1-0.6,0.2-0.9c0,0,0,0,0,0l2.1-16.3c0.1-0.4,0.7-0.4,0.8,0
				l2.1,16.3c0,0,0,0.1,0,0.1c0.1,0.3,0.1,0.5,0.1,0.8C52.4,67.5,51.2,68.7,49.7,68.7z"/>
			<circle fill="#FFFFFF" cx="60.7" cy="39.5" r="2.3"/>
			<circle fill="#FFFFFF" cx="60.7" cy="61.5" r="1.8"/>
			<circle fill="#FFFFFF" cx="65.2" cy="50.5" r="2.3"/>
		</g>
	</g>
</g>
</svg>
