<?xml version="1.0" encoding="utf-8"?>
<!-- Generator: Adobe Illustrator 19.2.1, SVG Export Plug-In . SVG Version: 6.00 Build 0)  -->
<svg version="1.1" id="Layer_1" xmlns="http://www.w3.org/2000/svg" xmlns:xlink="http://www.w3.org/1999/xlink" x="0px" y="0px"
	 viewBox="0 0 100 100" style="enable-background:new 0 0 100 100;" xml:space="preserve">
<style type="text/css">
	.st0{fill:#FFFFFF;}
</style>
<g>
	<g>
		<g>
			<path class="st0" d="M41.6,61c-0.4,0-0.7-0.1-1-0.4c-0.7-0.6-0.7-1.6-0.1-2.2l8.4-9.5c0.6-0.7,1.6-0.7,2.2-0.1
				c0.7,0.6,0.7,1.6,0.1,2.2l-8.4,9.5C42.5,60.8,42,61,41.6,61z"/>
		</g>
		<g>
			<path class="st0" d="M50,51.5c-0.9,0-1.6-0.7-1.6-1.6V39.8c0-0.9,0.7-1.6,1.6-1.6s1.6,0.7,1.6,1.6V50
				C51.6,50.8,50.9,51.5,50,51.5z"/>
		</g>
	</g>
	<g>
		<path class="st0" d="M71.2,51.2h-3c-0.7,0-1.2-0.5-1.2-1.2s0.5-1.2,1.2-1.2h3c0.7,0,1.2,0.5,1.2,1.2S71.9,51.2,71.2,51.2z"/>
	</g>
	<g>
		<path class="st0" d="M50,79c-16,0-29-13-29-29s13-29,29-29s29,13,29,29S66,79,50,79z M50,24.8c-13.9,0-25.2,11.3-25.2,25.2
			S36.1,75.2,50,75.2S75.2,63.9,75.2,50S63.9,24.8,50,24.8z"/>
	</g>
	<g>
		<path class="st0" d="M65.8,42.1c-0.4,0-0.8-0.2-1.1-0.6c-0.3-0.6-0.1-1.3,0.5-1.7l2.6-1.5c0.6-0.3,1.3-0.1,1.7,0.5
			c0.3,0.6,0.1,1.3-0.5,1.7l-2.6,1.5C66.3,42,66,42.1,65.8,42.1z"/>
	</g>
	<g>
		<path class="st0" d="M59.1,35.4c-0.2,0-0.4-0.1-0.6-0.2c-0.6-0.3-0.8-1.1-0.4-1.7l1.5-2.6c0.3-0.6,1.1-0.8,1.7-0.4
			c0.6,0.3,0.8,1.1,0.4,1.7l-1.5,2.6C60,35.2,59.6,35.4,59.1,35.4z"/>
	</g>
	<g>
		<path class="st0" d="M50,32.9c-0.7,0-1.2-0.5-1.2-1.2v-3c0-0.7,0.5-1.2,1.2-1.2s1.2,0.5,1.2,1.2v3C51.2,32.4,50.7,32.9,50,32.9z"
			/>
	</g>
	<g>
		<path class="st0" d="M40.9,35.4c-0.4,0-0.8-0.2-1.1-0.6l-1.5-2.6c-0.3-0.6-0.1-1.3,0.4-1.7c0.6-0.3,1.3-0.1,1.7,0.4l1.5,2.6
			c0.3,0.6,0.1,1.3-0.4,1.7C41.3,35.3,41.1,35.4,40.9,35.4z"/>
	</g>
	<g>
		<path class="st0" d="M34.2,42.1c-0.2,0-0.4-0.1-0.6-0.2L31,40.4c-0.6-0.3-0.8-1.1-0.5-1.7c0.3-0.6,1.1-0.8,1.7-0.5l2.6,1.5
			c0.6,0.3,0.8,1.1,0.5,1.7C35,41.9,34.6,42.1,34.2,42.1z"/>
	</g>
	<g>
		<path class="st0" d="M31.7,51.2h-3c-0.7,0-1.2-0.5-1.2-1.2s0.5-1.2,1.2-1.2h3c0.7,0,1.2,0.5,1.2,1.2S32.4,51.2,31.7,51.2z"/>
	</g>
	<g>
		<path class="st0" d="M31.6,61.8c-0.4,0-0.8-0.2-1.1-0.6c-0.3-0.6-0.1-1.3,0.4-1.7l2.6-1.5c0.6-0.3,1.3-0.1,1.7,0.4
			c0.3,0.6,0.1,1.3-0.4,1.7l-2.6,1.5C32,61.8,31.8,61.8,31.6,61.8z"/>
	</g>
	<g>
		<path class="st0" d="M39.4,69.6c-0.2,0-0.4-0.1-0.6-0.2c-0.6-0.3-0.8-1.1-0.4-1.7l1.5-2.6c0.3-0.6,1.1-0.8,1.7-0.4
			c0.6,0.3,0.8,1.1,0.4,1.7L40.4,69C40.2,69.4,39.8,69.6,39.4,69.6z"/>
	</g>
	<g>
		<path class="st0" d="M50,72.5c-0.7,0-1.2-0.5-1.2-1.2v-3c0-0.7,0.5-1.2,1.2-1.2s1.2,0.5,1.2,1.2v3C51.2,71.9,50.7,72.5,50,72.5z"
			/>
	</g>
	<g>
		<path class="st0" d="M60.6,69.6c-0.4,0-0.8-0.2-1.1-0.6l-1.5-2.6c-0.3-0.6-0.1-1.3,0.4-1.7c0.6-0.3,1.3-0.1,1.7,0.4l1.5,2.6
			c0.3,0.6,0.1,1.3-0.4,1.7C61,69.6,60.8,69.6,60.6,69.6z"/>
	</g>
	<g>
		<path class="st0" d="M68.4,61.8c-0.2,0-0.4-0.1-0.6-0.2l-2.6-1.5c-0.6-0.3-0.8-1.1-0.4-1.7c0.3-0.6,1.1-0.8,1.7-0.4l2.6,1.5
			c0.6,0.3,0.8,1.1,0.4,1.7C69.2,61.6,68.8,61.8,68.4,61.8z"/>
	</g>
</g>
</svg>
