<?xml version="1.0" encoding="utf-8"?>
<!-- Generator: Adobe Illustrator 19.2.1, SVG Export Plug-In . SVG Version: 6.00 Build 0)  -->
<svg version="1.1" id="Layer_1" xmlns="http://www.w3.org/2000/svg" xmlns:xlink="http://www.w3.org/1999/xlink" x="0px" y="0px"
	 viewBox="0 0 18.8 18.8" style="enable-background:new 0 0 18.8 18.8;" xml:space="preserve">
<style type="text/css">
	.st0{fill:#FFFFFF;}
</style>
<g>
	<g>
		<path class="st0" d="M9.7,4.9c-0.8,0-8-0.1-8-2.1c0-2,7.2-2.1,8-2.1c0.8,0,8,0.1,8,2.1C17.6,4.9,10.5,4.9,9.7,4.9z M2.8,2.8
			c0.5,0.4,2.8,1,6.9,1s6.4-0.6,6.9-1c-0.5-0.4-2.8-1-6.9-1S3.3,2.5,2.8,2.8z M16.6,2.5L16.6,2.5L16.6,2.5z"/>
	</g>
	<g>
		<path class="st0" d="M9.7,8.4C8.5,8.4,3,8.3,3,6.6c0-1.7,5.6-1.8,6.7-1.8s6.7,0.1,6.7,1.8C16.4,8.3,10.8,8.4,9.7,8.4z M4,6.6
			c0.5,0.3,2.4,0.8,5.7,0.8s5.2-0.5,5.7-0.8c-0.5-0.3-2.4-0.8-5.7-0.8S4.5,6.3,4,6.6z M15.4,6.5L15.4,6.5L15.4,6.5z"/>
	</g>
	<g>
		<path class="st0" d="M9.7,11.8c-0.9,0-5.4-0.1-5.4-1.5c0-1.4,4.5-1.5,5.4-1.5c0.9,0,5.4,0.1,5.4,1.5C15.1,11.8,10.6,11.8,9.7,11.8
			z M5.2,10.4c0.5,0.2,2,0.6,4.5,0.6s4-0.4,4.5-0.6c-0.5-0.2-2-0.6-4.5-0.6S5.7,10.1,5.2,10.4z M14.2,9.5L14.2,9.5L14.2,9.5z"/>
	</g>
	<g>
		<path class="st0" d="M9.7,15.3c-1,0-4.2-0.1-4.2-1.2c0-1.1,3.2-1.2,4.2-1.2s4.2,0.1,4.2,1.2C13.8,15.2,10.6,15.3,9.7,15.3z
			 M6.4,14.1c0.4,0.2,1.5,0.4,3.2,0.4s2.8-0.2,3.2-0.4c-0.4-0.2-1.5-0.4-3.2-0.4S6.9,13.9,6.4,14.1z M13.1,13.5L13.1,13.5L13.1,13.5
			z"/>
	</g>
	<g>
		<path class="st0" d="M9.7,18.7c-1.1,0-2.9-0.1-2.9-0.9S8.6,17,9.7,17s2.9,0.1,2.9,0.9S10.7,18.7,9.7,18.7z M7.7,17.9
			c0.4,0.1,1,0.2,1.9,0.2s1.5-0.1,1.9-0.2c-0.4-0.1-1-0.2-1.9-0.2S8.1,17.8,7.7,17.9z M11.9,18.5L11.9,18.5L11.9,18.5z"/>
	</g>
</g>
</svg>
