<?xml version="1.0" encoding="utf-8"?>
<!-- Generator: Adobe Illustrator 18.1.0, SVG Export Plug-In . SVG Version: 6.00 Build 0)  -->
<svg version="1.1" xmlns="http://www.w3.org/2000/svg" xmlns:xlink="http://www.w3.org/1999/xlink" x="0px" y="0px"
	 viewBox="0 0 100 100" enable-background="new 0 0 100 100" xml:space="preserve">
<g id="Background">
</g>
<g id="Layer_1">
	<g>
		<g>
			<g>
				<path fill="#FFFFFF" d="M48.7,33.4c7.3,0,13.7,4.8,15.8,11.6c-3.6,1.4-8.6,3-15.4,4.4c-6,1.2-11.8,2-16.8,2.1
					c-0.1-0.5-0.1-1.1-0.1-1.6C32.1,40.8,39.6,33.4,48.7,33.4 M48.7,29.4c-11.3,0-20.5,9.2-20.5,20.5c0,2,0.3,3.9,0.8,5.8h0l0.6-0.1
					c0.3,0,0.6,0,0.8,0c5.5,0,12.4-0.8,19.4-2.2c8.6-1.8,15-4,19.2-5.9C67.8,37.3,59.2,29.4,48.7,29.4L48.7,29.4z"/>
				<path fill="#FFFFFF" d="M66.1,60.8c-4.3,1.4-9,2.7-14,3.7c-5.3,1.1-10.5,1.8-15.3,2.2c3.3,2.4,7.4,3.7,11.8,3.7
					C56,70.4,62.5,66.6,66.1,60.8L66.1,60.8z"/>
			</g>
			<path fill="#FFFFFF" d="M83.6,43.7c-0.7-3.6-5.3-5.5-13.6-5.7c0.9,1.5,1.6,3.2,2.1,4.9c4.7,0.4,6.5,1.3,6.8,1.8
				c-0.4,1.8-9.1,7.9-28.4,11.9c-7.2,1.5-14.3,2.3-20.1,2.3c-7.6,0-10.2-1.4-10.6-1.9c0.1-0.7,1.7-2.2,4.7-3.9
				c-0.1-1-0.2-2.1-0.2-3.1c0-0.7,0-1.4,0.1-2.2c-6.9,3.4-10,6.9-9.3,10.3c0.8,3.8,6,5.9,15.3,5.9h0c6.2,0,13.5-1,21.1-2.6
				c8.7-1.8,16.7-4.5,22.6-7.4C81.1,50.6,84.3,47.1,83.6,43.7z"/>
		</g>
		<path fill="#FFFFFF" d="M30.9,48.7l-0.2-3c0.2,0,20.2-1.2,31.7-7l1.4,2.7C51.7,47.5,31.7,48.7,30.9,48.7z"/>
		<path fill="#FFFFFF" d="M33.6,41.1l-0.1-2c0.2,0,15.6-0.6,22.8-4.8l1,1.7C49.7,40.5,34.3,41,33.6,41.1z"/>
	</g>
</g>
</svg>
