<?xml version="1.0" encoding="utf-8"?>
<!-- Generator: Adobe Illustrator 18.1.0, SVG Export Plug-In . SVG Version: 6.00 Build 0)  -->
<svg version="1.1" xmlns="http://www.w3.org/2000/svg" xmlns:xlink="http://www.w3.org/1999/xlink" x="0px" y="0px"
	 viewBox="0 0 100 100" enable-background="new 0 0 100 100" xml:space="preserve">
<g id="Background">
</g>
<g id="Layer_1">
	<g>
		<path fill="#FFFFFF" d="M61.5,52.6c-3.7,0-7.2-1.5-9.9-4.1c-2.6-2.6-4.1-6.2-4.1-9.9s1.5-7.2,4.1-9.9c2.6-2.6,6.2-4.1,9.9-4.1
			s7.2,1.5,9.9,4.1c2.6,2.6,4.1,6.2,4.1,9.9s-1.5,7.2-4.1,9.9C68.8,51.1,65.3,52.6,61.5,52.6z M61.5,28.6c-2.7,0-5.2,1-7.1,2.9
			c-1.9,1.9-2.9,4.4-2.9,7.1c0,2.7,1,5.2,2.9,7.1c1.9,1.9,4.4,2.9,7.1,2.9s5.2-1,7.1-2.9c1.9-1.9,2.9-4.4,2.9-7.1
			c0-2.7-1-5.2-2.9-7.1C66.7,29.7,64.2,28.6,61.5,28.6z"/>
		<path fill="#FFFFFF" d="M67.8,40.5c-0.6,0-1-0.4-1-1c0-3.6-2.8-6.4-6.3-6.4c-0.6,0-1-0.4-1-1s0.4-1,1-1c4.6,0,8.3,3.8,8.3,8.4
			C68.8,40.1,68.4,40.5,67.8,40.5z"/>
		<g>
			<path fill="#FFFFFF" d="M46.1,52.1c-0.5,0-1.1,0.2-1.5,0.6c-0.8,0.8-0.8,2.1,0,2.9c0.4,0.4,0.9,0.6,1.5,0.6s1.1-0.2,1.5-0.6
				c0.8-0.8,0.8-2.1,0-2.9C47.2,52.3,46.6,52.1,46.1,52.1z"/>
			<path fill="#FFFFFF" d="M59.3,48.3c-1-0.2-1.9-0.6-2.8-1.1c-0.6-0.3-1.2-0.7-1.7-1.2c-0.1-0.1-0.1-0.1-0.2-0.2c0,0,0,0,0,0
				c0,0,0,0,0,0c0,0,0,0,0,0c-0.1-0.1-0.1-0.1-0.2-0.2c-1.4-1.4-2.4-3.2-2.7-5.1c-0.5-0.6-1.3-1.1-2.4-1.3c-0.3,0-0.5-0.1-0.8-0.1
				c-1.6,0-3.2,0.7-4.2,2L27.8,61.3c-1.1,1.4-1.5,3.1-1.1,4.8l-0.4,0.4c-1,1-1.6,2.3-1.6,3.8c0,1.4,0.6,2.8,1.6,3.8
				c1,1,2.3,1.6,3.8,1.6c1.4,0,2.8-0.6,3.8-1.6l0.3-0.3c0.5,0.1,0.9,0.2,1.4,0.2c1.3,0,2.5-0.4,3.5-1.2L59.1,56
				c1.4-1.1,2.1-2.9,2-4.6C61,50.1,60.3,49,59.3,48.3z M56.6,52.9L36.5,69.5c-0.3,0.2-0.6,0.3-0.9,0.3c-0.4,0-0.7-0.1-1-0.4
				l-0.9-0.9L31,71.1c-0.3,0.3-0.6,0.4-0.9,0.4s-0.7-0.1-0.9-0.4c-0.5-0.5-0.5-1.3,0-1.9l2.6-2.6L31,65.8c-0.5-0.5-0.6-1.4-0.1-2
				l16.5-20.1c0.3-0.3,0.7-0.5,1.1-0.5c0.1,0,0.1,0,0.2,0c0.1,0,1.6,3.8,3,5.3l0,0l0,0c0.1,0.1,0.2,0.2,0.3,0.3
				c1.5,1.5,3.2,2.4,5.1,2.8C57.2,52.2,57,52.6,56.6,52.9z"/>
		</g>
	</g>
</g>
</svg>
