<?xml version="1.0" encoding="utf-8"?>
<!-- Generator: Adobe Illustrator 19.2.1, SVG Export Plug-In . SVG Version: 6.00 Build 0)  -->
<svg version="1.1" id="Layer_1" xmlns="http://www.w3.org/2000/svg" xmlns:xlink="http://www.w3.org/1999/xlink" x="0px" y="0px"
	 viewBox="0 0 18.8 18.8" style="enable-background:new 0 0 18.8 18.8;" xml:space="preserve">
<style type="text/css">
	.st0{fill:#FFFFFF;}
</style>
<g>
	<g>
		<path class="st0" d="M9.4,13.8c-2.3,0-4.2-1.9-4.2-4.2c0-1.1,0.4-2.2,1.2-3s1.9-1.3,3-1.3c2.3,0,4.3,1.9,4.3,4.2c0,0,0,0,0,0
			C13.6,11.9,11.8,13.8,9.4,13.8C9.4,13.8,9.4,13.8,9.4,13.8z M9.4,6.3C9.4,6.3,9.4,6.3,9.4,6.3c-0.9,0-1.7,0.4-2.3,1
			c-0.6,0.6-1,1.4-0.9,2.3c0,1.8,1.5,3.3,3.3,3.3c0,0,0,0,0,0c1.8,0,3.3-1.5,3.3-3.3v0C12.7,7.7,11.2,6.3,9.4,6.3z"/>
	</g>
	<g>
		<path class="st0" d="M2.8,10.1c-0.3,0-0.5-0.2-0.5-0.5c0-2.4,1.1-4.6,3.1-5.9C5.6,3.5,5.9,3.6,6,3.8C6.2,4,6.1,4.3,5.9,4.5
			C4.2,5.6,3.2,7.5,3.2,9.6C3.2,9.9,3,10.1,2.8,10.1C2.8,10.1,2.8,10.1,2.8,10.1z"/>
	</g>
	<g>
		<path class="st0" d="M0.6,10.1c-0.3,0-0.5-0.2-0.5-0.5c0-3.1,1.5-6,4-7.7C4.4,1.8,4.7,1.8,4.8,2C5,2.3,4.9,2.6,4.7,2.7
			C2.4,4.3,1.1,6.9,1.1,9.6C1.1,9.9,0.9,10.1,0.6,10.1C0.6,10.1,0.6,10.1,0.6,10.1z"/>
	</g>
	<g>
		<path class="st0" d="M13.2,15.3c-0.2,0-0.3-0.1-0.4-0.2c-0.2-0.2-0.1-0.5,0.1-0.7c1.7-1.2,2.7-3.1,2.7-5.1c0-0.3,0.2-0.5,0.5-0.5
			c0,0,0,0,0,0c0.3,0,0.5,0.2,0.5,0.5c0,2.4-1.1,4.6-3.1,5.9C13.4,15.2,13.3,15.3,13.2,15.3z"/>
	</g>
	<g>
		<path class="st0" d="M14.4,17c-0.2,0-0.3-0.1-0.4-0.2c-0.2-0.2-0.1-0.5,0.1-0.7c2.3-1.6,3.6-4.1,3.6-6.9c0-0.3,0.2-0.5,0.5-0.5
			c0,0,0,0,0,0c0.3,0,0.5,0.2,0.5,0.5c0,3.1-1.5,6-4,7.7C14.6,17,14.5,17,14.4,17z"/>
	</g>
</g>
</svg>
