<?xml version="1.0" encoding="utf-8"?>
<!-- Generator: Adobe Illustrator 18.1.0, SVG Export Plug-In . SVG Version: 6.00 Build 0)  -->
<svg version="1.1" xmlns="http://www.w3.org/2000/svg" xmlns:xlink="http://www.w3.org/1999/xlink" x="0px" y="0px"
	 viewBox="0 0 100 100" enable-background="new 0 0 100 100" xml:space="preserve">
<g id="Background">
</g>
<g id="Layer_1">
	<g>
		<path fill="#FFFFFF" d="M67.4,49.8L57.6,40c-3.4-3.4-8-5.3-12.9-5.3c-4.4,0-8.5,1.6-11.8,4.4c-0.4-0.6-0.8-1.3-0.9-2.2
			c-0.2-1.6,0.7-3.4,2.5-5.2l1.8-1.8c0.3-0.3,6.8-6.9,2.8-11c-0.4-0.4-1-0.4-1.4,0c-0.4,0.4-0.4,1,0,1.4c2.6,2.6-2.7,8.1-2.8,8.1
			l-1.8,1.8c-2.3,2.3-3.3,4.6-3.1,6.8c0.1,1.4,0.8,2.6,1.4,3.4c-3.2,3.4-4.9,7.8-4.9,12.4c0,4.9,1.9,9.4,5.3,12.9l9.8,9.8
			c3.4,3.4,8,5.3,12.9,5.3c4.9,0,9.4-1.9,12.9-5.3C74.5,68.5,74.5,56.9,67.4,49.8z M54.8,42.8l0.6,0.6L47,51.8L36.5,41.2
			c2.4-1.7,5.2-2.6,8.2-2.6C48.5,38.6,52.1,40.1,54.8,42.8z M30.5,52.9c0-3.3,1.1-6.4,3.1-8.9l10.6,10.6l-8.9,8.9l-0.6-0.6
			C32,60.2,30.5,56.7,30.5,52.9z M64.6,72.7c-2.7,2.7-6.3,4.2-10.1,4.2s-7.4-1.5-10.1-4.2l-6.4-6.4L48.2,56H48c0,0,0,0,0,0l10-9.8
			l6.5,6.4C70,58.2,70.2,67.2,64.6,72.7z"/>
		<circle fill="#FFFFFF" cx="59.7" cy="67.9" r="2.6"/>
	</g>
</g>
</svg>
