<?xml version="1.0" encoding="utf-8"?>
<!-- Generator: Adobe Illustrator 19.2.1, SVG Export Plug-In . SVG Version: 6.00 Build 0)  -->
<svg version="1.1" id="Layer_1" xmlns="http://www.w3.org/2000/svg" xmlns:xlink="http://www.w3.org/1999/xlink" x="0px" y="0px"
	 viewBox="0 0 18.8 18.8" style="enable-background:new 0 0 18.8 18.8;" xml:space="preserve">
<style type="text/css">
	.st0{fill:#FFFFFF;}
</style>
<g>
	<g>
		<path class="st0" d="M9.1,15.2L4,15.9c-0.1,0-0.3,0-0.4,0c-1.3,0-2.4-1-2.6-2.3L0.3,8.6c-0.2-1.4,0.8-2.8,2.2-3L2.4,6.8
			C1.7,7,1.3,7.7,1.4,8.4l0.7,5.1c0.1,0.7,0.7,1.3,1.5,1.3c0.1,0,0.1,0,0.2,0l1.3-0.2c0.3,0.2,0.7,0.3,1.1,0.3L9.1,15.2z"/>
	</g>
	<g>
		<path class="st0" d="M16.7,5.9l0,0.2c-0.2-0.1-0.5-0.2-0.8-0.2l-0.4,0v0c0-0.4-0.1-0.8-0.3-1.1c-0.3-0.3-0.6-0.5-1-0.5L5.3,3.4
			c0,0-0.1,0-0.1,0C4.4,3.4,3.8,4,3.7,4.7L3.6,5.4L3.5,6.6L3.2,9.8c-0.1,0.8,0.5,1.5,1.2,1.6l-0.1,0.6c0,0.2,0,0.3,0,0.5
			C3,12.4,2,11.2,2.1,9.7l0.3-2.9l0.1-1.2l0.1-0.9c0.1-1.4,1.3-2.4,2.6-2.4c0.1,0,0.2,0,0.2,0L14.2,3C15.7,3.2,16.8,4.5,16.7,5.9z"
			/>
	</g>
	<g>
		<path class="st0" d="M15.9,5.3l-2.4-0.2L8.8,4.7L7.1,4.5c-0.1,0-0.2,0-0.2,0c-0.7,0-1.3,0.3-1.8,0.7C4.8,5.5,4.5,6,4.3,6.5
			c0,0.2-0.1,0.3-0.1,0.5l-0.4,5.1c-0.1,1.1,0.5,2,1.3,2.5c0.3,0.2,0.7,0.3,1.1,0.3l2.9,0.2l6,0.5c0.1,0,0.2,0,0.2,0
			c1.4,0,2.5-1,2.6-2.4l0.4-5.1C18.5,6.7,17.4,5.4,15.9,5.3z M16.8,13.2c-0.1,0.8-0.7,1.4-1.5,1.4c0,0-0.1,0-0.1,0l-1.6-0.1L9.1,14
			l-2.7-0.2c-0.4,0-0.8-0.2-1-0.5C5,12.9,4.9,12.5,5,12.1L5.4,7c0-0.3,0.1-0.6,0.3-0.8C6,5.9,6.4,5.7,6.9,5.7H7l1.8,0.2L13,6.2
			l1.3,0.1l1.6,0.1c0.8,0.1,1.4,0.8,1.4,1.6L16.8,13.2z"/>
	</g>
</g>
</svg>
