<?xml version="1.0" encoding="utf-8"?>
<!-- Generator: Adobe Illustrator 19.2.1, SVG Export Plug-In . SVG Version: 6.00 Build 0)  -->
<svg version="1.1" id="Layer_1" xmlns="http://www.w3.org/2000/svg" xmlns:xlink="http://www.w3.org/1999/xlink" x="0px" y="0px"
	 viewBox="0 0 18.8 18.8" style="enable-background:new 0 0 18.8 18.8;" xml:space="preserve">
<style type="text/css">
	.st0{fill:#FFFFFF;}
</style>
<g>
	<g>
		<path class="st0" d="M3,6C2.6,6,2.3,6.4,2.3,6.8v1.4C2.3,8.7,2.6,9,3,9h1.4c0.4,0,0.8-0.3,0.8-0.8V6.8C5.2,6.4,4.9,6,4.5,6H3z"/>
	</g>
	<g>
		<path class="st0" d="M6.8,6C6.4,6,6,6.4,6,6.8v1.4C6,8.7,6.4,9,6.8,9h1.4C8.7,9,9,8.7,9,8.2V6.8C9,6.4,8.7,6,8.2,6H6.8z"/>
	</g>
	<g>
		<path class="st0" d="M10.6,6c-0.4,0-0.8,0.3-0.8,0.8v1.4c0,0.4,0.3,0.8,0.8,0.8H12c0.4,0,0.8-0.3,0.8-0.8V6.8
			C12.8,6.4,12.4,6,12,6H10.6z"/>
	</g>
	<g>
		<path class="st0" d="M3,9.8c-0.4,0-0.8,0.3-0.8,0.8V12c0,0.4,0.3,0.8,0.8,0.8h1.4c0.4,0,0.8-0.3,0.8-0.8v-1.4
			c0-0.4-0.3-0.8-0.8-0.8H3z"/>
	</g>
	<g>
		<path class="st0" d="M6.8,9.8C6.4,9.8,6,10.1,6,10.6V12c0,0.4,0.3,0.8,0.8,0.8h1.4C8.7,12.8,9,12.4,9,12v-1.4
			c0-0.4-0.3-0.8-0.8-0.8H6.8z"/>
	</g>
	<g>
		<path class="st0" d="M10.6,9.8c-0.4,0-0.8,0.3-0.8,0.8V12c0,0.4,0.3,0.8,0.8,0.8H12c0.4,0,0.8-0.3,0.8-0.8v-1.4
			c0-0.4-0.3-0.8-0.8-0.8H10.6z"/>
	</g>
	<g>
		<path class="st0" d="M14.3,6c-0.4,0-0.8,0.3-0.8,0.8v1.4c0,0.4,0.3,0.8,0.8,0.8h1.4c0.4,0,0.8-0.3,0.8-0.8V6.8
			c0-0.4-0.3-0.8-0.8-0.8H14.3z"/>
	</g>
	<g>
		<path class="st0" d="M6.8,2.3C6.4,2.3,6,2.6,6,3v1.4c0,0.4,0.3,0.8,0.8,0.8h1.4C8.7,5.3,9,4.9,9,4.5V3c0-0.4-0.3-0.8-0.8-0.8H6.8z
			"/>
	</g>
	<g>
		<path class="st0" d="M10.6,2.3c-0.4,0-0.8,0.3-0.8,0.8v1.4c0,0.4,0.3,0.8,0.8,0.8H12c0.4,0,0.8-0.3,0.8-0.8V3
			c0-0.4-0.3-0.8-0.8-0.8H10.6z"/>
	</g>
	<g>
		<path class="st0" d="M14.3,9.8c-0.4,0-0.8,0.3-0.8,0.8V12c0,0.4,0.3,0.8,0.8,0.8h1.4c0.4,0,0.8-0.3,0.8-0.8v-1.4
			c0-0.4-0.3-0.8-0.8-0.8H14.3z"/>
	</g>
	<g>
		<path class="st0" d="M6.8,13.5c-0.4,0-0.8,0.3-0.8,0.8v1.4c0,0.4,0.3,0.8,0.8,0.8h1.4c0.4,0,0.8-0.3,0.8-0.8v-1.4
			c0-0.4-0.3-0.8-0.8-0.8H6.8z"/>
	</g>
	<g>
		<path class="st0" d="M10.6,13.5c-0.4,0-0.8,0.3-0.8,0.8v1.4c0,0.4,0.3,0.8,0.8,0.8H12c0.4,0,0.8-0.3,0.8-0.8v-1.4
			c0-0.4-0.3-0.8-0.8-0.8H10.6z"/>
	</g>
</g>
</svg>
