<?xml version="1.0" encoding="utf-8"?>
<!-- Generator: Adobe Illustrator 19.2.1, SVG Export Plug-In . SVG Version: 6.00 Build 0)  -->
<svg version="1.1" id="Layer_1" xmlns="http://www.w3.org/2000/svg" xmlns:xlink="http://www.w3.org/1999/xlink" x="0px" y="0px"
	 viewBox="0 0 18.8 18.8" style="enable-background:new 0 0 18.8 18.8;" xml:space="preserve">
<style type="text/css">
	.st0{fill:#FFFFFF;}
</style>
<g>
	<g>
		<g>
			<path class="st0" d="M5.4,9.8c-0.3,0-0.6-0.3-0.6-0.6c0-0.3,0.3-0.6,0.6-0.6h0.8c0.3,0,0.6,0.3,0.6,0.6c0,0.3-0.2,0.6-0.6,0.6
				V9.2l0,0.6L5.4,9.8z M3.5,9.8H3c-0.1,0-0.2,0-0.4,0c-0.3,0-0.5-0.3-0.5-0.6c0-0.3,0.3-0.5,0.6-0.5c0.1,0,0.1,0,0.2,0h0.5
				c0.3,0,0.6,0.3,0.6,0.6C4.1,9.5,3.8,9.8,3.5,9.8z M7.9,9C7.8,9,7.7,9,7.6,8.9C7.3,8.7,7.3,8.3,7.5,8.1c0.1-0.1,0.2-0.3,0.3-0.5
				c0.1-0.3,0.4-0.4,0.7-0.3C8.9,7.4,9,7.7,8.9,8C8.8,8.3,8.6,8.6,8.4,8.8C8.3,9,8.1,9,7.9,9z M1.1,8.8C1,8.8,0.8,8.7,0.7,8.6
				C0.5,8.3,0.4,8,0.3,7.7C0.2,7.4,0.4,7.1,0.7,7C1,6.9,1.3,7.1,1.4,7.4c0,0.2,0.1,0.4,0.2,0.5c0.2,0.3,0.1,0.6-0.1,0.8
				C1.4,8.8,1.3,8.8,1.1,8.8z M8.5,6.4c-0.3,0-0.6-0.3-0.6-0.6V5.1c0-0.3,0.3-0.6,0.6-0.6c0.3,0,0.6,0.3,0.6,0.6v0.8
				C9.1,6.2,8.8,6.4,8.5,6.4z M0.7,6.2c-0.3,0-0.6-0.3-0.6-0.6V4.8c0-0.3,0.3-0.6,0.6-0.6s0.6,0.3,0.6,0.6v0.8
				C1.3,5.9,1.1,6.2,0.7,6.2z M8.4,3.7c-0.3,0-0.5-0.2-0.5-0.4C7.8,3.1,7.7,2.9,7.6,2.8C7.5,2.5,7.5,2.2,7.8,2
				C8,1.8,8.4,1.9,8.6,2.1C8.8,2.4,8.9,2.7,9,3c0.1,0.3-0.1,0.6-0.4,0.7C8.5,3.7,8.5,3.7,8.4,3.7z M0.9,3.5c-0.1,0-0.1,0-0.2,0
				C0.4,3.3,0.3,3,0.4,2.7c0.1-0.3,0.3-0.6,0.5-0.8c0.2-0.2,0.6-0.3,0.8,0C1.9,2,2,2.4,1.7,2.6C1.6,2.8,1.5,2.9,1.4,3.1
				C1.3,3.4,1.1,3.5,0.9,3.5z M6.5,2.1C6.5,2.1,6.5,2.1,6.5,2.1C6.4,2,6.3,2,6.2,2H5.7C5.4,2,5.1,1.8,5.1,1.5s0.3-0.6,0.6-0.6h0.5
				c0.1,0,0.2,0,0.4,0c0.3,0,0.5,0.3,0.5,0.6C7,1.9,6.8,2.1,6.5,2.1z M3.8,2L3,2C2.7,2,2.4,1.8,2.4,1.5c0-0.3,0.3-0.6,0.6-0.6
				c0,0,0,0,0,0h0.8c0.3,0,0.6,0.3,0.6,0.6S4.1,2,3.8,2z"/>
		</g>
		<g>
			<path class="st0" d="M15.8,17.9h-3.2c-1.6,0-2.8-1.3-2.8-2.8v-3.2C9.7,10.3,11,9,12.6,9h3.2c1.6,0,2.8,1.3,2.8,2.8v3.2
				C18.6,16.6,17.3,17.9,15.8,17.9z M12.6,10.1c-0.9,0-1.7,0.8-1.7,1.7v3.2c0,0.9,0.8,1.7,1.7,1.7h3.2c0.9,0,1.7-0.8,1.7-1.7v-3.2
				c0-0.9-0.8-1.7-1.7-1.7H12.6z"/>
		</g>
		<g>
			<path class="st0" d="M7.4,13.9C7.4,13.9,7.4,13.9,7.4,13.9c-3.3,0-3.2-1.9-3.2-3c0-0.1,0-0.2,0-0.2c0-0.2,0.2-0.4,0.4-0.4
				c0.2,0,0.4,0.2,0.4,0.4c0,0.1,0,0.2,0,0.3c0,1-0.1,2,2.4,2.1c0.2,0,0.4,0.2,0.4,0.4C7.8,13.8,7.6,13.9,7.4,13.9z"/>
		</g>
		<g>
			<path class="st0" d="M8.9,14C8.9,14,8.9,14,8.9,14c-1.8-0.1-2.4-1.6-2.5-1.6c-0.1-0.2,0-0.5,0.2-0.6c0.2-0.1,0.5,0,0.6,0.2l0,0
				c0,0,0.5,1,1.7,1.1c0.2,0,0.4,0.2,0.4,0.5C9.3,13.8,9.1,14,8.9,14z"/>
		</g>
		<g>
			<path class="st0" d="M6.7,15.2c-0.1,0-0.1,0-0.2-0.1c-0.2-0.1-0.3-0.4-0.2-0.6c0-0.1,0.8-1.5,2.6-1.4c0.2,0,0.4,0.2,0.4,0.5
				c0,0.2-0.2,0.4-0.5,0.4C7.6,14,7.1,14.9,7.1,15C7,15.1,6.8,15.2,6.7,15.2z"/>
		</g>
	</g>
</g>
</svg>
