<?xml version="1.0" encoding="utf-8"?>
<!-- Generator: Adobe Illustrator 19.2.1, SVG Export Plug-In . SVG Version: 6.00 Build 0)  -->
<svg version="1.1" id="Layer_1" xmlns="http://www.w3.org/2000/svg" xmlns:xlink="http://www.w3.org/1999/xlink" x="0px" y="0px"
	 viewBox="0 0 18.8 18.8" style="enable-background:new 0 0 18.8 18.8;" xml:space="preserve">
<style type="text/css">
	.st0{fill:#FFFFFF;}
</style>
<g>
	<g>
		<path class="st0" d="M1.2,4.1c-0.4,0-0.8,0.3-0.8,0.8v1.4c0,0.4,0.3,0.8,0.8,0.8h1.4c0.4,0,0.8-0.3,0.8-0.8V4.9
			c0-0.4-0.3-0.8-0.8-0.8H1.2z"/>
	</g>
	<g>
		<path class="st0" d="M4.9,4.1c-0.4,0-0.8,0.3-0.8,0.8v1.4c0,0.4,0.3,0.8,0.8,0.8h1.4c0.4,0,0.8-0.3,0.8-0.8V4.9
			c0-0.4-0.3-0.8-0.8-0.8H4.9z"/>
	</g>
	<g>
		<path class="st0" d="M8.7,4.1c-0.4,0-0.8,0.3-0.8,0.8v1.4c0,0.4,0.3,0.8,0.8,0.8h1.4c0.4,0,0.8-0.3,0.8-0.8V4.9
			c0-0.4-0.3-0.8-0.8-0.8H8.7z"/>
	</g>
	<g>
		<path class="st0" d="M1.2,7.9c-0.4,0-0.8,0.3-0.8,0.8v1.4c0,0.4,0.3,0.8,0.8,0.8h1.4c0.4,0,0.8-0.3,0.8-0.8V8.7
			c0-0.4-0.3-0.8-0.8-0.8H1.2z"/>
	</g>
	<g>
		<path class="st0" d="M1.2,11.7c-0.4,0-0.8,0.3-0.8,0.8v1.4c0,0.4,0.3,0.8,0.8,0.8h1.4c0.4,0,0.8-0.3,0.8-0.8v-1.4
			c0-0.4-0.3-0.8-0.8-0.8H1.2z"/>
	</g>
	<g>
		<path class="st0" d="M4.9,7.9c-0.4,0-0.8,0.3-0.8,0.8v1.4c0,0.4,0.3,0.8,0.8,0.8h1.4c0.4,0,0.8-0.3,0.8-0.8V8.7
			c0-0.4-0.3-0.8-0.8-0.8H4.9z"/>
	</g>
	<g>
		<path class="st0" d="M8.7,7.9c-0.4,0-0.8,0.3-0.8,0.8v1.4c0,0.4,0.3,0.8,0.8,0.8h1.4c0.4,0,0.8-0.3,0.8-0.8V8.7
			c0-0.4-0.3-0.8-0.8-0.8H8.7z"/>
	</g>
	<g>
		<path class="st0" d="M12.5,4.1c-0.4,0-0.8,0.3-0.8,0.8v1.4c0,0.4,0.3,0.8,0.8,0.8h1.4c0.4,0,0.8-0.3,0.8-0.8V4.9
			c0-0.4-0.3-0.8-0.8-0.8H12.5z"/>
	</g>
	<g>
		<path class="st0" d="M12.5,7.9c-0.4,0-0.8,0.3-0.8,0.8v1.4c0,0.4,0.3,0.8,0.8,0.8h1.4c0.4,0,0.8-0.3,0.8-0.8V8.7
			c0-0.4-0.3-0.8-0.8-0.8H12.5z"/>
	</g>
	<g>
		<path class="st0" d="M12.5,11.7c-0.4,0-0.8,0.3-0.8,0.8v1.4c0,0.4,0.3,0.8,0.8,0.8h1.4c0.4,0,0.8-0.3,0.8-0.8v-1.4
			c0-0.4-0.3-0.8-0.8-0.8H12.5z"/>
	</g>
	<g>
		<path class="st0" d="M16.2,4.1c-0.4,0-0.8,0.3-0.8,0.8v1.4c0,0.4,0.3,0.8,0.8,0.8h1.4c0.4,0,0.8-0.3,0.8-0.8V4.9
			c0-0.4-0.3-0.8-0.8-0.8H16.2z"/>
	</g>
	<g>
		<path class="st0" d="M16.2,7.9c-0.4,0-0.8,0.3-0.8,0.8v1.4c0,0.4,0.3,0.8,0.8,0.8h1.4c0.4,0,0.8-0.3,0.8-0.8V8.7
			c0-0.4-0.3-0.8-0.8-0.8H16.2z"/>
	</g>
	<g>
		<path class="st0" d="M16.2,11.7c-0.4,0-0.8,0.3-0.8,0.8v1.4c0,0.4,0.3,0.8,0.8,0.8h1.4c0.4,0,0.8-0.3,0.8-0.8v-1.4
			c0-0.4-0.3-0.8-0.8-0.8H16.2z"/>
	</g>
	<g>
		<path class="st0" d="M4.9,11.7c-0.4,0-0.8,0.3-0.8,0.8v1.4c0,0.4,0.3,0.8,0.8,0.8h1.4c0.4,0,0.8-0.3,0.8-0.8v-1.4
			c0-0.4-0.3-0.8-0.8-0.8H4.9z"/>
	</g>
	<g>
		<path class="st0" d="M8.7,11.7c-0.4,0-0.8,0.3-0.8,0.8v1.4c0,0.4,0.3,0.8,0.8,0.8h1.4c0.4,0,0.8-0.3,0.8-0.8v-1.4
			c0-0.4-0.3-0.8-0.8-0.8H8.7z"/>
	</g>
</g>
</svg>
