<?xml version="1.0" encoding="utf-8"?>
<!-- Generator: Adobe Illustrator 18.1.0, SVG Export Plug-In . SVG Version: 6.00 Build 0)  -->
<svg version="1.1" xmlns="http://www.w3.org/2000/svg" xmlns:xlink="http://www.w3.org/1999/xlink" x="0px" y="0px"
	 viewBox="0 0 100 100" enable-background="new 0 0 100 100" xml:space="preserve">
<g id="Background">
</g>
<g id="Layer_1">
	<g>
		<g>
			<path fill="#FFFFFF" d="M76.5,64H23.4c-3,0-5.5-2.5-5.5-5.5V40.2c0-3,2.5-5.5,5.5-5.5h53.1c3,0,5.5,2.5,5.5,5.5v18.3
				C81.9,61.5,79.5,64,76.5,64z M23.4,38.6c-0.9,0-1.6,0.7-1.6,1.6v18.3c0,0.9,0.7,1.6,1.6,1.6h53.1c0.9,0,1.6-0.7,1.6-1.6V40.2
				c0-0.9-0.7-1.6-1.6-1.6H23.4z"/>
			<path fill="#FFFFFF" d="M43.7,47.5H29.6c-0.9,0-1.7-0.8-1.7-1.7c0-0.9,0.8-1.7,1.7-1.7h14.1c0.9,0,1.7,0.8,1.7,1.7
				C45.4,46.7,44.6,47.5,43.7,47.5z"/>
			<path fill="#FFFFFF" d="M50.8,47.5h-1.2c-0.9,0-1.7-0.8-1.7-1.7c0-0.9,0.8-1.7,1.7-1.7h1.2c0.9,0,1.7,0.8,1.7,1.7
				C52.5,46.7,51.8,47.5,50.8,47.5z"/>
			<path fill="#FFFFFF" d="M62.1,47.5h-5.5c-0.9,0-1.7-0.8-1.7-1.7c0-0.9,0.8-1.7,1.7-1.7h5.5c0.9,0,1.7,0.8,1.7,1.7
				C63.8,46.7,63,47.5,62.1,47.5z"/>
			<path fill="#FFFFFF" d="M37.2,54.7h-7.7c-0.9,0-1.7-0.8-1.7-1.7c0-0.9,0.8-1.7,1.7-1.7h7.7c0.9,0,1.7,0.8,1.7,1.7
				C39,54,38.2,54.7,37.2,54.7z"/>
			<path fill="#FFFFFF" d="M69.1,54.7H43c-0.9,0-1.7-0.8-1.7-1.7c0-0.9,0.8-1.7,1.7-1.7h26.1c0.9,0,1.7,0.8,1.7,1.7
				C70.8,54,70.1,54.7,69.1,54.7z"/>
		</g>
	</g>
</g>
</svg>
