<?xml version="1.0" encoding="utf-8"?>
<!-- Generator: Adobe Illustrator 18.1.1, SVG Export Plug-In . SVG Version: 6.00 Build 0)  -->
<svg version="1.1" id="Layer_1" xmlns="http://www.w3.org/2000/svg" xmlns:xlink="http://www.w3.org/1999/xlink" x="0px" y="0px"
	 viewBox="0 0 222.5 227.6" enable-background="new 0 0 222.5 227.6" xml:space="preserve">
<g>
	<g>
		<path fill="#C7B299" d="M161.6,20.4l41.5,34.9c19.6-22.5,11.1-44.1,8.3-49.7c0,0,0,0,0,0s0,0,0,0c-0.1-0.2-0.9-1.6-2.7-2
			c0,0-0.1,0-0.1,0C201.9,1.6,179.8-2.2,161.6,20.4z"/>
		<path fill="#F8C29B" d="M194.3,39c2.2,1.8,5.6,0.7,6.1-2.1c0.5-2.6,0.7-5.2,0.7-7.9c0-3.1-0.4-6-0.9-8.5c-0.3-1.7-1.8-2.9-3.5-3
			c-0.3,0-0.7,0-1.1,0c-5.3,0-10.3,0.9-15.1,2.7c-2.7,1-3.2,4.5-1,6.4L194.3,39z"/>
		<path opacity="9.000000e-02" d="M160.6,21.4l41.5,34.9c2.8-3.2,5-6.4,6.8-9.5c-15.8-8-29.3-19.9-39.2-34.4
			C166.6,14.8,163.6,17.7,160.6,21.4z"/>
	</g>
	<g>
		<path fill="#C7B299" d="M63.4,18.4L21.9,53.3C2.3,30.8,10.8,9.2,13.5,3.5c0,0,0,0,0,0s0,0,0,0c0.1-0.2,0.9-1.6,2.7-2
			c0,0,0.1,0,0.1,0C23.1-0.4,45.2-4.2,63.4,18.4z"/>
		<path fill="#F8C29B" d="M30.7,36.9c-2.2,1.8-5.6,0.7-6.1-2.1c-0.5-2.6-0.7-5.2-0.7-7.9c0-3.1,0.4-6,0.9-8.5c0.3-1.7,1.8-2.9,3.5-3
			c0.3,0,0.7,0,1.1,0c5.3,0,10.3,0.9,15.1,2.7c2.7,1,3.2,4.5,1,6.4L30.7,36.9z"/>
		<path opacity="9.000000e-02" d="M64.4,19.3L22.9,54.3c-2.8-3.2-5-6.4-6.8-9.5c15.8-8,29.3-19.9,39.2-34.4
			C58.4,12.7,61.4,15.7,64.4,19.3z"/>
	</g>
	<path fill="#C7B299" d="M11.6,8.3"/>
	<path fill="#C7B299" d="M222.5,116.4c0,50.8-34,93.6-80.5,107c-9.8,2.8-20.1,4.3-30.7,4.3s-21-1.5-30.7-4.3C34,210,0,167.1,0,116.4
		C0,54.9,49.8,5.1,111.3,5.1S222.5,54.9,222.5,116.4z"/>
	<g>
		<g>
			<circle fill="#FFFFFF" cx="63.4" cy="73" r="17.8"/>
			<circle fill="#FFFFFF" cx="159.1" cy="73" r="17.8"/>
		</g>
		
			<path fill="none" stroke="#4D4D4D" stroke-width="6.9239" stroke-linecap="round" stroke-linejoin="round" stroke-miterlimit="10" d="
			M84.8,100.5c-1.1,2.1-1.7,4.5-1.7,7c0,8.3,6.7,15,15,15c0.3,0,0.6,0,0.9,0c5.3-0.3,9.9-3.4,12.3-7.9c2.4,4.5,7,7.6,12.3,7.9
			c0.3,0,0.6,0,0.9,0c8.3,0,15-6.7,15-15c0-2.5-0.6-4.9-1.7-7"/>
		<g>
			
				<line fill="none" stroke="#4D4D4D" stroke-width="3.7968" stroke-linecap="round" stroke-linejoin="round" stroke-miterlimit="10" x1="67.7" y1="103.8" x2="56" y2="101.8"/>
			
				<line fill="none" stroke="#4D4D4D" stroke-width="3.7968" stroke-linecap="round" stroke-linejoin="round" stroke-miterlimit="10" x1="67.7" y1="113.2" x2="56" y2="115.2"/>
			
				<line fill="none" stroke="#4D4D4D" stroke-width="3.7968" stroke-linecap="round" stroke-linejoin="round" stroke-miterlimit="10" x1="70.8" y1="121.9" x2="60.6" y2="127.9"/>
		</g>
		<g>
			
				<line fill="none" stroke="#4D4D4D" stroke-width="3.7968" stroke-linecap="round" stroke-linejoin="round" stroke-miterlimit="10" x1="154.9" y1="102.2" x2="166.5" y2="100.1"/>
			
				<line fill="none" stroke="#4D4D4D" stroke-width="3.7968" stroke-linecap="round" stroke-linejoin="round" stroke-miterlimit="10" x1="154.9" y1="111.5" x2="166.5" y2="113.6"/>
			
				<line fill="none" stroke="#4D4D4D" stroke-width="3.7968" stroke-linecap="round" stroke-linejoin="round" stroke-miterlimit="10" x1="151.7" y1="120.3" x2="161.9" y2="126.2"/>
		</g>
		<ellipse fill="#4D4D4D" cx="112" cy="93.3" rx="6.9" ry="5.3"/>
		<circle fill="#4D4D4D" cx="159.2" cy="71.5" r="13.4"/>
		<circle fill="#FFFFFF" cx="164.6" cy="66.4" r="3.2"/>
		<circle fill="#FFFFFF" cx="166.5" cy="75.9" r="1.5"/>
		<g>
			<circle fill="#4D4D4D" cx="63.4" cy="71.5" r="13.4"/>
			<circle fill="#FFFFFF" cx="57.1" cy="66.4" r="3.4"/>
			<circle fill="#FFFFFF" cx="54.9" cy="75.9" r="1.5"/>
		</g>
	</g>
	<path fill="#FFFFFF" d="M142.1,201.3v19.9c0,0.7,0,1.5-0.1,2.2c-9.8,2.8-20.1,4.3-30.7,4.3s-21-1.5-30.7-4.3
		c-0.1-0.7-0.1-1.4-0.1-2.2v-19.9c0-16.4,13.4-29.8,29.8-29.8h2C128.7,171.5,142.1,184.9,142.1,201.3z"/>
	<circle opacity="0.38" fill="#FFFFFF" cx="196.6" cy="107.9" r="17.1"/>
	<circle opacity="0.38" fill="#FFFFFF" cx="28.7" cy="107.9" r="17.1"/>
	<g>
		<path fill="#E57273" d="M123.6,126.1v13c0,6.4-5.3,11.7-11.7,11.7h-1.2c-6.4,0-11.7-5.3-11.7-11.7v-13c5.3-0.3,9.9-3.4,12.3-7.9
			C113.6,122.7,118.2,125.8,123.6,126.1z"/>
		<line fill="none" x1="111.3" y1="118.2" x2="111.3" y2="150.8"/>
		<path opacity="0.11" fill="#FFFFFF" d="M123.6,126.1v13c0,6.4-5.3,11.7-11.7,11.7h-0.6v-32.6C113.6,122.7,118.2,125.8,123.6,126.1
			z"/>
	</g>
</g>
</svg>
