<svg xmlns="http://www.w3.org/2000/svg" viewBox="0 0 18 18"><defs><style>.cls-1{fill:#fff;opacity:0;}.cls-2{fill:#9fa4a8;}</style></defs><title>hardware-speaker</title><g id="Layer_2" data-name="Layer 2"><g id="Layer_1-2" data-name="Layer 1"><rect class="cls-1" width="18" height="18"/><path class="cls-2" d="M9.11,5.64A1.26,1.26,0,1,0,7.85,4.38,1.26,1.26,0,0,0,9.11,5.64Zm0-1.87a.61.61,0,1,1-.61.61A.61.61,0,0,1,9.11,3.77Z"/><path class="cls-2" d="M9.11,10a2.07,2.07,0,1,0,2.08,2.07A2.07,2.07,0,0,0,9.11,10Zm0,3.1a1,1,0,1,1,1-1A1,1,0,0,1,9.11,13.12Z"/><path class="cls-2" d="M13.43.17H4.52A1.76,1.76,0,0,0,2.76,1.93V16a1.79,1.79,0,0,0,1.79,1.79h9.28a1.41,1.41,0,0,0,1.41-1.41V2A1.81,1.81,0,0,0,13.43.17ZM9.11,1.88a2.5,2.5,0,1,1-2.5,2.5A2.5,2.5,0,0,1,9.11,1.88ZM4.56,7.21A.48.48,0,1,1,5,7.69.48.48,0,0,1,4.56,7.21Zm4.55,9.06a4.18,4.18,0,1,1,4.18-4.18A4.18,4.18,0,0,1,9.11,16.27Zm4-8.59a.48.48,0,1,1,.48-.48A.48.48,0,0,1,13.1,7.69Z"/></g></g></svg>