<svg xmlns="http://www.w3.org/2000/svg" viewBox="0 0 18 18"><defs><style>.cls-1{fill:#fff;opacity:0;}.cls-2{fill:#9fa4a8;}</style></defs><title>data-space-station</title><g id="Layer_2" data-name="Layer 2"><g id="Layer_1-2" data-name="Layer 1"><rect class="cls-1" width="18" height="18"/><path class="cls-2" d="M15,9.18l.26.26a4.14,4.14,0,0,1,0,5.82,4,4,0,0,1-5.79,0L9.21,15l2.62-2.62L11,11.55a1.25,1.25,0,1,1,.53-.52l.78.78L15,9.18m-4.52,1.77a.5.5,0,1,0-.5-.5.5.5,0,0,0,.5.5M15,8.07a1.11,1.11,0,0,0-.78.32L12.76,9.85a2.35,2.35,0,1,0-2.87,2.87L8.43,14.18a1.11,1.11,0,0,0,0,1.51l.26.3,0,.05A5.21,5.21,0,0,0,16,8.66l-.26-.26A1.11,1.11,0,0,0,15,8.07Z"/><path class="cls-2" d="M6.36,10.45a.59.59,0,0,1-.59-.59A4.12,4.12,0,0,1,9.89,5.73a.59.59,0,0,1,0,1.19A2.93,2.93,0,0,0,7,9.85.59.59,0,0,1,6.36,10.45Z"/><path class="cls-2" d="M3.61,10.1A.59.59,0,0,1,3,9.51,6.54,6.54,0,0,1,9.54,3a.59.59,0,1,1,0,1.19A5.35,5.35,0,0,0,4.2,9.51.59.59,0,0,1,3.61,10.1Z"/><path class="cls-2" d="M1,9.76a.59.59,0,0,1-.59-.59A8.77,8.77,0,0,1,9.2.4a.59.59,0,1,1,0,1.19A7.59,7.59,0,0,0,1.62,9.17.59.59,0,0,1,1,9.76Z"/></g></g></svg>