<svg xmlns="http://www.w3.org/2000/svg" viewBox="0 0 18 18"><defs><style>.cls-1{fill:#fff;opacity:0;}.cls-2{fill:#9fa4a8;}</style></defs><title>interface-player</title><g id="Layer_2" data-name="Layer 2"><g id="Layer_1-2" data-name="Layer 1"><rect class="cls-1" width="18" height="18"/><path class="cls-2" d="M12.24,8.9a.48.48,0,0,1-.25.43L7.12,12.17a.3.3,0,0,1-.32,0,.29.29,0,0,1-.16-.28v-6a.29.29,0,0,1,.16-.28.3.3,0,0,1,.32,0L12,8.46A.48.48,0,0,1,12.24,8.9Z"/><path class="cls-2" d="M9,17.54A8.54,8.54,0,1,1,17.54,9,8.55,8.55,0,0,1,9,17.54ZM9,1.71A7.29,7.29,0,1,0,16.29,9,7.3,7.3,0,0,0,9,1.71Z"/></g></g></svg>