<svg xmlns="http://www.w3.org/2000/svg" viewBox="0 0 18 18"><defs><style>.cls-1{fill:#fff;opacity:0;}.cls-2{fill:#9fa4a8;}</style></defs><title>interface-light-rectangle</title><g id="Layer_2" data-name="Layer 2"><g id="Layer_1-2" data-name="Layer 1"><rect class="cls-1" width="18" height="18"/><rect class="cls-2" x="2.7" y="4.29" width="2.85" height="2.85" rx="0.69" ry="0.69"/><rect class="cls-2" x="2.7" y="7.58" width="2.85" height="2.85" rx="0.69" ry="0.69"/><rect class="cls-2" x="5.95" y="4.29" width="2.85" height="2.85" rx="0.69" ry="0.69"/><rect class="cls-2" x="5.95" y="7.58" width="2.85" height="2.85" rx="0.69" ry="0.69"/><rect class="cls-2" x="9.2" y="4.29" width="2.85" height="2.85" rx="0.69" ry="0.69"/><rect class="cls-2" x="9.2" y="7.58" width="2.85" height="2.85" rx="0.69" ry="0.69"/><rect class="cls-2" x="12.45" y="4.29" width="2.85" height="2.85" rx="0.69" ry="0.69"/><rect class="cls-2" x="12.45" y="7.58" width="2.85" height="2.85" rx="0.69" ry="0.69"/><rect class="cls-2" x="2.7" y="10.86" width="2.85" height="2.85" rx="0.69" ry="0.69"/><rect class="cls-2" x="5.95" y="10.86" width="2.85" height="2.85" rx="0.69" ry="0.69"/><rect class="cls-2" x="9.2" y="10.86" width="2.85" height="2.85" rx="0.69" ry="0.69"/><rect class="cls-2" x="12.45" y="10.86" width="2.85" height="2.85" rx="0.69" ry="0.69"/></g></g></svg>