<svg xmlns="http://www.w3.org/2000/svg" viewBox="0 0 18 18"><defs><style>.cls-1{fill:#fff;opacity:0;}.cls-2{fill:#9fa4a8;}</style></defs><title>hardware-microphone</title><g id="Layer_2" data-name="Layer 2"><g id="Layer_1-2" data-name="Layer 1"><rect class="cls-1" width="18" height="18"/><circle class="cls-2" cx="13.23" cy="4.89" r="3.43" transform="translate(0.42 10.79) rotate(-45)"/><path class="cls-2" d="M12.06,9A3.91,3.91,0,0,1,10.13,8l-.1-.1h0a3.91,3.91,0,0,1-1-2l-.14,0a.55.55,0,0,0-.51.19L2.14,13.64a.55.55,0,0,0,0,.74l.31.31-1,1a.5.5,0,0,0,.7.7l1-1,.34.34a.55.55,0,0,0,.74,0l7.59-6.25A.55.55,0,0,0,12.06,9ZM8.3,10.41a.57.57,0,1,1,0-.81A.57.57,0,0,1,8.3,10.41Z"/></g></g></svg>