<svg xmlns="http://www.w3.org/2000/svg" viewBox="0 0 18 18"><defs><style>.cls-1{fill:#fff;opacity:0;}.cls-2{fill:#9fa4a8;}</style></defs><title>data-oscillator</title><g id="Layer_2" data-name="Layer 2"><g id="Layer_1-2" data-name="Layer 1"><rect class="cls-1" width="18" height="18"/><path class="cls-2" d="M7.53,7.34a5.74,5.74,0,0,0-.88,1.53.35.35,0,0,1-.34.24l-.12,0A.35.35,0,0,1,6,8.63,5.86,5.86,0,0,1,7,6.87a.35.35,0,0,1,.5,0A.36.36,0,0,1,7.53,7.34Zm2.55-1.25a2.27,2.27,0,0,0-2.16,0,.35.35,0,0,0-.15.48.37.37,0,0,0,.32.19.35.35,0,0,0,.17,0,1.5,1.5,0,0,1,1.48,0,.35.35,0,0,0,.48-.15A.36.36,0,0,0,10.08,6.09ZM6,9.43a.36.36,0,0,0-.49.12A3.38,3.38,0,0,1,4.4,10.81a.36.36,0,0,0-.13.49.34.34,0,0,0,.31.18.31.31,0,0,0,.18,0,4,4,0,0,0,1.4-1.51A.35.35,0,0,0,6,9.43Zm7.57,1.38a3.4,3.4,0,0,1-1.15-1.26.36.36,0,0,0-.62.36,4,4,0,0,0,1.41,1.52.37.37,0,0,0,.18,0,.36.36,0,0,0,.18-.67ZM12,8.62a6.35,6.35,0,0,0-1-1.75.36.36,0,0,0-.55.47,5.58,5.58,0,0,1,.89,1.53.35.35,0,0,0,.33.24.31.31,0,0,0,.13,0A.36.36,0,0,0,12,8.62ZM17.5,9A8.5,8.5,0,1,1,9,.5,8.51,8.51,0,0,1,17.5,9Zm-3.41,2.4a.37.37,0,0,1,.35-.37,1.9,1.9,0,0,0,1.37-.75.36.36,0,0,1,.35-.1A6.63,6.63,0,0,0,16.26,9,7.26,7.26,0,1,0,1.74,9a6.45,6.45,0,0,0,.1,1.17.37.37,0,0,1,.34.11A1.93,1.93,0,0,0,3.56,11a.36.36,0,0,1,.34.37.35.35,0,0,1-.36.35h0a2.41,2.41,0,0,1-1.46-.58,7.26,7.26,0,0,0,13.86,0,2.36,2.36,0,0,1-1.47.59h0A.36.36,0,0,1,14.09,11.4Z"/></g></g></svg>