<svg xmlns="http://www.w3.org/2000/svg" viewBox="0 0 18 18"><defs><style>.cls-1{fill:#fff;opacity:0;}.cls-2{fill:#9fa4a8;}</style></defs><title>data-weather</title><g id="Layer_2" data-name="Layer 2"><g id="Layer_1-2" data-name="Layer 1"><rect class="cls-1" width="18" height="18"/><path class="cls-2" d="M3.92,9.23A2.48,2.48,0,0,1,6.48,8.7,3.06,3.06,0,0,1,7.76,7,2.47,2.47,0,1,0,3.92,9.23Z"/><path class="cls-2" d="M10.6,7.27a3.65,3.65,0,0,1,3.65,3.65c0,.11,0,.21,0,.31a2.31,2.31,0,0,1,3.28,2.09,2.14,2.14,0,0,1-2,2.29l-9.42-.06a2.91,2.91,0,1,1,1-5.65A3.65,3.65,0,0,1,10.6,7.27"/><circle class="cls-2" cx="6.55" cy="3.03" r="0.65" transform="translate(1.65 8.34) rotate(-72.19)"/><circle class="cls-2" cx="1.13" cy="5.82" r="0.65" transform="translate(-4.75 5.11) rotate(-72.19)"/><circle class="cls-2" cx="1.4" cy="9.1" r="0.65" transform="translate(-4 1.65) rotate(-27.19)"/><circle class="cls-2" cx="9.06" cy="5.17" r="0.65" transform="translate(-1.36 4.71) rotate(-27.19)"/><circle class="cls-2" cx="3.26" cy="3.3" r="0.65" transform="translate(-1.15 1.86) rotate(-27.19)"/></g></g></svg>