<?xml version="1.0" encoding="utf-8"?>
<!-- Generator: Adobe Illustrator 18.1.1, SVG Export Plug-In . SVG Version: 6.00 Build 0)  -->
<svg version="1.1" id="Layer_1" xmlns="http://www.w3.org/2000/svg" xmlns:xlink="http://www.w3.org/1999/xlink" x="0px" y="0px"
	 viewBox="0 0 752.2 752.2" enable-background="new 0 0 752.2 752.2" xml:space="preserve">
<rect x="0" y="0" fill="#F7C19A" width="752.2" height="752.2"/>
<g>
	<g>
		<path fill="#C6B198" d="M413,179.5l105.5,39c22.5-57.7-9.3-93.9-18.6-102.9c0,0,0,0,0,0s0,0,0,0c-0.3-0.3-2.9-2.4-6.7-2
			c-0.1,0-0.2,0-0.2,0C478.4,114.6,432.8,122.7,413,179.5z"/>
		<path fill="#F7C19A" d="M489.9,192.8c5.5,2,11.3-2.6,10.4-8.4c-0.9-5.4-2.2-10.8-4.1-15.9c-2.2-6.1-4.9-11.4-7.6-15.9
			c-1.9-3.1-5.6-4.5-9-3.3c-0.7,0.2-1.4,0.5-2.1,0.7c-10.3,3.7-19.5,9-27.6,15.9c-4.5,3.8-3.1,11.1,2.4,13.1L489.9,192.8z"/>
		<path opacity="9.000000e-02" d="M411.7,182.1l105.5,39c3.2-8.2,5.3-16,6.5-23.3c-36.4-4.6-71.1-18.3-100.7-39.6
			C418.8,165,414.9,173,411.7,182.1z"/>
	</g>
	<g>
		<path fill="#C6B198" d="M220,244.5l-56.5,97.3c-54.1-30.1-52.6-78.2-51.2-91.2c0,0,0,0,0,0s0,0,0,0c0.1-0.4,0.7-3.7,3.9-5.9
			c0.1,0,0.1-0.1,0.2-0.1C128.2,236.1,168.5,213.3,220,244.5z"/>
		<path fill="#F7C19A" d="M169.2,303.7c-3,5.1-10.4,5.2-13.4,0.1c-2.8-4.8-5.1-9.7-7-14.9c-2.2-6.1-3.5-11.9-4.3-17.2
			c-0.5-3.5,1.5-7,4.8-8.3c0.7-0.3,1.4-0.5,2.1-0.8c10.3-3.7,20.7-5.5,31.4-5.3c5.9,0.1,9.5,6.6,6.5,11.7L169.2,303.7z"/>
		<path opacity="9.000000e-02" d="M222.6,245.7L166,343c-7.7-4.3-14.3-8.9-19.9-13.8c25.2-26.7,43.2-59.4,52.4-94.6
			C206.2,237.1,214.3,240.7,222.6,245.7z"/>
	</g>
	<path fill="#C6B198" d="M111.8,261.3"/>
	<path fill="#C6B198" d="M599.2,324.1c35.6,99.1-0.7,206.6-82.1,265.2c-17.1,12.3-36.2,22.5-57,30c-20.8,7.5-42,11.8-63,13.2
		C297.1,639,200.6,579.3,165,480.2C121.9,360.3,184.1,228.2,304,185S556.1,204.2,599.2,324.1z"/>
	<g>
		<g>
			<circle fill="#FFFFFF" cx="258.3" cy="351.1" r="37"/>
			<circle fill="#FFFFFF" cx="445" cy="283.9" r="37"/>
		</g>
		
			<path fill="none" stroke="#4D4E4E" stroke-width="14.3583" stroke-linecap="round" stroke-linejoin="round" stroke-miterlimit="10" d="
			M319.3,389.7c-0.7,4.8-0.2,9.9,1.5,14.9c5.8,16.2,23.6,24.5,39.8,18.7c0.6-0.2,1.1-0.4,1.7-0.7c10.2-4.4,17-13.6,18.5-24.1
			c7.8,7,19,9.9,29.6,6.7c0.6-0.2,1.2-0.4,1.7-0.6c16.2-5.8,24.5-23.6,18.7-39.8c-1.8-4.9-4.7-9.1-8.3-12.4"/>
		<g>
			
				<line fill="none" stroke="#4D4E4E" stroke-width="7.8735" stroke-linecap="round" stroke-linejoin="round" stroke-miterlimit="10" x1="288.2" y1="408.3" x2="264" y2="412.5"/>
			
				<line fill="none" stroke="#4D4E4E" stroke-width="7.8735" stroke-linecap="round" stroke-linejoin="round" stroke-miterlimit="10" x1="294.8" y1="426.5" x2="273.4" y2="438.7"/>
			
				<line fill="none" stroke="#4D4E4E" stroke-width="7.8735" stroke-linecap="round" stroke-linejoin="round" stroke-miterlimit="10" x1="307.2" y1="441.4" x2="291.3" y2="460.2"/>
		</g>
		<g>
			
				<line fill="none" stroke="#4D4E4E" stroke-width="7.8735" stroke-linecap="round" stroke-linejoin="round" stroke-miterlimit="10" x1="457.2" y1="343.9" x2="478.6" y2="331.7"/>
			
				<line fill="none" stroke="#4D4E4E" stroke-width="7.8735" stroke-linecap="round" stroke-linejoin="round" stroke-miterlimit="10" x1="463.8" y1="362.1" x2="488" y2="357.9"/>
			
				<line fill="none" stroke="#4D4E4E" stroke-width="7.8735" stroke-linecap="round" stroke-linejoin="round" stroke-miterlimit="10" x1="463.7" y1="381.4" x2="487.9" y2="385.8"/>
		</g>
		
			<ellipse transform="matrix(0.941 -0.3384 0.3384 0.941 -98.9733 145.3897)" fill="#4D4E4E" cx="367.4" cy="356.5" rx="14.3" ry="10.9"/>
		<circle fill="#4D4E4E" cx="444.1" cy="280.9" r="27.8"/>
		<circle fill="#FFFFFF" cx="451.2" cy="267.2" r="6.6"/>
		<circle fill="#FFFFFF" cx="461.6" cy="284.4" r="3"/>
		<g>
			<circle fill="#4D4E4E" cx="257.2" cy="348.1" r="27.8"/>
			<circle fill="#FFFFFF" cx="241.4" cy="342.6" r="7.1"/>
			<circle fill="#FFFFFF" cx="243.8" cy="362.7" r="3"/>
		</g>
	</g>
	<path fill="#FFFFFF" d="M501.9,546.2l13.9,38.8c0.5,1.4,1,2.8,1.4,4.3c-17.1,12.3-36.2,22.5-57,30c-20.8,7.5-42,11.8-63,13.2
		c-0.6-1.4-1.2-2.8-1.7-4.2l-13.9-38.8c-11.5-32,5.3-67.6,37.2-79.1l4-1.4C454.8,497.5,490.3,514.2,501.9,546.2z"/>
	<circle opacity="0.38" fill="#FFFFFF" cx="542.7" cy="325.7" r="35.5"/>
	<circle opacity="0.38" fill="#FFFFFF" cx="215.1" cy="443.6" r="35.5"/>
	<g>
		<path fill="#E47273" d="M413,412.5l9.1,25.3c4.5,12.6-2.1,26.6-14.7,31.1l-2.4,0.9c-12.6,4.5-26.6-2.1-31.1-14.7l-9.1-25.3
			c10.2-4.4,17-13.6,18.5-24.1C391.2,412.8,402.4,415.6,413,412.5z"/>
		<line fill="none" x1="383.4" y1="405.7" x2="406.3" y2="469.3"/>
		<path opacity="0.11" fill="#FFFFFF" d="M413,412.5l9.1,25.3c4.5,12.6-2.1,26.6-14.7,31.1l-1.2,0.4l-22.9-63.6
			C391.2,412.8,402.4,415.6,413,412.5z"/>
	</g>
</g>
<g opacity="0.59">
	<path fill="#FFFFFF" d="M629,198.7l-38.5-26.9c-8.8-6.1-11-18.4-4.9-27.2v0c6.1-8.8,18.4-11,27.2-4.9l38.5,26.9
		c8.8,6.1,11,18.4,4.9,27.2v0C650,202.6,637.8,204.8,629,198.7z"/>
	<circle fill="#FFFFFF" cx="593.7" cy="105.6" r="16.8"/>
	<path fill="#FFFFFF" d="M659.5,98.4c-6.3,9.1-18.9,11.3-28,5c-9.1-6.3-10.6-19.9-4.3-29s18.2-10.3,27.3-4
		C663.6,76.8,665.9,89.3,659.5,98.4z"/>
	<path fill="#FFFFFF" d="M707.7,130.4c-6.3,9.1-19.6,12.4-28.7,6c-9.1-6.3-11.3-18.9-5-28s18.9-11.3,28-5S714,121.3,707.7,130.4z"/>
	<circle fill="#FFFFFF" cx="632" cy="153.2" r="21.6"/>
	<circle fill="#FFFFFF" cx="690" cy="172.7" r="16.8"/>
</g>
<g opacity="0.64">
	<path fill="#FFFFFF" d="M128.2,618l20.3,27.4c4.6,6.3,3.3,15.2-2.9,19.8h0c-6.3,4.6-15.2,3.3-19.8-2.9l-20.3-27.4
		c-4.6-6.3-3.3-15.2,2.9-19.8h0C114.6,610.4,123.6,611.7,128.2,618z"/>
	<circle fill="#FFFFFF" cx="131" cy="690.2" r="12.2"/>
	<path fill="#FFFFFF" d="M84,680c6.5-4.8,15.6-3.5,20.4,3s2.7,16.2-3.8,21s-14.9,2.9-19.7-3.6C76.2,694,77.5,684.8,84,680z"/>
	<path fill="#FFFFFF" d="M58.2,646.8c6.5-4.8,16.4-4,21.2,2.5c4.8,6.5,3.5,15.6-3,20.4c-6.5,4.8-15.6,3.5-20.4-3
		C51.1,660.2,51.8,651.6,58.2,646.8z"/>
	<circle fill="#FFFFFF" cx="115.6" cy="648.6" r="15.7"/>
	<circle fill="#FFFFFF" cx="80.2" cy="621.8" r="12.2"/>
</g>
</svg>
