<?xml version="1.0" encoding="utf-8"?>
<!-- Generator: Adobe Illustrator 18.1.1, SVG Export Plug-In . SVG Version: 6.00 Build 0)  -->
<svg version="1.1" id="Layer_1" xmlns="http://www.w3.org/2000/svg" xmlns:xlink="http://www.w3.org/1999/xlink" x="0px" y="0px"
	 viewBox="0 0 752.2 752.2" enable-background="new 0 0 752.2 752.2" xml:space="preserve">
<rect x="0" y="0" fill="#9EE8DF" width="752.2" height="752.2"/>
<path opacity="5.000000e-02" d="M539.7,387.4c-0.3,55.1-19.1,105.8-50.5,146.1c-9.3,12-19.8,23.1-31.2,33.1
	c-42.6,37.4-98.6,60-159.7,59.7c-37.7-0.2-73.4-9.1-105.1-24.7C113.5,562.3,58.8,479.9,59.3,385c0.4-82.1,42-154.4,105-197.4
	c38.8-26.5,85.9-41.9,136.4-41.7C433.4,146.6,540.4,254.7,539.7,387.4z"/>
<circle opacity="0.53" fill="#FFFFFF" cx="323.9" cy="359.9" r="240.2"/>
<circle opacity="0.53" fill="#FFFFFF" cx="323.9" cy="359.9" r="240.2"/>
<path opacity="0.53" fill="#FFFFFF" d="M325.1,119.7c-50.6-0.3-97.6,15.2-136.4,41.7c-63,43-104.6,115.3-105,197.4
	c-0.5,94.9,54.2,177.3,133.9,216.7c31.7,15.7,67.4,24.6,105.1,24.7c61.2,0.3,117.1-22.3,159.7-59.7c11.4-10,21.9-21.1,31.2-33.1
	c31.4-40.4,50.2-91,50.5-146.1C564.8,228.5,457.8,120.4,325.1,119.7z M472.3,531.5c-40,34.7-92.4,55.5-149.5,55.2
	c-34.1-0.2-66.4-7.9-95.4-21.5C150,528.8,96.7,449.9,97.1,358.8C97.6,270,149,193.4,223.5,156.5c30.6-15.1,65.1-23.6,101.5-23.4
	c125.2,0.6,226.3,102.7,225.6,227.9c-0.2,40.7-11.1,78.8-30,111.7C507.9,495,491.5,514.8,472.3,531.5z"/>
<path opacity="5.000000e-02" d="M520.6,472.8c1.7-12.1,2.6-24.4,2.6-36.9C524,281.9,399.9,156.5,246,155.8c-7.6,0-15,0.2-22.5,0.8
	c30.6-15.1,65.1-23.6,101.5-23.4c125.2,0.6,226.3,102.7,225.6,227.9C550.5,401.7,539.6,439.9,520.6,472.8z"/>
<g>
	<path fill="#F9DE5C" d="M316.5,499.8c-11.6,19.2-25.5,22.7-39.3,11.6C263.6,500,250.6,488,256.1,471c5.1-17.3,32.4-35.8,52.1-26
		C327.9,454.8,327.7,481.7,316.5,499.8z"/>
</g>
<g>
	<path fill="#7DC242" d="M272.2,397.6c-13.7,31.1-50,45.2-81.1,31.5c-31.1-13.7-45.2-50-31.5-81.1s24.5,12.7,55.6,26.4
		C246.3,388.1,285.9,366.5,272.2,397.6z"/>
	<path fill="#7DC242" d="M260.2,352.7c-7.2,16.4-23.3,16.8-39.8,9.6s-27-19.4-19.7-35.8s26.4-23.9,42.9-16.6
		S267.5,336.3,260.2,352.7z"/>
</g>
<g>
	<path fill="#E57273" d="M446.6,418.5c-6.3,27.8-28.1,42-50.5,37c-22.6-5.4-45.2-19.8-49.1-37.4c-4-17.4,17.9-41.5,50.6-46.5
		C430.7,366.6,453,390.9,446.6,418.5z"/>
</g>
<ellipse transform="matrix(0.5959 0.803 -0.803 0.5959 357.9552 -159.651)" fill="#66BED3" cx="337.6" cy="275.9" rx="26.2" ry="30.4"/>
<circle fill="#E57273" cx="361.3" cy="338" r="13.9"/>
<path fill="#F9DE5C" d="M472.3,531.5c-40,34.7-92.4,55.5-149.5,55.2c-34.1-0.2-66.4-7.9-95.4-21.5c3.3-2.7,7.4-5.5,12.1-8.5
	c23.2-14.4,64.4-32,112.9-39.2c48.3-7.7,91.6-2.2,115,11C469.1,529.4,470.7,530.4,472.3,531.5z"/>
<path opacity="5.000000e-02" d="M706.2,257.9c-0.6-1.3-1.3-2.6-2-3.9c-3.2-5.6-7.5-10.3-12.5-13.8c-3.8-2.7-8.1-4.7-12.8-5.8
	c-0.7-0.2-1.5-0.3-2.3-0.5c0,0-0.1,0-0.1,0c-0.2,0-0.4-0.1-0.7-0.1c-0.3,0-0.5-0.1-0.8-0.1c0,0-0.1,0-0.1,0c-0.2,0-0.3,0-0.5-0.1
	c-0.1,0-0.3,0-0.4,0c-0.2,0-0.5-0.1-0.7-0.1c-0.2,0-0.3,0-0.5,0c-0.1,0-0.1,0-0.2,0c0,0-0.1,0-0.1,0c-0.1,0-0.3,0-0.4,0
	c-0.3,0-0.6,0-0.9,0c0,0,0,0-0.1,0c-0.1,0-0.2,0-0.3,0c-0.2,0-0.3,0-0.5,0c0,0-0.1,0-0.1,0c-0.3,0-0.6,0-0.9,0c-0.1,0-0.2,0-0.4,0
	c-0.2,0-0.5,0-0.7,0c-0.3,0-0.5,0-0.8,0c-0.1,0-0.2,0-0.3,0c-0.4,0-0.8,0.1-1.2,0.1c-0.3,0-0.6,0.1-0.9,0.1c-0.3,0-0.6,0.1-0.9,0.1
	c-0.2,0-0.3,0-0.5,0.1c0,0,0,0,0,0c-5.7,0.9-11.3,3.1-16.4,6.4c-11.9,7.6-21.6,20.9-25.6,37.5c-4,16.5-1.6,32.8,5.5,45l-5.3,21.8
	c0,0,0,0,0,0l-1.7,7.1c-4,0.1-7.7,2.9-8.6,7c-1.2,4.9,1.9,10,6.8,11.2l9.9,2.4l-2.8,11.3c0,0,0.1,0,0.1,0l-44,180.9
	c-0.1,0.6-0.2,1.1-0.1,1.7l2.3,16.1c0.1,0.6,0.1,1.1-0.1,1.7l-2.9,12.1c-0.6,2.4,0.9,4.9,3.3,5.4l5,1.2l0,0l5,1.2
	c2.4,0.6,4.9-0.9,5.4-3.3l2.9-12.1c0.1-0.6,0.4-1.1,0.7-1.6l4.7-6.6l4.7-6.6c0.3-0.5,0.6-1,0.7-1.6l44-181.3
	c0.3,0.2,0.5,0.4,0.8,0.6l2.8-11.3l9.1,2.2c4.9,1.2,10-1.9,11.2-6.8h0c1-4.1-0.9-8.2-4.5-10.2l7-28.8c11.9-7.6,21.6-20.9,25.6-37.5
	C713.3,284.2,711.7,269.6,706.2,257.9z"/>
<g>
	<path fill="#B3B3B3" d="M671.4,379.1l-47.7,196.4c-0.1,0.6-0.4,1.1-0.7,1.6l-9.5,13.3c-0.3,0.5-0.6,1-0.7,1.6l-2.9,12.1
		c-0.6,2.4-3,3.9-5.4,3.3l-10.1-2.4c-2.4-0.6-3.9-3-3.3-5.4l2.9-12.1c0.1-0.6,0.2-1.1,0.1-1.7l-2.3-16.1c-0.1-0.6-0.1-1.2,0.1-1.7
		l47.7-196.4c1.4-5.9,5.9-10.2,11.3-11.9c2.7-0.8,5.6-0.9,8.5-0.2c4.4,1.1,7.9,3.8,10.1,7.4C671.7,370.3,672.5,374.7,671.4,379.1z"
		/>
	<path opacity="0.66" fill="#CCCCCC" d="M671.4,379.1l-47.7,196.4c-0.1,0.6-0.4,1.1-0.7,1.6l-9.5,13.3c-0.3,0.5-0.6,1-0.7,1.6
		l-2.9,12.1c-0.6,2.4-3,3.9-5.4,3.3l-5-1.2l60-246.7l0,0c4.4,1.1,7.9,3.8,10.1,7.4C671.7,370.3,672.5,374.7,671.4,379.1z"/>
	<path opacity="0.19" d="M673.8,373.3l-5.2,21.5c-4.4-3.3-9.7-5.8-15.6-7.3s-11.8-1.6-17.2-0.7l5.2-21.5L673.8,373.3z"/>
	<path fill="#E6352D" d="M714.1,257.3L687,368.9l-56.7-13.8l27.1-111.6c9.6-6.1,20.6-8.5,31.4-5.9
		C699.7,240.3,708.4,247.5,714.1,257.3z"/>
	<path opacity="0.15" d="M688.8,361.6l-1.8,7.3l-25-6.1l1.1-4.7C671.8,360,680.4,361.2,688.8,361.6z"/>
	<path opacity="0.36" d="M663.1,358.1l-1.1,4.7l-31.6-7.7l1.8-7.3c8.6,3.9,17.9,7.2,27.7,9.5C660.9,357.6,662,357.9,663.1,358.1z"/>
	<line fill="none" x1="662" y1="362.8" x2="662" y2="362.8"/>
	<path fill="#E6352D" d="M680.4,385.7l-51.8-12.6c-4.9-1.2-8-6.2-6.8-11.2v0c1.2-4.9,6.2-8,11.2-6.8l51.8,12.6
		c4.9,1.2,8,6.2,6.8,11.2l0,0C690.3,383.8,685.3,386.9,680.4,385.7z"/>
	<path fill="#E6352D" d="M719.7,302.3c-4,16.5-13.7,29.9-25.6,37.5c-9.6,6.1-20.6,8.5-31.4,5.9c-10.8-2.6-19.5-9.8-25.2-19.7
		c-7.1-12.2-9.6-28.5-5.5-45c4-16.5,13.7-29.9,25.6-37.5c9.6-6.1,20.6-8.5,31.4-5.9c10.8,2.6,19.5,9.8,25.2,19.7
		C721.2,269.5,723.7,285.8,719.7,302.3z"/>
	<path fill="#F2F2F2" d="M654.2,380.5"/>
	<path opacity="0.33" fill="#F2F2F2" d="M719.7,302.3c-4,16.5-13.7,29.9-25.6,37.5l-5.3,21.8c-8.4-0.4-17-1.6-25.7-3.5
		c-1.1-0.2-2.2-0.5-3.3-0.8c-4.7-1.2-9.4-2.5-13.9-4.1l3.4-13.8l0,0c5.7-0.9,11.3-3.1,16.4-6.4c11.9-7.6,21.6-20.9,25.6-37.5
		c4-16.5,1.6-32.8-5.5-45c-3.1-5.4-7.1-10-11.9-13.4c1.2-0.2,2.5-0.3,3.7-0.4c0.3,0,0.6,0,0.9,0c0.3,0,0.6,0,0.9,0
		c0.3,0,0.6,0,0.9,0c0.3,0,0.6,0,0.9,0c0,0,0,0,0.1,0c0.3,0,0.6,0,0.9,0c0.2,0,0.5,0,0.7,0c0.2,0,0.3,0,0.5,0c0.2,0,0.5,0,0.7,0.1
		c0.3,0,0.6,0.1,0.9,0.1c0.3,0,0.5,0.1,0.8,0.1c0.2,0,0.4,0.1,0.7,0.1c0.8,0.1,1.6,0.3,2.3,0.5c10.8,2.6,19.5,9.8,25.2,19.7
		C721.2,269.5,723.7,285.8,719.7,302.3z"/>
</g>
</svg>
