<?xml version="1.0" encoding="utf-8"?>
<!-- Generator: Adobe Illustrator 18.1.1, SVG Export Plug-In . SVG Version: 6.00 Build 0)  -->
<svg version="1.1" id="Layer_1" xmlns="http://www.w3.org/2000/svg" xmlns:xlink="http://www.w3.org/1999/xlink" x="0px" y="0px"
	 viewBox="0 0 752.2 752.2" enable-background="new 0 0 752.2 752.2" xml:space="preserve">
<rect x="0" y="0" fill="#E2E2E2" width="752.2" height="752.2"/>
<ellipse opacity="0.1" fill="#231F20" cx="374.2" cy="429.5" rx="145.3" ry="22"/>
<ellipse opacity="0.1" fill="#231F20" cx="386.2" cy="585.2" rx="176.4" ry="16.4"/>
<g id="XMLID_102_">
	<path id="XMLID_127_" fill="#3C3C3B" d="M369.6,106.7v34.5c1-0.4,1.6-0.6,1.6-0.6s2.8,1.2,7.6,3.7v-37.6c0-2.5-2.1-4.6-4.6-4.6
		c-1.3,0-2.4,0.5-3.2,1.3C370.1,104.3,369.6,105.4,369.6,106.7z"/>
	<path id="XMLID_126_" fill="#3C3C3B" d="M374.5,259.1l-4.9-0.1v125.1c0,2.5,2.1,4.6,4.6,4.6c2.5,0,4.6-2.1,4.6-4.6V259.2
		c-0.9,0-1.9-0.1-2.8-0.1C375.3,259,374.8,259,374.5,259.1L374.5,259.1z"/>
	<path id="XMLID_123_" fill="#1D1C1A" d="M371.2,140.5c0,0,2.8,1.2,7.6,3.7v-3.7C377.7,140.4,375.3,140.2,371.2,140.5z M369.6,140.6
		v0.5c1-0.4,1.6-0.6,1.6-0.6C370.7,140.5,370.2,140.6,369.6,140.6z"/>
	<path id="XMLID_122_" fill="#1D1C1A" d="M378.8,140.5v3.7c21.4,11.4,81.9,49.4,98.5,123c0-0.1,0-0.4,0.1-1.2c0,0.1,0,0.1,0.1,0.2
		c0.2,0.6,1.1,0.7,1.4,0.1c0.3-0.6,1-0.8,2.6-1.2c3.9-1.1,7.9-2.2,11.8-3.2c5.2-1.4,10.4-2.8,15.7-4.1c2.6-0.6,5.3-0.8,8-1.1
		c4-0.5,8-1.1,12-1.6c3.6-0.4,7.1-0.9,10.7-1.2c3.5-0.3,7.1-0.6,10.6-0.7c4.8-0.2,9.7-0.4,14.5-0.3c5.3,0.1,10.5,0.4,15.8,0.9
		c0.7,0.1,1.4,0.5,2,1c0.5,0.4,1.3,0,1.2-0.7c0-0.4-0.1-0.7-0.2-1.1c-0.1-0.5-0.5-0.9-0.9-1.3c-3-3-6-6-9-9
		c-3.4-3.5-6.8-7-10.1-10.6c-1.5-1.6-3-3.3-4.5-4.9c-3.6-3.7-7.1-7.5-10.7-11.2c-4-4-8-8-12.2-11.7c-4.6-4.2-9.4-8.1-14.2-12.1
		c-3.1-2.5-6.2-5-9.5-7.2c-6.7-4.4-13.6-8.7-20.5-12.7c-4-2.3-8.3-4-12.4-6c-2-0.9-3.9-2.1-6-2.8c-5.7-1.9-11.4-3.8-17.2-5.4
		c-7.2-2-14.4-3.7-21.7-5.3c-6.4-1.4-12.8-2.6-19.3-3.9c-6.3-1.3-12.6-2.5-18.8-3.9c-5.8-1.3-11.5-2.9-17.2-4.5c0,0-0.1,0-0.1,0
		C379.2,140.5,379,140.5,378.8,140.5z"/>
	<path id="XMLID_121_" fill="#1D1C1A" d="M276.4,262.5c0,0.7,0.8,1,1.3,0.6c1.1-0.9,2.6-1,4.2-1.1c5.6-0.3,11.3-1,16.9-1.4
		c9.1-0.6,18.1-1,27.2-1.5c4.3-0.2,8.6-0.4,12.9-0.5c2.8-0.1,5.6,0,8.4,0c3.9,0.1,7.7,0.1,11.6,0.2l2.2,0l8.6,0.1l4.9,0.1h0
		c0.3-0.1,0.8,0,1.4,0c0.9,0.1,1.9,0.1,2.8,0.1c3.2,0.1,6.5,0.2,9.7,0.3c4.1,0.2,8.2,0.4,12.2,0.6c3.7,0.2,7.5,0.2,11.2,0.4
		c4,0.2,8,0.5,11.9,0.8c3.9,0.3,7.7,0.4,11.5,0.8c5.5,0.5,10.9,1.3,16.3,1.9c4.3,0.5,8.5,0.8,12.8,1.1c3.4,0.3,6.9,0.4,10.3,0.7
		c0.9,0.1,1.6,0.9,2.4,1.3c-16.6-73.6-77.1-111.6-98.5-123c-4.7-2.5-7.6-3.7-7.6-3.7s-0.5,0.2-1.6,0.6
		C358.8,145.8,294.2,177,276.4,262.5z"/>
	<path id="XMLID_120_" fill="#1D1C1A" d="M150.1,247.1c0.1,0.1,0.2,0.2,0.3,0.3c1.5-1.2,3.1-2.4,4.6-3.6c0.4-0.3,1-0.3,1.6-0.3
		c6,0,12-0.2,18,0.2c7.6,0.4,15.2,1,22.8,2c8.6,1.1,17.1,2.4,25.6,3.9c7.9,1.4,15.6,3.3,23.4,5c3.2,0.7,6.4,1.8,9.6,2.6
		c6.1,1.5,12.3,2.9,18.5,4.3c0.4,0.1,0.8,0.2,1.2,0.3c0.3,0.1,0.6,0.4,0.6,0.7c17.8-85.6,82.4-116.7,93.2-121.4v-0.5
		c-3.1,0.3-6.9,0.8-11.5,1.7c0,0,0,0-0.1,0c-6.8,1.4-13.7,2.7-20.6,4c-5,1-10.1,1.6-15.1,2.6c-5.3,1-10.5,2.3-15.7,3.4
		c-3.6,0.8-7.3,1.4-10.9,2.3c-4.6,1.1-9.2,2.3-13.7,3.5c-4.1,1.1-8.3,2.2-12.4,3.5c-2.8,0.9-5.4,2.3-8.1,3.5
		c-3.4,1.5-6.8,2.9-10.1,4.6c-6,3.1-12,6.3-17.9,9.6c-3.5,1.9-6.8,4.1-10.1,6.3c-5.7,3.9-11.3,7.9-16.9,12c-4.1,3-8,6.1-11.9,9.3
		c-4.6,3.8-9.2,7.7-13.8,11.6c-4.5,3.8-8.9,7.7-13.4,11.6c-4.1,3.5-8.2,7-12.3,10.5c-0.3,0.3-0.5,0.7-0.7,1
		c-1.3,1.6-2.5,3.1-3.8,4.6C150.4,246.7,150.2,246.9,150.1,247.1z"/>
	<path id="XMLID_119_" fill="none" stroke="#3C3C3B" stroke-width="15.1145" stroke-miterlimit="10" d="M374.2,367.7v25.1
		c0,12.7,10.3,23,23,23s23-10.3,23-23v-17"/>
	<path id="XMLID_118_" fill="#1D1C1A" d="M150.1,247.1c0.1,0.1,0.2,0.2,0.3,0.3c1.5-1.2,3.1-2.4,4.6-3.6c0.4-0.3,1-0.3,1.6-0.3
		c6,0,12-0.2,18,0.2c7.6,0.4,15.2,1,22.8,2c8.6,1.1,17.1,2.4,25.6,3.9c7.9,1.4,15.6,3.3,23.4,5c3.2,0.7,6.4,1.8,9.6,2.6
		c6.1,1.5,12.3,2.9,18.5,4.3c0.4,0.1,0.8,0.2,1.2,0.3c0.3,0.1,0.6,0.4,0.6,0.7c17.8-85.6,82.4-116.7,93.2-121.4v-0.5
		c-3.1,0.3-6.9,0.8-11.5,1.7c0,0,0,0-0.1,0c-6.8,1.4-13.7,2.7-20.6,4c-5,1-10.1,1.6-15.1,2.6c-5.3,1-10.5,2.3-15.7,3.4
		c-3.6,0.8-7.3,1.4-10.9,2.3c-4.6,1.1-9.2,2.3-13.7,3.5c-4.1,1.1-8.3,2.2-12.4,3.5c-2.8,0.9-5.4,2.3-8.1,3.5
		c-3.4,1.5-6.8,2.9-10.1,4.6c-6,3.1-12,6.3-17.9,9.6c-3.5,1.9-6.8,4.1-10.1,6.3c-5.7,3.9-11.3,7.9-16.9,12c-4.1,3-8,6.1-11.9,9.3
		c-4.6,3.8-9.2,7.7-13.8,11.6c-4.5,3.8-8.9,7.7-13.4,11.6c-4.1,3.5-8.2,7-12.3,10.5c-0.3,0.3-0.5,0.7-0.7,1
		c-1.3,1.6-2.5,3.1-3.8,4.6C150.4,246.7,150.2,246.9,150.1,247.1z"/>
	<path id="XMLID_117_" opacity="0.11" fill="#FFFFFF" d="M150.1,247.1c0.1,0.1,0.2,0.2,0.3,0.3c1.5-1.2,3.1-2.4,4.6-3.6
		c0.4-0.3,1-0.3,1.6-0.3c6,0,12-0.2,18,0.2c7.6,0.4,15.2,1,22.8,2c8.6,1.1,17.1,2.4,25.6,3.9c7.9,1.4,15.6,3.3,23.4,5
		c3.2,0.7,6.4,1.8,9.6,2.6c6.1,1.5,12.3,2.9,18.5,4.3c0.4,0.1,0.8,0.2,1.2,0.3c0.3,0.1,0.6,0.4,0.6,0.7
		c17.8-85.6,82.4-116.7,93.2-121.4v-0.5c-3.1,0.3-6.9,0.8-11.5,1.7c0,0,0,0-0.1,0c-6.8,1.4-13.7,2.7-20.6,4c-5,1-10.1,1.6-15.1,2.6
		c-5.3,1-10.5,2.3-15.7,3.4c-3.6,0.8-7.3,1.4-10.9,2.3c-4.6,1.1-9.2,2.3-13.7,3.5c-4.1,1.1-8.3,2.2-12.4,3.5
		c-2.8,0.9-5.4,2.3-8.1,3.5c-3.4,1.5-6.8,2.9-10.1,4.6c-6,3.1-12,6.3-17.9,9.6c-3.5,1.9-6.8,4.1-10.1,6.3c-5.7,3.9-11.3,7.9-16.9,12
		c-4.1,3-8,6.1-11.9,9.3c-4.6,3.8-9.2,7.7-13.8,11.6c-4.5,3.8-8.9,7.7-13.4,11.6c-4.1,3.5-8.2,7-12.3,10.5c-0.3,0.3-0.5,0.7-0.7,1
		c-1.3,1.6-2.5,3.1-3.8,4.6C150.4,246.7,150.2,246.9,150.1,247.1z"/>
	<path id="XMLID_103_" opacity="5.000000e-02" fill="#FFFFFF" d="M276.4,262.5c0,0.7,0.8,1,1.3,0.6c1.1-0.9,2.6-1,4.2-1.1
		c5.6-0.3,11.3-1,16.9-1.4c9.1-0.6,18.1-1,27.2-1.5c4.3-0.2,8.6-0.4,12.9-0.5c2.8-0.1,5.6,0,8.4,0c3.9,0.1,7.7,0.1,11.6,0.2l2.2,0
		l8.6,0.1l4.9,0.1h0c0.3-0.1,0.8,0,1.4,0c0.9,0.1,1.9,0.1,2.8,0.1c3.2,0.1,6.5,0.2,9.7,0.3c4.1,0.2,8.2,0.4,12.2,0.6
		c3.7,0.2,7.5,0.2,11.2,0.4c4,0.2,8,0.5,11.9,0.8c3.9,0.3,7.7,0.4,11.5,0.8c5.5,0.5,10.9,1.3,16.3,1.9c4.3,0.5,8.5,0.8,12.8,1.1
		c3.4,0.3,6.9,0.4,10.3,0.7c0.9,0.1,1.6,0.9,2.4,1.3c-16.6-73.6-77.1-111.6-98.5-123c-4.7-2.5-7.6-3.7-7.6-3.7s-0.5,0.2-1.6,0.6
		C358.8,145.8,294.2,177,276.4,262.5z"/>
</g>
<g>
	<path id="XMLID_95_" fill="#3C3C3B" d="M179.1,562.2h44.2c-0.6-1.3-0.8-2-0.8-2s1.5-3.6,4.8-9.7h-48.1c-3.2,0-5.9,2.6-5.9,5.8
		c0,1.6,0.7,3.1,1.7,4.1C176,561.5,177.5,562.2,179.1,562.2z"/>
	<path id="XMLID_92_" fill="#1D1C1A" d="M222.5,561.5c0,0,1.5-3.6,4.8-9.7h-4.8C222.3,553.1,222.1,556.3,222.5,561.5z M222.6,563.5
		h0.7c-0.6-1.3-0.8-2-0.8-2C222.5,562.2,222.6,562.8,222.6,563.5z"/>
	<g>
		<path id="XMLID_91_" fill="#3C3C3B" d="M374.3,557.2l-0.1,6.3h160.3c3.2,0,5.8-2.6,5.8-5.9c0-3.2-2.6-5.8-5.8-5.8h-160
			c-0.1,1.2-0.1,2.4-0.2,3.6C374.3,556.3,374.2,556.8,374.3,557.2L374.3,557.2z"/>
		<path id="XMLID_85_" fill="none" stroke="#3C3C3B" stroke-width="19.3617" stroke-miterlimit="10" d="M513.5,557.7h32.2
			c16.3,0,29.5-13.2,29.5-29.5c0-16.3-13.2-29.5-29.5-29.5h-21.8"/>
		<path fill="#1D1D1B" d="M405.3,524.3l89.1,2c4.7,0.1,8.5,4.2,8.5,9.3v21H200.2C200.2,538.7,292,524.3,405.3,524.3z"/>
		<path opacity="0.15" fill="#808080" d="M405.3,524.3l89.1,2c4.7,0.1,8.5,4.2,8.5,9.3v21H200.2C200.2,538.7,292,524.3,405.3,524.3z
			"/>
		<path fill="#1D1D1B" d="M200.2,556.6h302.7v25c0,5.2-4,9.4-8.9,9.3l-88.8-2C292,588.8,200.2,574.4,200.2,556.6z"/>
	</g>
	<path fill="#3C3C3B" d="M200.2,556.6"/>
</g>
</svg>
