<?xml version="1.0" encoding="utf-8"?>
<!-- Generator: Adobe Illustrator 18.1.1, SVG Export Plug-In . SVG Version: 6.00 Build 0)  -->
<svg version="1.1" id="Layer_1" xmlns="http://www.w3.org/2000/svg" xmlns:xlink="http://www.w3.org/1999/xlink" x="0px" y="0px"
	 viewBox="0 0 752.2 752.2" enable-background="new 0 0 752.2 752.2" xml:space="preserve">
<rect x="-5.1" y="-3.9" fill="#3F92CF" width="762.3" height="762.3"/>
<defs>
	<filter id="Adobe_OpacityMaskFilter" filterUnits="userSpaceOnUse" x="-5.1" y="-5.1" width="762.3" height="762.3">
		<feColorMatrix  type="matrix" values="1 0 0 0 0  0 1 0 0 0  0 0 1 0 0  0 0 0 1 0"/>
	</filter>
</defs>
<mask maskUnits="userSpaceOnUse" x="-5.1" y="-5.1" width="762.3" height="762.3" id="SVGID_1_">
	<g filter="url(#Adobe_OpacityMaskFilter)">
		<linearGradient id="SVGID_2_" gradientUnits="userSpaceOnUse" x1="376.0924" y1="65.1952" x2="376.0924" y2="759.7203">
			<stop  offset="0" style="stop-color:#FFFFFF"/>
			<stop  offset="1" style="stop-color:#000000"/>
		</linearGradient>
		<rect x="-5.1" y="-5.1" fill="url(#SVGID_2_)" width="762.3" height="762.3"/>
	</g>
</mask>
<rect x="-5.1" y="-5.1" opacity="0.16" mask="url(#SVGID_1_)" fill="#FFFFFF" width="762.3" height="762.3"/>
<circle opacity="0.19" fill="#FDD800" cx="446.8" cy="363.7" r="135.9"/>
<line fill="none" stroke="#FDD800" stroke-width="24.3258" stroke-linecap="round" stroke-miterlimit="10" x1="298" y1="449.6" x2="273.9" y2="463.5"/>
<line fill="none" stroke="#FDD800" stroke-width="24.3258" stroke-linecap="round" stroke-miterlimit="10" x1="360.9" y1="512.5" x2="347" y2="536.6"/>
<line fill="none" stroke="#FDD800" stroke-width="24.3258" stroke-linecap="round" stroke-miterlimit="10" x1="446.8" y1="535.5" x2="446.8" y2="563.4"/>
<line fill="none" stroke="#FDD800" stroke-width="24.3258" stroke-linecap="round" stroke-miterlimit="10" x1="532.7" y1="512.5" x2="546.7" y2="536.6"/>
<g opacity="0.79">
	
		<line fill="none" stroke="#FDD800" stroke-width="24.3258" stroke-linecap="round" stroke-miterlimit="10" x1="446.8" y1="191.9" x2="446.8" y2="164"/>
	
		<line fill="none" stroke="#FDD800" stroke-width="24.3258" stroke-linecap="round" stroke-miterlimit="10" x1="360.9" y1="214.9" x2="347" y2="190.7"/>
	
		<line fill="none" stroke="#FDD800" stroke-width="24.3258" stroke-linecap="round" stroke-miterlimit="10" x1="618.6" y1="363.7" x2="646.5" y2="363.7"/>
	
		<line fill="none" stroke="#FDD800" stroke-width="24.3258" stroke-linecap="round" stroke-miterlimit="10" x1="595.6" y1="277.8" x2="619.7" y2="263.8"/>
	
		<line fill="none" stroke="#FDD800" stroke-width="24.3258" stroke-linecap="round" stroke-miterlimit="10" x1="532.7" y1="214.9" x2="546.7" y2="190.7"/>
</g>
<circle fill="#FDD800" cx="446.8" cy="363.7" r="114.6"/>
<path fill="#FFFFFF" d="M608.6,484.6c0,55.3-43.7,100.4-98.5,102.7c-1.4,0-2.8,0.1-4.3,0.1H298.6c-92.4,0-167.3-74.9-167.3-167.3
	c0-92.4,74.9-167.3,167.3-167.3c82.5,0,151,59.7,164.8,138.3c13-5.9,27.3-9.2,42.4-9.2C562.6,381.7,608.6,427.8,608.6,484.6z"/>
<path opacity="6.000000e-02" d="M463.4,390.9c0,0-65.2,20-63.8,92.9c0,0-8.1-73.7,58.5-114.4"/>
<g>
	<g>
		<g>
			<g>
				<path fill="#3ABBE8" d="M111.4,531.7l37.6,34.6c3.1,2.9,3.4,7.8,0.5,11c-2.9,3.1-7.8,3.3-10.9,0.4l-37.6-34.6
					c-3.1-2.9-3.3-7.7-0.5-10.9C103.4,529,108.3,528.8,111.4,531.7z"/>
			</g>
		</g>
	</g>
	<g>
		<g>
			<g>
				<path fill="#3ABBE8" d="M184.6,535.4l37.6,34.6c3.1,2.9,3.4,7.8,0.5,11c-2.9,3.1-7.8,3.3-10.9,0.4l-37.6-34.6
					c-3.1-2.9-3.3-7.7-0.5-10.9C176.6,532.7,181.5,532.5,184.6,535.4z"/>
			</g>
		</g>
	</g>
	<g>
		<g>
			<g>
				<path fill="#3ABBE8" d="M99.6,457.2l37.6,34.6c3.1,2.9,3.4,7.8,0.5,11c-2.9,3.1-7.8,3.3-10.9,0.4l-37.6-34.6
					c-3.1-2.9-3.3-7.7-0.5-10.9C91.6,454.5,96.4,454.3,99.6,457.2z"/>
			</g>
		</g>
	</g>
	<g>
		<g>
			<g>
				<path fill="#3ABBE8" d="M257.9,539l37.6,34.6c3.1,2.9,3.4,7.8,0.5,11c-2.9,3.1-7.8,3.3-10.9,0.4l-37.6-34.6
					c-3.1-2.9-3.3-7.7-0.5-10.9C249.9,536.4,254.7,536.1,257.9,539z"/>
			</g>
		</g>
	</g>
	<g>
		<g>
			<g>
				<path fill="#3ABBE8" d="M172.8,460.9l37.6,34.6c3.1,2.9,3.4,7.8,0.5,11c-2.9,3.1-7.8,3.3-10.9,0.4l-37.6-34.6
					c-3.1-2.9-3.3-7.7-0.5-10.9C164.8,458.2,169.7,458,172.8,460.9z"/>
			</g>
		</g>
	</g>
	<g>
		<g>
			<g>
				<path fill="#3ABBE8" d="M87.7,382.7l37.6,34.6c3.1,2.9,3.4,7.8,0.5,11c-2.9,3.1-7.8,3.3-10.9,0.4L77.3,394
					c-3.1-2.9-3.3-7.7-0.5-10.9C79.7,380,84.6,379.8,87.7,382.7z"/>
			</g>
		</g>
	</g>
	<g>
		<g>
			<g>
				<path fill="#3ABBE8" d="M246,464.5l37.6,34.6c3.1,2.9,3.4,7.8,0.5,11c-2.9,3.1-7.8,3.3-10.9,0.4l-37.6-34.6
					c-3.1-2.9-3.3-7.7-0.5-10.9C238,461.8,242.9,461.6,246,464.5z"/>
			</g>
		</g>
	</g>
	<g>
		<g>
			<g>
				<path fill="#3ABBE8" d="M161,386.3l37.6,34.6c3.1,2.9,3.4,7.8,0.5,11c-2.9,3.1-7.8,3.3-10.9,0.4l-37.6-34.6
					c-3.1-2.9-3.3-7.7-0.5-10.9C153,383.7,157.8,383.5,161,386.3z"/>
			</g>
		</g>
	</g>
	<g>
		<g>
			<g>
				<path fill="#3ABBE8" d="M234.2,390l37.6,34.6c3.1,2.9,3.4,7.8,0.5,11c-2.9,3.1-7.8,3.3-10.9,0.4l-37.6-34.6
					c-3.1-2.9-3.3-7.7-0.5-10.9C226.2,387.3,231.1,387.1,234.2,390z"/>
			</g>
		</g>
	</g>
</g>
</svg>
