<?xml version="1.0" encoding="utf-8"?>
<!-- Generator: Adobe Illustrator 18.1.1, SVG Export Plug-In . SVG Version: 6.00 Build 0)  -->
<svg version="1.1" id="Layer_1" xmlns="http://www.w3.org/2000/svg" xmlns:xlink="http://www.w3.org/1999/xlink" x="0px" y="0px"
	 viewBox="0 0 318.5 315.6" enable-background="new 0 0 318.5 315.6" xml:space="preserve">
<g>
	<circle fill="#E77675" cx="210.8" cy="117" r="10.8"/>
	<circle fill="#B66267" cx="45.3" cy="119.8" r="7.2"/>
	<circle opacity="0.26" fill="#F8DE5C" cx="55.2" cy="29.9" r="29.9"/>
	<circle opacity="0.26" fill="#F8DE5C" cx="155.7" cy="32.1" r="29.9"/>
	<circle opacity="0.26" fill="#F8DE5C" cx="256.1" cy="34.4" r="29.9"/>
	<g>
		<polygon fill="#FFFFFF" points="49.9,133.6 56.8,140.5 49.9,140.5 		"/>
		<polygon fill="#FFFFFF" points="61.4,53.3 61.4,59.8 51.9,50.4 58.5,50.4 		"/>
		<polygon fill="#FFFFFF" points="49.9,52 61.4,63.5 61.4,70 49.9,58.6 		"/>
		<polygon fill="#FFFFFF" points="49.9,62.2 61.4,73.7 61.4,80.2 49.9,68.8 		"/>
		<polygon fill="#FFFFFF" points="49.9,72.4 61.4,83.9 61.4,90.4 49.9,79 		"/>
		<polygon fill="#FFFFFF" points="49.9,82.6 61.4,94 61.4,100.6 49.9,89.2 		"/>
		<polygon fill="#FFFFFF" points="49.9,92.8 61.4,104.2 61.4,110.8 49.9,99.4 		"/>
		<polygon fill="#FFFFFF" points="49.9,103 61.4,114.4 61.4,121 49.9,109.6 		"/>
		<polygon fill="#FFFFFF" points="49.9,113.2 61.4,124.6 61.4,131.2 49.9,119.8 		"/>
		<polygon fill="#FFFFFF" points="49.9,123.4 61.4,134.8 61.4,140.5 60.4,140.5 49.9,130 		"/>
		<g>
			<polygon fill="#231F20" points="50.2,140.5 49.9,140.5 49.9,140.2 			"/>
		</g>
		<g>
			<polygon fill="#DEDEDE" points="60.4,140.5 56.8,140.5 49.9,133.6 49.9,130 			"/>
		</g>
		<g>
			<polygon fill="#DEDEDE" points="61.4,131.2 61.4,134.8 49.9,123.4 49.9,119.8 			"/>
		</g>
		<g>
			<polygon fill="#DEDEDE" points="61.4,121 61.4,124.6 49.9,113.2 49.9,109.6 			"/>
		</g>
		<g>
			<polygon fill="#DEDEDE" points="61.4,110.8 61.4,114.4 49.9,103 49.9,99.4 			"/>
		</g>
		<g>
			<polygon fill="#DEDEDE" points="61.4,100.6 61.4,104.2 49.9,92.8 49.9,89.2 			"/>
		</g>
		<g>
			<polygon fill="#DEDEDE" points="61.4,90.4 61.4,94 49.9,82.6 49.9,79 			"/>
		</g>
		<g>
			<polygon fill="#DEDEDE" points="61.4,80.2 61.4,83.9 49.9,72.4 49.9,68.8 			"/>
		</g>
		<g>
			<polygon fill="#DEDEDE" points="61.4,70 61.4,73.7 49.9,62.2 49.9,58.6 			"/>
		</g>
		<g>
			<polygon fill="#DEDEDE" points="61.4,59.8 61.4,63.5 49.9,52 49.9,50.4 51.9,50.4 			"/>
		</g>
		<g>
			<polygon fill="#FFFFFF" points="61.4,50.4 61.4,53.3 58.5,50.4 			"/>
		</g>
		<path fill="#DEDEDE" d="M55.2,140.5"/>
	</g>
	<g>
		<polygon fill="#FFFFFF" points="149.9,134.8 156.8,141.8 149.9,141.8 		"/>
		<polygon fill="#FFFFFF" points="161.4,54.5 161.4,61.1 151.9,51.7 158.5,51.7 		"/>
		<polygon fill="#FFFFFF" points="149.9,53.3 161.4,64.7 161.4,71.3 149.9,59.8 		"/>
		<polygon fill="#FFFFFF" points="149.9,63.5 161.4,74.9 161.4,81.5 149.9,70 		"/>
		<polygon fill="#FFFFFF" points="149.9,73.7 161.4,85.1 161.4,91.7 149.9,80.2 		"/>
		<polygon fill="#FFFFFF" points="149.9,83.9 161.4,95.3 161.4,101.9 149.9,90.4 		"/>
		<polygon fill="#FFFFFF" points="149.9,94 161.4,105.5 161.4,112.1 149.9,100.6 		"/>
		<polygon fill="#FFFFFF" points="149.9,104.2 161.4,115.7 161.4,122.3 149.9,110.8 		"/>
		<polygon fill="#FFFFFF" points="149.9,114.4 161.4,125.9 161.4,132.5 149.9,121 		"/>
		<polygon fill="#FFFFFF" points="149.9,124.6 161.4,136.1 161.4,141.8 160.4,141.8 149.9,131.2 		"/>
		<g>
			<polygon fill="#231F20" points="150.2,141.8 149.9,141.8 149.9,141.4 			"/>
		</g>
		<g>
			<polygon fill="#DEDEDE" points="160.4,141.8 156.8,141.8 149.9,134.8 149.9,131.2 			"/>
		</g>
		<g>
			<polygon fill="#DEDEDE" points="161.4,132.5 161.4,136.1 149.9,124.6 149.9,121 			"/>
		</g>
		<g>
			<polygon fill="#DEDEDE" points="161.4,122.3 161.4,125.9 149.9,114.4 149.9,110.8 			"/>
		</g>
		<g>
			<polygon fill="#DEDEDE" points="161.4,112.1 161.4,115.7 149.9,104.2 149.9,100.6 			"/>
		</g>
		<g>
			<polygon fill="#DEDEDE" points="161.4,101.9 161.4,105.5 149.9,94 149.9,90.4 			"/>
		</g>
		<g>
			<polygon fill="#DEDEDE" points="161.4,91.7 161.4,95.3 149.9,83.9 149.9,80.2 			"/>
		</g>
		<g>
			<polygon fill="#DEDEDE" points="161.4,81.5 161.4,85.1 149.9,73.7 149.9,70 			"/>
		</g>
		<g>
			<polygon fill="#DEDEDE" points="161.4,71.3 161.4,74.9 149.9,63.5 149.9,59.8 			"/>
		</g>
		<g>
			<polygon fill="#DEDEDE" points="161.4,61.1 161.4,64.7 149.9,53.3 149.9,51.7 151.9,51.7 			"/>
		</g>
		<g>
			<polygon fill="#FFFFFF" points="161.4,51.7 161.4,54.5 158.5,51.7 			"/>
		</g>
		<path fill="#DEDEDE" d="M155.2,141.8"/>
	</g>
	<g>
		<polygon fill="#FFFFFF" points="249.9,136.1 256.8,143 249.9,143 		"/>
		<polygon fill="#FFFFFF" points="261.4,55.8 261.4,62.4 251.9,52.9 258.5,52.9 		"/>
		<polygon fill="#FFFFFF" points="249.9,54.5 261.4,66 261.4,72.6 249.9,61.1 		"/>
		<polygon fill="#FFFFFF" points="249.9,64.7 261.4,76.2 261.4,82.8 249.9,71.3 		"/>
		<polygon fill="#FFFFFF" points="249.9,74.9 261.4,86.4 261.4,93 249.9,81.5 		"/>
		<polygon fill="#FFFFFF" points="249.9,85.1 261.4,96.6 261.4,103.2 249.9,91.7 		"/>
		<polygon fill="#FFFFFF" points="249.9,95.3 261.4,106.8 261.4,113.4 249.9,101.9 		"/>
		<polygon fill="#FFFFFF" points="261.4,117 261.4,123.6 252.3,114.4 249.9,112.1 249.9,105.5 		"/>
		<polygon fill="#FFFFFF" points="261.4,127.2 261.4,133.8 249.9,122.3 249.9,115.7 		"/>
		<polygon fill="#FFFFFF" points="249.9,125.9 261.4,137.4 261.4,143 260.4,143 249.9,132.5 		"/>
		<g>
			<polygon fill="#231F20" points="250.2,143 249.9,143 249.9,142.7 			"/>
		</g>
		<g>
			<polygon fill="#DEDEDE" points="260.4,143 256.8,143 249.9,136.1 249.9,132.5 			"/>
		</g>
		<g>
			<polygon fill="#DEDEDE" points="261.4,133.8 261.4,137.4 249.9,125.9 249.9,122.3 			"/>
		</g>
		<g>
			<polygon fill="#DEDEDE" points="261.4,123.6 261.4,127.2 249.9,115.7 249.9,112.1 252.3,114.4 			"/>
		</g>
		<g>
			<polygon fill="#DEDEDE" points="261.4,113.4 261.4,117 249.9,105.5 249.9,101.9 			"/>
		</g>
		<g>
			<polygon fill="#DEDEDE" points="261.4,103.2 261.4,106.8 249.9,95.3 249.9,91.7 			"/>
		</g>
		<g>
			<polygon fill="#DEDEDE" points="261.4,93 261.4,96.6 249.9,85.1 249.9,81.5 			"/>
		</g>
		<g>
			<polygon fill="#DEDEDE" points="261.4,82.8 261.4,86.4 249.9,74.9 249.9,71.3 			"/>
		</g>
		<g>
			<polygon fill="#DEDEDE" points="261.4,72.6 261.4,76.2 249.9,64.7 249.9,61.1 			"/>
		</g>
		<g>
			<polygon fill="#DEDEDE" points="261.4,62.4 261.4,66 249.9,54.5 249.9,52.9 251.9,52.9 			"/>
		</g>
		<g>
			<polygon fill="#FFFFFF" points="261.4,52.9 261.4,55.8 258.5,52.9 			"/>
		</g>
		<path fill="#DEDEDE" d="M255.2,143"/>
	</g>
	<rect x="9.2" y="141.8" fill="#F5C48A" width="300.9" height="57.9"/>
	<rect x="9.2" y="195.6" fill="#E77675" width="300.9" height="4.1"/>
	<rect x="9.2" y="199.7" fill="#F5C48A" width="300.9" height="57.9"/>
	<path fill="#F5C48A" d="M310.1,257.6v46.9c0,6.1-4.9,11-11,11H20.3c-6.1,0-11-4.9-11-11v-46.9H310.1z"/>
	<path fill="#F8DE5C" d="M69.2,39.6c0,7.8-6.6,14-14.5,13.5c-6.7-0.5-12.1-5.9-12.5-12.6c-0.2-2.5,0.4-4.9,1.4-7l0,0l7-16.5
		c1.7-4.1,7.5-4.1,9.3-0.1l7.4,15.9C68.5,34.8,69.2,37.1,69.2,39.6z"/>
	<path fill="#F4843C" d="M61.7,43.7c0,3.5-3,6.3-6.5,6.1c-3-0.2-5.5-2.7-5.6-5.7c-0.1-1.1,0.2-2.2,0.7-3.2l0,0l3.2-7.4
		c0.8-1.8,3.4-1.9,4.2-0.1l3.3,7.2C61.4,41.6,61.7,42.6,61.7,43.7z"/>
	<path fill="#F8DE5C" d="M169.2,41c0,7.8-6.6,14-14.5,13.5c-6.7-0.5-12.1-5.9-12.5-12.6c-0.2-2.5,0.4-4.9,1.4-7l0,0l7-16.5
		c1.7-4.1,7.5-4.1,9.3-0.1l7.4,15.9C168.5,36.2,169.2,38.5,169.2,41z"/>
	<path fill="#F4843C" d="M161.7,45.1c0,3.5-3,6.3-6.5,6.1c-3-0.2-5.5-2.7-5.6-5.7c-0.1-1.1,0.2-2.2,0.7-3.2l0,0l3.2-7.4
		c0.8-1.8,3.4-1.9,4.2-0.1l3.3,7.2C161.4,43,161.7,44,161.7,45.1z"/>
	<path fill="#F8DE5C" d="M269.2,42.4c0,7.8-6.6,14-14.5,13.5c-6.7-0.5-12.1-5.9-12.5-12.6c-0.2-2.5,0.4-4.9,1.4-7l0,0l7-16.5
		c1.7-4.1,7.5-4.1,9.3-0.1l7.4,15.9C268.5,37.7,269.2,40,269.2,42.4z"/>
	<path fill="#F4843C" d="M261.7,46.6c0,3.5-3,6.3-6.5,6.1c-3-0.2-5.5-2.7-5.6-5.7c-0.1-1.1,0.2-2.2,0.7-3.2l0,0l3.2-7.4
		c0.8-1.8,3.4-1.9,4.2-0.1l3.3,7.2C261.4,44.4,261.7,45.5,261.7,46.6z"/>
	<rect x="9.2" y="257.6" fill="#E77675" width="300.9" height="4.1"/>
	<path fill="#FFFFFF" d="M315,170.6c-1.5,1.4-3.2,2.3-4.9,3.1c-3.5,1.6-7.3,2.5-10.6,4.3c-5.4,3-7.3,9.3-11.2,13.7
		c-1.6,1.9-3.6,3.2-5.6,3.9c-2.7,0.9-5.6,0.9-8.5,0c-1.8-0.5-3.6-1.4-5.3-2.6c-3.3-2.2-6-5.2-9-7.7c-2.7-2.3-6.1-4.7-9.8-4.4
		c-4,0.3-7.5,2.9-11.4,3.6c-3.2,0.6-6.4,0.5-9.6,0c-6.6-1.1-12.8-4-19-6.5c-5.8-2.3-12.3-4.7-18.7-3.8c-4,0.6-7.5,2.7-11,4.6
		c-3.7,1.9-7.7,3.4-11.9,4c-0.5,0.1-1,0.1-1.4,0.2c-3.7,0.4-7.3,0.3-11-0.3c-4.3-0.8-8.3-2.5-12.4-3.9c-3.8-1.3-8-2.6-12-1.6
		c-3.4,0.8-6.2,3.1-8.6,5.5c-4.4,4.5-8.1,9.7-13.5,12.9c-0.7,0.4-1.5,0.8-2.3,1.2c-5.2,2.3-11.2,2.4-15.4-1.2
		c-0.9-0.8-1.8-1.8-2.5-3c-3.3-5.5-1.8-13.4-6.7-17.9c-3.9-3.6-10.5-4.3-14.9-1.3c-2.8,1.9-4.2,5.2-5.9,8.1c-1.8,3-4.1,5.7-7.4,7
		c-2.9,1.2-6.4,1.3-9.4,0.3c-3.7-1.2-5.6-3.5-7.9-6.4c-2.6-3.3-6.9-1-9.6,1c-2.9,2.2-5.6,4.8-9.2,5.8c-3.4,0.9-6.6,0.1-9.1-1.6
		c-2.8-1.9-5-5-6.3-8.2c-2.7-6.8-1.2-14.4-2.9-21.4v-23.9c0-5.8,4.8-10.6,10.6-10.6h297.2c5.8,0,10.6,4.8,10.6,10.6v20.6
		c0,1.4-0.3,2.7-0.7,3.9C319.2,162.7,318.6,167.2,315,170.6z"/>
	<path fill="#FFFFFF" d="M0,145.9"/>
	<path fill="#E77675" d="M192.8,261.4c-2,1-4,2.1-5.6,3.7c-1.2,1.2-2.3,2.2-3.9,2.8c-3.2,1.1-6.5,0.1-9.3-1.5
		c-1.8-1-3.5-2.6-5.6-2.8c-1.9-0.2-3.5,0.9-5.3,1.2c-1.3,0.3-2.7,0.2-3.8-0.6c-1.2-0.8-2.4-3.4-4.1-3c-1.2,0.3-1.7-1.3-0.9-1.9
		c0-0.6,0.3-1.1,1-1.1c12.3,0.4,24.7,0.8,37,1.1C193.3,259.5,193.8,260.9,192.8,261.4z"/>
	<path opacity="0.14" fill="#FFFFFF" d="M315,170.6c-1.5,1.4-3.2,2.3-4.9,3.1v130.8c0,6.1-4.9,11-11,11H167.2v-192h82.8v-9.1h11.5
		v9.1h46.4c5.8,0,10.6,4.8,10.6,10.6v20.6c0,1.4-0.3,2.7-0.7,3.9C319.2,162.7,318.6,167.2,315,170.6z"/>
	<circle fill="#F27B80" cx="103.1" cy="119.7" r="13.5"/>
	<path fill="#E77675" d="M48.9,259.9c-1.6-0.2-3.2-0.3-4.7-0.3c-0.4-0.1-0.8-0.1-1.2,0c-0.3,0.1-0.5,0.3-0.6,0.5c-1,0-1.9,0.4-2.5,1
		c0-0.1,0-0.2,0.1-0.2c0.7-1.2-1.1-2.2-1.8-1.1c0,0,0,0,0,0c0,0,0-0.1,0-0.1c0-1.1-1.9-1.5-2.1-0.3c0,0.2-0.1,0.4-0.1,0.6
		c-0.3-0.7-1.2-0.8-1.7-0.4c-0.5-0.7-1.3-1.1-2.1-1.5c-1.3-0.5-1.8,1.5-0.6,2c2.5,1,0.7,4.6,1.6,6.6c0.6,1.6,2.2,2.6,3.9,2.6
		c1.6,0,3-1,3.5-2.6c0.2-0.7,0.3-1.3,0.2-2c0-0.1,0-0.2,0-0.3c-0.1-0.8,0.4-2.3,1.4-2.2c0.6,0.1,0.4,0.3,0.7,0.8
		c0.5,0.7,1.2,1.1,2,1.3c0.7,0.1,1.5,0,2.1-0.4c0.9-0.5,1.3-2,2.4-2.2C50.5,261.7,50,260,48.9,259.9z"/>
	<path fill="#E77675" d="M151.7,197.3c-1.5-0.4-3-0.3-4.4,0.4c-0.6,0.3-1.1,1-1.6,1.3c-1,0.4-2-0.6-2.9-0.9
		c-0.2-0.1-0.3-0.1-0.5-0.2c-0.2-0.1-0.4-0.2-0.7-0.3c-1.3-0.5-2.9-0.7-4.4-0.7c-2.5-0.2-5-0.1-7.3-0.1c-2.3,0-6.8-0.2-8.4,2
		c-0.1-0.1-0.2-0.1-0.4-0.1c0-0.2,0-0.3-0.1-0.5c-0.2-1.1-1.8-1-2,0c0,0,0,0,0,0c-0.4-1.1-2-0.9-2.1,0.3c0,0.2,0,0.4,0,0.7
		c-0.8-1.5-2.2-2.4-3.9-2.8c-1.3-0.3-1.9,1.7-0.6,2c3.7,0.8,2.4,3.8,3,6.5c0.4,1.7,1.6,2.8,3.2,3.3c1.9,0.6,4.1,0.4,5.4-1.2
		c0.6-0.8,0.9-1.7,1-2.7c0.2-1.6-0.8-4.5,1.6-4.6c1.2-0.1,2.4,0.6,3.6,0.6c1.4,0,2.5-0.5,3.8-1c0.8-0.3,1.5-0.4,2.3-0.4
		c1.1,0.1,2.2,0.2,3.3,0.4c0.4,0.1,0.7,0.2,1.1,0.3c0.1,0,0.2,0.1,0.3,0.2c0.7,0.5,0.7,0.9,1.2,1.5c1,1.2,3.3,1.7,4.8,1.3
		c1.9-0.5,2.7-2.9,4.5-3.3C152.7,199.2,152.7,197.6,151.7,197.3z"/>
</g>
</svg>
