<?xml version="1.0" encoding="utf-8"?>
<!-- Generator: Adobe Illustrator 18.1.1, SVG Export Plug-In . SVG Version: 6.00 Build 0)  -->
<svg version="1.1" id="Layer_1" xmlns="http://www.w3.org/2000/svg" xmlns:xlink="http://www.w3.org/1999/xlink" x="0px" y="0px"
	 viewBox="0 0 239 79.1" enable-background="new 0 0 239 79.1" xml:space="preserve">
<g id="XMLID_11982_">
	<path id="XMLID_13937_" fill="#C89C66" d="M226.8,49v7.1c0,12.6-10.3,23-23,23H35.2c-12.7,0-23-10.4-23-23V49H226.8z"/>
	<path id="XMLID_11984_" fill="#C89C66" d="M203.8,46H35.2c-12.6,0-23-10.3-23-23v0c0-12.6,10.3-23,23-23h168.7
		c12.6,0,23,10.3,23,23v0C226.8,35.7,216.5,46,203.8,46z"/>
	
		<ellipse id="XMLID_11976_" transform="matrix(0.9115 -0.4113 0.4113 0.9115 -0.4671 15.1627)" fill="#F5F0A1" cx="35" cy="8.7" rx="3" ry="1.7"/>
	
		<ellipse id="XMLID_13891_" transform="matrix(0.9487 0.3161 -0.3161 0.9487 6.9189 -14.8243)" fill="#F5F0A1" cx="49.2" cy="13.9" rx="3" ry="1.7"/>
	
		<ellipse id="XMLID_13892_" transform="matrix(0.9487 0.3161 -0.3161 0.9487 5.3587 -19.0189)" fill="#F5F0A1" cx="61.3" cy="7" rx="2.1" ry="1.1"/>
	
		<ellipse id="XMLID_13911_" transform="matrix(0.9988 -4.861084e-02 4.861084e-02 0.9988 -2.9032 9.1946)" fill="#F5F0A1" cx="187.6" cy="64.3" rx="2.1" ry="1.3"/>
	
		<ellipse id="XMLID_13923_" transform="matrix(0.8923 0.4514 -0.4514 0.8923 37.3833 -25.5887)" fill="#F5F0A1" cx="72.3" cy="65.6" rx="2.1" ry="1.3"/>
	
		<ellipse id="XMLID_13927_" transform="matrix(0.9219 -0.3874 0.3874 0.9219 -20.7004 37.3129)" fill="#F5F0A1" cx="82.2" cy="70" rx="2.6" ry="1.6"/>
	
		<ellipse id="XMLID_13916_" transform="matrix(0.7551 -0.6556 0.6556 0.7551 2.8158 148.0712)" fill="#F5F0A1" cx="199.6" cy="70.3" rx="2.1" ry="1.3"/>
	
		<ellipse id="XMLID_13921_" transform="matrix(0.8934 -0.4493 0.4493 0.8934 -5.3106 98.1141)" fill="#F5F0A1" cx="204.1" cy="60.2" rx="2.7" ry="1.7"/>
	<polygon id="XMLID_13933_" opacity="0.2" fill="#1D1C1A" points="52.1,53.8 12.2,53.8 12.2,49 24.8,49 	"/>
	<polygon id="XMLID_11986_" opacity="0.2" fill="#1D1C1A" points="196.5,53.1 226.8,53.1 226.8,46 	"/>
	<path id="XMLID_11980_" fill="#E5342A" d="M226.1,49.6c-70.7,9.7-142.5,9.6-213.2-0.3c-8.3-1.2-14-8.6-12.7-16.4l0,0
		c1.3-7.8,8.8-13.1,16.7-12.1C85,30.2,154,30.2,222.1,20.6c7.9-1.1,15.4,4.3,16.7,12.3l0,0C240.1,40.9,234.4,48.5,226.1,49.6z"/>
	<g id="XMLID_13922_" opacity="0.16">
		<path id="XMLID_13938_" fill="none" stroke="#1D1C1A" stroke-width="7" stroke-linecap="round" stroke-miterlimit="10" d="
			M24.8,34.7c12.1,0,12.1,12,24.1,12c12.1,0,12.1-12,24.1-12c12.1,0,12.1,12,24.1,12c12.1,0,12.1-12,24.1-12c12.1,0,12.1,12,24.1,12
			c12.1,0,12.1-12,24.1-12c12.1,0,12.1,12,24.1,12s12.1-12,24.1-12"/>
	</g>
	<g id="XMLID_11985_">
		<path id="XMLID_13935_" fill="none" stroke="#FFDD00" stroke-width="7" stroke-linecap="round" stroke-miterlimit="10" d="
			M24.8,33c12.1,0,12.1,12,24.1,12C61,45,61,33,73,33c12.1,0,12.1,12,24.1,12c12.1,0,12.1-12,24.1-12c12.1,0,12.1,12,24.1,12
			c12.1,0,12.1-12,24.1-12c12.1,0,12.1,12,24.1,12s12.1-12,24.1-12"/>
	</g>
</g>
</svg>
