<?xml version="1.0" encoding="utf-8"?>
<!-- Generator: Adobe Illustrator 18.1.1, SVG Export Plug-In . SVG Version: 6.00 Build 0)  -->
<svg version="1.1" id="Layer_1" xmlns="http://www.w3.org/2000/svg" xmlns:xlink="http://www.w3.org/1999/xlink" x="0px" y="0px"
	 viewBox="0 0 91.7 107.6" enable-background="new 0 0 91.7 107.6" xml:space="preserve">
<g>
	<g>
		<polygon fill="#7DC242" points="91.7,26.5 46.1,53 0.2,26.5 45.8,0 		"/>
	</g>
	<g>
		<polygon fill="#6F3F19" points="91.7,26.5 91.5,81.1 45.9,107.6 46.1,53 		"/>
	</g>
	<g>
		<polygon fill="#603913" points="46.1,53 45.9,107.6 0,81.1 0.2,26.5 		"/>
	</g>
	<g>
		<polygon fill="#7DC242" points="91.6,26.5 80.1,33.1 46,53 11.5,33.1 0.1,26.5 45.7,0 		"/>
	</g>
	<g>
		<polygon fill="#649D46" points="91.6,26.5 91.5,39.7 91.5,39.8 46,66.2 45.9,66.2 46,53 80.1,33.1 		"/>
		<line fill="#649D46" x1="45.9" y1="66.2" x2="46" y2="66.2"/>
	</g>
	<g>
		<polyline fill="#5A9140" points="0.1,26.5 11.5,33.1 46,53 45.9,66.2 0.1,39.7 		"/>
		<polygon fill="#7DC242" points="91.6,39.7 91.5,39.8 91.5,39.7 		"/>
	</g>
	<g>
		<line fill="#5A9140" x1="45.9" y1="66.2" x2="46" y2="66.2"/>
	</g>
</g>
</svg>
