<svg xmlns="http://www.w3.org/2000/svg" xmlns:xlink="http://www.w3.org/1999/xlink" id="Layer_1" x="0" y="0" version="1.1" viewBox="0 0 100 100" xml:space="preserve" style="enable-background:new 0 0 100 100"><style type="text/css">.st1{opacity:.5;fill:#b5a7d2}.st8{fill:#c4b9dc}.st12{fill:#b5a7d2}</style><g><polygon points="77.9 77 39.8 88.1 11.2 60.8 20.6 22.3 58.6 11.2 87.3 38.5" class="st8"/><g><polygon points="62.3 61.8 46.3 66.5 34.1 54.9 38.1 38.6 54.2 33.9 66.3 45.5" class="st12"/><path d="M61.7,41.1c0.1,0.8,0.1,1.5,0,2.2c0,0,0,0,0,0c0,0,0,0,0,0c0,0-0.1,0.8-0.2,1.5c-0.1,0.7-0.2,1.6-0.3,2.3 c-0.3,1-0.7,2-1.2,3c-0.6,1.4-1.6,2.7-2.7,3.7C55,56,52,57.6,48.9,58.3c-3.4,0.7-7.1,1-10.7,0.5l8,7.7l16.1-4.7l4-16.3L61.7,41.1z" class="st1"/></g><g><g><polygon points="70.4 29.2 54.3 33.9 42.2 22.3 46.1 6.1 62.2 1.4 74.3 12.9" class="st12"/><path d="M69.7,8.5c0.1,0.8,0.1,1.5,0,2.2c0,0,0,0,0,0c0,0,0,0,0,0c0,0-0.1,0.8-0.2,1.5c-0.1,0.7-0.2,1.6-0.3,2.3 c-0.3,1-0.7,2-1.2,3c-0.6,1.4-1.6,2.7-2.7,3.7C63,23.4,60,25,56.9,25.7c-3.4,0.7-7.1,1-10.7,0.5l8,7.7l16.1-4.7l4-16.3L69.7,8.5z" class="st1"/></g><g><polygon points="94.5 52.6 78.4 57.3 66.3 45.8 70.3 29.5 86.4 24.8 98.5 36.4" class="st12"/><path d="M93.9,32c0.1,0.8,0.1,1.5,0,2.2c0,0,0,0,0,0c0,0,0,0,0,0c0,0-0.1,0.8-0.2,1.5c-0.1,0.7-0.2,1.6-0.3,2.3 c-0.3,1-0.7,2-1.2,3c-0.6,1.4-1.6,2.7-2.7,3.7c-2.3,2.2-5.3,3.8-8.4,4.5c-3.4,0.7-7.1,1-10.7,0.5l8,7.7l16.1-4.7l4-16.3L93.9,32z" class="st1"/></g><g><polygon points="38.2 38 22.1 42.7 10 31.1 14 14.8 30 10.1 42.2 21.7" class="st12"/><path d="M37.6,17.3c0.1,0.8,0.1,1.5,0,2.2c0,0,0,0,0,0c0,0,0,0,0,0c0,0-0.1,0.8-0.2,1.5c-0.1,0.7-0.2,1.6-0.3,2.3 c-0.3,1-0.7,2-1.2,3c-0.6,1.4-1.6,2.7-2.7,3.7c-2.3,2.2-5.3,3.8-8.4,4.5c-3.4,0.7-7.1,1-10.7,0.5l8,7.7L38.2,38l4-16.3L37.6,17.3 z" class="st1"/></g><g><polygon points="86.4 85.2 70.4 89.9 58.2 78.3 62.2 62 78.3 57.3 90.4 68.9" class="st12"/><path d="M85.8,64.5c0.1,0.8,0.1,1.5,0,2.2c0,0,0,0,0,0c0,0,0,0,0,0c0,0-0.1,0.8-0.2,1.5c-0.1,0.7-0.2,1.6-0.3,2.3 c-0.3,1-0.7,2-1.2,3c-0.6,1.4-1.6,2.7-2.7,3.7c-2.3,2.2-5.3,3.8-8.4,4.5c-3.4,0.7-7.1,1-10.7,0.5l8,7.7l16.1-4.7l4-16.3 L85.8,64.5z" class="st1"/></g><g><polygon points="54.3 93.9 38.2 98.6 26.1 87.1 30 70.8 46.1 66.1 58.2 77.7" class="st12"/><path d="M53.6,73.3c0.1,0.8,0.1,1.5,0,2.2c0,0,0,0,0,0c0,0,0,0,0,0c0,0-0.1,0.8-0.2,1.5c-0.1,0.7-0.2,1.6-0.3,2.3 c-0.3,1-0.7,2-1.2,3c-0.6,1.4-1.6,2.7-2.7,3.7c-2.3,2.2-5.3,3.8-8.4,4.5c-3.4,0.7-7.1,1-10.7,0.5l8,7.7l16.1-4.7l4-16.3 L53.6,73.3z" class="st1"/></g><g><polygon points="30.1 70.5 14 75.2 1.9 63.6 5.9 47.4 22 42.7 34.1 54.2" class="st12"/><path d="M29.5,49.8c0.1,0.8,0.1,1.5,0,2.2c0,0,0,0,0,0c0,0,0,0,0,0c0,0-0.1,0.8-0.2,1.5c-0.1,0.7-0.2,1.6-0.3,2.3 c-0.3,1-0.7,2-1.2,3c-0.6,1.4-1.6,2.7-2.7,3.7c-2.3,2.2-5.3,3.8-8.4,4.5c-3.4,0.7-7.1,1-10.7,0.5l8,7.7l16.1-4.7l4-16.3 L29.5,49.8z" class="st1"/></g></g><g><g><polygon points="34.7 79.7 27.4 88.2 16.3 86.1 12.6 75.5 19.9 67 31 69.1" class="st8"/><path d="M26.8,68.3c0.3,0.4,0.6,0.8,0.8,1.3c0,0,0,0,0,0c0,0,0,0,0,0c0,0,0.2,0.5,0.4,0.9c0.2,0.4,0.5,0.9,0.6,1.4 c0.2,0.7,0.3,1.4,0.4,2.1c0.1,1,0.1,2.1-0.2,3c-0.5,2.1-1.6,4.1-3.1,5.6c-1.6,1.7-3.6,3.1-5.8,4.2l7.3,1.4l7.3-8.5L31,69.1 L26.8,68.3z" class="st1"/></g><g><polygon points="87.4 25.9 80.1 34.5 69 32.4 65.3 21.8 72.6 13.2 83.7 15.3" class="st8"/><path d="M79.5,14.5c0.3,0.4,0.6,0.8,0.8,1.3c0,0,0,0,0,0c0,0,0,0,0,0c0,0,0.2,0.5,0.4,0.9c0.2,0.4,0.5,0.9,0.6,1.4 c0.2,0.7,0.3,1.4,0.4,2.1c0.1,1,0.1,2.1-0.2,3c-0.5,2.1-1.6,4.1-3.1,5.6c-1.6,1.7-3.6,3.1-5.8,4.2l7.3,1.4l7.3-8.5l-3.7-10.6 L79.5,14.5z" class="st1"/></g><g><polygon points="23.6 42.8 16.3 51.3 5.3 49.2 1.5 38.6 8.9 30.1 19.9 32.1" class="st8"/><path d="M15.7,31.4c0.3,0.4,0.6,0.8,0.8,1.3c0,0,0,0,0,0c0,0,0,0,0,0c0,0,0.2,0.5,0.4,0.9c0.2,0.4,0.5,0.9,0.6,1.4 c0.2,0.7,0.3,1.4,0.4,2.1c0.1,1,0.1,2.1-0.2,3c-0.5,2.1-1.6,4.1-3.1,5.6c-1.6,1.7-3.6,3.1-5.8,4.2l7.3,1.4l7.3-8.5l-3.7-10.6 L15.7,31.4z" class="st1"/></g><g><polygon points="49.3 16.1 41.9 24.6 30.9 22.5 27.2 11.9 34.5 3.4 45.5 5.5" class="st8"/><path d="M41.3,4.7c0.3,0.4,0.6,0.8,0.8,1.3c0,0,0,0,0,0c0,0,0,0,0,0c0,0,0.2,0.5,0.4,0.9c0.2,0.4,0.5,0.9,0.6,1.4 c0.2,0.7,0.3,1.4,0.4,2.1c0.1,1,0.1,2.1-0.2,3c-0.5,2.1-1.6,4.1-3.1,5.6c-1.6,1.7-3.6,3.1-5.8,4.2l7.3,1.4l7.3-8.5L45.5,5.5 L41.3,4.7z" class="st1"/></g><g><polygon points="98.5 62.3 91.1 70.9 80.1 68.8 76.4 58.2 83.7 49.6 94.7 51.7" class="st8"/><path d="M90.5,50.9c0.3,0.4,0.6,0.8,0.8,1.3c0,0,0,0,0,0c0,0,0,0,0,0c0,0,0.2,0.5,0.4,0.9c0.2,0.4,0.5,0.9,0.6,1.4 c0.2,0.7,0.3,1.4,0.4,2.1c0.1,1,0.1,2.1-0.2,3c-0.5,2.1-1.6,4.1-3.1,5.6C88,67,86,68.4,83.8,69.5l7.3,1.4l7.3-8.5l-3.7-10.6 L90.5,50.9z" class="st1"/></g><g><polygon points="71.3 89 64 97.5 52.9 95.4 49.2 84.8 56.5 76.3 67.6 78.4" class="st8"/><path d="M63.4,77.6c0.3,0.4,0.6,0.8,0.8,1.3c0,0,0,0,0,0c0,0,0,0,0,0c0,0,0.2,0.5,0.4,0.9c0.2,0.4,0.5,0.9,0.6,1.4 c0.2,0.7,0.3,1.4,0.4,2.1c0.1,1,0.1,2.1-0.2,3c-0.5,2.1-1.6,4.1-3.1,5.6c-1.6,1.7-3.6,3.1-5.8,4.2l7.3,1.4l7.3-8.5l-3.7-10.6 L63.4,77.6z" class="st1"/></g></g><g><g><polygon points="63 35.4 52.4 39.1 43.9 31.7 46 20.7 56.6 17 65.1 24.3" class="st8"/><path d="M61.9,21.6c0.1,0.5,0.1,1,0.1,1.5c0,0,0,0,0,0c0,0,0,0,0,0c0,0,0,0.5-0.1,1c0,0.5-0.1,1.1-0.2,1.5 c-0.1,0.7-0.4,1.4-0.7,2c-0.4,0.9-1,1.8-1.7,2.6c-1.5,1.6-3.4,2.7-5.5,3.3c-2.3,0.6-4.7,0.9-7.1,0.7l5.6,4.9L63,35.4l2.1-11 L61.9,21.6z" class="st1"/></g><g><polygon points="80 50.3 69.4 54 60.9 46.6 63 35.6 73.6 31.9 82.1 39.3" class="st8"/><path d="M78.9,36.5c0.1,0.5,0.1,1,0.1,1.5c0,0,0,0,0,0c0,0,0,0,0,0c0,0,0,0.5-0.1,1c0,0.5-0.1,1.1-0.2,1.5 c-0.1,0.7-0.4,1.4-0.7,2c-0.4,0.9-1,1.8-1.7,2.6c-1.5,1.6-3.4,2.7-5.5,3.3c-2.3,0.6-4.7,0.9-7.1,0.7l5.6,4.9L80,50.3l2.1-11 L78.9,36.5z" class="st1"/></g><g><polygon points="58.7 57.5 48.1 61.2 39.6 53.8 41.7 42.8 52.3 39.1 60.8 46.4" class="st8"/><path d="M57.6,43.6c0.1,0.5,0.1,1,0.1,1.5c0,0,0,0,0,0c0,0,0,0,0,0c0,0,0,0.5-0.1,1c0,0.5-0.1,1.1-0.2,1.5 c-0.1,0.7-0.4,1.4-0.7,2c-0.4,0.9-1,1.8-1.7,2.6c-1.5,1.6-3.4,2.7-5.5,3.3c-2.3,0.6-4.7,0.9-7.1,0.7l5.6,4.9l10.6-3.7l2.1-11 L57.6,43.6z" class="st1"/></g><g><polygon points="41.8 42.3 31.1 46 22.6 38.7 24.7 27.6 35.4 23.9 43.9 31.3" class="st8"/><path d="M40.6,28.5c0.1,0.5,0.1,1,0.1,1.5c0,0,0,0,0,0c0,0,0,0,0,0c0,0,0,0.5-0.1,1c0,0.5-0.1,1.1-0.2,1.5 c-0.1,0.7-0.4,1.4-0.7,2c-0.4,0.9-1,1.8-1.7,2.6c-1.5,1.6-3.4,2.7-5.5,3.3c-2.3,0.6-4.7,0.9-7.1,0.7l5.6,4.9l10.6-3.7l2.1-11 L40.6,28.5z" class="st1"/></g><g><polygon points="75.7 72.4 65 76.1 56.5 68.7 58.6 57.7 69.3 54 77.8 61.3" class="st8"/><path d="M74.5,58.6c0.1,0.5,0.1,1,0.1,1.5c0,0,0,0,0,0c0,0,0,0,0,0c0,0,0,0.5-0.1,1c0,0.5-0.1,1.1-0.2,1.5 c-0.1,0.7-0.4,1.4-0.7,2c-0.4,0.9-1,1.8-1.7,2.6c-1.5,1.6-3.4,2.7-5.5,3.3c-2.3,0.6-4.7,0.9-7.1,0.7l5.6,4.9l10.6-3.7l2.1-11 L74.5,58.6z" class="st1"/></g><g><polygon points="54.4 79.3 43.8 83 35.3 75.7 37.4 64.6 48 60.9 56.5 68.3" class="st8"/><path d="M53.3,65.5c0.1,0.5,0.1,1,0.1,1.5c0,0,0,0,0,0c0,0,0,0,0,0c0,0,0,0.5-0.1,1c0,0.5-0.1,1.1-0.2,1.5 c-0.1,0.7-0.4,1.4-0.7,2c-0.4,0.9-1,1.8-1.7,2.6c-1.5,1.6-3.4,2.7-5.5,3.3c-2.3,0.6-4.7,0.9-7.1,0.7l5.6,4.9l10.6-3.7l2.1-11 L53.3,65.5z" class="st1"/></g><g><polygon points="37.4 64.4 26.8 68.1 18.3 60.7 20.4 49.7 31 46 39.5 53.4" class="st8"/><path d="M36.3,50.6c0.1,0.5,0.1,1,0.1,1.5c0,0,0,0,0,0c0,0,0,0,0,0c0,0,0,0.5-0.1,1c0,0.5-0.1,1.1-0.2,1.5 c-0.1,0.7-0.4,1.4-0.7,2c-0.4,0.9-1,1.8-1.7,2.6c-1.5,1.6-3.4,2.7-5.5,3.3c-2.3,0.6-4.7,0.9-7.1,0.7l5.6,4.9l10.6-3.7l2.1-11 L36.3,50.6z" class="st1"/></g></g></g></svg>