<?xml version="1.0" encoding="utf-8"?>
<!-- Generator: Adobe Illustrator 21.1.0, SVG Export Plug-In . SVG Version: 6.00 Build 0)  -->
<svg version="1.1" id="Layer_1" xmlns="http://www.w3.org/2000/svg" xmlns:xlink="http://www.w3.org/1999/xlink" x="0px" y="0px"
	 viewBox="0 0 100 100" style="enable-background:new 0 0 100 100;" xml:space="preserve">
<style type="text/css">
	.st0{fill:#2DAB66;}
	.st1{opacity:0.5;fill:#B5A7D2;}
	.st2{fill:#008D36;}
	.st3{fill:#E3DE00;}
	.st4{opacity:0.5;fill:#BADED4;}
	.st5{fill:#DD7796;}
	.st6{fill:#FFFFFF;}
	.st7{fill:#BADED4;}
	.st8{fill:#C4B9DC;}
	.st9{opacity:0.5;fill:#C4B9DC;}
	.st10{fill:#6F6F6E;}
	.st11{fill:#E61B72;}
	.st12{fill:#B5A7D2;}
	.st13{fill:#E20613;}
	.st14{fill:#F8B133;}
	.st15{fill:#D60B51;}
	.st16{fill:#E7A100;}
	.st17{fill:#A6841B;}
</style>
<g>
	<g>
		<g>
			<polygon class="st17" points="68.2,17.7 61,13.5 60.9,5.2 68.2,1 75.4,5.2 75.4,13.5 			"/>
			<path class="st1" d="M75.4,10.3c-0.2,0.3-0.5,0.5-0.8,0.8c0,0,0,0,0,0c0,0,0,0,0,0c0,0-0.3,0.2-0.6,0.4c-0.3,0.2-0.6,0.5-0.9,0.7
				c-0.5,0.3-1,0.4-1.5,0.6c-0.7,0.2-1.5,0.3-2.2,0.3c-1.6-0.1-3.2-0.6-4.5-1.5C63.4,10.7,62,9.4,61,8l0,5.5l7.2,4.2l7.2-4.2
				L75.4,10.3z"/>
		</g>
		<g>
			<polygon class="st17" points="61,30 53.7,25.8 53.7,17.5 60.9,13.3 68.2,17.4 68.2,25.8 			"/>
			<path class="st1" d="M68.2,22.6c-0.2,0.3-0.5,0.5-0.8,0.8c0,0,0,0,0,0c0,0,0,0,0,0c0,0-0.3,0.2-0.6,0.4c-0.3,0.2-0.6,0.5-0.9,0.7
				c-0.5,0.3-1,0.4-1.5,0.6c-0.7,0.2-1.5,0.3-2.2,0.3c-1.6-0.1-3.2-0.6-4.5-1.5c-1.4-1-2.8-2.2-3.9-3.7l0,5.5L61,30l7.2-4.2
				L68.2,22.6z"/>
		</g>
		<g>
			<polygon class="st17" points="31.8,17.7 39,13.5 39,5.2 31.8,1 24.6,5.2 24.5,13.5 			"/>
			<path class="st1" d="M24.6,10.3c0.2,0.3,0.5,0.5,0.8,0.8c0,0,0,0,0,0c0,0,0,0,0,0c0,0,0.3,0.2,0.6,0.4c0.3,0.2,0.6,0.5,0.9,0.7
				c0.5,0.3,1,0.4,1.5,0.6c0.7,0.2,1.5,0.3,2.2,0.3c1.6-0.1,3.2-0.6,4.5-1.5c1.4-1,2.8-2.2,3.9-3.7l0,5.5l-7.2,4.2l-7.2-4.2
				L24.6,10.3z"/>
		</g>
		<g>
			<polygon class="st17" points="39,30 46.2,25.8 46.2,17.5 39,13.3 31.8,17.4 31.8,25.8 			"/>
			<path class="st1" d="M31.8,22.6c0.2,0.3,0.5,0.5,0.8,0.8c0,0,0,0,0,0c0,0,0,0,0,0c0,0,0.3,0.2,0.6,0.4c0.3,0.2,0.6,0.5,0.9,0.7
				c0.5,0.3,1,0.4,1.5,0.6c0.7,0.2,1.5,0.3,2.2,0.3c1.6-0.1,3.2-0.6,4.5-1.5c1.4-1,2.8-2.2,3.9-3.7l0,5.5L39,30l-7.2-4.2L31.8,22.6z
				"/>
		</g>
	</g>
	<g>
		<g>
			<polygon class="st17" points="50,54.7 63.5,47 63.5,31.4 50,23.6 36.5,31.4 36.5,46.9 			"/>
			<path class="st1" d="M36.5,41c0.5,0.5,1,1,1.5,1.4c0,0,0,0,0,0c0,0,0,0,0,0c0,0,0.6,0.4,1.1,0.8c0.5,0.4,1.2,0.9,1.7,1.2
				c0.9,0.5,1.8,0.8,2.8,1.1c1.3,0.5,2.8,0.6,4.2,0.6c3-0.1,6-1.1,8.5-2.8c2.7-1.8,5.2-4.1,7.2-6.8l0,10.3L50,54.7l-13.5-7.8
				L36.5,41z"/>
		</g>
		<g>
			<polygon class="st17" points="23.8,54.7 37.3,47 37.3,31.4 23.9,23.6 10.4,31.4 10.3,46.9 			"/>
			<path class="st1" d="M10.3,41c0.5,0.5,1,1,1.5,1.4c0,0,0,0,0,0c0,0,0,0,0,0c0,0,0.6,0.4,1.1,0.8c0.5,0.4,1.2,0.9,1.7,1.2
				c0.9,0.5,1.8,0.8,2.8,1.1c1.3,0.5,2.8,0.6,4.2,0.6c3-0.1,6-1.1,8.5-2.8c2.7-1.8,5.2-4.1,7.2-6.8l0,10.3l-13.5,7.8l-13.5-7.8
				L10.3,41z"/>
		</g>
		<g>
			<polygon class="st17" points="76.1,54.7 89.6,47 89.7,31.4 76.2,23.6 62.7,31.4 62.7,46.9 			"/>
			<path class="st1" d="M62.7,41c0.5,0.5,1,1,1.5,1.4c0,0,0,0,0,0c0,0,0,0,0,0c0,0,0.6,0.4,1.1,0.8c0.5,0.4,1.2,0.9,1.7,1.2
				c0.9,0.5,1.8,0.8,2.8,1.1c1.3,0.5,2.8,0.6,4.2,0.6c3-0.1,6-1.1,8.5-2.8c2.7-1.8,5.2-4.1,7.2-6.8l0,10.3l-13.5,7.8l-13.5-7.8
				L62.7,41z"/>
		</g>
	</g>
	<g>
		<polygon class="st3" points="33.1,43.1 31.8,37.5 36,33.6 41.5,35.2 42.8,40.8 38.6,44.8 		"/>
		<path class="st4" d="M32.9,40.9c1-1,2.1-1.9,3.4-2.5c1.8-0.9,3.7-1.4,5.6-1.6l-0.4-1.5L36,33.6l-4.2,3.9l0.8,3.6
			C32.7,41,32.8,40.9,32.9,40.9z"/>
		<polygon class="st11" points="33.9,42.4 32.8,37.8 36.2,34.6 40.8,35.9 41.9,40.6 38.4,43.8 		"/>
		<path class="st1" d="M38.1,41.6c-0.6,0.3-1.2,0.5-1.8,0.6c-0.9,0.1-1.7,0.2-2.5,0l0.1,0.2l4.5,1.4l3.5-3.2l-0.3-1.2
			C40.5,40.3,39.4,41.1,38.1,41.6z"/>
		<polygon class="st6" points="37,38.6 35.4,38.6 34.7,37.2 35.5,35.8 37.1,35.8 37.8,37.2 		"/>
	</g>
	<g>
		<polygon class="st3" points="59.3,43.2 58,37.6 62.2,33.7 67.7,35.4 69,41 64.8,44.9 		"/>
		<path class="st4" d="M59.1,41c1-1,2.1-1.9,3.4-2.5c1.8-0.9,3.7-1.4,5.6-1.6l-0.4-1.5l-5.5-1.7L58,37.6l0.8,3.6
			C58.9,41.2,59,41.1,59.1,41z"/>
		<polygon class="st11" points="60,42.6 59,37.9 62.4,34.7 67,36.1 68,40.7 64.6,43.9 		"/>
		<path class="st1" d="M64.2,41.8c-0.6,0.3-1.2,0.5-1.8,0.6c-0.9,0.1-1.7,0.2-2.5,0l0.1,0.2l4.5,1.4l3.5-3.2l-0.3-1.2
			C66.7,40.4,65.6,41.2,64.2,41.8z"/>
		<polygon class="st6" points="63.2,38.7 61.6,38.7 60.8,37.3 61.6,35.9 63.2,36 64,37.3 		"/>
	</g>
	<g>
		<polygon class="st3" points="45.8,42.5 44.5,36.9 48.7,33 54.2,34.6 55.5,40.2 51.3,44.2 		"/>
		<path class="st4" d="M45.6,40.2c1-1,2.1-1.9,3.4-2.5c1.8-0.9,3.7-1.4,5.6-1.6l-0.4-1.5L48.7,33l-4.2,3.9l0.8,3.6
			C45.4,40.4,45.5,40.3,45.6,40.2z"/>
		<polygon class="st11" points="46.5,41.8 45.5,37.2 48.9,34 53.5,35.3 54.5,39.9 51.1,43.2 		"/>
		<path class="st1" d="M50.7,41c-0.6,0.3-1.2,0.5-1.8,0.6c-0.9,0.1-1.7,0.2-2.5,0l0.1,0.2l4.5,1.4l3.5-3.2l-0.3-1.2
			C53.2,39.7,52.1,40.5,50.7,41z"/>
		<polygon class="st6" points="49.7,38 48.1,37.9 47.3,36.6 48.1,35.2 49.7,35.2 50.5,36.6 		"/>
	</g>
	<g>
		<g>
			<polygon class="st17" points="60.9,65 68.2,60.9 68.2,52.5 61,48.4 53.7,52.5 53.7,60.9 			"/>
			<path class="st1" d="M53.7,57.7c0.2,0.3,0.5,0.5,0.8,0.8c0,0,0,0,0,0c0,0,0,0,0,0c0,0,0.3,0.2,0.6,0.4c0.3,0.2,0.6,0.5,0.9,0.7
				c0.5,0.3,1,0.4,1.5,0.6c0.7,0.2,1.5,0.3,2.2,0.3c1.6-0.1,3.2-0.6,4.5-1.5c1.4-1,2.8-2.2,3.9-3.7l0,5.5L60.9,65l-7.2-4.2
				L53.7,57.7z"/>
		</g>
		<g>
			<polygon class="st17" points="68.2,77.3 75.4,73.2 75.4,64.8 68.2,60.6 61,64.8 60.9,73.1 			"/>
			<path class="st1" d="M61,70c0.2,0.3,0.5,0.5,0.8,0.8c0,0,0,0,0,0c0,0,0,0,0,0c0,0,0.3,0.2,0.6,0.4c0.3,0.2,0.6,0.5,0.9,0.7
				c0.5,0.3,1,0.4,1.5,0.6c0.7,0.2,1.5,0.3,2.2,0.3c1.6-0.1,3.2-0.6,4.5-1.5c1.4-1,2.8-2.2,3.9-3.7l0,5.5l-7.2,4.2l-7.2-4.2L61,70z"
				/>
		</g>
		<g>
			<polygon class="st17" points="75.4,89.9 82.6,85.7 82.6,77.4 75.4,73.2 68.2,77.4 68.1,85.7 			"/>
			<path class="st1" d="M68.1,82.5c0.2,0.3,0.5,0.5,0.8,0.8c0,0,0,0,0,0c0,0,0,0,0,0c0,0,0.3,0.2,0.6,0.4c0.3,0.2,0.6,0.5,0.9,0.7
				c0.5,0.3,1,0.4,1.5,0.6c0.7,0.2,1.5,0.3,2.2,0.3c1.6-0.1,3.2-0.6,4.5-1.5c1.4-1,2.8-2.2,3.9-3.7l0,5.5l-7.2,4.2l-7.2-4.2
				L68.1,82.5z"/>
		</g>
		<g>
			<polygon class="st12" points="85.5,100.5 77.1,100.5 73,93.3 77.2,86 85.5,86 89.7,93.3 			"/>
			<path class="st1" d="M88.1,90.5c-0.1,0.4-0.2,0.7-0.3,1.1c0,0,0,0,0,0c0,0,0,0,0,0c0,0-0.2,0.4-0.3,0.7c-0.1,0.3-0.3,0.7-0.5,1
				c-0.3,0.5-0.6,0.9-1,1.3c-0.5,0.6-1.1,1-1.8,1.4c-1.4,0.7-3.1,1.1-4.7,1c-1.7-0.1-3.5-0.5-5.2-1.3l2.8,4.8l8.3,0l4.2-7.2
				L88.1,90.5z"/>
		</g>
	</g>
	<g>
		<g>
			<polygon class="st17" points="39.5,65 32.2,60.9 32.2,52.5 39.5,48.4 46.7,52.5 46.7,60.9 			"/>
			<path class="st1" d="M46.7,57.7c-0.2,0.3-0.5,0.5-0.8,0.8c0,0,0,0,0,0c0,0,0,0,0,0c0,0-0.3,0.2-0.6,0.4c-0.3,0.2-0.6,0.5-0.9,0.7
				c-0.5,0.3-1,0.4-1.5,0.6c-0.7,0.2-1.5,0.3-2.2,0.3c-1.6-0.1-3.2-0.6-4.5-1.5c-1.4-1-2.8-2.2-3.9-3.7l0,5.5l7.2,4.2l7.2-4.2
				L46.7,57.7z"/>
		</g>
		<g>
			<polygon class="st17" points="32.2,77.3 25,73.2 25,64.8 32.2,60.6 39.5,64.8 39.5,73.1 			"/>
			<path class="st1" d="M39.5,70c-0.2,0.3-0.5,0.5-0.8,0.8c0,0,0,0,0,0c0,0,0,0,0,0c0,0-0.3,0.2-0.6,0.4c-0.3,0.2-0.6,0.5-0.9,0.7
				c-0.5,0.3-1,0.4-1.5,0.6c-0.7,0.2-1.5,0.3-2.2,0.3c-1.6-0.1-3.2-0.6-4.5-1.5c-1.4-1-2.8-2.2-3.9-3.7l0,5.5l7.2,4.2l7.2-4.2
				L39.5,70z"/>
		</g>
		<g>
			<polygon class="st17" points="25.1,89.9 17.8,85.7 17.8,77.4 25,73.2 32.3,77.4 32.3,85.7 			"/>
			<path class="st1" d="M32.3,82.5c-0.2,0.3-0.5,0.5-0.8,0.8c0,0,0,0,0,0c0,0,0,0,0,0c0,0-0.3,0.2-0.6,0.4c-0.3,0.2-0.6,0.5-0.9,0.7
				c-0.5,0.3-1,0.4-1.5,0.6c-0.7,0.2-1.5,0.3-2.2,0.3c-1.6-0.1-3.2-0.6-4.5-1.5c-1.4-1-2.8-2.2-3.9-3.7l0,5.5l7.2,4.2l7.2-4.2
				L32.3,82.5z"/>
		</g>
		<g>
			<polygon class="st12" points="22.8,100.5 14.5,100.5 10.3,93.3 14.5,86 22.9,86 27,93.3 			"/>
			<path class="st1" d="M25.4,90.5c-0.1,0.4-0.2,0.7-0.3,1.1c0,0,0,0,0,0c0,0,0,0,0,0c0,0-0.2,0.4-0.3,0.7c-0.1,0.3-0.3,0.7-0.5,1
				c-0.3,0.5-0.6,0.9-1,1.3c-0.5,0.6-1.1,1-1.8,1.4c-1.4,0.7-3.1,1.1-4.7,1c-1.7-0.1-3.5-0.5-5.2-1.3l2.8,4.8l8.3,0l4.2-7.2
				L25.4,90.5z"/>
		</g>
	</g>
</g>
</svg>
