<svg xmlns="http://www.w3.org/2000/svg" xmlns:xlink="http://www.w3.org/1999/xlink" id="Layer_1" x="0" y="0" version="1.1" viewBox="0 0 100 100" xml:space="preserve" style="enable-background:new 0 0 100 100"><style type="text/css">.st1{opacity:.5;fill:#b5a7d2}.st3{fill:#e3de00}.st4{opacity:.5;fill:#baded4}.st6{fill:#fff}.st7{fill:#baded4}.st12{fill:#b5a7d2}</style><g><g><polygon points="30.4 53.7 41.4 57.3 43.8 68.6 35.2 76.3 24.2 72.7 21.8 61.4" class="st12"/><path d="M22.7,65.7c0.3-0.5,0.6-0.9,0.9-1.3c0,0,0,0,0,0c0,0,0,0,0,0c0,0,0.4-0.4,0.7-0.8c0.3-0.4,0.7-0.8,1.1-1.1 c0.6-0.5,1.2-0.9,1.8-1.2c0.9-0.5,1.9-0.9,2.9-1c2.2-0.3,4.5-0.1,6.6,0.7c2.2,0.9,4.4,2.2,6.2,3.9l-1.6-7.5l-11-3.6l-8.6,7.7 L22.7,65.7z" class="st1"/><polygon points="25.9 31 36.8 34.6 39.2 45.9 30.6 53.6 19.6 50 17.3 38.7" class="st12"/><path d="M18.2,43c0.3-0.5,0.6-0.9,0.9-1.3c0,0,0,0,0,0c0,0,0,0,0,0c0,0,0.4-0.4,0.7-0.8c0.3-0.4,0.7-0.8,1.1-1.1 c0.6-0.5,1.2-0.9,1.8-1.2c0.9-0.5,1.9-0.9,2.9-1c2.2-0.3,4.5-0.1,6.6,0.7c2.2,0.9,4.4,2.2,6.2,3.9l-1.6-7.5l-11-3.6l-8.6,7.7 L18.2,43z" class="st1"/><polygon points="47.7 38.4 58.6 42 61 53.3 52.4 61 41.4 57.4 39.1 46.1" class="st12"/><path d="M40,50.3c0.3-0.5,0.6-0.9,0.9-1.3c0,0,0,0,0,0c0,0,0,0,0,0c0,0,0.4-0.4,0.7-0.8c0.3-0.4,0.7-0.8,1.1-1.1 c0.6-0.5,1.2-0.9,1.8-1.2c0.9-0.5,1.9-0.9,2.9-1c2.2-0.3,4.5-0.1,6.6,0.7c2.2,0.9,4.4,2.2,6.2,3.9L58.6,42l-11-3.6l-8.6,7.7 L40,50.3z" class="st1"/><polygon points="34.9 76.6 45.8 80.2 48.2 91.5 39.6 99.2 28.6 95.6 26.3 84.3" class="st12"/><path d="M27.2,88.6c0.3-0.5,0.6-0.9,0.9-1.3c0,0,0,0,0,0c0,0,0,0,0,0c0,0,0.4-0.4,0.7-0.8c0.3-0.4,0.7-0.8,1.1-1.1 c0.6-0.5,1.2-0.9,1.8-1.2c0.9-0.5,1.9-0.9,2.9-1c2.2-0.3,4.5-0.1,6.6,0.7c2.2,0.9,4.4,2.2,6.2,3.9l-1.6-7.5l-11-3.6l-8.6,7.7 L27.2,88.6z" class="st1"/><polygon points="60.4 .3 71.3 3.9 73.7 15.2 65.1 22.9 54.1 19.3 51.8 8" class="st12"/><path d="M52.7,12.3c0.3-0.5,0.6-0.9,0.9-1.3c0,0,0,0,0,0c0,0,0,0,0,0c0,0,0.4-0.4,0.7-0.8c0.3-0.4,0.7-0.8,1.1-1.1 c0.6-0.5,1.2-0.9,1.8-1.2c0.9-0.5,1.9-0.9,2.9-1c2.2-0.3,4.5-0.1,6.6,0.7c2.2,0.9,4.4,2.2,6.2,3.9l-1.6-7.5l-11-3.6L51.8,8 L52.7,12.3z" class="st1"/><polygon points="52.1 61.3 63.1 64.9 65.4 76.2 56.8 83.9 45.9 80.3 43.5 69" class="st12"/><path d="M44.4,73.3c0.3-0.5,0.6-0.9,0.9-1.3c0,0,0,0,0,0c0,0,0,0,0,0c0,0,0.4-0.4,0.7-0.8c0.3-0.4,0.7-0.8,1.1-1.1 c0.6-0.5,1.2-0.9,1.8-1.2c0.9-0.5,1.9-0.9,2.9-1c2.2-0.3,4.5-0.1,6.6,0.7c2.2,0.9,4.4,2.2,6.2,3.9l-1.6-7.5l-11-3.6L43.5,69 L44.4,73.3z" class="st1"/><polygon points="43.1 15.7 54.1 19.3 56.5 30.6 47.9 38.3 36.9 34.7 34.5 23.4" class="st12"/><path d="M35.4,27.6c0.3-0.5,0.6-0.9,0.9-1.3c0,0,0,0,0,0c0,0,0,0,0,0c0,0,0.4-0.4,0.7-0.8c0.3-0.4,0.7-0.8,1.1-1.1 c0.6-0.5,1.2-0.9,1.8-1.2c0.9-0.5,1.9-0.9,2.9-1c2.2-0.3,4.5-0.1,6.6,0.7c2.2,0.9,4.4,2.2,6.2,3.9l-1.6-7.5l-11-3.6l-8.6,7.7 L35.4,27.6z" class="st1"/><polygon points="64.8 23.2 75.8 26.8 78.1 38.1 69.5 45.8 58.6 42.2 56.2 30.9" class="st12"/><path d="M57.1,35.2c0.3-0.5,0.6-0.9,0.9-1.3c0,0,0,0,0,0c0,0,0,0,0,0c0,0,0.4-0.4,0.7-0.8c0.3-0.4,0.7-0.8,1.1-1.1 c0.6-0.5,1.2-0.9,1.8-1.2c0.9-0.5,1.9-0.9,2.9-1c2.2-0.3,4.5-0.1,6.6,0.7c2.2,0.9,4.4,2.2,6.2,3.9l-1.6-7.5l-11-3.6l-8.6,7.7 L57.1,35.2z" class="st1"/><polygon points="69.4 46 80.3 49.6 82.7 60.8 74.1 68.5 63.1 64.9 60.8 53.6" class="st12"/><path d="M61.7,57.9c0.3-0.5,0.6-0.9,0.9-1.3c0,0,0,0,0,0c0,0,0,0,0,0c0,0,0.4-0.4,0.7-0.8c0.3-0.4,0.7-0.8,1.1-1.1 c0.6-0.5,1.2-0.9,1.8-1.2c0.9-0.5,1.9-0.9,2.9-1c2.2-0.3,4.5-0.1,6.6,0.7c2.2,0.9,4.4,2.2,6.2,3.9l-1.6-7.5l-11-3.6l-8.6,7.7 L61.7,57.9z" class="st1"/></g><g><g><polygon points="63.9 35.6 52.8 38.8 44.5 30.8 47.2 19.6 58.3 16.4 66.6 24.4" class="st3"/><path d="M63.4,21.3c0,0.5,0,1,0,1.5c0,0,0,0,0,0c0,0,0,0,0,0c0,0-0.1,0.5-0.1,1c-0.1,0.5-0.1,1.1-0.2,1.6 c-0.2,0.7-0.5,1.4-0.8,2.1c-0.4,0.9-1.1,1.8-1.8,2.5c-1.6,1.5-3.7,2.6-5.8,3.1c-2.3,0.5-4.9,0.7-7.3,0.3l5.5,5.3l11.1-3.2 l2.7-11.2L63.4,21.3z" class="st1"/></g><g><polygon points="80.5 51.7 69.4 54.9 61.1 47 63.8 35.8 74.9 32.5 83.2 40.5" class="st3"/><path d="M80.1,37.5c0,0.5,0,1,0,1.5c0,0,0,0,0,0c0,0,0,0,0,0c0,0-0.1,0.5-0.1,1c-0.1,0.5-0.1,1.1-0.2,1.6 c-0.2,0.7-0.5,1.4-0.8,2.1c-0.4,0.9-1.1,1.8-1.8,2.5c-1.6,1.5-3.7,2.6-5.8,3.1c-2.3,0.5-4.9,0.7-7.3,0.3l5.5,5.3l11.1-3.2 l2.7-11.2L80.1,37.5z" class="st1"/></g><g><polygon points="58.4 58 47.3 61.2 38.9 53.2 41.7 42 52.7 38.8 61.1 46.8" class="st3"/><path d="M57.9,43.7c0,0.5,0,1,0,1.5c0,0,0,0,0,0c0,0,0,0,0,0c0,0-0.1,0.5-0.1,1c-0.1,0.5-0.1,1.1-0.2,1.6 c-0.2,0.7-0.5,1.4-0.8,2.1c-0.4,0.9-1.1,1.8-1.8,2.5c-1.6,1.5-3.7,2.6-5.8,3.1c-2.3,0.5-4.9,0.7-7.3,0.3l5.5,5.3L58.4,58 l2.7-11.2L57.9,43.7z" class="st1"/></g><g><polygon points="47.3 19.2 36.2 22.4 27.8 14.4 30.6 3.2 41.6 0 50 8" class="st3"/><path d="M46.8,4.9c0,0.5,0,1,0,1.5c0,0,0,0,0,0c0,0,0,0,0,0c0,0-0.1,0.5-0.1,1c-0.1,0.5-0.1,1.1-0.2,1.6 c-0.2,0.7-0.5,1.4-0.8,2.1c-0.4,0.9-1.1,1.8-1.8,2.5c-1.6,1.5-3.7,2.6-5.8,3.1c-2.3,0.5-4.9,0.7-7.3,0.3l5.5,5.3l11.1-3.2L50,8 L46.8,4.9z" class="st1"/></g><g><polygon points="69.4 96.5 58.4 99.8 50 91.8 52.7 80.6 63.8 77.4 72.2 85.3" class="st3"/><path d="M69,82.3c0,0.5,0,1,0,1.5c0,0,0,0,0,0c0,0,0,0,0,0c0,0-0.1,0.5-0.1,1c-0.1,0.5-0.1,1.1-0.2,1.6 c-0.2,0.7-0.5,1.4-0.8,2.1c-0.4,0.9-1.1,1.8-1.8,2.5c-1.6,1.5-3.7,2.6-5.8,3.1c-2.3,0.5-4.9,0.7-7.3,0.3l5.5,5.3l11.1-3.2 l2.7-11.2L69,82.3z" class="st1"/></g><g><polygon points="41.7 41.6 30.7 44.8 22.3 36.9 25.1 25.6 36.1 22.4 44.5 30.4" class="st3"/><path d="M41.3,27.4c0,0.5,0,1,0,1.5c0,0,0,0,0,0c0,0,0,0,0,0c0,0-0.1,0.5-0.1,1c-0.1,0.5-0.1,1.1-0.2,1.6 c-0.2,0.7-0.5,1.4-0.8,2.1c-0.4,0.9-1.1,1.8-1.8,2.5c-1.6,1.5-3.7,2.6-5.8,3.1c-2.3,0.5-4.9,0.7-7.3,0.3l5.5,5.3l11.1-3.2 l2.7-11.2L41.3,27.4z" class="st1"/></g><g><polygon points="74.9 74.1 63.9 77.4 55.5 69.4 58.3 58.2 69.3 54.9 77.7 62.9" class="st3"/><path d="M74.5,59.9c0,0.5,0,1,0,1.5c0,0,0,0,0,0c0,0,0,0,0,0c0,0-0.1,0.5-0.1,1c-0.1,0.5-0.1,1.1-0.2,1.6 c-0.2,0.7-0.5,1.4-0.8,2.1c-0.4,0.9-1.1,1.8-1.8,2.5c-1.6,1.5-3.7,2.6-5.8,3.1c-2.3,0.5-4.9,0.7-7.3,0.3l5.5,5.3l11.1-3.2 l2.7-11.2L74.5,59.9z" class="st1"/></g><g><polygon points="52.8 80.1 41.7 83.4 33.4 75.4 36.1 64.2 47.2 61 55.5 68.9" class="st3"/><path d="M52.4,65.9c0,0.5,0,1,0,1.5c0,0,0,0,0,0c0,0,0,0,0,0c0,0-0.1,0.5-0.1,1C52.2,69,52.1,69.6,52,70 c-0.2,0.7-0.5,1.4-0.8,2.1c-0.4,0.9-1.1,1.8-1.8,2.5c-1.6,1.5-3.7,2.6-5.8,3.1c-2.3,0.5-4.9,0.7-7.3,0.3l5.5,5.3l11.1-3.2 l2.7-11.2L52.4,65.9z" class="st1"/></g><g><polygon points="36.2 64 25.1 67.2 16.8 59.3 19.5 48.1 30.6 44.8 38.9 52.8" class="st3"/><path d="M35.7,49.8c0,0.5,0,1,0,1.5c0,0,0,0,0,0c0,0,0,0,0,0c0,0-0.1,0.5-0.1,1c-0.1,0.5-0.1,1.1-0.2,1.6 c-0.2,0.7-0.5,1.4-0.8,2.1c-0.4,0.9-1.1,1.8-1.8,2.5c-1.6,1.5-3.7,2.6-5.8,3.1c-2.3,0.5-4.9,0.7-7.3,0.3l5.5,5.3L36.2,64 l2.7-11.2L35.7,49.8z" class="st1"/></g></g><g><g><polygon points="30.7 40.7 26.7 33.6 30.7 26.6 38.9 26.6 42.9 33.6 38.9 40.7" class="st7"/><path d="M29.5,37.7c0.9-1.8,2.1-3.5,3.5-4.8c2-1.9,4.4-3.4,7-4.4l-1.1-1.9h-8.1l-4.1,7l2.6,4.5 C29.3,38,29.4,37.8,29.5,37.7z" class="st4"/><polygon points="31.4 39.4 28.1 33.6 31.4 27.8 38.1 27.8 41.5 33.6 38.1 39.4" class="st12"/><path d="M36.8,36.6c-0.6,0.6-1.4,1.1-2.1,1.5c-1.1,0.5-2.2,0.9-3.4,1l0.2,0.3h6.7l3.4-5.8L40.6,32 C39.5,33.8,38.4,35.4,36.8,36.6z" class="st1"/><polygon points="34.1 32.9 32 33.5 30.4 32 30.9 29.8 33.1 29.2 34.7 30.7" class="st6"/></g><g><polygon points="51.7 35.4 47.7 28.3 51.7 21.3 59.9 21.3 63.9 28.3 59.9 35.4" class="st7"/><path d="M50.5,32.4c0.9-1.8,2.1-3.5,3.5-4.8c2-1.9,4.4-3.4,7-4.4l-1.1-1.9h-8.1l-4.1,7l2.6,4.5 C50.3,32.7,50.4,32.6,50.5,32.4z" class="st4"/><polygon points="52.4 34.1 49.1 28.3 52.4 22.5 59.1 22.5 62.5 28.3 59.1 34.1" class="st12"/><path d="M57.8,31.4c-0.6,0.6-1.4,1.1-2.1,1.5c-1.1,0.5-2.2,0.9-3.4,1l0.2,0.3h6.7l3.4-5.8l-0.9-1.6 C60.5,28.5,59.4,30.1,57.8,31.4z" class="st1"/><polygon points="55.1 27.6 53 28.2 51.4 26.7 51.9 24.5 54.1 23.9 55.7 25.4" class="st6"/></g><g><polygon points="66.7 50.7 62.6 43.6 66.7 36.6 74.8 36.6 78.9 43.6 74.8 50.7" class="st7"/><path d="M65.5,47.7c0.9-1.8,2.1-3.5,3.5-4.8c2-1.9,4.4-3.4,7-4.4l-1.1-1.9h-8.1l-4.1,7l2.6,4.5 C65.3,48,65.4,47.8,65.5,47.7z" class="st4"/><polygon points="67.4 49.4 64.1 43.6 67.4 37.8 74.1 37.8 77.5 43.6 74.1 49.4" class="st12"/><path d="M72.8,46.6c-0.6,0.6-1.4,1.1-2.1,1.5c-1.1,0.5-2.2,0.9-3.4,1l0.2,0.3h6.7l3.4-5.8l-0.9-1.6 C75.5,43.8,74.4,45.4,72.8,46.6z" class="st1"/><polygon points="70.1 42.9 68 43.5 66.4 42 66.9 39.8 69 39.2 70.6 40.7" class="st6"/></g><g><polygon points="60.6 72.6 57.2 65.2 61.8 58.6 69.9 59.2 73.4 66.6 68.7 73.3" class="st7"/><path d="M59.6,69.5c1-1.7,2.4-3.3,3.9-4.5c2.2-1.7,4.7-3,7.3-3.8l-0.9-2l-8.1-0.7l-4.6,6.7l2.2,4.7 C59.5,69.8,59.5,69.7,59.6,69.5z" class="st4"/><polygon points="61.4 71.4 58.6 65.4 62.4 59.9 69.1 60.4 71.9 66.5 68.1 72" class="st12"/><path d="M67,69.1c-0.7,0.6-1.5,1-2.3,1.3c-1.2,0.4-2.3,0.7-3.4,0.7l0.1,0.3l6.7,0.6l3.8-5.5l-0.8-1.6 C70,66.5,68.7,68,67,69.1z" class="st1"/><polygon points="64.7 65.2 62.5 65.6 61 63.9 61.7 61.8 63.9 61.4 65.4 63" class="st6"/></g><g><polygon points="39.3 77.1 36 69.6 40.9 63.1 49 64 52.2 71.5 47.3 78" class="st7"/><path d="M38.4,74c1.1-1.7,2.5-3.2,4-4.4c2.2-1.7,4.8-2.8,7.4-3.6L49,64l-8.1-0.9L36,69.6l2.1,4.8 C38.2,74.3,38.3,74.1,38.4,74z" class="st4"/><polygon points="40.1 75.9 37.5 69.8 41.5 64.4 48.1 65.2 50.8 71.3 46.8 76.7" class="st12"/><path d="M45.7,73.8c-0.7,0.5-1.5,1-2.3,1.3c-1.2,0.4-2.3,0.6-3.5,0.6l0.1,0.3l6.7,0.8l4-5.4l-0.7-1.7 C48.8,71.3,47.5,72.8,45.7,73.8z" class="st1"/><polygon points="43.6 69.8 41.3 70.2 39.9 68.4 40.7 66.3 42.9 66 44.3 67.7" class="st6"/></g><g><polygon points="23.7 60.4 21.8 52.5 27.8 46.9 35.5 49.3 37.4 57.2 31.5 62.8" class="st7"/><path d="M23.3,57.2c1.3-1.4,3-2.7,4.7-3.6c2.5-1.2,5.2-2,7.9-2.2l-0.5-2.2l-7.8-2.4l-5.9,5.6l1.2,5.1 C23.1,57.4,23.2,57.3,23.3,57.2z" class="st4"/><polygon points="24.7 59.4 23.2 52.9 28.1 48.3 34.5 50.2 36 56.8 31.1 61.4" class="st12"/><path d="M30.6,58.3c-0.8,0.4-1.6,0.7-2.5,0.8c-1.2,0.2-2.4,0.2-3.5,0l0.1,0.3l6.4,1.9l4.9-4.6L35.6,55 C34.1,56.4,32.5,57.6,30.6,58.3z" class="st1"/><polygon points="29.2 54 27 53.9 25.9 52 27 50.1 29.2 50.1 30.3 52" class="st6"/></g></g></g></svg>