<svg xmlns="http://www.w3.org/2000/svg" xmlns:xlink="http://www.w3.org/1999/xlink" id="Layer_1" x="0" y="0" version="1.1" viewBox="0 0 100 100" xml:space="preserve" style="enable-background:new 0 0 100 100"><style type="text/css">.st1,.st4{opacity:.5;fill:#b5a7d2}.st4{fill:#baded4}.st6{fill:#fff}.st7{fill:#baded4}.st8,.st9{fill:#c4b9dc}.st9{opacity:.5}.st10{fill:#6f6f6e}.st11{fill:#e61b72}</style><g><g><polygon points="58.2 66.9 36.3 67.3 25 48.5 35.7 29.4 57.6 29 68.8 47.8" class="st7"/><path d="M64.6,40.7c-0.2,1-0.4,1.9-0.8,2.8c0,0,0,0,0,0.1c0,0,0,0,0-0.1c0,0-0.4,1-0.8,1.8c-0.3,0.9-0.7,1.9-1.2,2.7 c-0.7,1.2-1.6,2.3-2.5,3.4c-1.3,1.5-2.9,2.8-4.6,3.7c-3.7,2-8,3-12.2,2.8c-4.6-0.2-9.3-1.2-13.6-3.1l7.5,12.5l21.9-0.4l10.6-19.2 L64.6,40.7z" class="st4"/></g><g><g><polygon points="59 76.5 53.3 76.6 50.4 71.7 53.2 66.8 58.8 66.7 61.7 71.6" class="st8"/><path d="M60.6,69.7c0,0.3-0.1,0.5-0.2,0.7c0,0,0,0,0,0c0,0,0,0,0,0c0,0-0.1,0.2-0.2,0.5c-0.1,0.2-0.2,0.5-0.3,0.7 c-0.2,0.3-0.4,0.6-0.6,0.9c-0.3,0.4-0.8,0.7-1.2,1c-1,0.5-2.1,0.8-3.2,0.7c-1.2-0.1-2.4-0.3-3.5-0.8l1.9,3.2l5.7-0.1l2.7-4.9 L60.6,69.7z" class="st9"/></g><g><polygon points="65.1 83.8 59.5 83.8 56.6 79 59.3 74 65 74 67.9 78.8" class="st8"/><path d="M66.8,77c0,0.3-0.1,0.5-0.2,0.7c0,0,0,0,0,0c0,0,0,0,0,0c0,0-0.1,0.2-0.2,0.5c-0.1,0.2-0.2,0.5-0.3,0.7 c-0.2,0.3-0.4,0.6-0.6,0.9c-0.3,0.4-0.8,0.7-1.2,1c-1,0.5-2.1,0.8-3.2,0.7c-1.2-0.1-2.4-0.3-3.5-0.8l1.9,3.2l5.7-0.1l2.7-4.9 L66.8,77z" class="st9"/></g><polygon points="74.4 98.6 65.3 98.8 60.5 90.9 65 82.9 74.2 82.7 78.9 90.6" class="st10"/><path d="M77.1,87.6c-0.1,0.4-0.2,0.8-0.3,1.2c0,0,0,0,0,0c0,0,0,0,0,0c0,0-0.2,0.4-0.3,0.8c-0.1,0.4-0.3,0.8-0.5,1.1 c-0.3,0.5-0.7,1-1,1.4c-0.5,0.6-1.2,1.2-1.9,1.6c-1.6,0.8-3.4,1.3-5.1,1.2c-1.9-0.1-3.9-0.5-5.7-1.3l3.1,5.2l9.2-0.1l4.5-8 L77.1,87.6z" class="st9"/></g><g><g><polygon points="28 25 33.6 25.6 35.9 30.7 32.6 35.3 27 34.8 24.7 29.6" class="st8"/><path d="M25.6,31.6c0.1-0.2,0.2-0.5,0.3-0.7c0,0,0,0,0,0c0,0,0,0,0,0c0,0,0.1-0.2,0.3-0.4c0.1-0.2,0.2-0.5,0.4-0.7 c0.2-0.3,0.5-0.5,0.7-0.8c0.4-0.3,0.8-0.6,1.3-0.8c1-0.4,2.1-0.5,3.2-0.3c1.2,0.2,2.3,0.6,3.4,1.2l-1.5-3.4L28,25l-3.3,4.6 L25.6,31.6z" class="st9"/></g><g><polygon points="22.7 17.1 28.4 17.7 30.7 22.8 27.4 27.4 21.8 26.8 19.4 21.7" class="st8"/><path d="M20.3,23.6c0.1-0.2,0.2-0.5,0.3-0.7c0,0,0,0,0,0c0,0,0,0,0,0c0,0,0.1-0.2,0.3-0.4c0.1-0.2,0.2-0.5,0.4-0.7 c0.2-0.3,0.5-0.5,0.7-0.8c0.4-0.3,0.8-0.6,1.3-0.8c1-0.4,2.1-0.5,3.2-0.3c1.2,0.2,2.3,0.6,3.4,1.2l-1.5-3.4l-5.6-0.6l-3.3,4.6 L20.3,23.6z" class="st9"/></g><polygon points="15.2 1.2 24.4 2.2 28.1 10.5 22.8 18 13.6 17.1 9.9 8.7" class="st10"/><path d="M11.3,11.9c0.1-0.4,0.3-0.8,0.5-1.1c0,0,0,0,0,0c0,0,0,0,0,0c0,0,0.2-0.4,0.4-0.7c0.2-0.3,0.4-0.8,0.6-1.1 c0.3-0.5,0.8-0.9,1.2-1.3c0.6-0.6,1.4-1,2.1-1.3c1.6-0.6,3.5-0.8,5.2-0.5c1.9,0.3,3.8,1,5.5,1.9l-2.5-5.6l-9.1-0.9L9.9,8.7 L11.3,11.9z" class="st9"/></g><g><polygon points="27.7 72.2 33.4 72.3 36.3 67.5 33.5 62.5 27.9 62.4 25 67.3" class="st8"/><path d="M26.1,65.4c0,0.3,0.1,0.5,0.2,0.7c0,0,0,0,0,0c0,0,0,0,0,0c0,0,0.1,0.2,0.2,0.5c0.1,0.2,0.2,0.5,0.3,0.7 c0.2,0.3,0.4,0.6,0.6,0.9c0.3,0.4,0.8,0.7,1.2,1c1,0.5,2.1,0.8,3.2,0.7c1.2-0.1,2.4-0.3,3.5-0.8l-1.9,3.2l-5.7-0.1L25,67.3 L26.1,65.4z" class="st9"/></g><g><polygon points="25.2 81.3 30.9 81.4 33.8 76.5 31 71.6 25.4 71.5 22.5 76.3" class="st8"/><path d="M23.6,74.5c0,0.3,0.1,0.5,0.2,0.7c0,0,0,0,0,0c0,0,0,0,0,0c0,0,0.1,0.2,0.2,0.5c0.1,0.2,0.2,0.5,0.3,0.7 c0.2,0.3,0.4,0.6,0.6,0.9c0.3,0.4,0.8,0.7,1.2,1c1,0.5,2.1,0.8,3.2,0.7c1.2-0.1,2.4-0.3,3.5-0.8l-1.9,3.2l-5.7-0.1l-2.7-4.9 L23.6,74.5z" class="st9"/></g><g><polygon points="33.3 92.9 42.5 93.1 47.2 85.2 42.7 77.2 33.5 77 28.8 84.9" class="st10"/><path d="M30.6,81.9c0.1,0.4,0.2,0.8,0.3,1.2c0,0,0,0,0,0c0,0,0,0,0,0c0,0,0.2,0.4,0.3,0.8c0.1,0.4,0.3,0.8,0.5,1.1 c0.3,0.5,0.7,1,1,1.4c0.5,0.6,1.2,1.2,1.9,1.6c1.6,0.8,3.4,1.3,5.1,1.2c1.9-0.1,3.9-0.5,5.7-1.3l-3.1,5.2l-9.2-0.1l-4.5-8 L30.6,81.9z" class="st9"/></g><g><polygon points="64.7 23.5 59.1 24.1 56.8 29.3 60.1 33.8 65.7 33.3 68 28.1" class="st8"/><path d="M67.2,30.1c-0.1-0.2-0.2-0.5-0.3-0.7c0,0,0,0,0,0c0,0,0,0,0,0c0,0-0.1-0.2-0.3-0.4c-0.1-0.2-0.2-0.5-0.4-0.7 c-0.2-0.3-0.5-0.5-0.7-0.8c-0.4-0.3-0.8-0.6-1.3-0.8c-1-0.4-2.1-0.5-3.2-0.3c-1.2,0.2-2.3,0.6-3.4,1.2l1.5-3.4l5.6-0.6l3.3,4.6 L67.2,30.1z" class="st9"/></g><g><polygon points="73.8 27.1 68.2 27.7 65.9 32.8 69.2 37.4 74.8 36.8 77.1 31.7" class="st8"/><path d="M76.2,33.6c-0.1-0.2-0.2-0.5-0.3-0.7c0,0,0,0,0,0c0,0,0,0,0,0c0,0-0.1-0.2-0.3-0.4c-0.1-0.2-0.2-0.5-0.4-0.7 c-0.2-0.3-0.5-0.5-0.7-0.8c-0.4-0.3-0.8-0.6-1.3-0.8c-1-0.4-2.1-0.5-3.2-0.3c-1.2,0.2-2.3,0.6-3.4,1.2l1.5-3.4l5.6-0.6l3.3,4.6 L76.2,33.6z" class="st9"/></g><g><polygon points="84.8 15.2 75.6 16.1 71.9 24.5 77.2 31.9 86.4 31 90.1 22.6" class="st10"/><path d="M88.7,25.8c-0.1-0.4-0.3-0.8-0.5-1.1c0,0,0,0,0,0c0,0,0,0,0,0c0,0-0.2-0.4-0.4-0.7c-0.2-0.3-0.4-0.8-0.6-1.1 c-0.3-0.5-0.8-0.9-1.2-1.3c-0.6-0.6-1.4-1-2.1-1.3c-1.6-0.6-3.5-0.8-5.2-0.5c-1.9,0.3-3.8,1-5.5,1.9l2.5-5.6l9.1-0.9l5.4,7.4 L88.7,25.8z" class="st9"/></g><g><polygon points="38.8 61.7 30.6 47.5 38.8 33.4 55.1 33.4 63.3 47.5 55.1 61.7" class="st7"/><path d="M36.3,55.7c1.7-3.5,4.2-6.9,7.1-9.6c4.1-3.8,8.8-6.8,14-8.8l-2.2-3.9H38.8l-8.2,14.1l5.2,9.1 C36,56.3,36.1,56,36.3,55.7z" class="st4"/><polygon points="40.2 59.2 33.5 47.5 40.2 35.9 53.7 35.9 60.4 47.5 53.7 59.2" class="st11"/><path d="M50.9,53.6c-1.3,1.2-2.8,2.3-4.3,3c-2.2,1.1-4.5,1.8-6.8,1.9l0.3,0.6h13.5l6.7-11.7l-1.8-3.1 C56.5,47.9,54.1,51.1,50.9,53.6z" class="st1"/><polygon points="45.6 46.1 41.3 47.4 38.1 44.3 39.1 39.9 43.5 38.6 46.7 41.7" class="st6"/></g></g></svg>