<svg xmlns="http://www.w3.org/2000/svg" xmlns:xlink="http://www.w3.org/1999/xlink" id="Layer_1" x="0" y="0" version="1.1" viewBox="0 0 100 100" xml:space="preserve" style="enable-background:new 0 0 100 100"><style type="text/css">.st1,.st4{opacity:.5;fill:#b5a7d2}.st4{fill:#baded4}.st6{fill:#fff}.st7{fill:#baded4}.st12{fill:#b5a7d2}.st13{fill:#e20613}</style><g><g><polygon points="69.5 46.5 60.4 46.5 55.8 38.6 60.4 30.7 69.6 30.7 74.1 38.6" class="st13"/><path d="M72.4,35.6c-0.1,0.4-0.2,0.8-0.3,1.2c0,0,0,0,0,0c0,0,0,0,0,0c0,0-0.2,0.4-0.3,0.7c-0.2,0.4-0.3,0.8-0.5,1.1 c-0.3,0.5-0.7,1-1.1,1.4c-0.5,0.6-1.2,1.1-2,1.5c-1.6,0.8-3.4,1.2-5.1,1.1c-1.9-0.1-3.9-0.6-5.7-1.4l3,5.3l9.1,0l4.6-7.9 L72.4,35.6z" class="st1"/></g><g><polygon points="63.4 62.2 58.1 62.2 55.5 57.6 58.2 53 63.4 53 66.1 57.6" class="st13"/><path d="M65.1,55.9c0,0.2-0.1,0.5-0.2,0.7c0,0,0,0,0,0c0,0,0,0,0,0c0,0-0.1,0.2-0.2,0.4c-0.1,0.2-0.2,0.5-0.3,0.7 c-0.2,0.3-0.4,0.6-0.6,0.8c-0.3,0.4-0.7,0.7-1.1,0.9c-0.9,0.5-1.9,0.7-3,0.6c-1.1-0.1-2.2-0.3-3.3-0.8l1.8,3l5.3,0l2.6-4.6 L65.1,55.9z" class="st1"/></g><g><polygon points="52.3 37.2 47 37.2 44.4 32.6 47 28 52.3 28.1 54.9 32.6" class="st13"/><path d="M53.9,30.9c0,0.2-0.1,0.5-0.2,0.7c0,0,0,0,0,0c0,0,0,0,0,0c0,0-0.1,0.2-0.2,0.4c-0.1,0.2-0.2,0.5-0.3,0.7 c-0.2,0.3-0.4,0.6-0.6,0.8c-0.3,0.4-0.7,0.7-1.1,0.9c-0.9,0.5-1.9,0.7-3,0.6c-1.1-0.1-2.2-0.3-3.3-0.8l1.8,3l5.3,0l2.6-4.6 L53.9,30.9z" class="st1"/></g><g><polygon points="63.7 71 58.4 71 55.8 66.4 58.4 61.9 63.7 61.9 66.3 66.4" class="st13"/><path d="M65.3,64.7c0,0.2-0.1,0.5-0.2,0.7c0,0,0,0,0,0c0,0,0,0,0,0c0,0-0.1,0.2-0.2,0.4c-0.1,0.2-0.2,0.5-0.3,0.7 c-0.2,0.3-0.4,0.6-0.6,0.8c-0.3,0.4-0.7,0.7-1.1,0.9c-0.9,0.5-1.9,0.7-3,0.6c-1.1-0.1-2.2-0.3-3.3-0.8l1.8,3l5.3,0l2.6-4.6 L65.3,64.7z" class="st1"/></g><g><polygon points="63.7 80.2 58.4 80.2 55.8 75.6 58.4 71 63.7 71 66.3 75.6" class="st13"/><path d="M65.3,73.9c0,0.2-0.1,0.5-0.2,0.7c0,0,0,0,0,0c0,0,0,0,0,0c0,0-0.1,0.2-0.2,0.4c-0.1,0.2-0.2,0.5-0.3,0.7 c-0.2,0.3-0.4,0.6-0.6,0.8c-0.3,0.4-0.7,0.7-1.1,0.9c-0.9,0.5-1.9,0.7-3,0.6c-1.1-0.1-2.2-0.3-3.3-0.8l1.8,3l5.3,0l2.6-4.6 L65.3,73.9z" class="st1"/></g><g><polygon points="21.8 67.6 12.7 67.5 8.1 59.6 12.7 51.7 21.8 51.7 26.4 59.7" class="st13"/><path d="M24.7,56.7c-0.1,0.4-0.2,0.8-0.3,1.2c0,0,0,0,0,0c0,0,0,0,0,0c0,0-0.2,0.4-0.3,0.7c-0.2,0.4-0.3,0.8-0.5,1.1 c-0.3,0.5-0.7,1-1.1,1.4c-0.5,0.6-1.2,1.1-2,1.5c-1.6,0.8-3.4,1.2-5.1,1.1c-1.9-0.1-3.9-0.6-5.7-1.4l3,5.3l9.1,0l4.6-7.9 L24.7,56.7z" class="st1"/></g><g><polygon points="8 41.8 2.7 41.8 .1 37.2 2.8 32.6 8 32.6 10.7 37.2" class="st13"/><path d="M9.7,35.5c0,0.2-0.1,0.5-0.2,0.7c0,0,0,0,0,0c0,0,0,0,0,0c0,0-0.1,0.2-0.2,0.4C9.2,36.8,9.1,37,9,37.2 c-0.2,0.3-0.4,0.6-0.6,0.8c-0.3,0.4-0.7,0.7-1.1,0.9c-0.9,0.5-1.9,0.7-3,0.6C3.2,39.5,2,39.2,1,38.7l1.8,3l5.3,0l2.6-4.6L9.7,35.5 z" class="st1"/></g><g><polygon points="8.3 50.6 3 50.6 .3 46 3 41.5 8.3 41.5 10.9 46" class="st13"/><path d="M9.9,44.3c0,0.2-0.1,0.5-0.2,0.7c0,0,0,0,0,0c0,0,0,0,0,0c0,0-0.1,0.2-0.2,0.4c-0.1,0.2-0.2,0.5-0.3,0.7 c-0.2,0.3-0.4,0.6-0.6,0.8c-0.3,0.4-0.7,0.7-1.1,0.9c-0.9,0.5-1.9,0.7-3,0.6c-1.1-0.1-2.2-0.3-3.3-0.8l1.8,3l5.3,0l2.6-4.6 L9.9,44.3z" class="st1"/></g><g><polygon points="8.3 59.8 3 59.8 .4 55.2 3 50.6 8.3 50.6 10.9 55.2" class="st13"/><path d="M9.9,53.5c0,0.2-0.1,0.5-0.2,0.7c0,0,0,0,0,0c0,0,0,0,0,0c0,0-0.1,0.2-0.2,0.4c-0.1,0.2-0.2,0.5-0.3,0.7 C9,55.5,8.8,55.8,8.6,56c-0.3,0.4-0.7,0.7-1.1,0.9c-0.9,0.5-1.9,0.7-3,0.6c-1.1-0.1-2.2-0.3-3.3-0.8l1.8,3l5.3,0l2.6-4.6L9.9,53.5 z" class="st1"/></g><g><polygon points="41.1 63 35.8 63 33.2 58.4 35.8 53.8 41.1 53.8 43.7 58.4" class="st13"/><path d="M42.7,56.7c0,0.2-0.1,0.5-0.2,0.7c0,0,0,0,0,0c0,0,0,0,0,0c0,0-0.1,0.2-0.2,0.4c-0.1,0.2-0.2,0.5-0.3,0.7 c-0.2,0.3-0.4,0.6-0.6,0.8c-0.3,0.4-0.7,0.7-1.1,0.9c-0.9,0.5-1.9,0.7-3,0.6c-1.1-0.1-2.2-0.3-3.3-0.8l1.8,3l5.3,0l2.6-4.6 L42.7,56.7z" class="st1"/></g><g><polygon points="41.3 71.8 36 71.8 33.4 67.2 36.1 62.7 41.3 62.7 44 67.3" class="st13"/><path d="M43,65.5c0,0.2-0.1,0.5-0.2,0.7c0,0,0,0,0,0c0,0,0,0,0,0c0,0-0.1,0.2-0.2,0.4c-0.1,0.2-0.2,0.5-0.3,0.7 c-0.2,0.3-0.4,0.6-0.6,0.8c-0.3,0.4-0.7,0.7-1.1,0.9c-0.9,0.5-1.9,0.7-3,0.6c-1.1-0.1-2.2-0.3-3.3-0.8l1.8,3l5.3,0l2.6-4.6 L43,65.5z" class="st1"/></g><g><polygon points="41.3 81 36 81 33.4 76.4 36.1 71.8 41.3 71.8 44 76.4" class="st13"/><path d="M43,74.7c0,0.2-0.1,0.5-0.2,0.7c0,0,0,0,0,0c0,0,0,0,0,0c0,0-0.1,0.2-0.2,0.4c-0.1,0.2-0.2,0.5-0.3,0.7 c-0.2,0.3-0.4,0.6-0.6,0.8c-0.3,0.4-0.7,0.7-1.1,0.9c-0.9,0.5-1.9,0.7-3,0.6c-1.1-0.1-2.2-0.3-3.3-0.8l1.8,3l5.3,0l2.6-4.6 L43,74.7z" class="st1"/></g><g><polygon points="87.8 67.1 78.7 67.1 74.1 59.1 78.7 51.2 87.8 51.3 92.4 59.2" class="st13"/><path d="M90.6,56.2c-0.1,0.4-0.2,0.8-0.3,1.2c0,0,0,0,0,0c0,0,0,0,0,0c0,0-0.2,0.4-0.3,0.7c-0.2,0.4-0.3,0.8-0.5,1.1 c-0.3,0.5-0.7,1-1.1,1.4c-0.5,0.6-1.2,1.1-2,1.5c-1.6,0.8-3.4,1.2-5.1,1.1c-1.9-0.1-3.9-0.6-5.7-1.4l3,5.3l9.1,0l4.6-7.9 L90.6,56.2z" class="st1"/></g><g><polygon points="97 40.9 91.7 40.9 89.1 36.3 91.7 31.8 97 31.8 99.6 36.4" class="st13"/><path d="M98.6,34.6c0,0.2-0.1,0.5-0.2,0.7c0,0,0,0,0,0c0,0,0,0,0,0c0,0-0.1,0.2-0.2,0.4c-0.1,0.2-0.2,0.5-0.3,0.7 c-0.2,0.3-0.4,0.6-0.6,0.8c-0.3,0.4-0.7,0.7-1.1,0.9c-0.9,0.5-1.9,0.7-3,0.6c-1.1-0.1-2.2-0.3-3.3-0.8l1.8,3l5.3,0l2.6-4.6 L98.6,34.6z" class="st1"/></g><g><polygon points="97.2 49.8 92 49.8 89.3 45.2 92 40.6 97.3 40.6 99.9 45.2" class="st13"/><path d="M98.9,43.5c0,0.2-0.1,0.5-0.2,0.7c0,0,0,0,0,0c0,0,0,0,0,0c0,0-0.1,0.2-0.2,0.4c-0.1,0.2-0.2,0.5-0.3,0.7 c-0.2,0.3-0.4,0.6-0.6,0.8c-0.3,0.4-0.7,0.7-1.1,0.9c-0.9,0.5-1.9,0.7-3,0.6c-1.1-0.1-2.2-0.3-3.3-0.8l1.8,3l5.3,0l2.6-4.6 L98.9,43.5z" class="st1"/></g><g><polygon points="97.2 58.9 92 58.9 89.3 54.3 92 49.8 97.3 49.8 99.9 54.4" class="st13"/><path d="M98.9,52.6c0,0.2-0.1,0.5-0.2,0.7c0,0,0,0,0,0c0,0,0,0,0,0c0,0-0.1,0.2-0.2,0.4c-0.1,0.2-0.2,0.5-0.3,0.7 c-0.2,0.3-0.4,0.6-0.6,0.8c-0.3,0.4-0.7,0.7-1.1,0.9c-0.9,0.5-1.9,0.7-3,0.6c-1.1-0.1-2.2-0.3-3.3-0.8l1.8,3l5.3,0l2.6-4.6 L98.9,52.6z" class="st1"/></g><g><polygon points="38.5 46.5 29.4 46.5 24.9 38.6 29.4 30.7 38.6 30.7 43.1 38.6" class="st13"/><path d="M41.4,35.6c-0.1,0.4-0.2,0.8-0.3,1.2c0,0,0,0,0,0c0,0,0,0,0,0c0,0-0.2,0.4-0.3,0.7c-0.2,0.4-0.3,0.8-0.5,1.1 c-0.3,0.5-0.7,1-1.1,1.4c-0.5,0.6-1.2,1.1-2,1.5c-1.6,0.8-3.4,1.2-5.1,1.1c-1.9-0.1-3.9-0.6-5.7-1.4l3,5.3l9.1,0l4.6-7.9 L41.4,35.6z" class="st1"/></g><g><polygon points="55.9 58.1 43.7 58.2 37.5 47.8 43.4 37.2 55.6 37 61.8 47.5" class="st13"/><path d="M59.5,43.5c-0.1,0.5-0.2,1.1-0.4,1.6c0,0,0,0,0,0c0,0,0,0,0,0c0,0-0.2,0.5-0.4,1c-0.2,0.5-0.4,1.1-0.7,1.5 c-0.4,0.7-0.9,1.3-1.4,1.9c-0.7,0.8-1.6,1.5-2.6,2.1c-2.1,1.1-4.5,1.6-6.8,1.5c-2.5-0.1-5.2-0.7-7.6-1.7l4.1,7l12.2-0.1l6-10.6 L59.5,43.5z" class="st1"/></g><g><polygon points="24.2 40.1 12.1 40.2 5.9 29.7 11.8 19.1 24 19 30.2 29.5" class="st13"/><path d="M27.9,25.5c-0.1,0.5-0.2,1.1-0.4,1.6c0,0,0,0,0,0c0,0,0,0,0,0c0,0-0.2,0.5-0.4,1c-0.2,0.5-0.4,1.1-0.7,1.5 c-0.4,0.7-0.9,1.3-1.4,1.9c-0.7,0.8-1.6,1.5-2.6,2.1c-2.1,1.1-4.5,1.6-6.8,1.5c-2.5-0.1-5.2-0.7-7.6-1.7l4.1,7l12.2-0.1l6-10.6 L27.9,25.5z" class="st1"/></g><g><polygon points="87 40.1 74.8 40.2 68.6 29.8 74.5 19.2 86.7 19 92.9 29.5" class="st13"/><path d="M90.6,25.5c-0.1,0.5-0.2,1.1-0.4,1.6c0,0,0,0,0,0c0,0,0,0,0,0c0,0-0.2,0.5-0.4,1c-0.2,0.5-0.4,1.1-0.7,1.5 c-0.4,0.7-0.9,1.3-1.4,1.9C86.9,32.3,86,33,85,33.5c-2.1,1.1-4.5,1.6-6.8,1.5c-2.5-0.1-5.2-0.7-7.6-1.7l4.1,7L87,40.1l6-10.6 L90.6,25.5z" class="st1"/></g><g><polygon points="47.1 35.6 45.8 31.9 48.4 28.9 52.2 29.7 53.5 33.3 50.9 36.3" class="st7"/><path d="M46.8,34.1c0.6-0.8,1.3-1.4,2.1-2c1.1-0.7,2.4-1.2,3.7-1.5l-0.4-1l-3.8-0.7l-2.5,3l0.8,2.4 C46.7,34.2,46.7,34.1,46.8,34.1z" class="st4"/><polygon points="47.6 35.1 46.5 32 48.6 29.6 51.7 30.2 52.8 33.2 50.7 35.7" class="st12"/><path d="M50.3,34.2c-0.4,0.2-0.7,0.4-1.1,0.5c-0.6,0.2-1.1,0.2-1.7,0.2l0.1,0.2l3.2,0.6l2.1-2.4l-0.3-0.8 C51.9,33.1,51.2,33.8,50.3,34.2z" class="st1"/><polygon points="49.4 32.2 48.3 32.3 47.7 31.5 48.2 30.5 49.2 30.4 49.8 31.3" class="st6"/></g></g></svg>