<svg xmlns="http://www.w3.org/2000/svg" xmlns:xlink="http://www.w3.org/1999/xlink" id="Layer_1" x="0" y="0" version="1.1" viewBox="0 0 100 100" xml:space="preserve" style="enable-background:new 0 0 100 100"><style type="text/css">.st0{fill:#2dab66}.st1{opacity:.5;fill:#b5a7d2}.st2{fill:#008d36}.st3{fill:#e3de00}.st4{opacity:.5;fill:#baded4}.st5{fill:#dd7796}.st6{fill:#fff}</style><g><g><polygon points="56.3 99.3 45.9 99.5 40.6 90.5 45.6 81.5 56 81.3 61.4 90.2" class="st0"/><path d="M59.3,86.8c-0.1,0.5-0.2,0.9-0.4,1.3c0,0,0,0,0,0c0,0,0,0,0,0c0,0-0.2,0.5-0.4,0.9c-0.2,0.4-0.4,0.9-0.6,1.3 c-0.3,0.6-0.8,1.1-1.2,1.6c-0.6,0.7-1.4,1.3-2.2,1.8c-1.8,0.9-3.8,1.4-5.8,1.3c-2.2-0.1-4.4-0.6-6.5-1.5l3.6,5.9l10.4-0.2l5.1-9.1 L59.3,86.8z" class="st1"/></g><g><polygon points="55.7 63.9 45.3 64.1 39.9 55.1 45 46.1 55.4 45.9 60.7 54.8" class="st0"/><path d="M58.7,51.4c-0.1,0.5-0.2,0.9-0.4,1.3c0,0,0,0,0,0c0,0,0,0,0,0c0,0-0.2,0.5-0.4,0.9c-0.2,0.4-0.4,0.9-0.6,1.3 c-0.3,0.6-0.8,1.1-1.2,1.6c-0.6,0.7-1.4,1.3-2.2,1.8c-1.8,0.9-3.8,1.4-5.8,1.3c-2.2-0.1-4.4-0.6-6.5-1.5l3.6,5.9l10.4-0.2l5.1-9.1 L58.7,51.4z" class="st1"/></g><g><polygon points="55.7 28.2 45.3 28.4 39.9 19.5 45 10.4 55.4 10.2 60.7 19.1" class="st0"/><path d="M58.7,15.7c-0.1,0.5-0.2,0.9-0.4,1.3c0,0,0,0,0,0c0,0,0,0,0,0c0,0-0.2,0.5-0.4,0.9c-0.2,0.4-0.4,0.9-0.6,1.3 c-0.3,0.6-0.8,1.1-1.2,1.6c-0.6,0.7-1.4,1.3-2.2,1.8c-1.8,0.9-3.8,1.4-5.8,1.3c-2.2-0.1-4.4-0.6-6.5-1.5l3.6,5.9l10.4-0.2l5.1-9.1 L58.7,15.7z" class="st1"/></g><g><polygon points="41.1 17.5 35.6 17.6 32.8 12.9 35.5 8.1 40.9 8.1 43.7 12.7" class="st2"/><path d="M42.6,11c0,0.2-0.1,0.5-0.2,0.7c0,0,0,0,0,0c0,0,0,0,0,0c0,0-0.1,0.2-0.2,0.5c-0.1,0.2-0.2,0.5-0.3,0.7 c-0.2,0.3-0.4,0.6-0.6,0.8c-0.3,0.4-0.7,0.7-1.2,0.9c-0.9,0.5-2,0.7-3,0.7c-1.1-0.1-2.3-0.3-3.4-0.8l1.9,3.1l5.4-0.1l2.6-4.8 L42.6,11z" class="st1"/></g><g><polygon points="64.7 16.9 59.2 17 56.4 12.3 59.1 7.5 64.5 7.5 67.3 12.1" class="st2"/><path d="M66.2,10.4c0,0.2-0.1,0.5-0.2,0.7c0,0,0,0,0,0c0,0,0,0,0,0c0,0-0.1,0.2-0.2,0.5c-0.1,0.2-0.2,0.5-0.3,0.7 c-0.2,0.3-0.4,0.6-0.6,0.8c-0.3,0.4-0.7,0.7-1.2,0.9c-0.9,0.5-2,0.7-3,0.7c-1.1-0.1-2.3-0.3-3.4-0.8l1.9,3.1l5.4-0.1l2.6-4.8 L66.2,10.4z" class="st1"/></g><g><polygon points="67.7 13.2 64.1 6.9 67.7 .5 75 .5 78.7 6.9 75 13.2" class="st3"/><path d="M66.6,10.6c0.8-1.6,1.9-3.1,3.2-4.3c1.8-1.7,4-3,6.3-4l-1-1.7h-7.3l-3.7,6.3l2.4,4.1 C66.5,10.8,66.5,10.7,66.6,10.6z" class="st4"/><polygon points="68.4 12.1 65.3 6.9 68.4 1.7 74.4 1.7 77.4 6.9 74.4 12.1" class="st5"/><path d="M73.2,9.6c-0.6,0.6-1.2,1-1.9,1.4c-1,0.5-2,0.8-3,0.9l0.2,0.3h6l3-5.2l-0.8-1.4C75.7,7,74.6,8.5,73.2,9.6z" class="st1"/><polygon points="70.8 6.2 68.9 6.8 67.4 5.4 67.9 3.5 69.8 2.9 71.3 4.3" class="st6"/></g><g><polygon points="25 13.8 21.3 7.5 25 1.1 32.3 1.1 35.9 7.5 32.3 13.8" class="st3"/><path d="M23.8,11.1C24.6,9.5,25.7,8,27,6.8c1.8-1.7,4-3,6.3-4l-1-1.7H25l-3.7,6.3l2.4,4.1 C23.7,11.4,23.8,11.3,23.8,11.1z" class="st4"/><polygon points="25.6 12.7 22.6 7.5 25.6 2.2 31.6 2.2 34.7 7.5 31.6 12.7" class="st5"/><path d="M30.4,10.2c-0.6,0.6-1.2,1-1.9,1.4c-1,0.5-2,0.8-3,0.9l0.2,0.3h6l3-5.2L33.8,6C32.9,7.6,31.8,9.1,30.4,10.2z" class="st1"/><polygon points="28 6.8 26.1 7.4 24.6 6 25.1 4 27.1 3.5 28.5 4.9" class="st6"/></g><g><polygon points="51.4 46.2 41 46.4 35.6 37.5 40.7 28.4 51.1 28.2 56.4 37.1" class="st2"/><path d="M54.4,33.7c-0.1,0.5-0.2,0.9-0.4,1.3c0,0,0,0,0,0c0,0,0,0,0,0c0,0-0.2,0.5-0.4,0.9c-0.2,0.4-0.4,0.9-0.6,1.3 c-0.3,0.6-0.8,1.1-1.2,1.6c-0.6,0.7-1.4,1.3-2.2,1.8c-1.8,0.9-3.8,1.4-5.8,1.3c-2.2-0.1-4.4-0.6-6.5-1.5l3.6,5.9l10.4-0.2l5.1-9.1 L54.4,33.7z" class="st1"/><polygon points="52 81.6 41.6 81.8 36.2 72.8 41.3 63.7 51.7 63.6 57 72.5" class="st2"/><path d="M55,69.1c-0.1,0.5-0.2,0.9-0.4,1.3c0,0,0,0,0,0c0,0,0,0,0,0c0,0-0.2,0.5-0.4,0.9c-0.2,0.4-0.4,0.9-0.6,1.3 c-0.3,0.6-0.8,1.1-1.2,1.6c-0.6,0.7-1.4,1.3-2.2,1.8c-1.8,0.9-3.8,1.4-5.8,1.3c-2.2-0.1-4.4-0.6-6.5-1.5l3.6,5.9L52,81.6l5.1-9.1 L55,69.1z" class="st1"/></g></g></svg>