<svg xmlns="http://www.w3.org/2000/svg" xmlns:xlink="http://www.w3.org/1999/xlink" id="Layer_1" x="0" y="0" version="1.1" viewBox="0 0 100 100" xml:space="preserve" style="enable-background:new 0 0 100 100"><style type="text/css">.st1,.st4{opacity:.5;fill:#b5a7d2}.st4{fill:#baded4}.st6{fill:#fff}.st7{fill:#baded4}.st12{fill:#b5a7d2}.st14{fill:#f8b133}</style><g><g><g><polygon points="54.2 33.3 45.3 35.9 38.6 29.5 40.8 20.5 49.7 17.9 56.4 24.3" class="st7"/><path d="M53.8,21.8c0,0.4,0,0.8,0,1.2c0,0,0,0,0,0c0,0,0,0,0,0c0,0-0.1,0.4-0.1,0.8c0,0.4-0.1,0.9-0.2,1.2 c-0.1,0.6-0.4,1.1-0.6,1.7c-0.3,0.7-0.9,1.5-1.5,2c-1.3,1.2-2.9,2.1-4.7,2.5c-1.9,0.4-3.9,0.5-5.9,0.3l4.5,4.3l8.9-2.6l2.2-9 L53.8,21.8z" class="st4"/></g><g><polygon points="67.5 46.3 58.6 48.9 51.9 42.4 54.1 33.4 63 30.8 69.7 37.2" class="st7"/><path d="M67.2,34.8c0,0.4,0,0.8,0,1.2c0,0,0,0,0,0c0,0,0,0,0,0c0,0-0.1,0.4-0.1,0.8c0,0.4-0.1,0.9-0.2,1.2 c-0.1,0.6-0.4,1.1-0.6,1.7c-0.3,0.7-0.9,1.5-1.5,2c-1.3,1.2-2.9,2.1-4.7,2.5c-1.9,0.4-3.9,0.5-5.9,0.3l4.5,4.3l8.9-2.6l2.2-9 L67.2,34.8z" class="st4"/></g><g><polygon points="36.4 38.1 27.5 40.7 20.8 34.3 22.9 25.3 31.9 22.7 38.6 29.1" class="st7"/><path d="M36,26.7c0,0.4,0,0.8,0,1.2c0,0,0,0,0,0c0,0,0,0,0,0c0,0-0.1,0.4-0.1,0.8c0,0.4-0.1,0.9-0.2,1.2 c-0.1,0.6-0.4,1.1-0.6,1.7c-0.3,0.7-0.9,1.5-1.5,2c-1.3,1.2-2.9,2.1-4.7,2.5C27,36.6,25,36.7,23,36.5l4.5,4.3l8.9-2.6l2.2-9 L36,26.7z" class="st4"/></g><g><polygon points="63.1 64.3 54.2 66.9 47.5 60.5 49.7 51.5 58.6 48.9 65.3 55.3" class="st7"/><path d="M62.7,52.8c0,0.4,0,0.8,0,1.2c0,0,0,0,0,0c0,0,0,0,0,0c0,0-0.1,0.4-0.1,0.8c0,0.4-0.1,0.9-0.2,1.2 c-0.1,0.6-0.4,1.1-0.6,1.7c-0.3,0.7-0.9,1.5-1.5,2c-1.3,1.2-2.9,2.1-4.7,2.5c-1.9,0.4-3.9,0.5-5.9,0.3l4.5,4.3l8.9-2.6l2.2-9 L62.7,52.8z" class="st4"/></g><g><polygon points="45.3 69.1 36.4 71.7 29.7 65.3 31.9 56.3 40.8 53.7 47.5 60.1" class="st7"/><path d="M44.9,57.7c0,0.4,0,0.8,0,1.2c0,0,0,0,0,0c0,0,0,0,0,0c0,0-0.1,0.4-0.1,0.8c0,0.4-0.1,0.9-0.2,1.2 c-0.1,0.6-0.4,1.1-0.6,1.7c-0.3,0.7-0.9,1.5-1.5,2c-1.3,1.2-2.9,2.1-4.7,2.5c-1.9,0.4-3.9,0.5-5.9,0.3l4.5,4.3l8.9-2.6l2.2-9 L44.9,57.7z" class="st4"/></g><g><polygon points="31.9 56.1 23 58.7 16.3 52.3 18.5 43.3 27.4 40.7 34.1 47.1" class="st7"/><path d="M31.5,44.7c0,0.4,0,0.8,0,1.2c0,0,0,0,0,0c0,0,0,0,0,0c0,0-0.1,0.4-0.1,0.8c0,0.4-0.1,0.9-0.2,1.2 c-0.1,0.6-0.4,1.1-0.6,1.7c-0.3,0.7-0.9,1.5-1.5,2c-1.3,1.2-2.9,2.1-4.7,2.5c-1.9,0.4-3.9,0.5-5.9,0.3l4.5,4.3l8.9-2.6l2.2-9 L31.5,44.7z" class="st4"/></g></g><g><polygon points="31.3 52.5 28 46.8 31.3 41.2 37.8 41.2 41.1 46.8 37.8 52.5" class="st7"/><path d="M30.3,50.1c0.7-1.4,1.7-2.8,2.8-3.9c1.6-1.5,3.5-2.7,5.6-3.5l-0.9-1.5h-6.5L28,46.8l2.1,3.6 C30.2,50.3,30.2,50.2,30.3,50.1z" class="st4"/><polygon points="31.9 51.5 29.2 46.8 31.9 42.2 37.3 42.2 40 46.8 37.3 51.5" class="st12"/><path d="M36.2,49.3c-0.5,0.5-1.1,0.9-1.7,1.2c-0.9,0.4-1.8,0.7-2.7,0.8l0.1,0.2h5.4l2.7-4.7l-0.7-1.3 C38.4,47,37.4,48.3,36.2,49.3z" class="st1"/><polygon points="34 46.3 32.3 46.8 31 45.5 31.4 43.8 33.2 43.3 34.5 44.5" class="st6"/></g><g><polygon points="48.2 48.2 44.9 42.6 48.2 36.9 54.7 36.9 58 42.6 54.7 48.2" class="st7"/><path d="M47.2,45.8c0.7-1.4,1.7-2.8,2.8-3.9c1.6-1.5,3.5-2.7,5.6-3.5l-0.9-1.5h-6.5l-3.3,5.7l2.1,3.6 C47.1,46.1,47.1,46,47.2,45.8z" class="st4"/><polygon points="48.8 47.2 46.1 42.6 48.8 37.9 54.1 37.9 56.8 42.6 54.1 47.2" class="st12"/><path d="M53.1,45c-0.5,0.5-1.1,0.9-1.7,1.2c-0.9,0.4-1.8,0.7-2.7,0.8l0.1,0.2h5.4l2.7-4.7l-0.7-1.3 C55.3,42.7,54.3,44,53.1,45z" class="st1"/><polygon points="50.9 42 49.2 42.5 47.9 41.3 48.3 39.5 50.1 39 51.4 40.3" class="st6"/></g><g><g><polygon points="43.7 50.1 39.4 48.1 38.9 43.4 42.7 40.5 47.1 42.5 47.6 47.2" class="st14"/><path d="M47.4,45.4c-0.1,0.2-0.3,0.3-0.4,0.5c0,0,0,0,0,0c0,0,0,0,0,0c0,0-0.2,0.2-0.3,0.3c-0.1,0.1-0.3,0.3-0.5,0.4 c-0.2,0.2-0.5,0.3-0.8,0.4c-0.4,0.2-0.8,0.3-1.3,0.3c-0.9,0.1-1.9-0.1-2.7-0.6c-0.9-0.5-1.7-1.1-2.4-1.9l0.3,3.2l4.4,1.9l3.9-2.8 L47.4,45.4z" class="st1"/></g><g><polygon points="8.2 14.1 3.3 9.5 4.8 3 11.2 1 16.1 5.6 14.6 12.1" class="st14"/><path d="M15.2,9.7c-0.2,0.2-0.5,0.3-0.8,0.5c0,0,0,0,0,0c0,0,0,0,0,0c0,0-0.3,0.1-0.6,0.2c-0.3,0.1-0.6,0.3-0.8,0.3 c-0.4,0.1-0.8,0.2-1.3,0.2c-0.6,0.1-1.2,0-1.8-0.2c-1.2-0.4-2.4-1-3.3-2c-1-1-1.8-2.2-2.4-3.6l-1,4.3l4.9,4.6l6.4-2L15.2,9.7z" class="st1"/><polygon points="11.5 25.3 6.6 20.7 8.1 14.2 14.5 12.2 19.4 16.8 17.9 23.4" class="st14"/><path d="M18.5,20.9c-0.2,0.2-0.5,0.3-0.8,0.5c0,0,0,0,0,0c0,0,0,0,0,0c0,0-0.3,0.1-0.6,0.2c-0.3,0.1-0.6,0.3-0.8,0.3 c-0.4,0.1-0.8,0.2-1.3,0.2c-0.6,0.1-1.2,0-1.8-0.2c-1.2-0.4-2.4-1-3.3-2c-1-1-1.8-2.2-2.4-3.6l-1,4.3l4.9,4.6l6.4-2L18.5,20.9z" class="st1"/><polygon points="14.8 36.4 9.9 31.9 11.4 25.3 17.8 23.4 22.7 27.9 21.2 34.5" class="st14"/><path d="M21.8,32c-0.2,0.2-0.5,0.3-0.8,0.5c0,0,0,0,0,0c0,0,0,0,0,0c0,0-0.3,0.1-0.6,0.2c-0.3,0.1-0.6,0.3-0.8,0.3 c-0.4,0.1-0.8,0.2-1.3,0.2c-0.6,0.1-1.2,0-1.8-0.2c-1.2-0.4-2.4-1-3.3-2c-1-1-1.8-2.2-2.4-3.6l-1,4.3l4.9,4.6l6.4-2L21.8,32z" class="st1"/></g><g><polygon points="89.6 38.9 84.3 34.8 85.2 28.2 91.4 25.6 96.7 29.7 95.8 36.4" class="st14"/><path d="M96.1,33.9c-0.2,0.2-0.5,0.4-0.7,0.5c0,0,0,0,0,0c0,0,0,0,0,0c0,0-0.3,0.1-0.5,0.3c-0.2,0.1-0.5,0.3-0.8,0.4 c-0.4,0.2-0.8,0.2-1.2,0.3c-0.6,0.1-1.2,0.1-1.8,0c-1.3-0.2-2.5-0.8-3.5-1.7c-1-0.9-2-2.1-2.7-3.3l-0.6,4.4l5.3,4.1l6.2-2.5 L96.1,33.9z" class="st1"/><polygon points="78.5 37.2 73.2 33.1 74.1 26.4 80.3 23.9 85.6 28 84.7 34.7" class="st14"/><path d="M85.1,32.1c-0.2,0.2-0.5,0.4-0.7,0.5c0,0,0,0,0,0c0,0,0,0,0,0c0,0-0.3,0.1-0.5,0.3c-0.2,0.1-0.5,0.3-0.8,0.4 c-0.4,0.2-0.8,0.2-1.2,0.3c-0.6,0.1-1.2,0.1-1.8,0c-1.3-0.2-2.5-0.8-3.5-1.7c-1-0.9-2-2.1-2.7-3.3l-0.6,4.4l5.3,4.1l6.2-2.5 L85.1,32.1z" class="st1"/><polygon points="67.3 35.4 62 31.2 62.9 24.6 69.1 22.1 74.4 26.2 73.5 32.8" class="st14"/><path d="M73.9,30.3c-0.2,0.2-0.5,0.4-0.7,0.5c0,0,0,0,0,0c0,0,0,0,0,0c0,0-0.3,0.1-0.5,0.3c-0.2,0.1-0.5,0.3-0.8,0.4 c-0.4,0.2-0.8,0.2-1.2,0.3c-0.6,0.1-1.2,0.1-1.8,0c-1.3-0.2-2.5-0.8-3.5-1.7c-1-0.9-2-2.1-2.7-3.3L62,31.2l5.3,4.1l6.2-2.5 L73.9,30.3z" class="st1"/></g><g><polygon points="27 99 22 94.5 23.4 87.9 29.8 85.8 34.8 90.3 33.4 96.9" class="st14"/><path d="M33.9,94.4c-0.2,0.2-0.5,0.3-0.8,0.5c0,0,0,0,0,0c0,0,0,0,0,0c0,0-0.3,0.1-0.6,0.2c-0.3,0.1-0.6,0.3-0.8,0.4 c-0.4,0.1-0.8,0.2-1.3,0.2c-0.6,0.1-1.2,0-1.8-0.1c-1.2-0.3-2.4-1-3.3-1.9c-1-1-1.8-2.2-2.4-3.5L22,94.5l5,4.5l6.4-2.1L33.9,94.4 z" class="st1"/><polygon points="34.6 90.5 29.6 86 31 79.4 37.4 77.3 42.4 81.8 41 88.4" class="st14"/><path d="M41.5,85.9c-0.2,0.2-0.5,0.3-0.8,0.5c0,0,0,0,0,0c0,0,0,0,0,0c0,0-0.3,0.1-0.6,0.2c-0.3,0.1-0.6,0.3-0.8,0.4 c-0.4,0.1-0.8,0.2-1.3,0.2c-0.6,0.1-1.2,0-1.8-0.1c-1.2-0.3-2.4-1-3.3-1.9c-1-1-1.8-2.2-2.4-3.5L29.6,86l5,4.5l6.4-2.1L41.5,85.9 z" class="st1"/><polygon points="42.3 82 37.3 77.5 38.7 70.9 45.1 68.9 50 73.3 48.7 79.9" class="st14"/><path d="M49.2,77.4c-0.2,0.2-0.5,0.3-0.8,0.5c0,0,0,0,0,0c0,0,0,0,0,0c0,0-0.3,0.1-0.6,0.2c-0.3,0.1-0.6,0.3-0.8,0.4 c-0.4,0.1-0.8,0.2-1.3,0.2c-0.6,0.1-1.2,0-1.8-0.1c-1.2-0.3-2.4-1-3.3-1.9c-1-1-1.8-2.2-2.4-3.5l-0.9,4.4l5,4.5l6.4-2.1 L49.2,77.4z" class="st1"/></g></g></g></svg>