<svg xmlns="http://www.w3.org/2000/svg" viewBox="0 0 88.89 86.28"><defs><style>.cls-1{fill:#f2ac6a;}.cls-2{fill:#df9e62;}.cls-3{fill:#4a4d4a;}.cls-4{fill:#5d5c58;}.cls-5{fill:#916740;}.cls-6{fill:#fff;}.cls-7{fill:#825c39;}.cls-8{fill:#f5bc88;}.cls-9{fill:#ce925b;}</style></defs><title>sjudokaAsset 2</title><g id="Layer_2" data-name="Layer 2"><g id="Layer_1-2" data-name="Layer 1"><circle class="cls-1" cx="44.11" cy="46.61" r="39.67"/><path class="cls-2" d="M83.71,46.5c0,.14,0,.28,0,.41a39.06,39.06,0,0,1-3.94,16.81l0,0c-7-12.68-21.92-15.49-35.67-20.28-11.41-4-24.12-17.3-30.23-24.32L13.7,19l.21-.27a1.73,1.73,0,0,1,.28-.27l.33-.25c22.43-16.73,46.24-12,59.69,2.54A39.42,39.42,0,0,1,83.71,46.5Z"/><path class="cls-3" d="M8.85,18.72C7.46,20.12-5.06,33.3,2.3,51.09a1.28,1.28,0,0,0,2,.51C7.61,48.79,16,41.11,16.78,35.65s3.76-15.21,5-19A1.27,1.27,0,0,0,20.52,15,24,24,0,0,0,9.13,18.51,1.33,1.33,0,0,0,8.85,18.72Z"/><path class="cls-4" d="M77.65,14.92A44.48,44.48,0,0,0,9.89,16.42a1,1,0,0,0,.21.29c4.22,4.31,21.32,21,35.36,24.57C60.58,45,76.86,46.48,84.41,61a1.25,1.25,0,0,0,1.05.69,42.62,42.62,0,0,0,2.11-6.38,44.52,44.52,0,0,0-9.92-40.34Z"/><path class="cls-5" d="M30.11,52.9c0,2.22-1.79,2.38-4,2.38s-4-.16-4-2.38a4,4,0,1,1,8,0Z"/><path class="cls-5" d="M66.12,52.9c0,2.22-1.79,2.38-4,2.38s-4-.16-4-2.38a4,4,0,1,1,8,0Z"/><path class="cls-5" d="M60,60.92a15.52,15.52,0,0,1-31,0,1,1,0,0,1,.64-1,.33.33,0,0,1,.14,0,71.79,71.79,0,0,1,29-.08l.4.08A1,1,0,0,1,60,60.92Z"/><path class="cls-6" d="M58.79,59.82l-1,2.41a66.33,66.33,0,0,1-13.61,1.29,66.3,66.3,0,0,1-13.6-1.29l-1-2.29.14,0A71.8,71.8,0,0,1,58.79,59.82Z"/><path class="cls-7" d="M52.8,73.16a15.52,15.52,0,0,1-16.68,0c1.77-1.38,4.84-2.29,8.34-2.29S51,71.78,52.8,73.16Z"/><circle class="cls-8" cx="20.6" cy="57.62" r="1.36"/><circle class="cls-8" cx="67.62" cy="57.62" r="1.36"/><path class="cls-9" d="M37.52,76.7s.17.1.51.26a15.45,15.45,0,0,0,1.43.6,16.54,16.54,0,0,0,2.12.61c.39.09.81.14,1.22.21s.85.1,1.28.1a9.9,9.9,0,0,0,1.28,0l.62,0,.6-.11.58-.11.54-.16a5.6,5.6,0,0,0,1-.35c.29-.13.57-.24.8-.36l.58-.35.51-.3,0,0a.45.45,0,0,1,.48.76l-.54.36-.62.41c-.25.14-.54.28-.86.44A6.44,6.44,0,0,1,48,79l-.59.21-.63.15-.66.15-.68.09a11.08,11.08,0,0,1-1.4.1c-.47,0-.94,0-1.4,0s-.91-.09-1.35-.17A18,18,0,0,1,39,79a17,17,0,0,1-1.61-.58c-.38-.16-.62-.28-.61-.27a.81.81,0,0,1,.75-1.44Z"/></g></g></svg>