<svg xmlns="http://www.w3.org/2000/svg" xmlns:xlink="http://www.w3.org/1999/xlink" width="49" height="58" version="1.1" viewBox="0 0 49 58"><title>Group 47 Copy 16</title><desc>Created with Sketch.</desc><defs><rect id="path-1" width="58.821" height="61" x="0" y="0"/><polygon id="path-3" points="0 78.582 47.627 78.582 47.627 .282 0 .282"/><polygon id="path-5" points="0 .011 3.092 .011 3.092 7.881 0 7.881"/><polygon id="path-7" points=".182 .281 15.655 .281 15.655 3.42 .182 3.42"/><path id="path-9" d="M0.0736020351,22.1600097 C0.0736020351,23.960882 0.289781727,25.7104352 0.694803211,27.3842928 C0.694803211,27.3842928 0.704056039,27.4236375 0.722561693,27.4980501 C0.861774685,28.0621324 1.02201683,28.6176616 1.20412929,29.1633545 C2.22109913,32.3254656 4.90483962,39.0876108 10.514997,44.3469619 C10.6163575,44.4414746 10.7496824,44.493649 10.887213,44.493649 L32.1338074,44.493649 C32.2717586,44.493649 32.4050834,44.4414746 32.5060234,44.3469619 C38.1166014,39.0876108 40.8007624,32.3254656 41.8173117,29.1633545 C41.9990036,28.6176616 42.1600869,28.0621324 42.2992999,27.4980501 C42.3178055,27.4236375 42.3262172,27.3842928 42.3262172,27.3842928 C42.7808675,25.5047312 42.9978883,23.530657 42.9381655,21.4949999 C42.5974933,9.95889661 33.3556011,0.629941801 22.0086908,0.368214454 C21.8429811,0.364365522 21.675589,0.362654886 21.5107205,0.362227227 C9.67046625,0.361371909 0.0736020351,10.1209794 0.0736020351,22.1600097 Z"/><polygon id="path-11" points="0 78.582 47.627 78.582 47.627 .282 0 .282"/></defs><g id="KanoCode-GuideSy-1" fill="none" fill-rule="evenodd" stroke="none" stroke-width="1"><g id="KanoCode-Basic-Copy-4" transform="translate(-429.000000, -539.000000)"><g id="Group-14" transform="translate(417.000000, 536.000000)"><g id="Group-17-Copy"><g id="Group-47-Copy-16" transform="translate(6.000000, 0.000000)"><mask id="mask-2" fill="#fff"><use xlink:href="#path-1"/></mask><g id="Group-207" mask="url(#mask-2)"><g transform="translate(6.535714, 3.267857)"><g id="Group-34"><polygon id="Fill-5" fill="#31333A" points="39.121 62.081 33.288 55.465 36.933 52.135 42.766 58.751"/><path id="Fill-9" fill="#53565D" d="M34.7025337,50.7568599 L37.595638,50.7568599 C37.9769458,50.7568599 38.2399168,51.1454539 38.104614,51.5081417 L35.6254768,58.1332386 L34.7025337,50.7568599 Z"/><polygon id="Fill-19" fill="#31333A" points="8.375 62.081 14.208 55.465 10.563 52.135 4.73 58.751"/><path id="Fill-23" fill="#53565D" d="M12.7931113,50.7568599 L9.90000695,50.7568599 C9.51869912,50.7568599 9.25572819,51.1454539 9.39103097,51.5081417 L11.8701681,58.1332386 L12.7931113,50.7568599 Z"/><mask id="mask-4" fill="#fff"><use xlink:href="#path-3"/></mask><polygon id="Fill-29" fill="#31333A" points="15.227 48.984 32.268 48.984 32.268 47.228 15.227 47.228" mask="url(#mask-4)"/><path id="Fill-31" fill="#40434B" d="M36.3986961,70.3603073 L11.0966519,70.3603073 C10.6869262,70.3603073 10.3705128,69.9941653 10.4218346,69.5805285 L10.4782461,69.1301912 C10.5036949,68.9263952 10.6742018,68.7731164 10.8765198,68.7731164 L11.2221993,65.94372 L11.4571765,64.0046356 L11.487291,63.7650026 L11.5377644,63.3466164 L11.2014161,63.3466164 L11.391858,61.8259183 L12.9293896,49.546778 C12.9701076,49.2255403 13.2381683,48.9841802 13.5567025,48.9841802 L33.9403422,48.9841802 C34.2584521,48.9841802 34.5265128,49.2255403 34.5676551,49.546778 L36.1034901,61.8259183 L36.2939319,63.3466164 L35.9580078,63.3466164 L36.0080571,63.7650026 L36.0381715,64.0046356 L36.2748453,65.94372 L36.6192524,68.7731164 C36.8211462,68.7731164 36.9916532,68.9263952 37.0175261,69.1301912 L37.0735135,69.5805285 C37.1252594,69.9941653 36.8084218,70.3603073 36.3986961,70.3603073" mask="url(#mask-4)"/></g><g id="Group-134"><path id="Fill-116" fill="#31333A" d="M11.5730534,47.3040986 C11.2405224,47.5658628 10.7574194,47.5052573 10.4986899,47.1682736 L6.63937958,42.1418853 C6.38065013,41.8053314 6.44087895,41.3153294 6.77340992,41.0535653 C7.10551675,40.7913712 7.58861979,40.8524066 7.84734924,41.1889605 L11.7070838,46.2157786 C11.9653891,46.5523325 11.9051602,47.0423345 11.5730534,47.3040986"/><g id="Group-120" transform="translate(0.000000, 26.219402)"><mask id="mask-6" fill="#fff"><use xlink:href="#path-5"/></mask><path id="Fill-118" fill="#31333A" d="M2.72645708,7.73261731 L2.15852472,7.86801258 C1.90488502,7.92904791 1.6482763,7.76829289 1.58889576,7.51125679 L0.0127668142,0.73719501 C-0.0474620101,0.479729083 0.111168837,0.220114025 0.36523268,0.159508523 L0.932740898,0.0236834266 C1.18638059,-0.0369220753 1.44298932,0.123832944 1.50279399,0.380869044 L3.07892295,7.15493082 C3.13872762,7.41196692 2.98009678,7.67201181 2.72645708,7.73261731" mask="url(#mask-6)"/></g><path id="Fill-121" fill="#31333A" d="M45.1558399,34.0565096 L44.5946939,33.8957546 C44.3440233,33.8235438 44.1964202,33.5570515 44.2672527,33.3030242 L46.136467,26.6059013 C46.2072995,26.3514442 46.4706946,26.2027243 46.7209411,26.2745053 L47.2825113,26.4352603 C47.5327578,26.5070413 47.6803608,26.7739634 47.6095283,27.0275609 L45.7407382,33.7251136 C45.6699057,33.9791409 45.4065106,34.1282906 45.1558399,34.0565096"/><path id="Fill-123" fill="#31333A" d="M36.097552,47.0069168 C35.765021,46.7455824 35.7039439,46.2555805 35.9622492,45.9185967 L39.8164698,40.88834 C40.0747752,40.5509264 40.5578782,40.4894613 40.8904092,40.7507956 C41.2229401,41.0129897 41.2840173,41.5025618 41.0257119,41.8395455 L37.1714913,46.870232 C36.913186,47.2072158 36.430083,47.268681 36.097552,47.0069168"/><path id="Fill-125" fill="#31333A" d="M6.66847604,40.4499602 C6.30498236,40.4521094 5.96481675,40.2595472 5.7815854,39.9414758 C4.01883192,36.8845515 2.93980284,34.0515666 2.34133192,32.1938575 C2.15258666,31.6333641 1.982928,31.0462214 1.83532497,30.4552103 C1.81326934,30.367096 1.80351397,30.3211045 1.80351397,30.3211045 C1.37215683,28.5433432 1.15287301,26.6998183 1.15287301,24.8507058 C1.15287301,12.2318666 11.2836157,1.96460686 23.7374097,1.96460686 C23.9113098,1.96460686 24.0864824,1.96632617 24.2616549,1.97062443 C30.0431979,2.10301092 35.5032377,4.46490619 39.6348503,8.6217559 C43.7651903,12.7781758 46.1361701,18.2945659 46.3113427,24.1530978 C46.3736922,26.2424832 46.1556808,28.3224125 45.6662156,30.334859 C45.6662156,30.334859 45.6560361,30.3782714 45.6382219,30.4522016 C45.4935879,31.0380547 45.3222327,31.6264869 45.129246,32.2033137 C44.5269577,34.070479 43.4390216,36.9249551 41.6580298,40.0020813 C41.571928,40.151231 41.412873,40.2440735 41.2419419,40.2449331 L6.66847604,40.4499602 Z"/><g id="Group-129" transform="translate(15.693426, 0.000000)"><mask id="mask-8" fill="#fff"><use xlink:href="#path-7"/></mask><path id="Fill-127" fill="#31333A" d="M0.182213401,3.42047137 L7.21923047,0.43661751 C7.69554716,0.226002645 8.23718243,0.229011429 8.71095424,0.444784208 L15.6550832,3.3112955" mask="url(#mask-8)"/></g><path id="Fill-130" fill="#53565D" d="M24.3738841,1.71883221 C24.3738841,2.14865847 24.0294771,2.49724756 23.6053304,2.49724756 C23.1811838,2.49724756 22.8372008,2.14865847 22.8372008,1.71883221 C22.8372008,1.28900596 23.1811838,0.939987037 23.6053304,0.939987037 C24.0294771,0.939987037 24.3738841,1.28900596 24.3738841,1.71883221"/><path id="Fill-132" fill="#40434B" d="M34.5268946,47.298253 C34.6655905,47.298253 34.8004692,47.2458142 34.9022643,47.1503928 C40.5603807,41.8643895 43.2668604,35.0684066 44.2920229,31.8902713 C44.4756784,31.341813 44.6377024,30.7834686 44.7785191,30.2165278 C44.7971815,30.1413082 44.8056645,30.102194 44.8056645,30.102194 C45.264167,28.2131076 45.4830267,26.2285998 45.4223737,24.1826269 C45.0792391,12.5884935 35.7590406,3.21183371 24.3159881,2.94878004 C12.1463724,2.66896315 2.1946196,12.5824759 2.1946196,24.8514365 C2.1946196,26.6614349 2.41305512,28.4198541 2.82150834,30.102194 C2.82150834,30.102194 2.83041542,30.1413082 2.84907788,30.2165278 C2.98989456,30.7834686 3.15149444,31.341813 3.33514994,31.8902713 C4.36031239,35.0684066 7.06679216,41.8643895 12.7253326,47.1503928 C12.8271278,47.2458142 12.9615823,47.298253 13.1002783,47.298253 L34.5268946,47.298253 Z"/></g><g id="Group-140" transform="translate(2.765110, 2.806513)"><mask id="mask-10" fill="#fff"><use xlink:href="#path-9"/></mask><polygon id="Fill-135" fill="#62656B" points="1.179 30.345 6.447 30.345 6.447 30.013 1.179 30.013" mask="url(#mask-10)"/><polygon id="Fill-137" fill="#62656B" points="36.574 30.345 41.866 30.345 41.866 30.013 36.574 30.013" mask="url(#mask-10)"/><path id="Fill-138" fill="#1C1D1E" d="M24.0015395,41.6447126 L19.0197332,41.6447126 L19.0197332,40.7731434 C19.0197332,40.4660842 19.2649331,40.216759 19.5669118,40.216759 L23.454361,40.216759 C23.7567602,40.216759 24.0015395,40.4660842 24.0015395,40.7731434 L24.0015395,41.6447126 Z" mask="url(#mask-10)"/><polygon id="Fill-139" fill="#62656B" points="7.529 41.811 35.559 41.811 35.559 41.479 7.529 41.479" mask="url(#mask-10)"/></g><g id="Group-206"><path id="Fill-141" fill="#53565D" d="M36.1381429,64.004722 L30.21239,64.004722 C29.9396637,64.004722 29.6872965,64.1446159 29.5346037,64.3743181 C28.2791296,66.2615899 26.1550032,67.5016367 23.7483951,67.5016367 C21.3405145,67.5016367 19.218933,66.2611581 17.9626106,64.3743181 C17.8094937,64.1446159 17.5571264,64.004722 17.2844001,64.004722 L11.3573748,64.004722 C11.2314033,64.004722 11.1338496,63.8920297 11.149543,63.7646572 L11.3921549,61.8260047 L15.3944027,61.8260047 C16.1485354,61.8260047 16.7673654,61.2055495 16.7622756,60.4374286 C16.7618515,60.3709358 16.7622756,60.3044431 16.763548,60.2375185 C16.8437118,56.3377613 19.924713,53.2734813 23.756878,53.277799 C27.6102503,53.2821168 30.7336662,56.464702 30.7336662,60.3899338 L30.7336662,60.404614 C30.7319697,61.185688 31.3389235,61.8260047 32.1062048,61.8260047 L36.1033628,61.8260047 L36.3455506,63.7646572 C36.361244,63.8920297 36.2641144,64.004722 36.1381429,64.004722"/><path id="Fill-143" fill="#40434B" d="M23.7480133,55.1547083 C20.9117447,55.1547083 18.6048111,57.5026799 18.6048111,60.389502 C18.6048111,63.2767558 20.9117447,65.6247274 23.7480133,65.6247274 C26.584282,65.6247274 28.8903673,63.2767558 28.8903673,60.389502 C28.8903673,57.5026799 26.584282,55.1547083 23.7480133,55.1547083 M23.7480133,66.0405231 C20.6865228,66.0405231 18.1963578,63.5051627 18.1963578,60.389502 C18.1963578,57.2734095 20.6865228,54.7389127 23.7480133,54.7389127 C26.8082314,54.7389127 29.2988205,57.2734095 29.2988205,60.389502 C29.2988205,63.5051627 26.8082314,66.0405231 23.7480133,66.0405231"/><path id="Fill-145" fill="#40434B" d="M23.7480133,56.0254181 C21.3833958,56.0254181 19.4603149,57.9826368 19.4603149,60.3893293 C19.4603149,62.7960218 21.3833958,64.754104 23.7480133,64.754104 C26.1113585,64.754104 28.0348635,62.7960218 28.0348635,60.3893293 C28.0348635,57.9826368 26.1113585,56.0254181 23.7480133,56.0254181 M23.7480133,64.8927026 C21.3091701,64.8927026 19.3245879,62.8724453 19.3245879,60.3893293 C19.3245879,57.9062133 21.3091701,55.8863877 23.7480133,55.8863877 C26.1868566,55.8863877 28.1705905,57.9062133 28.1705905,60.3893293 C28.1705905,62.8724453 26.1868566,64.8927026 23.7480133,64.8927026"/><path id="Fill-147" fill="#40434B" d="M23.7480133,56.7177631 C21.7587655,56.7177631 20.1406461,58.3645384 20.1406461,60.3895452 C20.1406461,62.4136884 21.7587655,64.0608954 23.7480133,64.0608954 C25.7372611,64.0608954 27.3553806,62.4136884 27.3553806,60.3895452 C27.3553806,58.3645384 25.7372611,56.7177631 23.7480133,56.7177631 M23.7480133,64.1999257 C21.6841157,64.1999257 20.0049192,62.4901119 20.0049192,60.3895452 C20.0049192,58.2885466 21.6841157,56.5787328 23.7480133,56.5787328 C25.8114868,56.5787328 27.4906834,58.2885466 27.4906834,60.3895452 C27.4906834,62.4901119 25.8114868,64.1999257 23.7480133,64.1999257"/><path id="Fill-149" fill="#40434B" d="M23.7480133,57.41054 C22.1337112,57.41054 20.8205532,58.7468717 20.8205532,60.3893293 C20.8205532,62.0322186 22.1337112,63.3685503 23.7480133,63.3685503 C25.3614672,63.3685503 26.6746252,62.0322186 26.6746252,60.3893293 C26.6746252,58.7468717 25.3614672,57.41054 23.7480133,57.41054 M23.7480133,63.5075807 C22.0586372,63.5075807 20.6848262,62.1090738 20.6848262,60.3893293 C20.6848262,58.6704482 22.0586372,57.2715097 23.7480133,57.2715097 C25.4365412,57.2715097 26.8103521,58.6704482 26.8103521,60.3893293 C26.8103521,62.1090738 25.4365412,63.5075807 23.7480133,63.5075807"/><mask id="mask-12" fill="#fff"><use xlink:href="#path-11"/></mask><path id="Fill-168" fill="#62656B" d="M30.9112989,27.4393169 C27.1970466,27.4393169 24.1313147,30.3153447 23.7478861,33.994035 C23.3644575,30.3153447 20.2983014,27.4393169 16.5840492,27.4393169 C12.6114917,27.4393169 9.37949418,30.7294132 9.37949418,34.773382 C9.37949418,38.8177826 12.6114917,42.1078789 16.5840492,42.1078789 C20.2983014,42.1078789 23.3644575,39.2318511 23.7478861,35.552729 C24.1313147,39.2318511 27.1970466,42.1078789 30.9112989,42.1078789 C34.8838564,42.1078789 38.1158539,38.8177826 38.1158539,34.773382 C38.1158539,30.7294132 34.8838564,27.4393169 30.9112989,27.4393169" mask="url(#mask-12)"/><path id="Stroke-170" stroke="#53565D" stroke-width=".642" d="M23.7807575,48.9842234 L23.7807575,53.2777559" mask="url(#mask-12)"/><path id="Stroke-171" stroke="#53565D" stroke-width=".642" d="M17.6140469,57.4328625 L14.843521,57.4328625 C14.4465197,57.4328625 14.0660602,57.2722437 13.7856992,56.9868429 L12.0963231,55.2666666" mask="url(#mask-12)"/><path id="Stroke-172" stroke="#53565D" stroke-width=".642" d="M29.881598,57.4328625 L32.652124,57.4328625 C33.0487011,57.4328625 33.4291606,57.2722437 33.7095216,56.9868429 L35.3993218,55.2666666" mask="url(#mask-12)"/><path id="Fill-173" fill="#40434B" d="M21.5779942,34.1615191 C21.5779942,36.9688952 19.3423173,39.2451928 16.5840916,39.2451928 C13.8262901,39.2451928 11.5906131,36.9688952 11.5906131,34.1615191 C11.5906131,31.3541429 13.8262901,29.0782771 16.5840916,29.0782771 C19.3423173,29.0782771 21.5779942,31.3541429 21.5779942,34.1615191" mask="url(#mask-12)"/><path id="Fill-174" fill="#EDCA7A" d="M20.9318492,34.1615191 C20.9318492,36.6057757 18.9854403,38.5871736 16.5843461,38.5871736 C14.1832519,38.5871736 12.2368429,36.6057757 12.2368429,34.1615191 C12.2368429,31.7172625 14.1832519,29.7358646 16.5843461,29.7358646 C18.9854403,29.7358646 20.9318492,31.7172625 20.9318492,34.1615191" mask="url(#mask-12)"/><path id="Fill-175" fill="#FFF" d="M17.4090144,31.4954185 C17.4090144,31.9591407 17.0395827,32.3352134 16.5840492,32.3352134 C16.1285157,32.3352134 15.7595081,31.9591407 15.7595081,31.4954185 C15.7595081,31.0316962 16.1285157,30.6560553 16.5840492,30.6560553 C17.0395827,30.6560553 17.4090144,31.0316962 17.4090144,31.4954185" mask="url(#mask-12)"/><path id="Fill-176" fill="#FFF" d="M13.903612,34.7674236 C14.2980684,34.5355624 14.8028029,34.6732975 15.0305697,35.0748446 C15.2579123,35.4763918 15.1230336,35.9901995 14.7285772,36.2216289 C14.3341209,36.45349 13.8293863,36.315755 13.6016196,35.9146396 C13.3738528,35.5130924 13.5091556,34.9992847 13.903612,34.7674236" mask="url(#mask-12)"/><path id="Fill-177" fill="#FFF" d="M18.4399877,36.221672 C18.0455313,35.9898109 17.9102285,35.476435 18.1379953,35.0748878 C18.365762,34.6733406 18.8704965,34.5356056 19.2645288,34.7674667 C19.6594093,34.9993279 19.7942879,35.5127038 19.5665212,35.9146827 C19.3387544,36.3157982 18.8344441,36.4535332 18.4399877,36.221672" mask="url(#mask-12)"/><path id="Stroke-178" stroke="#62656B" stroke-width=".962" d="M13.2913987,28.7449498 L13.2913987,39.4019258" mask="url(#mask-12)"/><path id="Stroke-179" stroke="#62656B" stroke-width=".962" d="M14.9378512,28.7449498 L14.9378512,39.4019258" mask="url(#mask-12)"/><path id="Stroke-180" stroke="#62656B" stroke-width=".962" d="M16.584134,28.7449498 L16.584134,39.4019258" mask="url(#mask-12)"/><path id="Stroke-181" stroke="#62656B" stroke-width=".962" d="M18.2305865,28.7449498 L18.2305865,39.4019258" mask="url(#mask-12)"/><path id="Stroke-182" stroke="#62656B" stroke-width=".962" d="M19.8768693,28.7449498 L19.8768693,39.4019258" mask="url(#mask-12)"/><path id="Fill-183" fill="#40434B" d="M16.584134,35.4017818 C15.9127099,35.4017818 15.3659848,34.8452287 15.3659848,34.1613032 C15.3659848,33.4778094 15.9127099,32.9212564 16.584134,32.9212564 C17.2559823,32.9212564 17.8027073,33.4778094 17.8027073,34.1613032 C17.8027073,34.8452287 17.2559823,35.4017818 16.584134,35.4017818" mask="url(#mask-12)"/><path id="Fill-184" fill="#40434B" d="M35.904947,34.1615191 C35.904947,36.9688952 33.66927,39.2451928 30.9114685,39.2451928 C28.153667,39.2451928 25.9175659,36.9688952 25.9175659,34.1615191 C25.9175659,31.3541429 28.153667,29.0782771 30.9114685,29.0782771 C33.66927,29.0782771 35.904947,31.3541429 35.904947,34.1615191" mask="url(#mask-12)"/><path id="Fill-185" fill="#EDCA7A" d="M35.258802,34.1615191 C35.258802,36.6057757 33.312393,38.5871736 30.9112989,38.5871736 C28.5102047,38.5871736 26.5637957,36.6057757 26.5637957,34.1615191 C26.5637957,31.7172625 28.5102047,29.7358646 30.9112989,29.7358646 C33.312393,29.7358646 35.258802,31.7172625 35.258802,34.1615191" mask="url(#mask-12)"/><path id="Fill-186" fill="#FFF" d="M31.7359672,31.4954185 C31.7359672,31.9591407 31.3669596,32.3352134 30.9114261,32.3352134 C30.4554685,32.3352134 30.0864609,31.9591407 30.0864609,31.4954185 C30.0864609,31.0316962 30.4554685,30.6560553 30.9114261,30.6560553 C31.3669596,30.6560553 31.7359672,31.0316962 31.7359672,31.4954185" mask="url(#mask-12)"/><path id="Fill-187" fill="#FFF" d="M28.2309889,34.7674236 C28.6254453,34.5355624 29.1297557,34.6732975 29.3575224,35.0748446 C29.5852892,35.4763918 29.4499864,35.9901995 29.05553,36.2216289 C28.6610736,36.45349 28.1567633,36.315755 27.9289965,35.9146396 C27.7012298,35.5130924 27.8361084,34.9992847 28.2309889,34.7674236" mask="url(#mask-12)"/><path id="Fill-188" fill="#FFF" d="M32.7669405,36.221672 C32.3724841,35.9898109 32.2376054,35.476435 32.464948,35.0748878 C32.6927148,34.6733406 33.1974493,34.5356056 33.5919057,34.7674667 C33.9863621,34.9993279 34.1212407,35.5127038 33.8938981,35.9146827 C33.6661314,36.3157982 33.161821,36.4535332 32.7669405,36.221672" mask="url(#mask-12)"/><path id="Stroke-189" stroke="#62656B" stroke-width=".962" d="M27.6187757,28.7449498 L27.6187757,39.4019258" mask="url(#mask-12)"/><path id="Stroke-190" stroke="#62656B" stroke-width=".962" d="M29.2648464,28.7449498 L29.2648464,39.4019258" mask="url(#mask-12)"/><path id="Stroke-191" stroke="#62656B" stroke-width=".962" d="M30.9112989,28.7449498 L30.9112989,39.4019258" mask="url(#mask-12)"/><path id="Stroke-192" stroke="#62656B" stroke-width=".962" d="M32.5577513,28.7449498 L32.5577513,39.4019258" mask="url(#mask-12)"/><path id="Stroke-193" stroke="#62656B" stroke-width=".962" d="M34.2042462,28.7449498 L34.2042462,39.4019258" mask="url(#mask-12)"/><path id="Fill-194" fill="#40434B" d="M30.9112989,35.4017818 C30.2394506,35.4017818 29.6931497,34.8452287 29.6931497,34.1613032 C29.6931497,33.4778094 30.2394506,32.9212564 30.9112989,32.9212564 C31.5831472,32.9212564 32.129448,33.4778094 32.129448,34.1613032 C32.129448,34.8452287 31.5831472,35.4017818 30.9112989,35.4017818" mask="url(#mask-12)"/><path id="Fill-195" fill="#62656B" d="M14.8585358,27.6707894 C14.8585358,27.6707894 10.4491072,28.7752601 7.55473047,32.9694852 L9.91128925,34.3528801 L14.8585358,27.6707894 Z" mask="url(#mask-12)"/><path id="Fill-196" fill="#62656B" d="M32.6368971,27.6707894 C32.6368971,27.6707894 37.0463257,28.7752601 39.9411265,32.9694852 L37.5841436,34.3528801 L32.6368971,27.6707894 Z" mask="url(#mask-12)"/><path id="Fill-197" fill="#53565D" d="M15.1532753,12.2430011 C13.1419719,13.3953983 10.967372,13.3461764 10.2967961,12.1324676 C9.62579614,10.9191906 10.7120357,9.00083134 12.7233391,7.84843409 C14.7346425,6.69603684 16.9092424,6.74569052 17.5802424,7.95896751 C18.2512424,9.17267627 17.1645787,11.0906038 15.1532753,12.2430011" mask="url(#mask-12)"/><path id="Fill-198" fill="#53565D" d="M9.21522219,15.3183344 C8.69012863,16.166333 7.77439602,16.5393833 7.16998704,16.151221 C6.56557807,15.7634905 6.50110777,14.7613496 7.02620133,13.9137828 C7.55129488,13.0657842 8.4670275,12.6927339 9.07143647,13.0808962 C9.67584545,13.4686267 9.74031574,14.4707676 9.21522219,15.3183344" mask="url(#mask-12)"/><path id="Fill-199" fill="#62656B" d="M22.9001442,40.2758738 C23.1690532,39.979247 23.4188755,39.6631905 23.6466423,39.3302949 C23.7106884,39.2366006 23.8442946,39.2366006 23.9083408,39.3302949 C24.1361075,39.6631905 24.3859299,39.979247 24.6548389,40.2758738 C24.7481511,40.3790671 24.6764704,40.5457308 24.5386227,40.5457308 L23.7475892,39.7447953 L23.0159362,40.5457308 C22.8780886,40.5457308 22.8068319,40.3790671 22.9001442,40.2758738" mask="url(#mask-12)"/><path id="Fill-200" fill="#53565D" d="M26.1769315,50.6042288 C26.1769315,50.8188191 26.0060004,50.9923911 25.7956237,50.9923911 C25.5848228,50.9923911 25.4134676,50.8188191 25.4134676,50.6042288 C25.4134676,50.3896385 25.5848228,50.2156347 25.7956237,50.2156347 C26.0060004,50.2156347 26.1769315,50.3896385 26.1769315,50.6042288" mask="url(#mask-12)"/><path id="Fill-201" fill="#53565D" d="M26.8487798,50.270297 C26.8487798,50.2357553 26.8576869,50.2094172 26.8759252,50.1921464 C26.8941635,50.1748755 26.9170674,50.1662401 26.9450611,50.1662401 C26.9726307,50.1662401 26.9959587,50.1748755 27.014197,50.1921464 C27.0324353,50.2094172 27.0413424,50.2357553 27.0413424,50.270297 L27.0413424,50.50993 L27.3060099,50.2158938 C27.3250965,50.1938735 27.3412141,50.1804886 27.3543626,50.1744438 C27.3683595,50.1692625 27.3819322,50.1662401 27.3963532,50.1662401 C27.4065327,50.1662401 27.4175605,50.1688307 27.4290125,50.1735802 C27.4404644,50.1783297 27.4510681,50.185238 27.4603993,50.1934417 C27.4701547,50.2020771 27.4773652,50.2120079 27.4837274,50.2240974 C27.4896654,50.2353235 27.4926345,50.2474131 27.4926345,50.260798 C27.4926345,50.2750464 27.4888171,50.2888631 27.4811825,50.302248 C27.473972,50.3152012 27.4646408,50.3281543 27.4544613,50.3389486 L27.2254221,50.5738321 L27.4760927,50.8505974 C27.4909379,50.8665729 27.5036623,50.8816849 27.5138418,50.8959334 C27.5244454,50.9097501 27.5291111,50.9265891 27.5291111,50.9447235 C27.5291111,50.9762428 27.5193557,50.9999902 27.4989966,51.0168293 C27.4786376,51.0336684 27.4553095,51.0414403 27.4281642,51.0414403 C27.4158639,51.0414403 27.4039878,51.0388496 27.3925358,51.0341002 C27.381508,51.0284871 27.3709044,51.0215788 27.361149,51.0138069 C27.3513936,51.0056033 27.3420624,50.9969678 27.3340036,50.9870371 C27.3255207,50.9775381 27.3174619,50.9680392 27.3098272,50.9594037 L27.0413424,50.6524144 L27.0413424,50.9378152 C27.0413424,50.9723569 27.0324353,50.9982632 27.014197,51.0159658 C26.9959587,51.0332366 26.9726307,51.0414403 26.9450611,51.0414403 C26.9170674,51.0414403 26.8941635,51.0332366 26.8759252,51.0159658 C26.8576869,50.9982632 26.8487798,50.9723569 26.8487798,50.9378152 L26.8487798,50.270297 Z" mask="url(#mask-12)"/><path id="Fill-202" fill="#53565D" d="M27.9592382,50.6173114 C27.9838387,50.6173114 28.0029253,50.6246516 28.0169221,50.6389 C28.0304948,50.6535802 28.0377053,50.6730099 28.0377053,50.6971891 C28.0377053,50.7209365 28.0304948,50.7403662 28.0169221,50.7550465 C28.0029253,50.7697267 27.9838387,50.776635 27.9592382,50.776635 L27.6788772,50.776635 C27.6542767,50.776635 27.634766,50.7697267 27.6211933,50.7550465 C27.6076206,50.7403662 27.6004101,50.7209365 27.6004101,50.6971891 C27.6004101,50.6730099 27.6076206,50.6535802 27.6211933,50.6389 C27.634766,50.6246516 27.6542767,50.6173114 27.6788772,50.6173114 L27.9592382,50.6173114 Z" mask="url(#mask-12)"/><path id="Fill-203" fill="#53565D" d="M28.7611715,50.4353366 L28.7572297,50.4353366 L28.4852442,50.8410748 L28.7611715,50.8410748 L28.7611715,50.4353366 Z M28.7611715,51.0700838 L28.2697581,51.0700838 C28.2415084,51.0700838 28.2178575,51.0666743 28.1994624,51.0609917 C28.1797533,51.0541725 28.164643,51.0456486 28.1528175,51.0359882 C28.141649,51.0257595 28.1331084,51.0149625 28.1278526,51.0024608 C28.1232539,50.9905273 28.120626,50.9791621 28.120626,50.9677969 C28.120626,50.94393 28.1271957,50.9206313 28.140992,50.8979008 C28.1541314,50.8757387 28.1672708,50.8575543 28.1777823,50.8427795 L28.6153242,50.257471 C28.64226,50.2211023 28.6731375,50.1966671 28.706643,50.1847336 C28.7408054,50.1722319 28.7802236,50.165981 28.8275254,50.165981 C28.8958503,50.165981 28.9497218,50.1847336 28.98914,50.2205341 C29.0279012,50.2569028 29.0482673,50.3035001 29.0482673,50.3603262 L29.0482673,50.8410748 L29.1100224,50.8410748 C29.1573243,50.8410748 29.1934576,50.8495987 29.2210503,50.8683513 C29.2479861,50.8859674 29.2617824,50.9155169 29.2617824,50.9552952 C29.2617824,50.9956417 29.2479861,51.0251912 29.2210503,51.0428073 C29.1934576,51.0615599 29.1573243,51.0700838 29.1100224,51.0700838 L29.0482673,51.0700838 L29.0482673,51.1752121 C29.0482673,51.222946 29.0351279,51.2587464 29.0095061,51.2826133 C28.9838842,51.3064803 28.9484079,51.3184138 28.9043909,51.3184138 C28.8603739,51.3184138 28.8255545,51.3064803 28.7999327,51.2826133 C28.7743109,51.2587464 28.7611715,51.2240825 28.7611715,51.1786216 L28.7611715,51.0700838 Z" mask="url(#mask-12)"/><path id="Fill-204" fill="#53565D" d="M28.962854,50.270297 C28.962854,50.2357553 28.9717611,50.2094172 28.9899994,50.1921464 C29.0078135,50.1748755 29.0311416,50.1662401 29.0591353,50.1662401 C29.0714355,50.1662401 29.0824633,50.1679672 29.0922187,50.1714214 C29.1015499,50.174012 29.1113053,50.1800568 29.1206365,50.1882604 C29.1303919,50.1960323 29.1405714,50.2072584 29.1511751,50.2206433 C29.1626271,50.23446 29.1761997,50.251299 29.1918932,50.2715923 L29.5112756,50.6787525 L29.5138205,50.6787525 L29.5138205,50.270297 C29.5138205,50.2357553 29.5227276,50.2094172 29.5409659,50.1921464 C29.5592042,50.1748755 29.5821081,50.1662401 29.6096776,50.1662401 C29.6376713,50.1662401 29.6605752,50.1748755 29.6783894,50.1921464 C29.6966277,50.2094172 29.7059589,50.2357553 29.7059589,50.270297 L29.7059589,50.9378152 C29.7059589,50.9723569 29.6966277,50.9982632 29.6783894,51.0159658 C29.6605752,51.0332366 29.6376713,51.0414403 29.6096776,51.0414403 C29.5973774,51.0414403 29.5863496,51.0397132 29.5765942,51.0366908 C29.567263,51.0336684 29.5575076,51.0280554 29.5481764,51.0198517 C29.538421,51.0120798 29.5282415,51.0008538 29.5176378,50.9879006 C29.5061858,50.9745157 29.4926131,50.9572449 29.4769197,50.9365199 L29.1575373,50.5293597 L29.1549924,50.5293597 L29.1549924,50.9378152 C29.1549924,50.9723569 29.1460853,50.9982632 29.127847,51.0159658 C29.1096087,51.0332366 29.0867048,51.0414403 29.0591353,51.0414403 C29.0311416,51.0414403 29.0078135,51.0332366 28.9899994,51.0159658 C28.9717611,50.9982632 28.962854,50.9723569 28.962854,50.9378152 L28.962854,50.270297 Z" mask="url(#mask-12)"/><path id="Fill-205" fill="#53565D" d="M30.4073496,50.3866477 C30.3566704,50.3866477 30.3129814,50.3966063 30.2762826,50.4159702 C30.2401664,50.4358875 30.2104579,50.4613372 30.1871571,50.4934261 C30.1644388,50.525515 30.1481283,50.5620299 30.1370604,50.6035241 C30.1259925,50.6450183 30.1207498,50.6870658 30.1207498,50.7302198 C30.1207498,50.773927 30.1259925,50.8159745 30.1370604,50.8574687 C30.1481283,50.8989629 30.1644388,50.9354778 30.1871571,50.9675667 C30.2104579,50.9991023 30.2401664,51.0251053 30.2762826,51.0444693 C30.3129814,51.0649398 30.3566704,51.0743451 30.4073496,51.0743451 C30.4586114,51.0743451 30.5023004,51.0649398 30.5389991,51.0444693 C30.5751153,51.0251053 30.6048239,50.9991023 30.6281247,50.9675667 C30.6508429,50.9354778 30.6671535,50.8989629 30.6782214,50.8574687 C30.6892892,50.8159745 30.6945319,50.773927 30.6945319,50.7302198 C30.6945319,50.6870658 30.6892892,50.6450183 30.6782214,50.6035241 C30.6671535,50.5620299 30.6508429,50.525515 30.6281247,50.4934261 C30.6048239,50.4613372 30.5751153,50.4358875 30.5389991,50.4159702 C30.5023004,50.3966063 30.4586114,50.3866477 30.4073496,50.3866477 M30.4073496,50.15428 C30.49298,50.15428 30.5716202,50.1675582 30.6415226,50.195221 C30.711425,50.2223306 30.7720071,50.2610585 30.8221038,50.3114048 C30.8722005,50.3611979 30.9106468,50.4215028 30.9374427,50.4923196 C30.9648211,50.5631364 30.9782191,50.6428053 30.9782191,50.7302198 C30.9782191,50.8181875 30.9648211,50.8973032 30.9374427,50.9681199 C30.9106468,51.0389367 30.8722005,51.0992417 30.8221038,51.149588 C30.7720071,51.1999343 30.711425,51.238109 30.6415226,51.2657718 C30.5716202,51.2934346 30.49298,51.3067128 30.4073496,51.3067128 C30.3217192,51.3067128 30.2436615,51.2934346 30.1737591,51.2657718 C30.1038568,51.238109 30.0432747,51.1999343 29.993178,51.149588 C29.9430813,51.0992417 29.9046349,51.0389367 29.877839,50.9681199 C29.8504606,50.8973032 29.8370626,50.8181875 29.8370626,50.7302198 C29.8370626,50.6428053 29.8504606,50.5631364 29.877839,50.4923196 C29.9046349,50.4215028 29.9430813,50.3611979 29.993178,50.3114048 C30.0432747,50.2610585 30.1038568,50.2223306 30.1737591,50.195221 C30.2436615,50.1675582 30.3217192,50.15428 30.4073496,50.15428" mask="url(#mask-12)"/></g></g></g></g></g></g></g></g></svg>