<svg xmlns="http://www.w3.org/2000/svg" xmlns:xlink="http://www.w3.org/1999/xlink" id="Layer_1" x="0" y="0" version="1.1" viewBox="0 0 400 400" xml:space="preserve" style="enable-background:new 0 0 400 400"><style type="text/css">.st0{fill:#56c6e0}.st1{fill:#45b65b}.st2{opacity:.34;enable-background:new}.st2,.st3{fill:#45b65b}.st3,.st4,.st5,.st6{enable-background:new}.st3{opacity:.42}.st4{opacity:6.000000e-02;fill:#fff}.st5,.st6{opacity:.1;fill:#f3f3f3}.st6{opacity:.29}.st7,.st8,.st9{fill:none;stroke:#f9de5c;stroke-width:3;stroke-linecap:round;stroke-linejoin:round}.st8{stroke-dasharray:5.7826,13.4928}.st9{stroke-dasharray:5.8812,13.7227}.st10{fill:#989798}.st11{fill:#cecccc}.st12{fill:#828282}.st13{fill:#989798;stroke:#cecccc;stroke-width:1.710591e-02;stroke-miterlimit:10}.st14{fill:#333}.st15{fill:#e6e6e5}.st16,.st17{fill:none;stroke:#e6e6e5;stroke-width:.1884;stroke-miterlimit:10}.st17{stroke:#cecccc;stroke-width:1.710591e-02}.st18{fill:#ef8b22}.st19{opacity:.29;fill:#020202;enable-background:new}.st20{fill:#676868}.st21{opacity:.13;fill:#020202}.st21,.st22,.st23{enable-background:new}.st22{opacity:.6;fill:#e6e6e5}.st23{opacity:.11;fill:#fff}.st24{fill:#eb7357}.st25{fill:#fff}</style><g><path d="M319.3,261.4c-5.3,7.4-11.4,14-18.2,19.5l0,0c-3.3,2.8-6.8,5.3-10.4,7.5c-25.5,16.1-57.2,20-86.1,10.4 c-9.4-3.2-18.5-7.7-27-13.7c-16.4-11.7-28.3-27.4-35.3-44.9c-12.4-31-9.3-67.5,11.6-96.8c22.1-31,58.5-45.9,93.8-42 c8.8,0.9,17.5,3,25.9,6.4c7.7,3,15,6.9,22,11.9c8.9,6.4,16.4,13.8,22.6,22.2c6.9,9.3,12.1,19.7,15.4,30.5 C342.7,201.7,338.5,234.6,319.3,261.4z" class="st0"/><path d="M292.8,167.7c-0.9-1.6-2.5-2.3-4.6-0.6c-2.8,2.3-5.5,7.3-6.4,10.8c-1.1,4.3-5,5.2-7.7,8.3 c-0.2,0.3-0.6,0.7-0.4,1.1c0.1,0.4,0.4,0.6,0.7,0.8c2.6,1.9,5.2,3.7,7.8,5.6c2.9,2,7,6.1,10.1,1.5c2.5-3.8-2.5-10.3-1.4-14.7 c0.4-1.4,1.5-2.5,2.3-3.8C294.3,174.7,294.2,170.1,292.8,167.7z" class="st1"/><path d="M272.9,171.2c-6.2,0.4-0.9,7,2.4,4c0.6-0.5,1.1-1.1,1.2-1.8C276.7,171.7,274.7,171.1,272.9,171.2z" class="st1"/><path d="M320.9,262.6c-4.9,6.9-10.5,13-16.6,18.2c-0.9,0.7-2.2,0.2-2.3-0.9c-0.4-2.3-0.6-4.6-0.9-6.9 c-0.4-3-5.7-10.4-9.1-9.8c-0.6,0.1-1.1,0.4-1.6,0.4c-0.9,0-1.6-0.5-2.3-1.1c-1.7-1.4-3.2-3-4.5-4.8c-0.6-0.8-1.1-1.7-1.2-2.7 c0-0.8,0.2-1.5,0.6-2.3c1.7-4.4,3.7-8.6,5.6-12.9c1.3-3,1.2-3.5-1.1-5.6c-1.4-1.2-2.9-2.2-4.3-3.3c-1.9-1.5-2.1-2.3-4.1-1.1 c-2.4,1.4-4.3,4.8-6.2,6.8c-1.6,1.6-2.2,3.8-2.2,6.1c0.1,2.7,1,5.3,1.2,8c0.1,1.6-0.1,3.2-1.1,4.5c-3.6,4.8-11,0.7-15.2,4.4 c-1.5,1.4-2.5,3.4-4.1,4.6c-0.1,0.1-0.3,0.2-0.4,0.2c-1.7-0.1-2.5-6.1-2.5-7.3c0.3-5.6,5.8-1.5,8.8-2.8c2.5-1.1,4.3-3.2,5.8-5.3 c2.3-3.2,6-9.5,3.2-13.3c-1-1.4-3,0-4.6,0.9c-0.8,0.4-3.2,3.8-3.3,3.8c-2.5,0.4-4.8,0.6-7.2-0.6c-4.3-2-6.7-6.1-11.6-2.7 c-2.3,1.6-2.9,4.3-3.8,6.9c-0.7,2-1.7,4.1-3.6,5.2c-2.9,1.5-9.7-0.3-12-2.5c-3.6-3.5-10.8-7-9.9-13c0.3-1.9,1.2-3.5,2.3-5.1 c2.3-3.4,5.6-12.1,9.5-13.8l1.5,0.7c2.3,2.2,4.9,4.1,8.3,3.1c0.5-0.1,0.9-0.5,1.2-0.8c4-3.3,6.8-7.4,9.9-11.4 c1.1-1.4,2.2-2.7,3.2-4c0.5-0.6,1.1-1.3,1.9-1.5c1.5-0.5,4,2.4,5.6,2.8c2.2,0.6,4.4,0,6.5-0.7c3.3-1.1,5.6,3.5,8.5,1.5 c0.5-0.3,0.8-0.7,1.1-1.2c1.1-1.5,2.2-3.1,3.3-4.7c2.2,0.1,6.4,0.7,8.1,2.2l3.2,2.9l6.9,2.3c0,0,2.6,1.3,4.4,1.2 c1.9-0.1,3.3-0.1,5.5-1.4c2.3-1.3,3-0.8,5.3-1.9c2.2-1.1,2.8-0.6,2.8-0.6l5.3,0.4c4.6-0.3,8.6-0.9,11.9-4.4 c2.3-2.4,3.7-5.5,4.7-8.7c0.6-1.9,1.1-4,0.4-5.9c-0.4-1.2-1.1-2.2-1.5-3.3c-1.2-2.8-0.4-8.8,3.1-10.1c0.6-0.2,1.2-0.1,1.7,0.4 C344.7,201.7,340.4,235.2,320.9,262.6z" class="st1"/><path d="M247.9,116c-4.6,2.3-9.9,1.4-15,2c-4.8,0.6-10.1-0.9-14.8,0.6c-2.5,0.7-5,0.7-7.5,1.3 c-2.9,0.8-5.6,2.6-8.1,4.3c-1.9,1.4-3.8,2.8-4.9,4.9c-2.7,5.1,0,11.6,0.5,16.9c0.4,4.2-0.5,8-1.7,12c-2.2,7.7-8.9,13.1-14.9,17.9 c-3.9,3.1-7.8,6.2-11.6,9.5c-4.1,3.5-8.6,7.1-11.2,11.9c-2.7,4.9-3,10.7-3.6,16.1c-0.4,3-1.1,6-1.7,9c-0.9,3.7-0.7,7.2-3,10.4 c-1.5,2-2.7,4.5-4.8,6.1c0,0,0,0-0.1,0c-2.3,1.7-5.7,0.6-6.6-2.2c-10.8-30.6-7-65.9,13.3-94.4c22.1-31,58.1-46.2,93.6-43 c1.3,0.1,2.5,0.8,3.2,1.9c0.2,0.4,0.5,0.7,0.7,1.1c0.1,0.2,0.2,0.4,0.2,0.7c0.6,3,2.5,7.2,0.9,10.2 C250.4,114.4,249.2,115.4,247.9,116z" class="st1"/><path d="M247.9,116c-4.6,2.3-9.9,1.4-15,2c-4.8,0.6-10.1-0.9-14.8,0.6c-2.5,0.7-5,0.7-7.5,1.3 c-2.9,0.8-5.6,2.6-8.1,4.3c-1.9,1.4-3.8,2.8-4.9,4.9c-2.7,5.1,0,11.6,0.5,16.9c0.4,4.2-0.5,8-1.7,12c-2.2,7.7-8.9,13.1-14.9,17.9 c-3.9,3.1-7.8,6.2-11.6,9.5c-4.1,3.5-8.6,7.1-11.2,11.9c-2.7,4.9-3,10.7-3.6,16.1c-0.4,3-1.1,6-1.7,9c-0.9,3.7-0.7,7.2-3,10.4 c-1.5,2-2.7,4.5-4.8,6.1c0,0,0,0-0.1,0c-2.3,1.7-5.7,0.6-6.6-2.2c-10.8-30.6-7-65.9,13.3-94.4c22.1-31,58.1-46.2,93.6-43 c1.3,0.1,2.5,0.8,3.2,1.9c0.2,0.4,0.5,0.7,0.7,1.1c0.1,0.2,0.2,0.4,0.2,0.7c0.6,3,2.5,7.2,0.9,10.2 C250.4,114.4,249.2,115.4,247.9,116z" class="st2"/><path d="M315.6,137.2c1.9,2.3,0.2,5.8-2.8,5.7h-0.1c-3.2-0.1-6.4-1.3-8.8-3.5c-4.6-4.2-8.8-8.8-14.1-12.2 c-2.9-2-6.1-3.7-8.2-6.6c-2.9-3.8-4.4-8.3-7-12.3c-0.3-0.5-2.5-0.6-1.1-1.5c1.2-2.5,15.3,7,22.4,12.1 C303.4,124.4,310,130.6,315.6,137.2z" class="st1"/><path d="M289.9,289.7c-25.4,15.7-56.7,19.8-85.4,10.8c-0.9-0.3-1.4-1.2-1.2-2.2c0-0.1,0.1-0.2,0.1-0.3 c1-3.7,1.4-7.9-0.1-11.5c-0.6-1.4-1.3-2.6-1.9-3.9c-1.7-4-1.4-8.7,0.6-12.5c0.5-1,1.2-1.9,2.1-2.6c2.8-2,8.2-0.9,11.6-0.6 c4.6,0.4,9.1,1.1,13.5,2.1c7,1.6,13.8,4.2,21,4.8c2.3,0.2,14,0.3,14.6,2.8v0.1c1.6,5.6,5.4,7.7,10.7,9.4c2.5,0.8,5.2,1.4,7.9,1.7 c1.2,0.1,6.7,1.1,7.5,0.2c-0.2,0.2-0.3,0.4-0.4,0.6C290.6,289,290.3,289.4,289.9,289.7z" class="st1"/><path d="M289.9,289.7c-25.4,15.7-56.7,19.8-85.4,10.8c-0.9-0.3-1.4-1.2-1.2-2.2c0-0.1,0.1-0.2,0.1-0.3 c1-3.7,1.4-7.9-0.1-11.5c-0.6-1.4-1.3-2.6-1.9-3.9c-1.7-4-1.4-8.7,0.6-12.5c0.5-1,1.2-1.9,2.1-2.6c2.8-2,8.2-0.9,11.6-0.6 c4.6,0.4,9.1,1.1,13.5,2.1c7,1.6,13.8,4.2,21,4.8c2.3,0.2,14,0.3,14.6,2.8v0.1c1.6,5.6,5.4,7.7,10.7,9.4c2.5,0.8,5.2,1.4,7.9,1.7 c1.2,0.1,6.7,1.1,7.5,0.2c-0.2,0.2-0.3,0.4-0.4,0.6C290.6,289,290.3,289.4,289.9,289.7z" class="st3"/><circle cx="232.6" cy="198.1" r="114.9" class="st4"/><circle cx="232.6" cy="198.1" r="131" class="st4"/><circle cx="338.2" cy="113.2" r="15.1" class="st5"/><circle cx="323.1" cy="128.3" r="10.4" class="st6"/><g><g><path d="M209.5,134.8c0.8-0.6,1.6-1.2,2.4-1.8" class="st7"/><path d="M223.1,125.4c59.2-39.8,112.5-56.3,128.4-37c9.4,11.4,4.2,33.2-12,59.6" class="st8"/><path d="M335.9,153.7c-0.5,0.8-1.1,1.7-1.7,2.5" class="st7"/></g></g><g><g><path d="M169.8,301.5c-0.9,0.5-1.8,0.9-2.7,1.4" class="st7"/><path d="M154.8,309c-36.8,17.2-66.1,21.1-77.3,7.6c-9.8-11.9-3.7-34.9,14-62.7" class="st9"/><path d="M95.3,248.2c0.6-0.8,1.1-1.6,1.7-2.5" class="st7"/></g></g><g><rect width="5.8" height="1.3" x="136" y="172.2" class="st10" transform="matrix(0.4959 -0.8684 0.8684 0.4959 -80.0492 207.7233)"/><rect width="6.5" height="3.6" x="138.8" y="165.3" class="st10" transform="matrix(0.4959 -0.8684 0.8684 0.4959 -73.5552 207.6369)"/><rect width="6.5" height="3.6" x="146.3" y="152.5" class="st10" transform="matrix(0.4959 -0.8684 0.8684 0.4959 -58.6334 207.6282)"/><rect width="2.4" height="5.1" x="153.7" y="142.3" class="st10" transform="matrix(0.4959 -0.8684 0.8684 0.4959 -47.6315 207.5281)"/><path d="M145.7,208.7l-8.5-4.8c1.6,0.1,3.3,0.6,4.8,1.5C143.5,206.2,144.7,207.4,145.7,208.7z" class="st10"/><path d="M133.8,209.9l8.5,4.8c-1.6-0.1-3.3-0.6-4.8-1.5C136,212.4,134.8,211.2,133.8,209.9z" class="st10"/><rect width="6.9" height="11.3" x="136.3" y="203.7" class="st11" transform="matrix(0.4959 -0.8684 0.8684 0.4959 -111.3339 226.8817)"/><rect width="4.7" height="7.7" x="130.1" y="180.1" class="st11" transform="matrix(0.4959 -0.8684 0.8684 0.4959 -93.0212 207.733)"/><rect width="4.7" height="7.7" x="130.1" y="180.1" class="st12" transform="matrix(0.4959 -0.8684 0.8684 0.4959 -93.0212 207.733)"/><rect width="2.6" height="6.9" x="114.1" y="211.2" class="st13" transform="matrix(0.4959 -0.8684 0.8684 0.4959 -128.217 208.4014)"/><rect width="4.7" height="7.7" x="125.4" y="188.3" class="st11" transform="matrix(0.4959 -0.8684 0.8684 0.4959 -102.5234 207.8114)"/><rect width="4.7" height="7.7" x="125.4" y="188.3" class="st12" transform="matrix(0.4959 -0.8684 0.8684 0.4959 -102.5234 207.8114)"/><polygon points="108 178.6 107.4 178.7 106.8 178.8 106.7 177.9 105.6 170.6 98.6 173.4 97.5 173.9 97.3 173.7 97.1 172.6 96 165 88.9 167.9 87.9 168.4 87.6 168.2 87.4 167.1 86.3 159.5 79.3 162.4 78.2 162.9 78 162.7 77.8 161.6 76.7 154 69.6 156.9 68.5 157.4 68.3 157.2 68.2 156 67.2 150 67.1 148.5 67.5 147.7 68 147.7 68.2 148.5 69.2 155.9 76.3 153 77.4 152.5 77.6 152.7 77.7 153.8 78.9 161.4 85.9 158.5 87 158 87.3 158.2 87.4 159.4 88.6 166.9 95.5 164 96.7 163.6 96.9 163.7 97.1 164.9 98.2 172.4 105.2 169.5 106.4 169.1 106.5 169.2 106.7 170.4 107.6 176.4 107.8 177.9" class="st11"/><polygon points="197.7 222.2 197.3 223 195.9 223.5 190.3 225.8 189.2 226.3 188.9 226.1 188.7 224.9 187.7 217.5 180.7 220.3 179.6 220.8 179.3 220.6 179.1 219.4 178 211.9 171.1 214.8 169.9 215.3 169.7 215.3 169.6 215.1 169.4 213.9 168.3 206.4 161.4 209.3 160.3 209.7 160 209.6 159.8 208.3 158.7 200.9 151.8 203.8 151 204.1 150.6 203 151.2 202.8 152.6 202.2 158.3 199.9 159.4 199.4 159.6 199.5 159.8 200.7 160.9 208.3 168 205.4 169.1 204.9 169.3 205 169.4 206.2 170.6 213.8 177.7 210.9 178.8 210.4 178.9 210.6 179.1 211.7 180.2 219.3 187.3 216.4 188.4 215.9 188.5 215.9 188.5 216.1 188.7 217.2 189.8 224.8 196.8 222 197.6 221.7" class="st11"/><polygon points="108 178.6 107.4 178.7 106.8 178.8 106.7 177.9 105.6 170.6 98.6 173.4 97.5 173.9 97.3 173.7 97.1 172.6 96 165 88.9 167.9 87.9 168.4 87.6 168.2 87.4 167.1 86.3 159.5 79.3 162.4 78.2 162.9 78 162.7 77.8 161.6 76.7 154 69.6 156.9 68.5 157.4 68.3 157.2 68.2 156 67.2 150 67.1 148.5 67.5 147.7 68 147.7 68.2 148.5 69.2 155.9 76.3 153 77.4 152.5 77.6 152.7 77.7 153.8 78.9 161.4 85.9 158.5 87 158 87.3 158.2 87.4 159.4 88.6 166.9 95.5 164 96.7 163.6 96.9 163.7 97.1 164.9 98.2 172.4 105.2 169.5 106.4 169.1 106.5 169.2 106.7 170.4 107.6 176.4 107.8 177.9" class="st14"/><polygon points="197.7 222.2 197.3 223 195.9 223.5 190.3 225.8 189.2 226.3 188.9 226.1 188.7 224.9 187.7 217.5 180.7 220.3 179.6 220.8 179.3 220.6 179.1 219.4 178 211.9 171.1 214.8 169.9 215.3 169.7 215.3 169.6 215.1 169.4 213.9 168.3 206.4 161.4 209.3 160.3 209.7 160 209.6 159.8 208.3 158.7 200.9 151.8 203.8 151 204.1 150.6 203 151.2 202.8 152.6 202.2 158.3 199.9 159.4 199.4 159.6 199.5 159.8 200.7 160.9 208.3 168 205.4 169.1 204.9 169.3 205 169.4 206.2 170.6 213.8 177.7 210.9 178.8 210.4 178.9 210.6 179.1 211.7 180.2 219.3 187.3 216.4 188.4 215.9 188.5 215.9 188.5 216.1 188.7 217.2 189.8 224.8 196.8 222 197.6 221.7" class="st14"/><rect width="1.2" height="22.2" x="136.4" y="165" class="st11" transform="matrix(0.4959 -0.8684 0.8684 0.4959 -83.819 207.7925)"/><circle cx="135.2" cy="165.2" r="1.7" class="st15"/><line x1="135.2" x2="135.8" y1="165.2" y2="173.1" class="st16"/><rect width="11.1" height="10.8" x="102.7" y="197.6" class="st11" transform="matrix(0.4959 -0.8684 0.8684 0.4959 -121.6983 196.324)"/><path d="M106,196l-4.8,8.5c0.1-1.6,0.6-3.3,1.5-4.8C103.5,198.3,104.7,197,106,196z" class="st10"/><path d="M133.2,171.6l-4.4,7.8c0.1-1.5,0.6-3,1.4-4.4C130.9,173.6,131.9,172.4,133.2,171.6z" class="st10"/><path d="M127.2,207.8l-4.8,8.5c0.1-1.6,0.6-3.3,1.5-4.8C124.6,210,125.8,208.8,127.2,207.8z" class="st10"/><path d="M110.7,209.6l4.8-8.5c-0.1,1.6-0.6,3.3-1.5,4.8C113.2,207.4,112,208.7,110.7,209.6z" class="st10"/><path d="M115.7,200.9l-5.5,9.6l-9.1-5.2c0-0.2,0-0.5,0.1-0.7l4.8-8.5c0.2-0.1,0.4-0.2,0.6-0.4L115.7,200.9z" class="st17"/><rect width="51.5" height="7.8" x="26.7" y="178" class="st18" transform="matrix(0.4959 -0.8684 0.8684 0.4959 -131.5246 137.2908)"/><rect width="51.5" height="7.8" x="35" y="182.7" class="st18" transform="matrix(0.4959 -0.8684 0.8684 0.4959 -131.4514 146.8293)"/><rect width="51.5" height="7.8" x="43.1" y="187.3" class="st18" transform="matrix(0.4959 -0.8684 0.8684 0.4959 -131.3758 156.1956)"/><rect width="51.5" height="7.8" x="51.3" y="192" class="st18" transform="matrix(0.4959 -0.8684 0.8684 0.4959 -131.3028 165.7342)"/><rect width="51.5" height="7.8" x="125.4" y="234.3" class="st18" transform="matrix(0.4959 -0.8684 0.8684 0.4959 -130.7015 251.3396)"/><rect width="51.5" height="7.8" x="133.7" y="239.1" class="st18" transform="matrix(0.4959 -0.8684 0.8684 0.4959 -130.6279 260.9402)"/><rect width="51.5" height="7.8" x="141.7" y="243.6" class="st18" transform="matrix(0.4959 -0.8684 0.8684 0.4959 -130.5527 270.2444)"/><rect width="51.5" height="7.8" x="150.1" y="248.4" class="st18" transform="matrix(0.4959 -0.8684 0.8684 0.4959 -130.4792 279.8451)"/><rect width="23" height="11.1" x="110.2" y="197.9" class="st11" transform="matrix(0.4959 -0.8684 0.8684 0.4959 -115.3585 208.2509)"/><rect width="9.8" height="11.1" x="130.9" y="172.6" class="st11" transform="matrix(0.4959 -0.8684 0.8684 0.4959 -86.3044 207.7464)"/><rect width="11.2" height="17.3" x="126.6" y="207.6" class="st11" transform="matrix(0.4959 -0.8684 0.8684 0.4959 -121.1873 223.8356)"/><rect width="4.6" height="11.1" x="111.9" y="211.1" class="st11" transform="matrix(0.4959 -0.8684 0.8684 0.4959 -130.5368 208.3611)"/><circle cx="136.6" cy="218.8" r="6.4" class="st15"/><circle cx="141.5" cy="168.3" r="3.4" class="st11"/><circle cx="139" cy="172.6" r="1.4" class="st11"/><path d="M147.4,167.7l-8.4-4.8c-0.4-0.2-0.5-0.6-0.2-1l6.6-11.5c0.2-0.4,0.6-0.5,1-0.2l8.4,4.8 c0.4,0.2,0.5,0.6,0.2,1l-6.6,11.5C148.1,167.8,147.7,167.9,147.4,167.7z" class="st11"/><path d="M153.1,153.7c-1.9-0.6-3.6-1.5-5-2.8c-0.5-0.4-0.6-1.1-0.4-1.7c0.6-1.9,1.5-3.6,2.8-5 c0.4-0.5,1.1-0.6,1.7-0.4c1.9,0.6,3.6,1.5,5,2.8c0.5,0.4,0.6,1.1,0.4,1.7c-0.6,1.9-1.5,3.6-2.8,5 C154.4,153.7,153.8,153.8,153.1,153.7z" class="st11"/><rect width="4.9" height="9.2" x="153.8" y="137.9" class="st11" transform="matrix(0.4959 -0.8684 0.8684 0.4959 -44.9374 207.5205)"/><polygon points="161.4 142.6 153.4 138.1 153.8 134.3 164.6 140.5" class="st11"/><polygon points="161.4 142.6 153.4 138.1 153.8 134.3 164.6 140.5" class="st19"/><path d="M168.8,131.2l-9.2-5.3c-0.4-0.2-1.1-0.1-1.3,0.4l-4.5,7.9l10.8,6.2l4.5-7.9 C169.4,132.1,169.2,131.5,168.8,131.2z" class="st15"/><path d="M109.3,227.1l-2-1.2c-0.9-0.5-1.2-1.7-0.7-2.6l3.6-6.4c0,0,0.1-0.1,0.1,0l5.3,3c0,0,0.1,0.1,0,0.1l-3.6,6.4 C111.4,227.3,110.2,227.6,109.3,227.1z" class="st11"/><path d="M138.4,184.9l4.4-7.8c-0.1,1.5-0.6,3-1.4,4.4C140.7,182.9,139.7,184,138.4,184.9z" class="st10"/><circle cx="141.4" cy="168.2" r="1.8" class="st20"/><rect width=".8" height="17.4" x="69.1" y="152.9" class="st11" transform="matrix(0.4959 -0.8684 0.8684 0.4959 -105.2522 141.8505)"/><rect width=".8" height="17.4" x="85.5" y="162.2" class="st11" transform="matrix(0.4959 -0.8684 0.8684 0.4959 -105.1052 160.7829)"/><rect width=".8" height="17.4" x="167.8" y="209.3" class="st11" transform="matrix(0.4959 -0.8684 0.8684 0.4959 -104.4627 255.9709)"/><rect width=".8" height="17.4" x="184.2" y="218.6" class="st11" transform="matrix(0.4959 -0.8684 0.8684 0.4959 -104.3161 274.8413)"/><rect width="2.8" height="4.4" x="69.2" y="157.9" class="st11" transform="matrix(0.4959 -0.8684 0.8684 0.4959 -103.4335 142.0344)"/><rect width="2.8" height="4.4" x="85.4" y="167.2" class="st11" transform="matrix(0.4959 -0.8684 0.8684 0.4959 -103.3199 160.756)"/><rect width="2.8" height="4.4" x="167.7" y="214.2" class="st11" transform="matrix(0.4959 -0.8684 0.8684 0.4959 -102.6309 255.9221)"/><rect width="2.8" height="4.4" x="183.9" y="223.4" class="st11" transform="matrix(0.4959 -0.8684 0.8684 0.4959 -102.5172 274.6437)"/><rect width="51.5" height="7.8" x="183.3" y="190.1" class="st18" transform="matrix(0.4959 -0.8684 0.8684 0.4959 -63.0953 279.381)"/><rect width="51.5" height="7.8" x="175" y="185.4" class="st18" transform="matrix(0.4959 -0.8684 0.8684 0.4959 -63.1689 269.7804)"/><rect width="51.5" height="7.8" x="166.9" y="180.7" class="st18" transform="matrix(0.4959 -0.8684 0.8684 0.4959 -63.1825 260.4137)"/><rect width="51.5" height="7.8" x="158.7" y="176" class="st18" transform="matrix(0.4959 -0.8684 0.8684 0.4959 -63.2555 250.8751)"/><rect width="51.5" height="7.8" x="84.7" y="133.8" class="st18" transform="matrix(0.4959 -0.8684 0.8684 0.4959 -63.9188 165.2702)"/><rect width="51.5" height="7.8" x="76.4" y="129.1" class="st18" transform="matrix(0.4959 -0.8684 0.8684 0.4959 -63.992 155.7316)"/><rect width="51.5" height="7.8" x="68.3" y="124.4" class="st18" transform="matrix(0.4959 -0.8684 0.8684 0.4959 -64.0676 146.3653)"/><rect width="51.5" height="7.8" x="60" y="119.7" class="st18" transform="matrix(0.4959 -0.8684 0.8684 0.4959 -64.1411 136.7648)"/><rect width=".8" height="17.4" x="191.5" y="205.7" class="st11" transform="matrix(0.4959 -0.8684 0.8684 0.4959 -89.3848 274.749)"/><rect width=".8" height="17.4" x="175.2" y="196.3" class="st11" transform="matrix(0.4959 -0.8684 0.8684 0.4959 -89.5059 255.8458)"/><rect width=".8" height="17.4" x="93" y="149.3" class="st11" transform="matrix(0.4959 -0.8684 0.8684 0.4959 -90.1458 160.7249)"/><rect width=".8" height="17.4" x="76.6" y="139.9" class="st11" transform="matrix(0.4959 -0.8684 0.8684 0.4959 -90.2674 141.7596)"/><rect width="2.8" height="4.4" x="189.5" y="213.6" class="st11" transform="matrix(0.4959 -0.8684 0.8684 0.4959 -91.129 274.5798)"/><rect width="2.8" height="4.4" x="173.3" y="204.3" class="st11" transform="matrix(0.4959 -0.8684 0.8684 0.4959 -91.2808 255.8443)"/><rect width="2.8" height="4.4" x="91.1" y="157.4" class="st11" transform="matrix(0.4959 -0.8684 0.8684 0.4959 -91.9403 160.7199)"/><rect width="2.8" height="4.4" x="74.9" y="148.1" class="st11" transform="matrix(0.4959 -0.8684 0.8684 0.4959 -92.0916 142.0465)"/><circle cx="152.7" cy="148.7" r="2.6" class="st15"/><rect width="3.1" height="4.3" x="117.5" y="157.2" class="st18" transform="matrix(0.4959 -0.8684 0.8684 0.4959 -78.3969 183.7481)"/><rect width="3.1" height="4.3" x="121.8" y="159.7" class="st18" transform="matrix(0.4959 -0.8684 0.8684 0.4959 -78.3872 188.6783)"/><rect width="3.1" height="4.3" x="126" y="162.1" class="st18" transform="matrix(0.4959 -0.8684 0.8684 0.4959 -78.3774 193.6085)"/><rect width="3.1" height="4.3" x="115.7" y="160.5" class="st18" transform="matrix(0.4959 -0.8684 0.8684 0.4959 -82.1408 183.8024)"/><rect width="3.1" height="4.3" x="120" y="162.9" class="st18" transform="matrix(0.4959 -0.8684 0.8684 0.4959 -82.069 188.7321)"/><rect width="3.1" height="4.3" x="124.2" y="165.3" class="st18" transform="matrix(0.4959 -0.8684 0.8684 0.4959 -82.0592 193.6622)"/><rect width="3.1" height="4.3" x="113.8" y="163.7" class="st18" transform="matrix(0.4959 -0.8684 0.8684 0.4959 -85.823 183.7941)"/><rect width="3.1" height="4.3" x="118.1" y="166.1" class="st18" transform="matrix(0.4959 -0.8684 0.8684 0.4959 -85.8132 188.7243)"/><rect width="3.1" height="4.3" x="122.4" y="168.5" class="st18" transform="matrix(0.4959 -0.8684 0.8684 0.4959 -85.7414 193.654)"/><rect width="3.1" height="4.3" x="112.1" y="166.9" class="st18" transform="matrix(0.4959 -0.8684 0.8684 0.4959 -89.5048 183.8479)"/><rect width="3.1" height="4.3" x="116.3" y="169.3" class="st18" transform="matrix(0.4959 -0.8684 0.8684 0.4959 -89.495 188.778)"/><rect width="3.1" height="4.3" x="120.6" y="171.7" class="st18" transform="matrix(0.4959 -0.8684 0.8684 0.4959 -89.4231 193.7077)"/><rect width="14.2" height=".8" x="120" y="170" class="st11" transform="matrix(0.4959 -0.8684 0.8684 0.4959 -83.8934 196.2506)"/><rect width="3.1" height="4.3" x="153.5" y="190.5" class="st18" transform="matrix(0.4959 -0.8684 0.8684 0.4959 -89.1814 231.7933)"/><rect width="3.1" height="4.3" x="149.2" y="188.1" class="st18" transform="matrix(0.4959 -0.8684 0.8684 0.4959 -89.2415 226.8634)"/><rect width="3.1" height="4.3" x="145" y="185.7" class="st18" transform="matrix(0.4959 -0.8684 0.8684 0.4959 -89.2395 221.933)"/><rect width="3.1" height="4.3" x="155.4" y="187.3" class="st18" transform="matrix(0.4959 -0.8684 0.8684 0.4959 -85.468 231.7947)"/><rect width="3.1" height="4.3" x="151.1" y="184.9" class="st18" transform="matrix(0.4959 -0.8684 0.8684 0.4959 -85.5281 226.8648)"/><rect width="3.1" height="4.3" x="146.8" y="182.5" class="st18" transform="matrix(0.4959 -0.8684 0.8684 0.4959 -85.5261 221.9343)"/><rect width="3.1" height="4.3" x="157.1" y="184.2" class="st18" transform="matrix(0.4959 -0.8684 0.8684 0.4959 -81.8172 231.7345)"/><rect width="3.1" height="4.3" x="152.9" y="181.7" class="st18" transform="matrix(0.4959 -0.8684 0.8684 0.4959 -81.8152 226.8041)"/><rect width="3.1" height="4.3" x="148.6" y="179.3" class="st18" transform="matrix(0.4959 -0.8684 0.8684 0.4959 -81.8753 221.8741)"/><rect width="3.1" height="4.3" x="159" y="181" class="st18" transform="matrix(0.4959 -0.8684 0.8684 0.4959 -78.1038 231.7358)"/><rect width="3.1" height="4.3" x="154.8" y="178.5" class="st18" transform="matrix(0.4959 -0.8684 0.8684 0.4959 -78.1019 226.8054)"/><rect width="3.1" height="4.3" x="150.5" y="176.1" class="st18" transform="matrix(0.4959 -0.8684 0.8684 0.4959 -78.162 221.8754)"/><rect width="14.2" height=".8" x="140" y="181.4" class="st11" transform="matrix(0.4959 -0.8684 0.8684 0.4959 -83.698 219.3438)"/><rect width="2" height="2.3" x="161.1" y="149.7" class="st18" transform="matrix(0.4959 -0.8684 0.8684 0.4959 -49.3452 216.8327)"/><rect width="2" height="2.3" x="163.6" y="151.2" class="st18" transform="matrix(0.4959 -0.8684 0.8684 0.4959 -49.3384 219.7165)"/><rect width="2" height="2.3" x="166.2" y="152.6" class="st18" transform="matrix(0.4959 -0.8684 0.8684 0.4959 -49.2691 222.6621)"/><rect width="2" height="2.3" x="168.6" y="154" class="st18" transform="matrix(0.4959 -0.8684 0.8684 0.4959 -49.2623 225.5461)"/><rect width="2" height="2.3" x="171.1" y="155.5" class="st18" transform="matrix(0.4959 -0.8684 0.8684 0.4959 -49.2555 228.43)"/><rect width="2" height="2.3" x="173.7" y="156.9" class="st18" transform="matrix(0.4959 -0.8684 0.8684 0.4959 -49.2483 231.376)"/><rect width="2" height="2.3" x="176.2" y="158.4" class="st18" transform="matrix(0.4959 -0.8684 0.8684 0.4959 -49.2415 234.2599)"/><rect width="2" height="2.3" x="178.7" y="159.8" class="st18" transform="matrix(0.4959 -0.8684 0.8684 0.4959 -49.1727 237.1434)"/><rect width="2" height="2.3" x="181.2" y="161.2" class="st18" transform="matrix(0.4959 -0.8684 0.8684 0.4959 -49.1654 240.0894)"/><rect width="2" height="2.3" x="159.8" y="151.9" class="st18" transform="matrix(0.4959 -0.8684 0.8684 0.4959 -51.8677 216.8455)"/><rect width="2" height="2.3" x="162.3" y="153.4" class="st18" transform="matrix(0.4959 -0.8684 0.8684 0.4959 -51.861 219.7294)"/><rect width="2" height="2.3" x="164.9" y="154.8" class="st18" transform="matrix(0.4959 -0.8684 0.8684 0.4959 -51.7917 222.6749)"/><rect width="2" height="2.3" x="167.4" y="156.2" class="st18" transform="matrix(0.4959 -0.8684 0.8684 0.4959 -51.7849 225.5589)"/><rect width="2" height="2.3" x="169.9" y="157.6" class="st18" transform="matrix(0.4959 -0.8684 0.8684 0.4959 -51.7781 228.4428)"/><rect width="2" height="2.3" x="172.4" y="159.1" class="st18" transform="matrix(0.4959 -0.8684 0.8684 0.4959 -51.7708 231.3888)"/><rect width="2" height="2.3" x="174.9" y="160.5" class="st18" transform="matrix(0.4959 -0.8684 0.8684 0.4959 -51.7019 234.2723)"/><rect width="2" height="2.3" x="177.4" y="161.9" class="st18" transform="matrix(0.4959 -0.8684 0.8684 0.4959 -51.6952 237.1562)"/><rect width="2" height="2.3" x="180" y="163.4" class="st18" transform="matrix(0.4959 -0.8684 0.8684 0.4959 -51.688 240.1022)"/><rect width="2" height="2.3" x="158.5" y="154.3" class="st18" transform="matrix(0.4959 -0.8684 0.8684 0.4959 -54.6528 216.8487)"/><rect width="2" height="2.3" x="161" y="155.8" class="st18" transform="matrix(0.4959 -0.8684 0.8684 0.4959 -54.6456 219.7947)"/><rect width="2" height="2.3" x="163.5" y="157.2" class="st18" transform="matrix(0.4959 -0.8684 0.8684 0.4959 -54.5767 222.6782)"/><rect width="2" height="2.3" x="166" y="158.6" class="st18" transform="matrix(0.4959 -0.8684 0.8684 0.4959 -54.5699 225.5621)"/><rect width="2" height="2.3" x="168.5" y="160.1" class="st18" transform="matrix(0.4959 -0.8684 0.8684 0.4959 -54.5627 228.508)"/><rect width="2" height="2.3" x="171" y="161.5" class="st18" transform="matrix(0.4959 -0.8684 0.8684 0.4959 -54.5559 231.392)"/><rect width="2" height="2.3" x="173.6" y="162.9" class="st18" transform="matrix(0.4959 -0.8684 0.8684 0.4959 -54.4871 234.2756)"/><rect width="2" height="2.3" x="176.1" y="164.4" class="st18" transform="matrix(0.4959 -0.8684 0.8684 0.4959 -54.4798 237.2215)"/><rect width="2" height="2.3" x="178.6" y="165.8" class="st18" transform="matrix(0.4959 -0.8684 0.8684 0.4959 -54.473 240.1054)"/><rect width="2" height="2.3" x="157.2" y="156.5" class="st18" transform="matrix(0.4959 -0.8684 0.8684 0.4959 -57.1754 216.8615)"/><rect width="2" height="2.3" x="159.8" y="157.9" class="st18" transform="matrix(0.4959 -0.8684 0.8684 0.4959 -57.1061 219.807)"/><rect width="2" height="2.3" x="162.3" y="159.4" class="st18" transform="matrix(0.4959 -0.8684 0.8684 0.4959 -57.0993 222.6909)"/><rect width="2" height="2.3" x="164.8" y="160.8" class="st18" transform="matrix(0.4959 -0.8684 0.8684 0.4959 -57.0925 225.5749)"/><rect width="2" height="2.3" x="167.3" y="162.3" class="st18" transform="matrix(0.4959 -0.8684 0.8684 0.4959 -57.0853 228.5209)"/><rect width="2" height="2.3" x="169.8" y="163.7" class="st18" transform="matrix(0.4959 -0.8684 0.8684 0.4959 -57.0785 231.4048)"/><rect width="2" height="2.3" x="172.3" y="165.1" class="st18" transform="matrix(0.4959 -0.8684 0.8684 0.4959 -57.0096 234.2883)"/><rect width="2" height="2.3" x="174.8" y="166.5" class="st18" transform="matrix(0.4959 -0.8684 0.8684 0.4959 -57.0024 237.2343)"/><rect width="2" height="2.3" x="177.3" y="168" class="st18" transform="matrix(0.4959 -0.8684 0.8684 0.4959 -56.9956 240.1183)"/><rect width="2" height="2.3" x="125.2" y="129.2" class="st18" transform="matrix(0.4959 -0.8684 0.8684 0.4959 -49.6373 175.2659)"/><rect width="2" height="2.3" x="127.7" y="130.7" class="st18" transform="matrix(0.4959 -0.8684 0.8684 0.4959 -49.63 178.2118)"/><rect width="2" height="2.3" x="130.2" y="132.1" class="st18" transform="matrix(0.4959 -0.8684 0.8684 0.4959 -49.6233 181.0957)"/><rect width="2" height="2.3" x="132.7" y="133.5" class="st18" transform="matrix(0.4959 -0.8684 0.8684 0.4959 -49.5544 183.9793)"/><rect width="2" height="2.3" x="135.2" y="135" class="st18" transform="matrix(0.4959 -0.8684 0.8684 0.4959 -49.5471 186.9253)"/><rect width="2" height="2.3" x="137.7" y="136.4" class="st18" transform="matrix(0.4959 -0.8684 0.8684 0.4959 -49.5404 189.8092)"/><rect width="2" height="2.3" x="140.2" y="137.8" class="st18" transform="matrix(0.4959 -0.8684 0.8684 0.4959 -49.5336 192.6931)"/><rect width="2" height="2.3" x="142.8" y="139.2" class="st18" transform="matrix(0.4959 -0.8684 0.8684 0.4959 -49.4643 195.6387)"/><rect width="2" height="2.3" x="145.3" y="140.7" class="st18" transform="matrix(0.4959 -0.8684 0.8684 0.4959 -49.4575 198.5226)"/><rect width="2" height="2.3" x="123.9" y="131.4" class="st18" transform="matrix(0.4959 -0.8684 0.8684 0.4959 -52.1598 175.2787)"/><rect width="2" height="2.3" x="126.4" y="132.9" class="st18" transform="matrix(0.4959 -0.8684 0.8684 0.4959 -52.1525 178.2246)"/><rect width="2" height="2.3" x="129" y="134.2" class="st18" transform="matrix(0.4959 -0.8684 0.8684 0.4959 -52.0837 181.1081)"/><rect width="2" height="2.3" x="131.4" y="135.7" class="st18" transform="matrix(0.4959 -0.8684 0.8684 0.4959 -52.0769 183.9921)"/><rect width="2" height="2.3" x="134" y="137.1" class="st18" transform="matrix(0.4959 -0.8684 0.8684 0.4959 -52.0697 186.938)"/><rect width="2" height="2.3" x="136.5" y="138.6" class="st18" transform="matrix(0.4959 -0.8684 0.8684 0.4959 -52.0629 189.822)"/><rect width="2" height="2.3" x="139" y="140" class="st18" transform="matrix(0.4959 -0.8684 0.8684 0.4959 -51.9936 192.7675)"/><rect width="2" height="2.3" x="141.5" y="141.4" class="st18" transform="matrix(0.4959 -0.8684 0.8684 0.4959 -51.9868 195.6515)"/><rect width="2" height="2.3" x="144" y="142.9" class="st18" transform="matrix(0.4959 -0.8684 0.8684 0.4959 -51.98 198.5354)"/><rect width="2" height="2.3" x="122.6" y="133.8" class="st18" transform="matrix(0.4959 -0.8684 0.8684 0.4959 -54.9445 175.3439)"/><rect width="2" height="2.3" x="125.1" y="135.3" class="st18" transform="matrix(0.4959 -0.8684 0.8684 0.4959 -54.9377 178.2278)"/><rect width="2" height="2.3" x="127.6" y="136.6" class="st18" transform="matrix(0.4959 -0.8684 0.8684 0.4959 -54.8688 181.1114)"/><rect width="2" height="2.3" x="130.1" y="138.1" class="st18" transform="matrix(0.4959 -0.8684 0.8684 0.4959 -54.8616 184.0574)"/><rect width="2" height="2.3" x="132.6" y="139.5" class="st18" transform="matrix(0.4959 -0.8684 0.8684 0.4959 -54.8548 186.9413)"/><rect width="2" height="2.3" x="135.1" y="141" class="st18" transform="matrix(0.4959 -0.8684 0.8684 0.4959 -54.848 189.8252)"/><rect width="2" height="2.3" x="137.7" y="142.4" class="st18" transform="matrix(0.4959 -0.8684 0.8684 0.4959 -54.7787 192.7708)"/><rect width="2" height="2.3" x="140.1" y="143.8" class="st18" transform="matrix(0.4959 -0.8684 0.8684 0.4959 -54.772 195.6547)"/><rect width="2" height="2.3" x="142.6" y="145.3" class="st18" transform="matrix(0.4959 -0.8684 0.8684 0.4959 -54.7652 198.5387)"/><rect width="2" height="2.3" x="121.3" y="136" class="st18" transform="matrix(0.4959 -0.8684 0.8684 0.4959 -57.467 175.3567)"/><rect width="2" height="2.3" x="123.8" y="137.4" class="st18" transform="matrix(0.4959 -0.8684 0.8684 0.4959 -57.3982 178.2402)"/><rect width="2" height="2.3" x="126.3" y="138.8" class="st18" transform="matrix(0.4959 -0.8684 0.8684 0.4959 -57.3914 181.1242)"/><rect width="2" height="2.3" x="128.9" y="140.3" class="st18" transform="matrix(0.4959 -0.8684 0.8684 0.4959 -57.3841 184.0702)"/><rect width="2" height="2.3" x="131.3" y="141.7" class="st18" transform="matrix(0.4959 -0.8684 0.8684 0.4959 -57.3774 186.9541)"/><rect width="2" height="2.3" x="133.9" y="143.2" class="st18" transform="matrix(0.4959 -0.8684 0.8684 0.4959 -57.3701 189.9001)"/><rect width="2" height="2.3" x="136.4" y="144.6" class="st18" transform="matrix(0.4959 -0.8684 0.8684 0.4959 -57.3012 192.7836)"/><rect width="2" height="2.3" x="138.9" y="146" class="st18" transform="matrix(0.4959 -0.8684 0.8684 0.4959 -57.2945 195.6675)"/><rect width="2" height="2.3" x="141.4" y="147.5" class="st18" transform="matrix(0.4959 -0.8684 0.8684 0.4959 -57.2873 198.6135)"/><rect width=".8" height="41.4" x="140.8" y="122.7" class="st11" transform="matrix(0.4959 -0.8684 0.8684 0.4959 -53.3748 194.9534)"/><rect width=".8" height="25.5" x="169.8" y="147.3" class="st11" transform="matrix(0.4959 -0.8684 0.8684 0.4959 -53.1816 228.4719)"/><rect width="5.8" height="4" x="150.5" y="160.8" class="st11" transform="matrix(0.4959 -0.8684 0.8684 0.4959 -64.0067 215.2083)"/><circle cx="155" cy="163.7" r="3.2" class="st15"/><circle cx="152.7" cy="148.7" r="2.6" class="st15"/><circle cx="152.7" cy="148.7" r="2.6" class="st15"/><circle cx="152.7" cy="148.7" r="2.6" class="st15"/><circle cx="152.7" cy="148.7" r="2.6" class="st15"/><circle cx="152.7" cy="148.7" r="2.6" class="st15"/><circle cx="152.7" cy="148.7" r="2.6" class="st15"/><circle cx="152.7" cy="148.7" r="2.6" class="st15"/><circle cx="152.7" cy="148.7" r="2.6" class="st15"/><circle cx="152.7" cy="148.7" r="2.6" class="st15"/><circle cx="152.7" cy="148.7" r="2.6" class="st15"/><circle cx="152.7" cy="148.7" r="2.6" class="st15"/><circle cx="154.2" cy="145.9" r=".2" class="st15"/><circle cx="152.7" cy="145.5" r=".2" class="st15"/><circle cx="151.2" cy="145.9" r=".2" class="st15"/><circle cx="150" cy="147.1" r=".2" class="st15"/><circle cx="149.6" cy="148.7" r=".2" class="st15"/><circle cx="150" cy="150.2" r=".2" class="st15"/><circle cx="151.2" cy="151.3" r=".2" class="st15"/><circle cx="152.7" cy="151.7" r=".2" class="st15"/><circle cx="154.3" cy="151.3" r=".2" class="st15"/><circle cx="155.4" cy="150.2" r=".2" class="st15"/><circle cx="155.9" cy="148.6" r=".2" class="st15"/><circle cx="155.4" cy="147" r=".2" class="st15"/><rect width="12.6" height="5.1" x="140.5" y="156.4" class="st12" transform="matrix(0.4959 -0.8684 0.8684 0.4959 -64.049 207.6023)"/><rect width="12.6" height=".7" x="138.6" y="157.5" class="st21" transform="matrix(0.4959 -0.8684 0.8684 0.4959 -64.0451 205.4184)"/><rect width="12.6" height=".7" x="142.3" y="159.7" class="st21" transform="matrix(0.4959 -0.8684 0.8684 0.4959 -64.0706 209.7815)"/><rect width="9.8" height="5.6" x="133.3" y="176.8" class="st22" transform="matrix(0.4959 -0.8684 0.8684 0.4959 -86.2644 210.5423)"/><rect width="4.6" height="5.6" x="114.4" y="215.2" class="st22" transform="matrix(0.4959 -0.8684 0.8684 0.4959 -130.498 211.2439)"/><circle cx="135.8" cy="178.3" r="3.6" class="st15"/><circle cx="135.8" cy="178.3" r="2.6" class="st10"/><path d="M67.9,147.1l-4.2,7.4l43.4,24.8l4.2-7.4L67.9,147.1z M106.7,178.1l-41.8-23.9l3.3-5.7l41.8,23.9L106.7,178.1 z" class="st15"/><rect width="8.5" height="50" x="126.6" y="163" class="st15" transform="matrix(0.4959 -0.8684 0.8684 0.4959 -97.3104 208.4394)"/><path d="M154.7,196.7l-4.2,7.4l43.4,24.8l4.2-7.4L154.7,196.7z M193.5,227.6l-41.8-23.9l3.3-5.7l41.8,23.9 L193.5,227.6z" class="st15"/><polygon points="95.1 99.3 102 103.2 81.9 138.2 69.6 144" class="st23"/><polygon points="103.4 104 110.2 107.9 97 131.2 84.6 137" class="st23"/><polygon points="111.5 108.7 118.3 112.6 111.6 124.3 99.2 130.1" class="st23"/><polygon points="126.6 117.3 114.2 123.1 119.8 113.4" class="st23"/><polygon points="193.8 155.7 200.6 159.6 180.6 194.6 168.3 200.4" class="st23"/><polygon points="208.9 164.3 195.6 187.5 183.2 193.3 202 160.4" class="st23"/><polygon points="217 168.9 210.2 180.7 197.9 186.5 210.1 165" class="st23"/><polygon points="225.2 173.7 212.9 179.4 218.4 169.8" class="st23"/><polygon points="160.5 214 167.3 217.9 147.3 252.8 135 258.6" class="st23"/><polygon points="175.6 222.6 162.3 245.8 150 251.6 168.8 218.7" class="st23"/><polygon points="183.7 227.2 177 238.9 164.6 244.7 176.9 223.3" class="st23"/><polygon points="191.9 231.9 179.6 237.7 185.1 228" class="st23"/><polygon points="61.8 157.6 68.7 161.6 48.7 196.5 36.3 202.3" class="st23"/><polygon points="70.1 162.4 76.9 166.3 63.7 189.5 51.3 195.3" class="st23"/><polygon points="78.2 167 85 170.9 78.3 182.6 65.9 188.4" class="st23"/><polygon points="93.3 175.6 80.9 181.4 86.5 171.7" class="st23"/></g><g><path d="M206.6,115.5H97.5c-2.9,0-5.2-2.3-5.2-5.2V78.7c0-2.9,2.3-5.2,5.2-5.2h109.1c2.9,0,5.2,2.3,5.2,5.2v31.7 C211.7,113.2,209.4,115.5,206.6,115.5" class="st24"/><polygon points="150 107.8 150 107.8 142.6 115.2 150 122.6 157.4 115.2" class="st24"/><g><path d="M109.5,91.9l-2,7c-0.1,0.4-0.5,0.7-1,0.7c-0.4,0-0.8-0.3-0.9-0.7l-2.9-9.8c0-0.1-0.1-0.2-0.1-0.3 c0-0.5,0.4-1,1-1s0.9,0.4,0.9,0.7l2,7.2l2-7.2c0.1-0.4,0.5-0.7,1-0.7s0.8,0.3,1,0.7l2,7.2l2-7.2c0.1-0.3,0.4-0.7,0.9-0.7 s1,0.4,1,1c0,0.1,0,0.2-0.1,0.3l-2.9,9.8c-0.1,0.4-0.5,0.7-0.9,0.7c-0.5,0-0.8-0.3-1-0.7L109.5,91.9z" class="st25"/><path d="M119.4,92.5c0.3-0.5,1-1,2.2-1c2.3,0,2.9,1.5,2.9,3v4.3c0,0.5-0.4,0.9-0.9,0.9c-0.5,0-0.9-0.4-0.9-0.9v-3.9 c0-1-0.4-1.6-1.5-1.6c-1.3,0-1.7,0.8-1.7,1.8v3.8c0,0.5-0.4,0.9-0.9,0.9s-0.9-0.4-0.9-0.9V88.3c0-0.5,0.4-0.9,0.9-0.9 s0.9,0.4,0.9,0.9V92.5z" class="st25"/><path d="M129.5,91.5c2.9,0,3.4,2.2,3.4,3.4c0,0.6,0,1.4-1,1.4h-4.2c0,1.2,0.9,1.8,2,1.8c0.8,0,1.3-0.3,1.7-0.5 c0.2-0.1,0.3-0.2,0.5-0.2c0.4,0,0.8,0.4,0.8,0.8c0,0.3-0.1,0.5-0.3,0.6c-0.3,0.3-1.2,0.9-2.8,0.9c-2.4,0-3.9-1.3-3.9-4.2 C125.8,93,127.1,91.5,129.5,91.5z M127.7,94.8h3.4c0-0.8-0.5-1.7-1.6-1.7C128.5,93.1,127.7,93.7,127.7,94.8z" class="st25"/><path d="M136,92.6c0.3-0.7,1.1-1.1,1.9-1.1c0.5,0,0.9,0.4,0.9,0.9s-0.4,0.9-0.9,0.9c-1.2,0-1.9,0.8-1.9,1.9v3.6 c0,0.5-0.4,0.9-0.9,0.9s-0.9-0.4-0.9-0.9v-6.2c0-0.5,0.4-0.9,0.9-0.9S136,92,136,92.6L136,92.6z" class="st25"/><path d="M142.9,91.5c2.9,0,3.4,2.2,3.4,3.4c0,0.6,0,1.4-1,1.4h-4.2c0,1.2,0.9,1.8,2,1.8c0.8,0,1.3-0.3,1.7-0.5 c0.2-0.1,0.3-0.2,0.5-0.2c0.4,0,0.8,0.4,0.8,0.8c0,0.3-0.1,0.5-0.3,0.6c-0.3,0.3-1.2,0.9-2.8,0.9c-2.4,0-3.9-1.3-3.9-4.2 C139.2,93,140.6,91.5,142.9,91.5z M141.1,94.8h3.4c0-0.8-0.5-1.7-1.6-1.7C141.9,93.1,141.2,93.7,141.1,94.8z" class="st25"/><path d="M152.9,93.8c-0.2,0.1-0.3,0.2-0.5,0.2c-0.4,0-0.8-0.4-0.8-0.8c0-0.2,0.1-0.4,0.2-0.6 c0.5-0.5,1.3-1.1,2.8-1.1c2.1,0,3.4,1,3.4,2.9v4.4c0,0.5-0.4,0.9-0.9,0.9c-0.5,0-0.9-0.4-0.9-0.9c-0.5,0.7-1.2,1-2.2,1 c-1.7,0-2.8-1-2.8-2.6c0-1.6,1.3-2.4,2.8-2.4h2.2v-0.3c0-0.8-0.6-1.3-1.6-1.3C153.8,93.2,153.3,93.5,152.9,93.8z M156.1,96.7 v-0.5h-2c-0.8,0-1.2,0.4-1.2,1c0,0.7,0.5,1,1.4,1C155.3,98.2,156.1,97.6,156.1,96.7z" class="st25"/><path d="M161.5,92.6c0.3-0.7,1.1-1.1,1.9-1.1c0.5,0,0.9,0.4,0.9,0.9s-0.4,0.9-0.9,0.9c-1.2,0-1.9,0.8-1.9,1.9v3.6 c0,0.5-0.4,0.9-0.9,0.9s-0.9-0.4-0.9-0.9v-6.2c0-0.5,0.4-0.9,0.9-0.9S161.5,92,161.5,92.6L161.5,92.6z" class="st25"/><path d="M168.4,91.5c2.9,0,3.4,2.2,3.4,3.4c0,0.6,0,1.4-1,1.4h-4.2c0,1.2,0.9,1.8,2,1.8c0.8,0,1.3-0.3,1.7-0.5 c0.2-0.1,0.3-0.2,0.5-0.2c0.4,0,0.8,0.4,0.8,0.8c0,0.3-0.1,0.5-0.3,0.6c-0.3,0.3-1.2,0.9-2.8,0.9c-2.4,0-3.9-1.3-3.9-4.2 C164.7,93,166,91.5,168.4,91.5z M166.6,94.8h3.4c0-0.8-0.5-1.7-1.6-1.7C167.4,93.1,166.6,93.7,166.6,94.8z" class="st25"/><path d="M181.6,95.3l-1.1,3.7c-0.1,0.4-0.5,0.7-0.9,0.7s-0.7-0.3-0.9-0.6l-2.3-6.1c-0.1-0.1-0.1-0.3-0.1-0.4 c0-0.5,0.4-0.9,0.9-0.9c0.4,0,0.7,0.2,0.9,0.6l1.4,4.2l1.1-4.2c0.1-0.3,0.4-0.7,0.9-0.7c0.5,0,0.8,0.3,0.9,0.6l1.1,4.2l1.4-4.2 c0.1-0.4,0.5-0.6,0.9-0.6c0.5,0,0.9,0.4,0.9,0.9c0,0.1,0,0.2-0.1,0.4l-2.4,6.2c-0.1,0.4-0.5,0.6-0.9,0.6c-0.4,0-0.8-0.3-0.9-0.7 L181.6,95.3z" class="st25"/><path d="M191,91.5c2.9,0,3.4,2.2,3.4,3.4c0,0.6,0,1.4-1,1.4h-4.2c0,1.2,0.9,1.8,2,1.8c0.8,0,1.3-0.3,1.7-0.5 c0.2-0.1,0.3-0.2,0.5-0.2c0.4,0,0.8,0.4,0.8,0.8c0,0.3-0.1,0.5-0.3,0.6c-0.3,0.3-1.2,0.9-2.8,0.9c-2.4,0-3.9-1.3-3.9-4.2 C187.3,93,188.6,91.5,191,91.5z M189.2,94.8h3.4c0-0.8-0.5-1.7-1.6-1.7C190,93.1,189.3,93.7,189.2,94.8z" class="st25"/><path d="M197.1,94.9c0-2.2,3.3-2.3,3.3-4.1c0-0.8-0.6-1.3-1.7-1.3c-1,0-1.6,0.5-1.6,1.4c0,0.5-0.4,0.9-0.9,0.9 s-0.9-0.4-0.9-0.9c0-2,1.3-3.1,3.5-3.1c2.3,0,3.6,1.1,3.6,3c0,2.8-3.3,3-3.3,4c0,0.1,0.1,0.2,0.2,0.4c0.1,0.2,0.2,0.3,0.2,0.5 c0,0.6-0.5,0.9-0.9,0.9c-0.3,0-0.5-0.1-0.7-0.3C197.2,95.9,197.1,95.4,197.1,94.9z M197.2,98.6c0-0.8,0.4-1.1,1.1-1.1 c0.7,0,1.1,0.4,1.1,1.1c0,0.8-0.4,1.1-1.1,1.1C197.6,99.7,197.2,99.3,197.2,98.6z" class="st25"/></g></g></g></svg>