<svg xmlns="http://www.w3.org/2000/svg" xmlns:xlink="http://www.w3.org/1999/xlink" id="Layer_1" x="0" y="0" enable-background="new 0 0 752.2 752.2" version="1.1" viewBox="0 0 752.2 752.2" xml:space="preserve"><rect width="752.2" height="752.2" x="0" y="0" fill="#3E3E80"/><g><path fill="#54C6E0" d="M502.4,509.7c-8.6,12-18.5,22.6-29.4,31.5l0,0c-5.4,4.5-11,8.5-16.9,12.2c-41.3,26-92.6,32.4-139.3,16.9 c-15.2-5.1-30-12.4-43.7-22.2c-26.6-19-45.8-44.4-57.1-72.6c-20.1-50.2-15.1-109.3,18.7-156.7c35.8-50.2,94.6-74.2,151.8-68 c14.2,1.5,28.3,4.9,41.9,10.3c12.4,4.8,24.3,11.2,35.6,19.3c14.4,10.3,26.6,22.4,36.6,35.9c11.2,15.1,19.6,31.8,25,49.4 C540.2,413,533.4,466.3,502.4,509.7z"/><path fill="#45B65B" d="M459.4,358c-1.5-2.6-4-3.7-7.4-0.9c-4.6,3.7-8.9,11.8-10.4,17.5c-1.8,6.9-8.1,8.4-12.4,13.4 c-0.4,0.5-0.9,1.1-0.7,1.8c0.1,0.6,0.6,1,1.1,1.3c4.2,3,8.4,6,12.6,9c4.7,3.3,11.4,9.9,16.3,2.5c4.1-6.1-4.1-16.6-2.2-23.8 c0.6-2.3,2.4-4.1,3.7-6.2C461.9,369.3,461.7,361.9,459.4,358z"/><path fill="#45B65B" d="M427.3,363.7c-10.1,0.6-1.5,11.4,3.9,6.5c0.9-0.8,1.7-1.7,1.9-2.9C433.4,364.4,430.2,363.5,427.3,363.7z"/><path fill="#45B65B" d="M505,511.5c-7.9,11.1-17,21-26.9,29.5c-1.4,1.2-3.5,0.4-3.8-1.4c-0.6-3.7-0.9-7.5-1.4-11.2 c-0.7-4.8-9.3-16.8-14.8-15.8c-0.9,0.2-1.7,0.6-2.6,0.6c-1.4,0-2.6-0.8-3.7-1.7c-2.8-2.2-5.2-4.8-7.3-7.7c-0.9-1.3-1.8-2.7-1.9-4.3 c0-1.3,0.4-2.5,0.9-3.7c2.8-7.1,6-13.9,9.1-20.9c2.1-4.8,2-5.7-1.8-9.1c-2.2-1.9-4.7-3.5-7-5.4c-3-2.4-3.4-3.7-6.6-1.7 c-3.9,2.3-6.9,7.8-10.1,11c-2.6,2.6-3.6,6.1-3.5,9.8c0.1,4.4,1.6,8.6,2,13c0.2,2.6-0.2,5.2-1.8,7.3c-5.8,7.8-17.8,1.2-24.6,7.1 c-2.5,2.2-4,5.5-6.6,7.5c-0.2,0.2-0.5,0.3-0.7,0.3c-2.8-0.2-4.1-9.9-4-11.8c0.5-9.1,9.4-2.4,14.2-4.5c4-1.7,7-5.2,9.4-8.6 c3.7-5.1,9.7-15.3,5.2-21.5c-1.6-2.2-4.9,0-7.4,1.4c-1.3,0.7-5.2,6.2-5.3,6.2c-4.1,0.7-7.8,1-11.6-0.9c-6.9-3.3-10.8-9.8-18.8-4.4 c-3.8,2.6-4.7,6.9-6.2,11.1c-1.1,3.3-2.8,6.7-5.9,8.4c-4.7,2.4-15.7-0.5-19.4-4.1c-5.9-5.6-17.4-11.3-16-21.1c0.5-3,2-5.7,3.7-8.3 c3.7-5.5,9.1-19.6,15.4-22.4l2.5,1.2c3.8,3.6,8,6.7,13.5,5c0.8-0.2,1.4-0.8,2-1.3c6.4-5.3,11-12,16.1-18.4c1.8-2.2,3.5-4.3,5.2-6.5 c0.8-1,1.7-2.1,3-2.5c2.4-0.8,6.4,3.9,9.1,4.6c3.5,0.9,7.1,0,10.5-1.1c5.4-1.8,9.1,5.6,13.8,2.5c0.8-0.5,1.3-1.2,1.8-2 c1.8-2.5,3.6-5,5.3-7.6c3.5,0.2,10.3,1.1,13.1,3.6c0,0,5.2,4.7,5.2,4.7l11.2,3.7c0,0,4.2,2.1,7.2,1.9c3-0.2,5.3-0.1,8.9-2.2 c3.7-2.1,4.9-1.3,8.5-3c3.6-1.7,4.5-1,4.5-1l8.6,0.6c7.4-0.5,13.9-1.5,19.2-7.2c3.7-3.9,6-8.9,7.6-14c1-3.1,1.7-6.4,0.7-9.5 c-0.6-1.9-1.7-3.5-2.4-5.3c-1.9-4.6-0.6-14.3,5-16.3c0.9-0.3,1.9-0.1,2.8,0.6C543.4,413,536.5,467.3,505,511.5z"/><path fill="#45B65B" d="M386.8,274.4c-7.5,3.8-16.1,2.2-24.2,3.2c-7.8,1-16.4-1.4-24,1c-4,1.2-8.1,1.1-12.1,2.1 c-4.7,1.3-9.1,4.2-13.1,6.9c-3.1,2.2-6.2,4.6-8,8c-4.4,8.2,0,18.7,0.8,27.3c0.6,6.8-0.8,13-2.7,19.5c-3.6,12.4-14.4,21.2-24.1,28.9 c-6.3,5-12.6,10.1-18.7,15.4c-6.7,5.7-13.9,11.5-18.1,19.3c-4.3,7.9-4.8,17.3-5.8,26.1c-0.6,4.9-1.7,9.7-2.8,14.6 c-1.4,6-1.2,11.7-4.9,16.9c-2.4,3.3-4.4,7.3-7.7,9.9c0,0,0,0-0.1,0c-3.7,2.8-9.2,0.9-10.7-3.5c-17.4-49.6-11.3-106.7,21.6-152.8 c35.8-50.2,94.1-74.7,151.4-69.6c2.1,0.2,4,1.3,5.2,3c0.4,0.6,0.8,1.2,1.2,1.7c0.2,0.3,0.4,0.7,0.4,1.1c1,4.9,4,11.6,1.5,16.5 C390.9,271.8,388.9,273.4,386.8,274.4z"/><path fill="#45B65B" d="M386.8,274.4c-7.5,3.8-16.1,2.2-24.2,3.2c-7.8,1-16.4-1.4-24,1c-4,1.2-8.1,1.1-12.1,2.1 c-4.7,1.3-9.1,4.2-13.1,6.9c-3.1,2.2-6.2,4.6-8,8c-4.4,8.2,0,18.7,0.8,27.3c0.6,6.8-0.8,13-2.7,19.5c-3.6,12.4-14.4,21.2-24.1,28.9 c-6.3,5-12.6,10.1-18.7,15.4c-6.7,5.7-13.9,11.5-18.1,19.3c-4.3,7.9-4.8,17.3-5.8,26.1c-0.6,4.9-1.7,9.7-2.8,14.6 c-1.4,6-1.2,11.7-4.9,16.9c-2.4,3.3-4.4,7.3-7.7,9.9c0,0,0,0-0.1,0c-3.7,2.8-9.2,0.9-10.7-3.5c-17.4-49.6-11.3-106.7,21.6-152.8 c35.8-50.2,94.1-74.7,151.4-69.6c2.1,0.2,4,1.3,5.2,3c0.4,0.6,0.8,1.2,1.2,1.7c0.2,0.3,0.4,0.7,0.4,1.1c1,4.9,4,11.6,1.5,16.5 C390.9,271.8,388.9,273.4,386.8,274.4z" opacity=".34"/><path fill="#45B65B" d="M496.3,308.7c3.1,3.7,0.3,9.4-4.5,9.3c0,0-0.1,0-0.1,0c-5.1-0.1-10.4-2.1-14.2-5.6 c-7.4-6.8-14.3-14.2-22.8-19.8c-4.7-3.2-9.8-6-13.3-10.6c-4.7-6.1-7.2-13.5-11.3-19.9c-0.5-0.8-4.1-1-1.7-2.4 c1.9-4,24.8,11.4,36.3,19.6C476.7,288,487.3,297.9,496.3,308.7z"/><path fill="#45B65B" d="M454.8,555.4c-41.1,25.4-91.7,32-138.2,17.4c-1.5-0.5-2.3-2-1.9-3.5c0-0.2,0.1-0.3,0.1-0.5 c1.6-6,2.2-12.8-0.2-18.6c-0.9-2.2-2.1-4.2-3-6.3c-2.7-6.4-2.3-14.1,1-20.2c0.8-1.6,1.9-3.1,3.4-4.2c4.6-3.3,13.3-1.4,18.7-0.9 c7.4,0.6,14.7,1.8,21.9,3.4c11.4,2.6,22.3,6.8,34,7.8c3.7,0.3,22.6,0.5,23.7,4.5c0,0,0,0.1,0,0.1c2.6,9,8.8,12.5,17.3,15.2 c4.1,1.3,8.4,2.2,12.8,2.7c2,0.2,10.8,1.8,12.2,0.3c-0.3,0.3-0.5,0.6-0.6,1C455.9,554.3,455.5,555,454.8,555.4z"/><path fill="#45B65B" d="M454.8,555.4c-41.1,25.4-91.7,32-138.2,17.4c-1.5-0.5-2.3-2-1.9-3.5c0-0.2,0.1-0.3,0.1-0.5 c1.6-6,2.2-12.8-0.2-18.6c-0.9-2.2-2.1-4.2-3-6.3c-2.7-6.4-2.3-14.1,1-20.2c0.8-1.6,1.9-3.1,3.4-4.2c4.6-3.3,13.3-1.4,18.7-0.9 c7.4,0.6,14.7,1.8,21.9,3.4c11.4,2.6,22.3,6.8,34,7.8c3.7,0.3,22.6,0.5,23.7,4.5c0,0,0,0.1,0,0.1c2.6,9,8.8,12.5,17.3,15.2 c4.1,1.3,8.4,2.2,12.8,2.7c2,0.2,10.8,1.8,12.2,0.3c-0.3,0.3-0.5,0.6-0.6,1C455.9,554.3,455.5,555,454.8,555.4z" opacity=".42"/></g><circle cx="362.1" cy="407.2" r="186" fill="#FFF" opacity=".06"/><circle cx="362.1" cy="407.2" r="212" fill="#FFF" opacity=".06"/><g><rect width="2.1" height="9.4" x="264.8" y="250.4" fill="#989898" transform="matrix(0.8684 0.4959 -0.4959 0.8684 161.4894 -98.2706)"/><rect width="5.9" height="10.5" x="268" y="240.7" fill="#989898" transform="matrix(0.8684 0.4959 -0.4959 0.8684 157.6572 -101.9754)"/><rect width="5.9" height="10.5" x="280.1" y="219.9" fill="#989898" transform="matrix(0.8684 0.4959 -0.4959 0.8684 148.8966 -110.7188)"/><rect width="8.2" height="3.9" x="287.7" y="207.8" fill="#989898" transform="matrix(0.8684 0.4959 -0.4959 0.8684 142.4239 -117.1006)"/><g><path fill="#989898" d="M276.9,313.2l-13.7-7.8c2.6,0.2,5.3,1,7.7,2.4C273.3,309.2,275.3,311.1,276.9,313.2z"/><path fill="#989898" d="M257.6,315.1l13.7,7.8c-2.6-0.2-5.3-1-7.7-2.4C261.2,319.1,259.2,317.3,257.6,315.1z"/><rect width="18.3" height="11.2" x="258.1" y="308.6" fill="#CDCCCC" transform="matrix(0.8684 0.4959 -0.4959 0.8684 190.9713 -91.1792)"/></g><rect width="12.5" height="7.6" x="249.1" y="269.4" fill="#CDCCCC" transform="matrix(0.8684 0.4959 -0.4959 0.8684 169.1006 -90.6928)"/><rect width="12.5" height="7.6" x="249.1" y="269.4" fill="#818181" transform="matrix(0.8684 0.4959 -0.4959 0.8684 169.1006 -90.6928)"/><rect width="11.2" height="4.2" x="222.2" y="320.7" fill="#989898" stroke="#CDCCCC" stroke-miterlimit="10" stroke-width=".068" transform="matrix(0.8684 0.4959 -0.4959 0.8684 190.0746 -70.505)"/><rect width="12.5" height="7.6" x="241.5" y="282.7" fill="#CDCCCC" transform="matrix(0.8684 0.4959 -0.4959 0.8684 174.7164 -85.1656)"/><rect width="12.5" height="7.6" x="241.5" y="282.7" fill="#818181" transform="matrix(0.8684 0.4959 -0.4959 0.8684 174.7164 -85.1656)"/><g><g><polygon fill="#CDCCCC" points="215.8 264.5 214.9 264.6 214 264.8 213.8 263.4 212 251.5 200.7 256.1 198.9 256.8 198.5 256.6 198.2 254.7 196.4 242.5 185 247.2 183.3 247.9 182.9 247.7 182.6 245.8 180.8 233.6 169.4 238.3 167.6 239 167.3 238.8 167 236.9 165.2 224.7 153.8 229.3 152 230.1 151.6 229.8 151.4 227.9 149.9 218.2 149.6 215.8 150.3 214.5 151.2 214.4 151.4 215.7 153.1 227.7 164.5 223 166.3 222.3 166.7 222.5 166.9 224.4 168.7 236.6 180.1 232 181.9 231.2 182.3 231.5 182.6 233.4 184.4 245.5 195.7 240.9 197.5 240.2 197.9 240.4 198.2 242.3 200 254.5 211.4 249.8 213.2 249.1 213.5 249.3 213.8 251.2 215.2 260.9 215.6 263.4"/></g><g><polygon fill="#CDCCCC" points="361.1 335 360.4 336.3 358.1 337.2 349.1 340.9 347.3 341.6 346.8 341.3 346.5 339.4 344.8 327.4 333.5 332 331.7 332.7 331.2 332.4 330.9 330.5 329.2 318.4 317.9 323 316.1 323.8 315.7 323.9 315.6 323.5 315.3 321.6 313.5 309.5 302.3 314.1 300.5 314.8 300 314.6 299.7 312.6 297.9 300.6 286.7 305.2 285.5 305.7 284.8 304 285.8 303.6 288.1 302.7 297.3 298.9 299.1 298.2 299.4 298.3 299.7 300.2 301.5 312.5 313 307.8 314.7 307.1 315 307.2 315.3 309.2 317.1 321.4 328.6 316.7 330.4 316 330.6 316.2 330.9 318.1 332.7 330.4 344.2 325.7 346 324.9 346.2 324.8 346.2 325.1 346.5 327 348.3 339.3 359.5 334.7 360.8 334.2"/></g><g opacity=".16"><polygon fill="#333" points="215.8 264.5 214.9 264.6 214 264.8 213.8 263.4 212 251.5 200.7 256.1 198.9 256.8 198.5 256.6 198.2 254.7 196.4 242.5 185 247.2 183.3 247.9 182.9 247.7 182.6 245.8 180.8 233.6 169.4 238.3 167.6 239 167.3 238.8 167 236.9 165.2 224.7 153.8 229.3 152 230.1 151.6 229.8 151.4 227.9 149.9 218.2 149.6 215.8 150.3 214.5 151.2 214.4 151.4 215.7 153.1 227.7 164.5 223 166.3 222.3 166.7 222.5 166.9 224.4 168.7 236.6 180.1 232 181.9 231.2 182.3 231.5 182.6 233.4 184.4 245.5 195.7 240.9 197.5 240.2 197.9 240.4 198.2 242.3 200 254.5 211.4 249.8 213.2 249.1 213.5 249.3 213.8 251.2 215.2 260.9 215.6 263.4"/></g><g opacity=".16"><polygon fill="#333" points="361.1 335 360.4 336.3 358.1 337.2 349.1 340.9 347.3 341.6 346.8 341.3 346.5 339.4 344.8 327.4 333.5 332 331.7 332.7 331.2 332.4 330.9 330.5 329.2 318.4 317.9 323 316.1 323.8 315.7 323.9 315.6 323.5 315.3 321.6 313.5 309.5 302.3 314.1 300.5 314.8 300 314.6 299.7 312.6 297.9 300.6 286.7 305.2 285.5 305.7 284.8 304 285.8 303.6 288.1 302.7 297.3 298.9 299.1 298.2 299.4 298.3 299.7 300.2 301.5 312.5 313 307.8 314.7 307.1 315 307.2 315.3 309.2 317.1 321.4 328.6 316.7 330.4 316 330.6 316.2 330.9 318.1 332.7 330.4 344.2 325.7 346 324.9 346.2 324.8 346.2 325.1 346.5 327 348.3 339.3 359.5 334.7 360.8 334.2"/></g></g><rect width="36" height="2" x="244.9" y="259.4" fill="#CDCCCC" transform="matrix(0.8684 0.4959 -0.4959 0.8684 163.7255 -96.0996)"/><g><circle cx="259.9" cy="242.7" r="2.7" fill="#E6E6E5"/><line x1="259.9" x2="260.9" y1="242.7" y2="255.6" fill="none" stroke="#E6E6E5" stroke-miterlimit="10" stroke-width=".754"/></g><rect width="17.9" height="17.4" x="207.3" y="295.2" fill="#CDCCCC" transform="matrix(0.4959 -0.8684 0.8684 0.4959 -154.885 341.0095)"/><path fill="#989898" d="M212.6,292.7l-7.8,13.7c0.2-2.6,1-5.3,2.4-7.7C208.6,296.3,210.5,294.3,212.6,292.7z"/><path fill="#989898" d="M256.6,253.1l-7.2,12.6c0.2-2.4,0.9-4.8,2.2-7.1C252.9,256.4,254.6,254.5,256.6,253.1z"/><path fill="#989898" d="M246.9,311.8l-7.8,13.7c0.2-2.6,1-5.3,2.4-7.7C242.8,315.3,244.7,313.3,246.9,311.8z"/><path fill="#989898" d="M220.2,314.7L228,301c-0.2,2.6-1,5.3-2.4,7.7C224.2,311.1,222.3,313.1,220.2,314.7z"/><path fill="none" stroke="#CDCCCC" stroke-miterlimit="10" stroke-width=".068" d="M228.3,300.5l-8.9,15.5l-14.7-8.4 c0-0.4,0-0.8,0.1-1.2l7.8-13.7c0.3-0.2,0.6-0.4,1-0.6L228.3,300.5z"/><g><rect width="83.4" height="12.7" x="84.3" y="263.5" fill="#F08B21" transform="matrix(0.4959 -0.8684 0.8684 0.4959 -170.7953 245.4516)"/><rect width="83.4" height="12.7" x="97.7" y="271.1" fill="#F08B21" transform="matrix(0.4959 -0.8684 0.8684 0.4959 -170.6857 260.9355)"/></g><g><rect width="83.4" height="12.7" x="110.8" y="278.6" fill="#F08B21" transform="matrix(0.4959 -0.8684 0.8684 0.4959 -170.5786 276.0656)"/><rect width="83.4" height="12.7" x="124.2" y="286.2" fill="#F08B21" transform="matrix(0.4959 -0.8684 0.8684 0.4959 -170.4691 291.5496)"/></g><g><rect width="83.3" height="12.7" x="244" y="354.6" fill="#F08B21" transform="matrix(0.4959 -0.8684 0.8684 0.4959 -169.444 430.0503)"/><rect width="83.3" height="12.7" x="257.4" y="362.3" fill="#F08B21" transform="matrix(0.4959 -0.8684 0.8684 0.4959 -169.3345 445.5341)"/></g><g><rect width="83.3" height="12.7" x="270.5" y="369.7" fill="#F08B21" transform="matrix(0.4959 -0.8684 0.8684 0.4959 -169.2274 460.6642)"/><rect width="83.3" height="12.7" x="283.9" y="377.4" fill="#F08B21" transform="matrix(0.4959 -0.8684 0.8684 0.4959 -169.1178 476.1482)"/></g><rect width="18" height="37.3" x="229" y="286.1" fill="#CDCCCC" transform="matrix(0.8684 0.4959 -0.4959 0.8684 182.4607 -77.9331)"/><rect width="18" height="15.9" x="251.8" y="255.9" fill="#CDCCCC" transform="matrix(0.8684 0.4959 -0.4959 0.8684 165.1846 -94.6273)"/><rect width="28" height="18.1" x="241" y="316.4" fill="#CDCCCC" transform="matrix(0.8684 0.4959 -0.4959 0.8684 194.9693 -83.6044)"/><rect width="18" height="7.4" x="216.9" y="322.3" fill="#CDCCCC" transform="matrix(0.8684 0.4959 -0.4959 0.8684 191.3783 -69.1408)"/><circle cx="262.1" cy="329.5" r="10.4" fill="#E6E6E5"/><circle cx="270" cy="247.8" r="5.5" fill="#CDCCCC"/><circle cx="266.1" cy="254.7" r="2.3" fill="#CDCCCC"/><path fill="#CDCCCC" d="M279.6,246.9l-13.6-7.8c-0.6-0.3-0.8-1-0.4-1.6l10.6-18.6c0.3-0.6,1-0.8,1.6-0.4l13.6,7.8 c0.6,0.3,0.8,1,0.4,1.6l-10.6,18.6C280.8,247,280.1,247.2,279.6,246.9z"/><path fill="#CDCCCC" d="M288.9,224.1c-3.1-0.9-5.8-2.5-8.1-4.6c-0.8-0.7-1-1.8-0.7-2.7c0.9-3.1,2.5-5.8,4.6-8.1 c0.7-0.8,1.8-1,2.7-0.7c3.1,0.9,5.8,2.5,8.1,4.6c0.8,0.7,1,1.8,0.7,2.7c-0.9,3.1-2.5,5.8-4.6,8.1 C291,224.1,289.9,224.4,288.9,224.1z"/><rect width="14.9" height="7.9" x="286.5" y="202" fill="#CDCCCC" transform="matrix(0.8684 0.4959 -0.4959 0.8684 140.8417 -118.6282)"/><polygon fill="#CDCCCC" points="302.3 206.2 289.4 198.9 289.9 192.8 307.4 202.8"/><polygon fill="#010101" points="302.3 206.2 289.4 198.9 289.9 192.8 307.4 202.8" opacity=".29"/><path fill="#E6E6E5" d="M314.2,187.8l-14.9-8.5c-0.7-0.4-1.7-0.2-2.1,0.6l-7.3,12.8l17.5,10l7.3-12.8 C315.2,189.2,314.9,188.2,314.2,187.8z"/><path fill="#CDCCCC" d="M218,343l-3.3-1.9c-1.5-0.8-2-2.7-1.1-4.2l5.9-10.4c0,0,0.1-0.1,0.1,0l8.5,4.9c0,0,0.1,0.1,0,0.1l-5.9,10.4 C221.3,343.3,219.5,343.8,218,343z"/><path fill="#989898" d="M265.1,274.6l7.2-12.6c-0.2,2.4-0.9,4.8-2.2,7.1C268.8,271.4,267.1,273.2,265.1,274.6z"/><circle cx="269.9" cy="247.7" r="2.9" fill="#676767"/><rect width="28.1" height="1.3" x="139.6" y="236.3" fill="#CDCCCC" transform="matrix(0.8684 0.4959 -0.4959 0.8684 137.7134 -45.0408)"/><rect width="28.1" height="1.3" x="166.1" y="251.4" fill="#CDCCCC" transform="matrix(0.8684 0.4959 -0.4959 0.8684 148.6968 -56.1808)"/><rect width="28.1" height="1.3" x="299.3" y="327.5" fill="#CDCCCC" transform="matrix(0.8684 0.4959 -0.4959 0.8684 203.9616 -112.1943)"/><rect width="28.1" height="1.3" x="325.7" y="342.6" fill="#CDCCCC" transform="matrix(0.8684 0.4959 -0.4959 0.8684 214.945 -123.3343)"/><rect width="7.1" height="4.5" x="151.8" y="232.3" fill="#CDCCCC" transform="matrix(0.8684 0.4959 -0.4959 0.8684 136.775 -46.1858)"/><rect width="7.1" height="4.5" x="178" y="247.3" fill="#CDCCCC" transform="matrix(0.8684 0.4959 -0.4959 0.8684 147.6485 -57.2143)"/><rect width="7.1" height="4.5" x="311.2" y="323.3" fill="#CDCCCC" transform="matrix(0.8684 0.4959 -0.4959 0.8684 202.8706 -113.2234)"/><rect width="7.1" height="4.5" x="337.4" y="338.3" fill="#CDCCCC" transform="matrix(0.8684 0.4959 -0.4959 0.8684 213.7441 -124.2519)"/><g><rect width="83.4" height="12.7" x="337.7" y="283.1" fill="#F08B21" transform="matrix(0.4959 -0.8684 0.8684 0.4959 -60.0552 475.3765)"/><rect width="83.4" height="12.7" x="324.3" y="275.4" fill="#F08B21" transform="matrix(0.4959 -0.8684 0.8684 0.4959 -60.1648 459.8926)"/></g><g><rect width="83.4" height="12.7" x="311.3" y="267.9" fill="#F08B21" transform="matrix(0.4959 -0.8684 0.8684 0.4959 -60.2718 444.7625)"/><rect width="83.4" height="12.7" x="297.9" y="260.3" fill="#F08B21" transform="matrix(0.4959 -0.8684 0.8684 0.4959 -60.3814 429.2785)"/></g><g><rect width="83.3" height="12.7" x="178.1" y="191.9" fill="#F08B21" transform="matrix(0.4959 -0.8684 0.8684 0.4959 -61.4064 290.7778)"/><rect width="83.3" height="12.7" x="164.7" y="184.3" fill="#F08B21" transform="matrix(0.4959 -0.8684 0.8684 0.4959 -61.516 275.2939)"/></g><g><rect width="83.3" height="12.7" x="151.6" y="176.8" fill="#F08B21" transform="matrix(0.4959 -0.8684 0.8684 0.4959 -61.6231 260.1638)"/><rect width="83.3" height="12.7" x="138.2" y="169.1" fill="#F08B21" transform="matrix(0.4959 -0.8684 0.8684 0.4959 -61.7326 244.6799)"/></g><rect width="28.1" height="1.3" x="337.7" y="321.7" fill="#CDCCCC" transform="matrix(-0.8684 -0.4959 0.4959 -0.8684 497.3256 776.701)"/><rect width="28.1" height="1.3" x="311.2" y="306.6" fill="#CDCCCC" transform="matrix(-0.8684 -0.4959 0.4959 -0.8684 455.3549 735.3201)"/><rect width="28.1" height="1.3" x="178" y="230.5" fill="#CDCCCC" transform="matrix(-0.8684 -0.4959 0.4959 -0.8684 244.3199 527.106)"/><rect width="28.1" height="1.3" x="151.6" y="215.4" fill="#CDCCCC" transform="matrix(-0.8684 -0.4959 0.4959 -0.8684 202.3492 485.7251)"/><rect width="7.1" height="4.5" x="346.5" y="322.5" fill="#CDCCCC" transform="matrix(-0.8684 -0.4959 0.4959 -0.8684 493.0119 780.2363)"/><rect width="7.1" height="4.5" x="320.3" y="307.5" fill="#CDCCCC" transform="matrix(-0.8684 -0.4959 0.4959 -0.8684 451.4611 739.2695)"/><rect width="7.1" height="4.5" x="187.2" y="231.5" fill="#CDCCCC" transform="matrix(-0.8684 -0.4959 0.4959 -0.8684 240.4427 531.2164)"/><rect width="7.1" height="4.5" x="160.9" y="216.5" fill="#CDCCCC" transform="matrix(-0.8684 -0.4959 0.4959 -0.8684 198.8919 490.2495)"/><circle cx="288.2" cy="216" r="4.2" fill="#E6E6E5"/><g><g><rect width="7" height="5" x="230.3" y="231" fill="#F08B21" transform="matrix(-0.8684 -0.4959 0.4959 -0.8684 321.0078 552.1036)"/><rect width="7" height="5" x="237.2" y="234.9" fill="#F08B21" transform="matrix(-0.8684 -0.4959 0.4959 -0.8684 331.9456 562.8877)"/><rect width="7" height="5" x="244.1" y="238.8" fill="#F08B21" transform="matrix(-0.8684 -0.4959 0.4959 -0.8684 342.8834 573.6718)"/><rect width="7" height="5" x="227.3" y="236.1" fill="#F08B21" transform="matrix(-0.8684 -0.4959 0.4959 -0.8684 312.9198 560.307)"/><rect width="7" height="5" x="234.2" y="240.1" fill="#F08B21" transform="matrix(-0.8684 -0.4959 0.4959 -0.8684 323.8575 571.0911)"/><rect width="7" height="5" x="241.1" y="244" fill="#F08B21" transform="matrix(-0.8684 -0.4959 0.4959 -0.8684 334.7953 581.8751)"/><rect width="7" height="5" x="224.4" y="241.3" fill="#F08B21" transform="matrix(-0.8684 -0.4959 0.4959 -0.8684 304.8318 568.5103)"/><rect width="7" height="5" x="231.3" y="245.2" fill="#F08B21" transform="matrix(-0.8684 -0.4959 0.4959 -0.8684 315.7696 579.2944)"/><rect width="7" height="5" x="238.2" y="249.2" fill="#F08B21" transform="matrix(-0.8684 -0.4959 0.4959 -0.8684 326.7072 590.0785)"/><rect width="7" height="5" x="221.4" y="246.5" fill="#F08B21" transform="matrix(-0.8684 -0.4959 0.4959 -0.8684 296.7437 576.7136)"/><rect width="7" height="5" x="228.3" y="250.4" fill="#F08B21" transform="matrix(-0.8684 -0.4959 0.4959 -0.8684 307.6815 587.4977)"/><rect width="7" height="5" x="235.2" y="254.4" fill="#F08B21" transform="matrix(-0.8684 -0.4959 0.4959 -0.8684 318.6192 598.2817)"/></g><rect width="1.3" height="22.9" x="246.1" y="239.7" fill="#CDCCCC" transform="matrix(0.8684 0.4959 -0.4959 0.8684 157.0152 -89.2937)"/><g><g><rect width="7" height="5" x="288.5" y="284.8" fill="#F08B21" transform="matrix(0.8684 0.4959 -0.4959 0.8684 180.9094 -106.9958)"/><rect width="7" height="5" x="281.6" y="280.9" fill="#F08B21" transform="matrix(0.8684 0.4959 -0.4959 0.8684 178.0471 -104.0926)"/><rect width="7" height="5" x="274.7" y="276.9" fill="#F08B21" transform="matrix(0.8684 0.4959 -0.4959 0.8684 175.1848 -101.1895)"/><rect width="7" height="5" x="291.5" y="279.6" fill="#F08B21" transform="matrix(0.8684 0.4959 -0.4959 0.8684 178.7321 -109.1425)"/><rect width="7" height="5" x="284.6" y="275.7" fill="#F08B21" transform="matrix(0.8684 0.4959 -0.4959 0.8684 175.8698 -106.2394)"/><rect width="7" height="5" x="277.7" y="271.7" fill="#F08B21" transform="matrix(0.8684 0.4959 -0.4959 0.8684 173.0074 -103.3363)"/><rect width="7" height="5" x="294.4" y="274.5" fill="#F08B21" transform="matrix(0.8684 0.4959 -0.4959 0.8684 176.5547 -111.2893)"/><rect width="7" height="5" x="287.5" y="270.5" fill="#F08B21" transform="matrix(0.8684 0.4959 -0.4959 0.8684 173.6924 -108.3861)"/><rect width="7" height="5" x="280.6" y="266.6" fill="#F08B21" transform="matrix(0.8684 0.4959 -0.4959 0.8684 170.8301 -105.483)"/><rect width="7" height="5" x="297.4" y="269.3" fill="#F08B21" transform="matrix(0.8684 0.4959 -0.4959 0.8684 174.3774 -113.436)"/><rect width="7" height="5" x="290.5" y="265.3" fill="#F08B21" transform="matrix(0.8684 0.4959 -0.4959 0.8684 171.5151 -110.5329)"/><rect width="7" height="5" x="283.6" y="261.4" fill="#F08B21" transform="matrix(0.8684 0.4959 -0.4959 0.8684 168.6527 -107.6297)"/></g><rect width="1.3" height="22.9" x="278.4" y="258.2" fill="#CDCCCC" transform="matrix(-0.8684 -0.4959 0.4959 -0.8684 387.7017 642.1268)"/></g></g><g><g><g><rect width="3.8" height="3.2" x="301.5" y="218.1" fill="#F08B21" transform="matrix(-0.8684 -0.4959 0.4959 -0.8684 457.9139 560.9108)"/><rect width="3.8" height="3.2" x="305.6" y="220.4" fill="#F08B21" transform="matrix(-0.8684 -0.4959 0.4959 -0.8684 464.3589 567.2653)"/><rect width="3.8" height="3.2" x="309.6" y="222.8" fill="#F08B21" transform="matrix(-0.8684 -0.4959 0.4959 -0.8684 470.8041 573.6199)"/><rect width="3.8" height="3.2" x="313.7" y="225.1" fill="#F08B21" transform="matrix(-0.8684 -0.4959 0.4959 -0.8684 477.2493 579.9745)"/><rect width="3.8" height="3.2" x="317.8" y="227.4" fill="#F08B21" transform="matrix(-0.8684 -0.4959 0.4959 -0.8684 483.6944 586.329)"/><rect width="3.8" height="3.2" x="321.8" y="229.7" fill="#F08B21" transform="matrix(-0.8684 -0.4959 0.4959 -0.8684 490.1396 592.6837)"/><rect width="3.8" height="3.2" x="325.9" y="232" fill="#F08B21" transform="matrix(-0.8684 -0.4959 0.4959 -0.8684 496.5847 599.0383)"/><rect width="3.8" height="3.2" x="330" y="234.4" fill="#F08B21" transform="matrix(-0.8684 -0.4959 0.4959 -0.8684 503.0298 605.3928)"/><rect width="3.8" height="3.2" x="334" y="236.7" fill="#F08B21" transform="matrix(-0.8684 -0.4959 0.4959 -0.8684 509.475 611.7473)"/><rect width="3.8" height="3.2" x="299.5" y="221.6" fill="#F08B21" transform="matrix(-0.8684 -0.4959 0.4959 -0.8684 452.4182 566.4848)"/><rect width="3.8" height="3.2" x="303.6" y="223.9" fill="#F08B21" transform="matrix(-0.8684 -0.4959 0.4959 -0.8684 458.8632 572.8394)"/><rect width="3.8" height="3.2" x="307.6" y="226.3" fill="#F08B21" transform="matrix(-0.8684 -0.4959 0.4959 -0.8684 465.3084 579.194)"/><rect width="3.8" height="3.2" x="311.7" y="228.6" fill="#F08B21" transform="matrix(-0.8684 -0.4959 0.4959 -0.8684 471.7536 585.5486)"/><rect width="3.8" height="3.2" x="315.8" y="230.9" fill="#F08B21" transform="matrix(-0.8684 -0.4959 0.4959 -0.8684 478.1987 591.9031)"/><rect width="3.8" height="3.2" x="319.8" y="233.2" fill="#F08B21" transform="matrix(-0.8684 -0.4959 0.4959 -0.8684 484.6439 598.2576)"/><rect width="3.8" height="3.2" x="323.9" y="235.6" fill="#F08B21" transform="matrix(-0.8684 -0.4959 0.4959 -0.8684 491.089 604.6122)"/><rect width="3.8" height="3.2" x="328" y="237.9" fill="#F08B21" transform="matrix(-0.8684 -0.4959 0.4959 -0.8684 497.5341 610.9668)"/><rect width="3.8" height="3.2" x="332" y="240.2" fill="#F08B21" transform="matrix(-0.8684 -0.4959 0.4959 -0.8684 503.9793 617.3214)"/></g><g><rect width="3.8" height="3.2" x="297.3" y="225.5" fill="#F08B21" transform="matrix(-0.8684 -0.4959 0.4959 -0.8684 446.3246 572.6652)"/><rect width="3.8" height="3.2" x="301.3" y="227.8" fill="#F08B21" transform="matrix(-0.8684 -0.4959 0.4959 -0.8684 452.7697 579.0198)"/><rect width="3.8" height="3.2" x="305.4" y="230.2" fill="#F08B21" transform="matrix(-0.8684 -0.4959 0.4959 -0.8684 459.2149 585.3743)"/><rect width="3.8" height="3.2" x="309.5" y="232.5" fill="#F08B21" transform="matrix(-0.8684 -0.4959 0.4959 -0.8684 465.6601 591.7289)"/><rect width="3.8" height="3.2" x="313.5" y="234.8" fill="#F08B21" transform="matrix(-0.8684 -0.4959 0.4959 -0.8684 472.1051 598.0834)"/><rect width="3.8" height="3.2" x="317.6" y="237.1" fill="#F08B21" transform="matrix(-0.8684 -0.4959 0.4959 -0.8684 478.5503 604.438)"/><rect width="3.8" height="3.2" x="321.7" y="239.5" fill="#F08B21" transform="matrix(-0.8684 -0.4959 0.4959 -0.8684 484.9955 610.7927)"/><rect width="3.8" height="3.2" x="325.7" y="241.8" fill="#F08B21" transform="matrix(-0.8684 -0.4959 0.4959 -0.8684 491.4406 617.1472)"/><rect width="3.8" height="3.2" x="329.8" y="244.1" fill="#F08B21" transform="matrix(-0.8684 -0.4959 0.4959 -0.8684 497.8857 623.5018)"/><rect width="3.8" height="3.2" x="295.3" y="229" fill="#F08B21" transform="matrix(-0.8684 -0.4959 0.4959 -0.8684 440.8289 578.2393)"/><rect width="3.8" height="3.2" x="299.3" y="231.4" fill="#F08B21" transform="matrix(-0.8684 -0.4959 0.4959 -0.8684 447.274 584.5938)"/><rect width="3.8" height="3.2" x="303.4" y="233.7" fill="#F08B21" transform="matrix(-0.8684 -0.4959 0.4959 -0.8684 453.7191 590.9484)"/><rect width="3.8" height="3.2" x="307.5" y="236" fill="#F08B21" transform="matrix(-0.8684 -0.4959 0.4959 -0.8684 460.1643 597.303)"/><rect width="3.8" height="3.2" x="311.5" y="238.3" fill="#F08B21" transform="matrix(-0.8684 -0.4959 0.4959 -0.8684 466.6094 603.6575)"/><rect width="3.8" height="3.2" x="315.6" y="240.6" fill="#F08B21" transform="matrix(-0.8684 -0.4959 0.4959 -0.8684 473.0546 610.0121)"/><rect width="3.8" height="3.2" x="319.7" y="243" fill="#F08B21" transform="matrix(-0.8684 -0.4959 0.4959 -0.8684 479.4998 616.3666)"/><rect width="3.8" height="3.2" x="323.7" y="245.3" fill="#F08B21" transform="matrix(-0.8684 -0.4959 0.4959 -0.8684 485.9449 622.7213)"/><rect width="3.8" height="3.2" x="327.8" y="247.6" fill="#F08B21" transform="matrix(-0.8684 -0.4959 0.4959 -0.8684 492.39 629.0758)"/></g></g><g><g><rect width="3.8" height="3.2" x="243.4" y="184.9" fill="#F08B21" transform="matrix(-0.8684 -0.4959 0.4959 -0.8684 365.7495 470.0416)"/><rect width="3.8" height="3.2" x="247.4" y="187.2" fill="#F08B21" transform="matrix(-0.8684 -0.4959 0.4959 -0.8684 372.1946 476.3961)"/><rect width="3.8" height="3.2" x="251.5" y="189.5" fill="#F08B21" transform="matrix(-0.8684 -0.4959 0.4959 -0.8684 378.6397 482.7507)"/><rect width="3.8" height="3.2" x="255.6" y="191.9" fill="#F08B21" transform="matrix(-0.8684 -0.4959 0.4959 -0.8684 385.0849 489.1053)"/><rect width="3.8" height="3.2" x="259.6" y="194.2" fill="#F08B21" transform="matrix(-0.8684 -0.4959 0.4959 -0.8684 391.5301 495.4598)"/><rect width="3.8" height="3.2" x="263.7" y="196.5" fill="#F08B21" transform="matrix(-0.8684 -0.4959 0.4959 -0.8684 397.9752 501.8144)"/><rect width="3.8" height="3.2" x="267.8" y="198.8" fill="#F08B21" transform="matrix(-0.8684 -0.4959 0.4959 -0.8684 404.4203 508.169)"/><rect width="3.8" height="3.2" x="271.8" y="201.2" fill="#F08B21" transform="matrix(-0.8684 -0.4959 0.4959 -0.8684 410.8655 514.5236)"/><rect width="3.8" height="3.2" x="275.9" y="203.5" fill="#F08B21" transform="matrix(-0.8684 -0.4959 0.4959 -0.8684 417.3106 520.8781)"/><rect width="3.8" height="3.2" x="241.4" y="188.4" fill="#F08B21" transform="matrix(-0.8684 -0.4959 0.4959 -0.8684 360.2538 475.6156)"/><rect width="3.8" height="3.2" x="245.4" y="190.7" fill="#F08B21" transform="matrix(-0.8684 -0.4959 0.4959 -0.8684 366.6989 481.9701)"/><rect width="3.8" height="3.2" x="249.5" y="193.1" fill="#F08B21" transform="matrix(-0.8684 -0.4959 0.4959 -0.8684 373.144 488.3247)"/><rect width="3.8" height="3.2" x="253.6" y="195.4" fill="#F08B21" transform="matrix(-0.8684 -0.4959 0.4959 -0.8684 379.5892 494.6793)"/><rect width="3.8" height="3.2" x="257.6" y="197.7" fill="#F08B21" transform="matrix(-0.8684 -0.4959 0.4959 -0.8684 386.0343 501.0339)"/><rect width="3.8" height="3.2" x="261.7" y="200" fill="#F08B21" transform="matrix(-0.8684 -0.4959 0.4959 -0.8684 392.4795 507.3885)"/><rect width="3.8" height="3.2" x="265.7" y="202.4" fill="#F08B21" transform="matrix(-0.8684 -0.4959 0.4959 -0.8684 398.9246 513.743)"/><rect width="3.8" height="3.2" x="269.8" y="204.7" fill="#F08B21" transform="matrix(-0.8684 -0.4959 0.4959 -0.8684 405.3698 520.0976)"/><rect width="3.8" height="3.2" x="273.9" y="207" fill="#F08B21" transform="matrix(-0.8684 -0.4959 0.4959 -0.8684 411.8149 526.4521)"/></g><g><rect width="3.8" height="3.2" x="239.1" y="192.3" fill="#F08B21" transform="matrix(-0.8684 -0.4959 0.4959 -0.8684 354.1602 481.796)"/><rect width="3.8" height="3.2" x="243.2" y="194.6" fill="#F08B21" transform="matrix(-0.8684 -0.4959 0.4959 -0.8684 360.6053 488.1506)"/><rect width="3.8" height="3.2" x="247.3" y="197" fill="#F08B21" transform="matrix(-0.8684 -0.4959 0.4959 -0.8684 367.0505 494.5051)"/><rect width="3.8" height="3.2" x="251.3" y="199.3" fill="#F08B21" transform="matrix(-0.8684 -0.4959 0.4959 -0.8684 373.4957 500.8597)"/><rect width="3.8" height="3.2" x="255.4" y="201.6" fill="#F08B21" transform="matrix(-0.8684 -0.4959 0.4959 -0.8684 379.9408 507.2143)"/><rect width="3.8" height="3.2" x="259.5" y="203.9" fill="#F08B21" transform="matrix(-0.8684 -0.4959 0.4959 -0.8684 386.3859 513.5688)"/><rect width="3.8" height="3.2" x="263.5" y="206.3" fill="#F08B21" transform="matrix(-0.8684 -0.4959 0.4959 -0.8684 392.8311 519.9234)"/><rect width="3.8" height="3.2" x="267.6" y="208.6" fill="#F08B21" transform="matrix(-0.8684 -0.4959 0.4959 -0.8684 399.2762 526.278)"/><rect width="3.8" height="3.2" x="271.7" y="210.9" fill="#F08B21" transform="matrix(-0.8684 -0.4959 0.4959 -0.8684 405.7214 532.6326)"/><rect width="3.8" height="3.2" x="237.1" y="195.8" fill="#F08B21" transform="matrix(-0.8684 -0.4959 0.4959 -0.8684 348.6645 487.37)"/><rect width="3.8" height="3.2" x="241.2" y="198.2" fill="#F08B21" transform="matrix(-0.8684 -0.4959 0.4959 -0.8684 355.1096 493.7246)"/><rect width="3.8" height="3.2" x="245.3" y="200.5" fill="#F08B21" transform="matrix(-0.8684 -0.4959 0.4959 -0.8684 361.5548 500.0791)"/><rect width="3.8" height="3.2" x="249.3" y="202.8" fill="#F08B21" transform="matrix(-0.8684 -0.4959 0.4959 -0.8684 368 506.4337)"/><rect width="3.8" height="3.2" x="253.4" y="205.1" fill="#F08B21" transform="matrix(-0.8684 -0.4959 0.4959 -0.8684 374.4451 512.7883)"/><rect width="3.8" height="3.2" x="257.4" y="207.4" fill="#F08B21" transform="matrix(-0.8684 -0.4959 0.4959 -0.8684 380.8902 519.1429)"/><rect width="3.8" height="3.2" x="261.5" y="209.8" fill="#F08B21" transform="matrix(-0.8684 -0.4959 0.4959 -0.8684 387.3354 525.4974)"/><rect width="3.8" height="3.2" x="265.6" y="212.1" fill="#F08B21" transform="matrix(-0.8684 -0.4959 0.4959 -0.8684 393.7805 531.852)"/><rect width="3.8" height="3.2" x="269.6" y="214.4" fill="#F08B21" transform="matrix(-0.8684 -0.4959 0.4959 -0.8684 400.2256 538.2066)"/></g></g><rect width="67" height="1.3" x="236.1" y="206.9" fill="#CDCCCC" transform="matrix(0.8684 0.4959 -0.4959 0.8684 138.437 -106.3506)"/><rect width="41.2" height="1.3" x="295.9" y="233.8" fill="#CDCCCC" transform="matrix(0.8684 0.4959 -0.4959 0.8684 157.9248 -126.1162)"/></g><rect width="6.4" height="9.4" x="286" y="234.1" fill="#CDCCCC" transform="matrix(-0.8684 -0.4959 0.4959 -0.8684 421.9834 589.577)"/><circle cx="292" cy="240.4" r="5.1" fill="#E6E6E5"/><circle cx="288.2" cy="216" r="4.2" fill="#E6E6E5"/><circle cx="288.2" cy="216" r="4.2" fill="#E6E6E5"/><circle cx="288.2" cy="216" r="4.2" fill="#E6E6E5"/><circle cx="288.2" cy="216" r="4.2" fill="#E6E6E5"/><circle cx="288.2" cy="216" r="4.2" fill="#E6E6E5"/><circle cx="288.2" cy="216" r="4.2" fill="#E6E6E5"/><circle cx="288.2" cy="216" r="4.2" fill="#E6E6E5"/><circle cx="288.2" cy="216" r="4.2" fill="#E6E6E5"/><circle cx="288.2" cy="216" r="4.2" fill="#E6E6E5"/><circle cx="288.2" cy="216" r="4.2" fill="#E6E6E5"/><circle cx="288.2" cy="216" r="4.2" fill="#E6E6E5"/><g><circle cx="290.7" cy="211.6" r=".3" fill="#E6E6E5"/><circle cx="288.2" cy="210.9" r=".3" fill="#E6E6E5"/><circle cx="285.7" cy="211.6" r=".3" fill="#E6E6E5"/><circle cx="283.8" cy="213.5" r=".3" fill="#E6E6E5"/><circle cx="283.2" cy="216" r=".3" fill="#E6E6E5"/><circle cx="283.8" cy="218.5" r=".3" fill="#E6E6E5"/><circle cx="285.7" cy="220.3" r=".3" fill="#E6E6E5"/><circle cx="288.2" cy="221" r=".3" fill="#E6E6E5"/><circle cx="290.8" cy="220.3" r=".3" fill="#E6E6E5"/><circle cx="292.6" cy="218.5" r=".3" fill="#E6E6E5"/><circle cx="293.3" cy="215.9" r=".3" fill="#E6E6E5"/><circle cx="292.6" cy="213.4" r=".3" fill="#E6E6E5"/></g><rect width="8.2" height="20.4" x="274.5" y="222.5" fill="#818181" transform="matrix(0.8684 0.4959 -0.4959 0.8684 152.0869 -107.541)"/><rect width="1.1" height="20.4" x="275" y="220.7" fill="#010101" opacity=".13" transform="matrix(0.8684 0.4959 -0.4959 0.8684 150.8021 -106.2379)"/><rect width="1.1" height="20.4" x="281.1" y="224.3" fill="#010101" opacity=".13" transform="matrix(0.8684 0.4959 -0.4959 0.8684 153.351 -108.8232)"/><rect width="9" height="15.9" x="260.3" y="258.2" fill="#E6E6E5" opacity=".6" transform="matrix(-0.8684 -0.4959 0.4959 -0.8684 362.7181 628.4762)"/><rect width="9" height="7.5" x="225.4" y="324.6" fill="#E6E6E5" opacity=".6" transform="matrix(-0.8684 -0.4959 0.4959 -0.8684 266.7524 727.4066)"/><circle cx="260.9" cy="263.9" r="5.8" fill="#E6E6E5"/><circle cx="260.9" cy="263.9" r="4.2" fill="#989898"/><path fill="#E6E6E5" d="M150.9,213.5l-6.8,12l70.3,40.1l6.8-12L150.9,213.5z M213.7,263.6l-67.6-38.6l5.3-9.3l67.6,38.6 L213.7,263.6z"/><rect width="80.9" height="13.8" x="212.4" y="272.8" fill="#E6E6E5" transform="matrix(-0.8684 -0.4959 0.4959 -0.8684 333.7523 648.012)"/><path fill="#E6E6E5" d="M291.4,293.8l-6.8,12l70.3,40.1l6.8-12L291.4,293.8z M354.3,343.8l-67.6-38.6l5.3-9.3l67.6,38.6 L354.3,343.8z"/><polygon fill="#FFF" points="195 136.2 206.1 142.5 173.7 199.1 153.7 208.5" opacity=".11"/><polygon fill="#FFF" points="208.4 143.8 219.5 150.1 198 187.7 178 197.1" opacity=".11"/><polygon fill="#FFF" points="221.5 151.3 232.5 157.6 221.7 176.6 201.7 186" opacity=".11"/><polygon fill="#FFF" points="245.9 165.3 225.9 174.6 234.9 159" opacity=".11"/><polygon fill="#FFF" points="354.7 227.4 365.7 233.7 333.4 290.3 313.4 299.7" opacity=".11"/><polygon fill="#FFF" points="379.1 241.3 357.6 278.9 337.6 288.3 368 235" opacity=".11"/><polygon fill="#FFF" points="392.2 248.8 381.3 267.8 361.3 277.2 381.1 242.5" opacity=".11"/><polygon fill="#FFF" points="405.6 256.5 385.6 265.8 394.5 250.2" opacity=".11"/><polygon fill="#FFF" points="300.8 321.7 311.9 328 279.5 384.6 259.5 394" opacity=".11"/><polygon fill="#FFF" points="325.2 335.6 303.8 373.2 283.8 382.6 314.2 329.3" opacity=".11"/><polygon fill="#FFF" points="338.3 343.1 327.5 362.1 307.5 371.5 327.3 336.8" opacity=".11"/><polygon fill="#FFF" points="351.7 350.8 331.7 360.1 340.7 344.4" opacity=".11"/><polygon fill="#FFF" points="141.1 230.5 152.2 236.9 119.9 293.4 99.9 302.8" opacity=".11"/><polygon fill="#FFF" points="154.5 238.2 165.6 244.5 144.1 282.1 124.1 291.5" opacity=".11"/><polygon fill="#FFF" points="167.6 245.7 178.7 252 167.8 271 147.8 280.4" opacity=".11"/><polygon fill="#FFF" points="192 259.6 172 269 181 253.3" opacity=".11"/></g><circle cx="610.5" cy="183.5" r="67" fill="#F3F3F3" opacity=".1"/><circle cx="660.7" cy="135" r="21.1" fill="#F3F3F3" opacity=".29"/><circle cx="533" cy="269.8" r="24.4" fill="#F3F3F3" opacity=".1"/><circle cx="508.5" cy="294.3" r="16.8" fill="#F3F3F3" opacity=".29"/></svg>