<svg xmlns="http://www.w3.org/2000/svg" viewBox="0 0 18 18"><defs><style>.cls-1{fill:#9fa4a8;}.cls-2{fill:#fff;opacity:0;}</style></defs><title>interface-light-circle</title><g id="Layer_2" data-name="Layer 2"><g id="Layer_1-2" data-name="Layer 1"><rect class="cls-1" x="2.69" y="5.99" width="2.79" height="2.79" rx="0.67" ry="0.67"/><rect class="cls-1" x="5.97" y="5.99" width="2.79" height="2.79" rx="0.67" ry="0.67"/><rect class="cls-1" x="9.24" y="5.99" width="2.79" height="2.79" rx="0.67" ry="0.67"/><rect class="cls-1" x="5.97" y="2.77" width="2.79" height="2.79" rx="0.67" ry="0.67"/><rect class="cls-1" x="9.24" y="2.77" width="2.79" height="2.79" rx="0.67" ry="0.67"/><rect class="cls-1" x="12.52" y="5.99" width="2.79" height="2.79" rx="0.67" ry="0.67"/><rect class="cls-1" x="2.69" y="9.22" width="2.79" height="2.79" rx="0.67" ry="0.67"/><rect class="cls-1" x="5.97" y="9.22" width="2.79" height="2.79" rx="0.67" ry="0.67"/><rect class="cls-1" x="9.24" y="9.22" width="2.79" height="2.79" rx="0.67" ry="0.67"/><rect class="cls-1" x="5.97" y="12.44" width="2.79" height="2.79" rx="0.67" ry="0.67"/><rect class="cls-1" x="9.24" y="12.44" width="2.79" height="2.79" rx="0.67" ry="0.67"/><rect class="cls-1" x="12.52" y="9.22" width="2.79" height="2.79" rx="0.67" ry="0.67"/><rect class="cls-2" width="18" height="18"/></g></g></svg>