<svg xmlns="http://www.w3.org/2000/svg" viewBox="0 0 18 18"><defs><style>.cls-1{fill:#fff;opacity:0;}.cls-2{fill:#9fa4a8;}</style></defs><title>data-rss</title><g id="Layer_2" data-name="Layer 2"><g id="Layer_1-2" data-name="Layer 1"><rect class="cls-1" width="18" height="18"/><path class="cls-2" d="M2.62,10a.78.78,0,0,1,.78-.78A5.42,5.42,0,0,1,8.8,14.61a.78.78,0,1,1-1.56,0,3.85,3.85,0,0,0-3.85-3.85A.78.78,0,0,1,2.62,10Z"/><path class="cls-2" d="M3.06,6.36a.78.78,0,0,1,.78-.78,8.59,8.59,0,0,1,8.58,8.58.78.78,0,0,1-1.56,0,7,7,0,0,0-7-7A.78.78,0,0,1,3.06,6.36Z"/><path class="cls-2" d="M3.51,3a.78.78,0,0,1,.78-.78,11.45,11.45,0,0,1,8.15,3.37,11.45,11.45,0,0,1,3.37,8.15.78.78,0,0,1-1.56,0,10,10,0,0,0-10-10A.78.78,0,0,1,3.51,3Z"/><circle class="cls-2" cx="3.83" cy="14.17" r="1.65"/></g></g></svg>