<svg xmlns="http://www.w3.org/2000/svg" viewBox="0 0 18 18"><defs><style>.cls-1{fill:#fff;opacity:0;}.cls-2{fill:#9fa4a8;fill-rule:evenodd;}</style></defs><title>data-kano-world</title><g id="Layer_2" data-name="Layer 2"><g id="Layer_1-2" data-name="Layer 1"><rect class="cls-1" width="18" height="18"/><g id="Shape_35" data-name="Shape 35"><path class="cls-2" d="M10.76,14.14a5.41,5.41,0,0,0,3.34-3.27,26.34,26.34,0,0,1-6.89,3.27A5.41,5.41,0,0,0,10.76,14.14Zm6.91-7.52V6.49l0-.06a.9.9,0,0,0-.09-.16,1.13,1.13,0,0,0-.42-.35,3.1,3.1,0,0,0-1.33-.2A13,13,0,0,0,13.54,6a5.44,5.44,0,0,0-10,3.2l-.44.2a11.2,11.2,0,0,0-1.53.86,4.56,4.56,0,0,0-.75.62,2.28,2.28,0,0,0-.37.5,1.49,1.49,0,0,0-.14.41s0,0,0,.07V12a1.47,1.47,0,0,0,0,.2v.14l0,.11h0v0l0,.07.07.14a1.38,1.38,0,0,0,.18.22,1.6,1.6,0,0,0,.37.25,2.4,2.4,0,0,0,.6.2,5.62,5.62,0,0,0,1,.1,11,11,0,0,0,1.59-.1l.19,0c.37,0,.74-.1,1.1-.17.75-.14,1.47-.31,2.17-.5,1-.3,2-.61,2.93-1a25.17,25.17,0,0,0,2.53-1.13c.42-.22.82-.43,1.2-.65l.52-.31.33-.2a13.32,13.32,0,0,0,1.5-1.1,3.35,3.35,0,0,0,.88-1.05,1.1,1.1,0,0,0,.1-.6Zm-13.52,5a12.51,12.51,0,0,1-1.53.19,4.71,4.71,0,0,1-.54,0h0c.11-.12.24-.24.37-.35a12.58,12.58,0,0,1,1.27-.93l0,0c0,.1.06.19.09.29a5.22,5.22,0,0,0,.36.82ZM16.68,6.84h0a0,0,0,0,1,0,0h0a2.31,2.31,0,0,1-.64.61,9.89,9.89,0,0,1-1.45.83l-.16.08a5.52,5.52,0,0,0-.25-1.09,4.65,4.65,0,0,0-.2-.49,11.23,11.23,0,0,1,1.83-.1,2.29,2.29,0,0,1,.88.16s0,0,0,0h0Z"/></g></g></g></svg>