<svg xmlns="http://www.w3.org/2000/svg" viewBox="0 0 18 18"><defs><style>.cls-1{fill:#9fa4a8;}.cls-2{fill:#fff;opacity:0;}</style></defs><title>data-sports</title><g id="Layer_2" data-name="Layer 2"><g id="Layer_1-2" data-name="Layer 1"><path class="cls-1" d="M17.4,9.14s0-.09,0-.14a8.34,8.34,0,0,0-2.47-6h0A8.34,8.34,0,0,0,9,.6H8.82A8.37,8.37,0,0,0,3.08,3h0A8.35,8.35,0,0,0,.6,9s0,.09,0,.14h0A8.35,8.35,0,0,0,3.08,15h0a8.37,8.37,0,0,0,5.74,2.44H9A8.34,8.34,0,0,0,14.92,15h0a8.35,8.35,0,0,0,2.47-5.8h0Zm-4.56-.68c0-.16,0-.32.05-.49v0c0-.17.06-.33.09-.49l0-.11c0-.16.08-.32.13-.47l0-.07q.07-.21.15-.42l0-.08c.06-.15.13-.3.2-.44l0-.1c.08-.15.15-.29.24-.44h0c.09-.14.18-.28.28-.42l.06-.09.3-.39,0,0a7.1,7.1,0,0,1,1.66,4.13H12.83Zm.75-4.89c-.13.15-.26.31-.38.47l-.05.07q-.17.23-.32.48l0,.06c-.1.17-.2.35-.29.52l-.06.11c-.09.18-.17.36-.24.54l0,.09q-.1.26-.19.53l0,.08c-.06.19-.11.38-.15.57l0,.13c0,.19-.08.39-.11.59v.09q0,.28-.06.57v.06H9.45V1.85a7.11,7.11,0,0,1,4.17,1.67ZM8.22,1.87V8.52H6.41V8.46q0-.29-.06-.57V7.8c0-.2-.06-.39-.11-.59l0-.12c0-.19-.1-.39-.15-.58l0-.07q-.09-.27-.19-.53l0-.08c-.07-.18-.16-.36-.25-.54L5.5,5.17c-.09-.18-.19-.35-.29-.52l0-.06Q5,4.34,4.85,4.11L4.8,4c-.12-.16-.25-.32-.38-.47l0,0A7.13,7.13,0,0,1,8.22,1.87ZM3.51,4.39l0,0,.3.39.06.09c.1.14.19.27.27.42h0c.09.14.16.29.24.43l0,.1c.07.15.14.29.2.44l0,.08q.08.21.15.42l0,.07c0,.16.09.31.13.47l0,.11c0,.16.07.33.09.49V8c0,.16,0,.32.05.49v.06H1.85A7.11,7.11,0,0,1,3.51,4.39ZM5.15,9.75v0s0,.1,0,.14,0,.32-.08.48l0,.2c0,.15-.07.29-.11.43l-.05.18c-.06.2-.13.39-.21.58v0c-.08.18-.16.36-.26.53l-.1.17L4,12.91l-.12.17-.29.39-.09.11,0,0A7.12,7.12,0,0,1,1.87,9.75Zm-.73,4.69c.12-.14.24-.29.35-.44l.06-.08.29-.43.05-.08q.15-.24.28-.49l.06-.11c.09-.17.17-.34.25-.52v0c.07-.17.14-.35.2-.52l0-.11q.09-.27.16-.54l0-.1c0-.18.08-.36.11-.53v-.05c0-.19.05-.38.07-.58V9.75H8.22v6.38a7.13,7.13,0,0,1-3.84-1.64Zm5,1.72V9.75h2.16v.06c0,.19,0,.39.07.58v.05c0,.18.07.36.11.54l0,.1q.07.28.16.55l0,.11c.06.18.13.35.2.52v0c.07.18.16.35.25.52l.06.11c.09.17.18.33.28.49l.05.08.3.44.05.08c.11.15.23.3.36.45l0,0A7.11,7.11,0,0,1,9.45,16.15Zm5-2.54,0,0-.07-.1q-.16-.2-.31-.41L14,12.91l-.23-.38-.09-.16c-.09-.18-.18-.36-.26-.54v0c-.08-.19-.15-.39-.22-.58L13.11,11q-.06-.22-.11-.44l0-.2c0-.16-.06-.32-.08-.48s0-.09,0-.14v0h3.28A7.11,7.11,0,0,1,14.49,13.61Z"/><rect class="cls-2" width="18" height="18"/></g></g></svg>