<svg xmlns="http://www.w3.org/2000/svg" xmlns:xlink="http://www.w3.org/1999/xlink" id="Layer_1" x="0" y="0" version="1.1" viewBox="0 0 226.8 226.8" xml:space="preserve" style="enable-background:new 0 0 226.8 226.8"><style type="text/css">.st27{fill:#ff3a5a}.st28{fill:#ff5c75}.st29{fill:#6adb3e}.st30{fill:#72eb42}</style><g><g><path d="M182.9,205.5h-139c-4.5,0-8.2-3.7-8.2-8.2V96.9h155.5v100.4C191.1,201.9,187.4,205.5,182.9,205.5z" class="st27"/><path d="M192.4,107.3H34.4c-4.5,0-8.2-3.7-8.2-8.2V69.3c0-4.5,3.7-8.2,8.2-8.2h157.9c4.5,0,8.2,3.7,8.2,8.2v29.8 C200.6,103.6,196.9,107.3,192.4,107.3z" class="st28"/></g><rect width="36.4" height="144.5" x="95.2" y="61" class="st29"/><rect width="36.4" height="47.2" x="95.2" y="61" class="st30"/><g><g><path d="M113.4,61.1h-7.9c-3.6-5.9-8-12.4-11.3-15.7c-2.4-2.4-5.6-3.7-9-3.7c-3.4,0-6.6,1.3-9,3.7 c-4.3,4.3-4.9,10.8-1.6,15.7H58.1c-9.2-9.2-9.2-23.8,0-33c9.2-9.2,24-9.2,33.2,0C100.5,37.3,113.4,61.1,113.4,61.1z" class="st29"/></g><g><path d="M168.7,61.1h-16.6c3.2-4.9,2.7-11.4-1.6-15.7c-2.4-2.4-5.6-3.7-9-3.7c-3.4,0-6.6,1.3-9,3.7 c-3.3,3.3-7.7,9.8-11.3,15.7h-7.9c0,0,12.9-23.8,22.1-33c9.2-9.2,24-9.2,33.2,0C177.8,37.3,177.8,51.9,168.7,61.1z" class="st29"/></g></g></g></svg>