<svg xmlns="http://www.w3.org/2000/svg" xmlns:xlink="http://www.w3.org/1999/xlink" id="Layer_1" x="0" y="0" version="1.1" viewBox="0 0 226.8 226.8" xml:space="preserve" style="enable-background:new 0 0 226.8 226.8"><style type="text/css">.st4{fill:#ffcd3e}.st17{fill:#6b6964}.st18{fill:#e0dac5}.st19{fill:#f2eee2}.st20{fill:#f2e5bd}</style><g><g><g><path d="M123.5,74.7L123.5,74.7c0-0.3,0.1-0.5,0.2-0.7c1.1-1.8,1.7-3.9,1.7-6.1c0-7.4-6.6-13.1-14.2-11.8 c-4.8,0.8-8.6,4.6-9.6,9.3c-0.7,3.2-0.1,6.2,1.4,8.7c0.1,0.2,0.2,0.5,0.2,0.7v0.1c0,1.2-1.3,1.8-2.3,1.2 c-5.8-4-9.6-10.6-9.6-18.2c0-14.7,9.8-28,16.3-35.2c3-3.4,8.3-3.4,11.4-0.1c6.1,6.7,15.1,18.8,16.2,32.3c0.7,8.4-3.1,16.5-9.5,21 C124.8,76.5,123.5,75.8,123.5,74.7z" class="st4"/></g></g><g><path d="M113.4,95.6c-2.4,0-4.3-1.9-4.3-4.3v-22c0-2.4,1.9-4.3,4.3-4.3c2.4,0,4.3,1.9,4.3,4.3v22 C117.7,93.7,115.7,95.6,113.4,95.6z" class="st17"/></g><g><path d="M128.7,206.8H98.1c-4.6,0-8.4-3.8-8.4-8.4v-96.2c0-4.6,3.8-8.4,8.4-8.4h30.6c4.6,0,8.4,3.8,8.4,8.4v96.2 C137.1,203,133.3,206.8,128.7,206.8z" class="st18"/><path d="M140.6,94.5v9c0,3.1-2.5,5.5-5.5,5.5H91.7c-3,0-5.5-2.5-5.5-5.5v-9c0-3.1,2.5-5.5,5.5-5.5h43.4 C138.1,88.9,140.6,91.4,140.6,94.5z" class="st19"/><path d="M95.3,139.7L95.3,139.7c-3.1,0-5.6-2.5-5.6-5.6v-28.1h11.1v28.1C100.8,137.2,98.3,139.7,95.3,139.7z" class="st19"/></g><path d="M140.6,94.5v1.7H86.2v-1.7c0-3.1,2.5-5.5,5.5-5.5h43.4C138.1,88.9,140.6,91.4,140.6,94.5z" class="st20"/></g></svg>