<svg xmlns="http://www.w3.org/2000/svg" xmlns:xlink="http://www.w3.org/1999/xlink" id="Layer_1" x="0" y="0" version="1.1" viewBox="0 0 226.8 226.8" xml:space="preserve" style="enable-background:new 0 0 226.8 226.8"><style type="text/css">.st4{fill:#ffcd3e}.st10{fill:#ff4a65}.st11{clip-path:url(#SVGID_2_)}.st12,.st13{fill:#ed3652}.st13{clip-path:url(#SVGID_2_)}.st14{fill:#e03851}</style><g><path d="M202.7,165.9H24c0-39.8,26.1-73.6,62.1-85.1c8.6-2.8,17.8-4.3,27.3-4.3c9.5,0,18.7,1.5,27.3,4.3 C176.7,92.4,202.7,126.1,202.7,165.9z" class="st10"/><g><defs><path id="SVGID_1_" d="M202.7,165.9H24c0-39.8,26.1-73.6,62.1-85.1c8.6-2.8,17.8-4.3,27.3-4.3c9.5,0,18.7,1.5,27.3,4.3 C176.7,92.4,202.7,126.1,202.7,165.9z"/></defs><use xlink:href="#SVGID_1_" style="overflow:visible;fill:#ff4a65"/><clipPath id="SVGID_2_"><use xlink:href="#SVGID_1_" style="overflow:visible"/></clipPath><g class="st11"><path d="M177.3,168.7H49.4v-2.7c0-40.1,17.7-75.3,44.1-87.6c6.4-3,13-4.5,19.8-4.5s13.5,1.5,19.9,4.5 c26.4,12.3,44.1,47.5,44.1,87.6V168.7z M55,163.2h116.9c-0.8-36.8-17-68.7-40.9-79.9c-5.6-2.7-11.5-4-17.5-4 c-6,0-11.9,1.3-17.5,4C72,94.5,55.7,126.4,55,163.2z" class="st12"/></g><path d="M95.4,103.7c0.6-2.6,1.4-5.3,2.2-7.9c0.8-2.6,1.8-5.2,2.9-7.8c1.1-2.5,2.4-5,4.1-7.3c0.9-1.2,1.8-2.2,3-3.2 c1.2-1,2.6-1.8,4.2-2.1c0.4-0.1,0.8-0.1,1.2-0.2l0.3,0l0.1,0l0.1,0l0.1,0c0.2,0,0.3,0,0.6,0c0.9,0.1,1.7,0.3,2.4,0.6 c1.5,0.6,2.7,1.6,3.8,2.6c0.3,0.3,0.5,0.5,0.8,0.8l0.4,0.4l0.2,0.2l0,0.1l0.1,0.1l0.1,0.1l1.2,1.6c0.4,0.5,0.8,1.2,1.2,1.8 l1.1,1.9c0.6,1.3,1.3,2.5,1.8,3.8l1.6,3.9l1.4,3.9l1.2,4c0.4,1.3,0.7,2.7,1.1,4c0.4,1.3,0.7,2.7,1,4c0.3,1.3,0.6,2.7,0.9,4l0.8,4 c0.5,2.7,0.9,5.4,1.4,8.1c0.4,2.7,0.8,5.4,1.1,8.1l0.5,4.1l0.4,4.1c0.3,2.7,0.4,5.5,0.6,8.2c0.2,2.7,0.3,5.5,0.4,8.2l0.2,8.2l0,0 l0.1,2.7H137H89.8h0h-2.9l0.1-2.7c0.6-11.6,1.7-23.1,3.5-34.5c0.1-0.6,0.6-1,1.2-0.9c0.5,0.1,0.9,0.6,0.9,1.1 c-0.7,11.4-0.7,22.9-0.1,34.3l-2.7-2.7h0H137l-2.7,2.7l0,0l0-8.1c-0.1-2.7-0.1-5.4-0.2-8.1c-0.1-2.7-0.2-5.4-0.4-8.1l-0.3-4 l-0.4-4c-0.2-2.7-0.5-5.4-0.8-8c-0.3-2.7-0.7-5.3-1.1-8l-0.7-4c-0.2-1.3-0.5-2.6-0.8-4c-0.2-1.3-0.5-2.6-0.9-3.9 c-0.3-1.3-0.6-2.6-1-3.9l-1.1-3.9l-1.2-3.8l-1.4-3.7c-0.5-1.2-1.1-2.4-1.6-3.6l-0.9-1.6c-0.3-0.6-0.6-1.1-1-1.7l-1.2-1.7l-0.1-0.1 l0,0c0,0-0.1-0.1,0,0l0,0l-0.1-0.2l-0.3-0.4c-0.2-0.2-0.4-0.5-0.6-0.7c-0.9-0.9-1.8-1.6-2.8-2c-0.5-0.2-1-0.4-1.5-0.4 c-0.1,0-0.2,0-0.4,0l-0.1,0c0,0-0.1,0,0,0l0,0l-0.2,0c-0.3,0-0.5,0-0.8,0.1c-2.1,0.4-4.1,2.2-5.6,4.2c-1.6,2-2.9,4.3-4,6.7 c-1.1,2.4-2.1,4.9-3,7.4c-0.9,2.5-1.6,5.1-2.4,7.7c-0.1,0.5-0.7,0.9-1.3,0.7C95.6,104.8,95.3,104.2,95.4,103.7L95.4,103.7z" class="st13"/></g><path d="M203.9,190.8h-181c-4.4,0-7.9-3.5-7.9-7.9v-25.1c0-4.4,3.5-7.9,7.9-7.9h181c4.4,0,7.9,3.5,7.9,7.9v25.1 C211.8,187.2,208.2,190.8,203.9,190.8z" class="st14"/><g><circle cx="113" cy="58.6" r="22.6" class="st4"/></g></g></svg>