<?xml version="1.0" encoding="utf-8"?>
<!-- Generator: Adobe Illustrator 20.1.0, SVG Export Plug-In . SVG Version: 6.00 Build 0)  -->
<svg version="1.1" id="Layer_1" xmlns="http://www.w3.org/2000/svg" xmlns:xlink="http://www.w3.org/1999/xlink" x="0px" y="0px"
	 viewBox="0 0 226.8 226.8" style="enable-background:new 0 0 226.8 226.8;" xml:space="preserve">
<style type="text/css">
	.st0{fill:#50ABF1;}
	.st1{fill:#E9586E;}
	.st2{fill:#DA9E80;}
	.st3{fill:#C3694B;}
	.st4{fill:#FFCD3E;}
	.st5{fill:#FFAD1A;}
	.st6{fill:#98AAB6;}
	.st7{fill:#667580;}
	.st8{fill:#5ABB35;}
	.st9{fill:#5A9235;}
	.st10{fill:#FF4A65;}
	.st11{clip-path:url(#SVGID_2_);}
	.st12{fill:#ED3652;}
	.st13{clip-path:url(#SVGID_2_);fill:#ED3652;}
	.st14{fill:#E03851;}
	.st15{clip-path:url(#SVGID_4_);fill:none;stroke:#ED3652;stroke-width:4.977;stroke-miterlimit:10;}
	.st16{clip-path:url(#SVGID_4_);}
	.st17{fill:#6B6964;}
	.st18{fill:#E0DAC5;}
	.st19{fill:#F2EEE2;}
	.st20{fill:#F2E5BD;}
	.st21{fill:#FFFFFF;}
	.st22{fill:none;stroke:#6B6964;stroke-width:3;stroke-linecap:round;stroke-miterlimit:10;}
	.st23{fill:#733E2C;}
	.st24{fill:#A8583C;}
	.st25{fill:#49A825;}
	.st26{fill:#FFD362;}
	.st27{fill:#FF3A5A;}
	.st28{fill:#FF5C75;}
	.st29{fill:#6ADB3E;}
	.st30{fill:#72EB42;}
</style>
<g>
	<g>
		<g>
			<g>
				<path class="st3" d="M172.8,175.9c3.5,3.5,5.3,8.1,5.3,12.8c0,4.6-1.8,9.2-5.3,12.7c-7.1,7.1-18.5,7.1-25.5,0l-30.8-30.8
					c-1.7-1.7-4.4-1.7-6.1,0l-30.8,30.8c-7.1,7.1-18.5,7.1-25.5,0c-3.5-3.5-5.3-8.1-5.3-12.7c0-4.6,1.8-9.2,5.3-12.8l29-29.1
					c1.3-1.3,2.1-3.1,2.1-5v-18.1c0-3-2.4-5.4-5.4-5.4l-20.1,0c-9.5,0-18-7.1-18.7-16.6c-0.4-5.5,1.7-10.6,5.2-14.2
					c3.3-3.3,7.8-5.3,12.8-5.3h27.2c0.7,0,1.1-0.9,0.6-1.4c-6-6.5-9.6-15.1-9.6-24.6c0-21.3,18.4-38.4,40.2-36.1
					c16.5,1.7,30,14.9,32,31.4c1.4,11.3-2.4,21.8-9.3,29.3c-0.5,0.5-0.1,1.4,0.6,1.4l26.4,0c9.5,0,18,7.1,18.7,16.6
					c0.4,5.5-1.7,10.6-5.2,14.2c-3.3,3.3-7.8,5.3-12.8,5.3H147c-3,0-5.4,2.4-5.4,5.4v18.1c0,1.9,0.7,3.6,2.1,5L172.8,175.9z"/>
			</g>
			<g>
				<path class="st21" d="M66,111.6h-2.5c-0.7,0-1.3-0.6-1.3-1.3V90.3c0-0.7,0.6-1.3,1.3-1.3H66c0.7,0,1.3,0.6,1.3,1.3v20.1
					C67.3,111.1,66.7,111.6,66,111.6z"/>
				<path class="st21" d="M163.3,111.6h-2.5c-0.7,0-1.3-0.6-1.3-1.3V90.3c0-0.7,0.6-1.3,1.3-1.3h2.5c0.7,0,1.3,0.6,1.3,1.3v20.1
					C164.6,111.1,164,111.6,163.3,111.6z"/>
			</g>
			<g>
				<path class="st21" d="M146.3,190.2l-1.8-1.8c-0.5-0.5-0.5-1.3,0-1.8l14.2-14.2c0.5-0.5,1.3-0.5,1.8,0l1.8,1.8
					c0.5,0.5,0.5,1.3,0,1.8l-14.2,14.2C147.7,190.8,146.8,190.8,146.3,190.2z"/>
				<path class="st21" d="M80.4,190.2l1.8-1.8c0.5-0.5,0.5-1.3,0-1.8L68,172.5c-0.5-0.5-1.3-0.5-1.8,0l-1.8,1.8
					c-0.5,0.5-0.5,1.3,0,1.8l14.2,14.2C79.1,190.8,79.9,190.8,80.4,190.2z"/>
			</g>
			<circle class="st23" cx="114.6" cy="98.3" r="4.2"/>
			<circle class="st23" cx="114.6" cy="114.8" r="4.2"/>
			<circle class="st23" cx="114.6" cy="131.3" r="4.2"/>
			<circle class="st21" cx="90.1" cy="50.3" r="4"/>
			<circle class="st21" cx="137.6" cy="50.3" r="4"/>
		</g>
	</g>
	<g>
		<path class="st23" d="M126.5,58.1c-0.1,0.9-0.3,1.7-0.7,2.5c-1.8,5.1-6.7,8.8-12.5,8.8c-5.7,0-10.7-3.7-12.5-8.8
			c-0.3-0.8-0.5-1.6-0.6-2.5c-0.2-1,0.7-2,1.7-2h22.8C125.9,56.1,126.7,57.1,126.5,58.1z"/>
		<path class="st21" d="M126.5,58.1c-0.1,0.9-0.3,1.7-0.7,2.5h-25c-0.3-0.8-0.5-1.6-0.6-2.5c-0.2-1,0.7-2,1.7-2h22.8
			C125.9,56.1,126.7,57.1,126.5,58.1z"/>
	</g>
</g>
</svg>
