<svg xmlns="http://www.w3.org/2000/svg" xmlns:xlink="http://www.w3.org/1999/xlink" id="Layer_1" x="0" y="0" version="1.1" viewBox="0 0 226.8 226.8" xml:space="preserve" style="enable-background:new 0 0 226.8 226.8"><style type="text/css">.st3{fill:#c3694b}.st21{fill:#fff}.st23{fill:#733e2c}</style><g><g><g><g><path d="M172.8,175.9c3.5,3.5,5.3,8.1,5.3,12.8c0,4.6-1.8,9.2-5.3,12.7c-7.1,7.1-18.5,7.1-25.5,0l-30.8-30.8 c-1.7-1.7-4.4-1.7-6.1,0l-30.8,30.8c-7.1,7.1-18.5,7.1-25.5,0c-3.5-3.5-5.3-8.1-5.3-12.7c0-4.6,1.8-9.2,5.3-12.8l29-29.1 c1.3-1.3,2.1-3.1,2.1-5v-18.1c0-3-2.4-5.4-5.4-5.4l-20.1,0c-9.5,0-18-7.1-18.7-16.6c-0.4-5.5,1.7-10.6,5.2-14.2 c3.3-3.3,7.8-5.3,12.8-5.3h27.2c0.7,0,1.1-0.9,0.6-1.4c-6-6.5-9.6-15.1-9.6-24.6c0-21.3,18.4-38.4,40.2-36.1 c16.5,1.7,30,14.9,32,31.4c1.4,11.3-2.4,21.8-9.3,29.3c-0.5,0.5-0.1,1.4,0.6,1.4l26.4,0c9.5,0,18,7.1,18.7,16.6 c0.4,5.5-1.7,10.6-5.2,14.2c-3.3,3.3-7.8,5.3-12.8,5.3H147c-3,0-5.4,2.4-5.4,5.4v18.1c0,1.9,0.7,3.6,2.1,5L172.8,175.9z" class="st3"/></g><g><path d="M66,111.6h-2.5c-0.7,0-1.3-0.6-1.3-1.3V90.3c0-0.7,0.6-1.3,1.3-1.3H66c0.7,0,1.3,0.6,1.3,1.3v20.1 C67.3,111.1,66.7,111.6,66,111.6z" class="st21"/><path d="M163.3,111.6h-2.5c-0.7,0-1.3-0.6-1.3-1.3V90.3c0-0.7,0.6-1.3,1.3-1.3h2.5c0.7,0,1.3,0.6,1.3,1.3v20.1 C164.6,111.1,164,111.6,163.3,111.6z" class="st21"/></g><g><path d="M146.3,190.2l-1.8-1.8c-0.5-0.5-0.5-1.3,0-1.8l14.2-14.2c0.5-0.5,1.3-0.5,1.8,0l1.8,1.8 c0.5,0.5,0.5,1.3,0,1.8l-14.2,14.2C147.7,190.8,146.8,190.8,146.3,190.2z" class="st21"/><path d="M80.4,190.2l1.8-1.8c0.5-0.5,0.5-1.3,0-1.8L68,172.5c-0.5-0.5-1.3-0.5-1.8,0l-1.8,1.8 c-0.5,0.5-0.5,1.3,0,1.8l14.2,14.2C79.1,190.8,79.9,190.8,80.4,190.2z" class="st21"/></g><circle cx="114.6" cy="98.3" r="4.2" class="st23"/><circle cx="114.6" cy="114.8" r="4.2" class="st23"/><circle cx="114.6" cy="131.3" r="4.2" class="st23"/><circle cx="90.1" cy="50.3" r="4" class="st21"/><circle cx="137.6" cy="50.3" r="4" class="st21"/></g></g><g><path d="M126.5,58.1c-0.1,0.9-0.3,1.7-0.7,2.5c-1.8,5.1-6.7,8.8-12.5,8.8c-5.7,0-10.7-3.7-12.5-8.8 c-0.3-0.8-0.5-1.6-0.6-2.5c-0.2-1,0.7-2,1.7-2h22.8C125.9,56.1,126.7,57.1,126.5,58.1z" class="st23"/><path d="M126.5,58.1c-0.1,0.9-0.3,1.7-0.7,2.5h-25c-0.3-0.8-0.5-1.6-0.6-2.5c-0.2-1,0.7-2,1.7-2h22.8 C125.9,56.1,126.7,57.1,126.5,58.1z" class="st21"/></g></g></svg>