<?xml version="1.0" encoding="UTF-8" standalone="no"?>
<svg width="14px" height="15px" viewBox="0 0 14 15" version="1.1" xmlns="http://www.w3.org/2000/svg" xmlns:xlink="http://www.w3.org/1999/xlink">
    <!-- Generator: Sketch 39.1 (31720) - http://www.bohemiancoding.com/sketch -->
    <title>Group</title>
    <desc>Created with Sketch.</desc>
    <defs></defs>
    <g id="Page-1" stroke="none" stroke-width="1" fill="none" fill-rule="evenodd">
        <g id="Artboard">
            <g id="Group">
                <path d="M0,11.56917 C0.0323438735,11.3793123 0.0552252964,11.1872688 0.0987470356,11.0000395 C0.250229249,10.3483202 0.554106719,9.77268775 1.02421344,9.29804348 C2.02003953,8.2926996 3.00324901,7.27288538 4.0369249,6.30752174 C5.04096838,5.36979842 6.58716601,5.12214229 7.8483004,5.75183794 C8.18067589,5.91776285 8.48582609,6.12566008 8.72437945,6.41360079 C9.01005138,6.75839921 8.9753834,7.27152964 8.65841897,7.58279447 C8.33794071,7.89751779 7.82644269,7.93177075 7.49030435,7.63472727 C7.17046245,7.35204348 6.82090514,7.16522925 6.38626877,7.16827273 C5.92426877,7.17153755 5.5236917,7.33663241 5.17549012,7.63541897 C5.12308696,7.68040711 5.07289723,7.72818972 5.02400791,7.77705138 C4.14364032,8.65686561 3.2641581,9.53762055 2.38320949,10.4168814 C2.03935178,10.7600751 1.80209881,11.1602095 1.77257708,11.6520079 C1.70844269,12.7203794 2.66282213,13.4661146 3.69359289,13.1645613 C4.03861265,13.0636285 4.32586166,12.8713636 4.57741897,12.619253 C5.04628063,12.1493399 5.51652569,11.6808103 5.98516601,11.2106482 C6.0207747,11.1749289 6.04805534,11.1309091 6.07923715,11.0907075 C6.41033992,11.3301186 6.76949802,11.4260988 7.13919763,11.4821265 C7.50903557,11.5381818 7.88075494,11.5579644 8.26694466,11.4119881 C8.21935573,11.4633953 8.1906087,11.4966522 8.15959289,11.527668 C7.38383794,12.3034783 6.60664427,13.0779051 5.83224506,13.8550988 C5.24571146,14.4437352 4.55282213,14.8258854 3.72726482,14.9561186 C3.63762055,14.9702569 3.54808696,14.9853636 3.45849802,15 L3.01581028,15 C2.97148617,14.9902332 2.92757708,14.9771739 2.88272727,14.9711976 C1.60504743,14.8009842 0.71372332,14.1183043 0.229173913,12.9288854 C0.108264822,12.6321186 0.0740671937,12.3000474 0,11.9841897 L0,11.56917" id="Fill-1" fill-opacity="0.1" fill="#000000"></path>
                <path d="M14,4.40316206 C13.9687628,4.59780632 13.9486759,4.79502372 13.9042688,4.98659684 C13.7543636,5.63305929 13.4590356,6.20935573 12.9928854,6.68117787 C11.99183,7.69440711 10.9958379,8.71386166 9.96301976,9.69416601 C8.95261265,10.653249 7.38558103,10.8546996 6.13808696,10.2413834 C5.80914229,10.079664 5.51049407,9.86933202 5.27465217,9.58518182 C4.99310277,9.24597233 5.02326087,8.74183399 5.33247826,8.42575494 C5.64390909,8.10743478 6.1606917,8.06914229 6.5009249,8.35616996 C6.7473913,8.56409486 6.99897628,8.75088142 7.32650988,8.80447431 C7.90817391,8.89965217 8.41543874,8.7321502 8.84357312,8.3423913 C9.16709486,8.04783794 9.46831621,7.72871542 9.7782253,7.41930435 C10.394834,6.80366403 11.01017,6.18680632 11.6268617,5.57122134 C11.9675099,5.23118182 12.1977352,4.83270751 12.2272846,4.34594466 C12.2956798,3.21794862 11.2291344,2.46717787 10.1601818,2.88294466 C9.87608696,2.99345059 9.63512648,3.16703953 9.42103162,3.38154941 C8.95205929,3.85143478 8.4818419,4.32004743 8.01322925,4.79026482 C7.97762055,4.82598419 7.95067194,4.87033597 7.92967194,4.8976996 C7.23636759,4.5049249 6.53019763,4.39018577 5.7617747,4.55561265 C5.7932332,4.52194071 5.82040316,4.49106324 5.84942688,4.46203953 C6.62523715,3.68617391 7.40154545,2.91077866 8.17713439,2.13466403 C8.76098419,1.55037154 9.45210277,1.1729249 10.2727352,1.04388142 C10.3624071,1.02977075 10.451913,1.01463636 10.541502,1 L10.9841897,1 C11.0282372,1.00993281 11.0718419,1.02335178 11.116415,1.02924506 C12.3947866,1.19860079 13.2851976,1.88335573 13.7697194,3.07172332 C13.8939209,3.37629249 13.9257391,3.71854545 14,4.04347826 L14,4.40316206 Z" id="Fill-3" fill-opacity="0.1" fill="#000000"></path>
                <path d="M0,10.56917 C0.0323438735,10.3793123 0.0552252964,10.1872688 0.0987470356,10.0000395 C0.250229249,9.34832016 0.554106719,8.77268775 1.02421344,8.29804348 C2.02003953,7.2926996 3.00324901,6.27288538 4.0369249,5.30752174 C5.04096838,4.36979842 6.58716601,4.12214229 7.8483004,4.75183794 C8.18067589,4.91776285 8.48582609,5.12566008 8.72437945,5.41360079 C9.01005138,5.75839921 8.9753834,6.27152964 8.65841897,6.58279447 C8.33794071,6.89751779 7.82644269,6.93177075 7.49030435,6.63472727 C7.17046245,6.35204348 6.82090514,6.16522925 6.38626877,6.16827273 C5.92426877,6.17153755 5.5236917,6.33663241 5.17549012,6.63541897 C5.12308696,6.68040711 5.07289723,6.72818972 5.02400791,6.77705138 C4.14364032,7.65686561 3.2641581,8.53762055 2.38320949,9.41688142 C2.03935178,9.7600751 1.80209881,10.1602095 1.77257708,10.6520079 C1.70844269,11.7203794 2.66282213,12.4661146 3.69359289,12.1645613 C4.03861265,12.0636285 4.32586166,11.8713636 4.57741897,11.619253 C5.04628063,11.1493399 5.51652569,10.6808103 5.98516601,10.2106482 C6.0207747,10.1749289 6.04805534,10.1309091 6.07923715,10.0907075 C6.41033992,10.3301186 6.76949802,10.4260988 7.13919763,10.4821265 C7.50903557,10.5381818 7.88075494,10.5579644 8.26694466,10.4119881 C8.21935573,10.4633953 8.1906087,10.4966522 8.15959289,10.527668 C7.38383794,11.3034783 6.60664427,12.0779051 5.83224506,12.8550988 C5.24571146,13.4437352 4.55282213,13.8258854 3.72726482,13.9561186 C3.63762055,13.9702569 3.54808696,13.9853636 3.45849802,14 L3.01581028,14 C2.97148617,13.9902332 2.92757708,13.9771739 2.88272727,13.9711976 C1.60504743,13.8009842 0.71372332,13.1183043 0.229173913,11.9288854 C0.108264822,11.6321186 0.0740671937,11.3000474 0,10.9841897 L0,10.56917" id="Fill-1" fill="#FFFFFF"></path>
                <path d="M14,3.40316206 C13.9687628,3.59780632 13.9486759,3.79502372 13.9042688,3.98659684 C13.7543636,4.63305929 13.4590356,5.20935573 12.9928854,5.68117787 C11.99183,6.69440711 10.9958379,7.71386166 9.96301976,8.69416601 C8.95261265,9.65324901 7.38558103,9.8546996 6.13808696,9.2413834 C5.80914229,9.07966403 5.51049407,8.86933202 5.27465217,8.58518182 C4.99310277,8.24597233 5.02326087,7.74183399 5.33247826,7.42575494 C5.64390909,7.10743478 6.1606917,7.06914229 6.5009249,7.35616996 C6.7473913,7.56409486 6.99897628,7.75088142 7.32650988,7.80447431 C7.90817391,7.89965217 8.41543874,7.7321502 8.84357312,7.3423913 C9.16709486,7.04783794 9.46831621,6.72871542 9.7782253,6.41930435 C10.394834,5.80366403 11.01017,5.18680632 11.6268617,4.57122134 C11.9675099,4.23118182 12.1977352,3.83270751 12.2272846,3.34594466 C12.2956798,2.21794862 11.2291344,1.46717787 10.1601818,1.88294466 C9.87608696,1.99345059 9.63512648,2.16703953 9.42103162,2.38154941 C8.95205929,2.85143478 8.4818419,3.32004743 8.01322925,3.79026482 C7.97762055,3.82598419 7.95067194,3.87033597 7.92967194,3.8976996 C7.23636759,3.5049249 6.53019763,3.39018577 5.7617747,3.55561265 C5.7932332,3.52194071 5.82040316,3.49106324 5.84942688,3.46203953 C6.62523715,2.68617391 7.40154545,1.91077866 8.17713439,1.13466403 C8.76098419,0.550371542 9.45210277,0.172924901 10.2727352,0.0438814229 C10.3624071,0.029770751 10.451913,0.0146363636 10.541502,0 L10.9841897,0 C11.0282372,0.00993280632 11.0718419,0.0233517787 11.116415,0.0292450593 C12.3947866,0.198600791 13.2851976,0.883355731 13.7697194,2.07172332 C13.8939209,2.37629249 13.9257391,2.71854545 14,3.04347826 L14,3.40316206 Z" id="Fill-3" fill="#FFFFFF"></path>
            </g>
        </g>
    </g>
</svg>