<?xml version="1.0" encoding="utf-8"?>
<!-- Generator: Adobe Illustrator 19.2.1, SVG Export Plug-In . SVG Version: 6.00 Build 0)  -->
<svg version="1.1" id="Layer_1" xmlns="http://www.w3.org/2000/svg" xmlns:xlink="http://www.w3.org/1999/xlink" x="0px" y="0px"
	 viewBox="0 0 89.5 55.5" style="enable-background:new 0 0 89.5 55.5;" xml:space="preserve">
<style type="text/css">
	.st0{fill:#FFFFFF;}
</style>
<g>
	<path class="st0" d="M48.8,42.7c-24.6,8.1-46.4,9-48.6,2.2c-1.4-4.4,5.5-10.9,17.1-17.2c0,1.5,0.1,2.9,0.4,4.3
		c-5,3.3-7.7,6.3-7,8.5c0.7,2.2,5,3.1,11.5,2.6c0.1,0,0.1,0,0.2,0c-2.3-3.3-3.7-7.1-4.4-11.2c-0.2-1.4-0.2-2.8-0.2-4.3v-0.1
		C17.9,12.3,29.9,0.1,45,0c9.2,0,17.3,4.7,22.3,11.7c0.6,0.9,1.2,1.8,1.7,2.8c1.4,2.6,2.4,5.4,2.9,8.4c0.2,1.5,0.4,2.9,0.4,4.5
		c7.1-4,11.1-7.9,10.3-10.5c-0.8-2.4-5.9-3.2-13.3-2.5c-0.5-1-1.1-1.9-1.7-2.8c12-1.4,20.5-0.1,21.9,4
		C91.6,22.5,73.4,34.6,48.8,42.7z"/>
	<path class="st0" d="M70,38.6c-4.3,9.6-13.9,16.3-25,16.3c-2.1,0-4.2-0.2-6.2-0.7c5.3-1.9,11-4.4,16.8-7.3
		C60.8,44.2,65.7,41.4,70,38.6z"/>
</g>
</svg>
