<?xml version="1.0" encoding="utf-8"?>
<!-- Generator: Adobe Illustrator 20.1.0, SVG Export Plug-In . SVG Version: 6.00 Build 0)  -->
<svg version="1.1" xmlns="http://www.w3.org/2000/svg" xmlns:xlink="http://www.w3.org/1999/xlink" x="0px" y="0px"
	 viewBox="0 0 140 140" style="enable-background:new 0 0 140 140;" xml:space="preserve">
<style type="text/css">
	.st0{display:none;fill:#EA5455;}
	.st1{display:none;opacity:0.74;fill:#CCCCCC;}
	.st2{opacity:0.15;}
	.st3{fill:#068888;}
	.st4{fill:#09C6AB;}
	.st5{fill:#F7E74A;}
	.st6{fill:#928A3D;}
	.st7{fill:#337567;}
	.st8{fill:#225151;}
</style>
<g id="Backgrounds__x26__Shadows">
</g>
<g id="App_Icons">
	<path class="st0" d="M474,3544H346c-3.3,0-6-2.7-6-6v-128c0-3.3,2.7-6,6-6h128c3.3,0,6,2.7,6,6v128C480,3541.3,477.3,3544,474,3544
		z"/>
	<path class="st1" d="M474,3539H346c-3.3,0-6-2.7-6-6v5c0,3.3,2.7,6,6,6h128c3.3,0,6-2.7,6-6v-5C480,3536.3,477.3,3539,474,3539z"/>
	<g>
		<g>
			<g class="st2">
				<path d="M71.2,110.7c-9.9,0-19.7-3.8-27.3-11.3c-4.8-4.8-4.8-12.5,0-17.3c4.8-4.8,12.5-4.8,17.3,0c5.5,5.5,14.4,5.5,19.9,0
					c4.8-4.8,12.5-4.8,17.3,0c4.8,4.8,4.8,12.5,0,17.3C90.9,106.9,81,110.7,71.2,110.7z"/>
				<path d="M52.3,102.8c-3.1,0-6.3-1.2-8.6-3.6c-15-15-15-39.5,0-54.5c4.8-4.8,12.5-4.8,17.3,0s4.8,12.5,0,17.3
					c-5.5,5.5-5.5,14.4,0,19.9c4.8,4.8,4.8,12.5,0,17.3C58.6,101.6,55.5,102.8,52.3,102.8z"/>
				<path d="M52.3,65.6c-3.1,0-6.3-1.2-8.6-3.6c-4.8-4.8-4.8-12.5,0-17.3c15-15,39.5-15,54.5,0c4.8,4.8,4.8,12.5,0,17.3
					c-4.8,4.8-12.5,4.8-17.3,0c-5.5-5.5-14.4-5.5-19.9,0C58.6,64.4,55.5,65.6,52.3,65.6z"/>
			</g>
			<g>
				<g>
					<path class="st3" d="M71.2,108.7c-9.9,0-19.7-3.8-27.3-11.3c-4.8-4.8-4.8-12.5,0-17.3c4.8-4.8,12.5-4.8,17.3,0
						c5.5,5.5,14.4,5.5,19.9,0c4.8-4.8,12.5-4.8,17.3,0c4.8,4.8,4.8,12.5,0,17.3C90.9,104.9,81,108.7,71.2,108.7z"/>
					<path class="st4" d="M52.3,100.8c-3.1,0-6.3-1.2-8.6-3.6c-15-15-15-39.5,0-54.5c4.8-4.8,12.5-4.8,17.3,0s4.8,12.5,0,17.3
						c-5.5,5.5-5.5,14.4,0,19.9c4.8,4.8,4.8,12.5,0,17.3C58.6,99.6,55.5,100.8,52.3,100.8z"/>
					<path class="st5" d="M52.3,63.6c-3.1,0-6.3-1.2-8.6-3.6c-4.8-4.8-4.8-12.5,0-17.3c15-15,39.5-15,54.5,0
						c4.8,4.8,4.8,12.5,0,17.3c-4.8,4.8-12.5,4.8-17.3,0c-5.5-5.5-14.4-5.5-19.9,0C58.6,62.4,55.5,63.6,52.3,63.6z"/>
				</g>
			</g>
		</g>
	</g>
	<circle class="st6" cx="51.7" cy="51.8" r="2.6"/>
	<circle class="st7" cx="52.1" cy="89" r="2.6"/>
	<circle class="st8" cx="90.4" cy="89" r="2.6"/>
</g>
<g id="Layer_3">
</g>
<g id="Layer_4">
</g>
</svg>
