<?xml version="1.0" encoding="utf-8"?>
<!-- Generator: Adobe Illustrator 19.2.1, SVG Export Plug-In . SVG Version: 6.00 Build 0)  -->
<svg version="1.1" id="Layer_1" xmlns="http://www.w3.org/2000/svg" xmlns:xlink="http://www.w3.org/1999/xlink" x="0px" y="0px"
	 viewBox="0 0 1049.2 91.6" style="enable-background:new 0 0 1049.2 91.6;" xml:space="preserve">
<style type="text/css">
	.st0{fill:#FFD907;}
	.st1{fill:#4092CF;}
	.st2{fill:#E6362E;}
	.st3{fill:#5FB23E;}
	.st4{fill:#B92E27;}
	.st5{fill:#B985B9;}
	.st6{fill:#FACF00;}
	.st7{fill:#F18B1A;}
	.st8{fill:#1AA240;}
	.st9{fill:#2084C5;}
	.st10{fill:#9E65A3;}
	.st11{fill:#E86D18;}
	.st12{fill:#F08233;}
	.st13{fill:#E7652C;}
	.st14{opacity:0.85;enable-background:new    ;}
	.st15{clip-path:url(#SVGID_2_);}
	.st16{clip-path:url(#SVGID_4_);}
	.st17{clip-path:url(#SVGID_6_);fill-rule:evenodd;clip-rule:evenodd;fill:#FFFFFF;}
	.st18{clip-path:url(#SVGID_8_);}
	.st19{clip-path:url(#SVGID_10_);fill:none;stroke:#FFFFFF;stroke-width:8.5243;stroke-miterlimit:10;}
</style>
<path class="st0" d="M743.4,64.2c-2.4,2.4-6.4,2.1-8.4-0.7c-11.2-15.5-9.8-37.3,4.2-51.3c14-14,35.8-15.4,51.3-4.2
	c2.8,2,3.1,6,0.7,8.4L743.4,64.2z"/>
<path class="st1" d="M785.7,21.9c2.4-2.4,6.4-2.1,8.4,0.7c12.4,16.7,11,40.5-4.2,55.6c-15.2,15.2-38.9,16.6-55.6,4.2
	c-2.7-2-3.1-6-0.7-8.4L785.7,21.9z"/>
<path class="st2" d="M525.7,65.8h-29.6c-2.9,0-5.3,2.2-5.6,5.1l-1.4,13.4l-0.1,1.4c-0.3,2.9-2.7,5.1-5.6,5.1h-27.9
	c-3.6,0-6-3.2-5.6-6.5c0.1-0.7,0.3-1.4,0.7-2l21.1-36.6L493,9.1c2.2-3.7,7.6-3.7,9.7,0l21.1,36.6l6.7,11.7
	C532.8,61.1,530,65.8,525.7,65.8"/>
<path class="st0" d="M634.1,33.7C633.9,51.6,619,65.8,601,65.8h-7.8c-3.1,0-5.6-2.5-5.6-5.6v-54c0-3.1,2.5-5.6,5.6-5.6h8.3
	C619.7,0.6,634.4,15.4,634.1,33.7"/>
<path class="st1" d="M706.7,22.1h-29.5c-3.1,0-5.6-2.5-5.6-5.6V6.2c0-3.1,2.5-5.6,5.6-5.6h8.3c10.4,0,19.6,4.8,25.6,12.4
	C714,16.7,711.4,22.1,706.7,22.1"/>
<path class="st3" d="M718.1,33.3c-0.1,18-15.1,32.5-33.1,32.5h-7.8c-3.1,0-5.6-2.5-5.6-5.6V27.7c0-3.1,2.5-5.6,5.6-5.6h34.7
	c2.7,0,5,1.9,5.5,4.5C717.9,28.8,718.1,31,718.1,33.3"/>
<path class="st4" d="M525.7,65.8h-29.6c-1.9,0-3.6,0.9-4.6,2.4l0.2-1.9c0.3-2.9,2.7-5.1,5.6-5.1h29.6c1.8,0,3.3-0.8,4.3-2
	C531.9,62.5,529.4,65.8,525.7,65.8"/>
<path class="st1" d="M587.7,71.5v13.7c0,3.1-2.5,5.6-5.6,5.6h-16.8c-3.1,0-5.6-2.5-5.6-5.6V71.5c0-3.1,2.5-5.6,5.6-5.6H582
	C585.1,65.9,587.7,68.4,587.7,71.5"/>
<path class="st5" d="M587.7,6.2v54c0,3.1-2.5,5.6-5.6,5.6h-16.8c-3.1,0-5.6-2.5-5.6-5.6v-54c0-3.1,2.5-5.6,5.6-5.6H582
	C585.1,0.6,587.7,3.1,587.7,6.2"/>
<path class="st6" d="M634.1,33.6c-0.2,17.9-15.2,32.2-33.1,32.2h-7.8c-3.1,0-5.6-2.5-5.6-5.6V55c0,3.1,2.5,5.6,5.6,5.6h7.8
	c17.2,0,31.6-13.1,33-30C634.1,31.6,634.1,32.6,634.1,33.6"/>
<path class="st7" d="M671.6,6.2v78.9c0,3.1-2.5,5.6-5.6,5.6h-16.8c-3.1,0-5.6-2.5-5.6-5.6V6.2c0-3.1,2.5-5.6,5.6-5.6H666
	C669.1,0.6,671.6,3.1,671.6,6.2"/>
<path class="st8" d="M718.1,33.3c-0.1,18-15,32.5-33.1,32.5h-7.8c-3.1,0-5.6-2.5-5.6-5.6v-5.1c0,3.1,2.5,5.6,5.6,5.6h7.8
	c17.2,0,31.6-13.1,33-30C718.1,31.7,718.1,32.5,718.1,33.3"/>
<path class="st3" d="M540.1,90.8h-45.4c-3.3,0-5.9-2.9-5.6-6.2l0-0.2l1.4-13.4c0.3-2.9,2.7-5.1,5.6-5.1h36.1c2,0,3.9,1.1,4.9,2.8
	l7.9,13.7c0.4,0.6,0.6,1.3,0.7,2C546.2,87.6,543.7,90.8,540.1,90.8"/>
<path class="st9" d="M706.7,22.1h-29.5c-3.1,0-5.6-2.5-5.6-5.6v-4.9c0,3.1,2.5,5.6,5.6,5.6h29.5c2.4,0,4.2-1.4,5.1-3.2
	C713.5,17.6,711,22.1,706.7,22.1"/>
<path class="st4" d="M489.2,84.3l-0.1,1.4c-0.3,2.9-2.7,5.1-5.6,5.1h-27.9c-3.6,0-6-3.2-5.6-6.5H489.2z"/>
<path class="st8" d="M545.7,84.3c0.5,3.2-2,6.5-5.6,6.5h-45.4c-3.3,0-5.9-2.9-5.6-6.2l0-0.2H545.7z"/>
<path class="st9" d="M559.6,84.3h28v0.8c0,3.1-2.5,5.6-5.6,5.6h-16.8c-3.1,0-5.6-2.5-5.6-5.6V84.3z"/>
<path class="st10" d="M559.6,59.4h28v0.8c0,3.1-2.5,5.6-5.6,5.6h-16.8c-3.1,0-5.6-2.5-5.6-5.6V59.4z"/>
<path class="st11" d="M671.6,84.3v0.8c0,3.1-2.5,5.6-5.6,5.6h-16.8c-3.1,0-5.6-2.5-5.6-5.6v-0.8H671.6z"/>
<path class="st6" d="M791.2,16.5l-47.7,47.7c-2.4,2.4-6.4,2.1-8.4-0.7c-5.5-7.7-8-16.9-7.4-26c0.5,7.1,3,14.2,7.4,20.3
	c2,2.8,6,3.1,8.4,0.7l47.7-47.7c0.3-0.3,0.6-0.7,0.8-1.1C793.3,11.8,793,14.6,791.2,16.5"/>
<path class="st9" d="M789.9,78.2c-15.2,15.2-38.9,16.6-55.6,4.2c-2.3-1.7-2.9-4.8-1.6-7.2c0.4,0.7,0.9,1.3,1.6,1.8
	c16.7,12.4,40.5,11,55.6-4.2c7.6-7.6,11.8-17.5,12.4-27.5C803.1,57.2,798.9,69.2,789.9,78.2"/>
<path class="st5" d="M51.9,71.4v13.9c0,3-2.4,5.4-5.4,5.4H5.4c-3,0-5.4-2.4-5.4-5.4V71.4c0-3,2.4-5.4,5.4-5.4h41.1
	C49.5,66,51.9,68.4,51.9,71.4"/>
<path class="st7" d="M52,36.4v24.1c0,3-2.5,5-5.5,5H5.4c-3,0-5.4-2-5.4-5V11.3C0,7,4.7,4.4,8.3,6.6l41.1,25.2
	C51,32.8,52,34.5,52,36.4z"/>
<path class="st3" d="M103.8,11.3v74.1c0,3-2.4,5.4-5.4,5.4H57.4c-3,0-5.4-2.4-5.4-5.4V36.4c0-1.9,1-3.6,2.6-4.6L95.6,6.6
	C99.2,4.4,103.8,7,103.8,11.3"/>
<path class="st0" d="M209.3,90.7h-89.2c-3.1,0-5.1-3.4-3.5-6.1l0.2-0.3l41.6-72.1c1.7-3,6.3-1.8,6.3,1.7v48c0,2.2,1.8,4.1,4.1,4.1
	h30.9c1.5,0,2.8,0.8,3.5,2l9.4,16.3l0.2,0.3C214.4,87.3,212.5,90.7,209.3,90.7"/>
<path class="st3" d="M195.1,66h-26.2c-2.3,0-4.1-1.8-4.1-4.1V22.1c0.3-2.9,2.8-5.2,5.7-5.2c2,0,3.8,1,4.8,2.6
	c0.1,0.2,0.3,0.4,0.4,0.6l21.8,37.7l1.2,2C200.1,62.6,198.2,66,195.1,66"/>
<path class="st2" d="M294,84.3c-0.2,3.4-2.9,6.4-6.8,6.4h-11.4c-3.6,0-6.6-2.8-6.8-6.4c0-0.1,0-0.3,0-0.4V54.4c0-2.7,3.4-3.7,5-1.5
	l18.8,27.2C293.7,81.4,294.1,82.9,294,84.3"/>
<path class="st1" d="M294.3,9.1l-20.1,29.1l-3.5,5.1c-1,1.5-2.7,2.3-4.5,2.3h-34.5c-3,0-5.4-2.4-5.4-5.4V6c0-3,2.4-5.4,5.4-5.4h58.2
	C294.2,0.6,296.8,5.5,294.3,9.1"/>
<path class="st5" d="M269,51.1v34.2c0,3-2.4,5.4-5.4,5.4h-31.9c-3,0-5.4-2.4-5.4-5.4V51.1c0-3,2.4-5.4,5.4-5.4h31.9
	C266.6,45.7,269,48.1,269,51.1"/>
<path class="st12" d="M383.6,71.4v13.9c0,3-2.4,5.4-5.4,5.4H315c-3,0-5.4-2.4-5.4-5.4V71.4c0-3,2.4-5.4,5.4-5.4h63.1
	C381.1,66,383.6,68.4,383.6,71.4"/>
<path class="st0" d="M383.6,6.6v13.9c0,3-2.4,5.4-5.4,5.4H315c-3,0-5.4-2.4-5.4-5.4V6.6c0-3,2.4-5.4,5.4-5.4h63.1
	C381.1,1.2,383.6,3.6,383.6,6.6"/>
<path class="st2" d="M365.1,31.4v9.2c0,0.1,0,0.1,0,0.2c-0.1,2.9-2.5,5.3-5.4,5.3h-18c-0.8,0-1.4,0.6-1.4,1.4v13.2
	c0,3-2.4,5.4-5.4,5.4H315c-3,0-5.4-2.4-5.4-5.4V31.4c0-3,2.4-5.4,5.4-5.4h44.6C362.6,25.9,365.1,28.4,365.1,31.4"/>
<path class="st6" d="M212.9,84.6c1.6,2.7-0.4,6.1-3.5,6.1h-89.2c-3.1,0-5.1-3.4-3.5-6.1l0.2-0.3h95.9L212.9,84.6z"/>
<path class="st10" d="M226.2,84.3H269v1c0,3-2.4,5.4-5.4,5.4h-31.9c-3,0-5.4-2.4-5.4-5.4V84.3z"/>
<path class="st4" d="M269,84.3h25c-0.2,3.4-2.9,6.4-6.8,6.4h-11.4C272.2,90.7,269.2,87.9,269,84.3"/>
<path class="st13" d="M383.6,84.3v1c0,3-2.4,5.4-5.4,5.4H315c-3,0-5.4-2.4-5.4-5.4v-1H383.6z"/>
<path class="st9" d="M274.1,38.3l-3.5,5.1c-1,1.5-2.7,2.3-4.5,2.3h-34.5c-3,0-5.4-2.4-5.4-5.4v-2H274.1z"/>
<path class="st8" d="M198.6,59.9c1.5,2.7-0.4,6.1-3.6,6.1h-26.2c-2.3,0-4.1-1.8-4.1-4.1v-2H198.6z"/>
<path class="st4" d="M340.3,59.9v0.6c0,3-2.4,5.4-5.4,5.4H315c-3,0-5.4-2.4-5.4-5.4v-0.6H340.3z"/>
<path class="st6" d="M383.6,20.5c0,3-2.4,5.4-5.4,5.4H315c-3,0-5.4-2.4-5.4-5.4H383.6z"/>
<path class="st4" d="M365.1,40.7c-0.1,2.9-2.5,5.3-5.4,5.3h-18c-0.8,0-1.4,0.6-1.4,1.4v-2.3c0-2.4,2-4.4,4.4-4.4H365.1z"/>
<path class="st10" d="M0,84.3H52v1c0,3-2.4,5.4-5.4,5.4H5.5c-3,0-5.4-2.4-5.4-5.4L0,84.3"/>
<path class="st11" d="M0,59.5H52v1c0,3-2.4,5.4-5.4,5.4H5.5c-3,0-5.4-2.4-5.4-5.4L0,59.5"/>
<path class="st8" d="M51.9,84.3h51.9v1c0,3-2.4,5.4-5.4,5.4H57.4c-3,0-5.4-2.4-5.4-5.4L51.9,84.3"/>
<g class="st14">
	<g>
		<defs>
			<rect id="SVGID_1_" x="863.8" width="185.4" height="91.6"/>
		</defs>
		<clipPath id="SVGID_2_">
			<use xlink:href="#SVGID_1_"  style="overflow:visible;"/>
		</clipPath>
		<g class="st15">
			<defs>
				<path id="SVGID_3_" d="M997.5,61.8c-3.6,0-5.3-1.5-5.3-3.9c0-2.3,1.5-3.6,4.3-3.6h7.5V56C1004,59.6,1000.9,61.8,997.5,61.8z
					 M998.2,42.9c3.7,0,5.8,1.9,5.8,4.8v1.2h-8.4c-5.6,0-10.4,3.1-10.4,9c0,5.8,4.2,9.7,10.4,9.7c3.8,0,6.6-1,8.4-3.7
					c0,1.9,1.5,3.4,3.4,3.4c1.9,0,3.4-1.5,3.4-3.4V47.4c0-6.8-4.7-10.7-12.7-10.7c-5.5,0-8.7,2.1-10.5,4.1c-0.6,0.6-0.8,1.4-0.8,2.1
					c0,1.7,1.3,3,3,3c0.8,0,1.3-0.2,1.9-0.6C993.4,44.2,995.4,42.9,998.2,42.9z M969.4,37.7h-1.5c-1.6,0-2.9,1.3-2.9,2.9
					s1.3,2.9,2.9,2.9h1.5v15.1c0,5.1,3.5,8.7,9.2,8.7c1.7,0,3-1.3,3-3s-1.3-3-3-3c-1.2,0-2.4-0.8-2.4-2.3V43.4h2.9
					c1.6,0,2.9-1.3,2.9-2.9s-1.3-2.9-2.9-2.9h-2.9v-5.4c0-1.9-1.5-3.4-3.4-3.4s-3.4,1.5-3.4,3.4V37.7z M949.6,42.7
					c4.2,0,5.9,3.1,5.9,6.2h-12.7C943.2,44.8,945.9,42.7,949.6,42.7z M935.8,52c0,10.7,5.5,15.5,14.4,15.5c5.8,0,9.2-2.5,10.3-3.5
					c0.6-0.5,1.1-1.3,1.1-2.4c0-1.7-1.3-3-3-3c-0.8,0-1.3,0.3-2,0.7c-1.5,1-3.5,2-6.3,2c-4.2,0-7.5-2.1-7.5-6.7h15.8
					c3.9,0,3.9-2.7,3.9-5.1c0-4.4-2-12.7-12.8-12.7C940.9,36.8,935.8,42.3,935.8,52z M911.9,45.9c0,0,2.5-3.3,6.3-3.3
					c4.3,0,6.8,3.2,6.8,9.5c0,6.3-2.4,9.5-6.8,9.5c-3.7,0-6.3-2.5-6.3-6.9V45.9z M919,36.8c-3.1,0-5.8,1.3-7,2.6V24.6
					c0-1.9-1.5-3.5-3.5-3.5c-1.9,0-3.5,1.5-3.5,3.5v30.1c0,8.5,5.5,12.8,13.2,12.8c8.6,0,13.7-4.9,13.7-15.3S927,36.8,919,36.8z
					 M863.8,8.5c0-4.7,3.8-8.5,8.5-8.5h168.4c4.7,0,8.5,3.8,8.5,8.5v74c0,4.7-3.8,8.5-8.5,8.5h-13.9H872.4c-4.7,0-8.5-3.8-8.5-8.5
					V8.5z"/>
			</defs>
			<clipPath id="SVGID_4_">
				<use xlink:href="#SVGID_3_"  style="overflow:visible;"/>
			</clipPath>
			<g class="st16">
				<defs>
					<rect id="SVGID_5_" x="863.8" width="185.4" height="91.6"/>
				</defs>
				<clipPath id="SVGID_6_">
					<use xlink:href="#SVGID_5_"  style="overflow:visible;"/>
				</clipPath>
				<path class="st17" d="M997.5,61.8c-3.6,0-5.3-1.5-5.3-3.9c0-2.3,1.5-3.6,4.3-3.6h7.5V56C1004,59.6,1000.9,61.8,997.5,61.8z
					 M998.2,42.9c3.7,0,5.8,1.9,5.8,4.8v1.2h-8.4c-5.6,0-10.4,3.1-10.4,9c0,5.8,4.2,9.7,10.4,9.7c3.8,0,6.6-1,8.4-3.7
					c0,1.9,1.5,3.4,3.4,3.4c1.9,0,3.4-1.5,3.4-3.4V47.4c0-6.8-4.7-10.7-12.7-10.7c-5.5,0-8.7,2.1-10.5,4.1c-0.6,0.6-0.8,1.4-0.8,2.1
					c0,1.7,1.3,3,3,3c0.8,0,1.3-0.2,1.9-0.6C993.4,44.2,995.4,42.9,998.2,42.9z M969.4,37.7h-1.5c-1.6,0-2.9,1.3-2.9,2.9
					s1.3,2.9,2.9,2.9h1.5v15.1c0,5.1,3.5,8.7,9.2,8.7c1.7,0,3-1.3,3-3s-1.3-3-3-3c-1.2,0-2.4-0.8-2.4-2.3V43.4h2.9
					c1.6,0,2.9-1.3,2.9-2.9s-1.3-2.9-2.9-2.9h-2.9v-5.4c0-1.9-1.5-3.4-3.4-3.4s-3.4,1.5-3.4,3.4V37.7z M949.6,42.7
					c4.2,0,5.9,3.1,5.9,6.2h-12.7C943.2,44.8,945.9,42.7,949.6,42.7z M935.8,52c0,10.7,5.5,15.5,14.4,15.5c5.8,0,9.2-2.5,10.3-3.5
					c0.6-0.5,1.1-1.3,1.1-2.4c0-1.7-1.3-3-3-3c-0.8,0-1.3,0.3-2,0.7c-1.5,1-3.5,2-6.3,2c-4.2,0-7.5-2.1-7.5-6.7h15.8
					c3.9,0,3.9-2.7,3.9-5.1c0-4.4-2-12.7-12.8-12.7C940.9,36.8,935.8,42.3,935.8,52z M911.9,45.9c0,0,2.5-3.3,6.3-3.3
					c4.3,0,6.8,3.2,6.8,9.5c0,6.3-2.4,9.5-6.8,9.5c-3.7,0-6.3-2.5-6.3-6.9V45.9z M919,36.8c-3.1,0-5.8,1.3-7,2.6V24.6
					c0-1.9-1.5-3.5-3.5-3.5c-1.9,0-3.5,1.5-3.5,3.5v30.1c0,8.5,5.5,12.8,13.2,12.8c8.6,0,13.7-4.9,13.7-15.3S927,36.8,919,36.8z
					 M863.8,8.5c0-4.7,3.8-8.5,8.5-8.5h168.4c4.7,0,8.5,3.8,8.5,8.5v74c0,4.7-3.8,8.5-8.5,8.5h-13.9H872.4c-4.7,0-8.5-3.8-8.5-8.5
					V8.5z"/>
			</g>
		</g>
		<g class="st15">
			<defs>
				<path id="SVGID_7_" d="M997.5,61.8c-3.6,0-5.3-1.5-5.3-3.9c0-2.3,1.5-3.6,4.3-3.6h7.5V56C1004,59.6,1000.9,61.8,997.5,61.8z
					 M998.5,42.9c3.7,0.1,5.7,2.1,5.6,5l0,1.1l-8.4-0.3c-5.6-0.2-10.5,2.7-10.7,8.6c-0.2,5.7,3.8,9.8,10.1,10
					c3.8,0.1,6.7-0.7,8.5-3.4c-0.1,1.9,1.4,3.4,3.3,3.5c1.9,0.1,3.4-1.4,3.5-3.3l0.6-16.4c0.3-6.8-4.3-10.8-12.3-11.1
					c-5.5-0.2-8.8,1.8-10.6,3.7c-0.6,0.6-0.9,1.4-0.9,2.1c-0.1,1.7,1.2,3.1,2.9,3.1c0.8,0,1.3-0.1,1.9-0.6
					C993.7,44,995.7,42.8,998.5,42.9z M969.4,37.7h-1.5c-1.6,0-2.9,1.3-2.9,2.9s1.3,2.9,2.9,2.9h1.5v15.1c0,5.1,3.5,8.7,9.2,8.7
					c1.7,0,3-1.3,3-3s-1.3-3-3-3c-1.2,0-2.4-0.8-2.4-2.3V43.4h2.9c1.6,0,2.9-1.3,2.9-2.9s-1.3-2.9-2.9-2.9h-2.9v-5.4
					c0-1.9-1.5-3.4-3.4-3.4s-3.4,1.5-3.4,3.4V37.7z M949.6,42.7c4.2,0,5.9,3.1,5.9,6.2h-12.7C943.2,44.8,945.9,42.7,949.6,42.7z
					 M935.8,52c0,10.7,5.5,15.5,14.4,15.5c5.8,0,9.2-2.5,10.3-3.5c0.6-0.5,1.1-1.3,1.1-2.4c0-1.7-1.3-3-3-3c-0.8,0-1.3,0.3-2,0.7
					c-1.5,1-3.5,2-6.3,2c-4.2,0-7.5-2.1-7.5-6.7h15.8c3.9,0,3.9-2.7,3.9-5.1c0-4.4-2-12.7-12.8-12.7C940.9,36.8,935.8,42.3,935.8,52
					z M911.9,45.9c0,0,2.5-3.3,6.3-3.3c4.3,0,6.8,3.2,6.8,9.5c0,6.3-2.4,9.5-6.8,9.5c-3.7,0-6.3-2.5-6.3-6.9V45.9z M919,36.8
					c-3.1,0-5.8,1.3-7,2.6V24.6c0-1.9-1.5-3.5-3.5-3.5c-1.9,0-3.5,1.5-3.5,3.5v30.1c0,8.5,5.5,12.8,13.2,12.8
					c8.6,0,13.7-4.9,13.7-15.3S927,36.8,919,36.8z M863.8,8.5c0-4.7,3.8-8.5,8.5-8.5h168.4c4.7,0,8.5,3.8,8.5,8.5v74
					c0,4.7-3.8,8.5-8.5,8.5h-13.9H872.4c-4.7,0-8.5-3.8-8.5-8.5V8.5z"/>
			</defs>
			<clipPath id="SVGID_8_">
				<use xlink:href="#SVGID_7_"  style="overflow:visible;"/>
			</clipPath>
			<g class="st18">
				<defs>
					<rect id="SVGID_9_" x="863.8" width="185.4" height="91.6"/>
				</defs>
				<clipPath id="SVGID_10_">
					<use xlink:href="#SVGID_9_"  style="overflow:visible;"/>
				</clipPath>
				<path class="st19" d="M997.5,61.8c-3.6,0-5.3-1.5-5.3-3.9c0-2.3,1.5-3.6,4.3-3.6h7.5V56C1004,59.6,1000.9,61.8,997.5,61.8z
					 M998.2,42.9c3.7,0,5.8,1.9,5.8,4.8v1.2h-8.4c-5.6,0-10.4,3.1-10.4,9c0,5.8,4.2,9.7,10.4,9.7c3.8,0,6.6-1,8.4-3.7
					c0,1.9,1.5,3.4,3.4,3.4c1.9,0,3.4-1.5,3.4-3.4V47.4c0-6.8-4.7-10.7-12.7-10.7c-5.5,0-8.7,2.1-10.5,4.1c-0.6,0.6-0.8,1.4-0.8,2.1
					c0,1.7,1.3,3,3,3c0.8,0,1.3-0.2,1.9-0.6C993.4,44.2,995.4,42.9,998.2,42.9z M969.4,37.7h-1.5c-1.6,0-2.9,1.3-2.9,2.9
					s1.3,2.9,2.9,2.9h1.5v15.1c0,5.1,3.5,8.7,9.2,8.7c1.7,0,3-1.3,3-3c0-1.7-1.3-3-3-3c-1.2,0-2.4-0.8-2.4-2.3V43.4h2.9
					c1.6,0,2.9-1.3,2.9-2.9s-1.3-2.9-2.9-2.9h-2.9v-5.4c0-1.9-1.5-3.4-3.4-3.4s-3.4,1.5-3.4,3.4V37.7z M949.6,42.7
					c4.2,0,5.9,3.1,5.9,6.2h-12.7C943.2,44.8,945.9,42.7,949.6,42.7z M935.8,52c0,10.7,5.5,15.5,14.4,15.5c5.8,0,9.2-2.5,10.3-3.5
					c0.6-0.5,1.1-1.3,1.1-2.4c0-1.7-1.3-3-3-3c-0.8,0-1.3,0.3-2,0.7c-1.5,1-3.5,2-6.3,2c-4.2,0-7.5-2.1-7.5-6.7h15.8
					c3.9,0,3.9-2.7,3.9-5.1c0-4.4-2-12.7-12.8-12.7C940.9,36.8,935.8,42.3,935.8,52z M911.9,45.9c0,0,2.5-3.3,6.3-3.3
					c4.3,0,6.8,3.2,6.8,9.5c0,6.3-2.4,9.5-6.8,9.5c-3.7,0-6.3-2.5-6.3-6.9V45.9z M919,36.8c-3.1,0-5.8,1.3-7,2.6V24.6
					c0-1.9-1.5-3.5-3.5-3.5c-1.9,0-3.5,1.5-3.5,3.5v30.1c0,8.5,5.5,12.8,13.2,12.8c8.6,0,13.7-4.9,13.7-15.3S927,36.8,919,36.8z
					 M863.8,8.5c0-4.7,3.8-8.5,8.5-8.5h168.4c4.7,0,8.5,3.8,8.5,8.5v74c0,4.7-3.8,8.5-8.5,8.5h-13.9H872.4c-4.7,0-8.5-3.8-8.5-8.5
					V8.5z"/>
			</g>
		</g>
	</g>
</g>
</svg>
