<?xml version="1.0" encoding="utf-8"?>
<!-- Generator: Adobe Illustrator 19.2.1, SVG Export Plug-In . SVG Version: 6.00 Build 0)  -->
<svg version="1.1" id="Layer_1" xmlns="http://www.w3.org/2000/svg" xmlns:xlink="http://www.w3.org/1999/xlink" x="0px" y="0px"
	 viewBox="0 0 70 70" style="enable-background:new 0 0 70 70;" xml:space="preserve">
<style type="text/css">
	.st0{fill:#FFFFFF;}
	.st1{fill:#B985B9;}
	.st2{fill:#F18B19;}
	.st3{fill:#5DB13D;}
	.st4{opacity:0.5;}
	.st5{clip-path:url(#SVGID_2_);}
	.st6{clip-path:url(#SVGID_4_);}
</style>
<g>
	<g>
		<path class="st0" d="M67.1,70H2.9C1.3,70,0,68.7,0,67.1V2.9C0,1.3,1.3,0,2.9,0h64.2C68.7,0,70,1.3,70,2.9v64.2
			C70,68.7,68.7,70,67.1,70z"/>
	</g>
	<g>
		<path class="st1" d="M35,44.2V50c0,1.2-1,2.2-2.2,2.2h-17c-1.2,0-2.2-1-2.2-2.2v-5.8c0-1.2,1-2.2,2.2-2.2h17C34,42,35,43,35,44.2"
			/>
		<path class="st2" d="M35,29.8v10c0,1.2-1,2.2-2.2,2.2h-17c-1.2,0-2.2-1-2.2-2.2V19.3c0-1.8,1.9-2.8,3.4-1.9l17,10.4
			C34.6,28.2,35,29,35,29.8"/>
		<path class="st3" d="M56.4,19.3v30.6c0,1.2-1,2.2-2.2,2.2h-17c-1.2,0-2.3-1-2.3-2.2V29.8c0-0.8,0.4-1.5,1.1-1.9l17-10.4
			C54.5,16.5,56.4,17.6,56.4,19.3"/>
		<g class="st4">
			<g>
				<g>
					<defs>
						<rect id="SVGID_1_" x="13.5" y="49.6" width="42.9" height="2.7"/>
					</defs>
					<clipPath id="SVGID_2_">
						<use xlink:href="#SVGID_1_"  style="overflow:visible;"/>
					</clipPath>
					<path class="st5" d="M56.4,49.6V50c0,1.2-1,2.2-2.2,2.2h-17c-1.2,0-2.3-1-2.3-2.2c0,1.2-1,2.2-2.2,2.2h-17
						c-1.2,0-2.2-1-2.2-2.2v-0.4H56.4z"/>
				</g>
			</g>
		</g>
		<g class="st4">
			<g>
				<g>
					<defs>
						<rect id="SVGID_3_" x="13.5" y="39.5" width="21.5" height="2.5"/>
					</defs>
					<clipPath id="SVGID_4_">
						<use xlink:href="#SVGID_3_"  style="overflow:visible;"/>
					</clipPath>
					<path class="st6" d="M35,39.5v0.3c0,1.2-1,2.2-2.2,2.2h-17c-1.2,0-2.2-1-2.2-2.2v-0.3H35z"/>
				</g>
			</g>
		</g>
	</g>
</g>
</svg>
