<?xml version="1.0" encoding="utf-8"?>
<!-- Generator: Adobe Illustrator 19.2.1, SVG Export Plug-In . SVG Version: 6.00 Build 0)  -->
<svg version="1.1" id="Layer_1" xmlns="http://www.w3.org/2000/svg" xmlns:xlink="http://www.w3.org/1999/xlink" x="0px" y="0px"
	 viewBox="0 0 1530 436.6" style="enable-background:new 0 0 1530 436.6;" xml:space="preserve">
<style type="text/css">
	.st0{fill:#4A3F53;}
	.st1{clip-path:url(#SVGID_2_);fill:#53475D;}
	.st2{opacity:0.5;clip-path:url(#SVGID_2_);fill:#53475D;}
	.st3{clip-path:url(#SVGID_2_);fill:#6C5D7A;}
	.st4{clip-path:url(#SVGID_2_);}
	.st5{fill:#5FB7E7;}
	.st6{fill:#81C4E5;}
	.st7{fill:#52B762;}
	.st8{fill:#04AB52;}
	.st9{fill:#048D46;}
	.st10{clip-path:url(#SVGID_4_);}
	.st11{fill:#F05074;}
	.st12{fill:#AEDCF5;}
	.st13{fill:#49A3DB;}
	.st14{opacity:0.12;clip-path:url(#SVGID_6_);}
	.st15{fill:#221F1F;}
	.st16{fill:#F1605C;}
	.st17{opacity:0.75;fill:#F1605C;}
	.st18{opacity:0.2;fill:#FFFFFF;}
	.st19{clip-path:url(#SVGID_8_);}
	.st20{opacity:0.15;fill:#8B255A;}
	.st21{fill:#8B255A;}
	.st22{fill:#CF3352;}
	.st23{fill:#F3725F;}
	.st24{fill:#FECA5F;}
	.st25{fill:#D4CD89;}
	.st26{fill:#F4EB9D;}
	.st27{fill:#6E5E7B;}
</style>
<g>
	<g>
		<rect x="0" class="st0" width="1530" height="436.6"/>
	</g>
	<g>
		<g>
			<defs>
				<path id="SVGID_1_" d="M1527.5,436.6L0,437.2v-253c0,0,1321.9-175.6,1527.5-173.9V436.6z"/>
			</defs>
			<clipPath id="SVGID_2_">
				<use xlink:href="#SVGID_1_"  style="overflow:visible;"/>
			</clipPath>
			<polygon class="st1" points="1583.2,485 -40.7,389.2 -40.7,581.2 1339.8,565.9 			"/>
			<polygon class="st2" points="1608.5,598.2 0,222.2 0,437.2 1352.4,707.4 			"/>
			<polygon class="st3" points="1156.9,470.6 1583.2,530.9 1362.4,578.9 1238.4,566.2 			"/>
			<g class="st4">
				<g>
					<path class="st5" d="M1722.5,550.9c22.7,168.1-135.7,328.2-353.7,357.7c-218,29.4-413.2-83-435.9-251
						c-8.1-60.1,6.9-119.2,39.5-171.6c38.5-61.9,101.6-114.6,180-148.8c27.7-12.1,57.4-21.9,88.5-29c2.2-0.5,4.4-1,6.7-1.5
						c12.8-2.7,25.8-5,39-6.8c80-10.8,156.9-2.5,223.3,20.6c2.2,0.8,4.5,1.6,6.7,2.4C1627.8,363.6,1708.4,446.5,1722.5,550.9z"/>
					<path class="st6" d="M1516.5,322.8c-29.6,14.7-82.3,22.4-141.7,18.7c-56.5-3.5-105.5-16.6-133.9-33.4c2.2-0.5,4.4-1,6.7-1.5
						c12.8-2.7,25.8-5,39-6.8c80-10.8,156.9-2.5,223.3,20.6C1512.1,321.2,1514.3,322,1516.5,322.8z"/>
					<path class="st7" d="M1283.2,420.5l-8.8,38.3c-0.1,0.6-0.6,1.1-1.2,1.1l-144.4,25.3c-0.2,0-0.4,0-0.6,0l-64.2-15.1
						c-0.2-0.1-0.5-0.2-0.6-0.3l-17-15.1l-5.4-4.8c-0.5-0.4-1.2-0.5-1.7-0.2l-21.3,11.2c-0.6,0.3-0.9,0.9-0.8,1.5l3.4,25.5
						c0.1,1-0.7,1.8-1.6,1.7l-24-1.7l-24.5-1.7c-1.2-0.1-1.8-1.4-1.2-2.4c38.8-61.4,101.6-113.7,179.4-148c0.9-0.4,2,0.2,2.1,1.2
						l2.8,20.5c0.1,0.5,0.4,1,0.9,1.2l9,4l58.5,26c0.3,0.1,0.5,0.2,0.8,0.1l25.6-3.5c0.5-0.1,0.9,0.1,1.3,0.4l33.3,33
						C1283.2,419.4,1283.3,420,1283.2,420.5z"/>
					<path class="st8" d="M1283.2,420.5l-8.8,38.3c-0.1,0.6-0.6,1.1-1.2,1.1l-144.4,25.3c-0.2,0-0.4,0-0.6,0l-64.2-15.1
						c-0.2-0.1-0.5-0.2-0.6-0.3l-17-15.1l-5.4-4.8c-0.5-0.4-1.2-0.5-1.7-0.2l-21.3,11.2c-0.6,0.3-0.9,0.9-0.8,1.5l3.4,25.5
						c0.1,1-0.7,1.8-1.6,1.7l-24-1.7c1-1.9,2.1-3.8,3.1-5.7c33-58.1,86.5-107.7,153.2-141.2l2.2,16.5c0.1,0.5,0.4,1,0.9,1.2l9,4
						l58.5,26c0.3,0.1,0.5,0.2,0.8,0.1l25.6-3.5c0.5-0.1,0.9,0.1,1.3,0.4l33.3,33C1283.2,419.4,1283.3,420,1283.2,420.5z"/>
					<path class="st9" d="M1667.3,432.1c0.3,0.9-0.3,1.8-1.2,1.9l-27.6,4.5l-63,10.2c-0.7,0.1-1.4-0.3-1.6-0.9l-15.1-37.4
						c-0.2-0.4-0.5-0.8-1-0.9l-65.4-18.5c-0.9-0.3-1.4-1.3-0.9-2.1l3.9-8c0.5-1-0.2-2.1-1.2-2.2l-26-2.2c-0.4,0-0.8-0.2-1-0.5
						l-11.1-13.5c-0.8-1-0.1-2.5,1.2-2.5l20.7-0.1l65.2-1.8c0.3,0,0.5-0.1,0.8-0.2l3.3-2.1l18-11.4c0.5-0.3,1-0.3,1.5-0.1l86.2,41.4
						c0.4,0.2,0.7,0.5,0.8,0.9L1667.3,432.1z"/>
					<path class="st8" d="M1638.5,438.5l-63,10.2c-0.7,0.1-1.4-0.3-1.6-0.9l-15.1-37.4c-0.2-0.4-0.5-0.8-1-0.9l-65.4-18.5
						c-0.9-0.3-1.4-1.3-0.9-2.1l3.9-8c0.5-1-0.2-2.1-1.2-2.2l-26-2.2c-0.4,0-0.8-0.2-1-0.5l-11.1-13.5c-0.8-1-0.1-2.5,1.2-2.5
						l20.7-0.1l65.2-1.8c0.3,0,0.5-0.1,0.8-0.2l3.3-2.1C1583.8,378,1614.9,406,1638.5,438.5z"/>
					<path class="st8" d="M1274.1,395.4l5,5.8c2.1,2.4,6,1.5,6.8-1.6l0,0c0.2-0.7,0.2-1.4,0-2l-2.3-8.5c-0.8-2.9-4.5-3.9-6.6-1.8
						l-2.7,2.7C1272.9,391.5,1272.8,393.8,1274.1,395.4z"/>
				</g>
				<g>
					<defs>
						<path id="SVGID_3_" d="M1526,197.1l18.5,137.1c-9.1-4.1-18.4-8-28-11.5c-2.2-0.8-4.4-1.6-6.7-2.4
							c-41.3-14.4-86.6-23-134.2-24.9l-260.5,252.7l-97.8,3.7l67.2-230.1l157.5-63.8l-3-22.2L1526,197.1z"/>
					</defs>
					<clipPath id="SVGID_4_">
						<use xlink:href="#SVGID_3_"  style="overflow:visible;"/>
					</clipPath>
					<g class="st10">
						<path class="st11" d="M1049.8,528.2c0,0,0.9-2.1,2.6-6.1c0.8-2,1.9-4.5,3.1-7.4c0.2-0.4,0.3-0.7,0.5-1.1
							c0.2-0.4,0.4-0.8,0.5-1.2c0.3-0.8,0.7-1.6,1.1-2.4c0.8-1.7,1.6-3.4,2.4-5.3c3.5-7.4,7.9-16.3,13.4-26.2
							c5.5-10,12-21,19.7-32.7c7.6-11.7,16.4-24.1,26.3-36.6c9.9-12.6,20.9-25.4,33-38c12.1-12.6,25.3-24.9,39.4-36.6
							c14.1-11.7,29.2-22.6,45-32.5l6-3.6l3-1.8l3-1.7l1.5-0.9l1.5-0.9l3-1.7l3-1.7l3.1-1.6c8.2-4.3,16.5-8.3,25-11.9
							c16.9-7.1,34.1-12.8,51.2-16.3c17.1-3.6,34-5.2,50-4.5c16,0.6,31,3.4,44.2,8c6.6,2.3,12.8,4.9,18.4,7.9
							c0.7,0.4,1.4,0.7,2.1,1.1c0.7,0.4,1.4,0.8,2,1.2c1.3,0.8,2.7,1.5,4,2.3c2.5,1.6,5,3.2,7.3,4.9c9.3,6.5,16.4,13.5,21.8,19.5
							c5.4,6.1,9.1,11.3,11.5,14.9c1.2,1.8,2.1,3.2,2.7,4.2c0.6,1,0.9,1.5,0.9,1.5c0.1,0.2,0.1,0.5-0.1,0.6s-0.5,0.1-0.6-0.1l0,0
							c0,0-0.3-0.5-0.9-1.4c-0.6-1-1.5-2.3-2.7-4.1c-2.4-3.6-6.1-8.8-11.5-14.8c-5.4-6-12.5-12.8-21.7-19.2
							c-2.3-1.7-4.7-3.2-7.3-4.8c-1.3-0.8-2.6-1.5-3.9-2.3c-0.7-0.4-1.3-0.8-2-1.1c-0.7-0.4-1.4-0.7-2.1-1.1
							c-5.6-2.9-11.7-5.4-18.3-7.6c-13.1-4.4-28-7-43.8-7.5c-15.8-0.5-32.5,1.3-49.4,5.1c-16.9,3.7-33.8,9.5-50.4,16.8
							c-8.3,3.6-16.5,7.7-24.5,12.1l-3,1.6l-3,1.7l-3,1.7l-1.5,0.8l-1.5,0.9l-3,1.8l-2.9,1.8l-5.9,3.7c-15.4,10-30.3,21-44.1,32.8
							c-13.8,11.7-26.7,24.1-38.5,36.7c-11.8,12.6-22.5,25.4-32.1,37.9c-9.7,12.6-18.1,24.9-25.5,36.5
							c-7.4,11.6-13.7,22.6-18.9,32.5c-5.2,9.9-9.5,18.7-12.8,26c-0.8,1.8-1.6,3.6-2.3,5.2c-0.4,0.8-0.7,1.6-1,2.4
							c-0.2,0.4-0.3,0.7-0.5,1.1c-0.2,0.4-0.3,0.7-0.5,1.1c-1.2,2.9-2.2,5.4-3,7.4c-1.6,4-2.5,6.2-2.5,6.2c-0.8,2.1-3.2,3.1-5.3,2.2
							C1049.9,532.7,1048.9,530.3,1049.8,528.2C1049.8,528.3,1049.8,528.2,1049.8,528.2z"/>
					</g>
				</g>
				<g>
					<g>
						
							<ellipse transform="matrix(0.991 -0.1338 0.1338 0.991 -23.0236 181.1018)" class="st12" cx="1335.7" cy="261.8" rx="14.9" ry="14.9"/>
					</g>
					
						<ellipse transform="matrix(0.991 -0.1338 0.1338 0.991 -23.0236 181.1018)" class="st13" cx="1335.7" cy="261.8" rx="7.6" ry="7.6"/>
				</g>
				<g>
					<defs>
						<path id="SVGID_5_" d="M1722.5,550.9c22.7,168.1-135.7,328.2-353.7,357.7c-218,29.4-413.2-83-435.9-251
							c-8.1-60.1,6.9-119.2,39.5-171.6c38.5-61.9,101.6-114.6,180-148.8c27.7-12.1,57.4-21.9,88.5-29c2.2-0.5,4.4-1,6.7-1.5
							c12.8-2.7,25.8-5,39-6.8c80-10.8,156.9-2.5,223.3,20.6c2.2,0.8,4.5,1.6,6.7,2.4C1627.8,363.6,1708.4,446.5,1722.5,550.9z"/>
					</defs>
					<clipPath id="SVGID_6_">
						<use xlink:href="#SVGID_5_"  style="overflow:visible;"/>
					</clipPath>
					<g class="st14">
						<path class="st15" d="M1088.6,569.9c0,0,0.5-1.7,1.4-4.9c0.4-1.6,1-3.5,1.6-5.8c0.2-0.6,0.3-1.2,0.5-1.8
							c0.1-0.3,0.2-0.6,0.3-1c0.1-0.3,0.2-0.6,0.3-1c0.4-1.3,0.8-2.7,1.3-4.2c3.6-11.8,9.4-28.5,17.6-48.1
							c4.1-9.7,8.8-20.2,14.2-31.1c2.7-5.4,5.6-11,8.5-16.6c1.5-2.8,3.1-5.6,4.6-8.5c1.6-2.8,3.2-5.7,4.9-8.5
							c13.3-22.9,29.2-46.3,47.2-68c9-10.9,18.5-21.3,28.3-31.1c9.9-9.7,20.1-18.8,30.6-26.9c10.5-8.1,21.1-15.2,31.7-21.1
							c5.3-3,10.6-5.6,15.8-7.9c5.2-2.3,10.4-4.2,15.4-5.9c5-1.6,10-2.8,14.7-3.8c4.7-0.9,9.3-1.5,13.6-1.7
							c8.6-0.5,16.1,0.2,22.2,1.5c6.1,1.2,10.6,2.9,13.7,4.2c1.5,0.6,2.7,1.2,3.4,1.6c0.8,0.4,1.2,0.5,1.2,0.5l-0.3,0.6
							c0,0-0.4-0.2-1.2-0.5c-0.8-0.3-1.9-0.9-3.4-1.6c-3-1.2-7.6-2.9-13.6-4.2c-6-1.2-13.5-2-22-1.5c-4.3,0.3-8.8,0.9-13.5,1.8
							c-4.7,1-9.6,2.2-14.6,3.8c-5,1.7-10.1,3.6-15.3,5.9c-5.2,2.3-10.4,4.9-15.7,7.9c-5.2,3-10.6,6.2-15.8,9.8
							c-5.2,3.6-10.5,7.4-15.6,11.5c-10.3,8.2-20.5,17.3-30.2,27.1c-9.7,9.8-19.1,20.3-27.9,31.2c-17.7,21.8-33.3,45.3-46.4,68.2
							c-1.6,2.9-3.2,5.7-4.8,8.5c-1.5,2.8-3,5.7-4.5,8.5c-2.9,5.6-5.8,11.2-8.4,16.6c-5.3,10.9-9.9,21.3-13.8,31
							c-7.9,19.5-13.4,36.2-16.9,47.9c-0.4,1.5-0.8,2.9-1.2,4.2c-0.1,0.3-0.2,0.7-0.3,1c-0.1,0.3-0.2,0.6-0.2,0.9
							c-0.2,0.6-0.3,1.2-0.5,1.8c-0.6,2.3-1.2,4.3-1.6,5.9c-0.9,3.2-1.3,4.9-1.3,4.9L1088.6,569.9z"/>
					</g>
				</g>
			</g>
		</g>
	</g>
	<g>
		<g>
			<g>
				<circle class="st16" cx="37.1" cy="304.3" r="3"/>
				<circle class="st16" cx="193" cy="184.3" r="3"/>
				<circle class="st17" cx="426.8" cy="205.5" r="3"/>
				<circle class="st18" cx="491.8" cy="283.1" r="3"/>
				<circle class="st18" cx="50.1" cy="198.4" r="3"/>
				<circle class="st16" cx="167" cy="233.7" r="3"/>
				<circle class="st18" cx="102" cy="388.9" r="3"/>
				<circle class="st16" cx="802.8" cy="159.7" r="3"/>
				<circle class="st16" cx="180" cy="311.3" r="3"/>
				<circle class="st17" cx="11.1" cy="261.9" r="3"/>
				<circle class="st16" cx="604.9" cy="161.4" r="2.2"/>
				<circle class="st16" cx="198.7" cy="394" r="3"/>
				<circle class="st16" cx="89" cy="297.2" r="3"/>
				<circle class="st16" cx="465.8" cy="367.8" r="3"/>
				<circle class="st18" cx="232" cy="269" r="3"/>
				<circle class="st18" cx="369.6" cy="38.7" r="2.2"/>
				<circle class="st16" cx="283.9" cy="191.3" r="3"/>
				<circle class="st16" cx="309.9" cy="163.1" r="3"/>
				<circle class="st16" cx="154" cy="36.1" r="3"/>
				<circle class="st18" cx="24.1" cy="212.5" r="3"/>
				<circle class="st16" cx="607.7" cy="50.6" r="2.2"/>
				<circle class="st16" cx="128" cy="346.6" r="3"/>
				<circle class="st16" cx="296.9" cy="71.4" r="3"/>
				<circle class="st17" cx="358.4" cy="226.6" r="3"/>
				<circle class="st16" cx="115" cy="403.1" r="2.2"/>
				<circle class="st16" cx="413.9" cy="113.7" r="3"/>
				<circle class="st16" cx="141" cy="177.2" r="3"/>
				<circle class="st16" cx="335.9" cy="325.4" r="3"/>
				<circle class="st18" cx="219" cy="219.6" r="2.2"/>
				<circle class="st16" cx="257.9" cy="339.5" r="2.2"/>
				<circle class="st16" cx="714.7" cy="299.5" r="3"/>
				<circle class="st17" cx="662.7" cy="209.9" r="3"/>
				<circle class="st18" cx="532" cy="205.4" r="3"/>
				<circle class="st16" cx="513.7" cy="53" r="2.2"/>
				<circle class="st16" cx="910.8" cy="198.2" r="2.2"/>
				<circle class="st16" cx="270.9" cy="396" r="2.2"/>
				<circle class="st16" cx="485.4" cy="30.4" r="2.2"/>
				<circle class="st18" cx="387.9" cy="290.1" r="2.2"/>
				<circle class="st16" cx="478.8" cy="134.9" r="2.2"/>
				<circle class="st18" cx="439.8" cy="64.3" r="2.2"/>
				<circle class="st16" cx="374.9" cy="156.1" r="2.2"/>
				<circle class="st18" cx="452.8" cy="78.4" r="2.2"/>
				<circle class="st18" cx="400.9" cy="374.8" r="2.2"/>
				<circle class="st16" cx="605.9" cy="289.2" r="2.2"/>
				<circle class="st16" cx="244.9" cy="149" r="3"/>
				<circle class="st17" cx="743.1" cy="57.6" r="3"/>
				<circle class="st16" cx="76" cy="92.5" r="3"/>
			</g>
			<g>
				<defs>
					<rect id="SVGID_7_" y="0.4" width="320.9" height="333.7"/>
				</defs>
				<clipPath id="SVGID_8_">
					<use xlink:href="#SVGID_7_"  style="overflow:visible;"/>
				</clipPath>
				<g class="st19">
					<circle class="st20" cx="46.4" cy="41.9" r="285.9"/>
					<circle class="st21" cx="46.4" cy="41.9" r="228.8"/>
					<circle class="st16" cx="46.4" cy="41.9" r="129.8"/>
					<circle class="st22" cx="46.4" cy="41.9" r="174.1"/>
					<circle class="st23" cx="46.4" cy="41.9" r="129.8"/>
					<circle class="st24" cx="46.4" cy="41.9" r="89"/>
				</g>
			</g>
		</g>
	</g>
	<g>
		<g>
			<path class="st25" d="M1409.1,129.9c0,21.6-17.5,39.1-39.1,39.1c-1.9,0-3.7-0.1-5.5-0.4c-17.1-2.4-30.7-16-33.1-33.1
				c-0.3-1.8-0.4-3.6-0.4-5.5c0-21.6,17.5-39.1,39.1-39.1S1409.1,108.3,1409.1,129.9z"/>
			<path class="st26" d="M1388.8,140c0,14.4-10.6,26.4-24.4,28.5c-17.1-2.4-30.7-16-33.1-33.1c2.1-13.8,14.1-24.3,28.6-24.3
				C1375.9,111.1,1388.8,124,1388.8,140z"/>
		</g>
		<circle class="st26" cx="1401.7" cy="76.4" r="3.7"/>
		<circle class="st26" cx="1419.5" cy="81.2" r="1.5"/>
		<circle class="st26" cx="1427.5" cy="179.8" r="2.6"/>
		<circle class="st27" cx="1441.3" cy="59" r="5.3"/>
	</g>
</g>
</svg>
