<svg xmlns="http://www.w3.org/2000/svg" xmlns:svg="http://www.w3.org/2000/svg" xmlns:xlink="http://www.w3.org/1999/xlink" id="svg2" x="0" y="0" version="1.1" viewBox="0 0 45 45" xml:space="preserve" style="enable-background:new 0 0 45 45"><style type="text/css">.st0{fill:#e52f2e}.st1{fill:#e31717}.st2{fill:#af2523}</style><g><path d="M44.3,28.7c0,3.1-1.8,6.1-4.8,7.5c-9.5,4.4-20.3,7.7-30.7,8c-0.9,0-1.7,0-2.6,0c-0.9,0-1.7-0.2-2.4-0.6 c-0.4-0.2-0.8-0.5-1.2-0.8c-0.5-0.5-1-1-1.3-1.7c-0.4-0.7-0.6-1.6-0.6-2.5c0-2.2,0.1-4.4,0.3-6.6c0.9-9.1,3.9-18.4,7.7-26.7 c2-4.4,7.5-6.1,11.7-3.7c2.3,1.3,4.4,2.8,6.5,4.4c0.9,0.7,1.8,1.5,2.7,2.2c0.8,0.7,1.6,1.4,2.3,2.1c0.4,0.4,0.8,0.8,1.2,1.2 c0.1,0.1,0.2,0.2,0.3,0.3c1.3,1.3,2.5,2.6,3.6,4c2.2,2.7,4.3,5.5,6,8.6C43.9,25.9,44.3,27.3,44.3,28.7z" class="st0"/><path d="M44.3,28.7c0,3.1-1.8,6.1-4.8,7.5c-9.5,4.4-20.3,7.7-30.7,8c-0.9,0-1.7,0-2.6,0c-0.9,0-1.7-0.2-2.4-0.6l2-6.9 c1.3-4.7,5.5-8.2,10.4-8.5c2.5-0.2,4.8-1.2,6.6-2.7c1.8-1.5,3.2-3.6,3.9-6l3.1-11.2c0.8,0.7,1.6,1.4,2.3,2.1 c0.4,0.4,0.8,0.8,1.2,1.2c0.1,0.1,0.2,0.2,0.3,0.3c1.3,1.3,2.5,2.6,3.6,4c2.2,2.7,4.3,5.5,6,8.6C43.9,25.9,44.3,27.3,44.3,28.7z" class="st1"/><g><path d="M13.3,32.5c-2.9-2.6-3.2-7.1-0.6-10l4-4.5c0.9-1,2.4-1.2,3.5-0.5l0.1,0.1l0.8-1c1-1.1,2.7-1.2,3.8-0.2 l0.5,0.4l0.1,0c0.7-0.1,1.3,0,1.8,0.5c0.5,0.4,0.8,1.1,0.7,1.8l0,0.1l0.5,0.4c1.1,1,1.2,2.7,0.2,3.8l-2.3,2.6l0.1,0.1 c0.1,0.1,0.2,0.1,0.3,0.2c0.5,0.4,0.5,1.2,0.1,1.6l-3.6,4C20.7,34.8,16.3,35.1,13.3,32.5z M19,18.4c-0.5-0.1-1,0-1.4,0.4l-4,4.5 c-2.1,2.4-1.9,6,0.4,8.1l0.1,0.1c2.4,2.1,6.1,1.8,8.2-0.6l3.4-3.8L25.7,27c-0.1-0.1-0.2-0.1-0.3-0.1c-0.2-0.1-0.4-0.1-0.6-0.1 c-0.3,0-0.5,0-0.8,0.1c-0.2,0.1-0.4,0.2-0.6,0.4l-1.7,1.9l-0.5-0.4c-0.9-0.8-2.1-0.8-3-0.2c-0.2,0.2-0.6,0.2-0.8,0 c-0.2-0.1-0.2-0.3-0.2-0.5c0-0.2,0.1-0.4,0.3-0.5c1.2-0.8,2.8-0.9,4-0.2l0.1,0.1l0.8-0.9c0.6-0.7,1.4-1,2.3-1 c0.2,0,0.4-0.1,0.6-0.3l2.4-2.8c0.5-0.6,0.4-1.4-0.1-1.9c-0.1-0.1-0.3-0.1-0.3,0l-3.4,3.9c-0.2,0.2-0.6,0.3-0.8,0.1l-0.1-0.1 c-0.1-0.1-0.2-0.3-0.2-0.4c0-0.2,0-0.3,0.1-0.4l3.6-4.1c0.3-0.3,0.3-0.8,0-1.1l0,0c-0.4-0.3-0.9-0.3-1.2,0L21,23.1 c-0.2,0.2-0.6,0.3-0.8,0.1l-0.1-0.1c-0.1-0.1-0.2-0.3-0.2-0.4c0-0.2,0-0.3,0.1-0.4l4-4.5c0.1-0.1,0.1-0.2,0-0.3 c-0.6-0.5-1.4-0.5-1.9,0.1l-3.8,4.3c-0.2,0.2-0.6,0.3-0.9,0.1l-0.1-0.1c-0.1-0.1-0.2-0.3-0.2-0.4c0-0.2,0-0.3,0.1-0.4l1.9-2.1 C19.2,18.7,19.2,18.6,19,18.4L19,18.4L19,18.4z" class="st2"/></g></g></svg>