<svg xmlns="http://www.w3.org/2000/svg" viewBox="0 0 53.11 71.5"><defs><style>.cls-1{fill:#fff}</style></defs><title>Asset 1</title><g id="Layer_2" data-name="Layer 2"><g id="Layer_4" data-name="Layer 4"><path d="M50,18.45H3A2.89,2.89,0,0,1,.61,17.23a2.84,2.84,0,0,1-.46-2.69L1.57,9.12a2.8,2.8,0,0,1,2.33-2A104,104,0,0,1,16.17,5.93,2.17,2.17,0,0,0,18,4.21a11,11,0,0,1,1.67-3.14Q20.57,0,26.55,0t6.79,1a9.88,9.88,0,0,1,1.37,2.33q.56,1.32.66,1.52A2.05,2.05,0,0,0,37.3,6q1.52.05,6.28.51t5.57.61a2.8,2.8,0,0,1,2.33,2L53,14.54a2.84,2.84,0,0,1-.46,2.69A2.94,2.94,0,0,1,50,18.45ZM6.28,24.07H46.77a3.22,3.22,0,0,1,2.38,1.06A3.16,3.16,0,0,1,50,27.57L46.52,68.72a3,3,0,0,1-1,2,2.86,2.86,0,0,1-2,.81h-34a2.92,2.92,0,0,1-2.08-.81,3,3,0,0,1-1-2L3.09,27.57A3.33,3.33,0,0,1,4,25.13,3.16,3.16,0,0,1,6.28,24.07Z" class="cls-1"/></g></g></svg>