<?xml version="1.0" encoding="utf-8"?>
<!-- Generator: Adobe Illustrator 19.2.1, SVG Export Plug-In . SVG Version: 6.00 Build 0)  -->
<svg version="1.1" id="Layer_1" xmlns="http://www.w3.org/2000/svg" xmlns:xlink="http://www.w3.org/1999/xlink" x="0px" y="0px"
	 viewBox="0 0 62.6 89.2" style="enable-background:new 0 0 62.6 89.2;" xml:space="preserve">
<style type="text/css">
	.st0{fill:#E6E6E6;}
</style>
<path class="st0" d="M55.9,89.2H6.7c-1.1,0-1.9-0.8-2-1.9L0,25.6c-0.1-1.2,0.8-2.1,2-2.1h58.6c1.2,0,2.1,1,2,2.1l-4.7,61.7
	C57.8,88.4,56.9,89.2,55.9,89.2z"/>
<path class="st0" d="M62.4,9v8c0,1.1-0.9,2-2,2h-58c-1.1,0-2-0.9-2-2V9c0-1.1,0.9-2,2-2h16c1.1,0,2-0.9,2-2V2c0-1.1,0.9-2,2-2h18
	c1.1,0,2,0.9,2,2v3c0,1.1,0.9,2,2,2h16C61.5,7,62.4,7.9,62.4,9z"/>
</svg>
