<svg xmlns="http://www.w3.org/2000/svg" xmlns:xlink="http://www.w3.org/1999/xlink" id="Layer_1" x="0" y="0" version="1.1" viewBox="0 0 62.6 89.2" xml:space="preserve" style="enable-background:new 0 0 62.6 89.2"><style type="text/css">.st0{fill:#e6e6e6}</style><path d="M55.9,89.2H6.7c-1.1,0-1.9-0.8-2-1.9L0,25.6c-0.1-1.2,0.8-2.1,2-2.1h58.6c1.2,0,2.1,1,2,2.1l-4.7,61.7	C57.8,88.4,56.9,89.2,55.9,89.2z" class="st0"/><path d="M62.4,9v8c0,1.1-0.9,2-2,2h-58c-1.1,0-2-0.9-2-2V9c0-1.1,0.9-2,2-2h16c1.1,0,2-0.9,2-2V2c0-1.1,0.9-2,2-2h18	c1.1,0,2,0.9,2,2v3c0,1.1,0.9,2,2,2h16C61.5,7,62.4,7.9,62.4,9z" class="st0"/></svg>