<svg xmlns="http://www.w3.org/2000/svg" xmlns:xlink="http://www.w3.org/1999/xlink" id="Layer_1" x="0" y="0" version="1.0" viewBox="0 0 113 75.2" xml:space="preserve" style="enable-background:new 0 0 113 75.2"><style type="text/css">.st0{opacity:.25}.st1{clip-path:url(#SVGID_4_)}.st2{clip-path:url(#SVGID_6_)}.st3{clip-path:url(#SVGID_10_)}.st4{clip-path:url(#SVGID_12_)}.st5{clip-path:url(#SVGID_14_)}.st6{clip-path:url(#SVGID_16_)}.st7{clip-path:url(#SVGID_18_)}.st8{clip-path:url(#SVGID_22_)}.st9{clip-path:url(#SVGID_24_)}.st10{clip-path:url(#SVGID_28_)}.st11{clip-path:url(#SVGID_30_)}.st12{clip-path:url(#SVGID_32_);fill:#59a1d8}.st13{clip-path:url(#SVGID_34_)}.st14{clip-path:url(#SVGID_36_)}</style><g><defs><rect id="SVGID_1_" width="113" height="71" y="4.2"/></defs><clipPath id="SVGID_2_"><use xlink:href="#SVGID_1_" style="overflow:visible"/></clipPath></g><g><g class="st0"><g><defs><rect id="SVGID_3_" width="113" height="71" y="5.2"/></defs><clipPath id="SVGID_4_"><use xlink:href="#SVGID_3_" style="overflow:visible"/></clipPath><g class="st1"><defs><path id="SVGID_5_" d="M36.8,73L9.1,49.9L0,42.3L9,34L35.5,9.7c3.8-3.5,9.8-3.2,13.3,0.6c3.3,3.6,4.1,9,1,12.6l-5.9,6.9 l9.6,0.5l48.7,1.6l1.7,0.2c5,0.1,8.9,4.3,8.8,9.2c-0.1,4.8-4,8.7-8.7,8.9l-1.7,0.1l-48.7,1.9l-11.5,0.4l7.2,8.7 c3,3.5,2.2,8.7-1.3,11.7C44.8,75.6,39.8,75.5,36.8,73"/></defs><clipPath id="SVGID_6_"><use xlink:href="#SVGID_5_" style="overflow:visible"/></clipPath><g class="st2"><defs><rect id="SVGID_7_" width="114" height="76" x="-1" y="3.2"/></defs><clipPath id="SVGID_8_"><use xlink:href="#SVGID_7_" style="overflow:visible"/></clipPath></g></g></g><g><defs><rect id="SVGID_9_" width="113" height="71" y="5.2"/></defs><clipPath id="SVGID_10_"><use xlink:href="#SVGID_9_" style="overflow:visible"/></clipPath><g class="st3"><defs><path id="SVGID_11_" d="M36.8,73L9.1,49.9L0,42.3L9,34L35.5,9.7c3.8-3.5,9.8-3.2,13.3,0.6c3.3,3.6,4.1,9,1,12.6l-5.9,6.9 l9.6,0.5l48.7,1.6l1.7,0.2c5,0.1,8.9,4.3,8.8,9.2c-0.1,4.8-4,8.7-8.7,8.9l-1.7,0.1l-48.7,1.9l-11.5,0.4l7.2,8.7 c3,3.5,2.2,8.7-1.3,11.7C44.8,75.6,39.8,75.5,36.8,73"/></defs><clipPath id="SVGID_12_"><use xlink:href="#SVGID_11_" style="overflow:visible"/></clipPath><g class="st4"><defs><rect id="SVGID_13_" width="114" height="76" x="-1" y="3.2"/></defs><clipPath id="SVGID_14_"><use xlink:href="#SVGID_13_" style="overflow:visible"/></clipPath><rect width="122.7" height="77.6" x="-5" y="2.2" class="st5"/></g></g></g><g><defs><rect id="SVGID_15_" width="113" height="71" y="5.2"/></defs><clipPath id="SVGID_16_"><use xlink:href="#SVGID_15_" style="overflow:visible"/></clipPath><g class="st6"><defs><path id="SVGID_17_" d="M36.8,73L9.1,49.9L0,42.3L9,34L35.5,9.7c3.8-3.5,9.8-3.2,13.3,0.6c3.3,3.6,4.1,9,1,12.6l-5.9,6.9 l9.6,0.5l48.7,1.6l1.7,0.2c5,0.1,8.9,4.3,8.8,9.2c-0.1,4.8-4,8.7-8.7,8.9l-1.7,0.1l-48.7,1.9l-11.5,0.4l7.2,8.7 c3,3.5,2.2,8.7-1.3,11.7C44.8,75.6,39.8,75.5,36.8,73"/></defs><clipPath id="SVGID_18_"><use xlink:href="#SVGID_17_" style="overflow:visible"/></clipPath><g class="st7"><defs><rect id="SVGID_19_" width="114" height="76" x="-1" y="3.2"/></defs><clipPath id="SVGID_20_"><use xlink:href="#SVGID_19_" style="overflow:visible"/></clipPath></g></g></g></g><g><g><defs><rect id="SVGID_21_" width="113" height="71" y="1.2"/></defs><clipPath id="SVGID_22_"><use xlink:href="#SVGID_21_" style="overflow:visible"/></clipPath><g class="st8"><defs><path id="SVGID_23_" d="M36.8,69L9.1,45.9L0,38.3L9,30L35.5,5.7c3.8-3.5,9.8-3.2,13.3,0.6c3.3,3.6,4.1,9,1,12.6l-5.9,6.9 l9.6,0.5l48.7,1.6l1.7,0.2c5,0.1,8.9,4.3,8.8,9.2c-0.1,4.8-4,8.7-8.7,8.9l-1.7,0.1l-48.7,1.9l-11.5,0.4l7.2,8.7 c3,3.5,2.2,8.7-1.3,11.7C44.8,71.6,39.8,71.5,36.8,69"/></defs><clipPath id="SVGID_24_"><use xlink:href="#SVGID_23_" style="overflow:visible"/></clipPath><g class="st9"><defs><rect id="SVGID_25_" width="114" height="76" x="-1" y="-.8"/></defs><clipPath id="SVGID_26_"><use xlink:href="#SVGID_25_" style="overflow:visible"/></clipPath></g></g></g><g><defs><rect id="SVGID_27_" width="113" height="71" y="1.2"/></defs><clipPath id="SVGID_28_"><use xlink:href="#SVGID_27_" style="overflow:visible"/></clipPath><g class="st10"><defs><path id="SVGID_29_" d="M36.8,69L9.1,45.9L0,38.3L9,30L35.5,5.7c3.8-3.5,9.8-3.2,13.3,0.6c3.3,3.6,4.1,9,1,12.6l-5.9,6.9 l9.6,0.5l48.7,1.6l1.7,0.2c5,0.1,8.9,4.3,8.8,9.2c-0.1,4.8-4,8.7-8.7,8.9l-1.7,0.1l-48.7,1.9l-11.5,0.4l7.2,8.7 c3,3.5,2.2,8.7-1.3,11.7C44.8,71.6,39.8,71.5,36.8,69"/></defs><clipPath id="SVGID_30_"><use xlink:href="#SVGID_29_" style="overflow:visible"/></clipPath><g class="st11"><defs><rect id="SVGID_31_" width="114" height="76" x="-1" y="-.8"/></defs><clipPath id="SVGID_32_"><use xlink:href="#SVGID_31_" style="overflow:visible"/></clipPath><rect width="122.7" height="77.6" x="-5" y="-1.8" class="st12"/></g></g></g><g><defs><rect id="SVGID_33_" width="113" height="71" y="1.2"/></defs><clipPath id="SVGID_34_"><use xlink:href="#SVGID_33_" style="overflow:visible"/></clipPath><g class="st13"><defs><path id="SVGID_35_" d="M36.8,69L9.1,45.9L0,38.3L9,30L35.5,5.7c3.8-3.5,9.8-3.2,13.3,0.6c3.3,3.6,4.1,9,1,12.6l-5.9,6.9 l9.6,0.5l48.7,1.6l1.7,0.2c5,0.1,8.9,4.3,8.8,9.2c-0.1,4.8-4,8.7-8.7,8.9l-1.7,0.1l-48.7,1.9l-11.5,0.4l7.2,8.7 c3,3.5,2.2,8.7-1.3,11.7C44.8,71.6,39.8,71.5,36.8,69"/></defs><clipPath id="SVGID_36_"><use xlink:href="#SVGID_35_" style="overflow:visible"/></clipPath><g class="st14"><defs><rect id="SVGID_37_" width="114" height="76" x="-1" y="-.8"/></defs><clipPath id="SVGID_38_"><use xlink:href="#SVGID_37_" style="overflow:visible"/></clipPath></g></g></g></g></g></svg>