<svg xmlns="http://www.w3.org/2000/svg" viewBox="0 0 95.82 95.82"><defs><style>.cls-1{fill:#9fa4a8}</style></defs><title>help</title><g id="Layer_2" data-name="Layer 2"><g id="help"><path d="M47.91,0A47.91,47.91,0,1,0,95.82,47.91,47.91,47.91,0,0,0,47.91,0ZM46.83,71.64c-2.93,0-4.6-1.46-4.6-4.52s1.67-4.67,4.6-4.67,4.52,1.53,4.52,4.67S49.75,71.64,46.83,71.64Zm2.64-20a2.75,2.75,0,0,0,.7,1.67,3.69,3.69,0,0,1,.62,2.09A3.77,3.77,0,0,1,47,59.18a3.73,3.73,0,0,1-2.71-1.11,8.11,8.11,0,0,1-2.58-5.92c0-8.77,13.51-9.33,13.51-16.71,0-3.41-2.58-5.35-7-5.35-3.9,0-6.54,1.94-6.54,5.84a3.83,3.83,0,0,1-7.66,0c0-7.93,5.29-12.67,14.2-12.67,9.19,0,14.55,4.39,14.55,12.18C62.77,46.65,49.47,47.49,49.47,51.66Z" class="cls-1"/></g></g></svg>