<svg xmlns="http://www.w3.org/2000/svg" viewBox="0 0 99.06 76.68"><defs><style>.cls-1{fill:#9fa4a8}</style></defs><title>logout</title><g id="Layer_2" data-name="Layer 2"><g id="logout"><path d="M43.41,4.7A35.4,35.4,0,0,1,60.77,0,40,40,0,0,1,76.88,3.14,34.89,34.89,0,0,1,89,11.55a37,37,0,0,1,7.58,12.68A40.19,40.19,0,0,1,99,39.28,41.12,41.12,0,0,1,96,54a35.54,35.54,0,0,1-7.89,12A37.75,37.75,0,0,1,76,73.89a38.24,38.24,0,0,1-15.76,2.78,35.52,35.52,0,0,1-17.06-4.8A37.83,37.83,0,0,1,29.66,59.18,4.79,4.79,0,0,1,29,55.38a4.49,4.49,0,0,1,2.31-3,5,5,0,0,1,3.73-.54,5.11,5.11,0,0,1,3.08,2.07A27.51,27.51,0,0,0,52.41,65.06a30.27,30.27,0,0,0,9.84,1.54,27.15,27.15,0,0,0,10.61-2.25A27.36,27.36,0,0,0,82,58.2,28.9,28.9,0,0,0,88,49,26.49,26.49,0,0,0,90.14,38.1a27.58,27.58,0,0,0-2.36-10.76,29.3,29.3,0,0,0-5.93-8.81,28.91,28.91,0,0,0-8.77-6A29.9,29.9,0,0,0,61.48,10a25.49,25.49,0,0,0-12.92,3.27,28.65,28.65,0,0,0-10.43,9.5,5.26,5.26,0,0,1-3.08,2.14,4.82,4.82,0,0,1-3.67-.54,5.19,5.19,0,0,1-2.31-3.15,4.65,4.65,0,0,1,.59-3.81A38.6,38.6,0,0,1,43.41,4.7ZM15.26,45.11v4a1.3,1.3,0,0,1-2.13,1L.63,39.65a1.77,1.77,0,0,1,0-2.7l12.5-10.43a1.3,1.3,0,0,1,2.13,1v4A1.74,1.74,0,0,0,17,33.29H60.39a1.87,1.87,0,0,1,1.9,1.9v6.28a1.81,1.81,0,0,1-.55,1.33,1.84,1.84,0,0,1-1.35.55H17a1.74,1.74,0,0,0-1.76,1.76Z" class="cls-1"/></g></g></svg>