<svg xmlns="http://www.w3.org/2000/svg" xmlns:xlink="http://www.w3.org/1999/xlink" width="11" height="14" version="1.1" viewBox="0 0 11 14"><title>Fill 10</title><desc>Created with Sketch.</desc><g id="Page-1" fill="none" fill-rule="evenodd" stroke="none" stroke-width="1"><g id="canvas-mode" fill="#FFF" transform="translate(-1328.000000, -572.000000)"><path id="Fill-10" d="M1335.75494,585.365039 C1335.407,585.37487 1335.10384,585.251087 1334.84502,584.992797 C1334.58664,584.734954 1334.45767,584.427508 1334.45767,584.07046 L1334.45767,573.295119 C1334.45767,572.938071 1334.58664,572.630625 1334.84502,572.372782 C1335.10384,572.114939 1335.407,571.99071 1335.75494,572.000541 L1337.54433,572.000541 C1337.90257,571.99071 1338.20573,572.114939 1338.45426,572.372782 C1338.70278,572.630625 1338.82727,572.938071 1338.82727,573.295119 L1338.82727,584.07046 C1338.82727,584.427508 1338.70278,584.734954 1338.45426,584.992797 C1338.20573,585.251087 1337.90257,585.37487 1337.54433,585.365039 L1335.75494,585.365039 Z M1329.28249,585.365039 C1328.9247,585.37487 1328.62109,585.251087 1328.37301,584.992797 C1328.12404,584.734954 1328,584.427508 1328,584.07046 L1328,573.295119 C1328,572.938071 1328.12404,572.630625 1328.37301,572.372782 C1328.62109,572.114939 1328.9247,571.99071 1329.28249,572.000541 L1331.07233,572.000541 C1331.43012,571.99071 1331.73328,572.114939 1331.98181,572.372782 C1332.23033,572.630625 1332.35482,572.938071 1332.35482,573.295119 L1332.35482,584.07046 C1332.35482,584.427508 1332.23033,584.734954 1331.98181,584.992797 C1331.73328,585.251087 1331.43012,585.37487 1331.07233,585.365039 L1329.28249,585.365039 Z"/></g></g></svg>