<svg xmlns="http://www.w3.org/2000/svg" xmlns:xlink="http://www.w3.org/1999/xlink" width="26" height="27" version="1.1" viewBox="0 0 26 27"><title>Page 1</title><desc>Created with Sketch.</desc><g id="Page-1" fill="none" fill-rule="evenodd" stroke="none" stroke-width="1"><path fill="#000" d="M18.7751058,0 L17.587157,1.18895774 L2.18351164,16.6060567 L1.82262008,16.9672846 L1.72340013,17.4677567 L0.501817523,23.6338564 L0,26.1674967 L2.51985046,25.6014385 L8.51004489,24.2560832 L8.98394629,24.1494638 L9.3280209,23.8070709 L24.8043155,8.40174379 L26,7.21177703 L24.8059972,6.01979225 L19.9647362,1.18761238 L18.7751058,0 Z M17.5330065,3.62203278 L18.7767874,2.37791548 L23.6177121,7.21009534 L22.3665317,8.45589434 L17.5330065,3.62203278 Z M3.96745275,17.200031 L16.3447214,4.8116632 L18.1158817,6.58282344 L5.73323157,18.9658099 L3.96745275,17.200031 Z M6.92218931,20.1547676 L19.3045031,7.77178117 L21.1745469,9.64216137 L8.76330802,21.9962227 L6.92218931,20.1547676 Z M2.55012095,21.9477899 L3.17638384,18.7875503 L7.21312239,22.8236162 L4.12082325,23.5184922 L2.55012095,21.9477899 Z"/></g></svg>