<svg xmlns="http://www.w3.org/2000/svg" xmlns:xlink="http://www.w3.org/1999/xlink" id="Layer_1" x="0" y="0" enable-background="new 0 0 164.8 139.8" version="1.1" viewBox="0 0 164.8 139.8" xml:space="preserve"><g><g><path fill="#FFF" d="M162.5,77.1c-2,2.3-4.8,3.5-7.5,3.5c-2.3,0-4.6-0.8-6.4-2.4l-8.7-7.4c-0.5,38.2-31.6,69-69.9,69 C31.4,139.8,0,108.5,0,69.9C0,31.4,31.4,0,69.9,0c5.5,0,9.9,4.4,9.9,9.9s-4.4,9.9-9.9,9.9c-27.6,0-50.1,22.5-50.1,50.1 S42.3,120,69.9,120c27.2,0,49.4-21.8,50.1-48.9l-8.6,7.4c-1.9,1.6-4.2,2.4-6.4,2.4c-2.8,0-5.6-1.2-7.6-3.5 c-3.6-4.2-3.1-10.4,1.1-14l23.6-20.1c0.1-0.1,0.2-0.3,0.3-0.4c3.6-4.2,9.8-4.7,14-1.1l25,21.3C165.5,66.6,166,72.9,162.5,77.1z"/></g></g></svg>