<svg xmlns="http://www.w3.org/2000/svg" viewBox="0 0 83.98 83.98"><defs><style>.cls-1{isolation:isolate}.cls-2,.cls-3{fill:#7ac943}.cls-2{opacity:.25}.cls-4{fill:#fff}.cls-5{fill:#ccc;mix-blend-mode:multiply}</style></defs><title>YUSZ</title><g class="cls-1"><g id="Layer_2" data-name="Layer 2"><g id="Layer_6" data-name="Layer 6"><circle cx="41.99" cy="41.99" r="41.99" class="cls-2"/><circle cx="41.99" cy="41.99" r="29.22" class="cls-3"/><path d="M57.69,32.68,56.11,31.1a1.57,1.57,0,0,0-.74-.42,1.5,1.5,0,0,0-1.56.42L38.22,46.69l-6.63-6.63a1.5,1.5,0,0,0-1.14-.48,1.59,1.59,0,0,0-1.17.48l-1.58,1.58a1.67,1.67,0,0,0,0,2.31l7.54,7.54a1.59,1.59,0,0,0,.21.26L37,53.33a1.58,1.58,0,0,0,1.17.48,1.5,1.5,0,0,0,1.14-.48L57.69,35a1.45,1.45,0,0,0,.44-.73A1.52,1.52,0,0,0,57.69,32.68Z" class="cls-4"/><path d="M57.69,34.75l-1.58-1.58a1.57,1.57,0,0,0-.74-.42,1.5,1.5,0,0,0-1.56.42L38.22,48.76l-6.63-6.63a1.5,1.5,0,0,0-1.14-.48,1.59,1.59,0,0,0-1.17.48l-1.58,1.58a1.67,1.67,0,0,0,0,2.31l7.54,7.54a1.59,1.59,0,0,0,.21.26L37,55.4a1.58,1.58,0,0,0,1.17.48,1.5,1.5,0,0,0,1.14-.48L57.69,37.06a1.45,1.45,0,0,0,.44-.73A1.52,1.52,0,0,0,57.69,34.75Z" class="cls-5"/><path d="M57.69,32.68,56.11,31.1a1.57,1.57,0,0,0-.74-.42,1.5,1.5,0,0,0-1.56.42L38.22,46.69l-6.63-6.63a1.5,1.5,0,0,0-1.14-.48,1.59,1.59,0,0,0-1.17.48l-1.58,1.58a1.67,1.67,0,0,0,0,2.31l7.54,7.54a1.59,1.59,0,0,0,.21.26L37,53.33a1.58,1.58,0,0,0,1.17.48,1.5,1.5,0,0,0,1.14-.48L57.69,35a1.45,1.45,0,0,0,.44-.73A1.52,1.52,0,0,0,57.69,32.68Z" class="cls-4"/></g></g></g></svg>