<svg xmlns="http://www.w3.org/2000/svg" viewBox="0 0 90.69 67.49"><defs><style>.cls-1{fill:#9fa4a8}</style></defs><title>tick</title><g id="Layer_2" data-name="Layer 2"><g id="Layer_10" data-name="Layer 10"><path d="M31.73,67.49a3.93,3.93,0,0,1-2.89-1.18L2.09,39.56A7.14,7.14,0,0,1,0,33.83,6.52,6.52,0,0,1,2.74,28.7,7.09,7.09,0,0,1,8,27.22a7.74,7.74,0,0,1,4.67,2.36L28.9,45.76A4,4,0,0,0,31.79,47a3.78,3.78,0,0,0,2.83-1.24L78,2.36A7.87,7.87,0,0,1,82.69.06a7,7,0,0,1,5.2,1.48,6.69,6.69,0,0,1,2.78,5.14,7.05,7.05,0,0,1-2.12,5.73L34.63,66.31A3.93,3.93,0,0,1,31.73,67.49Z" class="cls-1"/></g></g></svg>