<svg xmlns="http://www.w3.org/2000/svg" viewBox="0 0 27.72 32.68"><defs><style>.cls-1{fill:#fff}</style></defs><title>WhiteArrow</title><g id="Layer_2" data-name="Layer 2"><g id="Layer_5" data-name="Layer 5"><path d="M6.06,17.49H1.51a1.38,1.38,0,0,1-1.35-.85A1.39,1.39,0,0,1,.36,15L12.31.72a2,2,0,0,1,3.09,0L27.35,15a1.49,1.49,0,0,1-1.14,2.44h-4.6a2,2,0,0,0-2,2v11a2.14,2.14,0,0,1-2.17,2.17h-7.2a2.07,2.07,0,0,1-1.52-.63,2.1,2.1,0,0,1-.63-1.55v-11a2,2,0,0,0-2-2Z" class="cls-1" transform="scale(0.85) rotate(-90)" transform-origin="center center"/></g></g></svg>