<?xml version="1.0" encoding="utf-8"?>
<!-- Generator: Adobe Illustrator 18.1.1, SVG Export Plug-In . SVG Version: 6.00 Build 0)  -->
<svg version="1.1" id="Layer_1" xmlns="http://www.w3.org/2000/svg" xmlns:xlink="http://www.w3.org/1999/xlink" x="0px" y="0px"
	 viewBox="0 0 295.4 71.3" enable-background="new 0 0 295.4 71.3" xml:space="preserve">
<polygon fill="#FFFFFF" stroke="#868686" stroke-miterlimit="10" points="11.4,0.7 11.4,35.8 16,35.8 16,70.8 0.5,70.8 0.5,0.5 
	16,0.5 16,0.7 "/>
<rect x="11.4" y="0.7" fill="#FFFFFF" stroke="#868686" stroke-miterlimit="10" width="4.6" height="35.1"/>
<polygon fill="#FFFFFF" stroke="#868686" stroke-miterlimit="10" points="26.9,0.7 26.9,35.8 31.5,35.8 31.5,70.8 16,70.8 16,35.8 
	20.6,35.8 20.6,0.7 16,0.7 16,0.5 31.5,0.5 31.5,0.7 "/>
<rect x="16" y="0.7" fill="#FFFFFF" stroke="#868686" stroke-miterlimit="10" width="4.6" height="35.1"/>
<rect x="26.9" y="0.7" fill="#FFFFFF" stroke="#868686" stroke-miterlimit="10" width="4.6" height="35.1"/>
<rect x="31.5" y="0.5" fill="#FFFFFF" stroke="#868686" stroke-miterlimit="10" width="15.5" height="70.3"/>
<rect id="XMLID_34_" x="47" y="0.5" fill="#FFFFFF" stroke="#868686" stroke-miterlimit="10" width="15.5" height="70.3"/>
<rect id="XMLID_33_" x="62.5" y="0.5" fill="#FFFFFF" stroke="#868686" stroke-miterlimit="10" width="15.5" height="70.3"/>
<rect id="XMLID_32_" x="78" y="0.5" fill="#FFFFFF" stroke="#868686" stroke-miterlimit="10" width="15.5" height="70.3"/>
<rect id="XMLID_31_" x="93.5" y="0.5" fill="#FFFFFF" stroke="#868686" stroke-miterlimit="10" width="15.5" height="70.3"/>
<rect id="XMLID_30_" x="108.9" y="0.5" fill="#FFFFFF" stroke="#868686" stroke-miterlimit="10" width="15.5" height="70.3"/>
<rect id="XMLID_29_" x="124.4" y="0.5" fill="#FFFFFF" stroke="#868686" stroke-miterlimit="10" width="15.5" height="70.3"/>
<rect id="XMLID_28_" x="139.9" y="0.5" fill="#FFFFFF" stroke="#868686" stroke-miterlimit="10" width="15.5" height="70.3"/>
<rect id="XMLID_27_" x="155.4" y="0.5" fill="#FFFFFF" stroke="#868686" stroke-miterlimit="10" width="15.5" height="70.3"/>
<rect id="XMLID_26_" x="170.9" y="0.5" fill="#FFFFFF" stroke="#868686" stroke-miterlimit="10" width="15.5" height="70.3"/>
<rect id="XMLID_25_" x="186.4" y="0.5" fill="#FFFFFF" stroke="#868686" stroke-miterlimit="10" width="15.5" height="70.3"/>
<rect id="XMLID_24_" x="201.9" y="0.5" fill="#FFFFFF" stroke="#868686" stroke-miterlimit="10" width="15.5" height="70.3"/>
<rect id="XMLID_23_" x="217.4" y="0.5" fill="#FFFFFF" stroke="#868686" stroke-miterlimit="10" width="15.5" height="70.3"/>
<rect id="XMLID_22_" x="232.9" y="0.5" fill="#FFFFFF" stroke="#868686" stroke-miterlimit="10" width="15.5" height="70.3"/>
<rect id="XMLID_21_" x="248.4" y="0.5" fill="#FFFFFF" stroke="#868686" stroke-miterlimit="10" width="15.5" height="70.3"/>
<rect id="XMLID_20_" x="263.9" y="0.5" fill="#FFFFFF" stroke="#868686" stroke-miterlimit="10" width="15.5" height="70.3"/>
<rect id="XMLID_19_" x="279.4" y="0.5" fill="#FFFFFF" stroke="#868686" stroke-miterlimit="10" width="15.5" height="70.3"/>
<rect x="11.4" y="0.7" fill="#3C3C3B" width="9.1" height="35.1"/>
<rect x="26.9" y="0.7" fill="#3C3C3B" width="9.1" height="35.1"/>
<rect id="XMLID_16_" x="42.4" y="0.7" fill="#3C3C3B" width="9.1" height="35.1"/>
<g id="XMLID_12_">
	<rect id="XMLID_15_" x="119.9" y="0.7" fill="#3C3C3B" width="9.1" height="35.1"/>
	<rect id="XMLID_14_" x="135.4" y="0.7" fill="#3C3C3B" width="9.1" height="35.1"/>
	<rect id="XMLID_13_" x="150.9" y="0.7" fill="#3C3C3B" width="9.1" height="35.1"/>
</g>
<g id="XMLID_8_">
	<rect id="XMLID_11_" x="227.9" y="0.7" fill="#3C3C3B" width="9.1" height="35.1"/>
	<rect id="XMLID_10_" x="243.4" y="0.7" fill="#3C3C3B" width="9.1" height="35.1"/>
	<rect id="XMLID_9_" x="258.9" y="0.7" fill="#3C3C3B" width="9.1" height="35.1"/>
</g>
<rect id="XMLID_7_" x="73.4" y="0.7" fill="#3C3C3B" width="9.1" height="35.1"/>
<rect id="XMLID_6_" x="89.5" y="0.7" fill="#3C3C3B" width="9.1" height="35.1"/>
<rect id="XMLID_5_" x="181.5" y="0.7" fill="#3C3C3B" width="9.1" height="35.1"/>
<rect id="XMLID_4_" x="197" y="0.7" fill="#3C3C3B" width="9.1" height="35.1"/>
</svg>
