<?xml version="1.0" encoding="utf-8"?>
<!-- Generator: Adobe Illustrator 21.0.0, SVG Export Plug-In . SVG Version: 6.00 Build 0)  -->
<svg version="1.1"
	 id="svg2" xmlns:cc="http://creativecommons.org/ns#" xmlns:dc="http://purl.org/dc/elements/1.1/" xmlns:rdf="http://www.w3.org/1999/02/22-rdf-syntax-ns#" xmlns:svg="http://www.w3.org/2000/svg"
	 xmlns="http://www.w3.org/2000/svg" xmlns:xlink="http://www.w3.org/1999/xlink" x="0px" y="0px" viewBox="0 0 45 45"
	 style="enable-background:new 0 0 45 45;" xml:space="preserve">
<style type="text/css">
	.st0{clip-path:url(#SVGID_2_);}
	.st1{fill:#99AAB5;}
	.st2{fill:#66757F;}
	.st3{fill:#292F33;}
</style>
<g id="g10" transform="matrix(1.25,0,0,-1.25,0,45)">
	<g id="g12">
		<g>
			<defs>
				<rect id="SVGID_1_" x="-4.5" y="-4.5" width="45" height="45"/>
			</defs>
			<clipPath id="SVGID_2_">
				<use xlink:href="#SVGID_1_"  style="overflow:visible;"/>
			</clipPath>
			<g id="g14" class="st0">
				<g id="g20" transform="translate(4.167,3.2705)">
					<path id="path22" class="st1" d="M-0.9,28.6c-0.2-0.3-0.3-0.6-0.3-1c0-1.1,0.9-2,2-2c1.1,0,2,0.9,2,2c0,1.1-0.9,2-2,2
						c-0.4,0-0.7-0.1-1-0.3l-3.1,3.1l7.1-0.9l7-9l-5-5l-9,7L-4,31.7L-0.9,28.6z"/>
				</g>
				<g id="g24" transform="translate(22.5107,30.6919)">
					<path id="path26" class="st2" d="M8.2-17.2c-1.2,1.2-3,1.2-4.2,0l-4.2-4.2c-1.2-1.2-1.2-3,0-4.2L4-29.7c1.2-1.1,3-1.1,4.2,0
						l4.2,4.2c1.2,1.1,1.2,3,0,4.2L8.2-17.2z"/>
				</g>
				<g id="g28" transform="translate(9.5107,17.6914)">
					<path id="path30" class="st3" d="M8.2,8.8L25.4-8.4L17-16.7L-0.2,0.5c-1.1,1.2-1.1,3,0,4.2L4,8.8C5.2,9.9,7,9.9,8.2,8.8"/>
				</g>
				<g id="g32" transform="translate(19.5942,27.7754)">
					<path id="path34" class="st2" d="M8.2-11.4l-8.3-8.3l-2.1,2.1l8.3,8.3L8.2-11.4z"/>
				</g>
			</g>
		</g>
	</g>
</g>
</svg>
