<?xml version="1.0" encoding="utf-8"?>
<!-- Generator: Adobe Illustrator 18.1.1, SVG Export Plug-In . SVG Version: 6.00 Build 0)  -->
<svg version="1.1" id="Layer_1" xmlns="http://www.w3.org/2000/svg" xmlns:xlink="http://www.w3.org/1999/xlink" x="0px" y="0px"
	 viewBox="0 0 632.5 150.6" enable-background="new 0 0 632.5 150.6" xml:space="preserve">
<g id="XMLID_64_">
	<path id="XMLID_1048_" fill="#DB3E46" d="M632.5,72.8l-9.4,72.3c-0.4,3.1-3.1,5.5-6.3,5.4l-342.3-6.5c-0.6,0-1.3-0.1-1.9-0.3
		c-1-0.4-2-1-2.7-1.8l-7.3-8.4l-1.3-1.5l-2.5-2.9l-1.3-1.5l-2.5-2.9l-1.3-1.5l-2.5-2.9l-1.3-1.5l-2.5-2.9l-1.3-1.5l-2.5-2.9
		l-1.3-1.5l-2.5-2.9l-1.3-1.5l-2.5-2.9l-1.3-1.5l-2.5-2.9l-1.3-1.5l-2.5-2.9l-1.3-1.5l-2.5-2.9l-1.3-1.5l-2.5-2.9l-1.3-1.5l-2.5-2.9
		l-1.3-1.5l-2.5-2.9l-1.3-1.5l-2.5-2.9l-1.3-1.5l-5.2-6c-1.1-1.3-2.8-2.1-4.6-2.1l-178.3-4c-1.9,0-3.7-0.9-4.8-2.5L1.3,37.4
		c-3-4-0.3-9.7,4.7-10L587.2,0c1,0,1.9,0.1,2.7,0.5c1.2,0.5,2.2,1.4,2.9,2.6l38.9,65.8C632.4,70,632.7,71.4,632.5,72.8z"/>
	<g id="XMLID_666_">
		<path id="XMLID_976_" fill="#2ECC9B" d="M74.8,50.3L74.8,50.3c-0.8,0.5-1.8,0.2-2.3-0.6l-5.1-8.7c-0.5-0.8-0.2-1.8,0.6-2.3l0,0
			c0.8-0.5,1.8-0.2,2.3,0.6l5.1,8.7C75.8,48.9,75.5,49.9,74.8,50.3z"/>
		<path id="XMLID_979_" fill="#2ECC9B" d="M85,50.3L85,50.3c-0.8,0.5-1.8,0.2-2.3-0.6l-5.1-8.7c-0.5-0.8-0.2-1.8,0.6-2.3l0,0
			c0.8-0.5,1.8-0.2,2.3,0.6l5.1,8.7C86,48.9,85.8,49.9,85,50.3z"/>
		<path id="XMLID_980_" fill="#2ECC9B" d="M95.2,50.3L95.2,50.3c-0.8,0.5-1.8,0.2-2.3-0.6l-5.1-8.7c-0.5-0.8-0.2-1.8,0.6-2.3l0,0
			c0.8-0.5,1.8-0.2,2.3,0.6l5.1,8.7C96.2,48.9,96,49.9,95.2,50.3z"/>
		<path id="XMLID_981_" fill="#2ECC9B" d="M108.7,50.9L108.7,50.9c-0.8,0.5-1.8,0.2-2.3-0.6l-5.1-8.7c-0.5-0.8-0.2-1.8,0.6-2.3l0,0
			c0.8-0.5,1.8-0.2,2.3,0.6l5.1,8.7C109.7,49.4,109.5,50.5,108.7,50.9z"/>
		<path id="XMLID_982_" fill="#2ECC9B" d="M119.3,50.9L119.3,50.9c-0.8,0.5-1.8,0.2-2.3-0.6l-5.1-8.7c-0.5-0.8-0.2-1.8,0.6-2.3l0,0
			c0.8-0.5,1.8-0.2,2.3,0.6l5.1,8.7C120.3,49.4,120.1,50.5,119.3,50.9z"/>
		<path id="XMLID_983_" fill="#2ECC9B" d="M129.9,50.9L129.9,50.9c-0.8,0.5-1.8,0.2-2.3-0.6l-5.1-8.7c-0.5-0.8-0.2-1.8,0.6-2.3l0,0
			c0.8-0.5,1.8-0.2,2.3,0.6l5.1,8.7C130.9,49.4,130.7,50.5,129.9,50.9z"/>
		<path id="XMLID_984_" fill="#2ECC9B" d="M139.8,51.6L139.8,51.6c-0.8,0.5-1.8,0.2-2.3-0.6l-5.1-8.7c-0.5-0.8-0.2-1.8,0.6-2.3l0,0
			c0.8-0.5,1.8-0.2,2.3,0.6l5.1,8.7C140.9,50.1,140.6,51.2,139.8,51.6z"/>
		<path id="XMLID_985_" fill="#2ECC9B" d="M149.8,51.6L149.8,51.6c-0.8,0.5-1.8,0.2-2.3-0.6l-5.1-8.7c-0.5-0.8-0.2-1.8,0.6-2.3l0,0
			c0.8-0.5,1.8-0.2,2.3,0.6l5.1,8.7C150.9,50.1,150.6,51.2,149.8,51.6z"/>
		<path id="XMLID_986_" fill="#2ECC9B" d="M163.8,52.2L163.8,52.2c-0.8,0.5-1.8,0.2-2.3-0.6l-5.1-8.7c-0.5-0.8-0.2-1.8,0.6-2.3l0,0
			c0.8-0.5,1.8-0.2,2.3,0.6l5.1,8.7C164.8,50.8,164.5,51.8,163.8,52.2z"/>
		<path id="XMLID_1163_" fill="#2ECC9B" d="M174.1,52.2L174.1,52.2c-0.8,0.5-1.8,0.2-2.3-0.6l-5.1-8.7c-0.5-0.8-0.2-1.8,0.6-2.3l0,0
			c0.8-0.5,1.8-0.2,2.3,0.6l5.1,8.7C175.2,50.8,174.9,51.8,174.1,52.2z"/>
		<path id="XMLID_1164_" fill="#2ECC9B" d="M184.5,52.2L184.5,52.2c-0.8,0.5-1.8,0.2-2.3-0.6L177,43c-0.5-0.8-0.2-1.8,0.6-2.3l0,0
			c0.8-0.5,1.8-0.2,2.3,0.6L185,50C185.5,50.8,185.2,51.8,184.5,52.2z"/>
		<path id="XMLID_1165_" fill="#2ECC9B" d="M194.6,52.2L194.6,52.2c-0.8,0.5-1.8,0.2-2.3-0.6l-5.1-8.7c-0.5-0.8-0.2-1.8,0.6-2.3l0,0
			c0.8-0.5,1.8-0.2,2.3,0.6l5.1,8.7C195.7,50.8,195.4,51.8,194.6,52.2z"/>
		<path id="XMLID_910_" fill="#2ECC9B" d="M205,52.2L205,52.2c-0.8,0.5-1.8,0.2-2.3-0.6l-5.1-8.7c-0.5-0.8-0.2-1.8,0.6-2.3l0,0
			c0.8-0.5,1.8-0.2,2.3,0.6l5.1,8.7C206,50.8,205.8,51.8,205,52.2z"/>
		<path id="XMLID_911_" fill="#2ECC9B" d="M215.3,53L215.3,53c-0.8,0.5-1.8,0.2-2.3-0.6l-5.1-8.7c-0.5-0.8-0.2-1.8,0.6-2.3l0,0
			c0.8-0.5,1.8-0.2,2.3,0.6l5.1,8.7C216.3,51.5,216.1,52.5,215.3,53z"/>
		<path id="XMLID_912_" fill="#2ECC9B" d="M225.5,53L225.5,53c-0.8,0.5-1.8,0.2-2.3-0.6l-5.1-8.7c-0.5-0.8-0.2-1.8,0.6-2.3l0,0
			c0.8-0.5,1.8-0.2,2.3,0.6l5.1,8.7C226.6,51.5,226.3,52.5,225.5,53z"/>
		<path id="XMLID_913_" fill="#2ECC9B" d="M239.6,53L239.6,53c-0.8,0.5-1.8,0.2-2.3-0.6l-5.1-8.7c-0.5-0.8-0.2-1.8,0.6-2.3l0,0
			c0.8-0.5,1.8-0.2,2.3,0.6l5.1,8.7C240.6,51.5,240.4,52.5,239.6,53z"/>
		<path id="XMLID_914_" fill="#2ECC9B" d="M249.9,53L249.9,53c-0.8,0.5-1.8,0.2-2.3-0.6l-5.1-8.7c-0.5-0.8-0.2-1.8,0.6-2.3l0,0
			c0.8-0.5,1.8-0.2,2.3,0.6l5.1,8.7C250.9,51.5,250.7,52.5,249.9,53z"/>
		<path id="XMLID_915_" fill="#2ECC9B" d="M259.9,53.6L259.9,53.6c-0.8,0.5-1.8,0.2-2.3-0.6l-5.1-8.7c-0.5-0.8-0.2-1.8,0.6-2.3l0,0
			c0.8-0.5,1.8-0.2,2.3,0.6l5.1,8.7C261,52.2,260.7,53.2,259.9,53.6z"/>
		<path id="XMLID_916_" fill="#2ECC9B" d="M270.3,53.6L270.3,53.6c-0.8,0.5-1.8,0.2-2.3-0.6l-5.1-8.7c-0.5-0.8-0.2-1.8,0.6-2.3l0,0
			c0.8-0.5,1.8-0.2,2.3,0.6l5.1,8.7C271.3,52.2,271.1,53.2,270.3,53.6z"/>
	</g>
	<g id="XMLID_657_">
		<path id="XMLID_917_" fill="#2ECC9B" d="M413.1,56.9L413.1,56.9c-0.8,0.5-1.8,0.2-2.3-0.6l-5.1-8.7c-0.5-0.8-0.2-1.8,0.6-2.3l0,0
			c0.8-0.5,1.8-0.2,2.3,0.6l5.1,8.7C414.2,55.4,413.9,56.5,413.1,56.9z"/>
		<path id="XMLID_918_" fill="#2ECC9B" d="M423.2,56.9L423.2,56.9c-0.8,0.5-1.8,0.2-2.3-0.6l-5.1-8.7c-0.5-0.8-0.2-1.8,0.6-2.3l0,0
			c0.8-0.5,1.8-0.2,2.3,0.6l5.1,8.7C424.2,55.4,424,56.5,423.2,56.9z"/>
		<path id="XMLID_919_" fill="#2ECC9B" d="M433.5,56.9L433.5,56.9c-0.8,0.5-1.8,0.2-2.3-0.6l-5.1-8.7c-0.5-0.8-0.2-1.8,0.6-2.3l0,0
			c0.8-0.5,1.8-0.2,2.3,0.6l5.1,8.7C434.5,55.4,434.3,56.5,433.5,56.9z"/>
		<path id="XMLID_920_" fill="#2ECC9B" d="M443.7,56.9L443.7,56.9c-0.8,0.5-1.8,0.2-2.3-0.6l-5.1-8.7c-0.5-0.8-0.2-1.8,0.6-2.3l0,0
			c0.8-0.5,1.8-0.2,2.3,0.6l5.1,8.7C444.7,55.4,444.4,56.5,443.7,56.9z"/>
		<path id="XMLID_921_" fill="#2ECC9B" d="M454,56.9L454,56.9c-0.8,0.5-1.8,0.2-2.3-0.6l-5.1-8.7c-0.5-0.8-0.2-1.8,0.6-2.3l0,0
			c0.8-0.5,1.8-0.2,2.3,0.6l5.1,8.7C455,55.4,454.8,56.5,454,56.9z"/>
		<path id="XMLID_978_" fill="#2ECC9B" d="M464.3,57.5L464.3,57.5c-0.8,0.5-1.8,0.2-2.3-0.6l-5.1-8.7c-0.5-0.8-0.2-1.8,0.6-2.3l0,0
			c0.8-0.5,1.8-0.2,2.3,0.6l5.1,8.7C465.3,56,465.1,57,464.3,57.5z"/>
		<path id="XMLID_989_" fill="#2ECC9B" d="M474.8,57.5L474.8,57.5c-0.8,0.5-1.8,0.2-2.3-0.6l-5.1-8.7c-0.5-0.8-0.2-1.8,0.6-2.3l0,0
			c0.8-0.5,1.8-0.2,2.3,0.6l5.1,8.7C475.8,56,475.6,57,474.8,57.5z"/>
		<path id="XMLID_990_" fill="#2ECC9B" d="M488.3,58.1L488.3,58.1c-0.8,0.5-1.8,0.2-2.3-0.6l-5.1-8.7c-0.5-0.8-0.2-1.8,0.6-2.3l0,0
			c0.8-0.5,1.8-0.2,2.3,0.6l5.1,8.7C489.4,56.6,489.1,57.6,488.3,58.1z"/>
		<path id="XMLID_991_" fill="#2ECC9B" d="M498.7,57.5L498.7,57.5c-0.8,0.5-1.8,0.2-2.3-0.6l-5.1-8.7c-0.5-0.8-0.2-1.8,0.6-2.3l0,0
			c0.8-0.5,1.8-0.2,2.3,0.6l5.1,8.7C499.7,56,499.5,57,498.7,57.5z"/>
		<path id="XMLID_992_" fill="#2ECC9B" d="M508.7,58.1L508.7,58.1c-0.8,0.5-1.8,0.2-2.3-0.6l-5.1-8.7c-0.5-0.8-0.2-1.8,0.6-2.3l0,0
			c0.8-0.5,1.8-0.2,2.3,0.6l5.1,8.7C509.7,56.6,509.4,57.6,508.7,58.1z"/>
		<path id="XMLID_993_" fill="#2ECC9B" d="M519,58.1L519,58.1c-0.8,0.5-1.8,0.2-2.3-0.6l-5.1-8.7c-0.5-0.8-0.2-1.8,0.6-2.3l0,0
			c0.8-0.5,1.8-0.2,2.3,0.6l5.1,8.7C520,56.6,519.8,57.6,519,58.1z"/>
		<path id="XMLID_994_" fill="#2ECC9B" d="M529.1,58.1L529.1,58.1c-0.8,0.5-1.8,0.2-2.3-0.6l-5.1-8.7c-0.5-0.8-0.2-1.8,0.6-2.3l0,0
			c0.8-0.5,1.8-0.2,2.3,0.6l5.1,8.7C530.2,56.6,529.9,57.6,529.1,58.1z"/>
		<path id="XMLID_995_" fill="#2ECC9B" d="M539.8,58.9L539.8,58.9c-0.8,0.5-1.8,0.2-2.3-0.6l-5.1-8.7c-0.5-0.8-0.2-1.8,0.6-2.3l0,0
			c0.8-0.5,1.8-0.2,2.3,0.6l5.1,8.7C540.9,57.4,540.6,58.4,539.8,58.9z"/>
		<path id="XMLID_996_" fill="#2ECC9B" d="M550.3,58.9L550.3,58.9c-0.8,0.5-1.8,0.2-2.3-0.6l-5.1-8.7c-0.5-0.8-0.2-1.8,0.6-2.3l0,0
			c0.8-0.5,1.8-0.2,2.3,0.6l5.1,8.7C551.3,57.4,551,58.4,550.3,58.9z"/>
	</g>
	<polygon id="XMLID_604_" fill="#DB3E46" points="604.6,52.3 562,52.3 558.7,47.1 601.3,47.1 	"/>
	<polygon id="XMLID_998_" fill="#DB3E46" points="609.4,62.9 566.9,62.9 563.5,57.7 606.1,57.7 	"/>
	<polygon id="XMLID_997_" fill="#2ECC9B" points="581.4,52.3 562,52.3 558.7,47.1 578.1,47.1 	"/>
	<polygon id="XMLID_1000_" fill="#2ECC9B" points="597.1,62.9 577.7,62.9 574.4,57.7 593.8,57.7 	"/>
	<polygon id="XMLID_999_" fill="#44423D" points="319.5,60.2 289.1,60.2 276.6,42.2 307.1,42.1 	"/>
	<g id="XMLID_665_">
		<polygon id="XMLID_922_" fill="#DB3E46" points="315.4,73.2 315.4,74.7 210,72.8 208.7,71.3 		"/>
		<polygon id="XMLID_813_" fill="#DB3E46" points="315.3,77.5 315.3,79 213.8,77.1 212.5,75.6 		"/>
		<polygon id="XMLID_812_" fill="#DB3E46" points="315.3,81.8 315.3,83.2 217.5,81.4 216.3,80 		"/>
		<polygon id="XMLID_776_" fill="#DB3E46" points="315.2,86 315.2,87.5 221.3,85.8 220,84.3 		"/>
		<polygon id="XMLID_775_" fill="#DB3E46" points="315.2,90.3 315.1,91.8 225,90.1 223.8,88.6 		"/>
		<polygon id="XMLID_774_" fill="#DB3E46" points="315.1,94.6 315.1,96 228.8,94.5 227.5,93 		"/>
		<polygon id="XMLID_773_" fill="#DB3E46" points="315.1,98.9 315,100.3 232.6,98.8 231.3,97.3 		"/>
		<polygon id="XMLID_772_" fill="#DB3E46" points="315,103.1 315,104.6 236.3,103.1 235.1,101.7 		"/>
		<polygon id="XMLID_768_" fill="#DB3E46" points="315,107.4 314.9,108.9 240.1,107.5 238.8,106 		"/>
		<polygon id="XMLID_767_" fill="#DB3E46" points="314.9,111.7 314.9,113.1 243.9,111.8 242.6,110.4 		"/>
		<polygon id="XMLID_766_" fill="#DB3E46" points="314.8,115.9 314.8,117.4 247.6,116.2 246.3,114.7 		"/>
		<polygon id="XMLID_763_" fill="#DB3E46" points="314.8,120.2 314.8,121.7 251.4,120.5 250.1,119 		"/>
		<polygon id="XMLID_762_" fill="#DB3E46" points="314.7,124.5 314.7,125.9 255.1,124.9 253.9,123.4 		"/>
		<polygon id="XMLID_726_" fill="#DB3E46" points="314.7,128.8 314.7,130.2 258.9,129.2 257.6,127.7 		"/>
		<polygon id="XMLID_719_" fill="#DB3E46" points="314.6,133 314.6,134.5 262.7,133.5 261.4,132.1 		"/>
	</g>
	<rect id="XMLID_105_" x="316.1" y="72.5" fill="#FFFFFF" stroke="#868686" stroke-miterlimit="10" width="15.5" height="70.3"/>
	<rect id="XMLID_938_" x="331.6" y="72.5" fill="#FFFFFF" stroke="#868686" stroke-miterlimit="10" width="15.5" height="70.3"/>
	<rect id="XMLID_939_" x="347.1" y="72.5" fill="#FFFFFF" stroke="#868686" stroke-miterlimit="10" width="15.5" height="70.3"/>
	<rect id="XMLID_940_" x="362.6" y="72.5" fill="#FFFFFF" stroke="#868686" stroke-miterlimit="10" width="15.5" height="70.3"/>
	<rect id="XMLID_977_" x="378.1" y="72.5" fill="#FFFFFF" stroke="#868686" stroke-miterlimit="10" width="15.5" height="70.3"/>
	<rect id="XMLID_1001_" x="393.6" y="72.5" fill="#FFFFFF" stroke="#868686" stroke-miterlimit="10" width="15.5" height="70.3"/>
	<rect id="XMLID_1033_" x="409.1" y="72.5" fill="#FFFFFF" stroke="#868686" stroke-miterlimit="10" width="15.5" height="70.3"/>
	<rect id="XMLID_1034_" x="424.6" y="72.5" fill="#FFFFFF" stroke="#868686" stroke-miterlimit="10" width="15.5" height="70.3"/>
	<rect id="XMLID_1035_" x="440.1" y="72.5" fill="#FFFFFF" stroke="#868686" stroke-miterlimit="10" width="15.5" height="70.3"/>
	<rect id="XMLID_1036_" x="455.6" y="72.5" fill="#FFFFFF" stroke="#868686" stroke-miterlimit="10" width="15.5" height="70.3"/>
	<rect id="XMLID_1037_" x="471" y="72.5" fill="#FFFFFF" stroke="#868686" stroke-miterlimit="10" width="15.5" height="70.3"/>
	<rect id="XMLID_1038_" x="486.5" y="72.5" fill="#FFFFFF" stroke="#868686" stroke-miterlimit="10" width="15.5" height="70.3"/>
	<rect id="XMLID_1039_" x="502" y="72.5" fill="#FFFFFF" stroke="#868686" stroke-miterlimit="10" width="15.5" height="70.3"/>
	<rect id="XMLID_1040_" x="517.5" y="72.5" fill="#FFFFFF" stroke="#868686" stroke-miterlimit="10" width="15.5" height="70.3"/>
	<rect id="XMLID_1041_" x="533" y="72.5" fill="#FFFFFF" stroke="#868686" stroke-miterlimit="10" width="15.5" height="70.3"/>
	<rect id="XMLID_1042_" x="548.5" y="72.5" fill="#FFFFFF" stroke="#868686" stroke-miterlimit="10" width="15.5" height="70.3"/>
	<rect id="XMLID_1043_" x="564" y="72.5" fill="#FFFFFF" stroke="#868686" stroke-miterlimit="10" width="15.5" height="70.3"/>
	<rect id="XMLID_1044_" x="579.5" y="72.5" fill="#FFFFFF" stroke="#868686" stroke-miterlimit="10" width="15.5" height="70.3"/>
	<rect id="XMLID_1045_" x="595" y="72.5" fill="#FFFFFF" stroke="#868686" stroke-miterlimit="10" width="15.5" height="70.3"/>
	<rect id="XMLID_716_" x="327.1" y="72.6" fill="#3C3C3B" width="9.1" height="35.1"/>
	<rect id="XMLID_718_" x="342.5" y="72.6" fill="#3C3C3B" width="9.1" height="35.1"/>
	<rect id="XMLID_923_" x="358" y="72.6" fill="#3C3C3B" width="9.1" height="35.1"/>
	<g id="XMLID_717_">
		<rect id="XMLID_930_" x="435.5" y="72.6" fill="#3C3C3B" width="9.1" height="35.1"/>
		<rect id="XMLID_929_" x="451" y="72.6" fill="#3C3C3B" width="9.1" height="35.1"/>
		<rect id="XMLID_928_" x="466.5" y="72.6" fill="#3C3C3B" width="9.1" height="35.1"/>
	</g>
	<g id="XMLID_927_">
		<rect id="XMLID_935_" x="543.5" y="72.6" fill="#3C3C3B" width="9.1" height="35.1"/>
		<rect id="XMLID_934_" x="559" y="72.6" fill="#3C3C3B" width="9.1" height="35.1"/>
		<rect id="XMLID_933_" x="574.5" y="72.6" fill="#3C3C3B" width="9.1" height="35.1"/>
	</g>
	<rect id="XMLID_924_" x="389" y="72.6" fill="#3C3C3B" width="9.1" height="35.1"/>
	<rect id="XMLID_925_" x="405.1" y="72.6" fill="#3C3C3B" width="9.1" height="35.1"/>
	<rect id="XMLID_932_" x="497.2" y="72.6" fill="#3C3C3B" width="9.1" height="35.1"/>
	<rect id="XMLID_931_" x="512.7" y="72.6" fill="#3C3C3B" width="9.1" height="35.1"/>
	<path id="XMLID_1046_" opacity="9.000000e-02" fill="#FFFFFF" d="M589.9,0.5L272.7,143.8c-1-0.4-2-1-2.7-1.8l-7.3-8.4l-1.3-1.5
		l-2.5-2.9l-1.3-1.5l-2.5-2.9l-1.3-1.5l-2.5-2.9l-1.3-1.5l-2.5-2.9l-1.3-1.5l-2.5-2.9l-1.3-1.5l-2.5-2.9l-1.3-1.5l-2.5-2.9l-1.3-1.5
		l-2.5-2.9l-1.3-1.5l-2.5-2.9l-1.3-1.5l-2.5-2.9l-1.3-1.5l-2.5-2.9l-1.3-1.5l-2.5-2.9l-1.3-1.5l-2.5-2.9l-1.3-1.5l-2.5-2.9l-1.3-1.5
		l-5.2-6c-1.1-1.3-2.8-2.1-4.6-2.1l-178.3-4c-1.9,0-3.7-0.9-4.8-2.5L1.3,37.4c-3-4-0.3-9.7,4.7-10L587.2,0
		C588.1,0,589,0.1,589.9,0.5z"/>
</g>
<rect x="316.1" y="72.5" opacity="8.000000e-02" fill="#231F20" width="294.4" height="4.8"/>
</svg>
